<svg xmlns="http://www.w3.org/2000/svg" width="23" height="23" viewBox="0 0 23 23" fill="none">
    <g opacity="0.25" clip-path="url(#clip0_790_91153)">
        <path
            d="M17.9688 8.625H17.25V5.75C17.25 2.57887 14.6711 0 11.5 0C8.32888 0 5.75 2.57887 5.75 5.75V8.625H5.03125C4.45961 8.62576 3.9116 8.85318 3.50739 9.25739C3.10318 9.6616 2.87576 10.2096 2.875 10.7812V20.8438C2.875 22.033 3.84292 23 5.03125 23H17.9688C19.1571 23 20.125 22.033 20.125 20.8438V10.7812C20.125 9.59196 19.1571 8.625 17.9688 8.625ZM7.66667 5.75C7.66667 3.63592 9.38592 1.91667 11.5 1.91667C13.6141 1.91667 15.3333 3.63592 15.3333 5.75V8.625H7.66667V5.75ZM12.4583 16.0252V18.2083C12.4583 18.4625 12.3574 18.7063 12.1776 18.886C11.9979 19.0657 11.7542 19.1667 11.5 19.1667C11.2458 19.1667 11.0021 19.0657 10.8224 18.886C10.6426 18.7063 10.5417 18.4625 10.5417 18.2083V16.0252C9.97146 15.6927 9.58333 15.0813 9.58333 14.375C9.58333 13.318 10.443 12.4583 11.5 12.4583C12.557 12.4583 13.4167 13.318 13.4167 14.375C13.4167 15.0813 13.0285 15.6927 12.4583 16.0252Z"
            fill="white" />
    </g>
    <defs>
        <clipPath id="clip0_790_91153">
            <rect width="23" height="23" fill="white" />
        </clipPath>
    </defs>
</svg>