<svg width="36" height="26" viewBox="0 0 36 26" fill="none" xmlns="http://www.w3.org/2000/svg">
<path d="M35.3299 20.1846C35.2479 15.6182 34.7085 11.0006 33.824 6.33991C33.1035 3.10177 30.5113 0.217728 26.3695 0.00649989C23.3118 -0.11928 22.7205 1.62249 19.2561 1.589C18.3073 1.58285 17.3591 1.58285 16.4103 1.589C12.9452 1.62249 12.3526 -0.11928 9.29626 0.00649989C5.15374 0.217728 2.48092 3.09425 1.83904 6.33991C0.953796 11.0006 0.414448 15.6175 0.333101 20.1839C0.313277 23.3632 3.4523 25.4782 5.52356 25.6232C9.52458 25.9253 12.7032 18.87 15.1252 18.8693C16.9305 18.8796 18.7352 18.8803 20.5405 18.8693C22.9632 18.8693 26.1391 25.926 30.1429 25.6238C32.2134 25.4789 35.4338 23.3495 35.3306 20.1846H35.3299ZM13.3827 11.2747H11.5165V13.1409C11.5165 13.9284 10.8781 14.5669 10.0906 14.5669C9.3031 14.5669 8.66463 13.9284 8.66463 13.1409V11.2747H6.79845C6.01096 11.2747 5.37249 10.6362 5.37249 9.84875C5.37249 9.06126 6.01096 8.42279 6.79845 8.42279H8.66463V6.55661C8.66463 5.76912 9.3031 5.13065 10.0906 5.13065C10.8781 5.13065 11.5165 5.76912 11.5165 6.55661V8.42279H13.3827C14.1702 8.42279 14.8087 9.06126 14.8087 9.84875C14.8087 10.6362 14.1702 11.2747 13.3827 11.2747ZM24.9059 14.5662C23.7896 14.5962 22.8613 13.7144 22.8312 12.5988C22.8018 11.4791 23.6844 10.5494 24.8 10.5207C25.9169 10.4927 26.8466 11.3738 26.8753 12.4908C26.9034 13.6078 26.0222 14.5375 24.9059 14.5662ZM28.2726 9.1761C27.1563 9.20755 26.2259 8.32504 26.1952 7.20875C26.1671 6.0904 27.0483 5.1621 28.1653 5.13133C29.2836 5.10194 30.2119 5.98445 30.242 7.10143C30.2714 8.21772 29.3882 9.14808 28.2726 9.1761Z" fill="#4C4D4F"/>
</svg>
