<svg width="20" height="18" viewBox="0 0 20 18" fill="none" xmlns="http://www.w3.org/2000/svg">
    <path
        d="M14.9192 0C12.1283 0 9.85167 2.24667 9.83 5.01667L6.66083 9.53917C5.77667 9.45917 5.01417 9.64167 4.34 10.0508L0 8.30333V13.0758L2.56667 14.1033C2.75421 14.947 3.22333 15.7018 3.89686 16.2434C4.57039 16.785 5.40822 17.0812 6.2725 17.0833C8.2375 17.0833 9.86583 15.5808 10.045 13.6675L14.9242 10.1183C17.7233 10.1183 20 7.85917 20 5.0575L19.9992 5.05667C19.9992 2.26833 17.7225 0 14.9192 0ZM3.8075 14.6008C4.2625 14.7742 4.7225 14.965 5.17833 15.1433C5.44819 15.2538 5.73722 15.3097 6.02879 15.3079C6.32035 15.3061 6.60868 15.2466 6.87716 15.1329C7.14564 15.0192 7.38897 14.8535 7.59312 14.6453C7.79727 14.4372 7.95821 14.1906 8.06667 13.92C8.17524 13.6507 8.22938 13.3625 8.22595 13.0721C8.22252 12.7817 8.16159 12.4949 8.04669 12.2282C7.93178 11.9615 7.76517 11.7202 7.55648 11.5183C7.34779 11.3163 7.10116 11.1578 6.83083 11.0517L5.67 10.585C7.39833 10.2017 9.0625 11.4967 9.06333 13.2975C9.0625 14.8408 5.165 17.1375 3.8075 14.6008ZM14.9242 8.44667C13.04 8.44667 11.5092 6.93417 11.5092 5.0575C11.5092 3.18917 13.0358 1.66833 14.9242 1.66833C16.795 1.66833 18.3258 3.18917 18.3258 5.0575C18.3255 5.50353 18.2372 5.94512 18.066 6.35698C17.8948 6.76884 17.644 7.14289 17.328 7.4577C17.012 7.77251 16.6371 8.0219 16.2246 8.19161C15.8121 8.36131 15.3702 8.44798 14.9242 8.44667Z"
        fill="#CDCDCD" />
    <path
        d="M14.9334 2.33832C13.4293 2.33832 12.2109 3.55248 12.2109 5.05082C12.2109 6.54915 13.4251 7.76332 14.9334 7.76332C16.4284 7.76332 17.6559 6.55332 17.6559 5.05082C17.6559 3.54832 16.4284 2.33832 14.9334 2.33832Z"
        fill="#CDCDCD" />
</svg>
    