<svg xmlns="http://www.w3.org/2000/svg" width="215" height="216" viewBox="0 0 215 216" fill="none">
    <g filter="url(#filter0_f_1889_128638)">
        <ellipse cx="107.574" cy="108.115" rx="37.1134" ry="37.2082" fill="#B9EDFF" />
    </g>
    <path
        d="M172.493 105.117V103.286L170.748 102.733C141.015 93.3127 124.455 62.8579 116.432 42.0987L115.814 40.5H114.1H101.893H100.179L99.5608 42.0987C91.5375 62.8579 74.9781 93.3127 45.2449 102.733L43.5 103.286V105.117V111.116V112.945L45.2429 113.498C74.9788 122.947 91.5665 153.405 99.5602 174.129L100.177 175.729H101.893H114.1H115.815L116.432 174.129C124.426 153.405 141.014 122.947 170.75 113.498L172.493 112.945V111.116V105.117Z"
        fill="url(#paint0_linear_1889_128638)" stroke="url(#paint1_linear_1889_128638)"
        stroke-width="5" />
    <path
        d="M169.993 108.114V111.09C138.855 120.915 121.802 152.398 113.727 173.229H107.575V108.114H169.993Z"
        fill="url(#paint2_linear_1889_128638)" />
    <path d="M107.575 43V108.114H46V105.092C76.717 95.3182 93.5164 63.847 101.506 43H107.575Z"
        fill="url(#paint3_linear_1889_128638)" />
    <g filter="url(#filter1_f_1889_128638)">
        <ellipse cx="120.225" cy="108.114" rx="18.5567" ry="18.6041" fill="white" />
    </g>
    <defs>
        <filter id="filter0_f_1889_128638" x="0.460449" y="0.906311" width="214.227"
            height="214.416" filterUnits="userSpaceOnUse" color-interpolation-filters="sRGB">
            <feFlood flood-opacity="0" result="BackgroundImageFix" />
            <feBlend mode="normal" in="SourceGraphic" in2="BackgroundImageFix" result="shape" />
            <feGaussianBlur stdDeviation="35" result="effect1_foregroundBlur_1889_128638" />
        </filter>
        <filter id="filter1_f_1889_128638" x="31.668" y="19.51" width="177.113" height="177.208"
            filterUnits="userSpaceOnUse" color-interpolation-filters="sRGB">
            <feFlood flood-opacity="0" result="BackgroundImageFix" />
            <feBlend mode="normal" in="SourceGraphic" in2="BackgroundImageFix" result="shape" />
            <feGaussianBlur stdDeviation="35" result="effect1_foregroundBlur_1889_128638" />
        </filter>
        <linearGradient id="paint0_linear_1889_128638" x1="107.996" y1="43" x2="170.267"
            y2="200.604" gradientUnits="userSpaceOnUse">
            <stop stop-color="#B9EEFF" />
            <stop offset="1" stop-color="#2097BF" />
        </linearGradient>
        <linearGradient id="paint1_linear_1889_128638" x1="153.545" y1="33.6979" x2="60.8667"
            y2="165.396" gradientUnits="userSpaceOnUse">
            <stop stop-color="#91E2FD" />
            <stop offset="1" stop-color="#158FB8" />
        </linearGradient>
        <linearGradient id="paint2_linear_1889_128638" x1="138.784" y1="108.114" x2="138.784"
            y2="173.229" gradientUnits="userSpaceOnUse">
            <stop stop-color="#B7EDFF" />
            <stop offset="1" stop-color="#91E2FD" />
        </linearGradient>
        <linearGradient id="paint3_linear_1889_128638" x1="76.7873" y1="43" x2="76.7873"
            y2="108.114" gradientUnits="userSpaceOnUse">
            <stop stop-color="#B7EDFF" />
            <stop offset="1" stop-color="#91E2FD" />
        </linearGradient>
    </defs>
</svg>