<svg width="358" height="225" viewBox="0 0 358 225" fill="none" xmlns="http://www.w3.org/2000/svg">
    <mask id="mask0_1889_128566" style="mask-type:alpha" maskUnits="userSpaceOnUse" x="-93" y="-109"
        width="708" height="452">
        <rect x="-92.6562" y="-108.875" width="707.104" height="451.125" rx="25"
            fill="url(#paint0_linear_1889_128566)" />
    </mask>
    <g mask="url(#mask0_1889_128566)">
        <path
            d="M211.089 579.886L360.322 430.265H287.65L389.693 209.363H372.024L202.559 580.057L211.089 579.886Z"
            fill="#191A1E" />
        <path
            d="M-13.98 312.242L-27.6367 349.13L-21.0203 355.764L-5.53171 313.448L-2.55155 305.308L23.2991 234.663L50.5305 261.964V149.848L47.3932 146.579L-12.818 309.124L-13.98 312.242Z"
            fill="#191A1E" />
        <path
            d="M-49.2776 68.0471L124.288 147.792V157.173L7.53654 102.961V141.576L-60.5898 73.2825L-49.2776 68.0471Z"
            fill="#191A1E" />
        <path
            d="M-71.5888 60.5573L-107.262 76.9557V86.3438L-66.4624 67.3962L-58.6156 63.7574L9.49024 32.1324V70.7335L88.5666 -8.53808L88.6555 -13.0746L-68.5677 59.173L-71.5888 60.5573Z"
            fill="#191A1E" />
        <path
            d="M-201.758 67.3957L-52.525 217.01V144.152L167.814 246.449V228.742L-201.936 58.8436L-201.758 67.3957Z"
            fill="#191A1E" />
        <path
            d="M75.6901 -137.141L142.176 42.2956L135.56 48.9289L91.2334 -72.1712L64.002 -44.8702V-141.452L75.6901 -137.141Z"
            fill="#191A1E" />
        <path
            d="M-31.6699 -245.695V-34.1055L19.7171 -85.6238L103.366 142.912L115.861 130.393L-25.7643 -251.862L-31.6699 -245.695Z"
            fill="#191A1E" />
        <path
            d="M309.426 -346.504L160.186 -196.89H232.858L130.822 24.0121H148.484L317.949 -346.682L309.426 -346.504Z"
            fill="#191A1E" />
        <path
            d="M722.272 165.985L573.033 16.3645V89.222L352.693 -13.0745V4.63277L722.443 174.531L722.272 165.985Z"
            fill="#191A1E" />
        <path
            d="M244.496 201.441L266.218 153.918H268.775L254.011 185.886H264.53L245.925 204.539L244.496 201.441Z"
            fill="#191A1E" />
        <path
            d="M242.46 207.554L246.923 217.319H249.479L244.319 206.149L243.328 203.997L234.709 185.351H245.228L223.636 163.697L222.398 163.676L242.077 206.725L242.46 207.554Z"
            fill="#191A1E" />
        <path
            d="M244.319 243.195L285.077 202.332H265.228L293.095 142.002H288.276L241.988 243.243L244.319 243.195Z"
            fill="#191A1E" />
        <path
            d="M188.599 167.226L237.478 149.018L239.289 150.834L206.296 162.97L213.739 170.426H187.424L188.599 167.226Z"
            fill="#191A1E" />
        <path
            d="M182.851 170.097L179.119 180.17L180.924 181.986L185.155 170.426L185.968 168.205L193.029 148.908L200.465 156.364V125.746L199.611 124.849L183.166 169.247L182.851 170.097Z"
            fill="#191A1E" />
        <path
            d="M159.024 196.623H216.665L202.633 182.548L264.895 159.646L261.484 156.227L157.35 195.006L159.024 196.623Z"
            fill="#191A1E" />
        <path
            d="M173.207 103.399L220.616 125.184V127.747L188.723 112.938V123.484L170.117 104.832L173.207 103.399Z"
            fill="#191A1E" />
        <path
            d="M167.118 101.357L157.371 105.839V108.402L168.519 103.228L170.659 102.227L189.264 93.5931V104.139L210.856 82.485L210.884 81.2446L167.945 100.98L167.118 101.357Z"
            fill="#191A1E" />
        <path
            d="M131.567 103.222L172.326 144.091V124.191L232.503 152.129V147.291L131.52 100.892L131.567 103.222Z"
            fill="#191A1E" />
        <path
            d="M207.344 47.3654L225.499 96.3687L223.694 98.1778L211.589 65.1069L204.152 72.5626V46.1867L207.344 47.3654Z"
            fill="#191A1E" />
        <path
            d="M204.473 41.5954L194.426 37.8607L192.621 39.6698L204.152 43.9116L206.367 44.727L225.608 51.8058L218.178 59.2615H248.718L249.606 58.405L205.328 41.9175L204.473 41.5954Z"
            fill="#191A1E" />
        <path
            d="M178.02 17.7142V75.5027L192.052 61.4342L214.902 123.848L218.313 120.429L179.633 16.0284L178.02 17.7142Z"
            fill="#191A1E" />
        <path
            d="M270.997 31.9337L249.275 79.4569H246.719L261.49 47.4893H250.97L269.569 28.8363L270.997 31.9337Z"
            fill="#191A1E" />
        <path
            d="M273.042 25.8278L268.572 16.0559H266.016L271.176 27.2257L272.167 29.3775L280.786 48.0235H270.267L291.866 69.678L293.097 69.6985L273.418 26.6501L273.042 25.8278Z"
            fill="#191A1E" />
        <path
            d="M271.174 -9.81991L230.416 31.0425H250.266L222.398 91.3801H227.217L273.505 -9.86786L271.174 -9.81991Z"
            fill="#191A1E" />
        <path
            d="M326.897 66.1492L278.018 84.3567L276.207 82.5476L309.2 70.4047L301.764 62.949H328.072L326.897 66.1492Z"
            fill="#191A1E" />
        <path
            d="M332.646 63.2767L336.378 53.2033L334.573 51.3874L330.342 62.9478L329.529 65.1681L322.468 84.4651L315.031 77.0094V107.627L315.886 108.525L332.331 64.1265L332.646 63.2767Z"
            fill="#191A1E" />
        <path
            d="M356.472 36.7509H298.831L312.863 50.8263L250.602 73.7279L254.012 77.1473L358.146 38.3682L356.472 36.7509Z"
            fill="#191A1E" />
        <path
            d="M342.29 129.975L294.881 108.197V105.634L326.774 120.436V109.89L345.379 128.543L342.29 129.975Z"
            fill="#191A1E" />
        <path
            d="M348.379 132.016L358.126 127.542V124.979L346.978 130.152L344.838 131.146L326.233 139.78V129.241L304.641 150.889L304.613 152.129L347.552 132.393L348.379 132.016Z"
            fill="#191A1E" />
        <path
            d="M383.929 130.153L343.171 89.2901V109.183L282.994 81.2451V86.0831L383.977 132.482L383.929 130.153Z"
            fill="#191A1E" />
        <path
            d="M308.154 186.015L290 137.005L291.804 135.196L303.91 168.267L311.346 160.811V187.194L308.154 186.015Z"
            fill="#191A1E" />
        <path
            d="M311.025 191.779L321.073 195.52L322.878 193.704L311.347 189.463L309.132 188.647L289.891 181.568L297.328 174.113H266.781L265.893 174.976L310.171 191.464L311.025 191.779Z"
            fill="#191A1E" />
        <path
            d="M337.477 215.66V157.872L323.444 171.941L300.594 109.526L297.184 112.946L335.864 217.346L337.477 215.66Z"
            fill="#191A1E" />
    </g>
    <defs>
        <linearGradient id="paint0_linear_1889_128566" x1="867.72" y1="-280.303" x2="-125.548"
            y2="330.962" gradientUnits="userSpaceOnUse">
            <stop stop-color="#2D2F36" />
            <stop offset="1" />
        </linearGradient>
    </defs>
</svg>
    