<svg width="555" height="224" viewBox="0 0 555 224" fill="none" xmlns="http://www.w3.org/2000/svg">
    <mask id="mask0_1889_125338" style="mask-type:luminance" maskUnits="userSpaceOnUse" x="455"
        y="-1" width="58" height="31">
        <path d="M512.924 -0.290268H455.89V29.6202H512.924V-0.290268Z" fill="white" />
    </mask>
    <g mask="url(#mask0_1889_125338)">
        <path
            d="M512.923 17.0117V29.6219H497.647V29.0377C505.265 27.1414 509.433 21.0476 511.42 17.0117H512.923Z"
            fill="#101010" />
        <path
            d="M499.681 14.6667V15.245C492.064 17.1473 487.888 23.241 485.909 27.271H484.405V14.6667H499.681Z"
            fill="#101010" />
        <path
            d="M484.406 2.05665V14.6669H469.13V14.0827C476.748 12.1863 480.915 6.09257 482.903 2.05665H484.406Z"
            fill="#101010" />
        <path
            d="M471.165 -0.288879V0.289389C463.547 2.1917 459.372 8.28546 457.392 12.3154H455.889V-0.288879H471.165Z"
            fill="#101010" />
    </g>
    <mask id="mask1_1889_125338" style="mask-type:luminance" maskUnits="userSpaceOnUse" x="455"
        y="29" width="58" height="31">
        <path d="M512.924 29.6195H455.89V59.53H512.924V29.6195Z" fill="white" />
    </mask>
    <g mask="url(#mask1_1889_125338)">
        <path
            d="M512.923 46.9227V59.533H497.647V58.9487C505.265 57.0524 509.433 50.9586 511.42 46.9227H512.923Z"
            fill="#101010" />
        <path
            d="M512.923 17.0121V29.6224H497.647V29.0382C505.265 27.1418 509.433 21.0481 511.42 17.0121H512.923Z"
            fill="#101010" />
        <path
            d="M499.681 44.5771V45.1554C492.064 47.0577 487.888 53.1515 485.909 57.1814H484.405V44.5771H499.681Z"
            fill="#101010" />
        <path
            d="M484.406 31.9672V44.5774H469.13V43.9932C476.748 42.0969 480.915 36.0031 482.903 31.9672H484.406Z"
            fill="#101010" />
        <path
            d="M471.165 29.6221V30.2004C463.547 32.1027 459.372 38.1965 457.392 42.2264H455.889V29.6221H471.165Z"
            fill="#101010" />
    </g>
    <mask id="mask2_1889_125338" style="mask-type:luminance" maskUnits="userSpaceOnUse" x="455"
        y="59" width="58" height="31">
        <path d="M512.924 59.5305H455.89V89.441H512.924V59.5305Z" fill="white" />
    </mask>
    <g mask="url(#mask2_1889_125338)">
        <path
            d="M512.923 76.8325V89.4427H497.647V88.8585C505.265 86.9622 509.433 80.8684 511.42 76.8325H512.923Z"
            fill="#101010" />
        <path
            d="M512.923 46.9221V59.5323H497.647V58.9481C505.265 57.0517 509.433 50.958 511.42 46.9221H512.923Z"
            fill="#101010" />
        <path
            d="M499.681 74.4878V75.066C492.064 76.9683 487.888 83.0621 485.909 87.092H484.405V74.4878H499.681Z"
            fill="#101010" />
        <path
            d="M484.406 61.8775V74.4877H469.13V73.9035C476.748 72.0072 480.915 65.9134 482.903 61.8775H484.406Z"
            fill="#101010" />
        <path
            d="M471.165 59.5324V60.1107C463.547 62.013 459.372 68.1068 457.392 72.1367H455.889V59.5324H471.165Z"
            fill="#101010" />
    </g>
    <mask id="mask3_1889_125338" style="mask-type:luminance" maskUnits="userSpaceOnUse" x="455"
        y="89" width="58" height="31">
        <path d="M512.924 89.4411H455.89V119.352H512.924V89.4411Z" fill="white" />
    </mask>
    <g mask="url(#mask3_1889_125338)">
        <path
            d="M512.923 106.743V119.353H497.647V118.769C505.265 116.872 509.433 110.779 511.42 106.743H512.923Z"
            fill="#101010" />
        <path
            d="M512.923 76.8325V89.4427H497.647V88.8585C505.265 86.9621 509.433 80.8684 511.42 76.8325H512.923Z"
            fill="#101010" />
        <path
            d="M499.681 104.398V104.976C492.064 106.878 487.888 112.972 485.909 117.002H484.405V104.398H499.681Z"
            fill="#101010" />
        <path
            d="M484.406 91.7877V104.398H469.13V103.814C476.748 101.917 480.915 95.8237 482.903 91.7877H484.406Z"
            fill="#101010" />
        <path
            d="M471.165 89.4427V90.021C463.547 91.9233 459.372 98.017 457.392 102.047H455.889V89.4427H471.165Z"
            fill="#101010" />
    </g>
    <mask id="mask4_1889_125338" style="mask-type:luminance" maskUnits="userSpaceOnUse" x="455"
        y="119" width="58" height="31">
        <path d="M512.924 119.351H455.89V149.262H512.924V119.351Z" fill="white" />
    </mask>
    <g mask="url(#mask4_1889_125338)">
        <path
            d="M512.923 136.654V149.264H497.647V148.68C505.265 146.783 509.433 140.689 511.42 136.654H512.923Z"
            fill="#101010" />
        <path
            d="M512.923 106.743V119.353H497.647V118.769C505.265 116.873 509.433 110.779 511.42 106.743H512.923Z"
            fill="#101010" />
        <path
            d="M499.681 134.308V134.886C492.064 136.789 487.888 142.882 485.909 146.912H484.405V134.308H499.681Z"
            fill="#101010" />
        <path
            d="M484.406 121.698V134.308H469.13V133.724C476.748 131.828 480.915 125.734 482.903 121.698H484.406Z"
            fill="#101010" />
        <path
            d="M471.165 119.353V119.932C463.547 121.834 459.372 127.928 457.392 131.958H455.889V119.353H471.165Z"
            fill="#101010" />
    </g>
    <mask id="mask5_1889_125338" style="mask-type:luminance" maskUnits="userSpaceOnUse" x="455"
        y="149" width="58" height="31">
        <path d="M512.924 149.262H455.89V179.172H512.924V149.262Z" fill="white" />
    </mask>
    <g mask="url(#mask5_1889_125338)">
        <path
            d="M512.923 166.564V179.175H497.647V178.59C505.265 176.694 509.433 170.6 511.42 166.564H512.923Z"
            fill="#101010" />
        <path
            d="M512.923 136.654V149.264H497.647V148.68C505.265 146.783 509.433 140.69 511.42 136.654H512.923Z"
            fill="#101010" />
        <path
            d="M499.681 164.22V164.798C492.064 166.7 487.888 172.794 485.909 176.824H484.405V164.22H499.681Z"
            fill="#101010" />
        <path
            d="M484.406 151.609V164.219H469.13V163.635C476.748 161.738 480.915 155.645 482.903 151.609H484.406Z"
            fill="#101010" />
        <path
            d="M471.165 149.264V149.842C463.547 151.744 459.372 157.838 457.392 161.868H455.889V149.264H471.165Z"
            fill="#101010" />
    </g>
    <mask id="mask6_1889_125338" style="mask-type:luminance" maskUnits="userSpaceOnUse" x="455"
        y="179" width="58" height="31">
        <path d="M512.924 179.172H455.89V209.083H512.924V179.172Z" fill="white" />
    </mask>
    <g mask="url(#mask6_1889_125338)">
        <path
            d="M512.923 196.475V209.085H497.647V208.501C505.265 206.605 509.433 200.511 511.42 196.475H512.923Z"
            fill="#101010" />
        <path
            d="M512.923 166.564V179.174H497.647V178.59C505.265 176.694 509.433 170.6 511.42 166.564H512.923Z"
            fill="#101010" />
        <path
            d="M499.681 194.129V194.708C492.064 196.61 487.888 202.704 485.909 206.734H484.405V194.129H499.681Z"
            fill="#101010" />
        <path
            d="M484.406 181.52V194.13H469.13V193.546C476.748 191.649 480.915 185.555 482.903 181.52H484.406Z"
            fill="#101010" />
        <path
            d="M471.165 179.174V179.753C463.547 181.655 459.372 187.749 457.392 191.779H455.889V179.174H471.165Z"
            fill="#101010" />
    </g>
    <mask id="mask7_1889_125338" style="mask-type:luminance" maskUnits="userSpaceOnUse" x="455"
        y="209" width="58" height="30">
        <path d="M512.924 209.083H455.89V238.994H512.924V209.083Z" fill="white" />
    </mask>
    <g mask="url(#mask7_1889_125338)">
        <path
            d="M512.923 196.475V209.085H497.647V208.501C505.265 206.605 509.433 200.511 511.42 196.475H512.923Z"
            fill="#101010" />
        <path
            d="M484.406 211.429V224.04H469.13V223.455C476.748 221.559 480.915 215.465 482.903 211.429H484.406Z"
            fill="#101010" />
        <path
            d="M471.165 209.085V209.663C463.547 211.565 459.372 217.659 457.392 221.689H455.889V209.085H471.165Z"
            fill="#101010" />
    </g>
    <mask id="mask8_1889_125338" style="mask-type:luminance" maskUnits="userSpaceOnUse" x="512"
        y="-1" width="58" height="31">
        <path d="M569.924 -0.290268H512.89V29.6202H569.924V-0.290268Z" fill="white" />
    </mask>
    <g mask="url(#mask8_1889_125338)">
        <path
            d="M569.923 17.0117V29.6219H554.647V29.0377C562.265 27.1414 566.433 21.0476 568.42 17.0117H569.923Z"
            fill="#101010" />
        <path
            d="M556.681 14.6667V15.245C549.064 17.1473 544.888 23.241 542.909 27.271H541.405V14.6667H556.681Z"
            fill="#101010" />
        <path
            d="M541.406 2.05665V14.6669H526.13V14.0827C533.748 12.1863 537.915 6.09257 539.903 2.05665H541.406Z"
            fill="#101010" />
        <path
            d="M528.165 -0.288879V0.289389C520.547 2.1917 516.372 8.28546 514.392 12.3154H512.889V-0.288879H528.165Z"
            fill="#101010" />
    </g>
    <mask id="mask9_1889_125338" style="mask-type:luminance" maskUnits="userSpaceOnUse" x="512"
        y="29" width="58" height="31">
        <path d="M569.924 29.6195H512.89V59.53H569.924V29.6195Z" fill="white" />
    </mask>
    <g mask="url(#mask9_1889_125338)">
        <path
            d="M569.923 46.9227V59.533H554.647V58.9487C562.265 57.0524 566.433 50.9586 568.42 46.9227H569.923Z"
            fill="#101010" />
        <path
            d="M569.923 17.0121V29.6224H554.647V29.0382C562.265 27.1418 566.433 21.0481 568.42 17.0121H569.923Z"
            fill="#101010" />
        <path
            d="M556.681 44.5771V45.1554C549.064 47.0577 544.888 53.1515 542.909 57.1814H541.405V44.5771H556.681Z"
            fill="#101010" />
        <path
            d="M541.406 31.9672V44.5774H526.13V43.9932C533.748 42.0969 537.915 36.0031 539.903 31.9672H541.406Z"
            fill="#101010" />
        <path
            d="M528.165 29.6221V30.2004C520.547 32.1027 516.372 38.1965 514.392 42.2264H512.889V29.6221H528.165Z"
            fill="#101010" />
    </g>
    <mask id="mask10_1889_125338" style="mask-type:luminance" maskUnits="userSpaceOnUse" x="512"
        y="59" width="58" height="31">
        <path d="M569.924 59.5305H512.89V89.441H569.924V59.5305Z" fill="white" />
    </mask>
    <g mask="url(#mask10_1889_125338)">
        <path
            d="M569.923 76.8325V89.4427H554.647V88.8585C562.265 86.9622 566.433 80.8684 568.42 76.8325H569.923Z"
            fill="#101010" />
        <path
            d="M569.923 46.9221V59.5323H554.647V58.9481C562.265 57.0517 566.433 50.958 568.42 46.9221H569.923Z"
            fill="#101010" />
        <path
            d="M556.681 74.4878V75.066C549.064 76.9683 544.888 83.0621 542.909 87.092H541.405V74.4878H556.681Z"
            fill="#101010" />
        <path
            d="M541.406 61.8775V74.4877H526.13V73.9035C533.748 72.0072 537.915 65.9134 539.903 61.8775H541.406Z"
            fill="#101010" />
        <path
            d="M528.165 59.5324V60.1107C520.547 62.013 516.372 68.1068 514.392 72.1367H512.889V59.5324H528.165Z"
            fill="#101010" />
    </g>
    <mask id="mask11_1889_125338" style="mask-type:luminance" maskUnits="userSpaceOnUse" x="512"
        y="89" width="58" height="31">
        <path d="M569.924 89.4411H512.89V119.352H569.924V89.4411Z" fill="white" />
    </mask>
    <g mask="url(#mask11_1889_125338)">
        <path
            d="M569.923 106.743V119.353H554.647V118.769C562.265 116.872 566.433 110.779 568.42 106.743H569.923Z"
            fill="#101010" />
        <path
            d="M569.923 76.8325V89.4427H554.647V88.8585C562.265 86.9621 566.433 80.8684 568.42 76.8325H569.923Z"
            fill="#101010" />
        <path
            d="M556.681 104.398V104.976C549.064 106.878 544.888 112.972 542.909 117.002H541.405V104.398H556.681Z"
            fill="#101010" />
        <path
            d="M541.406 91.7877V104.398H526.13V103.814C533.748 101.917 537.915 95.8237 539.903 91.7877H541.406Z"
            fill="#101010" />
        <path
            d="M528.165 89.4427V90.021C520.547 91.9233 516.372 98.017 514.392 102.047H512.889V89.4427H528.165Z"
            fill="#101010" />
    </g>
    <mask id="mask12_1889_125338" style="mask-type:luminance" maskUnits="userSpaceOnUse" x="512"
        y="119" width="58" height="31">
        <path d="M569.924 119.351H512.89V149.262H569.924V119.351Z" fill="white" />
    </mask>
    <g mask="url(#mask12_1889_125338)">
        <path
            d="M569.923 136.654V149.264H554.647V148.68C562.265 146.783 566.433 140.689 568.42 136.654H569.923Z"
            fill="#101010" />
        <path
            d="M569.923 106.743V119.353H554.647V118.769C562.265 116.873 566.433 110.779 568.42 106.743H569.923Z"
            fill="#101010" />
        <path
            d="M556.681 134.308V134.886C549.064 136.789 544.888 142.882 542.909 146.912H541.405V134.308H556.681Z"
            fill="#101010" />
        <path
            d="M541.406 121.698V134.308H526.13V133.724C533.748 131.828 537.915 125.734 539.903 121.698H541.406Z"
            fill="#101010" />
        <path
            d="M528.165 119.353V119.932C520.547 121.834 516.372 127.928 514.392 131.958H512.889V119.353H528.165Z"
            fill="#101010" />
    </g>
    <mask id="mask13_1889_125338" style="mask-type:luminance" maskUnits="userSpaceOnUse" x="512"
        y="149" width="58" height="31">
        <path d="M569.924 149.262H512.89V179.172H569.924V149.262Z" fill="white" />
    </mask>
    <g mask="url(#mask13_1889_125338)">
        <path
            d="M569.923 166.564V179.175H554.647V178.59C562.265 176.694 566.433 170.6 568.42 166.564H569.923Z"
            fill="#101010" />
        <path
            d="M569.923 136.654V149.264H554.647V148.68C562.265 146.783 566.433 140.69 568.42 136.654H569.923Z"
            fill="#101010" />
        <path
            d="M556.681 164.22V164.798C549.064 166.7 544.888 172.794 542.909 176.824H541.405V164.22H556.681Z"
            fill="#101010" />
        <path
            d="M541.406 151.609V164.219H526.13V163.635C533.748 161.738 537.915 155.645 539.903 151.609H541.406Z"
            fill="#101010" />
        <path
            d="M528.165 149.264V149.842C520.547 151.744 516.372 157.838 514.392 161.868H512.889V149.264H528.165Z"
            fill="#101010" />
    </g>
    <mask id="mask14_1889_125338" style="mask-type:luminance" maskUnits="userSpaceOnUse" x="512"
        y="179" width="58" height="31">
        <path d="M569.924 179.172H512.89V209.083H569.924V179.172Z" fill="white" />
    </mask>
    <g mask="url(#mask14_1889_125338)">
        <path
            d="M569.923 196.475V209.085H554.647V208.501C562.265 206.605 566.433 200.511 568.42 196.475H569.923Z"
            fill="#101010" />
        <path
            d="M569.923 166.564V179.174H554.647V178.59C562.265 176.694 566.433 170.6 568.42 166.564H569.923Z"
            fill="#101010" />
        <path
            d="M556.681 194.129V194.708C549.064 196.61 544.888 202.704 542.909 206.734H541.405V194.129H556.681Z"
            fill="#101010" />
        <path
            d="M541.406 181.52V194.13H526.13V193.546C533.748 191.649 537.915 185.555 539.903 181.52H541.406Z"
            fill="#101010" />
        <path
            d="M528.165 179.174V179.753C520.547 181.655 516.372 187.749 514.392 191.779H512.889V179.174H528.165Z"
            fill="#101010" />
    </g>
    <mask id="mask15_1889_125338" style="mask-type:luminance" maskUnits="userSpaceOnUse" x="512"
        y="209" width="58" height="30">
        <path d="M569.924 209.083H512.89V238.994H569.924V209.083Z" fill="white" />
    </mask>
    <g mask="url(#mask15_1889_125338)">
        <path
            d="M569.923 196.475V209.085H554.647V208.501C562.265 206.605 566.433 200.511 568.42 196.475H569.923Z"
            fill="#101010" />
        <path
            d="M541.406 211.429V224.04H526.13V223.455C533.748 221.559 537.915 215.465 539.903 211.429H541.406Z"
            fill="#101010" />
        <path
            d="M528.165 209.085V209.663C520.547 211.565 516.372 217.659 514.392 221.689H512.889V209.085H528.165Z"
            fill="#101010" />
    </g>
    <mask id="mask16_1889_125338" style="mask-type:luminance" maskUnits="userSpaceOnUse" x="398"
        y="-1" width="58" height="31">
        <path d="M455.89 -0.290268H398.855V29.6202H455.89V-0.290268Z" fill="white" />
    </mask>
    <g mask="url(#mask16_1889_125338)">
        <path
            d="M455.89 17.0117V29.6219H440.614V29.0377C448.232 27.1414 452.399 21.0476 454.387 17.0117H455.89Z"
            fill="#101010" />
        <path
            d="M442.648 14.6662V15.2445C435.03 17.1468 430.855 23.2406 428.875 27.2705H427.372V14.6662H442.648Z"
            fill="#101010" />
        <path
            d="M427.374 2.05617V14.6664H412.098V14.0822C419.715 12.1858 423.883 6.09209 425.87 2.05617H427.374Z"
            fill="#101010" />
        <path
            d="M414.131 -0.288879V0.289389C406.514 2.1917 402.339 8.28546 400.359 12.3154H398.855V-0.288879H414.131Z"
            fill="#101010" />
    </g>
    <mask id="mask17_1889_125338" style="mask-type:luminance" maskUnits="userSpaceOnUse" x="398"
        y="29" width="58" height="31">
        <path d="M455.891 29.6195H398.856V59.53H455.891V29.6195Z" fill="white" />
    </mask>
    <g mask="url(#mask17_1889_125338)">
        <path
            d="M455.892 46.9227V59.533H440.616V58.9487C448.234 57.0524 452.401 50.9586 454.389 46.9227H455.892Z"
            fill="#101010" />
        <path
            d="M455.891 17.0121V29.6224H440.615V29.0382C448.233 27.1418 452.4 21.0481 454.388 17.0121H455.891Z"
            fill="#101010" />
        <path
            d="M442.649 44.5771V45.1554C435.031 47.0577 430.856 53.1515 428.876 57.1814H427.373V44.5771H442.649Z"
            fill="#101010" />
        <path
            d="M427.375 31.9672V44.5774H412.099V43.9932C419.716 42.0969 423.884 36.0031 425.871 31.9672H427.375Z"
            fill="#101010" />
        <path
            d="M414.132 29.6221V30.2004C406.515 32.1027 402.34 38.1965 400.36 42.2264H398.856V29.6221H414.132Z"
            fill="#101010" />
    </g>
    <mask id="mask18_1889_125338" style="mask-type:luminance" maskUnits="userSpaceOnUse" x="398"
        y="59" width="58" height="31">
        <path d="M455.891 59.5305H398.856V89.441H455.891V59.5305Z" fill="white" />
    </mask>
    <g mask="url(#mask18_1889_125338)">
        <path
            d="M455.892 76.8325V89.4427H440.616V88.8585C448.234 86.9622 452.401 80.8684 454.389 76.8325H455.892Z"
            fill="#101010" />
        <path
            d="M455.891 46.9221V59.5323H440.615V58.9481C448.233 57.0517 452.4 50.958 454.388 46.9221H455.891Z"
            fill="#101010" />
        <path
            d="M442.649 74.4877V75.066C435.031 76.9683 430.856 83.0621 428.876 87.092H427.373V74.4877H442.649Z"
            fill="#101010" />
        <path
            d="M427.375 61.8775V74.4877H412.099V73.9035C419.716 72.0071 423.884 65.9134 425.871 61.8775H427.375Z"
            fill="#101010" />
        <path
            d="M414.132 59.5324V60.1107C406.515 62.013 402.34 68.1068 400.36 72.1367H398.856V59.5324H414.132Z"
            fill="#101010" />
    </g>
    <mask id="mask19_1889_125338" style="mask-type:luminance" maskUnits="userSpaceOnUse" x="398"
        y="89" width="58" height="31">
        <path d="M455.891 89.4411H398.856V119.352H455.891V89.4411Z" fill="white" />
    </mask>
    <g mask="url(#mask19_1889_125338)">
        <path
            d="M455.892 106.743V119.353H440.616V118.769C448.234 116.872 452.401 110.779 454.389 106.743H455.892Z"
            fill="#101010" />
        <path
            d="M455.891 76.8325V89.4427H440.615V88.8585C448.233 86.9621 452.4 80.8684 454.388 76.8325H455.891Z"
            fill="#101010" />
        <path
            d="M442.649 104.397V104.976C435.031 106.878 430.856 112.972 428.876 117.002H427.373V104.397H442.649Z"
            fill="#101010" />
        <path
            d="M427.375 91.7873V104.398H412.099V103.813C419.716 101.917 423.884 95.8232 425.871 91.7873H427.375Z"
            fill="#101010" />
        <path
            d="M414.132 89.4427V90.021C406.515 91.9233 402.34 98.017 400.36 102.047H398.856V89.4427H414.132Z"
            fill="#101010" />
    </g>
    <mask id="mask20_1889_125338" style="mask-type:luminance" maskUnits="userSpaceOnUse" x="398"
        y="119" width="58" height="31">
        <path d="M455.891 119.351H398.856V149.262H455.891V119.351Z" fill="white" />
    </mask>
    <g mask="url(#mask20_1889_125338)">
        <path
            d="M455.892 136.654V149.264H440.616V148.68C448.234 146.783 452.401 140.689 454.389 136.654H455.892Z"
            fill="#101010" />
        <path
            d="M455.891 106.743V119.353H440.615V118.769C448.233 116.873 452.4 110.779 454.388 106.743H455.891Z"
            fill="#101010" />
        <path
            d="M442.649 134.308V134.886C435.031 136.789 430.856 142.882 428.876 146.912H427.373V134.308H442.649Z"
            fill="#101010" />
        <path
            d="M427.375 121.698V134.308H412.099V133.724C419.716 131.828 423.884 125.734 425.871 121.698H427.375Z"
            fill="#101010" />
        <path
            d="M414.132 119.353V119.932C406.515 121.834 402.34 127.928 400.36 131.958H398.856V119.353H414.132Z"
            fill="#101010" />
    </g>
    <mask id="mask21_1889_125338" style="mask-type:luminance" maskUnits="userSpaceOnUse" x="398"
        y="149" width="58" height="31">
        <path d="M455.891 149.262H398.856V179.172H455.891V149.262Z" fill="white" />
    </mask>
    <g mask="url(#mask21_1889_125338)">
        <path
            d="M455.892 166.564V179.175H440.616V178.59C448.234 176.694 452.401 170.6 454.389 166.564H455.892Z"
            fill="#101010" />
        <path
            d="M455.891 136.654V149.264H440.615V148.68C448.233 146.783 452.4 140.69 454.388 136.654H455.891Z"
            fill="#101010" />
        <path
            d="M442.649 164.22V164.798C435.031 166.7 430.856 172.794 428.876 176.824H427.373V164.22H442.649Z"
            fill="#101010" />
        <path
            d="M427.375 151.609V164.219H412.099V163.635C419.716 161.738 423.884 155.645 425.871 151.609H427.375Z"
            fill="#101010" />
        <path
            d="M414.132 149.264V149.842C406.515 151.744 402.34 157.838 400.36 161.868H398.856V149.264H414.132Z"
            fill="#101010" />
    </g>
    <mask id="mask22_1889_125338" style="mask-type:luminance" maskUnits="userSpaceOnUse" x="398"
        y="179" width="58" height="31">
        <path d="M455.891 179.172H398.856V209.083H455.891V179.172Z" fill="white" />
    </mask>
    <g mask="url(#mask22_1889_125338)">
        <path
            d="M455.892 196.475V209.085H440.616V208.501C448.234 206.605 452.401 200.511 454.389 196.475H455.892Z"
            fill="#101010" />
        <path
            d="M455.891 166.564V179.174H440.615V178.59C448.233 176.694 452.4 170.6 454.388 166.564H455.891Z"
            fill="#101010" />
        <path
            d="M442.649 194.129V194.708C435.031 196.61 430.856 202.704 428.876 206.734H427.373V194.129H442.649Z"
            fill="#101010" />
        <path
            d="M427.375 181.52V194.13H412.099V193.546C419.716 191.649 423.884 185.555 425.871 181.52H427.375Z"
            fill="#101010" />
        <path
            d="M414.132 179.174V179.753C406.515 181.655 402.34 187.749 400.36 191.779H398.856V179.174H414.132Z"
            fill="#101010" />
    </g>
    <mask id="mask23_1889_125338" style="mask-type:luminance" maskUnits="userSpaceOnUse" x="398"
        y="209" width="58" height="30">
        <path d="M455.891 209.083H398.856V238.994H455.891V209.083Z" fill="white" />
    </mask>
    <g mask="url(#mask23_1889_125338)">
        <path
            d="M455.891 196.476V209.086H440.615V208.502C448.233 206.605 452.4 200.511 454.388 196.476H455.891Z"
            fill="#101010" />
        <path
            d="M427.375 211.43V224.04H412.099V223.456C419.716 221.56 423.884 215.466 425.871 211.43H427.375Z"
            fill="#101010" />
        <path
            d="M414.132 209.085V209.664C406.515 211.566 402.34 217.66 400.36 221.69H398.856V209.085H414.132Z"
            fill="#101010" />
    </g>
    <mask id="mask24_1889_125338" style="mask-type:luminance" maskUnits="userSpaceOnUse" x="341"
        y="-1" width="58" height="31">
        <path d="M398.856 -0.290268H341.822V29.6202H398.856V-0.290268Z" fill="white" />
    </mask>
    <g mask="url(#mask24_1889_125338)">
        <path
            d="M398.859 17.0117V29.6219H383.583V29.0377C391.201 27.1414 395.368 21.0476 397.356 17.0117H398.859Z"
            fill="#101010" />
        <path
            d="M385.617 14.6662V15.2445C377.999 17.1468 373.824 23.2406 371.844 27.2705H370.341V14.6662H385.617Z"
            fill="#101010" />
        <path
            d="M370.341 2.05617V14.6664H355.065V14.0822C362.683 12.1858 366.851 6.09209 368.838 2.05617H370.341Z"
            fill="#101010" />
        <path
            d="M357.099 -0.288879V0.289389C349.481 2.1917 345.306 8.28546 343.327 12.3154H341.823V-0.288879H357.099Z"
            fill="#101010" />
    </g>
    <mask id="mask25_1889_125338" style="mask-type:luminance" maskUnits="userSpaceOnUse" x="341"
        y="29" width="58" height="31">
        <path d="M398.855 29.6195H341.821V59.53H398.855V29.6195Z" fill="white" />
    </mask>
    <g mask="url(#mask25_1889_125338)">
        <path
            d="M398.857 46.9222V59.5325H383.581V58.9482C391.199 57.0519 395.366 50.9581 397.354 46.9222H398.857Z"
            fill="#101010" />
        <path
            d="M398.856 17.0117V29.6219H383.58V29.0377C391.198 27.1413 395.365 21.0476 397.353 17.0117H398.856Z"
            fill="#101010" />
        <path
            d="M385.615 44.5766V45.1549C377.997 47.0572 373.822 53.151 371.842 57.1809H370.339V44.5766H385.615Z"
            fill="#101010" />
        <path
            d="M370.339 31.9667V44.577H355.063V43.9927C362.681 42.0964 366.849 36.0026 368.836 31.9667H370.339Z"
            fill="#101010" />
        <path
            d="M357.097 29.6217V30.1999C349.48 32.1022 345.304 38.196 343.325 42.2259H341.821V29.6217H357.097Z"
            fill="#101010" />
    </g>
    <mask id="mask26_1889_125338" style="mask-type:luminance" maskUnits="userSpaceOnUse" x="341"
        y="59" width="58" height="31">
        <path d="M398.855 59.5305H341.821V89.441H398.855V59.5305Z" fill="white" />
    </mask>
    <g mask="url(#mask26_1889_125338)">
        <path
            d="M398.857 76.8325V89.4427H383.581V88.8585C391.199 86.9622 395.366 80.8684 397.354 76.8325H398.857Z"
            fill="#101010" />
        <path
            d="M398.856 46.9221V59.5323H383.58V58.9481C391.198 57.0517 395.365 50.958 397.353 46.9221H398.856Z"
            fill="#101010" />
        <path
            d="M385.615 74.4878V75.066C377.997 76.9683 373.822 83.0621 371.842 87.092H370.339V74.4878H385.615Z"
            fill="#101010" />
        <path
            d="M370.339 61.8775V74.4877H355.063V73.9035C362.681 72.0072 366.849 65.9134 368.836 61.8775H370.339Z"
            fill="#101010" />
        <path
            d="M357.097 59.5324V60.1107C349.48 62.013 345.304 68.1068 343.325 72.1367H341.821V59.5324H357.097Z"
            fill="#101010" />
    </g>
    <mask id="mask27_1889_125338" style="mask-type:luminance" maskUnits="userSpaceOnUse" x="341"
        y="89" width="58" height="31">
        <path d="M398.855 89.4411H341.821V119.352H398.855V89.4411Z" fill="white" />
    </mask>
    <g mask="url(#mask27_1889_125338)">
        <path
            d="M398.857 106.743V119.353H383.581V118.769C391.199 116.872 395.366 110.779 397.354 106.743H398.857Z"
            fill="#101010" />
        <path
            d="M398.856 76.8325V89.4427H383.58V88.8585C391.198 86.9621 395.365 80.8684 397.353 76.8325H398.856Z"
            fill="#101010" />
        <path
            d="M385.615 104.397V104.976C377.997 106.878 373.822 112.972 371.842 117.002H370.339V104.397H385.615Z"
            fill="#101010" />
        <path
            d="M370.339 91.7873V104.398H355.063V103.813C362.681 101.917 366.849 95.8232 368.836 91.7873H370.339Z"
            fill="#101010" />
        <path
            d="M357.097 89.4427V90.021C349.48 91.9233 345.304 98.017 343.325 102.047H341.821V89.4427H357.097Z"
            fill="#101010" />
    </g>
    <mask id="mask28_1889_125338" style="mask-type:luminance" maskUnits="userSpaceOnUse" x="341"
        y="119" width="58" height="31">
        <path d="M398.855 119.351H341.821V149.262H398.855V119.351Z" fill="white" />
    </mask>
    <g mask="url(#mask28_1889_125338)">
        <path
            d="M398.857 136.654V149.264H383.581V148.68C391.199 146.783 395.366 140.689 397.354 136.654H398.857Z"
            fill="#101010" />
        <path
            d="M398.856 106.743V119.353H383.58V118.769C391.198 116.873 395.365 110.779 397.353 106.743H398.856Z"
            fill="#101010" />
        <path
            d="M385.615 134.308V134.886C377.997 136.789 373.822 142.882 371.842 146.912H370.339V134.308H385.615Z"
            fill="#101010" />
        <path
            d="M370.339 121.698V134.308H355.063V133.724C362.681 131.828 366.849 125.734 368.836 121.698H370.339Z"
            fill="#101010" />
        <path
            d="M357.097 119.353V119.932C349.48 121.834 345.304 127.928 343.325 131.958H341.821V119.353H357.097Z"
            fill="#101010" />
    </g>
    <mask id="mask29_1889_125338" style="mask-type:luminance" maskUnits="userSpaceOnUse" x="341"
        y="149" width="58" height="31">
        <path d="M398.855 149.262H341.821V179.172H398.855V149.262Z" fill="white" />
    </mask>
    <g mask="url(#mask29_1889_125338)">
        <path
            d="M398.857 166.564V179.175H383.581V178.59C391.199 176.694 395.366 170.6 397.354 166.564H398.857Z"
            fill="#101010" />
        <path
            d="M398.856 136.654V149.264H383.58V148.68C391.198 146.783 395.365 140.69 397.353 136.654H398.856Z"
            fill="#101010" />
        <path
            d="M385.615 164.22V164.798C377.997 166.7 373.822 172.794 371.842 176.824H370.339V164.22H385.615Z"
            fill="#101010" />
        <path
            d="M370.339 151.609V164.219H355.063V163.635C362.681 161.738 366.849 155.645 368.836 151.609H370.339Z"
            fill="#101010" />
        <path
            d="M357.097 149.264V149.842C349.48 151.744 345.304 157.838 343.325 161.868H341.821V149.264H357.097Z"
            fill="#101010" />
    </g>
    <mask id="mask30_1889_125338" style="mask-type:luminance" maskUnits="userSpaceOnUse" x="341"
        y="179" width="58" height="31">
        <path d="M398.855 179.172H341.821V209.083H398.855V179.172Z" fill="white" />
    </mask>
    <g mask="url(#mask30_1889_125338)">
        <path
            d="M398.857 196.475V209.085H383.581V208.501C391.199 206.605 395.366 200.511 397.354 196.475H398.857Z"
            fill="#101010" />
        <path
            d="M398.856 166.564V179.174H383.58V178.59C391.198 176.694 395.365 170.6 397.353 166.564H398.856Z"
            fill="#101010" />
        <path
            d="M385.615 194.129V194.708C377.997 196.61 373.822 202.704 371.842 206.734H370.339V194.129H385.615Z"
            fill="#101010" />
        <path
            d="M370.339 181.52V194.13H355.063V193.546C362.681 191.649 366.849 185.555 368.836 181.52H370.339Z"
            fill="#101010" />
        <path
            d="M357.097 179.174V179.753C349.48 181.655 345.304 187.749 343.325 191.779H341.821V179.174H357.097Z"
            fill="#101010" />
    </g>
    <mask id="mask31_1889_125338" style="mask-type:luminance" maskUnits="userSpaceOnUse" x="341"
        y="209" width="58" height="30">
        <path d="M398.855 209.083H341.821V238.994H398.855V209.083Z" fill="white" />
    </mask>
    <g mask="url(#mask31_1889_125338)">
        <path
            d="M398.856 196.475V209.085H383.58V208.501C391.198 206.605 395.365 200.511 397.353 196.475H398.856Z"
            fill="#101010" />
        <path
            d="M370.339 211.429V224.04H355.063V223.455C362.681 221.559 366.849 215.465 368.836 211.429H370.339Z"
            fill="#101010" />
        <path
            d="M357.097 209.085V209.663C349.48 211.565 345.304 217.659 343.325 221.689H341.821V209.085H357.097Z"
            fill="#101010" />
    </g>
    <mask id="mask32_1889_125338" style="mask-type:luminance" maskUnits="userSpaceOnUse" x="284"
        y="-1" width="58" height="31">
        <path d="M341.823 -0.290268H284.789V29.6202H341.823V-0.290268Z" fill="white" />
    </mask>
    <g mask="url(#mask32_1889_125338)">
        <path
            d="M341.825 17.0117V29.6219H326.549V29.0377C334.167 27.1414 338.334 21.0476 340.321 17.0117H341.825Z"
            fill="#101010" />
        <path
            d="M328.583 14.6662V15.2445C320.965 17.1468 316.79 23.2406 314.81 27.2705H313.307V14.6662H328.583Z"
            fill="#101010" />
        <path
            d="M313.307 2.05617V14.6664H298.031V14.0822C305.649 12.1858 309.816 6.09209 311.804 2.05617H313.307Z"
            fill="#101010" />
        <path
            d="M300.065 -0.288879V0.289389C292.447 2.1917 288.272 8.28546 286.292 12.3154H284.789V-0.288879H300.065Z"
            fill="#101010" />
    </g>
    <mask id="mask33_1889_125338" style="mask-type:luminance" maskUnits="userSpaceOnUse" x="284"
        y="29" width="58" height="31">
        <path d="M341.823 29.6195H284.789V59.53H341.823V29.6195Z" fill="white" />
    </mask>
    <g mask="url(#mask33_1889_125338)">
        <path
            d="M341.825 46.9227V59.533H326.549V58.9487C334.167 57.0524 338.334 50.9586 340.321 46.9227H341.825Z"
            fill="#101010" />
        <path
            d="M341.823 17.0121V29.6224H326.547V29.0382C334.165 27.1418 338.332 21.0481 340.32 17.0121H341.823Z"
            fill="#101010" />
        <path
            d="M328.583 44.5771V45.1554C320.965 47.0577 316.79 53.1515 314.81 57.1814H313.307V44.5771H328.583Z"
            fill="#101010" />
        <path
            d="M313.307 31.9672V44.5774H298.031V43.9932C305.649 42.0969 309.816 36.0031 311.804 31.9672H313.307Z"
            fill="#101010" />
        <path
            d="M300.065 29.6221V30.2004C292.447 32.1027 288.272 38.1965 286.292 42.2264H284.789V29.6221H300.065Z"
            fill="#101010" />
    </g>
    <mask id="mask34_1889_125338" style="mask-type:luminance" maskUnits="userSpaceOnUse" x="284"
        y="59" width="58" height="31">
        <path d="M341.823 59.5305H284.789V89.441H341.823V59.5305Z" fill="white" />
    </mask>
    <g mask="url(#mask34_1889_125338)">
        <path
            d="M341.825 76.8325V89.4427H326.549V88.8585C334.167 86.9622 338.334 80.8684 340.321 76.8325H341.825Z"
            fill="#101010" />
        <path
            d="M341.823 46.9221V59.5323H326.547V58.9481C334.165 57.0517 338.332 50.958 340.32 46.9221H341.823Z"
            fill="#101010" />
        <path
            d="M328.583 74.4878V75.066C320.965 76.9683 316.79 83.0621 314.81 87.092H313.307V74.4878H328.583Z"
            fill="#101010" />
        <path
            d="M313.307 61.8775V74.4877H298.031V73.9035C305.649 72.0072 309.816 65.9134 311.804 61.8775H313.307Z"
            fill="#101010" />
        <path
            d="M300.065 59.5324V60.1107C292.447 62.013 288.272 68.1068 286.292 72.1367H284.789V59.5324H300.065Z"
            fill="#101010" />
    </g>
    <mask id="mask35_1889_125338" style="mask-type:luminance" maskUnits="userSpaceOnUse" x="284"
        y="89" width="58" height="31">
        <path d="M341.823 89.4411H284.789V119.352H341.823V89.4411Z" fill="white" />
    </mask>
    <g mask="url(#mask35_1889_125338)">
        <path
            d="M341.825 106.743V119.353H326.549V118.769C334.167 116.872 338.334 110.779 340.321 106.743H341.825Z"
            fill="#101010" />
        <path
            d="M341.823 76.8325V89.4427H326.547V88.8585C334.165 86.9621 338.332 80.8684 340.32 76.8325H341.823Z"
            fill="#101010" />
        <path
            d="M328.583 104.397V104.976C320.965 106.878 316.79 112.972 314.81 117.002H313.307V104.397H328.583Z"
            fill="#101010" />
        <path
            d="M313.307 91.7873V104.398H298.031V103.813C305.649 101.917 309.816 95.8232 311.804 91.7873H313.307Z"
            fill="#101010" />
        <path
            d="M300.065 89.4427V90.021C292.447 91.9233 288.272 98.017 286.292 102.047H284.789V89.4427H300.065Z"
            fill="#101010" />
    </g>
    <mask id="mask36_1889_125338" style="mask-type:luminance" maskUnits="userSpaceOnUse" x="284"
        y="119" width="58" height="31">
        <path d="M341.823 119.351H284.789V149.262H341.823V119.351Z" fill="white" />
    </mask>
    <g mask="url(#mask36_1889_125338)">
        <path
            d="M341.825 136.654V149.264H326.549V148.68C334.167 146.783 338.334 140.689 340.321 136.654H341.825Z"
            fill="#101010" />
        <path
            d="M341.823 106.743V119.353H326.547V118.769C334.165 116.873 338.332 110.779 340.32 106.743H341.823Z"
            fill="#101010" />
        <path
            d="M328.583 134.308V134.886C320.965 136.789 316.79 142.882 314.81 146.912H313.307V134.308H328.583Z"
            fill="#101010" />
        <path
            d="M313.307 121.698V134.308H298.031V133.724C305.649 131.828 309.816 125.734 311.804 121.698H313.307Z"
            fill="#101010" />
        <path
            d="M300.065 119.353V119.932C292.447 121.834 288.272 127.928 286.292 131.958H284.789V119.353H300.065Z"
            fill="#101010" />
    </g>
    <mask id="mask37_1889_125338" style="mask-type:luminance" maskUnits="userSpaceOnUse" x="284"
        y="149" width="58" height="31">
        <path d="M341.823 149.262H284.789V179.172H341.823V149.262Z" fill="white" />
    </mask>
    <g mask="url(#mask37_1889_125338)">
        <path
            d="M341.825 166.564V179.175H326.549V178.59C334.167 176.694 338.334 170.6 340.321 166.564H341.825Z"
            fill="#101010" />
        <path
            d="M341.823 136.654V149.264H326.547V148.68C334.165 146.783 338.332 140.69 340.32 136.654H341.823Z"
            fill="#101010" />
        <path
            d="M328.583 164.22V164.798C320.965 166.7 316.79 172.794 314.81 176.824H313.307V164.22H328.583Z"
            fill="#101010" />
        <path
            d="M313.307 151.609V164.219H298.031V163.635C305.649 161.738 309.816 155.645 311.804 151.609H313.307Z"
            fill="#101010" />
        <path
            d="M300.065 149.264V149.842C292.447 151.744 288.272 157.838 286.292 161.868H284.789V149.264H300.065Z"
            fill="#101010" />
    </g>
    <mask id="mask38_1889_125338" style="mask-type:luminance" maskUnits="userSpaceOnUse" x="284"
        y="179" width="58" height="31">
        <path d="M341.823 179.172H284.789V209.083H341.823V179.172Z" fill="white" />
    </mask>
    <g mask="url(#mask38_1889_125338)">
        <path
            d="M341.825 196.475V209.085H326.549V208.501C334.167 206.605 338.334 200.511 340.321 196.475H341.825Z"
            fill="#101010" />
        <path
            d="M341.823 166.564V179.174H326.547V178.59C334.165 176.694 338.332 170.6 340.32 166.564H341.823Z"
            fill="#101010" />
        <path
            d="M328.583 194.129V194.708C320.965 196.61 316.79 202.704 314.81 206.734H313.307V194.129H328.583Z"
            fill="#101010" />
        <path
            d="M313.307 181.52V194.13H298.031V193.546C305.649 191.649 309.816 185.555 311.804 181.52H313.307Z"
            fill="#101010" />
        <path
            d="M300.065 179.174V179.753C292.447 181.655 288.272 187.749 286.292 191.779H284.789V179.174H300.065Z"
            fill="#101010" />
    </g>
    <mask id="mask39_1889_125338" style="mask-type:luminance" maskUnits="userSpaceOnUse" x="284"
        y="209" width="58" height="30">
        <path d="M341.823 209.083H284.789V238.994H341.823V209.083Z" fill="white" />
    </mask>
    <g mask="url(#mask39_1889_125338)">
        <path
            d="M341.823 196.476V209.086H326.547V208.502C334.165 206.605 338.332 200.511 340.32 196.476H341.823Z"
            fill="#101010" />
        <path
            d="M313.307 211.43V224.04H298.031V223.456C305.649 221.56 309.816 215.466 311.804 211.43H313.307Z"
            fill="#101010" />
        <path
            d="M300.065 209.085V209.664C292.447 211.566 288.272 217.66 286.292 221.69H284.789V209.085H300.065Z"
            fill="#101010" />
    </g>
    <mask id="mask40_1889_125338" style="mask-type:luminance" maskUnits="userSpaceOnUse" x="227"
        y="-1" width="58" height="31">
        <path d="M284.788 -0.290268H227.754V29.6202H284.788V-0.290268Z" fill="white" />
    </mask>
    <g mask="url(#mask40_1889_125338)">
        <path
            d="M284.79 17.0117V29.6219H269.514V29.0377C277.131 27.1414 281.299 21.0476 283.286 17.0117H284.79Z"
            fill="#101010" />
        <path
            d="M271.547 14.6662V15.2445C263.93 17.1468 259.755 23.2406 257.775 27.2705H256.271V14.6662H271.547Z"
            fill="#101010" />
        <path
            d="M256.272 2.05617V14.6664H240.996V14.0822C248.614 12.1858 252.781 6.09209 254.769 2.05617H256.272Z"
            fill="#101010" />
        <path
            d="M243.03 -0.288879V0.289389C235.412 2.1917 231.237 8.28546 229.257 12.3154H227.754V-0.288879H243.03Z"
            fill="#101010" />
    </g>
    <mask id="mask41_1889_125338" style="mask-type:luminance" maskUnits="userSpaceOnUse" x="227"
        y="29" width="58" height="31">
        <path d="M284.788 29.6195H227.754V59.53H284.788V29.6195Z" fill="white" />
    </mask>
    <g mask="url(#mask41_1889_125338)">
        <path
            d="M284.79 46.9227V59.533H269.514V58.9487C277.131 57.0524 281.299 50.9586 283.286 46.9227H284.79Z"
            fill="#101010" />
        <path
            d="M284.788 17.0121V29.6224H269.512V29.0382C277.129 27.1418 281.297 21.0481 283.284 17.0121H284.788Z"
            fill="#101010" />
        <path
            d="M271.547 44.5771V45.1554C263.93 47.0577 259.755 53.1515 257.775 57.1814H256.271V44.5771H271.547Z"
            fill="#101010" />
        <path
            d="M256.272 31.9672V44.5774H240.996V43.9932C248.614 42.0969 252.781 36.0031 254.769 31.9672H256.272Z"
            fill="#101010" />
        <path
            d="M243.03 29.6221V30.2004C235.412 32.1027 231.237 38.1965 229.257 42.2264H227.754V29.6221H243.03Z"
            fill="#101010" />
    </g>
    <mask id="mask42_1889_125338" style="mask-type:luminance" maskUnits="userSpaceOnUse" x="227"
        y="59" width="58" height="31">
        <path d="M284.788 59.5305H227.754V89.441H284.788V59.5305Z" fill="white" />
    </mask>
    <g mask="url(#mask42_1889_125338)">
        <path
            d="M284.79 76.8325V89.4427H269.514V88.8585C277.131 86.9622 281.299 80.8684 283.286 76.8325H284.79Z"
            fill="#101010" />
        <path
            d="M284.788 46.9221V59.5323H269.512V58.9481C277.129 57.0517 281.297 50.958 283.284 46.9221H284.788Z"
            fill="#101010" />
        <path
            d="M271.547 74.4878V75.066C263.93 76.9683 259.755 83.0621 257.775 87.092H256.271V74.4878H271.547Z"
            fill="#101010" />
        <path
            d="M256.272 61.8775V74.4877H240.996V73.9035C248.614 72.0072 252.781 65.9134 254.769 61.8775H256.272Z"
            fill="#101010" />
        <path
            d="M243.03 59.5324V60.1107C235.412 62.013 231.237 68.1068 229.257 72.1367H227.754V59.5324H243.03Z"
            fill="#101010" />
    </g>
    <mask id="mask43_1889_125338" style="mask-type:luminance" maskUnits="userSpaceOnUse" x="227"
        y="89" width="58" height="31">
        <path d="M284.788 89.4411H227.754V119.352H284.788V89.4411Z" fill="white" />
    </mask>
    <g mask="url(#mask43_1889_125338)">
        <path
            d="M284.79 106.743V119.353H269.514V118.769C277.131 116.872 281.299 110.779 283.286 106.743H284.79Z"
            fill="#101010" />
        <path
            d="M284.788 76.8325V89.4427H269.512V88.8585C277.129 86.9621 281.297 80.8684 283.284 76.8325H284.788Z"
            fill="#101010" />
        <path
            d="M271.547 104.397V104.976C263.93 106.878 259.755 112.972 257.775 117.002H256.271V104.397H271.547Z"
            fill="#101010" />
        <path
            d="M256.272 91.7873V104.398H240.996V103.813C248.614 101.917 252.781 95.8232 254.769 91.7873H256.272Z"
            fill="#101010" />
        <path
            d="M243.03 89.4427V90.021C235.412 91.9233 231.237 98.017 229.257 102.047H227.754V89.4427H243.03Z"
            fill="#101010" />
    </g>
    <mask id="mask44_1889_125338" style="mask-type:luminance" maskUnits="userSpaceOnUse" x="227"
        y="119" width="58" height="31">
        <path d="M284.788 119.351H227.754V149.262H284.788V119.351Z" fill="white" />
    </mask>
    <g mask="url(#mask44_1889_125338)">
        <path
            d="M284.79 136.654V149.264H269.514V148.68C277.131 146.783 281.299 140.689 283.286 136.654H284.79Z"
            fill="#101010" />
        <path
            d="M284.788 106.743V119.353H269.512V118.769C277.129 116.873 281.297 110.779 283.284 106.743H284.788Z"
            fill="#101010" />
        <path
            d="M271.547 134.308V134.886C263.93 136.789 259.755 142.882 257.775 146.912H256.271V134.308H271.547Z"
            fill="#101010" />
        <path
            d="M256.272 121.698V134.308H240.996V133.724C248.614 131.828 252.781 125.734 254.769 121.698H256.272Z"
            fill="#101010" />
        <path
            d="M243.03 119.353V119.932C235.412 121.834 231.237 127.928 229.257 131.958H227.754V119.353H243.03Z"
            fill="#101010" />
    </g>
    <mask id="mask45_1889_125338" style="mask-type:luminance" maskUnits="userSpaceOnUse" x="227"
        y="149" width="58" height="31">
        <path d="M284.788 149.262H227.754V179.172H284.788V149.262Z" fill="white" />
    </mask>
    <g mask="url(#mask45_1889_125338)">
        <path
            d="M284.79 166.564V179.175H269.514V178.59C277.131 176.694 281.299 170.6 283.286 166.564H284.79Z"
            fill="#101010" />
        <path
            d="M284.788 136.654V149.264H269.512V148.68C277.129 146.783 281.297 140.69 283.284 136.654H284.788Z"
            fill="#101010" />
        <path
            d="M271.547 164.22V164.798C263.93 166.7 259.755 172.794 257.775 176.824H256.271V164.22H271.547Z"
            fill="#101010" />
        <path
            d="M256.272 151.609V164.219H240.996V163.635C248.614 161.738 252.781 155.645 254.769 151.609H256.272Z"
            fill="#101010" />
        <path
            d="M243.03 149.264V149.842C235.412 151.744 231.237 157.838 229.257 161.868H227.754V149.264H243.03Z"
            fill="#101010" />
    </g>
    <mask id="mask46_1889_125338" style="mask-type:luminance" maskUnits="userSpaceOnUse" x="227"
        y="179" width="58" height="31">
        <path d="M284.788 179.172H227.754V209.083H284.788V179.172Z" fill="white" />
    </mask>
    <g mask="url(#mask46_1889_125338)">
        <path
            d="M284.79 196.475V209.085H269.514V208.501C277.131 206.605 281.299 200.511 283.286 196.475H284.79Z"
            fill="#101010" />
        <path
            d="M284.788 166.564V179.174H269.512V178.59C277.129 176.694 281.297 170.6 283.284 166.564H284.788Z"
            fill="#101010" />
        <path
            d="M271.547 194.129V194.708C263.93 196.61 259.755 202.704 257.775 206.734H256.271V194.129H271.547Z"
            fill="#101010" />
        <path
            d="M256.272 181.52V194.13H240.996V193.546C248.614 191.649 252.781 185.555 254.769 181.52H256.272Z"
            fill="#101010" />
        <path
            d="M243.03 179.174V179.753C235.412 181.655 231.237 187.749 229.257 191.779H227.754V179.174H243.03Z"
            fill="#101010" />
    </g>
    <mask id="mask47_1889_125338" style="mask-type:luminance" maskUnits="userSpaceOnUse" x="227"
        y="209" width="58" height="30">
        <path d="M284.788 209.083H227.754V238.994H284.788V209.083Z" fill="white" />
    </mask>
    <g mask="url(#mask47_1889_125338)">
        <path
            d="M284.788 196.476V209.086H269.512V208.502C277.129 206.605 281.297 200.511 283.284 196.476H284.788Z"
            fill="#101010" />
        <path
            d="M256.272 211.43V224.04H240.996V223.456C248.614 221.56 252.781 215.466 254.769 211.43H256.272Z"
            fill="#101010" />
        <path
            d="M243.03 209.085V209.664C235.412 211.566 231.237 217.66 229.257 221.69H227.754V209.085H243.03Z"
            fill="#101010" />
    </g>
    <mask id="mask48_1889_125338" style="mask-type:luminance" maskUnits="userSpaceOnUse" x="170"
        y="-1" width="58" height="31">
        <path d="M227.755 -0.290268H170.721V29.6202H227.755V-0.290268Z" fill="white" />
    </mask>
    <g mask="url(#mask48_1889_125338)">
        <path
            d="M227.756 17.0117V29.6219H212.48V29.0377C220.098 27.1414 224.266 21.0476 226.253 17.0117H227.756Z"
            fill="#101010" />
        <path
            d="M214.514 14.6662V15.2445C206.897 17.1468 202.721 23.2406 200.742 27.2705H199.238V14.6662H214.514Z"
            fill="#101010" />
        <path
            d="M199.239 2.05617V14.6664H183.963V14.0822C191.581 12.1858 195.748 6.09209 197.736 2.05617H199.239Z"
            fill="#101010" />
        <path
            d="M185.997 -0.288879V0.289389C178.379 2.1917 174.204 8.28546 172.224 12.3154H170.721V-0.288879H185.997Z"
            fill="#101010" />
    </g>
    <mask id="mask49_1889_125338" style="mask-type:luminance" maskUnits="userSpaceOnUse" x="170"
        y="29" width="58" height="31">
        <path d="M227.753 29.6195H170.719V59.53H227.753V29.6195Z" fill="white" />
    </mask>
    <g mask="url(#mask49_1889_125338)">
        <path
            d="M227.754 46.9222V59.5325H212.479V58.9482C220.096 57.0519 224.264 50.9581 226.251 46.9222H227.754Z"
            fill="#101010" />
        <path
            d="M227.752 17.0117V29.6219H212.477V29.0377C220.094 27.1413 224.262 21.0476 226.249 17.0117H227.752Z"
            fill="#101010" />
        <path
            d="M214.512 44.5766V45.1549C206.895 47.0572 202.719 53.151 200.74 57.1809H199.236V44.5766H214.512Z"
            fill="#101010" />
        <path
            d="M199.237 31.9667V44.577H183.961V43.9927C191.579 42.0964 195.746 36.0026 197.734 31.9667H199.237Z"
            fill="#101010" />
        <path
            d="M185.995 29.6217V30.1999C178.377 32.1022 174.202 38.196 172.222 42.2259H170.719V29.6217H185.995Z"
            fill="#101010" />
    </g>
    <mask id="mask50_1889_125338" style="mask-type:luminance" maskUnits="userSpaceOnUse" x="170"
        y="59" width="58" height="31">
        <path d="M227.753 59.5305H170.719V89.441H227.753V59.5305Z" fill="white" />
    </mask>
    <g mask="url(#mask50_1889_125338)">
        <path
            d="M227.754 76.8325V89.4427H212.479V88.8585C220.096 86.9622 224.264 80.8684 226.251 76.8325H227.754Z"
            fill="#101010" />
        <path
            d="M227.752 46.9221V59.5323H212.477V58.9481C220.094 57.0517 224.262 50.958 226.249 46.9221H227.752Z"
            fill="#101010" />
        <path
            d="M214.512 74.4878V75.066C206.895 76.9683 202.719 83.0621 200.74 87.092H199.236V74.4878H214.512Z"
            fill="#101010" />
        <path
            d="M199.237 61.8775V74.4877H183.961V73.9035C191.579 72.0072 195.746 65.9134 197.734 61.8775H199.237Z"
            fill="#101010" />
        <path
            d="M185.995 59.5324V60.1107C178.377 62.013 174.202 68.1068 172.222 72.1367H170.719V59.5324H185.995Z"
            fill="#101010" />
    </g>
    <mask id="mask51_1889_125338" style="mask-type:luminance" maskUnits="userSpaceOnUse" x="170"
        y="89" width="58" height="31">
        <path d="M227.753 89.4411H170.719V119.352H227.753V89.4411Z" fill="white" />
    </mask>
    <g mask="url(#mask51_1889_125338)">
        <path
            d="M227.754 106.743V119.353H212.479V118.769C220.096 116.872 224.264 110.779 226.251 106.743H227.754Z"
            fill="#101010" />
        <path
            d="M227.752 76.8325V89.4427H212.477V88.8585C220.094 86.9621 224.262 80.8684 226.249 76.8325H227.752Z"
            fill="#101010" />
        <path
            d="M214.512 104.397V104.976C206.895 106.878 202.719 112.972 200.74 117.002H199.236V104.397H214.512Z"
            fill="#101010" />
        <path
            d="M199.237 91.7873V104.398H183.961V103.813C191.579 101.917 195.746 95.8232 197.734 91.7873H199.237Z"
            fill="#101010" />
        <path
            d="M185.995 89.4427V90.021C178.377 91.9233 174.202 98.017 172.222 102.047H170.719V89.4427H185.995Z"
            fill="#101010" />
    </g>
    <mask id="mask52_1889_125338" style="mask-type:luminance" maskUnits="userSpaceOnUse" x="170"
        y="119" width="58" height="31">
        <path d="M227.753 119.351H170.719V149.262H227.753V119.351Z" fill="white" />
    </mask>
    <g mask="url(#mask52_1889_125338)">
        <path
            d="M227.754 136.654V149.264H212.479V148.68C220.096 146.783 224.264 140.689 226.251 136.654H227.754Z"
            fill="#101010" />
        <path
            d="M227.752 106.743V119.353H212.477V118.769C220.094 116.873 224.262 110.779 226.249 106.743H227.752Z"
            fill="#101010" />
        <path
            d="M214.512 134.308V134.886C206.895 136.789 202.719 142.882 200.74 146.912H199.236V134.308H214.512Z"
            fill="#101010" />
        <path
            d="M199.237 121.698V134.308H183.961V133.724C191.579 131.828 195.746 125.734 197.734 121.698H199.237Z"
            fill="#101010" />
        <path
            d="M185.995 119.353V119.932C178.377 121.834 174.202 127.928 172.222 131.958H170.719V119.353H185.995Z"
            fill="#101010" />
    </g>
    <mask id="mask53_1889_125338" style="mask-type:luminance" maskUnits="userSpaceOnUse" x="170"
        y="149" width="58" height="31">
        <path d="M227.753 149.262H170.719V179.172H227.753V149.262Z" fill="white" />
    </mask>
    <g mask="url(#mask53_1889_125338)">
        <path
            d="M227.754 166.564V179.175H212.479V178.59C220.096 176.694 224.264 170.6 226.251 166.564H227.754Z"
            fill="#101010" />
        <path
            d="M227.752 136.654V149.264H212.477V148.68C220.094 146.783 224.262 140.69 226.249 136.654H227.752Z"
            fill="#101010" />
        <path
            d="M214.512 164.22V164.798C206.895 166.7 202.719 172.794 200.74 176.824H199.236V164.22H214.512Z"
            fill="#101010" />
        <path
            d="M199.237 151.609V164.219H183.961V163.635C191.579 161.738 195.746 155.645 197.734 151.609H199.237Z"
            fill="#101010" />
        <path
            d="M185.995 149.264V149.842C178.377 151.744 174.202 157.838 172.222 161.868H170.719V149.264H185.995Z"
            fill="#101010" />
    </g>
    <mask id="mask54_1889_125338" style="mask-type:luminance" maskUnits="userSpaceOnUse" x="170"
        y="179" width="58" height="31">
        <path d="M227.753 179.172H170.719V209.083H227.753V179.172Z" fill="white" />
    </mask>
    <g mask="url(#mask54_1889_125338)">
        <path
            d="M227.754 196.475V209.085H212.479V208.501C220.096 206.605 224.264 200.511 226.251 196.475H227.754Z"
            fill="#101010" />
        <path
            d="M227.752 166.564V179.174H212.477V178.59C220.094 176.694 224.262 170.6 226.249 166.564H227.752Z"
            fill="#101010" />
        <path
            d="M214.512 194.129V194.708C206.895 196.61 202.719 202.704 200.74 206.734H199.236V194.129H214.512Z"
            fill="#101010" />
        <path
            d="M199.237 181.52V194.13H183.961V193.546C191.579 191.649 195.746 185.555 197.734 181.52H199.237Z"
            fill="#101010" />
        <path
            d="M185.995 179.174V179.753C178.377 181.655 174.202 187.749 172.222 191.779H170.719V179.174H185.995Z"
            fill="#101010" />
    </g>
    <mask id="mask55_1889_125338" style="mask-type:luminance" maskUnits="userSpaceOnUse" x="170"
        y="209" width="58" height="30">
        <path d="M227.753 209.083H170.719V238.994H227.753V209.083Z" fill="white" />
    </mask>
    <g mask="url(#mask55_1889_125338)">
        <path
            d="M227.752 196.475V209.085H212.477V208.501C220.094 206.605 224.262 200.511 226.249 196.475H227.752Z"
            fill="#101010" />
        <path
            d="M199.237 211.429V224.04H183.961V223.455C191.579 221.559 195.746 215.465 197.734 211.429H199.237Z"
            fill="#101010" />
        <path
            d="M185.995 209.085V209.663C178.377 211.565 174.202 217.659 172.222 221.689H170.719V209.085H185.995Z"
            fill="#101010" />
    </g>
    <mask id="mask56_1889_125338" style="mask-type:luminance" maskUnits="userSpaceOnUse" x="113"
        y="-1" width="58" height="31">
        <path d="M170.72 -0.290268H113.686V29.6202H170.72V-0.290268Z" fill="white" />
    </mask>
    <g mask="url(#mask56_1889_125338)">
        <path
            d="M170.721 17.0117V29.6219H155.445V29.0377C163.063 27.1414 167.231 21.0476 169.218 17.0117H170.721Z"
            fill="#101010" />
        <path
            d="M157.479 14.6662V15.2445C149.861 17.1468 145.686 23.2406 143.706 27.2705H142.203V14.6662H157.479Z"
            fill="#101010" />
        <path
            d="M142.204 2.05617V14.6664H126.928V14.0822C134.545 12.1858 138.713 6.09209 140.7 2.05617H142.204Z"
            fill="#101010" />
        <path
            d="M128.961 -0.288879V0.289389C121.344 2.1917 117.169 8.28546 115.189 12.3154H113.686V-0.288879H128.961Z"
            fill="#101010" />
    </g>
    <mask id="mask57_1889_125338" style="mask-type:luminance" maskUnits="userSpaceOnUse" x="113"
        y="29" width="58" height="31">
        <path d="M170.72 29.6195H113.686V59.53H170.72V29.6195Z" fill="white" />
    </mask>
    <g mask="url(#mask57_1889_125338)">
        <path
            d="M170.721 46.9227V59.533H155.445V58.9487C163.063 57.0524 167.231 50.9586 169.218 46.9227H170.721Z"
            fill="#101010" />
        <path
            d="M170.721 17.0121V29.6224H155.445V29.0382C163.063 27.1418 167.231 21.0481 169.218 17.0121H170.721Z"
            fill="#101010" />
        <path
            d="M157.479 44.5771V45.1554C149.861 47.0577 145.686 53.1515 143.706 57.1814H142.203V44.5771H157.479Z"
            fill="#101010" />
        <path
            d="M142.204 31.9672V44.5774H126.928V43.9932C134.545 42.0969 138.713 36.0031 140.7 31.9672H142.204Z"
            fill="#101010" />
        <path
            d="M128.961 29.6221V30.2004C121.344 32.1027 117.169 38.1965 115.189 42.2264H113.686V29.6221H128.961Z"
            fill="#101010" />
    </g>
    <mask id="mask58_1889_125338" style="mask-type:luminance" maskUnits="userSpaceOnUse" x="113"
        y="59" width="58" height="31">
        <path d="M170.72 59.5305H113.686V89.441H170.72V59.5305Z" fill="white" />
    </mask>
    <g mask="url(#mask58_1889_125338)">
        <path
            d="M170.721 76.8325V89.4427H155.445V88.8585C163.063 86.9622 167.231 80.8684 169.218 76.8325H170.721Z"
            fill="#101010" />
        <path
            d="M170.721 46.9221V59.5323H155.445V58.9481C163.063 57.0517 167.231 50.958 169.218 46.9221H170.721Z"
            fill="#101010" />
        <path
            d="M157.479 74.4877V75.066C149.861 76.9683 145.686 83.0621 143.706 87.092H142.203V74.4877H157.479Z"
            fill="#101010" />
        <path
            d="M142.204 61.8775V74.4877H126.928V73.9035C134.545 72.0071 138.713 65.9134 140.7 61.8775H142.204Z"
            fill="#101010" />
        <path
            d="M128.961 59.5324V60.1107C121.344 62.013 117.169 68.1068 115.189 72.1367H113.686V59.5324H128.961Z"
            fill="#101010" />
    </g>
    <mask id="mask59_1889_125338" style="mask-type:luminance" maskUnits="userSpaceOnUse" x="113"
        y="89" width="58" height="31">
        <path d="M170.72 89.4411H113.686V119.352H170.72V89.4411Z" fill="white" />
    </mask>
    <g mask="url(#mask59_1889_125338)">
        <path
            d="M170.721 106.743V119.353H155.445V118.769C163.063 116.872 167.231 110.779 169.218 106.743H170.721Z"
            fill="#101010" />
        <path
            d="M170.721 76.8325V89.4427H155.445V88.8585C163.063 86.9621 167.231 80.8684 169.218 76.8325H170.721Z"
            fill="#101010" />
        <path
            d="M157.479 104.397V104.976C149.861 106.878 145.686 112.972 143.706 117.002H142.203V104.397H157.479Z"
            fill="#101010" />
        <path
            d="M142.204 91.7873V104.398H126.928V103.813C134.545 101.917 138.713 95.8232 140.7 91.7873H142.204Z"
            fill="#101010" />
        <path
            d="M128.961 89.4427V90.021C121.344 91.9233 117.169 98.017 115.189 102.047H113.686V89.4427H128.961Z"
            fill="#101010" />
    </g>
    <mask id="mask60_1889_125338" style="mask-type:luminance" maskUnits="userSpaceOnUse" x="113"
        y="119" width="58" height="31">
        <path d="M170.72 119.351H113.686V149.262H170.72V119.351Z" fill="white" />
    </mask>
    <g mask="url(#mask60_1889_125338)">
        <path
            d="M170.721 136.654V149.264H155.445V148.68C163.063 146.783 167.231 140.689 169.218 136.654H170.721Z"
            fill="#101010" />
        <path
            d="M170.721 106.743V119.353H155.445V118.769C163.063 116.873 167.231 110.779 169.218 106.743H170.721Z"
            fill="#101010" />
        <path
            d="M157.479 134.308V134.886C149.861 136.789 145.686 142.882 143.706 146.912H142.203V134.308H157.479Z"
            fill="#101010" />
        <path
            d="M142.204 121.698V134.308H126.928V133.724C134.545 131.828 138.713 125.734 140.7 121.698H142.204Z"
            fill="#101010" />
        <path
            d="M128.961 119.353V119.932C121.344 121.834 117.169 127.928 115.189 131.958H113.686V119.353H128.961Z"
            fill="#101010" />
    </g>
    <mask id="mask61_1889_125338" style="mask-type:luminance" maskUnits="userSpaceOnUse" x="113"
        y="149" width="58" height="31">
        <path d="M170.72 149.262H113.686V179.172H170.72V149.262Z" fill="white" />
    </mask>
    <g mask="url(#mask61_1889_125338)">
        <path
            d="M170.721 166.564V179.175H155.445V178.59C163.063 176.694 167.231 170.6 169.218 166.564H170.721Z"
            fill="#101010" />
        <path
            d="M170.721 136.654V149.264H155.445V148.68C163.063 146.783 167.231 140.69 169.218 136.654H170.721Z"
            fill="#101010" />
        <path
            d="M157.479 164.22V164.798C149.861 166.7 145.686 172.794 143.706 176.824H142.203V164.22H157.479Z"
            fill="#101010" />
        <path
            d="M142.204 151.609V164.219H126.928V163.635C134.545 161.738 138.713 155.645 140.7 151.609H142.204Z"
            fill="#101010" />
        <path
            d="M128.961 149.264V149.842C121.344 151.744 117.169 157.838 115.189 161.868H113.686V149.264H128.961Z"
            fill="#101010" />
    </g>
    <mask id="mask62_1889_125338" style="mask-type:luminance" maskUnits="userSpaceOnUse" x="113"
        y="179" width="58" height="31">
        <path d="M170.72 179.172H113.686V209.083H170.72V179.172Z" fill="white" />
    </mask>
    <g mask="url(#mask62_1889_125338)">
        <path
            d="M170.721 196.475V209.085H155.445V208.501C163.063 206.605 167.231 200.511 169.218 196.475H170.721Z"
            fill="#101010" />
        <path
            d="M170.721 166.564V179.174H155.445V178.59C163.063 176.694 167.231 170.6 169.218 166.564H170.721Z"
            fill="#101010" />
        <path
            d="M157.479 194.129V194.708C149.861 196.61 145.686 202.704 143.706 206.734H142.203V194.129H157.479Z"
            fill="#101010" />
        <path
            d="M142.204 181.52V194.13H126.928V193.546C134.545 191.649 138.713 185.555 140.7 181.52H142.204Z"
            fill="#101010" />
        <path
            d="M128.961 179.174V179.753C121.344 181.655 117.169 187.749 115.189 191.779H113.686V179.174H128.961Z"
            fill="#101010" />
    </g>
    <mask id="mask63_1889_125338" style="mask-type:luminance" maskUnits="userSpaceOnUse" x="113"
        y="209" width="58" height="30">
        <path d="M170.72 209.083H113.686V238.994H170.72V209.083Z" fill="white" />
    </mask>
    <g mask="url(#mask63_1889_125338)">
        <path
            d="M170.721 196.476V209.086H155.445V208.502C163.063 206.605 167.231 200.511 169.218 196.476H170.721Z"
            fill="#101010" />
        <path
            d="M142.204 211.43V224.04H126.928V223.456C134.545 221.56 138.713 215.466 140.7 211.43H142.204Z"
            fill="#101010" />
        <path
            d="M128.961 209.085V209.664C121.344 211.566 117.169 217.66 115.189 221.69H113.686V209.085H128.961Z"
            fill="#101010" />
    </g>
    <mask id="mask64_1889_125338" style="mask-type:luminance" maskUnits="userSpaceOnUse" x="56"
        y="-1" width="58" height="31">
        <path d="M113.686 -0.290268H56.6523V29.6202H113.686V-0.290268Z" fill="white" />
    </mask>
    <g mask="url(#mask64_1889_125338)">
        <path
            d="M113.686 17.0117V29.6219H98.4102V29.0377C106.028 27.1414 110.195 21.0476 112.183 17.0117H113.686Z"
            fill="#101010" />
        <path
            d="M100.446 14.6667V15.245C92.8282 17.1473 88.653 23.241 86.6732 27.271H85.1699V14.6667H100.446Z"
            fill="#101010" />
        <path
            d="M85.1704 2.05665V14.6669H69.8945V14.0827C77.5122 12.1863 81.6798 6.09257 83.6672 2.05665H85.1704Z"
            fill="#101010" />
        <path
            d="M71.9283 -0.288879V0.289389C64.3106 2.1917 60.1354 8.28546 58.1556 12.3154H56.6523V-0.288879H71.9283Z"
            fill="#101010" />
    </g>
    <mask id="mask65_1889_125338" style="mask-type:luminance" maskUnits="userSpaceOnUse" x="56"
        y="29" width="58" height="31">
        <path d="M113.686 29.6195H56.6523V59.53H113.686V29.6195Z" fill="white" />
    </mask>
    <g mask="url(#mask65_1889_125338)">
        <path
            d="M113.686 46.9227V59.5329H98.4102V58.9487C106.028 57.0524 110.195 50.9586 112.183 46.9227H113.686Z"
            fill="#101010" />
        <path
            d="M113.686 17.0121V29.6224H98.4102V29.0382C106.028 27.1418 110.195 21.0481 112.183 17.0121H113.686Z"
            fill="#101010" />
        <path
            d="M100.446 44.5771V45.1554C92.8282 47.0577 88.653 53.1515 86.6732 57.1814H85.1699V44.5771H100.446Z"
            fill="#101010" />
        <path
            d="M85.1704 31.9672V44.5774H69.8945V43.9932C77.5122 42.0969 81.6798 36.0031 83.6672 31.9672H85.1704Z"
            fill="#101010" />
        <path
            d="M71.9283 29.6221V30.2004C64.3106 32.1027 60.1354 38.1965 58.1556 42.2264H56.6523V29.6221H71.9283Z"
            fill="#101010" />
    </g>
    <mask id="mask66_1889_125338" style="mask-type:luminance" maskUnits="userSpaceOnUse" x="56"
        y="59" width="58" height="31">
        <path d="M113.686 59.5305H56.6523V89.441H113.686V59.5305Z" fill="white" />
    </mask>
    <g mask="url(#mask66_1889_125338)">
        <path
            d="M113.686 76.8325V89.4427H98.4102V88.8585C106.028 86.9622 110.195 80.8684 112.183 76.8325H113.686Z"
            fill="#101010" />
        <path
            d="M113.686 46.9221V59.5323H98.4102V58.9481C106.028 57.0517 110.195 50.958 112.183 46.9221H113.686Z"
            fill="#101010" />
        <path
            d="M100.446 74.4878V75.066C92.8282 76.9683 88.653 83.0621 86.6732 87.092H85.1699V74.4878H100.446Z"
            fill="#101010" />
        <path
            d="M85.1704 61.8775V74.4877H69.8945V73.9035C77.5122 72.0072 81.6798 65.9134 83.6672 61.8775H85.1704Z"
            fill="#101010" />
        <path
            d="M71.9283 59.5324V60.1107C64.3106 62.013 60.1354 68.1068 58.1556 72.1367H56.6523V59.5324H71.9283Z"
            fill="#101010" />
    </g>
    <mask id="mask67_1889_125338" style="mask-type:luminance" maskUnits="userSpaceOnUse" x="56"
        y="89" width="58" height="31">
        <path d="M113.686 89.4411H56.6523V119.352H113.686V89.4411Z" fill="white" />
    </mask>
    <g mask="url(#mask67_1889_125338)">
        <path
            d="M113.686 106.743V119.353H98.4102V118.769C106.028 116.872 110.195 110.779 112.183 106.743H113.686Z"
            fill="#101010" />
        <path
            d="M113.686 76.8325V89.4427H98.4102V88.8585C106.028 86.9621 110.195 80.8684 112.183 76.8325H113.686Z"
            fill="#101010" />
        <path
            d="M100.446 104.398V104.976C92.8282 106.878 88.653 112.972 86.6732 117.002H85.1699V104.398H100.446Z"
            fill="#101010" />
        <path
            d="M85.1704 91.7877V104.398H69.8945V103.814C77.5122 101.917 81.6798 95.8237 83.6672 91.7877H85.1704Z"
            fill="#101010" />
        <path
            d="M71.9283 89.4427V90.021C64.3106 91.9233 60.1354 98.017 58.1556 102.047H56.6523V89.4427H71.9283Z"
            fill="#101010" />
    </g>
    <mask id="mask68_1889_125338" style="mask-type:luminance" maskUnits="userSpaceOnUse" x="56"
        y="119" width="58" height="31">
        <path d="M113.686 119.351H56.6523V149.262H113.686V119.351Z" fill="white" />
    </mask>
    <g mask="url(#mask68_1889_125338)">
        <path
            d="M113.686 136.654V149.264H98.4102V148.68C106.028 146.783 110.195 140.689 112.183 136.654H113.686Z"
            fill="#101010" />
        <path
            d="M113.686 106.743V119.353H98.4102V118.769C106.028 116.873 110.195 110.779 112.183 106.743H113.686Z"
            fill="#101010" />
        <path
            d="M100.446 134.308V134.886C92.8282 136.789 88.653 142.882 86.6732 146.912H85.1699V134.308H100.446Z"
            fill="#101010" />
        <path
            d="M85.1704 121.698V134.308H69.8945V133.724C77.5122 131.828 81.6798 125.734 83.6672 121.698H85.1704Z"
            fill="#101010" />
        <path
            d="M71.9283 119.353V119.932C64.3106 121.834 60.1354 127.928 58.1556 131.958H56.6523V119.353H71.9283Z"
            fill="#101010" />
    </g>
    <mask id="mask69_1889_125338" style="mask-type:luminance" maskUnits="userSpaceOnUse" x="56"
        y="149" width="58" height="31">
        <path d="M113.686 149.262H56.6523V179.172H113.686V149.262Z" fill="white" />
    </mask>
    <g mask="url(#mask69_1889_125338)">
        <path
            d="M113.686 166.564V179.175H98.4102V178.59C106.028 176.694 110.195 170.6 112.183 166.564H113.686Z"
            fill="#101010" />
        <path
            d="M113.686 136.654V149.264H98.4102V148.68C106.028 146.783 110.195 140.69 112.183 136.654H113.686Z"
            fill="#101010" />
        <path
            d="M100.446 164.22V164.798C92.8282 166.7 88.653 172.794 86.6732 176.824H85.1699V164.22H100.446Z"
            fill="#101010" />
        <path
            d="M85.1704 151.609V164.219H69.8945V163.635C77.5122 161.738 81.6798 155.645 83.6672 151.609H85.1704Z"
            fill="#101010" />
        <path
            d="M71.9283 149.264V149.842C64.3106 151.744 60.1354 157.838 58.1556 161.868H56.6523V149.264H71.9283Z"
            fill="#101010" />
    </g>
    <mask id="mask70_1889_125338" style="mask-type:luminance" maskUnits="userSpaceOnUse" x="56"
        y="179" width="58" height="31">
        <path d="M113.686 179.172H56.6523V209.083H113.686V179.172Z" fill="white" />
    </mask>
    <g mask="url(#mask70_1889_125338)">
        <path
            d="M113.686 196.475V209.085H98.4102V208.501C106.028 206.605 110.195 200.511 112.183 196.475H113.686Z"
            fill="#101010" />
        <path
            d="M113.686 166.564V179.174H98.4102V178.59C106.028 176.694 110.195 170.6 112.183 166.564H113.686Z"
            fill="#101010" />
        <path
            d="M100.446 194.129V194.708C92.8282 196.61 88.653 202.704 86.6732 206.734H85.1699V194.129H100.446Z"
            fill="#101010" />
        <path
            d="M85.1704 181.52V194.13H69.8945V193.546C77.5122 191.649 81.6798 185.555 83.6672 181.52H85.1704Z"
            fill="#101010" />
        <path
            d="M71.9283 179.174V179.753C64.3106 181.655 60.1354 187.749 58.1556 191.779H56.6523V179.174H71.9283Z"
            fill="#101010" />
    </g>
    <mask id="mask71_1889_125338" style="mask-type:luminance" maskUnits="userSpaceOnUse" x="56"
        y="209" width="58" height="30">
        <path d="M113.686 209.083H56.6523V238.994H113.686V209.083Z" fill="white" />
    </mask>
    <g mask="url(#mask71_1889_125338)">
        <path
            d="M113.686 196.476V209.086H98.4102V208.502C106.028 206.605 110.195 200.511 112.183 196.476H113.686Z"
            fill="#101010" />
        <path
            d="M85.1704 211.43V224.04H69.8945V223.456C77.5122 221.56 81.6798 215.466 83.6672 211.43H85.1704Z"
            fill="#101010" />
        <path
            d="M71.9283 209.085V209.664C64.3106 211.566 60.1354 217.66 58.1556 221.69H56.6523V209.085H71.9283Z"
            fill="#101010" />
    </g>
    <mask id="mask72_1889_125338" style="mask-type:luminance" maskUnits="userSpaceOnUse" x="-1"
        y="-1" width="58" height="31">
        <path d="M56.6513 -0.290268H-0.382812V29.6202H56.6513V-0.290268Z" fill="white" />
    </mask>
    <g mask="url(#mask72_1889_125338)">
        <path
            d="M56.6509 17.0117V29.6219H41.375V29.0377C48.9927 27.1414 53.1602 21.0476 55.1477 17.0117H56.6509Z"
            fill="#101010" />
        <path
            d="M43.4087 14.6662V15.2445C35.791 17.1468 31.6159 23.2406 29.6361 27.2705H28.1328V14.6662H43.4087Z"
            fill="#101010" />
        <path
            d="M28.1353 2.05617V14.6664H12.8594V14.0822C20.4771 12.1858 24.6446 6.09209 26.632 2.05617H28.1353Z"
            fill="#101010" />
        <path
            d="M14.8931 -0.288879V0.289389C7.27542 2.1917 3.10028 8.28546 1.12044 12.3154H-0.382812V-0.288879H14.8931Z"
            fill="#101010" />
    </g>
    <mask id="mask73_1889_125338" style="mask-type:luminance" maskUnits="userSpaceOnUse" x="-1"
        y="29" width="58" height="31">
        <path d="M56.6513 29.6195H-0.382812V59.53H56.6513V29.6195Z" fill="white" />
    </mask>
    <g mask="url(#mask73_1889_125338)">
        <path
            d="M56.6509 46.9227V59.533H41.375V58.9487C48.9927 57.0524 53.1602 50.9586 55.1477 46.9227H56.6509Z"
            fill="#101010" />
        <path
            d="M56.6509 17.0121V29.6224H41.375V29.0382C48.9927 27.1418 53.1602 21.0481 55.1477 17.0121H56.6509Z"
            fill="#101010" />
        <path
            d="M43.4087 44.5771V45.1554C35.791 47.0577 31.6159 53.1515 29.6361 57.1814H28.1328V44.5771H43.4087Z"
            fill="#101010" />
        <path
            d="M28.1353 31.9672V44.5774H12.8594V43.9932C20.4771 42.0969 24.6446 36.0031 26.632 31.9672H28.1353Z"
            fill="#101010" />
        <path
            d="M14.8931 29.6221V30.2004C7.27542 32.1027 3.10028 38.1965 1.12044 42.2264H-0.382812V29.6221H14.8931Z"
            fill="#101010" />
    </g>
    <mask id="mask74_1889_125338" style="mask-type:luminance" maskUnits="userSpaceOnUse" x="-1"
        y="59" width="58" height="31">
        <path d="M56.6513 59.5305H-0.382812V89.441H56.6513V59.5305Z" fill="white" />
    </mask>
    <g mask="url(#mask74_1889_125338)">
        <path
            d="M56.6509 76.8325V89.4427H41.375V88.8585C48.9927 86.9622 53.1602 80.8684 55.1477 76.8325H56.6509Z"
            fill="#101010" />
        <path
            d="M56.6509 46.9221V59.5323H41.375V58.9481C48.9927 57.0517 53.1602 50.958 55.1477 46.9221H56.6509Z"
            fill="#101010" />
        <path
            d="M43.4087 74.4877V75.066C35.791 76.9683 31.6159 83.0621 29.6361 87.092H28.1328V74.4877H43.4087Z"
            fill="#101010" />
        <path
            d="M28.1353 61.8775V74.4877H12.8594V73.9035C20.4771 72.0071 24.6446 65.9134 26.632 61.8775H28.1353Z"
            fill="#101010" />
        <path
            d="M14.8931 59.5324V60.1107C7.27542 62.013 3.10028 68.1068 1.12044 72.1367H-0.382812V59.5324H14.8931Z"
            fill="#101010" />
    </g>
    <mask id="mask75_1889_125338" style="mask-type:luminance" maskUnits="userSpaceOnUse" x="-1"
        y="89" width="58" height="31">
        <path d="M56.6513 89.4411H-0.382812V119.352H56.6513V89.4411Z" fill="white" />
    </mask>
    <g mask="url(#mask75_1889_125338)">
        <path
            d="M56.6509 106.743V119.353H41.375V118.769C48.9927 116.872 53.1602 110.779 55.1477 106.743H56.6509Z"
            fill="#101010" />
        <path
            d="M56.6509 76.8325V89.4427H41.375V88.8585C48.9927 86.9621 53.1602 80.8684 55.1477 76.8325H56.6509Z"
            fill="#101010" />
        <path
            d="M43.4087 104.397V104.976C35.791 106.878 31.6159 112.972 29.6361 117.002H28.1328V104.397H43.4087Z"
            fill="#101010" />
        <path
            d="M28.1353 91.7873V104.398H12.8594V103.813C20.4771 101.917 24.6446 95.8232 26.632 91.7873H28.1353Z"
            fill="#101010" />
        <path
            d="M14.8931 89.4427V90.021C7.27542 91.9233 3.10028 98.017 1.12044 102.047H-0.382812V89.4427H14.8931Z"
            fill="#101010" />
    </g>
    <mask id="mask76_1889_125338" style="mask-type:luminance" maskUnits="userSpaceOnUse" x="-1"
        y="119" width="58" height="31">
        <path d="M56.6513 119.351H-0.382812V149.262H56.6513V119.351Z" fill="white" />
    </mask>
    <g mask="url(#mask76_1889_125338)">
        <path
            d="M56.6509 136.654V149.264H41.375V148.68C48.9927 146.783 53.1602 140.689 55.1477 136.654H56.6509Z"
            fill="#101010" />
        <path
            d="M56.6509 106.743V119.353H41.375V118.769C48.9927 116.873 53.1602 110.779 55.1477 106.743H56.6509Z"
            fill="#101010" />
        <path
            d="M43.4087 134.308V134.886C35.791 136.789 31.6159 142.882 29.6361 146.912H28.1328V134.308H43.4087Z"
            fill="#101010" />
        <path
            d="M28.1353 121.698V134.308H12.8594V133.724C20.4771 131.828 24.6446 125.734 26.632 121.698H28.1353Z"
            fill="#101010" />
        <path
            d="M14.8931 119.353V119.932C7.27542 121.834 3.10028 127.928 1.12044 131.958H-0.382812V119.353H14.8931Z"
            fill="#101010" />
    </g>
    <mask id="mask77_1889_125338" style="mask-type:luminance" maskUnits="userSpaceOnUse" x="-1"
        y="149" width="58" height="31">
        <path d="M56.6513 149.262H-0.382812V179.172H56.6513V149.262Z" fill="white" />
    </mask>
    <g mask="url(#mask77_1889_125338)">
        <path
            d="M56.6509 166.564V179.175H41.375V178.59C48.9927 176.694 53.1602 170.6 55.1477 166.564H56.6509Z"
            fill="#101010" />
        <path
            d="M56.6509 136.654V149.264H41.375V148.68C48.9927 146.783 53.1602 140.69 55.1477 136.654H56.6509Z"
            fill="#101010" />
        <path
            d="M43.4087 164.22V164.798C35.791 166.7 31.6159 172.794 29.6361 176.824H28.1328V164.22H43.4087Z"
            fill="#101010" />
        <path
            d="M28.1353 151.609V164.219H12.8594V163.635C20.4771 161.738 24.6446 155.645 26.632 151.609H28.1353Z"
            fill="#101010" />
        <path
            d="M14.8931 149.264V149.842C7.27542 151.744 3.10028 157.838 1.12044 161.868H-0.382812V149.264H14.8931Z"
            fill="#101010" />
    </g>
    <mask id="mask78_1889_125338" style="mask-type:luminance" maskUnits="userSpaceOnUse" x="-1"
        y="179" width="58" height="31">
        <path d="M56.6513 179.172H-0.382812V209.083H56.6513V179.172Z" fill="white" />
    </mask>
    <g mask="url(#mask78_1889_125338)">
        <path
            d="M56.6509 196.475V209.085H41.375V208.501C48.9927 206.605 53.1602 200.511 55.1477 196.475H56.6509Z"
            fill="#101010" />
        <path
            d="M56.6509 166.564V179.174H41.375V178.59C48.9927 176.694 53.1602 170.6 55.1477 166.564H56.6509Z"
            fill="#101010" />
        <path
            d="M43.4087 194.129V194.708C35.791 196.61 31.6159 202.704 29.6361 206.734H28.1328V194.129H43.4087Z"
            fill="#101010" />
        <path
            d="M28.1353 181.52V194.13H12.8594V193.546C20.4771 191.649 24.6446 185.555 26.632 181.52H28.1353Z"
            fill="#101010" />
        <path
            d="M14.8931 179.174V179.753C7.27542 181.655 3.10028 187.749 1.12044 191.779H-0.382812V179.174H14.8931Z"
            fill="#101010" />
    </g>
    <mask id="mask79_1889_125338" style="mask-type:luminance" maskUnits="userSpaceOnUse" x="-1"
        y="209" width="58" height="30">
        <path d="M56.6513 209.083H-0.382812V238.994H56.6513V209.083Z" fill="white" />
    </mask>
    <g mask="url(#mask79_1889_125338)">
        <path
            d="M56.6509 196.476V209.086H41.375V208.502C48.9927 206.605 53.1602 200.511 55.1477 196.476H56.6509Z"
            fill="#101010" />
        <path
            d="M28.1353 211.43V224.04H12.8594V223.456C20.4771 221.56 24.6446 215.466 26.632 211.43H28.1353Z"
            fill="#101010" />
        <path
            d="M14.8931 209.085V209.664C7.27542 211.566 3.10028 217.66 1.12044 221.69H-0.382812V209.085H14.8931Z"
            fill="#101010" />
    </g>
</svg>
    