<svg width="247" height="224" viewBox="0 0 247 224" fill="none" xmlns="http://www.w3.org/2000/svg">
    <path
        d="M258.003 106.83V112.945C193.813 133.059 158.631 197.492 141.948 240.103H129.281V106.83H258.003Z"
        fill="#BD52FD" />
    <path
        d="M129.281 -26.5049V106.831H0.558594V100.653C64.7488 80.6023 99.8665 16.1693 116.614 -26.5049H129.281Z"
        fill="#BD52FD" />
    <path
        d="M87.4076 169.208V170.386C75.0336 174.264 68.2516 186.685 65.0356 194.899H62.5938V169.208H87.4076Z"
        fill="#BD52FD" />
    <path
        d="M62.5942 143.504V169.208H37.7803V168.017C50.1543 164.151 56.924 151.731 60.1523 143.504H62.5942Z"
        fill="#BD52FD" />
    <path
        d="M207.754 50.7538V51.9325C195.38 55.8099 188.598 68.2307 185.382 76.4449H182.94V50.7538H207.754Z"
        fill="#BD52FD" />
    <path
        d="M182.941 25.0502V50.7535H158.127V49.5626C170.501 45.6974 177.271 33.2766 180.499 25.0502H182.941Z"
        fill="#BD52FD" />
</svg>