<svg xmlns="http://www.w3.org/2000/svg" width="21" height="21" viewBox="0 0 21 21" fill="none">
    <path
        d="M19.4919 4.30957L15.3381 1.5646C14.3558 0.915484 13.0459 1.64946 13.0459 2.71587C13.0459 3.04522 12.6563 3.29008 12.2461 3.29008H2.46387C1.94172 3.29008 1.44096 3.49751 1.07175 3.86672C0.702539 4.23593 0.495117 4.73669 0.495117 5.25883V7.03891C0.495117 7.56106 0.702539 8.06182 1.07175 8.43103C1.44096 8.80024 1.94172 9.00766 2.46387 9.00766H12.2438C12.4176 9.00829 12.5857 9.06946 12.7192 9.18064C12.8527 9.29182 12.9433 9.44606 12.9754 9.61683C13.201 10.7813 14.3582 11.2871 15.3073 10.6931L19.4451 8.10384C20.8365 7.23296 20.8615 5.21462 19.4919 4.30957Z"
        fill="#7FB640" />
    <path
        d="M20.2951 5.24023C20.2784 5.60295 20.1736 5.95614 19.9898 6.26926C19.8059 6.58238 19.5486 6.846 19.24 7.03733L15.3075 9.62669C14.3234 10.2426 13.0461 9.5351 13.0461 8.3742C13.0461 8.25939 13.0005 8.14928 12.9193 8.06809C12.8381 7.9869 12.728 7.94129 12.6132 7.94128H2.46387C1.94172 7.94128 1.44096 7.73386 1.07175 7.36464C0.702538 6.99543 0.495117 6.49467 0.495117 5.97253V7.03893C0.495117 7.56108 0.702538 8.06184 1.07175 8.43105C1.44096 8.80026 1.94172 9.00768 2.46387 9.00768H12.2438C12.4176 9.00832 12.5857 9.06948 12.7192 9.18066C12.8527 9.29184 12.9433 9.44608 12.9754 9.61685C13.201 10.7813 14.3582 11.2871 15.3073 10.6931L19.4451 8.10374C20.4613 7.46763 20.7477 6.21973 20.2951 5.24023Z"
        fill="#66992A" />
    <path
        d="M1.50725 13.0459L5.66102 10.3009C6.64335 9.65181 7.95322 10.3858 7.95322 11.4522C7.95322 11.7815 8.34287 12.0264 8.75303 12.0264H18.5353C19.0574 12.0264 19.5582 12.2338 19.9274 12.603C20.2966 12.9723 20.504 13.473 20.504 13.9952V15.7752C20.504 16.2974 20.2966 16.7981 19.9274 17.1674C19.5582 17.5366 19.0574 17.744 18.5353 17.744H8.75532C8.58157 17.7446 8.41346 17.8058 8.27993 17.917C8.1464 18.0281 8.05579 18.1824 8.02369 18.3532C7.7981 19.5176 6.64097 20.0234 5.69178 19.4294L1.55425 16.8402C0.162631 15.9693 0.137652 13.9509 1.50725 13.0459Z"
        fill="#855B51" />
    <path
        d="M0.704277 13.9766C0.720985 14.3393 0.825808 14.6925 1.00968 15.0056C1.19355 15.3187 1.45093 15.5824 1.75957 15.7737L5.69202 18.363C6.67615 18.9789 7.95346 18.2714 7.95346 17.1105C7.95346 16.9957 7.99907 16.8856 8.08025 16.8044C8.16143 16.7232 8.27153 16.6776 8.38634 16.6776H18.5355C19.0576 16.6776 19.5584 16.4702 19.9276 16.101C20.2968 15.7318 20.5042 15.231 20.5042 14.7089V15.7753C20.5042 16.2974 20.2968 16.7982 19.9276 17.1674C19.5584 17.5366 19.0576 17.744 18.5355 17.744H8.75556C8.58181 17.7446 8.4137 17.8058 8.28017 17.917C8.14664 18.0282 8.05603 18.1824 8.02393 18.3532C7.79834 19.5176 6.64121 20.0235 5.69202 19.4294L1.55449 16.8401C0.538041 16.204 0.251629 14.9561 0.704277 13.9766Z"
        fill="#724D44" />
</svg>