<svg xmlns="http://www.w3.org/2000/svg" width="23" height="23" viewBox="0 0 23 23" fill="none">
    <path
        d="M20.125 2.15625H2.875C2.08109 2.15625 1.4375 2.79984 1.4375 3.59375V8.625C1.4375 9.41891 2.08109 10.0625 2.875 10.0625H20.125C20.9189 10.0625 21.5625 9.41891 21.5625 8.625V3.59375C21.5625 2.79984 20.9189 2.15625 20.125 2.15625Z"
        fill="#855B51" />
    <path
        d="M17.9688 5.03125H5.03125C4.84063 5.03125 4.65781 5.10698 4.52302 5.24177C4.38823 5.37656 4.3125 5.55938 4.3125 5.75V19.4062C4.3125 19.7875 4.46395 20.1531 4.73353 20.4227C5.00312 20.6923 5.36875 20.8438 5.75 20.8438H17.25C17.6312 20.8438 17.9969 20.6923 18.2665 20.4227C18.536 20.1531 18.6875 19.7875 18.6875 19.4062V5.75C18.6875 5.55938 18.6118 5.37656 18.477 5.24177C18.3422 5.10698 18.1594 5.03125 17.9688 5.03125Z"
        fill="#66992A" />
    <path
        d="M15.0938 5.03125H7.90625C7.11234 5.03125 6.46875 5.67484 6.46875 6.46875V17.25C6.46875 18.0439 7.11234 18.6875 7.90625 18.6875H15.0938C15.8877 18.6875 16.5312 18.0439 16.5312 17.25V6.46875C16.5312 5.67484 15.8877 5.03125 15.0938 5.03125Z"
        fill="#9BCE60" />
    <path
        d="M19.0469 6.46875H3.95312C3.7625 6.46875 3.57968 6.39302 3.44489 6.25823C3.3101 6.12344 3.23438 5.94062 3.23438 5.75C3.23438 5.55938 3.3101 5.37656 3.44489 5.24177C3.57968 5.10698 3.7625 5.03125 3.95312 5.03125H19.0469C19.2375 5.03125 19.4203 5.10698 19.5551 5.24177C19.6899 5.37656 19.7656 5.55938 19.7656 5.75C19.7656 5.94062 19.6899 6.12344 19.5551 6.25823C19.4203 6.39302 19.2375 6.46875 19.0469 6.46875Z"
        fill="#724D44" />
    <path
        d="M11.8594 15.4531H10.0625C9.87188 15.4531 9.68906 15.3774 9.55427 15.2426C9.41948 15.1078 9.34375 14.925 9.34375 14.7344C9.34375 14.5438 9.41948 14.3609 9.55427 14.2261C9.68906 14.0913 9.87188 14.0156 10.0625 14.0156H11.8594C11.9547 14.0156 12.0461 13.9778 12.1135 13.9104C12.1809 13.843 12.2188 13.7516 12.2188 13.6562C12.2188 13.5609 12.1809 13.4695 12.1135 13.4021C12.0461 13.3347 11.9547 13.2969 11.8594 13.2969H11.1406C10.6641 13.2969 10.207 13.1076 9.87004 12.7706C9.53306 12.4336 9.34375 11.9766 9.34375 11.5C9.34375 11.0234 9.53306 10.5664 9.87004 10.2294C10.207 9.89244 10.6641 9.70312 11.1406 9.70312H12.9375C13.1281 9.70312 13.3109 9.77885 13.4457 9.91364C13.5805 10.0484 13.6562 10.2313 13.6562 10.4219C13.6562 10.6125 13.5805 10.7953 13.4457 10.9301C13.3109 11.0649 13.1281 11.1406 12.9375 11.1406H11.1406C11.0453 11.1406 10.9539 11.1785 10.8865 11.2459C10.8191 11.3133 10.7812 11.4047 10.7812 11.5C10.7812 11.5953 10.8191 11.6867 10.8865 11.7541C10.9539 11.8215 11.0453 11.8594 11.1406 11.8594H11.8594C12.3359 11.8594 12.793 12.0487 13.13 12.3857C13.4669 12.7226 13.6562 13.1797 13.6562 13.6562C13.6562 14.1328 13.4669 14.5899 13.13 14.9268C12.793 15.2638 12.3359 15.4531 11.8594 15.4531Z"
        fill="#66992A" />
    <path
        d="M11.5 11.1406C11.3094 11.1406 11.1266 11.0649 10.9918 10.9301C10.857 10.7953 10.7812 10.6125 10.7812 10.4219V9.34375C10.7812 9.15313 10.857 8.97031 10.9918 8.83552C11.1266 8.70073 11.3094 8.625 11.5 8.625C11.6906 8.625 11.8734 8.70073 12.0082 8.83552C12.143 8.97031 12.2188 9.15313 12.2188 9.34375V10.4219C12.2188 10.6125 12.143 10.7953 12.0082 10.9301C11.8734 11.0649 11.6906 11.1406 11.5 11.1406ZM11.5 16.5312C11.3094 16.5312 11.1266 16.4555 10.9918 16.3207C10.857 16.1859 10.7812 16.0031 10.7812 15.8125V14.7344C10.7812 14.5438 10.857 14.3609 10.9918 14.2261C11.1266 14.0913 11.3094 14.0156 11.5 14.0156C11.6906 14.0156 11.8734 14.0913 12.0082 14.2261C12.143 14.3609 12.2188 14.5438 12.2188 14.7344V15.8125C12.2188 16.0031 12.143 16.1859 12.0082 16.3207C11.8734 16.4555 11.6906 16.5312 11.5 16.5312Z"
        fill="#66992A" />
</svg>