<svg width="17" height="17" viewBox="0 0 17 17" fill="none" xmlns="http://www.w3.org/2000/svg">
    <path
        d="M12.9993 0H3.16056C1.41412 0 0 1.43103 0 3.19919V13.1662C0 14.9379 1.41412 16.3689 3.16056 16.3689H12.9993C14.7422 16.3689 16.1599 14.9379 16.1599 13.1662V3.19919C16.1599 1.43103 14.7422 0 12.9993 0Z"
        fill="#C8C8C8" />
    <path
        d="M12.9993 0H3.16056C1.41412 0 0 1.43103 0 3.19919V13.1662C0 14.9379 1.41412 16.3689 3.16056 16.3689H12.9993C14.7422 16.3689 16.1599 14.9379 16.1599 13.1662V3.19919C16.1599 1.43103 14.7422 0 12.9993 0ZM4.58175 13.0801C3.6661 13.0801 2.92369 12.3269 2.92369 11.4016C2.92369 10.4727 3.6661 9.71951 4.58175 9.71951C5.50093 9.71951 6.24334 10.4727 6.24334 11.4016C6.24334 12.3269 5.50093 13.0801 4.58175 13.0801ZM4.58175 6.64585C3.6661 6.64585 2.92369 5.89626 2.92369 4.96735C2.92369 4.03844 3.6661 3.28885 4.58175 3.28885C5.50093 3.28885 6.24334 4.03844 6.24334 4.96735C6.24334 5.89626 5.50093 6.64585 4.58175 6.64585ZM11.5746 13.0801C10.6554 13.0801 9.91298 12.3269 9.91298 11.4016C9.91298 10.4727 10.6554 9.71951 11.5746 9.71951C12.4902 9.71951 13.2326 10.4727 13.2326 11.4016C13.2326 12.3269 12.4902 13.0801 11.5746 13.0801ZM11.5746 6.64585C10.6554 6.64585 9.91298 5.89626 9.91298 4.96735C9.91298 4.03844 10.6554 3.28885 11.5746 3.28885C12.4902 3.28885 13.2326 4.03844 13.2326 4.96735C13.2326 5.89626 12.4902 6.64585 11.5746 6.64585Z"
        fill="#717171" />
</svg>
    