<svg width="17" height="18" viewBox="0 0 17 18" fill="none" xmlns="http://www.w3.org/2000/svg">
    <path
        d="M4.42857 4.07143C4.42857 1.82657 6.25514 0 8.5 0C10.7449 0 12.5714 1.82657 12.5714 4.07143C12.5714 6.31629 10.7449 8.14286 8.5 8.14286C6.25514 8.14286 4.42857 6.31629 4.42857 4.07143ZM12.0714 9.42857H4.92857C2.21143 9.42857 0 12.64 0 15.3571C0.00045406 15.9822 0.248941 16.5814 0.690893 17.0234C1.13284 17.4653 1.73213 17.7138 2.35714 17.7143H14.6429C15.2679 17.7138 15.8672 17.4653 16.3091 17.0234C16.7511 16.5814 16.9995 15.9822 17 15.3571C17 12.64 14.7886 9.42857 12.0714 9.42857Z"
        fill="#717171" />
    <path
        d="M4.42871 4.07143C4.42871 1.82657 6.25528 0 8.50014 0C10.745 0 12.5716 1.82657 12.5716 4.07143C12.5716 6.31629 10.745 8.14286 8.50014 8.14286C6.25528 8.14286 4.42871 6.31629 4.42871 4.07143Z"
        fill="#C8C8C8" />
</svg>
    