<svg width="22" height="16" viewBox="0 0 22 16" fill="none" xmlns="http://www.w3.org/2000/svg">
    <path
        d="M21.0359 12.3083C20.9865 9.52381 20.6624 6.70804 20.1307 3.86601C19.6976 1.89143 18.1395 0.132768 15.6499 0.00396356C13.812 -0.0727354 13.4566 0.989379 11.3742 0.968954C10.8039 0.965202 10.234 0.965202 9.66372 0.968954C7.58093 0.989379 7.22469 -0.0727354 5.38761 0.00396356C2.89764 0.132768 1.29106 1.88684 0.905241 3.86601C0.373142 6.70804 0.0489518 9.52339 5.61634e-05 12.3079C-0.0118596 14.2466 1.87494 15.5363 3.11993 15.6247C5.52485 15.809 7.43548 11.5067 8.89125 11.5063C9.97641 11.5126 11.0611 11.513 12.1463 11.5063C13.6025 11.5063 15.5115 15.8094 17.918 15.6251C19.1626 15.5368 21.0979 14.2383 21.0359 12.3083Z"
        fill="#151618" />
    <path
        d="M21.0359 12.3083C20.9865 9.52381 20.6624 6.70804 20.1307 3.86601C19.6976 1.89143 18.1395 0.132768 15.6499 0.00396356C13.812 -0.0727354 13.4566 0.989379 11.3742 0.968954C10.8039 0.965202 10.234 0.965202 9.66372 0.968954C7.58093 0.989379 7.22469 -0.0727354 5.38761 0.00396356C2.89764 0.132768 1.29106 1.88684 0.905241 3.86601C0.373142 6.70804 0.0489518 9.52339 5.61634e-05 12.3079C-0.0118596 14.2466 1.87494 15.5363 3.11993 15.6247C5.52485 15.809 7.43548 11.5067 8.89125 11.5063C9.97641 11.5126 11.0611 11.513 12.1463 11.5063C13.6025 11.5063 15.5115 15.8094 17.918 15.6251C19.1626 15.5368 21.0983 14.2383 21.0363 12.3083H21.0359ZM7.8439 6.87519H6.72218V8.01317C6.72218 8.49337 6.33841 8.88271 5.86507 8.88271C5.39172 8.88271 5.00795 8.49337 5.00795 8.01317V6.87519H3.88623C3.41289 6.87519 3.02912 6.48586 3.02912 6.00566C3.02912 5.52546 3.41289 5.13613 3.88623 5.13613H5.00795V3.99815C5.00795 3.51794 5.39172 3.12861 5.86507 3.12861C6.33841 3.12861 6.72218 3.51794 6.72218 3.99815V5.13613H7.8439C8.31724 5.13613 8.70101 5.52546 8.70101 6.00566C8.70101 6.48586 8.31724 6.87519 7.8439 6.87519ZM14.7702 8.88229C14.0993 8.90063 13.5413 8.3629 13.5232 7.68262C13.5055 6.99983 14.036 6.43292 14.7065 6.41542C15.3779 6.39833 15.9367 6.93564 15.954 7.61676C15.9708 8.29788 15.4412 8.86478 14.7702 8.88229ZM16.7939 5.59549C16.1229 5.61466 15.5637 5.07652 15.5452 4.39582C15.5283 3.71386 16.058 3.14779 16.7293 3.12903C17.4016 3.11111 17.9595 3.64925 17.9776 4.33037C17.9953 5.01107 17.4644 5.5784 16.7939 5.59549Z"
        fill="#878313" />
</svg>
    