<svg width="59" height="25" viewBox="0 0 59 25" fill="none" xmlns="http://www.w3.org/2000/svg">
    <g clip-path="url(#clip0_1283_47889)">
        <path
            d="M7.77579 11.1535L6.01449 10.3238H19.3659C19.913 10.3238 20.4073 9.99857 20.6221 9.4974L21.7473 6.87155L8.78002 6.87009C6.59785 6.87009 4.62513 8.16302 3.76185 10.1595L0.22114 18.4451C-0.54573 20.2402 0.776103 22.2327 2.73462 22.2327H14.2626C14.8098 22.2327 15.304 21.9074 15.5189 21.4063L16.665 18.7322H4.53166L7.77579 11.154V11.1535Z"
            fill="#E2E2E2" />
        <path
            d="M44.9654 6.87057C42.772 6.87057 40.7914 8.17715 39.9356 10.1892L39.3639 11.5333L38.9557 12.4913C38.1909 14.286 39.5132 16.276 41.4702 16.276H42.4745H50.6717L49.619 18.7327H37.19C36.6438 18.7327 36.1506 19.0564 35.9352 19.5562L34.7803 22.2332H48.8154C51.004 22.2332 52.981 20.9324 53.8399 18.9273L54.8686 16.5261C55.6379 14.7311 54.3156 12.7366 52.3566 12.7366H43.164L43.8388 11.155L42.1211 10.3247H56.6225C57.1706 10.3247 57.6654 9.99858 57.8798 9.49642L59 6.87105H44.9659L44.9654 6.87057Z"
            fill="#E2E2E2" />
        <path
            d="M40.8877 3.3696C40.8755 3.3696 40.8652 3.35936 40.8652 3.34717C40.8662 3.26234 40.8686 2.96202 40.8691 2.90547C40.8691 2.82746 40.8143 2.76457 40.7458 2.76457C40.7062 2.76457 40.6709 2.78602 40.6479 2.81918C40.6362 2.83576 40.4958 3.04003 40.4092 3.16533C40.4042 3.17215 40.3969 3.17605 40.3885 3.17605H33.5459C33.5191 3.17605 33.497 3.1546 33.4965 3.12778L33.4829 2.9435C33.4824 2.9123 33.5107 2.88792 33.5415 2.89376L33.8914 2.92692C33.9218 2.92936 33.9492 2.90986 33.9565 2.88061L34.2115 1.85045C34.2169 1.82657 34.2037 1.80218 34.1807 1.7939L33.9439 1.70566C33.9302 1.70029 33.9198 1.68908 33.9164 1.67494C33.8733 1.49553 33.523 0.296198 31.834 0.0280563C31.0123 -0.102115 30.4741 0.247446 30.1868 0.526313C30.0591 0.650146 29.9539 0.794943 29.8716 0.952904L29.7708 1.17424C29.7621 1.19131 29.7228 1.39899 29.7228 1.418L29.7762 2.44037C29.7762 2.47547 29.7928 2.50813 29.8203 2.52958L30.1908 2.689L29.9862 3.02687C29.9793 3.05173 29.9568 3.06879 29.9308 3.06879C29.9308 3.06879 29.4953 3.08 29.2804 3.08878C28.8777 3.10487 27.9807 3.59484 27.3195 5.0038C26.67 6.38742 26.5634 6.61802 26.5634 6.61802C26.5497 6.64434 26.5218 6.66092 26.4919 6.65946L25.8886 6.66141C25.8514 6.66141 25.8117 6.69115 25.796 6.72478L24.8579 9.37355C24.8423 9.4072 24.8515 9.45789 24.876 9.48617L25.5308 9.89423C25.5489 9.90934 25.5567 9.93323 25.5513 9.95567L25.2093 10.9624C25.2049 10.9848 25.1965 11.0068 25.1848 11.0268L24.7311 11.4251C24.7193 11.4353 24.7086 11.448 24.7022 11.4621C24.6988 11.4699 24.6959 11.4782 24.6934 11.4865L24.0689 13.0812C24.0607 13.1095 24.0348 13.1285 24.0054 13.1285L23.6549 13.1304C23.5668 13.1304 23.4935 13.1982 23.4857 13.2855L23.2761 15.6691C23.2723 15.711 23.2669 15.7529 23.2595 15.7948L23.0942 16.7407C23.0877 16.7626 23.0756 16.7821 23.0594 16.7982L22.4761 17.2423C22.2088 17.4968 21.8506 17.9614 21.6754 18.2856L19.7326 22.3726C19.6856 22.4593 19.6479 22.6091 19.6503 22.7081L19.7883 22.9533C19.7903 23.041 19.755 23.4282 19.7145 23.5061L19.0636 24.6402C19.0489 24.6679 19.0479 24.7006 19.0607 24.7293L19.0929 24.8029L19.1903 24.9965L21.1659 24.9995C21.2884 25.0106 21.4238 24.8542 21.4277 24.6865L21.535 23.336L21.507 23.1327L25.2739 18.7244C25.3723 18.6049 25.5058 18.3943 25.5728 18.2549L27.3679 14.3078C27.389 14.2645 27.4266 14.2313 27.4727 14.2162L27.5862 14.1797C27.6552 14.1572 27.7306 14.1792 27.7771 14.2347C27.9342 14.423 28.3037 15.0484 28.4837 15.3092C28.6325 15.5258 29.371 16.5909 29.6934 16.942C29.7826 17.0385 30.0571 17.1482 30.18 17.2229C30.2201 17.2472 30.2333 17.2989 30.2103 17.3394L29.1346 19.2231L28.6594 21.4477C28.6428 21.4995 28.6301 21.553 28.6222 21.6067L28.1921 23.1516C28.195 23.3467 28.0447 23.4491 28.0326 23.6792L27.876 24.8083C27.8739 24.8429 27.9018 24.8722 27.9366 24.8722L30.5944 24.8869H30.5964C30.5998 24.8869 30.7838 24.8843 30.8924 24.8799C30.9131 24.879 30.9483 24.8756 30.9713 24.8727C31.3256 24.8278 31.5679 24.7795 31.7327 24.724C31.7401 24.7216 31.7474 24.7191 31.7548 24.7162C31.8694 24.6758 31.9437 24.6308 31.9917 24.5812C32.0822 24.487 32.1869 24.3715 32.2026 24.2229C32.2031 24.2169 32.2036 24.2116 32.2041 24.2057C32.2041 24.2023 32.2041 24.1984 32.2045 24.1949C32.2045 24.1867 32.2045 24.1789 32.2045 24.1706C32.2045 24.1697 32.2045 24.1682 32.2045 24.1672C32.2045 24.1598 32.2036 24.1525 32.2026 24.1457C32.1992 24.116 32.1923 24.0936 32.1845 24.0755C32.1845 24.0755 32.1845 24.0755 32.1845 24.0751C32.1845 24.0746 32.184 24.0741 32.1835 24.0736C32.1811 24.0678 32.1782 24.0629 32.1751 24.058C32.1732 24.055 32.1717 24.0521 32.1693 24.0492C32.1541 24.0283 32.1394 24.0205 32.1375 24.0194C32.1302 24.0152 32.1223 24.0112 32.114 24.0083L30.8798 23.6372C30.8005 23.6129 30.7315 23.5641 30.6825 23.4979L30.3512 23.0093C30.3351 22.9753 30.3424 22.9342 30.3693 22.908L31.0149 22.2736C31.0369 22.2526 31.054 22.2269 31.0653 22.1986L33.0537 17.5236C33.1466 17.2268 33.1158 16.8928 33.0537 16.5398C33.0076 16.2789 32.3377 15.1581 32.1625 14.8485C32.0082 14.5755 31.0472 12.8999 30.8191 12.503C30.7932 12.4582 30.7594 12.4182 30.7168 12.3889C30.6864 12.368 30.6566 12.3412 30.6321 12.3129C30.6077 12.2846 30.5901 12.2515 30.5802 12.2154L30.5044 11.0516C30.4975 11.0263 30.5151 11.0009 30.5416 10.999L30.8876 10.9702C30.9204 10.9673 30.9498 10.9483 30.965 10.9195L32.163 8.6754C32.1796 8.6447 32.1787 8.60715 32.1606 8.57741L31.9153 8.27466C31.8987 8.24687 31.8982 8.21177 31.9143 8.18349L32.2813 7.78809C32.2965 7.7608 32.3308 7.75153 32.3582 7.76664L33.3341 8.31511C33.3932 8.34827 33.4603 8.36778 33.5283 8.36778C33.799 8.36582 34.2448 8.2064 34.4767 8.06501C34.5379 8.02747 34.5883 7.97433 34.6216 7.91096L35.1003 6.79597C35.1066 6.78183 35.1276 6.78379 35.1306 6.7989L35.2641 7.41904C35.273 7.45804 35.3073 7.47997 35.3464 7.4712L36.7558 7.1587C36.7931 7.1504 36.816 7.11384 36.8081 7.07679L36.4759 5.67708C36.4715 5.65807 36.4749 5.63808 36.4857 5.6215L36.6228 5.40943C36.6399 5.38311 36.6525 5.35434 36.6604 5.3246L36.8264 4.56942C36.8307 4.54991 36.8479 4.53577 36.8679 4.53577L40.7668 4.54064C40.8217 4.54064 40.8642 4.49872 40.8642 4.44364V3.78351C40.8642 3.77133 40.8745 3.76109 40.8867 3.76109H42.3901C42.4166 3.76109 42.4386 3.73963 42.4386 3.71282V3.41543C42.4386 3.3891 42.4171 3.36716 42.3901 3.36716H40.8862L40.8877 3.3696Z"
            fill="#E2E2E2" />
    </g>
    <defs>
        <clipPath id="clip0_1283_47889">
            <rect width="59" height="25" fill="white" />
        </clipPath>
    </defs>
</svg>
    