<svg width="17" height="20" viewBox="0 0 17 20" fill="none" xmlns="http://www.w3.org/2000/svg">
    <path
        d="M14.7361 3.73789C14.5412 2.9446 13.959 2.32515 13.1791 2.08167C12.3953 1.83657 11.5669 2.01538 10.9563 2.55687L9.98542 3.41505L14.6384 5.10855C14.8026 4.67711 14.8507 4.20404 14.7361 3.73789ZM9.37531 1.98144C9.2539 1.17367 8.7313 0.495899 7.97759 0.181116C7.22387 -0.134199 6.37987 -0.0333893 5.71918 0.449068C5.33205 0.732186 5.06501 1.13303 4.91369 1.56911L9.56728 3.26292L9.37531 1.98144ZM6.95702 9.59694V19.4625H8.09793V10.0122L6.95702 9.59694ZM0.682036 9.23243C0.366721 9.23243 0.111579 9.48757 0.111579 9.80289V17.7512C0.111579 18.6949 0.879246 19.4626 1.82295 19.4626H5.81611V9.23243H0.682036ZM9.23885 10.4275V19.4625H13.232C14.1757 19.4625 14.9434 18.6949 14.9434 17.7512V12.5037L9.23885 10.4275ZM7.34361 8.52338L8.90422 4.23528L9.97671 4.62564L8.41606 8.9137L7.34361 8.52338ZM15.8731 6.77179L11.0488 5.01595L9.48802 9.30405L15.3846 11.4502C15.4471 11.473 15.5131 11.4847 15.5796 11.4847C15.8124 11.4847 16.0313 11.341 16.1155 11.1092L16.8959 8.96501C17.2205 8.07438 16.7602 7.09505 15.8731 6.77179ZM3.00845 2.08951C2.12325 1.76575 1.14005 2.21951 0.814624 3.11231L0.0347178 5.25653C-0.0733524 5.55235 0.0793066 5.87994 0.375654 5.98744L6.27203 8.13352L7.83291 3.84543L3.00845 2.08951Z"
        fill="#E4E4E4" />
</svg>
    