<svg width="17" height="18" viewBox="0 0 17 18" fill="none" xmlns="http://www.w3.org/2000/svg">
    <path
        d="M1.70039 10.366H7.65039V17.2646H3.82539C3.14909 17.2646 2.50049 16.992 2.02227 16.5069C1.54405 16.0217 1.27539 15.3637 1.27539 14.6776V10.366C1.41654 10.3834 1.55924 10.3834 1.70039 10.366ZM15.7254 10.366V14.6776C15.7254 15.3637 15.4567 16.0217 14.9785 16.5069C14.5003 16.992 13.8517 17.2646 13.1754 17.2646H9.35039V10.366H15.3004C15.4415 10.3834 15.5842 10.3834 15.7254 10.366Z"
        fill="#717171" />
    <path
        d="M15.725 5.19189H1.275C0.570837 5.19189 0 5.771 0 6.48537V8.21001C0 8.92438 0.570837 9.50349 1.275 9.50349H15.725C16.4292 9.50349 17 8.92438 17 8.21001V6.48537C17 5.771 16.4292 5.19189 15.725 5.19189Z"
        fill="#717171" />
    <path
        d="M8.7124 6.05431H8.4999C8.36247 6.05166 8.22773 6.01525 8.10722 5.94819C7.98671 5.88113 7.88403 5.78542 7.80798 5.66926C7.73193 5.55311 7.68478 5.41998 7.67057 5.28128C7.65636 5.14259 7.67552 5.00247 7.7264 4.87293C8.0239 4.11409 8.2874 3.34663 8.5084 2.58779C8.7124 1.96692 9.4859 0.000829024 11.4664 0.000829024C12.2383 -0.0177036 12.9858 0.27512 13.5452 0.815062C14.1045 1.355 14.4299 2.09797 14.4499 2.88097C14.4499 4.69184 12.4184 5.46793 11.7469 5.68351C10.7583 5.95483 9.73623 6.07972 8.7124 6.05431ZM11.4494 1.74271C10.5994 1.74271 10.2254 2.7775 10.1234 3.09655C10.0214 3.41561 9.8769 3.88989 9.7324 4.29518C10.2154 4.27688 10.6946 4.20164 11.1604 4.07097C11.5599 3.92438 12.7499 3.46735 12.7499 2.88097C12.7238 2.55603 12.5728 2.25454 12.3295 2.04157C12.0862 1.82861 11.7701 1.72126 11.4494 1.74271Z"
        fill="#C8C8C8" />
    <path
        d="M8.2703 6.0544C7.26085 6.07212 6.25387 5.94732 5.2783 5.6836C2.9323 4.90751 2.5498 3.59678 2.5498 2.88968C2.55515 2.52357 2.63318 2.16231 2.77922 1.82747C2.92526 1.49263 3.13633 1.19108 3.3998 0.94084C3.97908 0.362894 4.75496 0.0326113 5.5673 0.018158C7.1143 0.018158 7.8708 1.44099 8.4318 2.4499C8.77962 3.25946 9.06384 4.09564 9.2818 4.95063C9.31856 5.07723 9.32618 5.21071 9.30408 5.34078C9.28197 5.47085 9.23073 5.59403 9.1543 5.70084C9.07862 5.80611 8.98042 5.8926 8.86706 5.95384C8.7537 6.01507 8.62814 6.04945 8.4998 6.0544H8.2703ZM5.4993 1.7428C5.15226 1.76335 4.82511 1.91394 4.5813 2.16533C4.3898 2.34525 4.27155 2.59132 4.2498 2.85519C4.2498 3.27773 4.8363 3.71751 5.8053 4.04519C6.30449 4.18627 6.8177 4.27015 7.3353 4.29526C7.23111 3.95192 7.10037 3.61745 6.9443 3.29497L7.6498 2.87244L6.9103 3.28635C6.4513 2.38954 6.0603 1.7428 5.5248 1.7428H5.4993Z"
        fill="#C8C8C8" />
</svg>
    