<svg xmlns="http://www.w3.org/2000/svg" width="106" height="106" viewBox="0 0 106 106" fill="none">
    <circle cx="53" cy="53" r="48.5" stroke="#BD52FD" stroke-opacity="0.03" stroke-width="9" />
    <mask id="path-2-inside-1_534_71589" fill="white">
        <path
            d="M93.6313 79.7459C95.6408 81.0686 98.3593 80.5195 99.5126 78.4082C102.272 73.3563 104.195 67.8797 105.197 62.1913C106.451 55.0703 106.234 47.768 104.561 40.7338C102.888 33.6995 99.7925 27.0821 95.4663 21.2886C91.14 15.4951 85.6741 10.6481 79.4048 7.0458C73.1354 3.44352 66.1953 1.16213 59.0114 0.342021C51.8275 -0.478092 44.5518 0.180413 37.6319 2.27702C30.712 4.37363 24.2942 7.86399 18.7735 12.5334C14.3635 16.2633 10.6004 20.6827 7.62555 25.611C6.38235 27.6705 7.27691 30.2958 9.43158 31.3657C11.5862 32.4356 14.1825 31.5422 15.4588 29.503C17.8832 25.6296 20.8972 22.1472 24.3994 19.185C29.0127 15.2831 34.3755 12.3665 40.158 10.6145C45.9404 8.86251 52.0202 8.31224 58.0233 8.99755C64.0264 9.68286 69.8257 11.5892 75.0645 14.5994C80.3034 17.6096 84.8709 21.6599 88.486 26.5011C92.1011 31.3423 94.6874 36.872 96.0858 42.75C97.4842 48.628 97.665 54.73 96.6172 60.6805C95.8217 65.198 94.3309 69.5556 92.2054 73.6007C91.0863 75.7303 91.6219 78.4232 93.6313 79.7459Z" />
    </mask>
    <path
        d="M93.6313 79.7459C95.6408 81.0686 98.3593 80.5195 99.5126 78.4082C102.272 73.3563 104.195 67.8797 105.197 62.1913C106.451 55.0703 106.234 47.768 104.561 40.7338C102.888 33.6995 99.7925 27.0821 95.4663 21.2886C91.14 15.4951 85.6741 10.6481 79.4048 7.0458C73.1354 3.44352 66.1953 1.16213 59.0114 0.342021C51.8275 -0.478092 44.5518 0.180413 37.6319 2.27702C30.712 4.37363 24.2942 7.86399 18.7735 12.5334C14.3635 16.2633 10.6004 20.6827 7.62555 25.611C6.38235 27.6705 7.27691 30.2958 9.43158 31.3657C11.5862 32.4356 14.1825 31.5422 15.4588 29.503C17.8832 25.6296 20.8972 22.1472 24.3994 19.185C29.0127 15.2831 34.3755 12.3665 40.158 10.6145C45.9404 8.86251 52.0202 8.31224 58.0233 8.99755C64.0264 9.68286 69.8257 11.5892 75.0645 14.5994C80.3034 17.6096 84.8709 21.6599 88.486 26.5011C92.1011 31.3423 94.6874 36.872 96.0858 42.75C97.4842 48.628 97.665 54.73 96.6172 60.6805C95.8217 65.198 94.3309 69.5556 92.2054 73.6007C91.0863 75.7303 91.6219 78.4232 93.6313 79.7459Z"
        stroke="url(#paint0_linear_587_34289)" stroke-width="14"
        mask="url(#path-2-inside-1_534_71589)" />
    <defs>
        <linearGradient id="paint0_linear_587_34289" x1="32.5" y1="-4" x2="92.5" y2="77"
            gradientUnits="userSpaceOnUse">
            <stop stop-color="#BD52FD" />
            <stop offset="1" stop-color="#BD52FD" stop-opacity="0" />
        </linearGradient>
    </defs>
</svg>