<svg width="54" height="54" viewBox="0 0 54 54" fill="none" xmlns="http://www.w3.org/2000/svg">
<g opacity="0.18" clip-path="url(#clip0_295_8138)">
<path d="M42.1875 20.25H40.5V13.5C40.5 6.05475 34.4452 0 27 0C19.5548 0 13.5 6.05475 13.5 13.5V20.25H11.8125C10.4704 20.2518 9.18376 20.7857 8.23474 21.7347C7.28573 22.6838 6.75179 23.9704 6.75 25.3125V48.9375C6.75 51.7298 9.0225 54 11.8125 54H42.1875C44.9775 54 47.25 51.7298 47.25 48.9375V25.3125C47.25 22.5203 44.9775 20.25 42.1875 20.25ZM18 13.5C18 8.5365 22.0365 4.5 27 4.5C31.9635 4.5 36 8.5365 36 13.5V20.25H18V13.5ZM29.25 37.6245V42.75C29.25 43.3467 29.0129 43.919 28.591 44.341C28.169 44.7629 27.5967 45 27 45C26.4033 45 25.831 44.7629 25.409 44.341C24.9871 43.919 24.75 43.3467 24.75 42.75V37.6245C23.4112 36.8438 22.5 35.4082 22.5 33.75C22.5 31.2682 24.5182 29.25 27 29.25C29.4818 29.25 31.5 31.2682 31.5 33.75C31.5 35.4082 30.5888 36.8438 29.25 37.6245Z" fill="white"/>
</g>
<defs>
<clipPath id="clip0_295_8138">
<rect width="54" height="54" fill="white"/>
</clipPath>
</defs>
</svg>
