<svg width="109" height="17" viewBox="0 0 109 17" fill="none" xmlns="http://www.w3.org/2000/svg">
<path d="M0 16.2372V0.487814H3.72448V8.90551L7.18986 0.496122H11.4846L11.7236 9.06693L15.409 0.496122H19.8339L12.5672 16.2372H8.28188L8.06301 7.48594L4.36219 16.2372H0Z" fill="#FDF74B"/>
<path d="M26.2027 0.487814V16.2372H22.2865V6.73343H19.3606L22.2404 0.487814H26.2027Z" fill="#FDF74B"/>
<path d="M48.9625 0.381002L46.9477 4.7489H42.8718V16.2514H38.7711L32.5632 6.47232V16.2514H28.6199V0.381002H32.6756L38.9273 10.1815V0.381002H48.9625Z" fill="#FDF74B"/>
<path d="M80.5886 4.09134C80.0065 2.78691 79.1061 1.7792 77.8887 1.06705C76.6701 0.356078 75.203 0 73.4851 0C71.7672 0 70.2954 0.359639 69.0709 1.07892C67.8463 1.7982 66.9424 2.81777 66.3591 4.13644C65.822 5.38034 65.5522 6.78804 65.5522 8.36191C65.5522 9.2616 65.6422 10.1043 65.822 10.8913C66.0006 11.6782 66.2621 12.3785 66.6064 12.9933C67.2027 14.1921 68.0889 15.1143 69.2613 15.7577C70.4338 16.4022 71.8417 16.725 73.4851 16.725C75.1285 16.725 76.6677 16.3725 77.8769 15.6686C79.0872 14.9636 79.984 13.9595 80.5661 12.6562C81.1186 11.4123 81.3955 9.98088 81.3955 8.36191C81.3955 6.74294 81.1269 5.36491 80.5886 4.09134ZM77.9928 8.58149C75.739 9.29839 74.5038 11.5987 73.9193 13.1191H73.4744V8.36309H68.9549V8.14351C71.2088 7.42779 72.4416 5.12872 73.0284 3.60589H73.4744V8.36309H77.9928V8.58149Z" fill="#FDF74B"/>
<path d="M96.8614 0.427328L90.9233 16.2977H86.8226L80.862 0.427328H85.1638L88.8611 11.3756L92.5808 0.427328H96.8614Z" fill="#FDF74B"/>
<path d="M97.6552 0.427328H108.142V3.75429H101.711V6.65395H108.075V9.8456H101.711V12.9708H108.142V16.2977H97.6552V0.427328Z" fill="#FDF74B"/>
<path d="M63.9492 0.534118L63.9504 16.2835H60.2247V7.86577L56.7593 16.2752H52.4646L52.2267 7.70435L48.5413 16.2752H44.1152L51.382 0.534118H55.6673L55.8862 9.28534L59.5882 0.534118H63.9492Z" fill="#FDF74B"/>
</svg>
