<svg width="207" height="60" viewBox="0 0 207 60" fill="none" xmlns="http://www.w3.org/2000/svg">
<mask id="mask0_295_10406" style="mask-type:alpha" maskUnits="userSpaceOnUse" x="0" y="0" width="207" height="60">
<rect width="207" height="60" rx="10" fill="#D9D9D9"/>
</mask>
<g mask="url(#mask0_295_10406)">
<rect x="0.5" y="0.5" width="206" height="59" rx="9.5" fill="#141517" stroke="#191A1C"/>
<g opacity="0.2">
<path d="M118.423 1.70546V2.33953C115.16 3.37518 113.373 6.69349 112.526 8.88584H111.237C110.393 6.69349 108.604 3.37518 105.344 2.33953V1.70546C108.606 0.673651 110.389 -2.64466 111.237 -4.84085H112.526C113.377 -2.64466 115.16 0.673651 118.423 1.70546Z" fill="black"/>
<path d="M118.423 66.3421V66.9762C115.16 68.0119 113.373 71.3302 112.526 73.5225H111.237C110.393 71.3302 108.604 68.0119 105.344 66.9762V66.3421C108.606 65.3103 110.389 61.992 111.237 59.7958H112.526C113.377 61.992 115.16 65.3103 118.423 66.3421Z" fill="black"/>
<path d="M191.528 17.8647V18.4988C188.265 19.5344 186.478 22.8527 185.631 25.0451H184.342C183.498 22.8527 181.709 19.5344 178.448 18.4988V17.8647C181.711 16.8329 183.494 13.5146 184.342 11.3184H185.631C186.482 13.5146 188.265 16.8329 191.528 17.8647Z" fill="black"/>
<path d="M45.319 17.8647V18.4988C42.0565 19.5344 40.2695 22.8527 39.4222 25.0451H38.1329C37.2894 22.8527 35.5005 19.5344 32.2399 18.4988V17.8647C35.5025 16.8329 37.2855 13.5146 38.1329 11.3184H39.4222C40.2734 13.5146 42.0565 16.8329 45.319 17.8647Z" fill="black"/>
<path d="M118.423 34.0238V34.6579C115.16 35.6936 113.373 39.0119 112.526 41.2042H111.237C110.393 39.0119 108.604 35.6936 105.344 34.6579V34.0238C108.606 32.992 110.389 29.6737 111.237 27.4775H112.526C113.377 29.6737 115.16 32.992 118.423 34.0238Z" fill="black"/>
<path d="M191.528 50.1831V50.8172C188.265 51.8528 186.478 55.1712 185.631 57.3635H184.342C183.498 55.1712 181.709 51.8528 178.448 50.8172V50.1831C181.711 49.1513 183.494 45.833 184.342 43.6368H185.631C186.482 45.833 188.265 49.1513 191.528 50.1831Z" fill="black"/>
<path d="M45.319 50.1831V50.8172C42.0565 51.8528 40.2695 55.1712 39.4222 57.3635H38.1329C37.2894 55.1712 35.5005 51.8528 32.2399 50.8172V50.1831C35.5025 49.1513 37.2855 45.833 38.1329 43.6368H39.4222C40.2734 45.833 42.0565 49.1513 45.319 50.1831Z" fill="black"/>
<path d="M110.3 50.1831V50.8172C107.038 51.8528 105.251 55.1712 104.403 57.3635H103.114C102.27 55.1712 100.482 51.8528 97.2209 50.8172V50.1831C100.484 49.1513 102.267 45.833 103.114 43.6368H104.403C105.254 45.833 107.038 49.1513 110.3 50.1831Z" fill="black"/>
<path d="M183.405 1.70546V2.33953C180.142 3.37518 178.355 6.69349 177.508 8.88584H176.219C175.375 6.69349 173.586 3.37518 170.326 2.33953V1.70546C173.588 0.673651 175.371 -2.64466 176.219 -4.84085H177.508C178.359 -2.64466 180.142 0.673651 183.405 1.70546Z" fill="black"/>
<path d="M183.405 66.3421V66.9762C180.142 68.0119 178.355 71.3302 177.508 73.5225H176.219C175.375 71.3302 173.586 68.0119 170.326 66.9762V66.3421C173.588 65.3103 175.371 61.992 176.219 59.7958H177.508C178.359 61.992 180.142 65.3103 183.405 66.3421Z" fill="black"/>
<path d="M37.1959 1.70546V2.33953C33.9333 3.37518 32.1464 6.69349 31.2991 8.88584H30.0098C29.1663 6.69349 27.3774 3.37518 24.1168 2.33953V1.70546C27.3793 0.673651 29.1624 -2.64466 30.0098 -4.84085H31.2991C32.1503 -2.64466 33.9333 0.673651 37.1959 1.70546Z" fill="black"/>
<path d="M37.1959 66.3421V66.9762C33.9333 68.0119 32.1464 71.3302 31.2991 73.5225H30.0098C29.1663 71.3302 27.3774 68.0119 24.1168 66.9762V66.3421C27.3793 65.3103 29.1624 61.992 30.0098 59.7958H31.2991C32.1503 61.992 33.9333 65.3103 37.1959 66.3421Z" fill="black"/>
<path d="M110.3 17.8646V18.4987C107.038 19.5343 105.251 22.8526 104.403 25.045H103.114C102.27 22.8526 100.482 19.5343 97.2209 18.4987V17.8646C100.484 16.8328 102.267 13.5145 103.114 11.3183H104.403C105.254 13.5145 107.038 16.8328 110.3 17.8646Z" fill="black"/>
<path d="M183.405 34.0238V34.6578C180.142 35.6935 178.355 39.0118 177.508 41.2041H176.219C175.375 39.0118 173.586 35.6935 170.326 34.6578V34.0238C173.588 32.9919 175.371 29.6736 176.219 27.4774H177.508C178.359 29.6736 180.142 32.9919 183.405 34.0238Z" fill="black"/>
<path d="M37.1959 34.0238V34.6578C33.9333 35.6935 32.1464 39.0118 31.2991 41.2041H30.0098C29.1663 39.0118 27.3774 35.6935 24.1168 34.6578V34.0238C27.3793 32.9919 29.1624 29.6736 30.0098 27.4774H31.2991C32.1503 29.6736 33.9333 32.9919 37.1959 34.0238Z" fill="black"/>
<path d="M102.177 1.70546V2.33953C98.9144 3.37518 97.1275 6.69349 96.2801 8.88584H94.9909C94.1474 6.69349 92.3585 3.37518 89.0978 2.33953V1.70546C92.3604 0.673651 94.1435 -2.64466 94.9909 -4.84085H96.2801C97.1313 -2.64466 98.9144 0.673651 102.177 1.70546Z" fill="black"/>
<path d="M102.177 66.3421V66.9762C98.9144 68.0119 97.1275 71.3302 96.2801 73.5225H94.9909C94.1474 71.3302 92.3585 68.0119 89.0978 66.9762V66.3421C92.3604 65.3103 94.1435 61.992 94.9909 59.7958H96.2801C97.1313 61.992 98.9144 65.3103 102.177 66.3421Z" fill="black"/>
<path d="M175.282 17.8647V18.4988C172.02 19.5344 170.233 22.8527 169.385 25.0451H168.096C167.252 22.8527 165.464 19.5344 162.203 18.4988V17.8647C165.466 16.8329 167.249 13.5146 168.096 11.3184H169.385C170.236 13.5146 172.02 16.8329 175.282 17.8647Z" fill="black"/>
<path d="M29.0733 17.8647V18.4988C25.8107 19.5344 24.0237 22.8527 23.1764 25.0451H21.8871C21.0436 22.8527 19.2547 19.5344 15.9941 18.4988V17.8647C19.2567 16.8329 21.0398 13.5146 21.8871 11.3184H23.1764C24.0276 13.5146 25.8107 16.8329 29.0733 17.8647Z" fill="black"/>
<path d="M102.177 34.0238V34.6579C98.9144 35.6936 97.1275 39.0119 96.2801 41.2042H94.9909C94.1474 39.0119 92.3585 35.6936 89.0978 34.6579V34.0238C92.3604 32.992 94.1435 29.6737 94.9909 27.4775H96.2801C97.1313 29.6737 98.9144 32.992 102.177 34.0238Z" fill="black"/>
<path d="M175.282 50.1831V50.8172C172.02 51.8528 170.233 55.1712 169.385 57.3635H168.096C167.252 55.1712 165.464 51.8528 162.203 50.8172V50.1831C165.466 49.1513 167.249 45.833 168.096 43.6368H169.385C170.236 45.833 172.02 49.1513 175.282 50.1831Z" fill="black"/>
<path d="M29.0733 50.1831V50.8172C25.8107 51.8528 24.0237 55.1712 23.1764 57.3635H21.8871C21.0436 55.1712 19.2547 51.8528 15.9941 50.8172V50.1831C19.2567 49.1513 21.0398 45.833 21.8871 43.6368H23.1764C24.0276 45.833 25.8107 49.1513 29.0733 50.1831Z" fill="black"/>
<path d="M94.0546 50.1831V50.8172C90.792 51.8528 89.0051 55.1712 88.1577 57.3635H86.8684C86.0249 55.1712 84.2361 51.8528 80.9754 50.8172V50.1831C84.238 49.1513 86.0211 45.833 86.8684 43.6368H88.1577C89.0089 45.833 90.792 49.1513 94.0546 50.1831Z" fill="black"/>
<path d="M167.159 1.70546V2.33953C163.896 3.37518 162.109 6.69349 161.262 8.88584H159.973C159.129 6.69349 157.34 3.37518 154.08 2.33953V1.70546C157.342 0.673651 159.126 -2.64466 159.973 -4.84085H161.262C162.113 -2.64466 163.896 0.673651 167.159 1.70546Z" fill="black"/>
<path d="M167.159 66.3421V66.9762C163.896 68.0119 162.109 71.3302 161.262 73.5225H159.973C159.129 71.3302 157.34 68.0119 154.08 66.9762V66.3421C157.342 65.3103 159.126 61.992 159.973 59.7958H161.262C162.113 61.992 163.896 65.3103 167.159 66.3421Z" fill="black"/>
<path d="M20.9504 1.70546V2.33953C17.6878 3.37518 15.9009 6.69349 15.0535 8.88584H13.7642C12.9207 6.69349 11.1319 3.37518 7.87122 2.33953V1.70546C11.1338 0.673651 12.9169 -2.64466 13.7642 -4.84085H15.0535C15.9047 -2.64466 17.6878 0.673651 20.9504 1.70546Z" fill="black"/>
<path d="M20.9504 66.3421V66.9762C17.6878 68.0119 15.9009 71.3302 15.0535 73.5225H13.7642C12.9207 71.3302 11.1319 68.0119 7.87122 66.9762V66.3421C11.1338 65.3103 12.9169 61.992 13.7642 59.7958H15.0535C15.9047 61.992 17.6878 65.3103 20.9504 66.3421Z" fill="black"/>
<path d="M94.0546 17.8646V18.4987C90.792 19.5343 89.0051 22.8526 88.1577 25.045H86.8684C86.0249 22.8526 84.2361 19.5343 80.9754 18.4987V17.8646C84.238 16.8328 86.0211 13.5145 86.8684 11.3183H88.1577C89.0089 13.5145 90.792 16.8328 94.0546 17.8646Z" fill="black"/>
<path d="M167.159 34.0238V34.6578C163.896 35.6935 162.109 39.0118 161.262 41.2041H159.973C159.129 39.0118 157.34 35.6935 154.08 34.6578V34.0238C157.342 32.9919 159.126 29.6736 159.973 27.4774H161.262C162.113 29.6736 163.896 32.9919 167.159 34.0238Z" fill="black"/>
<path d="M20.9504 34.0238V34.6578C17.6878 35.6935 15.9009 39.0118 15.0535 41.2041H13.7642C12.9207 39.0118 11.1319 35.6935 7.87122 34.6578V34.0238C11.1338 32.9919 12.9169 29.6736 13.7642 27.4774H15.0535C15.9047 29.6736 17.6878 32.9919 20.9504 34.0238Z" fill="black"/>
<path d="M85.9315 1.70546V2.33953C82.6689 3.37518 80.8819 6.69349 80.0346 8.88584H78.7453C77.9018 6.69349 76.113 3.37518 72.8523 2.33953V1.70546C76.1149 0.673651 77.898 -2.64466 78.7453 -4.84085H80.0346C80.8858 -2.64466 82.6689 0.673651 85.9315 1.70546Z" fill="black"/>
<path d="M85.9315 66.3421V66.9762C82.6689 68.0119 80.8819 71.3302 80.0346 73.5225H78.7453C77.9018 71.3302 76.113 68.0119 72.8523 66.9762V66.3421C76.1149 65.3103 77.898 61.992 78.7453 59.7958H80.0346C80.8858 61.992 82.6689 65.3103 85.9315 66.3421Z" fill="black"/>
<path d="M159.036 17.8647V18.4988C155.774 19.5344 153.987 22.8527 153.139 25.0451H151.85C151.007 22.8527 149.218 19.5344 145.957 18.4988V17.8647C149.22 16.8329 151.003 13.5146 151.85 11.3184H153.139C153.991 13.5146 155.774 16.8329 159.036 17.8647Z" fill="black"/>
<path d="M12.8275 17.8647V18.4988C9.56494 19.5344 7.77801 22.8527 6.93066 25.0451H5.64138C4.79787 22.8527 3.00902 19.5344 -0.251648 18.4988V17.8647C3.01094 16.8329 4.79403 13.5146 5.64138 11.3184H6.93066C7.78185 13.5146 9.56494 16.8329 12.8275 17.8647Z" fill="black"/>
<path d="M85.9315 34.0238V34.6579C82.6689 35.6936 80.8819 39.0119 80.0346 41.2042H78.7453C77.9018 39.0119 76.113 35.6936 72.8523 34.6579V34.0238C76.1149 32.992 77.898 29.6737 78.7453 27.4775H80.0346C80.8858 29.6737 82.6689 32.992 85.9315 34.0238Z" fill="black"/>
<path d="M159.036 50.1831V50.8172C155.774 51.8528 153.987 55.1712 153.139 57.3635H151.85C151.007 55.1712 149.218 51.8528 145.957 50.8172V50.1831C149.22 49.1513 151.003 45.833 151.85 43.6368H153.139C153.991 45.833 155.774 49.1513 159.036 50.1831Z" fill="black"/>
<path d="M12.8275 50.1831V50.8172C9.56494 51.8528 7.77801 55.1712 6.93066 57.3635H5.64138C4.79787 55.1712 3.00902 51.8528 -0.251648 50.8172V50.1831C3.01094 49.1513 4.79403 45.833 5.64138 43.6368H6.93066C7.78185 45.833 9.56494 49.1513 12.8275 50.1831Z" fill="black"/>
<path d="M77.8093 50.1831V50.8172C74.5467 51.8528 72.7598 55.1712 71.9124 57.3635H70.6231C69.7796 55.1712 67.9908 51.8528 64.7301 50.8172V50.1831C67.9927 49.1513 69.7758 45.833 70.6231 43.6368H71.9124C72.7636 45.833 74.5467 49.1513 77.8093 50.1831Z" fill="black"/>
<path d="M150.914 1.70546V2.33953C147.651 3.37518 145.864 6.69349 145.017 8.88584H143.727C142.884 6.69349 141.095 3.37518 137.834 2.33953V1.70546C141.097 0.673651 142.88 -2.64466 143.727 -4.84085H145.017C145.868 -2.64466 147.651 0.673651 150.914 1.70546Z" fill="black"/>
<path d="M150.914 66.3421V66.9762C147.651 68.0119 145.864 71.3302 145.017 73.5225H143.727C142.884 71.3302 141.095 68.0119 137.834 66.9762V66.3421C141.097 65.3103 142.88 61.992 143.727 59.7958H145.017C145.868 61.992 147.651 65.3103 150.914 66.3421Z" fill="black"/>
<path d="M4.70484 1.70546V2.33953C1.44226 3.37518 -0.344675 6.69349 -1.19202 8.88584H-2.4813C-3.32481 6.69349 -5.11366 3.37518 -8.37433 2.33953V1.70546C-5.11174 0.673651 -3.32865 -2.64466 -2.4813 -4.84085H-1.19202C-0.340832 -2.64466 1.44226 0.673651 4.70484 1.70546Z" fill="black"/>
<path d="M4.70484 66.3421V66.9762C1.44226 68.0119 -0.344675 71.3302 -1.19202 73.5225H-2.4813C-3.32481 71.3302 -5.11366 68.0119 -8.37433 66.9762V66.3421C-5.11174 65.3103 -3.32865 61.992 -2.4813 59.7958H-1.19202C-0.340832 61.992 1.44226 65.3103 4.70484 66.3421Z" fill="black"/>
<path d="M77.8093 17.8646V18.4987C74.5467 19.5343 72.7598 22.8526 71.9124 25.045H70.6231C69.7796 22.8526 67.9908 19.5343 64.7301 18.4987V17.8646C67.9927 16.8328 69.7758 13.5145 70.6231 11.3183H71.9124C72.7636 13.5145 74.5467 16.8328 77.8093 17.8646Z" fill="black"/>
<path d="M150.914 34.0238V34.6578C147.651 35.6935 145.864 39.0118 145.017 41.2041H143.727C142.884 39.0118 141.095 35.6935 137.834 34.6578V34.0238C141.097 32.9919 142.88 29.6736 143.727 27.4774H145.017C145.868 29.6736 147.651 32.9919 150.914 34.0238Z" fill="black"/>
<path d="M4.70484 34.0238V34.6578C1.44226 35.6935 -0.344675 39.0118 -1.19202 41.2041H-2.4813C-3.32481 39.0118 -5.11366 35.6935 -8.37433 34.6578V34.0238C-5.11174 32.9919 -3.32865 29.6736 -2.4813 27.4774H-1.19202C-0.340832 29.6736 1.44226 32.9919 4.70484 34.0238Z" fill="black"/>
<path d="M134.669 1.70546V2.33953C131.406 3.37518 129.619 6.69349 128.772 8.88584H127.482C126.639 6.69349 124.85 3.37518 121.589 2.33953V1.70546C124.852 0.673651 126.635 -2.64466 127.482 -4.84085H128.772C129.623 -2.64466 131.406 0.673651 134.669 1.70546Z" fill="black"/>
<path d="M134.669 66.3421V66.9762C131.406 68.0119 129.619 71.3302 128.772 73.5225H127.482C126.639 71.3302 124.85 68.0119 121.589 66.9762V66.3421C124.852 65.3103 126.635 61.992 127.482 59.7958H128.772C129.623 61.992 131.406 65.3103 134.669 66.3421Z" fill="black"/>
<path d="M207.773 17.8647V18.4988C204.51 19.5344 202.723 22.8527 201.876 25.0451H200.587C199.743 22.8527 197.954 19.5344 194.694 18.4988V17.8647C197.956 16.8329 199.739 13.5146 200.587 11.3184H201.876C202.727 13.5146 204.51 16.8329 207.773 17.8647Z" fill="black"/>
<path d="M61.5642 17.8647V18.4988C58.3016 19.5344 56.5146 22.8527 55.6673 25.0451H54.378C53.5345 22.8527 51.7457 19.5344 48.485 18.4988V17.8647C51.7476 16.8329 53.5307 13.5146 54.378 11.3184H55.6673C56.5185 13.5146 58.3016 16.8329 61.5642 17.8647Z" fill="black"/>
<path d="M134.669 34.0238V34.6579C131.406 35.6936 129.619 39.0119 128.772 41.2042H127.482C126.639 39.0119 124.85 35.6936 121.589 34.6579V34.0238C124.852 32.992 126.635 29.6737 127.482 27.4775H128.772C129.623 29.6737 131.406 32.992 134.669 34.0238Z" fill="black"/>
<path d="M207.773 50.1831V50.8172C204.51 51.8528 202.723 55.1712 201.876 57.3635H200.587C199.743 55.1712 197.954 51.8528 194.694 50.8172V50.1831C197.956 49.1513 199.739 45.833 200.587 43.6368H201.876C202.727 45.833 204.51 49.1513 207.773 50.1831Z" fill="black"/>
<path d="M61.5642 50.1831V50.8172C58.3016 51.8528 56.5146 55.1712 55.6673 57.3635H54.378C53.5345 55.1712 51.7457 51.8528 48.485 50.8172V50.1831C51.7476 49.1513 53.5307 45.833 54.378 43.6368H55.6673C56.5185 45.833 58.3016 49.1513 61.5642 50.1831Z" fill="black"/>
<path d="M126.546 50.1831V50.8172C123.283 51.8528 121.496 55.1712 120.649 57.3635H119.36C118.516 55.1712 116.727 51.8528 113.466 50.8172V50.1831C116.729 49.1513 118.512 45.833 119.36 43.6368H120.649C121.5 45.833 123.283 49.1513 126.546 50.1831Z" fill="black"/>
<path d="M199.65 1.70546V2.33953C196.388 3.37518 194.601 6.69349 193.753 8.88584H192.464C191.62 6.69349 189.832 3.37518 186.571 2.33953V1.70546C189.834 0.673651 191.617 -2.64466 192.464 -4.84085H193.753C194.604 -2.64466 196.388 0.673651 199.65 1.70546Z" fill="black"/>
<path d="M199.65 66.3421V66.9762C196.388 68.0119 194.601 71.3302 193.753 73.5225H192.464C191.62 71.3302 189.832 68.0119 186.571 66.9762V66.3421C189.834 65.3103 191.617 61.992 192.464 59.7958H193.753C194.604 61.992 196.388 65.3103 199.65 66.3421Z" fill="black"/>
<path d="M53.4415 1.70546V2.33953C50.1789 3.37518 48.392 6.69349 47.5446 8.88584H46.2553C45.4118 6.69349 43.623 3.37518 40.3623 2.33953V1.70546C43.6249 0.673651 45.408 -2.64466 46.2553 -4.84085H47.5446C48.3958 -2.64466 50.1789 0.673651 53.4415 1.70546Z" fill="black"/>
<path d="M53.4415 66.3421V66.9762C50.1789 68.0119 48.392 71.3302 47.5446 73.5225H46.2553C45.4118 71.3302 43.623 68.0119 40.3623 66.9762V66.3421C43.6249 65.3103 45.408 61.992 46.2553 59.7958H47.5446C48.3958 61.992 50.1789 65.3103 53.4415 66.3421Z" fill="black"/>
<path d="M126.546 17.8646V18.4987C123.283 19.5343 121.496 22.8526 120.649 25.045H119.36C118.516 22.8526 116.727 19.5343 113.466 18.4987V17.8646C116.729 16.8328 118.512 13.5145 119.36 11.3183H120.649C121.5 13.5145 123.283 16.8328 126.546 17.8646Z" fill="black"/>
<path d="M199.65 34.0238V34.6578C196.388 35.6935 194.601 39.0118 193.753 41.2041H192.464C191.62 39.0118 189.832 35.6935 186.571 34.6578V34.0238C189.834 32.9919 191.617 29.6736 192.464 27.4774H193.753C194.604 29.6736 196.388 32.9919 199.65 34.0238Z" fill="black"/>
<path d="M53.4415 34.0238V34.6578C50.1789 35.6935 48.392 39.0118 47.5446 41.2041H46.2553C45.4118 39.0118 43.623 35.6935 40.3623 34.6578V34.0238C43.6249 32.9919 45.408 29.6736 46.2553 27.4774H47.5446C48.3958 29.6736 50.1789 32.9919 53.4415 34.0238Z" fill="black"/>
<path d="M142.791 50.1831V50.8172C139.528 51.8528 137.741 55.1712 136.894 57.3635H135.604C134.761 55.1712 132.972 51.8528 129.711 50.8172V50.1831C132.974 49.1513 134.757 45.833 135.604 43.6368H136.894C137.745 45.833 139.528 49.1513 142.791 50.1831Z" fill="black"/>
<path d="M215.895 1.70546V2.33953C212.633 3.37518 210.846 6.69349 209.999 8.88584H208.709C207.866 6.69349 206.077 3.37518 202.816 2.33953V1.70546C206.079 0.673651 207.862 -2.64466 208.709 -4.84085H209.999C210.85 -2.64466 212.633 0.673651 215.895 1.70546Z" fill="black"/>
<path d="M215.895 66.3421V66.9762C212.633 68.0119 210.846 71.3302 209.999 73.5225H208.709C207.866 71.3302 206.077 68.0119 202.816 66.9762V66.3421C206.079 65.3103 207.862 61.992 208.709 59.7958H209.999C210.85 61.992 212.633 65.3103 215.895 66.3421Z" fill="black"/>
<path d="M69.6862 1.70546V2.33953C66.4236 3.37518 64.6366 6.69349 63.7893 8.88584H62.5C61.6565 6.69349 59.8677 3.37518 56.607 2.33953V1.70546C59.8696 0.673651 61.6527 -2.64466 62.5 -4.84085H63.7893C64.6405 -2.64466 66.4236 0.673651 69.6862 1.70546Z" fill="black"/>
<path d="M69.6862 66.3421V66.9762C66.4236 68.0119 64.6366 71.3302 63.7893 73.5225H62.5C61.6565 71.3302 59.8677 68.0119 56.607 66.9762V66.3421C59.8696 65.3103 61.6527 61.992 62.5 59.7958H63.7893C64.6405 61.992 66.4236 65.3103 69.6862 66.3421Z" fill="black"/>
<path d="M142.791 17.8646V18.4987C139.528 19.5343 137.741 22.8526 136.894 25.045H135.604C134.761 22.8526 132.972 19.5343 129.711 18.4987V17.8646C132.974 16.8328 134.757 13.5145 135.604 11.3183H136.894C137.745 13.5145 139.528 16.8328 142.791 17.8646Z" fill="black"/>
<path d="M215.895 34.0238V34.6578C212.633 35.6935 210.846 39.0118 209.999 41.2041H208.709C207.866 39.0118 206.077 35.6935 202.816 34.6578V34.0238C206.079 32.9919 207.862 29.6736 208.709 27.4774H209.999C210.85 29.6736 212.633 32.9919 215.895 34.0238Z" fill="black"/>
<path d="M69.6862 34.0238V34.6578C66.4236 35.6935 64.6366 39.0118 63.7893 41.2041H62.5C61.6565 39.0118 59.8677 35.6935 56.607 34.6578V34.0238C59.8696 32.9919 61.6527 29.6736 62.5 27.4774H63.7893C64.6405 29.6736 66.4236 32.9919 69.6862 34.0238Z" fill="black"/>
</g>
<g opacity="0.5" filter="url(#filter0_f_295_10406)">
<ellipse cx="183.763" cy="95.204" rx="183.763" ry="95.204" transform="matrix(0.941227 -0.337774 0.493662 0.869654 -391 52.1404)" fill="#91E2FD"/>
</g>
<g opacity="0.5" filter="url(#filter1_f_295_10406)">
<ellipse cx="183.763" cy="95.204" rx="183.763" ry="95.204" transform="matrix(0.979291 0.202458 -0.0321161 0.999484 172.062 43.5056)" fill="#91E2FD"/>
</g>
</g>
<defs>
<filter id="filter0_f_295_10406" x="-500.318" y="-180.619" width="658.558" height="506.968" filterUnits="userSpaceOnUse" color-interpolation-filters="sRGB">
<feFlood flood-opacity="0" result="BackgroundImageFix"/>
<feBlend mode="normal" in="SourceGraphic" in2="BackgroundImageFix" result="shape"/>
<feGaussianBlur stdDeviation="75" result="effect1_foregroundBlur_295_10406"/>
</filter>
<filter id="filter1_f_295_10406" x="18.9774" y="-76.3322" width="659.967" height="504.394" filterUnits="userSpaceOnUse" color-interpolation-filters="sRGB">
<feFlood flood-opacity="0" result="BackgroundImageFix"/>
<feBlend mode="normal" in="SourceGraphic" in2="BackgroundImageFix" result="shape"/>
<feGaussianBlur stdDeviation="75" result="effect1_foregroundBlur_295_10406"/>
</filter>
</defs>
</svg>
