<svg width="26" height="23" viewBox="0 0 26 23" fill="none" xmlns="http://www.w3.org/2000/svg">
<path d="M16.3156 0.838867H2.81047C1.57411 0.838867 0.576172 1.81956 0.576172 3.03456V11.8173C0.576172 13.0322 1.57411 14.013 2.81047 14.013H3.55524V16.2087C3.55524 16.7375 4.11237 17.1204 4.65749 16.8528C4.67239 16.8381 4.70223 16.8381 4.71712 16.8235C8.81413 14.1235 7.89593 14.7255 8.81333 14.1301C8.93245 14.0569 9.06651 14.013 9.21546 14.013H16.3156C17.5519 14.013 18.5499 13.0322 18.5499 11.8173V3.03456C18.5499 1.81956 17.5519 0.838867 16.3156 0.838867ZM10.3574 9.62163H4.3C3.31825 9.62163 3.31423 8.15784 4.3 8.15784H10.3574C11.3392 8.15784 11.3432 9.62163 10.3574 9.62163ZM14.826 6.69404H4.3C3.31825 6.69404 3.31423 5.23025 4.3 5.23025H14.826C15.8078 5.23025 15.8118 6.69404 14.826 6.69404Z" fill="#A8A9AB"/>
<path d="M23.7633 6.69476H20.0395V11.818C20.0395 13.8381 18.3712 15.4775 16.3157 15.4775H9.43898L8.02393 16.3997V17.6732C8.02393 18.8881 9.02186 19.8689 10.2582 19.8689H17.5817L21.8567 22.6794C22.4402 22.9977 23.0185 22.6106 23.0185 22.0646V19.8689H23.7633C24.9997 19.8689 25.9976 18.8881 25.9976 17.6732V8.89046C25.9976 7.67551 24.9997 6.69476 23.7633 6.69476Z" fill="#A8A9AB"/>
</svg>
