<svg width="258" height="208" viewBox="0 0 258 208" fill="none" xmlns="http://www.w3.org/2000/svg">
<g filter="url(#filter0_d_295_8144)">
<mask id="mask0_295_8144" style="mask-type:alpha" maskUnits="userSpaceOnUse" x="4" y="0" width="250" height="200">
<rect x="4" width="250" height="200" rx="20" fill="url(#paint0_linear_295_8144)"/>
</mask>
<g mask="url(#mask0_295_8144)">
<g filter="url(#filter1_f_295_8144)">
<mask id="mask1_295_8144" style="mask-type:alpha" maskUnits="userSpaceOnUse" x="-79" y="-97" width="631" height="401">
<rect x="-78.5715" y="-97" width="630.143" height="401" rx="25" fill="url(#paint1_linear_295_8144)"/>
</mask>
<g mask="url(#mask1_295_8144)">
<path d="M192.113 515.232L325.103 382.236H260.341L351.277 185.878H335.531L184.511 515.384L192.113 515.232Z" fill="#191A1E"/>
<path d="M-8.45968 277.326L-20.63 310.115L-14.7337 316.012L-0.930904 278.398L1.72489 271.162L24.762 208.367L49.0295 232.635V132.976L46.2336 130.07L-7.42418 274.555L-8.45968 277.326Z" fill="#191A1E"/>
<path d="M-39.9155 60.2645L114.76 131.148V139.487L10.715 91.2994V125.624L-49.9965 64.9182L-39.9155 60.2645Z" fill="#191A1E"/>
<path d="M-59.7968 53.6068L-91.587 68.1832V76.5282L-55.2283 59.6859L-48.2356 56.4514L12.4576 28.3403V62.6523L82.9273 -7.81126L83.0065 -11.8437L-57.1044 52.3764L-59.7968 53.6068Z" fill="#191A1E"/>
<path d="M-175.799 59.6857L-42.8084 192.676V127.914L153.549 218.844V203.104L-175.957 52.0838L-175.799 59.6857Z" fill="#191A1E"/>
<path d="M71.4513 -122.125L130.701 37.3739L124.805 43.2703L85.3028 -64.3743L61.0353 -40.1068V-125.957L71.4513 -122.125Z" fill="#191A1E"/>
<path d="M-24.224 -218.618V-30.5381L21.57 -76.3322L96.1148 126.811L107.25 115.682L-18.9611 -224.1L-24.224 -218.618Z" fill="#191A1E"/>
<path d="M279.748 -308.226L146.751 -175.235H211.513L120.583 21.1221H136.323L287.343 -308.384L279.748 -308.226Z" fill="#191A1E"/>
<path d="M221.887 178.837L241.245 136.594H243.523L230.366 165.01H239.74L223.16 181.59L221.887 178.837Z" fill="#191A1E"/>
<path d="M220.072 184.27L224.049 192.95H226.327L221.728 183.022L220.845 181.109L213.164 164.535H222.539L203.296 145.286L202.194 145.268L219.73 183.533L220.072 184.27Z" fill="#191A1E"/>
<path d="M221.729 215.951L258.051 179.629H240.362L265.196 126.001H260.901L219.651 215.993L221.729 215.951Z" fill="#191A1E"/>
<path d="M172.073 148.423L215.631 132.239L217.245 133.853L187.843 144.64L194.476 151.268H171.025L172.073 148.423Z" fill="#191A1E"/>
<path d="M166.95 150.975L163.624 159.929L165.232 161.543L169.003 151.267L169.728 149.294L176.02 132.141L182.647 138.768V111.553L181.886 110.755L167.23 150.22L166.95 150.975Z" fill="#191A1E"/>
<path d="M145.716 174.554H197.083L184.578 162.043L240.063 141.686L237.024 138.646L144.223 173.117L145.716 174.554Z" fill="#191A1E"/>
<path d="M158.356 91.6885L200.605 111.053V113.331L172.183 100.168V109.542L155.603 92.9616L158.356 91.6885Z" fill="#191A1E"/>
<path d="M152.928 89.8732L144.242 93.8569V96.135L154.177 91.5361L156.084 90.6468L172.664 82.9718V92.3463L191.906 73.0979L191.931 71.9954L153.665 89.5382L152.928 89.8732Z" fill="#191A1E"/>
<path d="M121.248 91.5305L157.57 127.859V110.17L211.198 135.004V130.703L121.205 89.4595L121.248 91.5305Z" fill="#191A1E"/>
<path d="M188.775 41.881L204.953 85.4395L203.345 87.0476L192.558 57.6512L185.93 64.2785V40.8333L188.775 41.881Z" fill="#191A1E"/>
<path d="M186.217 36.7519L177.263 33.4321L175.655 35.0402L185.93 38.8107L187.904 39.5356L205.051 45.8278L198.43 52.4551H225.645L226.437 51.6937L186.978 37.0382L186.217 36.7519Z" fill="#191A1E"/>
<path d="M162.643 15.5241V66.8916L175.149 54.3862L195.512 109.865L198.551 106.826L164.081 14.0256L162.643 15.5241Z" fill="#191A1E"/>
<path d="M245.503 28.1635L226.145 70.4063H223.867L237.03 41.9906H227.655L244.23 25.4102L245.503 28.1635Z" fill="#191A1E"/>
<path d="M247.324 22.736L243.34 14.0499H241.062L245.661 23.9786L246.544 25.8913L254.225 42.4656H244.851L264.099 61.7139L265.196 61.7322L247.659 23.4669L247.324 22.736Z" fill="#191A1E"/>
<path d="M245.661 -8.9506L209.339 27.3715H227.028L202.194 81.005H206.488L247.738 -8.99323L245.661 -8.9506Z" fill="#191A1E"/>
<path d="M295.317 58.5768L251.758 74.7612L250.144 73.1531L279.546 62.3594L272.919 55.7321H296.364L295.317 58.5768Z" fill="#191A1E"/>
<path d="M321.674 32.4455H270.306L282.812 44.957L227.326 65.3139L230.366 68.3534L323.166 33.8831L321.674 32.4455Z" fill="#191A1E"/>
<path d="M281.173 170.248L290.127 173.574L291.735 171.96L281.459 168.189L279.486 167.464L262.339 161.172L268.966 154.545H241.745L240.953 155.312L280.412 169.968L281.173 170.248Z" fill="#191A1E"/>
</g>
<g opacity="0.5" filter="url(#filter2_f_295_8144)">
<ellipse cx="183.763" cy="95.204" rx="183.763" ry="95.204" transform="matrix(0.941227 -0.337774 0.493662 0.869654 -393 20.1404)" fill="#FDFAA8"/>
</g>
<g filter="url(#filter3_f_295_8144)">
<ellipse cx="188.366" cy="91.8851" rx="188.366" ry="91.8851" transform="matrix(0.987119 0.159989 -0.248342 0.968672 -98.4785 136.556)" fill="#101010"/>
</g>
<g opacity="0.3" filter="url(#filter4_f_295_8144)">
<ellipse cx="151.428" cy="81.0763" rx="151.428" ry="81.0763" transform="matrix(-0.995939 -0.0900304 -0.0815024 -0.996673 495.469 200.005)" fill="#FDF74B"/>
</g>
<path d="M277.997 97.2148V95.383L276.251 94.831C249.881 86.4973 235.165 59.5376 228.019 41.0967L227.4 39.5H225.688H214.809H213.097L212.478 41.0967C205.333 59.5376 190.616 86.4973 164.247 94.831L162.5 95.383V97.2148V102.547V104.378L164.245 104.93C190.617 113.289 205.359 140.252 212.478 158.661L213.096 160.259H214.809H225.688H227.402L228.02 158.661C235.139 140.252 249.88 113.289 276.253 104.93L277.997 104.378V102.547V97.2148Z" fill="url(#paint2_linear_295_8144)" stroke="url(#paint3_linear_295_8144)" stroke-width="5"/>
<path d="M275.498 99.8794V102.525C247.749 111.258 232.552 139.243 225.356 157.759H219.874V99.8794H275.498Z" fill="url(#paint4_linear_295_8144)"/>
<path d="M219.873 42V99.8795H165V97.1933C192.374 88.5051 207.345 60.5307 214.465 42H219.873Z" fill="url(#paint5_linear_295_8144)"/>
<g filter="url(#filter5_f_295_8144)">
<circle cx="231.147" cy="99.8796" r="16.537" fill="white"/>
</g>
</g>
</g>
</g>
<defs>
<filter id="filter0_d_295_8144" x="0" y="0" width="258" height="208" filterUnits="userSpaceOnUse" color-interpolation-filters="sRGB">
<feFlood flood-opacity="0" result="BackgroundImageFix"/>
<feColorMatrix in="SourceAlpha" type="matrix" values="0 0 0 0 0 0 0 0 0 0 0 0 0 0 0 0 0 0 127 0" result="hardAlpha"/>
<feOffset dy="4"/>
<feGaussianBlur stdDeviation="2"/>
<feComposite in2="hardAlpha" operator="out"/>
<feColorMatrix type="matrix" values="0 0 0 0 0 0 0 0 0 0 0 0 0 0 0 0 0 0 0.25 0"/>
<feBlend mode="normal" in2="BackgroundImageFix" result="effect1_dropShadow_295_8144"/>
<feBlend mode="normal" in="SourceGraphic" in2="effect1_dropShadow_295_8144" result="shape"/>
</filter>
<filter id="filter1_f_295_8144" x="-356.318" y="-101" width="911.889" height="454.695" filterUnits="userSpaceOnUse" color-interpolation-filters="sRGB">
<feFlood flood-opacity="0" result="BackgroundImageFix"/>
<feBlend mode="normal" in="SourceGraphic" in2="BackgroundImageFix" result="shape"/>
<feGaussianBlur stdDeviation="2" result="effect1_foregroundBlur_295_8144"/>
</filter>
<filter id="filter2_f_295_8144" x="-502.318" y="-212.619" width="658.558" height="506.968" filterUnits="userSpaceOnUse" color-interpolation-filters="sRGB">
<feFlood flood-opacity="0" result="BackgroundImageFix"/>
<feBlend mode="normal" in="SourceGraphic" in2="BackgroundImageFix" result="shape"/>
<feGaussianBlur stdDeviation="75" result="effect1_foregroundBlur_295_8144"/>
</filter>
<filter id="filter3_f_295_8144" x="-272.712" y="11.7035" width="674.708" height="487.991" filterUnits="userSpaceOnUse" color-interpolation-filters="sRGB">
<feFlood flood-opacity="0" result="BackgroundImageFix"/>
<feBlend mode="normal" in="SourceGraphic" in2="BackgroundImageFix" result="shape"/>
<feGaussianBlur stdDeviation="75" result="effect1_foregroundBlur_295_8144"/>
</filter>
<filter id="filter4_f_295_8144" x="96.0876" y="-67.3961" width="483.921" height="345.923" filterUnits="userSpaceOnUse" color-interpolation-filters="sRGB">
<feFlood flood-opacity="0" result="BackgroundImageFix"/>
<feBlend mode="normal" in="SourceGraphic" in2="BackgroundImageFix" result="shape"/>
<feGaussianBlur stdDeviation="45.5" result="effect1_foregroundBlur_295_8144"/>
</filter>
<filter id="filter5_f_295_8144" x="144.61" y="13.3426" width="173.074" height="173.074" filterUnits="userSpaceOnUse" color-interpolation-filters="sRGB">
<feFlood flood-opacity="0" result="BackgroundImageFix"/>
<feBlend mode="normal" in="SourceGraphic" in2="BackgroundImageFix" result="shape"/>
<feGaussianBlur stdDeviation="35" result="effect1_foregroundBlur_295_8144"/>
</filter>
<linearGradient id="paint0_linear_295_8144" x1="343.545" y1="-76" x2="-46.6453" y2="115.498" gradientUnits="userSpaceOnUse">
<stop stop-color="#2D2F36"/>
<stop offset="1"/>
</linearGradient>
<linearGradient id="paint1_linear_295_8144" x1="777.277" y1="-249.38" x2="-106.642" y2="295.98" gradientUnits="userSpaceOnUse">
<stop stop-color="#2D2F36"/>
<stop offset="1"/>
</linearGradient>
<linearGradient id="paint2_linear_295_8144" x1="220.249" y1="42" x2="275.497" y2="182.189" gradientUnits="userSpaceOnUse">
<stop stop-color="#FDF74B"/>
<stop offset="1" stop-color="#A09B05"/>
</linearGradient>
<linearGradient id="paint3_linear_295_8144" x1="260.839" y1="33.7315" x2="178.53" y2="150.994" gradientUnits="userSpaceOnUse">
<stop stop-color="#F7F147"/>
<stop offset="1" stop-color="#C4BF21"/>
</linearGradient>
<linearGradient id="paint4_linear_295_8144" x1="247.686" y1="99.8794" x2="247.686" y2="157.759" gradientUnits="userSpaceOnUse">
<stop stop-color="#FAF449"/>
<stop offset="1" stop-color="#FFFB73"/>
</linearGradient>
<linearGradient id="paint5_linear_295_8144" x1="192.436" y1="42" x2="192.436" y2="99.8795" gradientUnits="userSpaceOnUse">
<stop stop-color="#FAF449"/>
<stop offset="1" stop-color="#FFFB73"/>
</linearGradient>
</defs>
</svg>
