<svg width="378" height="225" viewBox="0 0 378 225" fill="none" xmlns="http://www.w3.org/2000/svg">
<g opacity="0.2">
<path d="M230.987 30.6842V32.2672C222.868 34.8527 218.422 43.1369 216.313 48.6101H213.105C211.006 43.1369 206.554 34.8527 198.44 32.2672V30.6842C206.559 28.1083 210.996 19.8241 213.105 14.3413H216.313C218.431 19.8241 222.868 28.1083 230.987 30.6842Z" fill="black"/>
<path d="M230.987 192.05V193.633C222.868 196.218 218.422 204.502 216.313 209.976H213.105C211.006 204.502 206.554 196.218 198.44 193.633V192.05C206.559 189.474 210.996 181.19 213.105 175.707H216.313C218.431 181.19 222.868 189.474 230.987 192.05Z" fill="black"/>
<path d="M49.0677 71.0259V72.6088C40.9488 75.1943 36.502 83.4785 34.3933 88.9517H31.185C29.0859 83.4785 24.6343 75.1943 16.5201 72.6088V71.0259C24.6391 68.4499 29.0763 60.1658 31.185 54.683H34.3933C36.5115 60.1658 40.9488 68.4499 49.0677 71.0259Z" fill="black"/>
<path d="M49.0677 232.391V233.974C40.9488 236.56 36.502 244.844 34.3933 250.317H31.185C29.0859 244.844 24.6343 236.56 16.5201 233.974V232.391C24.6391 229.815 29.0763 221.531 31.185 216.048H34.3933C36.5115 221.531 40.9488 229.815 49.0677 232.391Z" fill="black"/>
<path d="M230.987 111.367V112.95C222.868 115.536 218.422 123.82 216.313 129.293H213.105C211.006 123.82 206.554 115.536 198.44 112.95V111.367C206.559 108.792 210.996 100.507 213.105 95.0246H216.313C218.431 100.507 222.868 108.792 230.987 111.367Z" fill="black"/>
<path d="M49.0677 151.709V153.291C40.9488 155.877 36.502 164.161 34.3933 169.634H31.185C29.0859 164.161 24.6343 155.877 16.5201 153.291V151.709C24.6391 149.133 29.0763 140.848 31.185 135.366H34.3933C36.5115 140.848 40.9488 149.133 49.0677 151.709Z" fill="black"/>
<path d="M210.774 -9.65712V-8.07416C202.655 -5.48865 198.208 2.79552 196.1 8.26873H192.891C190.792 2.79552 186.341 -5.48865 178.227 -8.07416V-9.65712C186.346 -12.233 190.783 -20.5172 192.891 -26H196.1C198.218 -20.5172 202.655 -12.233 210.774 -9.65712Z" fill="black"/>
<path d="M210.774 151.709V153.291C202.655 155.877 198.208 164.161 196.1 169.634H192.891C190.792 164.161 186.341 155.877 178.227 153.291V151.709C186.346 149.133 190.783 140.848 192.891 135.366H196.1C198.218 140.848 202.655 149.133 210.774 151.709Z" fill="black"/>
<path d="M392.696 30.6842V32.2672C384.577 34.8527 380.13 43.1369 378.021 48.6101H374.813C372.714 43.1369 368.262 34.8527 360.148 32.2672V30.6842C368.267 28.1083 372.704 19.8241 374.813 14.3413H378.021C380.139 19.8241 384.577 28.1083 392.696 30.6842Z" fill="black"/>
<path d="M392.696 192.05V193.633C384.577 196.218 380.13 204.502 378.021 209.976H374.813C372.714 204.502 368.262 196.218 360.148 193.633V192.05C368.267 189.474 372.704 181.19 374.813 175.707H378.021C380.139 181.19 384.577 189.474 392.696 192.05Z" fill="black"/>
<path d="M28.8544 30.6842V32.2672C20.7354 34.8527 16.2886 43.1369 14.18 48.6101H10.9716C8.87254 43.1369 4.42097 34.8527 -3.69322 32.2672V30.6842C4.42575 28.1083 8.86298 19.8241 10.9716 14.3413H14.18C16.2982 19.8241 20.7354 28.1083 28.8544 30.6842Z" fill="black"/>
<path d="M28.8544 192.05V193.633C20.7354 196.218 16.2886 204.502 14.18 209.976H10.9716C8.87254 204.502 4.42097 196.218 -3.69322 193.633V192.05C4.42575 189.474 8.86298 181.19 10.9716 175.707H14.18C16.2982 181.19 20.7354 189.474 28.8544 192.05Z" fill="black"/>
<path d="M210.774 71.0255V72.6085C202.655 75.194 198.208 83.4782 196.1 88.9514H192.891C190.792 83.4782 186.341 75.194 178.227 72.6085V71.0255C186.346 68.4496 190.783 60.1655 192.891 54.6827H196.1C198.218 60.1655 202.655 68.4496 210.774 71.0255Z" fill="black"/>
<path d="M210.774 232.391V233.974C202.655 236.56 198.208 244.844 196.1 250.317H192.891C190.792 244.844 186.341 236.56 178.227 233.974V232.391C186.346 229.815 190.783 221.531 192.891 216.048H196.1C198.218 221.531 202.655 229.815 210.774 232.391Z" fill="black"/>
<path d="M392.696 111.367V112.95C384.577 115.536 380.13 123.82 378.021 129.293H374.813C372.714 123.82 368.262 115.536 360.148 112.95V111.367C368.267 108.791 372.704 100.507 374.813 95.0243H378.021C380.139 100.507 384.577 108.791 392.696 111.367Z" fill="black"/>
<path d="M28.8544 111.367V112.95C20.7354 115.536 16.2886 123.82 14.18 129.293H10.9716C8.87254 123.82 4.42097 115.536 -3.69322 112.95V111.367C4.42575 108.791 8.86298 100.507 10.9716 95.0243H14.18C16.2982 100.507 20.7354 108.791 28.8544 111.367Z" fill="black"/>
<path d="M190.56 30.6842V32.2672C182.441 34.8527 177.994 43.1369 175.885 48.6101H172.677C170.578 43.1369 166.126 34.8527 158.012 32.2672V30.6842C166.131 28.1083 170.568 19.8241 172.677 14.3413H175.885C178.004 19.8241 182.441 28.1083 190.56 30.6842Z" fill="black"/>
<path d="M190.56 192.05V193.633C182.441 196.218 177.994 204.502 175.885 209.976H172.677C170.578 204.502 166.126 196.218 158.012 193.633V192.05C166.131 189.474 170.568 181.19 172.677 175.707H175.885C178.004 181.19 182.441 189.474 190.56 192.05Z" fill="black"/>
<path d="M372.481 71.0259V72.6088C364.362 75.1943 359.915 83.4785 357.807 88.9517H354.598C352.499 83.4785 348.048 75.1943 339.934 72.6088V71.0259C348.053 68.4499 352.49 60.1658 354.598 54.683H357.807C359.925 60.1658 364.362 68.4499 372.481 71.0259Z" fill="black"/>
<path d="M372.481 232.391V233.974C364.362 236.56 359.915 244.844 357.807 250.317H354.598C352.499 244.844 348.048 236.56 339.934 233.974V232.391C348.053 229.815 352.49 221.531 354.598 216.048H357.807C359.925 221.531 364.362 229.815 372.481 232.391Z" fill="black"/>
<path d="M8.64 71.0259V72.6088C0.521029 75.1943 -3.92576 83.4785 -6.0344 88.9517H-9.24277C-11.3418 83.4785 -15.7934 75.1943 -23.9076 72.6088V71.0259C-15.7886 68.4499 -11.3514 60.1658 -9.24277 54.683H-6.0344C-3.91619 60.1658 0.521029 68.4499 8.64 71.0259Z" fill="black"/>
<path d="M8.64 232.391V233.974C0.521029 236.56 -3.92576 244.844 -6.0344 250.317H-9.24277C-11.3418 244.844 -15.7934 236.56 -23.9076 233.974V232.391C-15.7886 229.815 -11.3514 221.531 -9.24277 216.048H-6.0344C-3.91619 221.531 0.521029 229.815 8.64 232.391Z" fill="black"/>
<path d="M190.56 111.367V112.95C182.441 115.536 177.994 123.82 175.885 129.293H172.677C170.578 123.82 166.126 115.536 158.012 112.95V111.367C166.131 108.792 170.568 100.507 172.677 95.0246H175.885C178.004 100.507 182.441 108.792 190.56 111.367Z" fill="black"/>
<path d="M372.481 151.709V153.291C364.362 155.877 359.915 164.161 357.807 169.634H354.598C352.499 164.161 348.048 155.877 339.934 153.291V151.709C348.053 149.133 352.49 140.848 354.598 135.366H357.807C359.925 140.848 364.362 149.133 372.481 151.709Z" fill="black"/>
<path d="M8.64 151.709V153.291C0.521029 155.877 -3.92576 164.161 -6.0344 169.634H-9.24277C-11.3418 164.161 -15.7934 155.877 -23.9076 153.291V151.709C-15.7886 149.133 -11.3514 140.848 -9.24277 135.366H-6.0344C-3.91619 140.848 0.521029 149.133 8.64 151.709Z" fill="black"/>
<path d="M170.347 -9.65712V-8.07416C162.228 -5.48865 157.781 2.79552 155.673 8.26873H152.464C150.365 2.79552 145.914 -5.48865 137.799 -8.07416V-9.65712C145.918 -12.233 150.356 -20.5172 152.464 -26H155.673C157.791 -20.5172 162.228 -12.233 170.347 -9.65712Z" fill="black"/>
<path d="M170.347 151.709V153.291C162.228 155.877 157.781 164.161 155.673 169.634H152.464C150.365 164.161 145.914 155.877 137.799 153.291V151.709C145.918 149.133 150.356 140.848 152.464 135.366H155.673C157.791 140.848 162.228 149.133 170.347 151.709Z" fill="black"/>
<path d="M352.268 30.6842V32.2672C344.149 34.8527 339.702 43.1369 337.594 48.6101H334.385C332.286 43.1369 327.835 34.8527 319.72 32.2672V30.6842C327.839 28.1083 332.277 19.8241 334.385 14.3413H337.594C339.712 19.8241 344.149 28.1083 352.268 30.6842Z" fill="black"/>
<path d="M352.268 192.05V193.633C344.149 196.218 339.702 204.502 337.594 209.976H334.385C332.286 204.502 327.835 196.218 319.72 193.633V192.05C327.839 189.474 332.277 181.19 334.385 175.707H337.594C339.712 181.19 344.149 189.474 352.268 192.05Z" fill="black"/>
<path d="M170.347 71.0255V72.6085C162.228 75.194 157.781 83.4782 155.673 88.9514H152.464C150.365 83.4782 145.914 75.194 137.799 72.6085V71.0255C145.918 68.4496 150.356 60.1655 152.464 54.6827H155.673C157.791 60.1655 162.228 68.4496 170.347 71.0255Z" fill="black"/>
<path d="M170.347 232.391V233.974C162.228 236.56 157.781 244.844 155.673 250.317H152.464C150.365 244.844 145.914 236.56 137.799 233.974V232.391C145.918 229.815 150.356 221.531 152.464 216.048H155.673C157.791 221.531 162.228 229.815 170.347 232.391Z" fill="black"/>
<path d="M352.268 111.367V112.95C344.149 115.536 339.702 123.82 337.594 129.293H334.385C332.286 123.82 327.835 115.536 319.72 112.95V111.367C327.839 108.791 332.277 100.507 334.385 95.0243H337.594C339.712 100.507 344.149 108.791 352.268 111.367Z" fill="black"/>
<path d="M150.133 30.6842V32.2672C142.014 34.8527 137.567 43.1369 135.458 48.6101H132.25C130.151 43.1369 125.699 34.8527 117.585 32.2672V30.6842C125.704 28.1083 130.141 19.8241 132.25 14.3413H135.458C137.576 19.8241 142.014 28.1083 150.133 30.6842Z" fill="black"/>
<path d="M150.133 192.05V193.633C142.014 196.218 137.567 204.502 135.458 209.976H132.25C130.151 204.502 125.699 196.218 117.585 193.633V192.05C125.704 189.474 130.141 181.19 132.25 175.707H135.458C137.576 181.19 142.014 189.474 150.133 192.05Z" fill="black"/>
<path d="M332.054 71.0259V72.6088C323.935 75.1943 319.488 83.4785 317.38 88.9517H314.171C312.072 83.4785 307.621 75.1943 299.506 72.6088V71.0259C307.625 68.4499 312.063 60.1658 314.171 54.683H317.38C319.498 60.1658 323.935 68.4499 332.054 71.0259Z" fill="black"/>
<path d="M332.054 232.391V233.974C323.935 236.56 319.488 244.844 317.38 250.317H314.171C312.072 244.844 307.621 236.56 299.506 233.974V232.391C307.625 229.815 312.063 221.531 314.171 216.048H317.38C319.498 221.531 323.935 229.815 332.054 232.391Z" fill="black"/>
<path d="M150.133 111.367V112.95C142.014 115.536 137.567 123.82 135.458 129.293H132.25C130.151 123.82 125.699 115.536 117.585 112.95V111.367C125.704 108.792 130.141 100.507 132.25 95.0246H135.458C137.576 100.507 142.014 108.792 150.133 111.367Z" fill="black"/>
<path d="M332.054 151.709V153.291C323.935 155.877 319.488 164.161 317.38 169.634H314.171C312.072 164.161 307.621 155.877 299.506 153.291V151.709C307.625 149.133 312.063 140.848 314.171 135.366H317.38C319.498 140.848 323.935 149.133 332.054 151.709Z" fill="black"/>
<path d="M129.92 -9.65712V-8.07416C121.801 -5.48865 117.354 2.79552 115.246 8.26873H112.037C109.938 2.79552 105.487 -5.48865 97.3723 -8.07416V-9.65712C105.491 -12.233 109.929 -20.5172 112.037 -26H115.246C117.364 -20.5172 121.801 -12.233 129.92 -9.65712Z" fill="black"/>
<path d="M129.92 151.709V153.291C121.801 155.877 117.354 164.161 115.246 169.634H112.037C109.938 164.161 105.487 155.877 97.3723 153.291V151.709C105.491 149.133 109.929 140.848 112.037 135.366H115.246C117.364 140.848 121.801 149.133 129.92 151.709Z" fill="black"/>
<path d="M311.841 30.6842V32.2672C303.722 34.8527 299.275 43.1369 297.166 48.6101H293.958C291.859 43.1369 287.407 34.8527 279.293 32.2672V30.6842C287.412 28.1083 291.849 19.8241 293.958 14.3413H297.166C299.285 19.8241 303.722 28.1083 311.841 30.6842Z" fill="black"/>
<path d="M311.841 192.05V193.633C303.722 196.218 299.275 204.502 297.166 209.976H293.958C291.859 204.502 287.407 196.218 279.293 193.633V192.05C287.412 189.474 291.849 181.19 293.958 175.707H297.166C299.285 181.19 303.722 189.474 311.841 192.05Z" fill="black"/>
<path d="M129.92 71.0255V72.6085C121.801 75.194 117.354 83.4782 115.246 88.9514H112.037C109.938 83.4782 105.487 75.194 97.3723 72.6085V71.0255C105.491 68.4496 109.929 60.1655 112.037 54.6827H115.246C117.364 60.1655 121.801 68.4496 129.92 71.0255Z" fill="black"/>
<path d="M129.92 232.391V233.974C121.801 236.56 117.354 244.844 115.246 250.317H112.037C109.938 244.844 105.487 236.56 97.3723 233.974V232.391C105.491 229.815 109.929 221.531 112.037 216.048H115.246C117.364 221.531 121.801 229.815 129.92 232.391Z" fill="black"/>
<path d="M311.841 111.367V112.95C303.722 115.536 299.275 123.82 297.166 129.293H293.958C291.859 123.82 287.407 115.536 279.293 112.95V111.367C287.412 108.791 291.849 100.507 293.958 95.0243H297.166C299.285 100.507 303.722 108.791 311.841 111.367Z" fill="black"/>
<path d="M271.415 30.6842V32.2672C263.296 34.8527 258.849 43.1369 256.74 48.6101H253.532C251.433 43.1369 246.981 34.8527 238.867 32.2672V30.6842C246.986 28.1083 251.423 19.8241 253.532 14.3413H256.74C258.858 19.8241 263.296 28.1083 271.415 30.6842Z" fill="black"/>
<path d="M271.415 192.05V193.633C263.296 196.218 258.849 204.502 256.74 209.976H253.532C251.433 204.502 246.981 196.218 238.867 193.633V192.05C246.986 189.474 251.423 181.19 253.532 175.707H256.74C258.858 181.19 263.296 189.474 271.415 192.05Z" fill="black"/>
<path d="M89.4943 71.0259V72.6088C81.3753 75.1943 76.9285 83.4785 74.8199 88.9517H71.6115C69.5124 83.4785 65.0609 75.1943 56.9467 72.6088V71.0259C65.0656 68.4499 69.5029 60.1658 71.6115 54.683H74.8199C76.9381 60.1658 81.3753 68.4499 89.4943 71.0259Z" fill="black"/>
<path d="M89.4943 232.391V233.974C81.3753 236.56 76.9285 244.844 74.8199 250.317H71.6115C69.5124 244.844 65.0609 236.56 56.9467 233.974V232.391C65.0656 229.815 69.5029 221.531 71.6115 216.048H74.8199C76.9381 221.531 81.3753 229.815 89.4943 232.391Z" fill="black"/>
<path d="M271.415 111.367V112.95C263.296 115.536 258.849 123.82 256.74 129.293H253.532C251.433 123.82 246.981 115.536 238.867 112.95V111.367C246.986 108.792 251.423 100.507 253.532 95.0246H256.74C258.858 100.507 263.296 108.792 271.415 111.367Z" fill="black"/>
<path d="M89.4943 151.709V153.291C81.3753 155.877 76.9285 164.161 74.8199 169.634H71.6115C69.5124 164.161 65.0609 155.877 56.9467 153.291V151.709C65.0656 149.133 69.5029 140.848 71.6115 135.366H74.8199C76.9381 140.848 81.3753 149.133 89.4943 151.709Z" fill="black"/>
<path d="M251.201 -9.65712V-8.07416C243.082 -5.48865 238.635 2.79552 236.526 8.26873H233.318C231.219 2.79552 226.767 -5.48865 218.653 -8.07416V-9.65712C226.772 -12.233 231.209 -20.5172 233.318 -26H236.526C238.645 -20.5172 243.082 -12.233 251.201 -9.65712Z" fill="black"/>
<path d="M251.201 151.709V153.291C243.082 155.877 238.635 164.161 236.526 169.634H233.318C231.219 164.161 226.767 155.877 218.653 153.291V151.709C226.772 149.133 231.209 140.848 233.318 135.366H236.526C238.645 140.848 243.082 149.133 251.201 151.709Z" fill="black"/>
<path d="M69.2809 30.6842V32.2672C61.1619 34.8527 56.7152 43.1369 54.6065 48.6101H51.3981C49.2991 43.1369 44.8475 34.8527 36.7333 32.2672V30.6842C44.8523 28.1083 49.2895 19.8241 51.3981 14.3413H54.6065C56.7247 19.8241 61.1619 28.1083 69.2809 30.6842Z" fill="black"/>
<path d="M69.2809 192.05V193.633C61.1619 196.218 56.7152 204.502 54.6065 209.976H51.3981C49.2991 204.502 44.8475 196.218 36.7333 193.633V192.05C44.8523 189.474 49.2895 181.19 51.3981 175.707H54.6065C56.7247 181.19 61.1619 189.474 69.2809 192.05Z" fill="black"/>
<path d="M251.201 71.0255V72.6085C243.082 75.194 238.635 83.4782 236.526 88.9514H233.318C231.219 83.4782 226.767 75.194 218.653 72.6085V71.0255C226.772 68.4496 231.209 60.1655 233.318 54.6827H236.526C238.645 60.1655 243.082 68.4496 251.201 71.0255Z" fill="black"/>
<path d="M251.201 232.391V233.974C243.082 236.56 238.635 244.844 236.526 250.317H233.318C231.219 244.844 226.767 236.56 218.653 233.974V232.391C226.772 229.815 231.209 221.531 233.318 216.048H236.526C238.645 221.531 243.082 229.815 251.201 232.391Z" fill="black"/>
<path d="M69.2809 111.367V112.95C61.1619 115.536 56.7152 123.82 54.6065 129.293H51.3981C49.2991 123.82 44.8475 115.536 36.7333 112.95V111.367C44.8523 108.791 49.2895 100.507 51.3981 95.0243H54.6065C56.7247 100.507 61.1619 108.791 69.2809 111.367Z" fill="black"/>
<path d="M291.627 -9.65712V-8.07416C283.508 -5.48865 279.061 2.79552 276.953 8.26873H273.744C271.645 2.79552 267.194 -5.48865 259.079 -8.07416V-9.65712C267.198 -12.233 271.636 -20.5172 273.744 -26H276.953C279.071 -20.5172 283.508 -12.233 291.627 -9.65712Z" fill="black"/>
<path d="M291.627 151.709V153.291C283.508 155.877 279.061 164.161 276.953 169.634H273.744C271.645 164.161 267.194 155.877 259.079 153.291V151.709C267.198 149.133 271.636 140.848 273.744 135.366H276.953C279.071 140.848 283.508 149.133 291.627 151.709Z" fill="black"/>
<path d="M109.706 30.6842V32.2672C101.587 34.8527 97.1407 43.1369 95.032 48.6101H91.8237C89.7246 43.1369 85.273 34.8527 77.1588 32.2672V30.6842C85.2778 28.1083 89.715 19.8241 91.8237 14.3413H95.032C97.1502 19.8241 101.587 28.1083 109.706 30.6842Z" fill="black"/>
<path d="M109.706 192.05V193.633C101.587 196.218 97.1407 204.502 95.032 209.976H91.8237C89.7246 204.502 85.273 196.218 77.1588 193.633V192.05C85.2778 189.474 89.715 181.19 91.8237 175.707H95.032C97.1502 181.19 101.587 189.474 109.706 192.05Z" fill="black"/>
<path d="M291.627 71.0255V72.6085C283.508 75.194 279.061 83.4782 276.953 88.9514H273.744C271.645 83.4782 267.194 75.194 259.079 72.6085V71.0255C267.198 68.4496 271.636 60.1655 273.744 54.6827H276.953C279.071 60.1655 283.508 68.4496 291.627 71.0255Z" fill="black"/>
<path d="M291.627 232.391V233.974C283.508 236.56 279.061 244.844 276.953 250.317H273.744C271.645 244.844 267.194 236.56 259.079 233.974V232.391C267.198 229.815 271.636 221.531 273.744 216.048H276.953C279.071 221.531 283.508 229.815 291.627 232.391Z" fill="black"/>
<path d="M109.706 111.367V112.95C101.587 115.536 97.1407 123.82 95.032 129.293H91.8237C89.7246 123.82 85.273 115.536 77.1588 112.95V111.367C85.2778 108.791 89.715 100.507 91.8237 95.0243H95.032C97.1502 100.507 101.587 108.791 109.706 111.367Z" fill="black"/>
</g>
</svg>
