<svg width="426" height="201" viewBox="0 0 426 201" fill="none" xmlns="http://www.w3.org/2000/svg">
<mask id="mask0_295_6615" style="mask-type:alpha" maskUnits="userSpaceOnUse" x="0" y="0" width="426" height="201">
<rect y="0.45459" width="426" height="200" rx="20" fill="url(#paint0_linear_295_6615)"/>
</mask>
<g mask="url(#mask0_295_6615)">
<mask id="mask1_295_6615" style="mask-type:luminance" maskUnits="userSpaceOnUse" x="391" y="0" width="51" height="28">
<path d="M441.975 0.454529H391.145V27.3977H441.975V0.454529Z" fill="white"/>
</mask>
<g mask="url(#mask1_295_6615)">
<path d="M430.174 13.9277V14.4486C423.385 16.1622 419.664 21.6514 417.9 25.2815H416.56V13.9277H430.174Z" fill="#101010"/>
<path d="M416.56 2.56851V13.9278H402.947V13.4015C409.736 11.6933 413.449 6.20404 415.221 2.56851H416.56Z" fill="#101010"/>
<path d="M404.759 0.456039V0.97694C397.97 2.69053 394.25 8.17975 392.485 11.8099H391.146V0.456039H404.759Z" fill="#101010"/>
</g>
<mask id="mask2_295_6615" style="mask-type:luminance" maskUnits="userSpaceOnUse" x="391" y="27" width="51" height="28">
<path d="M441.975 27.3977H391.145V54.3408H441.975V27.3977Z" fill="white"/>
</mask>
<g mask="url(#mask2_295_6615)">
<path d="M430.173 40.8711V41.392C423.385 43.1056 419.664 48.5948 417.9 52.2249H416.56V40.8711H430.173Z" fill="#101010"/>
<path d="M416.56 29.5118V40.871H402.947V40.3447C409.735 38.6365 413.449 33.1473 415.221 29.5118H416.56Z" fill="#101010"/>
<path d="M404.759 27.3995V27.9204C397.97 29.634 394.25 35.1232 392.485 38.7534H391.146V27.3995H404.759Z" fill="#101010"/>
</g>
<mask id="mask3_295_6615" style="mask-type:luminance" maskUnits="userSpaceOnUse" x="391" y="54" width="51" height="28">
<path d="M441.975 54.3408H391.145V81.284H441.975V54.3408Z" fill="white"/>
</mask>
<g mask="url(#mask3_295_6615)">
<path d="M430.173 67.8142V68.3351C423.385 70.0487 419.664 75.5379 417.9 79.1681H416.56V67.8142H430.173Z" fill="#101010"/>
<path d="M416.56 56.4549V67.8141H402.947V67.2879C409.735 65.5797 413.449 60.0904 415.221 56.4549H416.56Z" fill="#101010"/>
<path d="M404.759 54.3424V54.8633C397.97 56.5769 394.25 62.0661 392.485 65.6963H391.146V54.3424H404.759Z" fill="#101010"/>
</g>
<mask id="mask4_295_6615" style="mask-type:luminance" maskUnits="userSpaceOnUse" x="391" y="81" width="51" height="28">
<path d="M441.975 81.2839H391.145V108.227H441.975V81.2839Z" fill="white"/>
</mask>
<g mask="url(#mask4_295_6615)">
<path d="M430.173 94.7572V95.2781C423.385 96.9917 419.664 102.481 417.9 106.111H416.56V94.7572H430.173Z" fill="#101010"/>
<path d="M416.56 83.3981V94.7574H402.947V94.2311C409.735 92.5229 413.449 87.0337 415.221 83.3981H416.56Z" fill="#101010"/>
<path d="M404.759 81.2858V81.8067C397.97 83.5203 394.25 89.0095 392.485 92.6396H391.146V81.2858H404.759Z" fill="#101010"/>
</g>
<mask id="mask5_295_6615" style="mask-type:luminance" maskUnits="userSpaceOnUse" x="391" y="108" width="51" height="28">
<path d="M441.975 108.227H391.145V135.17H441.975V108.227Z" fill="white"/>
</mask>
<g mask="url(#mask5_295_6615)">
<path d="M430.173 121.701V122.221C423.385 123.935 419.664 129.424 417.9 133.054H416.56V121.701H430.173Z" fill="#101010"/>
<path d="M416.56 110.341V121.7H402.947V121.174C409.735 119.466 413.449 113.977 415.221 110.341H416.56Z" fill="#101010"/>
<path d="M404.759 108.229V108.75C397.97 110.463 394.25 115.953 392.485 119.583H391.146V108.229H404.759Z" fill="#101010"/>
</g>
<mask id="mask6_295_6615" style="mask-type:luminance" maskUnits="userSpaceOnUse" x="391" y="135" width="51" height="28">
<path d="M441.975 135.171H391.145V162.114H441.975V135.171Z" fill="white"/>
</mask>
<g mask="url(#mask6_295_6615)">
<path d="M430.173 148.644V149.165C423.385 150.879 419.664 156.368 417.9 159.998H416.56V148.644H430.173Z" fill="#101010"/>
<path d="M416.56 137.285V148.644H402.947V148.118C409.735 146.409 413.449 140.92 415.221 137.285H416.56Z" fill="#101010"/>
<path d="M404.759 135.172V135.693C397.97 137.407 394.25 142.896 392.485 146.526H391.146V135.172H404.759Z" fill="#101010"/>
</g>
<mask id="mask7_295_6615" style="mask-type:luminance" maskUnits="userSpaceOnUse" x="391" y="162" width="51" height="28">
<path d="M441.975 162.114H391.145V189.057H441.975V162.114Z" fill="white"/>
</mask>
<g mask="url(#mask7_295_6615)">
<path d="M430.173 175.587V176.108C423.385 177.821 419.664 183.311 417.9 186.941H416.56V175.587H430.173Z" fill="#101010"/>
<path d="M416.56 164.228V175.587H402.947V175.061C409.735 173.353 413.449 167.863 415.221 164.228H416.56Z" fill="#101010"/>
<path d="M404.759 162.116V162.636C397.97 164.35 394.25 169.839 392.485 173.469H391.146V162.116H404.759Z" fill="#101010"/>
</g>
<mask id="mask8_295_6615" style="mask-type:luminance" maskUnits="userSpaceOnUse" x="391" y="189" width="51" height="27">
<path d="M441.975 189.057H391.145V216H441.975V189.057Z" fill="white"/>
</mask>
<g mask="url(#mask8_295_6615)">
<path d="M416.56 191.171V202.53H402.947V202.004C409.735 200.296 413.449 194.806 415.221 191.171H416.56Z" fill="#101010"/>
<path d="M404.759 189.059V189.579C397.97 191.293 394.25 196.782 392.485 200.412H391.146V189.059H404.759Z" fill="#101010"/>
</g>
<mask id="mask9_295_6615" style="mask-type:luminance" maskUnits="userSpaceOnUse" x="340" y="0" width="52" height="28">
<path d="M391.145 0.454529H340.316V27.3977H391.145V0.454529Z" fill="white"/>
</mask>
<g mask="url(#mask9_295_6615)">
<path d="M391.145 16.0401V27.3993H377.532V26.873C384.321 25.1648 388.035 19.6756 389.806 16.0401H391.145Z" fill="#101010"/>
<path d="M391.145 -10.9031V0.456157H377.532V-0.0701332C384.321 -1.77833 388.035 -7.26755 389.806 -10.9031H391.145Z" fill="#101010"/>
<path d="M379.344 13.9277V14.4486C372.555 16.1622 368.835 21.6514 367.07 25.2815H365.731V13.9277H379.344Z" fill="#101010"/>
<path d="M365.731 2.56851V13.9278H352.118V13.4015C358.906 11.6933 362.62 6.20404 364.391 2.56851H365.731Z" fill="#101010"/>
<path d="M353.929 0.456039V0.97694C347.141 2.69053 343.42 8.17975 341.655 11.8099H340.316V0.456039H353.929Z" fill="#101010"/>
</g>
<mask id="mask10_295_6615" style="mask-type:luminance" maskUnits="userSpaceOnUse" x="340" y="27" width="52" height="28">
<path d="M391.145 27.3977H340.316V54.3408H391.145V27.3977Z" fill="white"/>
</mask>
<g mask="url(#mask10_295_6615)">
<path d="M391.145 42.9835V54.3427H377.532V53.8164C384.321 52.1082 388.035 46.619 389.806 42.9835H391.145Z" fill="#101010"/>
<path d="M391.145 16.0403V27.3995H377.532V26.8732C384.321 25.165 388.035 19.6758 389.806 16.0403H391.145Z" fill="#101010"/>
<path d="M379.344 40.8711V41.392C372.555 43.1056 368.835 48.5948 367.07 52.2249H365.731V40.8711H379.344Z" fill="#101010"/>
<path d="M365.731 29.5118V40.871H352.118V40.3447C358.906 38.6365 362.62 33.1473 364.391 29.5118H365.731Z" fill="#101010"/>
<path d="M353.929 27.3995V27.9204C347.141 29.634 343.42 35.1232 341.655 38.7534H340.316V27.3995H353.929Z" fill="#101010"/>
</g>
<mask id="mask11_295_6615" style="mask-type:luminance" maskUnits="userSpaceOnUse" x="340" y="54" width="52" height="28">
<path d="M391.145 54.3408H340.316V81.284H391.145V54.3408Z" fill="white"/>
</mask>
<g mask="url(#mask11_295_6615)">
<path d="M391.145 69.9265V81.2857H377.532V80.7594C384.321 79.0512 388.035 73.562 389.806 69.9265H391.145Z" fill="#101010"/>
<path d="M391.145 42.9833V54.3425H377.532V53.8162C384.321 52.108 388.035 46.6188 389.806 42.9833H391.145Z" fill="#101010"/>
<path d="M379.344 67.8142V68.3351C372.555 70.0487 368.835 75.5379 367.07 79.1681H365.731V67.8142H379.344Z" fill="#101010"/>
<path d="M365.731 56.4549V67.8141H352.118V67.2879C358.906 65.5797 362.62 60.0904 364.391 56.4549H365.731Z" fill="#101010"/>
<path d="M353.929 54.3424V54.8633C347.141 56.5769 343.42 62.0661 341.655 65.6963H340.316V54.3424H353.929Z" fill="#101010"/>
</g>
<mask id="mask12_295_6615" style="mask-type:luminance" maskUnits="userSpaceOnUse" x="340" y="81" width="52" height="28">
<path d="M391.145 81.2839H340.316V108.227H391.145V81.2839Z" fill="white"/>
</mask>
<g mask="url(#mask12_295_6615)">
<path d="M391.145 96.8698V108.229H377.532V107.703C384.321 105.995 388.035 100.505 389.806 96.8698H391.145Z" fill="#101010"/>
<path d="M391.145 69.9265V81.2857H377.532V80.7594C384.321 79.0512 388.035 73.562 389.806 69.9265H391.145Z" fill="#101010"/>
<path d="M379.344 94.7572V95.2781C372.555 96.9917 368.835 102.481 367.07 106.111H365.731V94.7572H379.344Z" fill="#101010"/>
<path d="M365.731 83.3981V94.7574H352.118V94.2311C358.906 92.5229 362.62 87.0337 364.391 83.3981H365.731Z" fill="#101010"/>
<path d="M353.929 81.2858V81.8067C347.141 83.5203 343.42 89.0095 341.655 92.6396H340.316V81.2858H353.929Z" fill="#101010"/>
</g>
<mask id="mask13_295_6615" style="mask-type:luminance" maskUnits="userSpaceOnUse" x="340" y="108" width="52" height="28">
<path d="M391.145 108.227H340.316V135.17H391.145V108.227Z" fill="white"/>
</mask>
<g mask="url(#mask13_295_6615)">
<path d="M391.145 123.813V135.172H377.532V134.646C384.321 132.938 388.035 127.448 389.806 123.813H391.145Z" fill="#101010"/>
<path d="M391.145 96.8698V108.229H377.532V107.703C384.321 105.995 388.035 100.505 389.806 96.8698H391.145Z" fill="#101010"/>
<path d="M379.344 121.701V122.221C372.555 123.935 368.835 129.424 367.07 133.054H365.731V121.701H379.344Z" fill="#101010"/>
<path d="M365.731 110.341V121.7H352.118V121.174C358.906 119.466 362.62 113.977 364.391 110.341H365.731Z" fill="#101010"/>
<path d="M353.929 108.229V108.75C347.141 110.463 343.42 115.953 341.655 119.583H340.316V108.229H353.929Z" fill="#101010"/>
</g>
<mask id="mask14_295_6615" style="mask-type:luminance" maskUnits="userSpaceOnUse" x="340" y="135" width="52" height="28">
<path d="M391.145 135.171H340.316V162.114H391.145V135.171Z" fill="white"/>
</mask>
<g mask="url(#mask14_295_6615)">
<path d="M391.145 150.757V162.116H377.532V161.589C384.321 159.881 388.035 154.392 389.806 150.757H391.145Z" fill="#101010"/>
<path d="M391.145 123.813V135.173H377.532V134.646C384.321 132.938 388.035 127.449 389.806 123.813H391.145Z" fill="#101010"/>
<path d="M379.344 148.644V149.165C372.555 150.879 368.835 156.368 367.07 159.998H365.731V148.644H379.344Z" fill="#101010"/>
<path d="M365.731 137.285V148.644H352.118V148.118C358.906 146.409 362.62 140.92 364.391 137.285H365.731Z" fill="#101010"/>
<path d="M353.929 135.172V135.693C347.141 137.407 343.42 142.896 341.655 146.526H340.316V135.172H353.929Z" fill="#101010"/>
</g>
<mask id="mask15_295_6615" style="mask-type:luminance" maskUnits="userSpaceOnUse" x="340" y="162" width="52" height="28">
<path d="M391.145 162.114H340.316V189.057H391.145V162.114Z" fill="white"/>
</mask>
<g mask="url(#mask15_295_6615)">
<path d="M391.145 177.699V189.059H377.532V188.532C384.321 186.824 388.035 181.335 389.806 177.699H391.145Z" fill="#101010"/>
<path d="M391.145 150.756V162.116H377.532V161.589C384.321 159.881 388.035 154.392 389.806 150.756H391.145Z" fill="#101010"/>
<path d="M379.344 175.587V176.108C372.555 177.821 368.835 183.311 367.07 186.941H365.731V175.587H379.344Z" fill="#101010"/>
<path d="M365.731 164.228V175.587H352.118V175.061C358.906 173.353 362.62 167.863 364.391 164.228H365.731Z" fill="#101010"/>
<path d="M353.929 162.116V162.636C347.141 164.35 343.42 169.839 341.655 173.469H340.316V162.116H353.929Z" fill="#101010"/>
</g>
<mask id="mask16_295_6615" style="mask-type:luminance" maskUnits="userSpaceOnUse" x="340" y="189" width="52" height="27">
<path d="M391.145 189.057H340.316V216H391.145V189.057Z" fill="white"/>
</mask>
<g mask="url(#mask16_295_6615)">
<path d="M391.145 177.699V189.059H377.532V188.532C384.321 186.824 388.035 181.335 389.806 177.699H391.145Z" fill="#101010"/>
<path d="M365.731 191.171V202.53H352.118V202.004C358.906 200.296 362.62 194.806 364.391 191.171H365.731Z" fill="#101010"/>
<path d="M353.929 189.059V189.579C347.141 191.293 343.42 196.782 341.655 200.412H340.316V189.059H353.929Z" fill="#101010"/>
</g>
<mask id="mask17_295_6615" style="mask-type:luminance" maskUnits="userSpaceOnUse" x="289" y="0" width="52" height="28">
<path d="M340.316 0.454529H289.487V27.3977H340.316V0.454529Z" fill="white"/>
</mask>
<g mask="url(#mask17_295_6615)">
<path d="M340.316 16.0401V27.3993H326.703V26.873C333.491 25.1648 337.205 19.6756 338.977 16.0401H340.316Z" fill="#101010"/>
<path d="M340.316 -10.9031V0.456157H326.703V-0.0701332C333.491 -1.77833 337.205 -7.26755 338.976 -10.9031H340.316Z" fill="#101010"/>
<path d="M328.515 13.9277V14.4486C321.726 16.1622 318.005 21.6514 316.241 25.2815H314.901V13.9277H328.515Z" fill="#101010"/>
<path d="M314.901 2.56851V13.9278H301.288V13.4015C308.076 11.6933 311.79 6.20404 313.561 2.56851H314.901Z" fill="#101010"/>
<path d="M303.1 0.456039V0.97694C296.311 2.69053 292.591 8.17975 290.826 11.8099H289.487V0.456039H303.1Z" fill="#101010"/>
</g>
<mask id="mask18_295_6615" style="mask-type:luminance" maskUnits="userSpaceOnUse" x="289" y="27" width="52" height="28">
<path d="M340.316 27.3977H289.486V54.3408H340.316V27.3977Z" fill="white"/>
</mask>
<g mask="url(#mask18_295_6615)">
<path d="M340.316 42.9835V54.3427H326.703V53.8164C333.491 52.1082 337.205 46.619 338.976 42.9835H340.316Z" fill="#101010"/>
<path d="M340.316 16.0403V27.3995H326.703V26.8732C333.491 25.165 337.205 19.6758 338.976 16.0403H340.316Z" fill="#101010"/>
<path d="M328.515 40.8711V41.392C321.726 43.1056 318.005 48.5948 316.241 52.2249H314.901V40.8711H328.515Z" fill="#101010"/>
<path d="M314.901 29.5118V40.871H301.288V40.3447C308.076 38.6365 311.79 33.1473 313.561 29.5118H314.901Z" fill="#101010"/>
<path d="M303.1 27.3995V27.9204C296.311 29.634 292.59 35.1232 290.826 38.7534H289.486V27.3995H303.1Z" fill="#101010"/>
</g>
<mask id="mask19_295_6615" style="mask-type:luminance" maskUnits="userSpaceOnUse" x="289" y="54" width="52" height="28">
<path d="M340.316 54.3408H289.486V81.284H340.316V54.3408Z" fill="white"/>
</mask>
<g mask="url(#mask19_295_6615)">
<path d="M340.316 69.9265V81.2857H326.703V80.7594C333.491 79.0512 337.205 73.562 338.976 69.9265H340.316Z" fill="#101010"/>
<path d="M340.316 42.9833V54.3425H326.703V53.8162C333.491 52.108 337.205 46.6188 338.976 42.9833H340.316Z" fill="#101010"/>
<path d="M328.515 67.8142V68.3351C321.726 70.0487 318.005 75.5379 316.241 79.1681H314.901V67.8142H328.515Z" fill="#101010"/>
<path d="M314.901 56.4549V67.8141H301.288V67.2879C308.076 65.5797 311.79 60.0904 313.561 56.4549H314.901Z" fill="#101010"/>
<path d="M303.1 54.3424V54.8633C296.311 56.5769 292.59 62.0661 290.826 65.6963H289.486V54.3424H303.1Z" fill="#101010"/>
</g>
<mask id="mask20_295_6615" style="mask-type:luminance" maskUnits="userSpaceOnUse" x="289" y="81" width="52" height="28">
<path d="M340.316 81.2839H289.486V108.227H340.316V81.2839Z" fill="white"/>
</mask>
<g mask="url(#mask20_295_6615)">
<path d="M340.316 96.8698V108.229H326.703V107.703C333.491 105.995 337.205 100.505 338.976 96.8698H340.316Z" fill="#101010"/>
<path d="M340.316 69.9265V81.2857H326.703V80.7594C333.491 79.0512 337.205 73.562 338.976 69.9265H340.316Z" fill="#101010"/>
<path d="M328.515 94.7572V95.2781C321.726 96.9917 318.005 102.481 316.241 106.111H314.901V94.7572H328.515Z" fill="#101010"/>
<path d="M314.901 83.3981V94.7574H301.288V94.2311C308.076 92.5229 311.79 87.0337 313.561 83.3981H314.901Z" fill="#101010"/>
<path d="M303.1 81.2858V81.8067C296.311 83.5203 292.59 89.0095 290.826 92.6396H289.486V81.2858H303.1Z" fill="#101010"/>
</g>
<mask id="mask21_295_6615" style="mask-type:luminance" maskUnits="userSpaceOnUse" x="289" y="108" width="52" height="28">
<path d="M340.316 108.227H289.486V135.17H340.316V108.227Z" fill="white"/>
</mask>
<g mask="url(#mask21_295_6615)">
<path d="M340.316 123.813V135.172H326.703V134.646C333.491 132.938 337.205 127.448 338.976 123.813H340.316Z" fill="#101010"/>
<path d="M340.316 96.8698V108.229H326.703V107.703C333.491 105.995 337.205 100.505 338.976 96.8698H340.316Z" fill="#101010"/>
<path d="M328.515 121.701V122.221C321.726 123.935 318.005 129.424 316.241 133.054H314.901V121.701H328.515Z" fill="#101010"/>
<path d="M314.901 110.341V121.7H301.288V121.174C308.076 119.466 311.79 113.977 313.561 110.341H314.901Z" fill="#101010"/>
<path d="M303.1 108.229V108.75C296.311 110.463 292.59 115.953 290.826 119.583H289.486V108.229H303.1Z" fill="#101010"/>
</g>
<mask id="mask22_295_6615" style="mask-type:luminance" maskUnits="userSpaceOnUse" x="289" y="135" width="52" height="28">
<path d="M340.316 135.171H289.486V162.114H340.316V135.171Z" fill="white"/>
</mask>
<g mask="url(#mask22_295_6615)">
<path d="M340.316 150.757V162.116H326.703V161.589C333.491 159.881 337.205 154.392 338.976 150.757H340.316Z" fill="#101010"/>
<path d="M340.316 123.813V135.173H326.703V134.646C333.491 132.938 337.205 127.449 338.976 123.813H340.316Z" fill="#101010"/>
<path d="M328.515 148.644V149.165C321.726 150.879 318.005 156.368 316.241 159.998H314.901V148.644H328.515Z" fill="#101010"/>
<path d="M314.901 137.285V148.644H301.288V148.118C308.076 146.409 311.79 140.92 313.561 137.285H314.901Z" fill="#101010"/>
<path d="M303.1 135.172V135.693C296.311 137.407 292.59 142.896 290.826 146.526H289.486V135.172H303.1Z" fill="#101010"/>
</g>
<mask id="mask23_295_6615" style="mask-type:luminance" maskUnits="userSpaceOnUse" x="289" y="162" width="52" height="28">
<path d="M340.316 162.114H289.486V189.057H340.316V162.114Z" fill="white"/>
</mask>
<g mask="url(#mask23_295_6615)">
<path d="M340.316 177.699V189.059H326.703V188.532C333.491 186.824 337.205 181.335 338.976 177.699H340.316Z" fill="#101010"/>
<path d="M340.316 150.756V162.116H326.703V161.589C333.491 159.881 337.205 154.392 338.976 150.756H340.316Z" fill="#101010"/>
<path d="M328.515 175.587V176.108C321.726 177.821 318.005 183.311 316.241 186.941H314.901V175.587H328.515Z" fill="#101010"/>
<path d="M314.901 164.228V175.587H301.288V175.061C308.076 173.353 311.79 167.863 313.561 164.228H314.901Z" fill="#101010"/>
<path d="M303.1 162.116V162.636C296.311 164.35 292.59 169.839 290.826 173.469H289.486V162.116H303.1Z" fill="#101010"/>
</g>
<mask id="mask24_295_6615" style="mask-type:luminance" maskUnits="userSpaceOnUse" x="289" y="189" width="52" height="27">
<path d="M340.316 189.057H289.486V216H340.316V189.057Z" fill="white"/>
</mask>
<g mask="url(#mask24_295_6615)">
<path d="M340.316 177.699V189.059H326.703V188.532C333.491 186.824 337.205 181.335 338.976 177.699H340.316Z" fill="#101010"/>
<path d="M314.901 191.171V202.53H301.288V202.004C308.076 200.296 311.79 194.806 313.561 191.171H314.901Z" fill="#101010"/>
<path d="M303.1 189.059V189.579C296.311 191.293 292.59 196.782 290.826 200.412H289.486V189.059H303.1Z" fill="#101010"/>
</g>
<mask id="mask25_295_6615" style="mask-type:luminance" maskUnits="userSpaceOnUse" x="238" y="0" width="52" height="28">
<path d="M289.486 0.454529H238.657V27.3977H289.486V0.454529Z" fill="white"/>
</mask>
<g mask="url(#mask25_295_6615)">
<path d="M289.487 16.0401V27.3993H275.873V26.873C282.662 25.1648 286.376 19.6756 288.147 16.0401H289.487Z" fill="#101010"/>
<path d="M289.487 -10.9031V0.456157H275.873V-0.0701332C282.662 -1.77833 286.376 -7.26755 288.147 -10.9031H289.487Z" fill="#101010"/>
<path d="M277.685 13.9277V14.4486C270.896 16.1622 267.176 21.6514 265.411 25.2815H264.072V13.9277H277.685Z" fill="#101010"/>
<path d="M264.072 2.56851V13.9278H250.458V13.4015C257.247 11.6933 260.961 6.20404 262.732 2.56851H264.072Z" fill="#101010"/>
<path d="M252.27 0.456039V0.97694C245.482 2.69053 241.761 8.17975 239.997 11.8099H238.657V0.456039H252.27Z" fill="#101010"/>
</g>
<mask id="mask26_295_6615" style="mask-type:luminance" maskUnits="userSpaceOnUse" x="238" y="27" width="52" height="28">
<path d="M289.486 27.3977H238.657V54.3408H289.486V27.3977Z" fill="white"/>
</mask>
<g mask="url(#mask26_295_6615)">
<path d="M289.486 42.9835V54.3427H275.873V53.8164C282.662 52.1082 286.376 46.619 288.147 42.9835H289.486Z" fill="#101010"/>
<path d="M289.487 16.0403V27.3995H275.873V26.8732C282.662 25.165 286.376 19.6758 288.147 16.0403H289.487Z" fill="#101010"/>
<path d="M277.685 40.8711V41.392C270.896 43.1056 267.176 48.5948 265.411 52.2249H264.072V40.8711H277.685Z" fill="#101010"/>
<path d="M264.072 29.5118V40.871H250.458V40.3447C257.247 38.6365 260.961 33.1473 262.732 29.5118H264.072Z" fill="#101010"/>
<path d="M252.27 27.3995V27.9204C245.482 29.634 241.761 35.1232 239.997 38.7534H238.657V27.3995H252.27Z" fill="#101010"/>
</g>
<mask id="mask27_295_6615" style="mask-type:luminance" maskUnits="userSpaceOnUse" x="238" y="54" width="52" height="28">
<path d="M289.486 54.3408H238.657V81.284H289.486V54.3408Z" fill="white"/>
</mask>
<g mask="url(#mask27_295_6615)">
<path d="M289.486 69.9265V81.2857H275.873V80.7594C282.662 79.0512 286.376 73.562 288.147 69.9265H289.486Z" fill="#101010"/>
<path d="M289.487 42.9833V54.3425H275.873V53.8162C282.662 52.108 286.376 46.6188 288.147 42.9833H289.487Z" fill="#101010"/>
<path d="M277.685 67.8142V68.3351C270.896 70.0487 267.176 75.5379 265.411 79.1681H264.072V67.8142H277.685Z" fill="#101010"/>
<path d="M264.072 56.4549V67.8141H250.458V67.2879C257.247 65.5797 260.961 60.0904 262.732 56.4549H264.072Z" fill="#101010"/>
<path d="M252.27 54.3424V54.8633C245.482 56.5769 241.761 62.0661 239.997 65.6963H238.657V54.3424H252.27Z" fill="#101010"/>
</g>
<mask id="mask28_295_6615" style="mask-type:luminance" maskUnits="userSpaceOnUse" x="238" y="81" width="52" height="28">
<path d="M289.486 81.2839H238.657V108.227H289.486V81.2839Z" fill="white"/>
</mask>
<g mask="url(#mask28_295_6615)">
<path d="M289.486 96.8698V108.229H275.873V107.703C282.662 105.995 286.376 100.505 288.147 96.8698H289.486Z" fill="#101010"/>
<path d="M289.487 69.9265V81.2857H275.873V80.7594C282.662 79.0512 286.376 73.562 288.147 69.9265H289.487Z" fill="#101010"/>
<path d="M277.685 94.7572V95.2781C270.896 96.9917 267.176 102.481 265.411 106.111H264.072V94.7572H277.685Z" fill="#101010"/>
<path d="M264.072 83.3981V94.7574H250.458V94.2311C257.247 92.5229 260.961 87.0337 262.732 83.3981H264.072Z" fill="#101010"/>
<path d="M252.27 81.2858V81.8067C245.482 83.5203 241.761 89.0095 239.997 92.6396H238.657V81.2858H252.27Z" fill="#101010"/>
</g>
<mask id="mask29_295_6615" style="mask-type:luminance" maskUnits="userSpaceOnUse" x="238" y="108" width="52" height="28">
<path d="M289.486 108.227H238.657V135.17H289.486V108.227Z" fill="white"/>
</mask>
<g mask="url(#mask29_295_6615)">
<path d="M289.486 123.813V135.172H275.873V134.646C282.662 132.938 286.376 127.448 288.147 123.813H289.486Z" fill="#101010"/>
<path d="M289.487 96.8698V108.229H275.873V107.703C282.662 105.995 286.376 100.505 288.147 96.8698H289.487Z" fill="#101010"/>
<path d="M277.685 121.701V122.221C270.896 123.935 267.176 129.424 265.411 133.054H264.072V121.701H277.685Z" fill="#101010"/>
<path d="M264.072 110.341V121.7H250.458V121.174C257.247 119.466 260.961 113.977 262.732 110.341H264.072Z" fill="#101010"/>
<path d="M252.27 108.229V108.75C245.482 110.463 241.761 115.953 239.997 119.583H238.657V108.229H252.27Z" fill="#101010"/>
</g>
<mask id="mask30_295_6615" style="mask-type:luminance" maskUnits="userSpaceOnUse" x="238" y="135" width="52" height="28">
<path d="M289.486 135.171H238.657V162.114H289.486V135.171Z" fill="white"/>
</mask>
<g mask="url(#mask30_295_6615)">
<path d="M289.486 150.757V162.116H275.873V161.589C282.662 159.881 286.376 154.392 288.147 150.757H289.486Z" fill="#101010"/>
<path d="M289.487 123.813V135.173H275.873V134.646C282.662 132.938 286.376 127.449 288.147 123.813H289.487Z" fill="#101010"/>
<path d="M277.685 148.644V149.165C270.896 150.879 267.176 156.368 265.411 159.998H264.072V148.644H277.685Z" fill="#101010"/>
<path d="M264.072 137.285V148.644H250.458V148.118C257.247 146.409 260.961 140.92 262.732 137.285H264.072Z" fill="#101010"/>
<path d="M252.27 135.172V135.693C245.482 137.407 241.761 142.896 239.997 146.526H238.657V135.172H252.27Z" fill="#101010"/>
</g>
<mask id="mask31_295_6615" style="mask-type:luminance" maskUnits="userSpaceOnUse" x="238" y="162" width="52" height="28">
<path d="M289.486 162.114H238.657V189.057H289.486V162.114Z" fill="white"/>
</mask>
<g mask="url(#mask31_295_6615)">
<path d="M289.486 177.699V189.059H275.873V188.532C282.662 186.824 286.376 181.335 288.147 177.699H289.486Z" fill="#101010"/>
<path d="M289.487 150.756V162.116H275.873V161.589C282.662 159.881 286.376 154.392 288.147 150.756H289.487Z" fill="#101010"/>
<path d="M277.685 175.587V176.108C270.896 177.821 267.176 183.311 265.411 186.941H264.072V175.587H277.685Z" fill="#101010"/>
<path d="M264.072 164.228V175.587H250.458V175.061C257.247 173.353 260.961 167.863 262.732 164.228H264.072Z" fill="#101010"/>
<path d="M252.27 162.116V162.636C245.482 164.35 241.761 169.839 239.997 173.469H238.657V162.116H252.27Z" fill="#101010"/>
</g>
<mask id="mask32_295_6615" style="mask-type:luminance" maskUnits="userSpaceOnUse" x="238" y="189" width="52" height="27">
<path d="M289.486 189.057H238.657V216H289.486V189.057Z" fill="white"/>
</mask>
<g mask="url(#mask32_295_6615)">
<path d="M289.487 177.699V189.059H275.873V188.532C282.662 186.824 286.376 181.335 288.147 177.699H289.487Z" fill="#101010"/>
<path d="M264.072 191.171V202.53H250.458V202.004C257.247 200.296 260.961 194.806 262.732 191.171H264.072Z" fill="#101010"/>
<path d="M252.27 189.059V189.579C245.482 191.293 241.761 196.782 239.997 200.412H238.657V189.059H252.27Z" fill="#101010"/>
</g>
<mask id="mask33_295_6615" style="mask-type:luminance" maskUnits="userSpaceOnUse" x="187" y="0" width="52" height="28">
<path d="M238.657 0.454529H187.827V27.3977H238.657V0.454529Z" fill="white"/>
</mask>
<g mask="url(#mask33_295_6615)">
<path d="M238.657 16.0401V27.3993H225.044V26.873C231.832 25.1648 235.546 19.6756 237.317 16.0401H238.657Z" fill="#101010"/>
<path d="M238.657 -10.9031V0.456157H225.043V-0.0701332C231.832 -1.77833 235.546 -7.26755 237.317 -10.9031H238.657Z" fill="#101010"/>
<path d="M226.855 13.9277V14.4486C220.067 16.1622 216.346 21.6514 214.582 25.2815H213.242V13.9277H226.855Z" fill="#101010"/>
<path d="M213.242 2.56851V13.9278H199.629V13.4015C206.418 11.6933 210.131 6.20404 211.903 2.56851H213.242Z" fill="#101010"/>
<path d="M201.441 0.456039V0.97694C194.652 2.69053 190.931 8.17975 189.167 11.8099H187.827V0.456039H201.441Z" fill="#101010"/>
</g>
<mask id="mask34_295_6615" style="mask-type:luminance" maskUnits="userSpaceOnUse" x="187" y="27" width="52" height="28">
<path d="M238.657 27.3977H187.828V54.3408H238.657V27.3977Z" fill="white"/>
</mask>
<g mask="url(#mask34_295_6615)">
<path d="M238.657 42.9835V54.3427H225.044V53.8164C231.832 52.1082 235.546 46.619 237.317 42.9835H238.657Z" fill="#101010"/>
<path d="M238.657 16.0403V27.3995H225.044V26.8732C231.832 25.165 235.546 19.6758 237.317 16.0403H238.657Z" fill="#101010"/>
<path d="M226.855 40.8711V41.392C220.067 43.1056 216.346 48.5948 214.582 52.2249H213.242V40.8711H226.855Z" fill="#101010"/>
<path d="M213.242 29.5118V40.871H199.629V40.3447C206.418 38.6365 210.132 33.1473 211.903 29.5118H213.242Z" fill="#101010"/>
<path d="M201.441 27.3995V27.9204C194.652 29.634 190.932 35.1232 189.167 38.7534H187.828V27.3995H201.441Z" fill="#101010"/>
</g>
<mask id="mask35_295_6615" style="mask-type:luminance" maskUnits="userSpaceOnUse" x="187" y="54" width="52" height="28">
<path d="M238.657 54.3408H187.828V81.284H238.657V54.3408Z" fill="white"/>
</mask>
<g mask="url(#mask35_295_6615)">
<path d="M238.657 69.9265V81.2857H225.044V80.7594C231.832 79.0512 235.546 73.562 237.317 69.9265H238.657Z" fill="#101010"/>
<path d="M238.657 42.9833V54.3425H225.044V53.8162C231.832 52.108 235.546 46.6188 237.317 42.9833H238.657Z" fill="#101010"/>
<path d="M226.855 67.8142V68.3351C220.067 70.0487 216.346 75.5379 214.582 79.1681H213.242V67.8142H226.855Z" fill="#101010"/>
<path d="M213.242 56.4549V67.8141H199.629V67.2879C206.418 65.5797 210.132 60.0904 211.903 56.4549H213.242Z" fill="#101010"/>
<path d="M201.441 54.3424V54.8633C194.652 56.5769 190.932 62.0661 189.167 65.6963H187.828V54.3424H201.441Z" fill="#101010"/>
</g>
<mask id="mask36_295_6615" style="mask-type:luminance" maskUnits="userSpaceOnUse" x="187" y="81" width="52" height="28">
<path d="M238.657 81.2839H187.828V108.227H238.657V81.2839Z" fill="white"/>
</mask>
<g mask="url(#mask36_295_6615)">
<path d="M238.657 96.8698V108.229H225.044V107.703C231.832 105.995 235.546 100.505 237.317 96.8698H238.657Z" fill="#101010"/>
<path d="M238.657 69.9265V81.2857H225.044V80.7594C231.832 79.0512 235.546 73.562 237.317 69.9265H238.657Z" fill="#101010"/>
<path d="M226.855 94.7572V95.2781C220.067 96.9917 216.346 102.481 214.582 106.111H213.242V94.7572H226.855Z" fill="#101010"/>
<path d="M213.242 83.3981V94.7574H199.629V94.2311C206.418 92.5229 210.132 87.0337 211.903 83.3981H213.242Z" fill="#101010"/>
<path d="M201.441 81.2858V81.8067C194.652 83.5203 190.932 89.0095 189.167 92.6396H187.828V81.2858H201.441Z" fill="#101010"/>
</g>
<mask id="mask37_295_6615" style="mask-type:luminance" maskUnits="userSpaceOnUse" x="187" y="108" width="52" height="28">
<path d="M238.657 108.227H187.828V135.17H238.657V108.227Z" fill="white"/>
</mask>
<g mask="url(#mask37_295_6615)">
<path d="M238.657 123.813V135.172H225.044V134.646C231.832 132.938 235.546 127.448 237.317 123.813H238.657Z" fill="#101010"/>
<path d="M238.657 96.8698V108.229H225.044V107.703C231.832 105.995 235.546 100.505 237.317 96.8698H238.657Z" fill="#101010"/>
<path d="M226.855 121.701V122.221C220.067 123.935 216.346 129.424 214.582 133.054H213.242V121.701H226.855Z" fill="#101010"/>
<path d="M213.242 110.341V121.7H199.629V121.174C206.418 119.466 210.132 113.977 211.903 110.341H213.242Z" fill="#101010"/>
<path d="M201.441 108.229V108.75C194.652 110.463 190.932 115.953 189.167 119.583H187.828V108.229H201.441Z" fill="#101010"/>
</g>
<mask id="mask38_295_6615" style="mask-type:luminance" maskUnits="userSpaceOnUse" x="187" y="135" width="52" height="28">
<path d="M238.657 135.171H187.828V162.114H238.657V135.171Z" fill="white"/>
</mask>
<g mask="url(#mask38_295_6615)">
<path d="M238.657 150.757V162.116H225.044V161.589C231.832 159.881 235.546 154.392 237.317 150.757H238.657Z" fill="#101010"/>
<path d="M238.657 123.813V135.173H225.044V134.646C231.832 132.938 235.546 127.449 237.317 123.813H238.657Z" fill="#101010"/>
<path d="M226.855 148.644V149.165C220.067 150.879 216.346 156.368 214.582 159.998H213.242V148.644H226.855Z" fill="#101010"/>
<path d="M213.242 137.285V148.644H199.629V148.118C206.418 146.409 210.132 140.92 211.903 137.285H213.242Z" fill="#101010"/>
<path d="M201.441 135.172V135.693C194.652 137.407 190.932 142.896 189.167 146.526H187.828V135.172H201.441Z" fill="#101010"/>
</g>
<mask id="mask39_295_6615" style="mask-type:luminance" maskUnits="userSpaceOnUse" x="187" y="162" width="52" height="28">
<path d="M238.657 162.114H187.828V189.057H238.657V162.114Z" fill="white"/>
</mask>
<g mask="url(#mask39_295_6615)">
<path d="M238.657 177.699V189.059H225.044V188.532C231.832 186.824 235.546 181.335 237.317 177.699H238.657Z" fill="#101010"/>
<path d="M238.657 150.756V162.116H225.044V161.589C231.832 159.881 235.546 154.392 237.317 150.756H238.657Z" fill="#101010"/>
<path d="M226.855 175.587V176.108C220.067 177.821 216.346 183.311 214.582 186.941H213.242V175.587H226.855Z" fill="#101010"/>
<path d="M213.242 164.228V175.587H199.629V175.061C206.418 173.353 210.132 167.863 211.903 164.228H213.242Z" fill="#101010"/>
<path d="M201.441 162.116V162.636C194.652 164.35 190.932 169.839 189.167 173.469H187.828V162.116H201.441Z" fill="#101010"/>
</g>
<mask id="mask40_295_6615" style="mask-type:luminance" maskUnits="userSpaceOnUse" x="187" y="189" width="52" height="27">
<path d="M238.657 189.057H187.828V216H238.657V189.057Z" fill="white"/>
</mask>
<g mask="url(#mask40_295_6615)">
<path d="M238.657 177.699V189.059H225.044V188.532C231.832 186.824 235.546 181.335 237.317 177.699H238.657Z" fill="#101010"/>
<path d="M213.242 191.171V202.53H199.629V202.004C206.418 200.296 210.132 194.806 211.903 191.171H213.242Z" fill="#101010"/>
<path d="M201.441 189.059V189.579C194.652 191.293 190.932 196.782 189.167 200.412H187.828V189.059H201.441Z" fill="#101010"/>
</g>
<mask id="mask41_295_6615" style="mask-type:luminance" maskUnits="userSpaceOnUse" x="136" y="0" width="52" height="28">
<path d="M187.827 0.454529H136.998V27.3977H187.827V0.454529Z" fill="white"/>
</mask>
<g mask="url(#mask41_295_6615)">
<path d="M187.827 16.0401V27.3993H174.214V26.873C181.003 25.1648 184.717 19.6756 186.488 16.0401H187.827Z" fill="#101010"/>
<path d="M187.828 -10.9031V0.456157H174.214V-0.0701332C181.003 -1.77833 184.717 -7.26755 186.488 -10.9031H187.828Z" fill="#101010"/>
<path d="M176.026 13.9277V14.4486C169.237 16.1622 165.517 21.6514 163.752 25.2815H162.413V13.9277H176.026Z" fill="#101010"/>
<path d="M162.413 2.56851V13.9278H148.799V13.4015C155.588 11.6933 159.302 6.20404 161.073 2.56851H162.413Z" fill="#101010"/>
<path d="M150.611 0.456039V0.97694C143.823 2.69053 140.102 8.17975 138.337 11.8099H136.998V0.456039H150.611Z" fill="#101010"/>
</g>
<mask id="mask42_295_6615" style="mask-type:luminance" maskUnits="userSpaceOnUse" x="136" y="27" width="52" height="28">
<path d="M187.827 27.3977H136.998V54.3408H187.827V27.3977Z" fill="white"/>
</mask>
<g mask="url(#mask42_295_6615)">
<path d="M187.827 42.9835V54.3427H174.214V53.8164C181.003 52.1082 184.717 46.619 186.488 42.9835H187.827Z" fill="#101010"/>
<path d="M187.827 16.0403V27.3995H174.214V26.8732C181.003 25.165 184.717 19.6758 186.488 16.0403H187.827Z" fill="#101010"/>
<path d="M176.026 40.8711V41.392C169.237 43.1056 165.516 48.5948 163.752 52.2249H162.412V40.8711H176.026Z" fill="#101010"/>
<path d="M162.412 29.5118V40.871H148.799V40.3447C155.588 38.6365 159.302 33.1473 161.073 29.5118H162.412Z" fill="#101010"/>
<path d="M150.611 27.3995V27.9204C143.822 29.634 140.102 35.1232 138.337 38.7534H136.998V27.3995H150.611Z" fill="#101010"/>
</g>
<mask id="mask43_295_6615" style="mask-type:luminance" maskUnits="userSpaceOnUse" x="136" y="54" width="52" height="28">
<path d="M187.827 54.3408H136.998V81.284H187.827V54.3408Z" fill="white"/>
</mask>
<g mask="url(#mask43_295_6615)">
<path d="M187.827 69.9265V81.2857H174.214V80.7594C181.003 79.0512 184.717 73.562 186.488 69.9265H187.827Z" fill="#101010"/>
<path d="M187.827 42.9833V54.3425H174.214V53.8162C181.003 52.108 184.717 46.6188 186.488 42.9833H187.827Z" fill="#101010"/>
<path d="M176.026 67.8142V68.3351C169.237 70.0487 165.516 75.5379 163.752 79.1681H162.412V67.8142H176.026Z" fill="#101010"/>
<path d="M162.412 56.4549V67.8141H148.799V67.2879C155.588 65.5797 159.302 60.0904 161.073 56.4549H162.412Z" fill="#101010"/>
<path d="M150.611 54.3424V54.8633C143.822 56.5769 140.102 62.0661 138.337 65.6963H136.998V54.3424H150.611Z" fill="#101010"/>
</g>
<mask id="mask44_295_6615" style="mask-type:luminance" maskUnits="userSpaceOnUse" x="136" y="81" width="52" height="28">
<path d="M187.827 81.2839H136.998V108.227H187.827V81.2839Z" fill="white"/>
</mask>
<g mask="url(#mask44_295_6615)">
<path d="M187.827 96.8698V108.229H174.214V107.703C181.003 105.995 184.717 100.505 186.488 96.8698H187.827Z" fill="#101010"/>
<path d="M187.827 69.9265V81.2857H174.214V80.7594C181.003 79.0512 184.717 73.562 186.488 69.9265H187.827Z" fill="#101010"/>
<path d="M176.026 94.7572V95.2781C169.237 96.9917 165.516 102.481 163.752 106.111H162.412V94.7572H176.026Z" fill="#101010"/>
<path d="M162.412 83.3981V94.7574H148.799V94.2311C155.588 92.5229 159.302 87.0337 161.073 83.3981H162.412Z" fill="#101010"/>
<path d="M150.611 81.2858V81.8067C143.822 83.5203 140.102 89.0095 138.337 92.6396H136.998V81.2858H150.611Z" fill="#101010"/>
</g>
<mask id="mask45_295_6615" style="mask-type:luminance" maskUnits="userSpaceOnUse" x="136" y="108" width="52" height="28">
<path d="M187.827 108.227H136.998V135.17H187.827V108.227Z" fill="white"/>
</mask>
<g mask="url(#mask45_295_6615)">
<path d="M187.827 123.813V135.172H174.214V134.646C181.003 132.938 184.717 127.448 186.488 123.813H187.827Z" fill="#101010"/>
<path d="M187.827 96.8698V108.229H174.214V107.703C181.003 105.995 184.717 100.505 186.488 96.8698H187.827Z" fill="#101010"/>
<path d="M176.026 121.701V122.221C169.237 123.935 165.516 129.424 163.752 133.054H162.412V121.701H176.026Z" fill="#101010"/>
<path d="M162.412 110.341V121.7H148.799V121.174C155.588 119.466 159.302 113.977 161.073 110.341H162.412Z" fill="#101010"/>
<path d="M150.611 108.229V108.75C143.822 110.463 140.102 115.953 138.337 119.583H136.998V108.229H150.611Z" fill="#101010"/>
</g>
<mask id="mask46_295_6615" style="mask-type:luminance" maskUnits="userSpaceOnUse" x="136" y="135" width="52" height="28">
<path d="M187.827 135.171H136.998V162.114H187.827V135.171Z" fill="white"/>
</mask>
<g mask="url(#mask46_295_6615)">
<path d="M187.827 150.757V162.116H174.214V161.589C181.003 159.881 184.717 154.392 186.488 150.757H187.827Z" fill="#101010"/>
<path d="M187.827 123.813V135.173H174.214V134.646C181.003 132.938 184.717 127.449 186.488 123.813H187.827Z" fill="#101010"/>
<path d="M176.026 148.644V149.165C169.237 150.879 165.516 156.368 163.752 159.998H162.412V148.644H176.026Z" fill="#101010"/>
<path d="M162.412 137.285V148.644H148.799V148.118C155.588 146.409 159.302 140.92 161.073 137.285H162.412Z" fill="#101010"/>
<path d="M150.611 135.172V135.693C143.822 137.407 140.102 142.896 138.337 146.526H136.998V135.172H150.611Z" fill="#101010"/>
</g>
<mask id="mask47_295_6615" style="mask-type:luminance" maskUnits="userSpaceOnUse" x="136" y="162" width="52" height="28">
<path d="M187.827 162.114H136.998V189.057H187.827V162.114Z" fill="white"/>
</mask>
<g mask="url(#mask47_295_6615)">
<path d="M187.827 177.699V189.059H174.214V188.532C181.003 186.824 184.717 181.335 186.488 177.699H187.827Z" fill="#101010"/>
<path d="M187.827 150.756V162.116H174.214V161.589C181.003 159.881 184.717 154.392 186.488 150.756H187.827Z" fill="#101010"/>
<path d="M176.026 175.587V176.108C169.237 177.821 165.516 183.311 163.752 186.941H162.412V175.587H176.026Z" fill="#101010"/>
<path d="M162.412 164.228V175.587H148.799V175.061C155.588 173.353 159.302 167.863 161.073 164.228H162.412Z" fill="#101010"/>
<path d="M150.611 162.116V162.636C143.822 164.35 140.102 169.839 138.337 173.469H136.998V162.116H150.611Z" fill="#101010"/>
</g>
<mask id="mask48_295_6615" style="mask-type:luminance" maskUnits="userSpaceOnUse" x="136" y="189" width="52" height="27">
<path d="M187.827 189.057H136.998V216H187.827V189.057Z" fill="white"/>
</mask>
<g mask="url(#mask48_295_6615)">
<path d="M187.827 177.699V189.059H174.214V188.532C181.003 186.824 184.717 181.335 186.488 177.699H187.827Z" fill="#101010"/>
<path d="M162.412 191.171V202.53H148.799V202.004C155.588 200.296 159.302 194.806 161.073 191.171H162.412Z" fill="#101010"/>
<path d="M150.611 189.059V189.579C143.822 191.293 140.102 196.782 138.337 200.412H136.998V189.059H150.611Z" fill="#101010"/>
</g>
<mask id="mask49_295_6615" style="mask-type:luminance" maskUnits="userSpaceOnUse" x="86" y="0" width="51" height="28">
<path d="M136.998 0.454529H86.1683V27.3977H136.998V0.454529Z" fill="white"/>
</mask>
<g mask="url(#mask49_295_6615)">
<path d="M136.998 16.0401V27.3993H123.384V26.873C130.173 25.1648 133.887 19.6756 135.658 16.0401H136.998Z" fill="#101010"/>
<path d="M136.998 -10.9031V0.456157H123.384V-0.0701332C130.173 -1.77833 133.887 -7.26755 135.658 -10.9031H136.998Z" fill="#101010"/>
<path d="M125.196 13.9277V14.4486C118.408 16.1622 114.687 21.6514 112.923 25.2815H111.583V13.9277H125.196Z" fill="#101010"/>
<path d="M111.583 2.56851V13.9278H97.9696V13.4015C104.758 11.6933 108.472 6.20404 110.243 2.56851H111.583Z" fill="#101010"/>
<path d="M99.7816 0.456039V0.97694C92.993 2.69053 89.2723 8.17975 87.508 11.8099H86.1683V0.456039H99.7816Z" fill="#101010"/>
</g>
<mask id="mask50_295_6615" style="mask-type:luminance" maskUnits="userSpaceOnUse" x="86" y="27" width="51" height="28">
<path d="M136.998 27.3977H86.1683V54.3408H136.998V27.3977Z" fill="white"/>
</mask>
<g mask="url(#mask50_295_6615)">
<path d="M136.998 42.9835V54.3427H123.384V53.8164C130.173 52.1082 133.887 46.619 135.658 42.9835H136.998Z" fill="#101010"/>
<path d="M136.998 16.0403V27.3995H123.384V26.8732C130.173 25.165 133.887 19.6758 135.658 16.0403H136.998Z" fill="#101010"/>
<path d="M125.196 40.8711V41.392C118.408 43.1056 114.687 48.5948 112.923 52.2249H111.583V40.8711H125.196Z" fill="#101010"/>
<path d="M111.583 29.5118V40.871H97.9696V40.3447C104.758 38.6365 108.472 33.1473 110.243 29.5118H111.583Z" fill="#101010"/>
<path d="M99.7816 27.3995V27.9204C92.993 29.634 89.2723 35.1232 87.508 38.7534H86.1683V27.3995H99.7816Z" fill="#101010"/>
</g>
<mask id="mask51_295_6615" style="mask-type:luminance" maskUnits="userSpaceOnUse" x="86" y="54" width="51" height="28">
<path d="M136.998 54.3408H86.1683V81.284H136.998V54.3408Z" fill="white"/>
</mask>
<g mask="url(#mask51_295_6615)">
<path d="M136.998 69.9265V81.2857H123.384V80.7594C130.173 79.0512 133.887 73.562 135.658 69.9265H136.998Z" fill="#101010"/>
<path d="M136.998 42.9833V54.3425H123.384V53.8162C130.173 52.108 133.887 46.6188 135.658 42.9833H136.998Z" fill="#101010"/>
<path d="M125.196 67.8142V68.3351C118.408 70.0487 114.687 75.5379 112.923 79.1681H111.583V67.8142H125.196Z" fill="#101010"/>
<path d="M111.583 56.4549V67.8141H97.9696V67.2879C104.758 65.5797 108.472 60.0904 110.243 56.4549H111.583Z" fill="#101010"/>
<path d="M99.7816 54.3424V54.8633C92.993 56.5769 89.2723 62.0661 87.508 65.6963H86.1683V54.3424H99.7816Z" fill="#101010"/>
</g>
<mask id="mask52_295_6615" style="mask-type:luminance" maskUnits="userSpaceOnUse" x="86" y="81" width="51" height="28">
<path d="M136.998 81.2839H86.1683V108.227H136.998V81.2839Z" fill="white"/>
</mask>
<g mask="url(#mask52_295_6615)">
<path d="M136.998 96.8698V108.229H123.384V107.703C130.173 105.995 133.887 100.505 135.658 96.8698H136.998Z" fill="#101010"/>
<path d="M136.998 69.9265V81.2857H123.384V80.7594C130.173 79.0512 133.887 73.562 135.658 69.9265H136.998Z" fill="#101010"/>
<path d="M125.196 94.7572V95.2781C118.408 96.9917 114.687 102.481 112.923 106.111H111.583V94.7572H125.196Z" fill="#101010"/>
<path d="M111.583 83.3981V94.7574H97.9696V94.2311C104.758 92.5229 108.472 87.0337 110.243 83.3981H111.583Z" fill="#101010"/>
<path d="M99.7816 81.2858V81.8067C92.993 83.5203 89.2723 89.0095 87.508 92.6396H86.1683V81.2858H99.7816Z" fill="#101010"/>
</g>
<mask id="mask53_295_6615" style="mask-type:luminance" maskUnits="userSpaceOnUse" x="86" y="108" width="51" height="28">
<path d="M136.998 108.227H86.1683V135.17H136.998V108.227Z" fill="white"/>
</mask>
<g mask="url(#mask53_295_6615)">
<path d="M136.998 123.813V135.172H123.384V134.646C130.173 132.938 133.887 127.448 135.658 123.813H136.998Z" fill="#101010"/>
<path d="M136.998 96.8698V108.229H123.384V107.703C130.173 105.995 133.887 100.505 135.658 96.8698H136.998Z" fill="#101010"/>
<path d="M125.196 121.701V122.221C118.408 123.935 114.687 129.424 112.923 133.054H111.583V121.701H125.196Z" fill="#101010"/>
<path d="M111.583 110.341V121.7H97.9696V121.174C104.758 119.466 108.472 113.977 110.243 110.341H111.583Z" fill="#101010"/>
<path d="M99.7816 108.229V108.75C92.993 110.463 89.2723 115.953 87.508 119.583H86.1683V108.229H99.7816Z" fill="#101010"/>
</g>
<mask id="mask54_295_6615" style="mask-type:luminance" maskUnits="userSpaceOnUse" x="86" y="135" width="51" height="28">
<path d="M136.998 135.171H86.1683V162.114H136.998V135.171Z" fill="white"/>
</mask>
<g mask="url(#mask54_295_6615)">
<path d="M136.998 150.757V162.116H123.384V161.589C130.173 159.881 133.887 154.392 135.658 150.757H136.998Z" fill="#101010"/>
<path d="M136.998 123.813V135.173H123.384V134.646C130.173 132.938 133.887 127.449 135.658 123.813H136.998Z" fill="#101010"/>
<path d="M125.196 148.644V149.165C118.408 150.879 114.687 156.368 112.923 159.998H111.583V148.644H125.196Z" fill="#101010"/>
<path d="M111.583 137.285V148.644H97.9696V148.118C104.758 146.409 108.472 140.92 110.243 137.285H111.583Z" fill="#101010"/>
<path d="M99.7816 135.172V135.693C92.993 137.407 89.2723 142.896 87.508 146.526H86.1683V135.172H99.7816Z" fill="#101010"/>
</g>
<mask id="mask55_295_6615" style="mask-type:luminance" maskUnits="userSpaceOnUse" x="86" y="162" width="51" height="28">
<path d="M136.998 162.114H86.1683V189.057H136.998V162.114Z" fill="white"/>
</mask>
<g mask="url(#mask55_295_6615)">
<path d="M136.998 177.699V189.059H123.384V188.532C130.173 186.824 133.887 181.335 135.658 177.699H136.998Z" fill="#101010"/>
<path d="M136.998 150.756V162.116H123.384V161.589C130.173 159.881 133.887 154.392 135.658 150.756H136.998Z" fill="#101010"/>
<path d="M125.196 175.587V176.108C118.408 177.821 114.687 183.311 112.923 186.941H111.583V175.587H125.196Z" fill="#101010"/>
<path d="M111.583 164.228V175.587H97.9696V175.061C104.758 173.353 108.472 167.863 110.243 164.228H111.583Z" fill="#101010"/>
<path d="M99.7816 162.116V162.636C92.993 164.35 89.2723 169.839 87.508 173.469H86.1683V162.116H99.7816Z" fill="#101010"/>
</g>
<mask id="mask56_295_6615" style="mask-type:luminance" maskUnits="userSpaceOnUse" x="86" y="189" width="51" height="27">
<path d="M136.998 189.057H86.1683V216H136.998V189.057Z" fill="white"/>
</mask>
<g mask="url(#mask56_295_6615)">
<path d="M136.998 177.699V189.059H123.384V188.532C130.173 186.824 133.887 181.335 135.658 177.699H136.998Z" fill="#101010"/>
<path d="M111.583 191.171V202.53H97.9696V202.004C104.758 200.296 108.472 194.806 110.243 191.171H111.583Z" fill="#101010"/>
<path d="M99.7816 189.059V189.579C92.993 191.293 89.2723 196.782 87.508 200.412H86.1683V189.059H99.7816Z" fill="#101010"/>
</g>
<mask id="mask57_295_6615" style="mask-type:luminance" maskUnits="userSpaceOnUse" x="35" y="0" width="52" height="28">
<path d="M86.1682 0.454529H35.3387V27.3977H86.1682V0.454529Z" fill="white"/>
</mask>
<g mask="url(#mask57_295_6615)">
<path d="M86.1683 16.0401V27.3993H72.555V26.873C79.3436 25.1648 83.0575 19.6756 84.8286 16.0401H86.1683Z" fill="#101010"/>
<path d="M86.1682 -10.9031V0.456157H72.5549V-0.0701332C79.3435 -1.77833 83.0574 -7.26755 84.8286 -10.9031H86.1682Z" fill="#101010"/>
<path d="M74.3668 13.9277V14.4486C67.5782 16.1622 63.8575 21.6514 62.0931 25.2815H60.7535V13.9277H74.3668Z" fill="#101010"/>
<path d="M60.7535 2.56851V13.9278H47.1402V13.4015C53.9288 11.6933 57.6427 6.20404 59.4138 2.56851H60.7535Z" fill="#101010"/>
<path d="M48.952 0.456039V0.97694C42.1634 2.69053 38.4427 8.17975 36.6783 11.8099H35.3387V0.456039H48.952Z" fill="#101010"/>
</g>
<mask id="mask58_295_6615" style="mask-type:luminance" maskUnits="userSpaceOnUse" x="35" y="27" width="52" height="28">
<path d="M86.1683 27.3977H35.3387V54.3408H86.1683V27.3977Z" fill="white"/>
</mask>
<g mask="url(#mask58_295_6615)">
<path d="M86.1683 42.9835V54.3427H72.5551V53.8164C79.3436 52.1082 83.0576 46.619 84.8287 42.9835H86.1683Z" fill="#101010"/>
<path d="M86.1683 16.0403V27.3995H72.555V26.8732C79.3436 25.165 83.0575 19.6758 84.8286 16.0403H86.1683Z" fill="#101010"/>
<path d="M74.3668 40.8711V41.392C67.5783 43.1056 63.8575 48.5948 62.0932 52.2249H60.7535V40.8711H74.3668Z" fill="#101010"/>
<path d="M60.7535 29.5118V40.871H47.1403V40.3447C53.9288 38.6365 57.6428 33.1473 59.4139 29.5118H60.7535Z" fill="#101010"/>
<path d="M48.952 27.3995V27.9204C42.1635 29.634 38.4427 35.1232 36.6784 38.7534H35.3387V27.3995H48.952Z" fill="#101010"/>
</g>
<mask id="mask59_295_6615" style="mask-type:luminance" maskUnits="userSpaceOnUse" x="35" y="54" width="52" height="28">
<path d="M86.1683 54.3408H35.3387V81.284H86.1683V54.3408Z" fill="white"/>
</mask>
<g mask="url(#mask59_295_6615)">
<path d="M86.1683 69.9265V81.2857H72.5551V80.7594C79.3436 79.0512 83.0576 73.562 84.8287 69.9265H86.1683Z" fill="#101010"/>
<path d="M86.1683 42.9833V54.3425H72.555V53.8162C79.3436 52.108 83.0575 46.6188 84.8286 42.9833H86.1683Z" fill="#101010"/>
<path d="M74.3668 67.8142V68.3351C67.5783 70.0487 63.8575 75.5379 62.0932 79.1681H60.7535V67.8142H74.3668Z" fill="#101010"/>
<path d="M60.7535 56.4549V67.8141H47.1403V67.2879C53.9288 65.5797 57.6428 60.0904 59.4139 56.4549H60.7535Z" fill="#101010"/>
<path d="M48.952 54.3424V54.8633C42.1635 56.5769 38.4427 62.0661 36.6784 65.6963H35.3387V54.3424H48.952Z" fill="#101010"/>
</g>
<mask id="mask60_295_6615" style="mask-type:luminance" maskUnits="userSpaceOnUse" x="35" y="81" width="52" height="28">
<path d="M86.1683 81.2839H35.3387V108.227H86.1683V81.2839Z" fill="white"/>
</mask>
<g mask="url(#mask60_295_6615)">
<path d="M86.1683 96.8698V108.229H72.5551V107.703C79.3436 105.995 83.0576 100.505 84.8287 96.8698H86.1683Z" fill="#101010"/>
<path d="M86.1683 69.9265V81.2857H72.555V80.7594C79.3436 79.0512 83.0575 73.562 84.8286 69.9265H86.1683Z" fill="#101010"/>
<path d="M74.3668 94.7572V95.2781C67.5783 96.9917 63.8575 102.481 62.0932 106.111H60.7535V94.7572H74.3668Z" fill="#101010"/>
<path d="M60.7535 83.3981V94.7574H47.1403V94.2311C53.9288 92.5229 57.6428 87.0337 59.4139 83.3981H60.7535Z" fill="#101010"/>
<path d="M48.952 81.2858V81.8067C42.1635 83.5203 38.4427 89.0095 36.6784 92.6396H35.3387V81.2858H48.952Z" fill="#101010"/>
</g>
<mask id="mask61_295_6615" style="mask-type:luminance" maskUnits="userSpaceOnUse" x="35" y="108" width="52" height="28">
<path d="M86.1683 108.227H35.3387V135.17H86.1683V108.227Z" fill="white"/>
</mask>
<g mask="url(#mask61_295_6615)">
<path d="M86.1683 123.813V135.172H72.5551V134.646C79.3436 132.938 83.0576 127.448 84.8287 123.813H86.1683Z" fill="#101010"/>
<path d="M86.1683 96.8698V108.229H72.555V107.703C79.3436 105.995 83.0575 100.505 84.8286 96.8698H86.1683Z" fill="#101010"/>
<path d="M74.3668 121.701V122.221C67.5783 123.935 63.8575 129.424 62.0932 133.054H60.7535V121.701H74.3668Z" fill="#101010"/>
<path d="M60.7535 110.341V121.7H47.1403V121.174C53.9288 119.466 57.6428 113.977 59.4139 110.341H60.7535Z" fill="#101010"/>
<path d="M48.952 108.229V108.75C42.1635 110.463 38.4427 115.953 36.6784 119.583H35.3387V108.229H48.952Z" fill="#101010"/>
</g>
<mask id="mask62_295_6615" style="mask-type:luminance" maskUnits="userSpaceOnUse" x="35" y="135" width="52" height="28">
<path d="M86.1683 135.171H35.3387V162.114H86.1683V135.171Z" fill="white"/>
</mask>
<g mask="url(#mask62_295_6615)">
<path d="M86.1683 150.757V162.116H72.5551V161.589C79.3436 159.881 83.0576 154.392 84.8287 150.757H86.1683Z" fill="#101010"/>
<path d="M86.1683 123.813V135.173H72.555V134.646C79.3436 132.938 83.0575 127.449 84.8286 123.813H86.1683Z" fill="#101010"/>
<path d="M74.3668 148.644V149.165C67.5783 150.879 63.8575 156.368 62.0932 159.998H60.7535V148.644H74.3668Z" fill="#101010"/>
<path d="M60.7535 137.285V148.644H47.1403V148.118C53.9288 146.409 57.6428 140.92 59.4139 137.285H60.7535Z" fill="#101010"/>
<path d="M48.952 135.172V135.693C42.1635 137.407 38.4427 142.896 36.6784 146.526H35.3387V135.172H48.952Z" fill="#101010"/>
</g>
<mask id="mask63_295_6615" style="mask-type:luminance" maskUnits="userSpaceOnUse" x="35" y="162" width="52" height="28">
<path d="M86.1683 162.114H35.3387V189.057H86.1683V162.114Z" fill="white"/>
</mask>
<g mask="url(#mask63_295_6615)">
<path d="M86.1683 177.699V189.059H72.5551V188.532C79.3436 186.824 83.0576 181.335 84.8287 177.699H86.1683Z" fill="#101010"/>
<path d="M86.1683 150.756V162.116H72.555V161.589C79.3436 159.881 83.0575 154.392 84.8286 150.756H86.1683Z" fill="#101010"/>
<path d="M74.3668 175.587V176.108C67.5783 177.821 63.8575 183.311 62.0932 186.941H60.7535V175.587H74.3668Z" fill="#101010"/>
<path d="M60.7535 164.228V175.587H47.1403V175.061C53.9288 173.353 57.6428 167.863 59.4139 164.228H60.7535Z" fill="#101010"/>
<path d="M48.952 162.116V162.636C42.1635 164.35 38.4427 169.839 36.6784 173.469H35.3387V162.116H48.952Z" fill="#101010"/>
</g>
<mask id="mask64_295_6615" style="mask-type:luminance" maskUnits="userSpaceOnUse" x="35" y="189" width="52" height="27">
<path d="M86.1683 189.057H35.3387V216H86.1683V189.057Z" fill="white"/>
</mask>
<g mask="url(#mask64_295_6615)">
<path d="M86.1683 177.699V189.059H72.555V188.532C79.3436 186.824 83.0575 181.335 84.8286 177.699H86.1683Z" fill="#101010"/>
<path d="M60.7535 191.171V202.53H47.1403V202.004C53.9288 200.296 57.6428 194.806 59.4139 191.171H60.7535Z" fill="#101010"/>
<path d="M48.952 189.059V189.579C42.1635 191.293 38.4427 196.782 36.6784 200.412H35.3387V189.059H48.952Z" fill="#101010"/>
</g>
<mask id="mask65_295_6615" style="mask-type:luminance" maskUnits="userSpaceOnUse" x="-16" y="0" width="52" height="28">
<path d="M35.3387 0.454559H-15.4908V27.3977H35.3387V0.454559Z" fill="white"/>
</mask>
<g mask="url(#mask65_295_6615)">
<path d="M35.3385 16.0401V27.3993H21.7252V26.873C28.5138 25.1649 32.2277 19.6756 33.9989 16.0401H35.3385Z" fill="#101010"/>
<path d="M35.3386 -10.9031V0.456187H21.7253V-0.0701027C28.5139 -1.7783 32.2279 -7.26752 33.999 -10.9031H35.3386Z" fill="#101010"/>
<path d="M23.5372 13.9277V14.4486C16.7487 16.1622 13.0279 21.6514 11.2636 25.2816H9.92395V13.9277H23.5372Z" fill="#101010"/>
<path d="M9.92395 2.56854V13.9278H-3.68933V13.4015C3.09924 11.6933 6.81318 6.20407 8.58431 2.56854H9.92395Z" fill="#101010"/>
</g>
<mask id="mask66_295_6615" style="mask-type:luminance" maskUnits="userSpaceOnUse" x="-16" y="27" width="52" height="28">
<path d="M35.3387 27.3977H-15.4908V54.3408H35.3387V27.3977Z" fill="white"/>
</mask>
<g mask="url(#mask66_295_6615)">
<path d="M35.3385 42.9835V54.3427H21.7252V53.8164C28.5138 52.1082 32.2277 46.619 33.9989 42.9835H35.3385Z" fill="#101010"/>
<path d="M35.3386 16.0403V27.3995H21.7253V26.8732C28.5139 25.165 32.2279 19.6758 33.999 16.0403H35.3386Z" fill="#101010"/>
<path d="M23.5372 40.8711V41.392C16.7487 43.1056 13.0279 48.5948 11.2636 52.2249H9.92395V40.8711H23.5372Z" fill="#101010"/>
<path d="M9.92395 29.5118V40.871H-3.68933V40.3447C3.09924 38.6365 6.81318 33.1473 8.58431 29.5118H9.92395Z" fill="#101010"/>
</g>
<mask id="mask67_295_6615" style="mask-type:luminance" maskUnits="userSpaceOnUse" x="-16" y="54" width="52" height="28">
<path d="M35.3387 54.3408H-15.4908V81.284H35.3387V54.3408Z" fill="white"/>
</mask>
<g mask="url(#mask67_295_6615)">
<path d="M35.3385 69.9265V81.2857H21.7252V80.7594C28.5138 79.0512 32.2277 73.562 33.9989 69.9265H35.3385Z" fill="#101010"/>
<path d="M35.3386 42.9833V54.3425H21.7253V53.8162C28.5139 52.108 32.2279 46.6188 33.999 42.9833H35.3386Z" fill="#101010"/>
<path d="M23.5372 67.8142V68.3351C16.7487 70.0487 13.0279 75.5379 11.2636 79.1681H9.92395V67.8142H23.5372Z" fill="#101010"/>
<path d="M9.92395 56.4549V67.8141H-3.68933V67.2879C3.09924 65.5797 6.81318 60.0904 8.58431 56.4549H9.92395Z" fill="#101010"/>
</g>
<mask id="mask68_295_6615" style="mask-type:luminance" maskUnits="userSpaceOnUse" x="-16" y="81" width="52" height="28">
<path d="M35.3387 81.2839H-15.4908V108.227H35.3387V81.2839Z" fill="white"/>
</mask>
<g mask="url(#mask68_295_6615)">
<path d="M35.3385 96.8698V108.229H21.7252V107.703C28.5138 105.995 32.2277 100.505 33.9989 96.8698H35.3385Z" fill="#101010"/>
<path d="M35.3386 69.9265V81.2857H21.7253V80.7594C28.5139 79.0512 32.2279 73.562 33.999 69.9265H35.3386Z" fill="#101010"/>
<path d="M23.5372 94.7572V95.2781C16.7487 96.9917 13.0279 102.481 11.2636 106.111H9.92395V94.7572H23.5372Z" fill="#101010"/>
<path d="M9.92395 83.3981V94.7574H-3.68933V94.2311C3.09924 92.5229 6.81318 87.0337 8.58431 83.3981H9.92395Z" fill="#101010"/>
</g>
<mask id="mask69_295_6615" style="mask-type:luminance" maskUnits="userSpaceOnUse" x="-16" y="108" width="52" height="28">
<path d="M35.3387 108.227H-15.4908V135.17H35.3387V108.227Z" fill="white"/>
</mask>
<g mask="url(#mask69_295_6615)">
<path d="M35.3385 123.813V135.172H21.7252V134.646C28.5138 132.938 32.2277 127.448 33.9989 123.813H35.3385Z" fill="#101010"/>
<path d="M35.3386 96.8698V108.229H21.7253V107.703C28.5139 105.995 32.2279 100.505 33.999 96.8698H35.3386Z" fill="#101010"/>
<path d="M23.5372 121.701V122.221C16.7487 123.935 13.0279 129.424 11.2636 133.054H9.92395V121.701H23.5372Z" fill="#101010"/>
<path d="M9.92395 110.341V121.7H-3.68933V121.174C3.09924 119.466 6.81318 113.977 8.58431 110.341H9.92395Z" fill="#101010"/>
</g>
<mask id="mask70_295_6615" style="mask-type:luminance" maskUnits="userSpaceOnUse" x="-16" y="135" width="52" height="28">
<path d="M35.3387 135.171H-15.4908V162.114H35.3387V135.171Z" fill="white"/>
</mask>
<g mask="url(#mask70_295_6615)">
<path d="M35.3385 150.757V162.116H21.7252V161.589C28.5138 159.881 32.2277 154.392 33.9989 150.757H35.3385Z" fill="#101010"/>
<path d="M35.3386 123.813V135.173H21.7253V134.646C28.5139 132.938 32.2279 127.449 33.999 123.813H35.3386Z" fill="#101010"/>
<path d="M23.5372 148.644V149.165C16.7487 150.879 13.0279 156.368 11.2636 159.998H9.92395V148.644H23.5372Z" fill="#101010"/>
<path d="M9.92395 137.285V148.644H-3.68933V148.118C3.09924 146.409 6.81318 140.92 8.58431 137.285H9.92395Z" fill="#101010"/>
</g>
<mask id="mask71_295_6615" style="mask-type:luminance" maskUnits="userSpaceOnUse" x="-16" y="162" width="52" height="28">
<path d="M35.3387 162.114H-15.4908V189.057H35.3387V162.114Z" fill="white"/>
</mask>
<g mask="url(#mask71_295_6615)">
<path d="M35.3385 177.699V189.059H21.7252V188.532C28.5138 186.824 32.2277 181.335 33.9989 177.699H35.3385Z" fill="#101010"/>
<path d="M35.3386 150.756V162.116H21.7253V161.589C28.5139 159.881 32.2279 154.392 33.999 150.756H35.3386Z" fill="#101010"/>
<path d="M23.5372 175.587V176.108C16.7487 177.821 13.0279 183.311 11.2636 186.941H9.92395V175.587H23.5372Z" fill="#101010"/>
<path d="M9.92395 164.228V175.587H-3.68933V175.061C3.09924 173.353 6.81318 167.863 8.58431 164.228H9.92395Z" fill="#101010"/>
</g>
<mask id="mask72_295_6615" style="mask-type:luminance" maskUnits="userSpaceOnUse" x="-16" y="189" width="52" height="27">
<path d="M35.3387 189.057H-15.4908V216H35.3387V189.057Z" fill="white"/>
</mask>
<g mask="url(#mask72_295_6615)">
<path d="M35.3386 177.699V189.059H21.7253V188.532C28.5139 186.824 32.2279 181.335 33.999 177.699H35.3386Z" fill="#101010"/>
<path d="M9.92395 191.171V202.53H-3.68933V202.004C3.09924 200.296 6.81318 194.806 8.58431 191.171H9.92395Z" fill="#101010"/>
</g>
<g opacity="0.5" filter="url(#filter0_f_295_6615)">
<ellipse cx="183.763" cy="95.204" rx="183.763" ry="95.204" transform="matrix(0.941227 -0.337774 0.493662 0.869654 -339 20.1403)" fill="#D394F8"/>
</g>
<g filter="url(#filter1_f_295_6615)">
<ellipse cx="188.366" cy="91.8851" rx="188.366" ry="91.8851" transform="matrix(0.987119 0.159989 -0.248342 0.968672 73.5215 136.556)" fill="#101010"/>
</g>
<path d="M422.438 96.949V102.457C365.23 120.576 333.876 178.616 319.008 217H307.719V96.949H422.438Z" fill="#BD52FD"/>
<path d="M307.719 -23.1589V96.9491H193V91.3843C250.207 73.3225 281.504 15.2817 296.43 -23.1589H307.719Z" fill="#BD52FD"/>
<path d="M270.401 153.137V154.199C259.373 157.692 253.328 168.88 250.462 176.279H248.286V153.137H270.401Z" fill="#BD52FD"/>
<path d="M248.286 129.984V153.137H226.172V152.064C237.2 148.583 243.233 137.394 246.11 129.984H248.286Z" fill="#BD52FD"/>
<path d="M377.656 46.4348V47.4966C366.628 50.9893 360.584 62.1779 357.718 69.5772H355.541V46.4348H377.656Z" fill="#BD52FD"/>
<path d="M355.541 23.2814V46.4348H333.427V45.3621C344.455 41.8803 350.488 30.6917 353.365 23.2814H355.541Z" fill="#BD52FD"/>
<g opacity="0.5" filter="url(#filter2_f_295_6615)">
<ellipse cx="183.763" cy="95.204" rx="183.763" ry="95.204" transform="matrix(0.941227 -0.337774 0.493662 0.869654 165.753 195.417)" fill="#BD52FD"/>
</g>
</g>
<defs>
<filter id="filter0_f_295_6615" x="-448.318" y="-212.619" width="658.558" height="506.968" filterUnits="userSpaceOnUse" color-interpolation-filters="sRGB">
<feFlood flood-opacity="0" result="BackgroundImageFix"/>
<feBlend mode="normal" in="SourceGraphic" in2="BackgroundImageFix" result="shape"/>
<feGaussianBlur stdDeviation="75" result="effect1_foregroundBlur_295_6615"/>
</filter>
<filter id="filter1_f_295_6615" x="-100.712" y="11.7035" width="674.708" height="487.991" filterUnits="userSpaceOnUse" color-interpolation-filters="sRGB">
<feFlood flood-opacity="0" result="BackgroundImageFix"/>
<feBlend mode="normal" in="SourceGraphic" in2="BackgroundImageFix" result="shape"/>
<feGaussianBlur stdDeviation="75" result="effect1_foregroundBlur_295_6615"/>
</filter>
<filter id="filter2_f_295_6615" x="56.4347" y="-37.3425" width="658.558" height="506.968" filterUnits="userSpaceOnUse" color-interpolation-filters="sRGB">
<feFlood flood-opacity="0" result="BackgroundImageFix"/>
<feBlend mode="normal" in="SourceGraphic" in2="BackgroundImageFix" result="shape"/>
<feGaussianBlur stdDeviation="75" result="effect1_foregroundBlur_295_6615"/>
</filter>
<linearGradient id="paint0_linear_295_6615" x1="578.585" y1="-75.5454" x2="93.0947" y2="330.465" gradientUnits="userSpaceOnUse">
<stop stop-color="#2D2F36"/>
<stop offset="1"/>
</linearGradient>
</defs>
</svg>
