<svg width="36" height="35" viewBox="0 0 36 35" fill="none" xmlns="http://www.w3.org/2000/svg">
<path d="M14.6202 5.3146C14.6202 3.42993 16.1535 1.89663 18.0381 1.89663H19.221L18.8642 0.904736C18.6635 0.346924 18.1379 0 17.5776 0C17.4223 0 17.2644 0.0266602 17.1101 0.0828516L5.15724 4.43331C4.44664 4.69198 4.08092 5.47832 4.34109 6.18837L4.97267 7.91226H14.6202V5.3146Z" fill="#4C4D4F"/>
<path d="M18.0381 3.94739C17.283 3.94739 16.6709 4.55948 16.6709 5.31458V7.91223H28.6338V5.31458C28.6338 4.55948 28.0217 3.94739 27.2666 3.94739H18.0381ZM32.2568 27.6339H27.4717C24.6447 27.6339 22.3447 25.334 22.3447 22.507C22.3447 19.68 24.6447 17.38 27.4717 17.38H32.2568V12.6974C32.2568 11.1873 31.0326 9.96301 29.5225 9.96301H3.06738C1.55726 9.96301 0.333008 11.1873 0.333008 12.6974V32.2656C0.333008 33.7757 1.55726 35 3.06738 35H29.5225C31.0326 35 32.2568 33.7757 32.2568 32.2656V27.6339Z" fill="#4C4D4F"/>
<path d="M34.3076 19.4308H27.4717C25.7755 19.4308 24.3955 20.8108 24.3955 22.507C24.3955 24.2032 25.7755 25.5831 27.4717 25.5831H34.3076C34.873 25.5831 35.333 25.1231 35.333 24.5577V20.4562C35.333 19.8908 34.873 19.4308 34.3076 19.4308ZM27.4717 23.5323C26.9054 23.5323 26.4463 23.0732 26.4463 22.507C26.4463 21.9407 26.9054 21.4816 27.4717 21.4816C28.038 21.4816 28.4971 21.9407 28.4971 22.507C28.4971 23.0732 28.038 23.5323 27.4717 23.5323Z" fill="#4C4D4F"/>
</svg>
