<svg width="16" height="13" viewBox="0 0 16 13" fill="none" xmlns="http://www.w3.org/2000/svg">
<path d="M5.357 5.80482C5.93107 5.80482 6.49224 5.63459 6.96955 5.31564C7.44686 4.9967 7.81887 4.54338 8.03853 4.013C8.25819 3.48262 8.31564 2.89902 8.20361 2.33599C8.09158 1.77297 7.8151 1.25581 7.40914 0.849918C7.00318 0.444029 6.48597 0.167641 5.92292 0.0557085C5.35988 -0.0562243 4.77628 0.00132534 4.24595 0.22108C3.71561 0.440834 3.26235 0.812923 2.94349 1.29029C2.62463 1.76765 2.45449 2.32886 2.45459 2.90292C2.4554 3.67239 2.76146 4.41011 3.30561 4.95416C3.84976 5.49822 4.58753 5.80415 5.357 5.80482ZM9.15375 8.20242C8.41828 7.44804 7.47463 6.93003 6.44334 6.71454C5.41204 6.49906 4.33992 6.59589 3.36392 6.99266C2.38792 7.38944 1.55236 8.06815 0.963955 8.9421C0.375551 9.81605 0.0610229 10.8456 0.0605469 11.8991C0.0605469 12.0338 0.114053 12.163 0.209295 12.2582C0.304537 12.3535 0.433713 12.407 0.568405 12.407H10.1466C10.2813 12.407 10.4105 12.3535 10.5057 12.2582C10.601 12.163 10.6545 12.0338 10.6545 11.8991C10.6564 11.3606 10.5733 10.8252 10.4082 10.3126C10.1623 9.52012 9.73243 8.79706 9.15375 8.20242Z" fill="#595063"/>
<path d="M11.4874 6.05877C12.6794 6.05877 13.6458 5.09242 13.6458 3.90037C13.6458 2.70832 12.6794 1.74197 11.4874 1.74197C10.2953 1.74197 9.32898 2.70832 9.32898 3.90037C9.32898 5.09242 10.2953 6.05877 11.4874 6.05877Z" fill="#595063"/>
<path d="M11.4874 6.65289C10.8066 6.65545 10.139 6.84085 9.55444 7.1897C9.66465 7.28822 9.77587 7.38523 9.87998 7.49188C10.5715 8.20265 11.0852 9.06682 11.3792 10.0139C11.4799 10.3257 11.5541 10.6454 11.6011 10.9697H14.7884C14.9231 10.9697 15.0523 10.9162 15.1475 10.8209C15.2428 10.7257 15.2963 10.5965 15.2963 10.4618C15.2952 9.45197 14.8936 8.48377 14.1795 7.76969C13.4654 7.05561 12.4972 6.65397 11.4874 6.65289Z" fill="#595063"/>
</svg>
