<svg width="37" height="39" viewBox="0 0 37 39" fill="none" xmlns="http://www.w3.org/2000/svg">
<path d="M35.9032 18.4415V17.7088L35.2045 17.488C27.4729 15.0445 23.1279 7.1207 21.0037 1.63869L20.7562 1H20.0713H16.8319H16.1469L15.8995 1.63869C13.7753 7.1207 9.43028 15.0445 1.69866 17.488L1 17.7088V18.4415V20.0294V20.7615L1.69787 20.9827C9.43058 23.4335 13.7831 31.3587 15.8992 36.8307L16.1465 37.47H16.8319H20.0713H20.7567L21.004 36.8307C23.1201 31.3587 27.4726 23.4335 35.2053 20.9827L35.9032 20.7615V20.0294V18.4415Z" fill="url(#paint0_linear_295_9970)" stroke="url(#paint1_linear_295_9970)" stroke-width="2"/>
<path d="M34.9028 19.2349V20.0225C26.64 22.6231 22.1146 30.9562 19.9717 36.4699H18.3393V19.2349H34.9028Z" fill="url(#paint2_linear_295_9970)"/>
<path d="M18.3397 2V19.235H2V18.4351C10.1512 15.848 14.6092 7.51795 16.7293 2H18.3397Z" fill="url(#paint3_linear_295_9970)"/>
<path d="M14.7969 21.3087L14.7042 21.3898L14.6953 21.5126L14.4391 25.0251L14.4157 25.3469H14.7383C14.9679 25.3469 15.1507 25.2977 15.3091 25.2086C15.4528 25.1279 15.5643 25.0198 15.6532 24.9336L15.6605 24.9266L17.1971 23.4948L20.5577 25.8943L20.5726 25.905L20.5888 25.9137C20.9503 26.1102 21.3339 26.1987 21.6765 26.0474C22.0205 25.8955 22.2158 25.5496 22.3132 25.1328L22.3132 25.1328L22.3141 25.1286L24.6317 14.5406L24.6323 14.5401L24.6515 14.4525C24.7669 13.9281 24.6881 13.4728 24.3874 13.1907C24.0861 12.9079 23.6566 12.8879 23.271 13.0278L23.271 13.0278L23.2685 13.0288L9.53266 18.156L9.53139 18.1565C9.27761 18.2525 9.06858 18.366 8.91493 18.4973C8.76342 18.6267 8.63987 18.7967 8.62111 19.0041C8.60139 19.2221 8.70373 19.4048 8.84693 19.5353C8.98579 19.6619 9.17585 19.7542 9.39115 19.8193C9.39117 19.8193 9.3912 19.8193 9.39122 19.8193C9.39129 19.8193 9.39136 19.8193 9.39143 19.8194L12.9028 20.8842L13.0314 20.9232L13.1461 20.8532L20.3076 16.4843L14.7969 21.3087Z" fill="#0F1013" stroke="#F6F6F6" stroke-width="0.6"/>
<defs>
<linearGradient id="paint0_linear_295_9970" x1="18.4516" y1="2" x2="34.9032" y2="43.7445" gradientUnits="userSpaceOnUse">
<stop stop-color="#EAEAEA"/>
<stop offset="1" stop-color="#9A9A9A"/>
</linearGradient>
<linearGradient id="paint1_linear_295_9970" x1="30.5385" y1="-0.462142" x2="6.02896" y2="34.4555" gradientUnits="userSpaceOnUse">
<stop stop-color="white"/>
<stop offset="1" stop-color="#DEDEDE"/>
</linearGradient>
<linearGradient id="paint2_linear_295_9970" x1="26.621" y1="19.2349" x2="26.621" y2="36.4699" gradientUnits="userSpaceOnUse">
<stop stop-color="#DEDEDE"/>
<stop offset="1" stop-color="#F4F4F4"/>
</linearGradient>
<linearGradient id="paint3_linear_295_9970" x1="10.1698" y1="2" x2="10.1698" y2="19.235" gradientUnits="userSpaceOnUse">
<stop stop-color="#DEDEDE"/>
<stop offset="1" stop-color="#F4F4F4"/>
</linearGradient>
</defs>
</svg>
