<svg width="14" height="17" viewBox="0 0 14 17" fill="none" xmlns="http://www.w3.org/2000/svg">
<path d="M12.6835 11.0717C12.1951 10.6597 11.8027 10.146 11.5337 9.5665C11.2647 8.98698 11.1256 8.35567 11.1261 7.71676V5.89165C11.1261 3.58802 9.41492 1.68109 7.19835 1.36163V0.654628C7.19835 0.48101 7.12938 0.314503 7.00661 0.191736C6.88384 0.0689696 6.71734 0 6.54372 0C6.3701 0 6.20359 0.0689696 6.08083 0.191736C5.95806 0.314503 5.88909 0.48101 5.88909 0.654628V1.36163C3.67186 1.68109 1.96132 3.58802 1.96132 5.89165V7.71676C1.96157 8.35696 1.82177 8.98948 1.55173 9.56994C1.28168 10.1504 0.887924 10.6648 0.398068 11.077C0.22103 11.2296 0.0948463 11.4326 0.0364154 11.6589C-0.0220156 11.8853 -0.00990437 12.124 0.0711272 12.3433C0.152159 12.5625 0.298242 12.7518 0.489814 12.8857C0.681385 13.0196 0.9093 13.0918 1.14303 13.0926H11.9444C12.5761 13.0926 13.09 12.5787 13.09 11.947C13.09 11.6118 12.944 11.295 12.6835 11.0717ZM6.54372 16.4015C7.10933 16.4007 7.65738 16.205 8.09549 15.8472C8.5336 15.4895 8.83498 14.9917 8.94882 14.4376H4.13861C4.25246 14.9917 4.55384 15.4895 4.99195 15.8472C5.43006 16.205 5.97811 16.4007 6.54372 16.4015Z" fill="#A8A9AB"/>
</svg>
