<svg width="344" height="244" viewBox="0 0 344 244" fill="none" xmlns="http://www.w3.org/2000/svg">
<g opacity="0.2">
<mask id="mask0_584_31299" style="mask-type:alpha" maskUnits="userSpaceOnUse" x="-229" y="-330" width="1076" height="684">
<rect x="-228.215" y="-330" width="1074.57" height="683.818" rx="25" fill="url(#paint0_linear_584_31299)"/>
</mask>
<g mask="url(#mask0_584_31299)">
<path d="M234.365 482.299L355.242 218.534H369.462L287.288 395.97H345.821L242.301 499.49L234.365 482.299Z" fill="#191A1E"/>
<path d="M233.379 714.029L460.165 487.232H349.728L504.799 152.387H477.948L220.416 714.288L233.379 714.029Z" fill="#191A1E"/>
<path d="M-76.6617 292.387L195.319 191.35L205.385 201.405L21.8099 268.767L63.2033 310.16H-83.1953L-76.6617 292.387Z" fill="#191A1E"/>
<path d="M-241.206 455.541H79.5226L1.43083 377.449L347.847 250.329L328.87 231.341L-250.555 446.566L-241.206 455.541Z" fill="#191A1E"/>
<path d="M-162.297 -61.8194L101.467 59.0576V73.2778L-75.9581 -8.89615V49.6363L-179.488 -53.8835L-162.297 -61.8194Z" fill="#191A1E"/>
<path d="M-394.015 -62.8065L-167.229 163.979V53.5416L167.616 208.603V181.762L-394.285 -75.7699L-394.015 -62.8065Z" fill="#191A1E"/>
<path d="M-135.537 -537.392V-216.664L-57.4454 -294.755L69.6744 51.6612L88.6624 32.6835L-126.562 -546.741L-135.537 -537.392Z" fill="#191A1E"/>
<path d="M284.15 140.38L317.161 68.3442H321.046L298.609 116.801H314.596L286.321 145.075L284.15 140.38Z" fill="#191A1E"/>
<path d="M281.055 149.646L287.838 164.447H291.723L283.88 147.516L282.374 144.255L269.276 115.991H285.262L252.448 83.1669L250.568 83.1357L280.473 148.389L281.055 149.646Z" fill="#191A1E"/>
<path d="M283.88 203.67L345.819 141.73H315.655L358.004 50.2803H350.681L280.338 203.742L283.88 203.67Z" fill="#191A1E"/>
<path d="M199.203 88.5161L273.482 60.917L276.235 63.6697L226.095 82.0655L237.407 93.3669H197.416L199.203 88.5161Z" fill="#191A1E"/>
<path d="M190.468 92.8677L184.797 108.137L187.539 110.89L193.969 93.3663L195.205 90.0008L205.935 60.7502L217.236 72.0516V25.6411L215.938 24.2804L190.946 91.5797L190.468 92.8677Z" fill="#191A1E"/>
<path d="M154.258 133.077H241.854L220.529 111.742L315.147 77.0273L309.963 71.8441L151.713 130.626L154.258 133.077Z" fill="#191A1E"/>
<path d="M175.812 -8.23251L247.859 24.7888V28.6736L199.391 6.22659V22.2127L171.117 -6.06154L175.812 -8.23251Z" fill="#191A1E"/>
<path d="M112.534 -8.50192L174.473 53.448V23.2833L265.923 65.6322V58.2988L112.461 -12.0336L112.534 -8.50192Z" fill="#191A1E"/>
<path d="M183.123 -138.114V-50.5183L204.448 -71.8434L239.173 22.7641L244.356 17.5809L185.574 -140.67L183.123 -138.114Z" fill="#191A1E"/>
<path d="M496.042 32.3203L434.102 -29.6192V0.535141L342.652 -41.8139V-34.4804L496.114 35.852L496.042 32.3203Z" fill="#191A1E"/>
<path d="M385.251 125.734L400.521 131.405L403.263 128.653L385.74 122.223L382.374 120.987L353.134 110.257L364.435 98.9552H318.014L316.664 100.264L383.953 125.256L385.251 125.734Z" fill="#191A1E"/>
</g>
</g>
<defs>
<linearGradient id="paint0_linear_584_31299" x1="1231.25" y1="-589.851" x2="-276.082" y2="340.142" gradientUnits="userSpaceOnUse">
<stop stop-color="#2D2F36"/>
<stop offset="1"/>
</linearGradient>
</defs>
</svg>
