<svg width="15" height="13" viewBox="0 0 15 13" fill="none" xmlns="http://www.w3.org/2000/svg">
<path d="M6.12248 11.3264C6.10331 11.2754 6.09671 11.2321 6.10321 11.197C6.10968 11.1621 6.0874 11.1332 6.0363 11.111C5.9852 11.0887 5.95971 11.0711 5.95971 11.0585C5.95971 11.0458 5.92308 11.0361 5.84967 11.0298C5.77629 11.0234 5.73967 11.0202 5.73967 11.0202H2.75504C2.33413 11.0202 1.97377 10.8705 1.67399 10.5705C1.37427 10.2708 1.22443 9.91049 1.22443 9.48965V2.75491C1.22443 2.334 1.37424 1.97377 1.67399 1.67402C1.97377 1.37424 2.33413 1.22429 2.75504 1.22429H5.81623C5.89916 1.22429 5.96436 1.20372 6.01231 1.16217C6.06006 1.12073 6.09189 1.0585 6.1079 0.975609C6.12385 0.892714 6.13347 0.817861 6.13669 0.750881C6.13984 0.683969 6.1383 0.599398 6.13186 0.497371C6.12553 0.395377 6.12235 0.331614 6.12235 0.305982C6.12235 0.223086 6.09202 0.151483 6.03148 0.0907692C5.97086 0.0303234 5.89916 0 5.81626 0H2.75504C1.99618 0 1.34723 0.269459 0.808278 0.808345C0.269459 1.34723 0 1.99608 0 2.75501V9.48962C0 10.2485 0.269459 10.8975 0.808278 11.4362C1.34723 11.9753 1.99618 12.2448 2.75504 12.2448H5.81636C5.89929 12.2448 5.96453 12.224 6.01244 12.1827C6.06019 12.1412 6.09202 12.079 6.10804 11.996C6.12399 11.9132 6.1336 11.838 6.13682 11.7713C6.13997 11.7043 6.13843 11.6199 6.132 11.5179C6.1256 11.4157 6.12248 11.352 6.12248 11.3264Z" fill="#626365"/>
<path d="M14.8183 5.69189L9.61424 0.487693C9.49314 0.366668 9.3496 0.305954 9.18378 0.305954C9.01795 0.305954 8.87441 0.366668 8.75319 0.487693C8.63199 0.608886 8.57145 0.752529 8.57145 0.918252V3.67336H4.28576C4.11984 3.67336 3.97639 3.73407 3.8552 3.8551C3.73401 3.97629 3.67346 4.11983 3.67346 4.28566V7.95918C3.67346 8.12497 3.73401 8.26851 3.8552 8.38964C3.97653 8.5106 4.11994 8.57148 4.28576 8.57148H8.57148V11.3266C8.57148 11.4922 8.63203 11.6359 8.75322 11.757C8.87441 11.8782 9.01795 11.9389 9.18381 11.9389C9.3496 11.9389 9.49314 11.8782 9.61427 11.757L14.8183 6.55304C14.9395 6.43175 15 6.28841 15 6.12255C15 5.95676 14.9395 5.81309 14.8183 5.69189Z" fill="#626365"/>
</svg>
