<svg width="18" height="16" viewBox="0 0 18 16" fill="none" xmlns="http://www.w3.org/2000/svg">
<path d="M5.73307 6.5996L10.2981 0.681221C10.4611 0.468975 10.6709 0.297125 10.9111 0.178991C11.1512 0.0608565 11.4154 -0.000388587 11.683 1.85515e-06C12.2302 1.85515e-06 12.7364 0.249967 13.0702 0.681221L17.6355 6.5996C17.8717 6.90598 17.9999 7.28199 17.9999 7.6689C17.9999 8.0558 17.8717 8.43181 17.6355 8.73819L13.0704 14.6566C12.9071 14.8691 12.697 15.0411 12.4564 15.1592C12.2158 15.2773 11.9513 15.3385 11.6833 15.3378C11.4157 15.3381 11.1516 15.2769 10.9114 15.1587C10.6713 15.0406 10.4616 14.8688 10.2986 14.6566L5.73307 8.73819C5.4968 8.43181 5.36865 8.0558 5.36865 7.6689C5.36865 7.28199 5.4968 6.90598 5.73307 6.5996Z" fill="#78797B"/>
<path d="M3.04829 6.59905L7.61433 0.681433C7.77744 0.469096 7.98737 0.297271 8.22775 0.179334C8.46813 0.0613974 8.73249 0.000531777 9.00025 0.00147566V0.909432C8.87138 0.908994 8.74415 0.938292 8.62845 0.995047C8.51275 1.0518 8.4117 1.13448 8.33317 1.23666L3.76763 7.15327C3.65394 7.30104 3.59228 7.48224 3.59224 7.66869C3.59219 7.85513 3.65376 8.03636 3.76738 8.18419L8.33266 14.1005C8.41118 14.2028 8.51225 14.2856 8.628 14.3425C8.74374 14.3993 8.87105 14.4287 9 14.4283V15.3362C8.73216 15.3371 8.46774 15.2762 8.22731 15.1582C7.98688 15.0401 7.77694 14.8682 7.61382 14.6558L3.04829 8.73841C2.8124 8.4317 2.68452 8.05561 2.68457 7.66869C2.68462 7.28176 2.81233 6.9057 3.04829 6.59905Z" fill="#78797B"/>
<path d="M0.363972 6.5993L4.93026 0.681677C5.09338 0.46934 5.3033 0.297515 5.54368 0.179578C5.78407 0.0616416 6.04843 0.000775918 6.31618 0.0017198V0.909676C6.18731 0.909238 6.06008 0.938536 5.94438 0.995291C5.82868 1.05205 5.72764 1.13473 5.6491 1.2369L1.08332 7.15351C0.969627 7.30128 0.907963 7.48249 0.907917 7.66893C0.907872 7.85537 0.969447 8.03661 1.08306 8.18443L5.6486 14.1008C5.72712 14.2031 5.82819 14.2859 5.94393 14.3427C6.05968 14.3996 6.18698 14.4289 6.31593 14.4285V15.3365C6.0481 15.3374 5.78367 15.2764 5.54325 15.1584C5.30282 15.0404 5.09287 14.8685 4.92976 14.656L0.363719 8.73865C0.127829 8.43194 -4.56536e-05 8.05586 1.22267e-08 7.66893C4.56781e-05 7.282 0.128009 6.90595 0.363972 6.5993Z" fill="#78797B"/>
</svg>
