<svg width="18" height="18" viewBox="0 0 18 18" fill="none" xmlns="http://www.w3.org/2000/svg">
<g clip-path="url(#clip0_790_87167)">
<path d="M5.39182 7.82757L6.77012 12.0696H11.2306L12.6089 7.82757L9.00036 5.20573L5.39182 7.82757ZM10.6631 0.153457C10.1177 0.0514687 9.56156 0 9.00036 0C8.43916 0 7.88303 0.0514687 7.33761 0.153457L9.00036 1.36146L10.6631 0.153457ZM16.8999 4.6857L16.2651 6.63964L17.9274 7.8474C17.7855 6.73527 17.4384 5.66708 16.8999 4.6857ZM12.8549 17.1352C13.865 16.6569 14.7732 15.9961 15.5424 15.1796H13.4902L12.8549 17.1352ZM1.10079 4.6857C0.562336 5.66708 0.215238 6.73527 0.0733125 7.8474L1.73564 6.63964L1.10079 4.6857ZM2.45831 15.1796C3.2275 15.9961 4.13572 16.6569 5.1459 17.1352L4.51052 15.1796H2.45831ZM9.52771 4.28523L13.3214 7.04162L15.2266 6.42263L16.1592 3.55236C15.1012 2.16531 13.65 1.09382 11.9734 0.505301L9.52771 2.28199V4.28523ZM15.5525 7.42563L13.6474 8.04463L12.1983 12.5043L13.3758 14.1249H16.3943C17.3702 12.7212 17.9573 11.0281 17.9978 9.20222L15.5525 7.42563ZM6.65569 13.1243L5.47823 14.7448L6.41244 17.6202C7.23243 17.8668 8.10107 18 9.00036 18C9.89966 18 10.7683 17.8668 11.5883 17.6202L12.5225 14.7449L11.345 13.1243H6.65569ZM4.67931 7.04159L8.47302 4.28523V2.28199L6.02738 0.505266C4.3507 1.09378 2.89956 2.16527 1.8415 3.55233L2.77412 6.42259L4.67931 7.04159ZM5.80245 12.5043L4.35337 8.04463L2.44822 7.42563L0.00292969 9.20222C0.0433945 11.0281 0.630504 12.7212 1.60641 14.1249H4.62499L5.80245 12.5043Z" fill="#A8A9AB"/>
</g>
<defs>
<clipPath id="clip0_790_87167">
<rect width="18" height="18" fill="white"/>
</clipPath>
</defs>
</svg>
