<svg width="20" height="20" viewBox="0 0 20 20" fill="none" xmlns="http://www.w3.org/2000/svg">
<g clip-path="url(#clip0_295_6597)">
<path d="M10.5556 8.05556H2.22222C1.85391 8.0557 1.50072 8.20208 1.24029 8.46251C0.979852 8.72295 0.833475 9.07613 0.833328 9.44444V17.7778C0.833475 18.1461 0.979852 18.4993 1.24029 18.7597C1.50072 19.0201 1.85391 19.1665 2.22222 19.1667H10.5556C10.9239 19.1665 11.277 19.0201 11.5375 18.7597C11.7979 18.4993 11.9443 18.1461 11.9444 17.7778V9.44444C11.9443 9.07613 11.7979 8.72295 11.5375 8.46251C11.277 8.20208 10.9239 8.0557 10.5556 8.05556ZM3.61111 17.5C3.39135 17.5 3.17653 17.4348 2.99381 17.3127C2.81108 17.1907 2.66867 17.0171 2.58457 16.8141C2.50048 16.6111 2.47847 16.3877 2.52134 16.1721C2.56422 15.9566 2.67004 15.7586 2.82543 15.6032C2.98082 15.4478 3.1788 15.342 3.39434 15.2991C3.60987 15.2563 3.83328 15.2783 4.03631 15.3624C4.23934 15.4465 4.41287 15.5889 4.53496 15.7716C4.65705 15.9543 4.72222 16.1691 4.72222 16.3889C4.72225 16.5348 4.69354 16.6793 4.63771 16.8141C4.58189 16.949 4.50005 17.0715 4.39686 17.1746C4.29368 17.2778 4.17118 17.3597 4.03635 17.4155C3.90153 17.4713 3.75703 17.5 3.61111 17.5ZM6.38888 14.7222C6.16913 14.7222 5.95431 14.6571 5.77158 14.535C5.58886 14.4129 5.44645 14.2393 5.36235 14.0363C5.27825 13.8333 5.25625 13.6099 5.29912 13.3943C5.34199 13.1788 5.44782 12.9808 5.60321 12.8254C5.7586 12.67 5.95658 12.5642 6.17212 12.5213C6.38765 12.4785 6.61106 12.5005 6.81409 12.5846C7.01712 12.6687 7.19065 12.8111 7.31274 12.9938C7.43483 13.1765 7.5 13.3914 7.5 13.6111C7.50003 13.757 7.47132 13.9015 7.41549 14.0364C7.35967 14.1712 7.27782 14.2937 7.17464 14.3969C7.07146 14.5001 6.94895 14.5819 6.81413 14.6377C6.67931 14.6935 6.53481 14.7223 6.38888 14.7222ZM9.16666 11.9444C8.94691 11.9444 8.73208 11.8793 8.54936 11.7572C8.36664 11.6351 8.22423 11.4616 8.14013 11.2585C8.05603 11.0555 8.03403 10.8321 8.0769 10.6166C8.11977 10.401 8.2256 10.2031 8.38099 10.0477C8.53638 9.89227 8.73436 9.78644 8.94989 9.74357C9.16543 9.7007 9.38884 9.7227 9.59187 9.8068C9.7949 9.8909 9.96843 10.0333 10.0905 10.216C10.2126 10.3988 10.2778 10.6136 10.2778 10.8333C10.2778 10.9793 10.2491 11.1238 10.1933 11.2586C10.1374 11.3934 10.0556 11.5159 9.95242 11.6191C9.84923 11.7223 9.72673 11.8041 9.59191 11.8599C9.45709 11.9158 9.31259 11.9445 9.16666 11.9444Z" fill="#A8A9AB"/>
<path d="M17.7778 0.833333H9.44445C9.07614 0.83348 8.72295 0.979857 8.46252 1.24029C8.20208 1.50073 8.0557 1.85391 8.05556 2.22222V7.5H10.5556C11.0711 7.50059 11.5653 7.70564 11.9298 8.07016C12.2944 8.43469 12.4994 8.92893 12.5 9.44444V11.9444H17.7778C18.1461 11.9443 18.4993 11.7979 18.7597 11.5375C19.0201 11.2771 19.1665 10.9239 19.1667 10.5556V2.22222C19.1665 1.85391 19.0201 1.50073 18.7597 1.24029C18.4993 0.979857 18.1461 0.83348 17.7778 0.833333ZM11.3889 7.5C11.1691 7.5 10.9543 7.43483 10.7716 7.31274C10.5889 7.19065 10.4465 7.01712 10.3624 6.81409C10.2783 6.61106 10.2563 6.38766 10.2991 6.17212C10.342 5.95659 10.4478 5.75861 10.6032 5.60321C10.7586 5.44782 10.9566 5.342 11.1721 5.29913C11.3877 5.25625 11.6111 5.27826 11.8141 5.36236C12.0171 5.44645 12.1907 5.58887 12.3127 5.77159C12.4348 5.95431 12.5 6.16913 12.5 6.38889C12.5 6.53481 12.4713 6.67931 12.4155 6.81414C12.3597 6.94896 12.2778 7.07146 12.1746 7.17464C12.0715 7.27783 11.949 7.35967 11.8141 7.4155C11.6793 7.47132 11.5348 7.50004 11.3889 7.5ZM11.3889 4.72222C11.1691 4.72222 10.9543 4.65706 10.7716 4.53497C10.5889 4.41288 10.4465 4.23934 10.3624 4.03631C10.2783 3.83329 10.2563 3.60988 10.2991 3.39434C10.342 3.17881 10.4478 2.98083 10.6032 2.82544C10.7586 2.67004 10.9566 2.56422 11.1721 2.52135C11.3877 2.47848 11.6111 2.50048 11.8141 2.58458C12.0171 2.66868 12.1907 2.81109 12.3127 2.99381C12.4348 3.17653 12.5 3.39135 12.5 3.61111C12.5 3.75703 12.4713 3.90154 12.4155 4.03636C12.3597 4.17118 12.2778 4.29368 12.1746 4.39687C12.0715 4.50005 11.949 4.58189 11.8141 4.63772C11.6793 4.69354 11.5348 4.72226 11.3889 4.72222ZM15.8333 10.2778C15.6136 10.2778 15.3988 10.2126 15.216 10.0905C15.0333 9.96843 14.8909 9.7949 14.8068 9.59187C14.7227 9.38884 14.7007 9.16543 14.7436 8.9499C14.7864 8.73437 14.8923 8.53638 15.0477 8.38099C15.2031 8.2256 15.401 8.11978 15.6166 8.07691C15.8321 8.03403 16.0555 8.05604 16.2585 8.14013C16.4616 8.22423 16.6351 8.36665 16.7572 8.54937C16.8793 8.73209 16.9444 8.94691 16.9444 9.16667C16.9445 9.31259 16.9158 9.45709 16.8599 9.59191C16.8041 9.72674 16.7223 9.84924 16.6191 9.95242C16.5159 10.0556 16.3934 10.1374 16.2586 10.1933C16.1238 10.2491 15.9793 10.2778 15.8333 10.2778ZM15.8333 7.5C15.6136 7.5 15.3988 7.43483 15.216 7.31274C15.0333 7.19065 14.8909 7.01712 14.8068 6.81409C14.7227 6.61106 14.7007 6.38766 14.7436 6.17212C14.7864 5.95659 14.8923 5.75861 15.0477 5.60321C15.2031 5.44782 15.401 5.342 15.6166 5.29913C15.8321 5.25625 16.0555 5.27826 16.2585 5.36236C16.4616 5.44645 16.6351 5.58887 16.7572 5.77159C16.8793 5.95431 16.9444 6.16913 16.9444 6.38889C16.9445 6.53481 16.9158 6.67931 16.8599 6.81414C16.8041 6.94896 16.7223 7.07146 16.6191 7.17464C16.5159 7.27783 16.3934 7.35967 16.2586 7.4155C16.1238 7.47132 15.9793 7.50004 15.8333 7.5ZM15.8333 4.72222C15.6136 4.72222 15.3988 4.65706 15.216 4.53497C15.0333 4.41288 14.8909 4.23934 14.8068 4.03631C14.7227 3.83329 14.7007 3.60988 14.7436 3.39434C14.7864 3.17881 14.8923 2.98083 15.0477 2.82544C15.2031 2.67004 15.401 2.56422 15.6166 2.52135C15.8321 2.47848 16.0555 2.50048 16.2585 2.58458C16.4616 2.66868 16.6351 2.81109 16.7572 2.99381C16.8793 3.17653 16.9444 3.39135 16.9444 3.61111C16.9445 3.75703 16.9158 3.90154 16.8599 4.03636C16.8041 4.17118 16.7223 4.29368 16.6191 4.39687C16.5159 4.50005 16.3934 4.58189 16.2586 4.63772C16.1238 4.69354 15.9793 4.72226 15.8333 4.72222Z" fill="#A8A9AB"/>
</g>
<defs>
<clipPath id="clip0_295_6597">
<rect width="20" height="20" fill="white"/>
</clipPath>
</defs>
</svg>
