<svg width="39" height="52" viewBox="0 0 39 52" fill="none" xmlns="http://www.w3.org/2000/svg">
<path d="M33.9413 19.8396H32.3531V13.4866C32.3531 6.47935 26.6545 0.780762 19.6472 0.780762C12.6399 0.780762 6.94132 6.47935 6.94132 13.4866V19.8396H5.35309C4.08992 19.8413 2.87898 20.3438 1.98579 21.237C1.09259 22.1302 0.59006 23.3411 0.588379 24.6043V46.8396C0.588379 49.4676 2.7272 51.6043 5.35309 51.6043H33.9413C36.5672 51.6043 38.706 49.4676 38.706 46.8396V24.6043C38.706 21.9763 36.5672 19.8396 33.9413 19.8396ZM11.1766 13.4866C11.1766 8.81511 14.9757 5.01606 19.6472 5.01606C24.3187 5.01606 28.1178 8.81511 28.1178 13.4866V19.8396H11.1766V13.4866ZM21.7649 36.1921V41.0161C21.7649 41.5777 21.5417 42.1163 21.1446 42.5135C20.7475 42.9106 20.2088 43.1337 19.6472 43.1337C19.0856 43.1337 18.5469 42.9106 18.1498 42.5135C17.7527 42.1163 17.5296 41.5777 17.5296 41.0161V36.1921C16.2696 35.4572 15.4119 34.1062 15.4119 32.5455C15.4119 30.2097 17.3114 28.3102 19.6472 28.3102C21.983 28.3102 23.8825 30.2097 23.8825 32.5455C23.8825 34.1062 23.0249 35.4572 21.7649 36.1921Z" fill="white"/>
</svg>
