<svg width="18" height="18" viewBox="0 0 18 18" fill="none" xmlns="http://www.w3.org/2000/svg">
<g clip-path="url(#clip0_295_6604)">
<path d="M5.39174 7.82757L6.77004 12.0696H11.2305L12.6088 7.82757L9.00029 5.20573L5.39174 7.82757ZM10.663 0.153457C10.1176 0.0514687 9.56149 0 9.00029 0C8.43909 0 7.88295 0.0514687 7.33754 0.153457L9.00029 1.36146L10.663 0.153457ZM16.8999 4.6857L16.265 6.63964L17.9273 7.8474C17.7854 6.73527 17.4383 5.66708 16.8999 4.6857ZM12.8548 17.1352C13.8649 16.6569 14.7732 15.9961 15.5424 15.1796H13.4902L12.8548 17.1352ZM1.10071 4.6857C0.56226 5.66708 0.215162 6.73527 0.0732362 7.8474L1.73556 6.63964L1.10071 4.6857ZM2.45824 15.1796C3.22742 15.9961 4.13565 16.6569 5.14583 17.1352L4.51045 15.1796H2.45824ZM9.52763 4.28523L13.3213 7.04162L15.2265 6.42263L16.1592 3.55236C15.1011 2.16531 13.6499 1.09382 11.9733 0.505301L9.52763 2.28199V4.28523ZM15.5524 7.42563L13.6473 8.04463L12.1982 12.5043L13.3757 14.1249H16.3942C17.3701 12.7212 17.9573 11.0281 17.9977 9.20222L15.5524 7.42563ZM6.65561 13.1243L5.47816 14.7448L6.41236 17.6202C7.23235 17.8668 8.10099 18 9.00029 18C9.89958 18 10.7682 17.8668 11.5882 17.6202L12.5224 14.7449L11.3449 13.1243H6.65561ZM4.67923 7.04159L8.47294 4.28523V2.28199L6.0273 0.505266C4.35063 1.09378 2.89948 2.16527 1.84142 3.55233L2.77404 6.42259L4.67923 7.04159ZM5.80237 12.5043L4.3533 8.04463L2.44815 7.42563L0.00285339 9.20222C0.0433182 11.0281 0.630427 12.7212 1.60633 14.1249H4.62492L5.80237 12.5043Z" fill="#A8A9AB"/>
</g>
<defs>
<clipPath id="clip0_295_6604">
<rect width="18" height="18" fill="white"/>
</clipPath>
</defs>
</svg>
