<svg width="68" height="60" viewBox="0 0 68 60" fill="none" xmlns="http://www.w3.org/2000/svg">
<path d="M30.6407 65.1153L28.9681 66.6708C7.30979 54.4145 -19.1714 61.2837 -35.027 67.6083L-38.2151 64.1799L-1.7569 30.2764L30.6407 65.1153Z" fill="#BD52FD"/>
<path d="M34.7184 -3.64281L-1.75711 30.2768L-34.1547 -4.56213L-32.4648 -6.13367C-10.8238 6.13871 15.6412 -0.747857 31.5303 -7.07119L34.7184 -3.64281Z" fill="#BD52FD"/>
<path d="M33.3346 37.2498L33.0121 37.5496C28.837 35.187 23.7322 36.5111 20.6757 37.7303L20.0611 37.0695L27.0892 30.5338L33.3346 37.2498Z" fill="#BD52FD"/>
<path d="M34.1207 23.9951L27.0893 30.5338L20.8439 23.8179L21.1697 23.515C25.3415 25.8807 30.4432 24.5532 33.5061 23.3342L34.1207 23.9951Z" fill="#BD52FD"/>
</svg>
