<svg width="88" height="53" viewBox="0 0 88 53" fill="none" xmlns="http://www.w3.org/2000/svg">
<g clip-path="url(#clip0_1_151)">
<path d="M48.1154 35.1421C47.2905 33.2982 46.0145 31.8738 44.2892 30.8672C42.5622 29.8622 40.4832 29.3589 38.0486 29.3589C35.6141 29.3589 33.5283 29.8672 31.793 30.884C30.0576 31.9007 28.7767 33.3419 27.9501 35.2058C27.1889 36.9641 26.8066 38.9539 26.8066 41.1786C26.8066 42.4503 26.934 43.6415 27.1889 44.7539C27.442 45.8662 27.8126 46.8561 28.3005 47.7252C29.1455 49.4197 30.4014 50.7233 32.0629 51.6326C33.7245 52.5437 35.7198 53 38.0486 53C40.3775 53 42.5589 52.5017 44.2724 51.5068C45.9877 50.5102 47.2586 49.0909 48.0835 47.2487C48.8665 45.4904 49.2589 43.4671 49.2589 41.1786C49.2589 38.8902 48.8783 36.9423 48.1154 35.1421ZM44.4368 41.489C41.2427 42.5023 39.4923 45.7538 38.664 47.903H38.0336V41.1803H31.6287V40.8699C34.8227 39.8582 36.5698 36.6084 37.4015 34.4559H38.0336V41.1803H44.4368V41.489Z" fill="#FDF74B"/>
<path d="M71.6793 29.9629L63.2641 52.396H57.4527L49.0057 29.9629H55.102L60.3416 45.4384L65.6131 29.9629H71.6776H71.6793Z" fill="#FDF74B"/>
<path d="M73.1396 29.9629H88.0016V34.6656H78.8873V38.7643H87.9061V43.2758H78.8873V47.6933H88.0016V52.396H73.1396V29.9629Z" fill="#FDF74B"/>
<path d="M0 22.413V0.152649H5.27816V12.0512L10.1891 0.162715H16.2754L16.6141 12.2777L21.8369 0.162715H28.1077L17.8096 22.413H11.7367L11.4265 10.043L6.18188 22.413H0Z" fill="#FDF74B"/>
<path d="M37.1332 0.151001V22.413H31.5834V8.9793H27.437L31.518 0.151001H37.1332Z" fill="#FDF74B"/>
<path d="M60.7575 0V22.4331H54.9461L46.1486 8.61019V22.4331H40.5603V0H46.3079L55.1674 13.8532V0H60.7575Z" fill="#FDF74B"/>
<path d="M0 29.9293H6.35122L11.9765 43.5543L17.6017 29.9293H23.9227V52.5638H18.7519V38.8096L13.1568 52.5638H10.7676L5.17253 38.8096V52.5638H0V29.9293Z" fill="#FDF74B"/>
</g>
<defs>
<clipPath id="clip0_1_151">
<rect width="88" height="53" fill="white"/>
</clipPath>
</defs>
</svg>
