<svg width="19" height="13" viewBox="0 0 19 13" fill="none" xmlns="http://www.w3.org/2000/svg">
<path d="M17.7277 0H6.4747C5.77295 0 5.20238 0.570848 5.20238 1.27232C5.20238 1.97408 5.77295 2.54464 6.4747 2.54464H17.7277C18.4292 2.54464 19 1.97408 19 1.27232C19 0.570848 18.4292 0 17.7277 0ZM17.7277 5.14583H6.4747C5.77295 5.14583 5.20238 5.71668 5.20238 6.41815C5.20238 7.11991 5.77295 7.69048 6.4747 7.69048H17.7277C18.4292 7.69048 19 7.11991 19 6.41815C19 5.71668 18.4292 5.14583 17.7277 5.14583ZM17.7277 10.2917H6.4747C5.77295 10.2917 5.20238 10.8625 5.20238 11.564C5.20238 12.2657 5.77295 12.8363 6.4747 12.8363H17.7277C18.4292 12.8363 19 12.2657 19 11.564C19 10.8625 18.4292 10.2917 17.7277 10.2917ZM1.27232 0C0.570566 0 0 0.570848 0 1.27232C0 1.97408 0.570566 2.54464 1.27232 2.54464C1.97379 2.54464 2.54464 1.97408 2.54464 1.27232C2.54464 0.570848 1.97379 0 1.27232 0ZM1.27232 5.14583C0.570566 5.14583 0 5.71668 0 6.41815C0 7.11991 0.570566 7.69048 1.27232 7.69048C1.97379 7.69048 2.54464 7.11991 2.54464 6.41815C2.54464 5.71668 1.97379 5.14583 1.27232 5.14583ZM1.27232 10.2917C0.570566 10.2917 0 10.8625 0 11.564C0 12.2657 0.570566 12.8363 1.27232 12.8363C1.97379 12.8363 2.54464 12.2657 2.54464 11.564C2.54464 10.8625 1.97379 10.2917 1.27232 10.2917Z" fill="#717171"/>
<path d="M0 1.27232C0 0.570848 0.570566 0 1.27232 0C1.97379 0 2.54464 0.570848 2.54464 1.27232C2.54464 1.97408 1.97379 2.54464 1.27232 2.54464C0.570566 2.54464 0 1.97408 0 1.27232Z" fill="#C8C8C8"/>
<path d="M0 6.41815C0 5.71668 0.570566 5.14583 1.27232 5.14583C1.97379 5.14583 2.54464 5.71668 2.54464 6.41815C2.54464 7.11991 1.97379 7.69048 1.27232 7.69048C0.570566 7.69048 0 7.11991 0 6.41815Z" fill="#C8C8C8"/>
<path d="M0 11.564C0 10.8625 0.570566 10.2917 1.27232 10.2917C1.97379 10.2917 2.54464 10.8625 2.54464 11.564C2.54464 12.2657 1.97379 12.8363 1.27232 12.8363C0.570566 12.8363 0 12.2657 0 11.564Z" fill="#C8C8C8"/>
</svg>
