<svg width="17" height="18" viewBox="0 0 17 18" fill="none" xmlns="http://www.w3.org/2000/svg">
<path d="M13.6665 0.292725V3.33332H16.7069L13.6665 0.292725Z" fill="#969696"/>
<path d="M13.1667 4.33333C12.8905 4.33333 12.6667 4.10947 12.6667 3.83333V0H5.5C4.6729 0 4 0.6729 4 1.5V7.08963C4.16473 7.0747 4.33143 7.06667 4.5 7.06667C6.20427 7.06667 7.7299 7.84587 8.73953 9.06667H14.1667C14.4428 9.06667 14.6667 9.29053 14.6667 9.56667C14.6667 9.8428 14.4428 10.0667 14.1667 10.0667H9.39827C9.71773 10.69 9.91423 11.369 9.97703 12.0667H14.1667C14.4428 12.0667 14.6667 12.2905 14.6667 12.5667C14.6667 12.8428 14.4428 13.0667 14.1667 13.0667H9.97703C9.8275 14.718 8.94523 16.1609 7.6586 17.0667H15.5C16.3271 17.0667 17 16.3938 17 15.5667V4.33333H13.1667ZM14.1667 7.06667H6.83333C6.5572 7.06667 6.33333 6.8428 6.33333 6.56667C6.33333 6.29053 6.5572 6.06667 6.83333 6.06667H14.1667C14.4428 6.06667 14.6667 6.29053 14.6667 6.56667C14.6667 6.8428 14.4428 7.06667 14.1667 7.06667Z" fill="#969696"/>
<path d="M4.5 8.06665C2.0187 8.06665 0 10.0854 0 12.5667C0 15.048 2.0187 17.0667 4.5 17.0667C6.9813 17.0667 9 15.048 9 12.5667C9 10.0854 6.9813 8.06665 4.5 8.06665ZM5.83333 13.0667H4.5C4.22387 13.0667 4 12.8428 4 12.5667V10.5667C4 10.2905 4.22387 10.0667 4.5 10.0667C4.77613 10.0667 5 10.2905 5 10.5667V12.0667H5.83333C6.10947 12.0667 6.33333 12.2905 6.33333 12.5667C6.33333 12.8428 6.10947 13.0667 5.83333 13.0667Z" fill="#969696"/>
</svg>
