<svg width="770" height="403" viewBox="0 0 770 403" fill="none" xmlns="http://www.w3.org/2000/svg">
<rect width="770" height="403" rx="25" fill="#1B1C1E"/>
<g clip-path="url(#clip0_790_130967)">
<g opacity="0.6" filter="url(#filter0_f_790_130967)">
<ellipse cx="-221.5" cy="68.5001" rx="306.5" ry="262.5" transform="rotate(180 -221.5 68.5001)" fill="#FDF74B"/>
</g>
<g opacity="0.75">
<path d="M305 193.52V200.397C233.913 223.103 194.98 295.86 176.544 344H162.5V193.52H305Z" fill="#FDF74B"/>
<path d="M162.5 59.0545V209.48H20V202.499C91.0873 179.864 129.966 107.16 148.456 59H162.5V59.0545Z" fill="#FDF74B"/>
</g>
<g filter="url(#filter1_d_790_130967)">
<path d="M245.124 172.392V243.372H228.306V205.432L212.657 243.34H193.263L192.187 204.705L175.542 243.34H155.56L188.373 172.392H207.723L208.715 211.834L225.428 172.392H245.124Z" fill="white"/>
<path d="M141.382 201.044H155.314L135.751 243.34H116.401L115.409 203.902L98.6962 243.34H79V172.355H95.822V210.304L111.471 172.392H130.857L131.937 211.031L148.582 172.392H169.991L141.382 201.044Z" fill="white"/>
<path d="M172.495 137.454V137.971H161.901V126.834H162.945C164.323 130.398 167.214 135.779 172.495 137.454Z" fill="white"/>
<path d="M172.495 137.967V138.476C167.21 140.155 164.315 145.536 162.945 149.096H161.901V137.967H172.495Z" fill="white"/>
<path d="M161.897 137.967V149.096H160.853C159.482 145.536 156.584 140.155 151.303 138.476V137.967H161.897Z" fill="white"/>
<path d="M161.897 126.834V137.967H151.303V137.451C156.588 135.775 159.478 130.394 160.853 126.83H161.897V126.834Z" fill="white"/>
</g>
</g>
<g clip-path="url(#clip1_790_130967)">
<path d="M733.232 37.9186C732.914 37.9371 732.6 37.8312 732.358 37.6231C731.881 37.1428 731.881 36.3671 732.358 35.8868L742.812 25.4325C743.309 24.9678 744.088 24.9936 744.553 25.4902C744.973 25.9393 744.998 26.6295 744.61 27.1072L734.094 37.6231C733.855 37.8282 733.547 37.9339 733.232 37.9186Z" fill="#2E2F31"/>
<path d="M743.674 37.9186C743.351 37.9172 743.042 37.789 742.812 37.5615L732.358 27.1071C731.916 26.5906 731.976 25.8132 732.492 25.3709C732.953 24.9761 733.633 24.9761 734.094 25.3709L744.61 35.8252C745.107 36.29 745.132 37.0693 744.668 37.5657C744.649 37.5855 744.63 37.6046 744.61 37.623C744.483 37.7338 744.334 37.8172 744.173 37.8681C744.012 37.9189 743.842 37.9361 743.674 37.9186Z" fill="#2E2F31"/>
</g>
<defs>
<filter id="filter0_f_790_130967" x="-728" y="-394" width="1013" height="925" filterUnits="userSpaceOnUse" color-interpolation-filters="sRGB">
<feFlood flood-opacity="0" result="BackgroundImageFix"/>
<feBlend mode="normal" in="SourceGraphic" in2="BackgroundImageFix" result="shape"/>
<feGaussianBlur stdDeviation="100" result="effect1_foregroundBlur_790_130967"/>
</filter>
<filter id="filter1_d_790_130967" x="71" y="118.83" width="182.124" height="132.542" filterUnits="userSpaceOnUse" color-interpolation-filters="sRGB">
<feFlood flood-opacity="0" result="BackgroundImageFix"/>
<feColorMatrix in="SourceAlpha" type="matrix" values="0 0 0 0 0 0 0 0 0 0 0 0 0 0 0 0 0 0 127 0" result="hardAlpha"/>
<feOffset/>
<feGaussianBlur stdDeviation="4"/>
<feComposite in2="hardAlpha" operator="out"/>
<feColorMatrix type="matrix" values="0 0 0 0 0 0 0 0 0 0 0 0 0 0 0 0 0 0 0.25 0"/>
<feBlend mode="normal" in2="BackgroundImageFix" result="effect1_dropShadow_790_130967"/>
<feBlend mode="normal" in="SourceGraphic" in2="effect1_dropShadow_790_130967" result="shape"/>
</filter>
<clipPath id="clip0_790_130967">
<path d="M0 25C0 11.1929 11.1929 0 25 0H325V403H25C11.1929 403 0 391.807 0 378V25Z" fill="white"/>
</clipPath>
<clipPath id="clip1_790_130967">
<rect width="13" height="13" fill="white" transform="translate(732 25)"/>
</clipPath>
</defs>
</svg>
