<svg width="207" height="60" viewBox="0 0 207 60" fill="none" xmlns="http://www.w3.org/2000/svg">
<mask id="mask0_790_90974" style="mask-type:alpha" maskUnits="userSpaceOnUse" x="0" y="0" width="207" height="60">
<rect width="207" height="60" rx="10" fill="#D9D9D9"/>
</mask>
<g mask="url(#mask0_790_90974)">
<rect x="0.5" y="0.5" width="206" height="59" rx="9.5" fill="#141517" stroke="#191A1C"/>
<g opacity="0.2">
<path d="M118.422 1.70546V2.33953C115.16 3.37518 113.373 6.69349 112.526 8.88584H111.236C110.393 6.69349 108.604 3.37518 105.343 2.33953V1.70546C108.606 0.673651 110.389 -2.64466 111.236 -4.84085H112.526C113.377 -2.64466 115.16 0.673651 118.422 1.70546Z" fill="black"/>
<path d="M118.422 66.3421V66.9762C115.16 68.0119 113.373 71.3302 112.526 73.5225H111.236C110.393 71.3302 108.604 68.0119 105.343 66.9762V66.3421C108.606 65.3103 110.389 61.992 111.236 59.7958H112.526C113.377 61.992 115.16 65.3103 118.422 66.3421Z" fill="black"/>
<path d="M191.527 17.8647V18.4988C188.265 19.5344 186.478 22.8527 185.631 25.0451H184.341C183.498 22.8527 181.709 19.5344 178.448 18.4988V17.8647C181.711 16.8329 183.494 13.5146 184.341 11.3184H185.631C186.482 13.5146 188.265 16.8329 191.527 17.8647Z" fill="black"/>
<path d="M45.3189 17.8647V18.4988C42.0563 19.5344 40.2694 22.8527 39.422 25.0451H38.1328C37.2893 22.8527 35.5004 19.5344 32.2397 18.4988V17.8647C35.5023 16.8329 37.2854 13.5146 38.1328 11.3184H39.422C40.2732 13.5146 42.0563 16.8329 45.3189 17.8647Z" fill="black"/>
<path d="M118.422 34.0238V34.6579C115.16 35.6936 113.373 39.0119 112.526 41.2042H111.236C110.393 39.0119 108.604 35.6936 105.343 34.6579V34.0238C108.606 32.992 110.389 29.6737 111.236 27.4775H112.526C113.377 29.6737 115.16 32.992 118.422 34.0238Z" fill="black"/>
<path d="M191.527 50.1831V50.8172C188.265 51.8528 186.478 55.1712 185.631 57.3635H184.341C183.498 55.1712 181.709 51.8528 178.448 50.8172V50.1831C181.711 49.1513 183.494 45.833 184.341 43.6368H185.631C186.482 45.833 188.265 49.1513 191.527 50.1831Z" fill="black"/>
<path d="M45.3189 50.1831V50.8172C42.0563 51.8528 40.2694 55.1712 39.422 57.3635H38.1328C37.2893 55.1712 35.5004 51.8528 32.2397 50.8172V50.1831C35.5023 49.1513 37.2854 45.833 38.1328 43.6368H39.422C40.2732 45.833 42.0563 49.1513 45.3189 50.1831Z" fill="black"/>
<path d="M110.3 50.1831V50.8172C107.037 51.8528 105.25 55.1712 104.403 57.3635H103.114C102.27 55.1712 100.481 51.8528 97.2207 50.8172V50.1831C100.483 49.1513 102.266 45.833 103.114 43.6368H104.403C105.254 45.833 107.037 49.1513 110.3 50.1831Z" fill="black"/>
<path d="M183.405 1.70546V2.33953C180.142 3.37518 178.355 6.69349 177.508 8.88584H176.219C175.375 6.69349 173.586 3.37518 170.326 2.33953V1.70546C173.588 0.673651 175.371 -2.64466 176.219 -4.84085H177.508C178.359 -2.64466 180.142 0.673651 183.405 1.70546Z" fill="black"/>
<path d="M183.405 66.3421V66.9762C180.142 68.0119 178.355 71.3302 177.508 73.5225H176.219C175.375 71.3302 173.586 68.0119 170.326 66.9762V66.3421C173.588 65.3103 175.371 61.992 176.219 59.7958H177.508C178.359 61.992 180.142 65.3103 183.405 66.3421Z" fill="black"/>
<path d="M37.1959 1.70546V2.33953C33.9333 3.37518 32.1464 6.69349 31.299 8.88584H30.0097C29.1662 6.69349 27.3774 3.37518 24.1167 2.33953V1.70546C27.3793 0.673651 29.1624 -2.64466 30.0097 -4.84085H31.299C32.1502 -2.64466 33.9333 0.673651 37.1959 1.70546Z" fill="black"/>
<path d="M37.1959 66.3421V66.9762C33.9333 68.0119 32.1464 71.3302 31.299 73.5225H30.0097C29.1662 71.3302 27.3774 68.0119 24.1167 66.9762V66.3421C27.3793 65.3103 29.1624 61.992 30.0097 59.7958H31.299C32.1502 61.992 33.9333 65.3103 37.1959 66.3421Z" fill="black"/>
<path d="M110.3 17.8646V18.4987C107.037 19.5343 105.25 22.8526 104.403 25.045H103.114C102.27 22.8526 100.481 19.5343 97.2207 18.4987V17.8646C100.483 16.8328 102.266 13.5145 103.114 11.3183H104.403C105.254 13.5145 107.037 16.8328 110.3 17.8646Z" fill="black"/>
<path d="M183.405 34.0238V34.6578C180.142 35.6935 178.355 39.0118 177.508 41.2041H176.219C175.375 39.0118 173.586 35.6935 170.326 34.6578V34.0238C173.588 32.9919 175.371 29.6736 176.219 27.4774H177.508C178.359 29.6736 180.142 32.9919 183.405 34.0238Z" fill="black"/>
<path d="M37.1959 34.0238V34.6578C33.9333 35.6935 32.1464 39.0118 31.299 41.2041H30.0097C29.1662 39.0118 27.3774 35.6935 24.1167 34.6578V34.0238C27.3793 32.9919 29.1624 29.6736 30.0097 27.4774H31.299C32.1502 29.6736 33.9333 32.9919 37.1959 34.0238Z" fill="black"/>
<path d="M102.177 1.70546V2.33953C98.9142 3.37518 97.1273 6.69349 96.28 8.88584H94.9907C94.1472 6.69349 92.3583 3.37518 89.0977 2.33953V1.70546C92.3602 0.673651 94.1433 -2.64466 94.9907 -4.84085H96.28C97.1312 -2.64466 98.9142 0.673651 102.177 1.70546Z" fill="black"/>
<path d="M102.177 66.3421V66.9762C98.9142 68.0119 97.1273 71.3302 96.28 73.5225H94.9907C94.1472 71.3302 92.3583 68.0119 89.0977 66.9762V66.3421C92.3602 65.3103 94.1433 61.992 94.9907 59.7958H96.28C97.1312 61.992 98.9142 65.3103 102.177 66.3421Z" fill="black"/>
<path d="M175.282 17.8647V18.4988C172.019 19.5344 170.232 22.8527 169.385 25.0451H168.096C167.252 22.8527 165.463 19.5344 162.203 18.4988V17.8647C165.465 16.8329 167.248 13.5146 168.096 11.3184H169.385C170.236 13.5146 172.019 16.8329 175.282 17.8647Z" fill="black"/>
<path d="M29.0733 17.8647V18.4988C25.8107 19.5344 24.0238 22.8527 23.1764 25.0451H21.8872C21.0437 22.8527 19.2548 19.5344 15.9941 18.4988V17.8647C19.2567 16.8329 21.0398 13.5146 21.8872 11.3184H23.1764C24.0276 13.5146 25.8107 16.8329 29.0733 17.8647Z" fill="black"/>
<path d="M102.177 34.0238V34.6579C98.9142 35.6936 97.1273 39.0119 96.28 41.2042H94.9907C94.1472 39.0119 92.3583 35.6936 89.0977 34.6579V34.0238C92.3602 32.992 94.1433 29.6737 94.9907 27.4775H96.28C97.1312 29.6737 98.9142 32.992 102.177 34.0238Z" fill="black"/>
<path d="M175.282 50.1831V50.8172C172.019 51.8528 170.232 55.1712 169.385 57.3635H168.096C167.252 55.1712 165.463 51.8528 162.203 50.8172V50.1831C165.465 49.1513 167.248 45.833 168.096 43.6368H169.385C170.236 45.833 172.019 49.1513 175.282 50.1831Z" fill="black"/>
<path d="M29.0733 50.1831V50.8172C25.8107 51.8528 24.0238 55.1712 23.1764 57.3635H21.8872C21.0437 55.1712 19.2548 51.8528 15.9941 50.8172V50.1831C19.2567 49.1513 21.0398 45.833 21.8872 43.6368H23.1764C24.0276 45.833 25.8107 49.1513 29.0733 50.1831Z" fill="black"/>
<path d="M94.0543 50.1831V50.8172C90.7917 51.8528 89.0048 55.1712 88.1574 57.3635H86.8681C86.0246 55.1712 84.2358 51.8528 80.9751 50.8172V50.1831C84.2377 49.1513 86.0208 45.833 86.8681 43.6368H88.1574C89.0086 45.833 90.7917 49.1513 94.0543 50.1831Z" fill="black"/>
<path d="M167.159 1.70546V2.33953C163.896 3.37518 162.109 6.69349 161.262 8.88584H159.973C159.129 6.69349 157.34 3.37518 154.08 2.33953V1.70546C157.342 0.673651 159.125 -2.64466 159.973 -4.84085H161.262C162.113 -2.64466 163.896 0.673651 167.159 1.70546Z" fill="black"/>
<path d="M167.159 66.3421V66.9762C163.896 68.0119 162.109 71.3302 161.262 73.5225H159.973C159.129 71.3302 157.34 68.0119 154.08 66.9762V66.3421C157.342 65.3103 159.125 61.992 159.973 59.7958H161.262C162.113 61.992 163.896 65.3103 167.159 66.3421Z" fill="black"/>
<path d="M20.9503 1.70546V2.33953C17.6877 3.37518 15.9007 6.69349 15.0534 8.88584H13.7641C12.9206 6.69349 11.1318 3.37518 7.87109 2.33953V1.70546C11.1337 0.673651 12.9168 -2.64466 13.7641 -4.84085H15.0534C15.9046 -2.64466 17.6877 0.673651 20.9503 1.70546Z" fill="black"/>
<path d="M20.9503 66.3421V66.9762C17.6877 68.0119 15.9007 71.3302 15.0534 73.5225H13.7641C12.9206 71.3302 11.1318 68.0119 7.87109 66.9762V66.3421C11.1337 65.3103 12.9168 61.992 13.7641 59.7958H15.0534C15.9046 61.992 17.6877 65.3103 20.9503 66.3421Z" fill="black"/>
<path d="M94.0543 17.8646V18.4987C90.7917 19.5343 89.0048 22.8526 88.1574 25.045H86.8681C86.0246 22.8526 84.2358 19.5343 80.9751 18.4987V17.8646C84.2377 16.8328 86.0208 13.5145 86.8681 11.3183H88.1574C89.0086 13.5145 90.7917 16.8328 94.0543 17.8646Z" fill="black"/>
<path d="M167.159 34.0238V34.6578C163.896 35.6935 162.109 39.0118 161.262 41.2041H159.973C159.129 39.0118 157.34 35.6935 154.08 34.6578V34.0238C157.342 32.9919 159.125 29.6736 159.973 27.4774H161.262C162.113 29.6736 163.896 32.9919 167.159 34.0238Z" fill="black"/>
<path d="M20.9503 34.0238V34.6578C17.6877 35.6935 15.9007 39.0118 15.0534 41.2041H13.7641C12.9206 39.0118 11.1318 35.6935 7.87109 34.6578V34.0238C11.1337 32.9919 12.9168 29.6736 13.7641 27.4774H15.0534C15.9046 29.6736 17.6877 32.9919 20.9503 34.0238Z" fill="black"/>
<path d="M85.9312 1.70546V2.33953C82.6686 3.37518 80.8817 6.69349 80.0344 8.88584H78.7451C77.9016 6.69349 76.1127 3.37518 72.8521 2.33953V1.70546C76.1146 0.673651 77.8977 -2.64466 78.7451 -4.84085H80.0344C80.8855 -2.64466 82.6686 0.673651 85.9312 1.70546Z" fill="black"/>
<path d="M85.9312 66.3421V66.9762C82.6686 68.0119 80.8817 71.3302 80.0344 73.5225H78.7451C77.9016 71.3302 76.1127 68.0119 72.8521 66.9762V66.3421C76.1146 65.3103 77.8977 61.992 78.7451 59.7958H80.0344C80.8855 61.992 82.6686 65.3103 85.9312 66.3421Z" fill="black"/>
<path d="M159.036 17.8647V18.4988C155.774 19.5344 153.987 22.8527 153.139 25.0451H151.85C151.007 22.8527 149.218 19.5344 145.957 18.4988V17.8647C149.22 16.8329 151.003 13.5146 151.85 11.3184H153.139C153.991 13.5146 155.774 16.8329 159.036 17.8647Z" fill="black"/>
<path d="M12.8272 17.8647V18.4988C9.56463 19.5344 7.7777 22.8527 6.93035 25.0451H5.64107C4.79757 22.8527 3.00871 19.5344 -0.251953 18.4988V17.8647C3.01063 16.8329 4.79372 13.5146 5.64107 11.3184H6.93035C7.78154 13.5146 9.56463 16.8329 12.8272 17.8647Z" fill="black"/>
<path d="M85.9312 34.0238V34.6579C82.6686 35.6936 80.8817 39.0119 80.0344 41.2042H78.7451C77.9016 39.0119 76.1127 35.6936 72.8521 34.6579V34.0238C76.1146 32.992 77.8977 29.6737 78.7451 27.4775H80.0344C80.8855 29.6737 82.6686 32.992 85.9312 34.0238Z" fill="black"/>
<path d="M159.036 50.1831V50.8172C155.774 51.8528 153.987 55.1712 153.139 57.3635H151.85C151.007 55.1712 149.218 51.8528 145.957 50.8172V50.1831C149.22 49.1513 151.003 45.833 151.85 43.6368H153.139C153.991 45.833 155.774 49.1513 159.036 50.1831Z" fill="black"/>
<path d="M12.8272 50.1831V50.8172C9.56463 51.8528 7.7777 55.1712 6.93035 57.3635H5.64107C4.79757 55.1712 3.00871 51.8528 -0.251953 50.8172V50.1831C3.01063 49.1513 4.79372 45.833 5.64107 43.6368H6.93035C7.78154 45.833 9.56463 49.1513 12.8272 50.1831Z" fill="black"/>
<path d="M77.8092 50.1831V50.8172C74.5466 51.8528 72.7596 55.1712 71.9123 57.3635H70.623C69.7795 55.1712 67.9906 51.8528 64.73 50.8172V50.1831C67.9926 49.1513 69.7757 45.833 70.623 43.6368H71.9123C72.7635 45.833 74.5466 49.1513 77.8092 50.1831Z" fill="black"/>
<path d="M150.914 1.70546V2.33953C147.651 3.37518 145.864 6.69349 145.017 8.88584H143.727C142.884 6.69349 141.095 3.37518 137.834 2.33953V1.70546C141.097 0.673651 142.88 -2.64466 143.727 -4.84085H145.017C145.868 -2.64466 147.651 0.673651 150.914 1.70546Z" fill="black"/>
<path d="M150.914 66.3421V66.9762C147.651 68.0119 145.864 71.3302 145.017 73.5225H143.727C142.884 71.3302 141.095 68.0119 137.834 66.9762V66.3421C141.097 65.3103 142.88 61.992 143.727 59.7958H145.017C145.868 61.992 147.651 65.3103 150.914 66.3421Z" fill="black"/>
<path d="M4.70466 1.70546V2.33953C1.44207 3.37518 -0.344857 6.69349 -1.19221 8.88584H-2.48149C-3.32499 6.69349 -5.11385 3.37518 -8.37451 2.33953V1.70546C-5.11192 0.673651 -3.32884 -2.64466 -2.48149 -4.84085H-1.19221C-0.341015 -2.64466 1.44207 0.673651 4.70466 1.70546Z" fill="black"/>
<path d="M4.70466 66.3421V66.9762C1.44207 68.0119 -0.344857 71.3302 -1.19221 73.5225H-2.48149C-3.32499 71.3302 -5.11385 68.0119 -8.37451 66.9762V66.3421C-5.11192 65.3103 -3.32884 61.992 -2.48149 59.7958H-1.19221C-0.341015 61.992 1.44207 65.3103 4.70466 66.3421Z" fill="black"/>
<path d="M77.8092 17.8646V18.4987C74.5466 19.5343 72.7596 22.8526 71.9123 25.045H70.623C69.7795 22.8526 67.9906 19.5343 64.73 18.4987V17.8646C67.9926 16.8328 69.7757 13.5145 70.623 11.3183H71.9123C72.7635 13.5145 74.5466 16.8328 77.8092 17.8646Z" fill="black"/>
<path d="M150.914 34.0238V34.6578C147.651 35.6935 145.864 39.0118 145.017 41.2041H143.727C142.884 39.0118 141.095 35.6935 137.834 34.6578V34.0238C141.097 32.9919 142.88 29.6736 143.727 27.4774H145.017C145.868 29.6736 147.651 32.9919 150.914 34.0238Z" fill="black"/>
<path d="M4.70466 34.0238V34.6578C1.44207 35.6935 -0.344857 39.0118 -1.19221 41.2041H-2.48149C-3.32499 39.0118 -5.11385 35.6935 -8.37451 34.6578V34.0238C-5.11192 32.9919 -3.32884 29.6736 -2.48149 27.4774H-1.19221C-0.341015 29.6736 1.44207 32.9919 4.70466 34.0238Z" fill="black"/>
<path d="M134.669 1.70546V2.33953C131.406 3.37518 129.619 6.69349 128.772 8.88584H127.482C126.639 6.69349 124.85 3.37518 121.589 2.33953V1.70546C124.852 0.673651 126.635 -2.64466 127.482 -4.84085H128.772C129.623 -2.64466 131.406 0.673651 134.669 1.70546Z" fill="black"/>
<path d="M134.669 66.3421V66.9762C131.406 68.0119 129.619 71.3302 128.772 73.5225H127.482C126.639 71.3302 124.85 68.0119 121.589 66.9762V66.3421C124.852 65.3103 126.635 61.992 127.482 59.7958H128.772C129.623 61.992 131.406 65.3103 134.669 66.3421Z" fill="black"/>
<path d="M207.773 17.8647V18.4988C204.51 19.5344 202.723 22.8527 201.876 25.0451H200.586C199.743 22.8527 197.954 19.5344 194.693 18.4988V17.8647C197.956 16.8329 199.739 13.5146 200.586 11.3184H201.876C202.727 13.5146 204.51 16.8329 207.773 17.8647Z" fill="black"/>
<path d="M61.564 17.8647V18.4988C58.3014 19.5344 56.5145 22.8527 55.6672 25.0451H54.3779C53.5344 22.8527 51.7455 19.5344 48.4849 18.4988V17.8647C51.7475 16.8329 53.5305 13.5146 54.3779 11.3184H55.6672C56.5184 13.5146 58.3014 16.8329 61.564 17.8647Z" fill="black"/>
<path d="M134.669 34.0238V34.6579C131.406 35.6936 129.619 39.0119 128.772 41.2042H127.482C126.639 39.0119 124.85 35.6936 121.589 34.6579V34.0238C124.852 32.992 126.635 29.6737 127.482 27.4775H128.772C129.623 29.6737 131.406 32.992 134.669 34.0238Z" fill="black"/>
<path d="M207.773 50.1831V50.8172C204.51 51.8528 202.723 55.1712 201.876 57.3635H200.586C199.743 55.1712 197.954 51.8528 194.693 50.8172V50.1831C197.956 49.1513 199.739 45.833 200.586 43.6368H201.876C202.727 45.833 204.51 49.1513 207.773 50.1831Z" fill="black"/>
<path d="M61.564 50.1831V50.8172C58.3014 51.8528 56.5145 55.1712 55.6672 57.3635H54.3779C53.5344 55.1712 51.7455 51.8528 48.4849 50.8172V50.1831C51.7475 49.1513 53.5305 45.833 54.3779 43.6368H55.6672C56.5184 45.833 58.3014 49.1513 61.564 50.1831Z" fill="black"/>
<path d="M126.545 50.1831V50.8172C123.283 51.8528 121.496 55.1712 120.649 57.3635H119.359C118.516 55.1712 116.727 51.8528 113.466 50.8172V50.1831C116.729 49.1513 118.512 45.833 119.359 43.6368H120.649C121.5 45.833 123.283 49.1513 126.545 50.1831Z" fill="black"/>
<path d="M199.65 1.70546V2.33953C196.387 3.37518 194.6 6.69349 193.753 8.88584H192.464C191.62 6.69349 189.831 3.37518 186.571 2.33953V1.70546C189.833 0.673651 191.616 -2.64466 192.464 -4.84085H193.753C194.604 -2.64466 196.387 0.673651 199.65 1.70546Z" fill="black"/>
<path d="M199.65 66.3421V66.9762C196.387 68.0119 194.6 71.3302 193.753 73.5225H192.464C191.62 71.3302 189.831 68.0119 186.571 66.9762V66.3421C189.833 65.3103 191.616 61.992 192.464 59.7958H193.753C194.604 61.992 196.387 65.3103 199.65 66.3421Z" fill="black"/>
<path d="M53.4415 1.70546V2.33953C50.1789 3.37518 48.392 6.69349 47.5446 8.88584H46.2553C45.4118 6.69349 43.623 3.37518 40.3623 2.33953V1.70546C43.6249 0.673651 45.408 -2.64466 46.2553 -4.84085H47.5446C48.3958 -2.64466 50.1789 0.673651 53.4415 1.70546Z" fill="black"/>
<path d="M53.4415 66.3421V66.9762C50.1789 68.0119 48.392 71.3302 47.5446 73.5225H46.2553C45.4118 71.3302 43.623 68.0119 40.3623 66.9762V66.3421C43.6249 65.3103 45.408 61.992 46.2553 59.7958H47.5446C48.3958 61.992 50.1789 65.3103 53.4415 66.3421Z" fill="black"/>
<path d="M126.545 17.8646V18.4987C123.283 19.5343 121.496 22.8526 120.649 25.045H119.359C118.516 22.8526 116.727 19.5343 113.466 18.4987V17.8646C116.729 16.8328 118.512 13.5145 119.359 11.3183H120.649C121.5 13.5145 123.283 16.8328 126.545 17.8646Z" fill="black"/>
<path d="M199.65 34.0238V34.6578C196.387 35.6935 194.6 39.0118 193.753 41.2041H192.464C191.62 39.0118 189.831 35.6935 186.571 34.6578V34.0238C189.833 32.9919 191.616 29.6736 192.464 27.4774H193.753C194.604 29.6736 196.387 32.9919 199.65 34.0238Z" fill="black"/>
<path d="M53.4415 34.0238V34.6578C50.1789 35.6935 48.392 39.0118 47.5446 41.2041H46.2553C45.4118 39.0118 43.623 35.6935 40.3623 34.6578V34.0238C43.6249 32.9919 45.408 29.6736 46.2553 27.4774H47.5446C48.3958 29.6736 50.1789 32.9919 53.4415 34.0238Z" fill="black"/>
<path d="M142.791 50.1831V50.8172C139.528 51.8528 137.741 55.1712 136.894 57.3635H135.604C134.761 55.1712 132.972 51.8528 129.711 50.8172V50.1831C132.974 49.1513 134.757 45.833 135.604 43.6368H136.894C137.745 45.833 139.528 49.1513 142.791 50.1831Z" fill="black"/>
<path d="M215.895 1.70546V2.33953C212.633 3.37518 210.846 6.69349 209.998 8.88584H208.709C207.865 6.69349 206.077 3.37518 202.816 2.33953V1.70546C206.079 0.673651 207.862 -2.64466 208.709 -4.84085H209.998C210.849 -2.64466 212.633 0.673651 215.895 1.70546Z" fill="black"/>
<path d="M215.895 66.3421V66.9762C212.633 68.0119 210.846 71.3302 209.998 73.5225H208.709C207.865 71.3302 206.077 68.0119 202.816 66.9762V66.3421C206.079 65.3103 207.862 61.992 208.709 59.7958H209.998C210.849 61.992 212.633 65.3103 215.895 66.3421Z" fill="black"/>
<path d="M69.6861 1.70546V2.33953C66.4235 3.37518 64.6366 6.69349 63.7892 8.88584H62.5C61.6565 6.69349 59.8676 3.37518 56.6069 2.33953V1.70546C59.8695 0.673651 61.6526 -2.64466 62.5 -4.84085H63.7892C64.6404 -2.64466 66.4235 0.673651 69.6861 1.70546Z" fill="black"/>
<path d="M69.6861 66.3421V66.9762C66.4235 68.0119 64.6366 71.3302 63.7892 73.5225H62.5C61.6565 71.3302 59.8676 68.0119 56.6069 66.9762V66.3421C59.8695 65.3103 61.6526 61.992 62.5 59.7958H63.7892C64.6404 61.992 66.4235 65.3103 69.6861 66.3421Z" fill="black"/>
<path d="M142.791 17.8646V18.4987C139.528 19.5343 137.741 22.8526 136.894 25.045H135.604C134.761 22.8526 132.972 19.5343 129.711 18.4987V17.8646C132.974 16.8328 134.757 13.5145 135.604 11.3183H136.894C137.745 13.5145 139.528 16.8328 142.791 17.8646Z" fill="black"/>
<path d="M215.895 34.0238V34.6578C212.633 35.6935 210.846 39.0118 209.998 41.2041H208.709C207.865 39.0118 206.077 35.6935 202.816 34.6578V34.0238C206.079 32.9919 207.862 29.6736 208.709 27.4774H209.998C210.849 29.6736 212.633 32.9919 215.895 34.0238Z" fill="black"/>
<path d="M69.6861 34.0238V34.6578C66.4235 35.6935 64.6366 39.0118 63.7892 41.2041H62.5C61.6565 39.0118 59.8676 35.6935 56.6069 34.6578V34.0238C59.8695 32.9919 61.6526 29.6736 62.5 27.4774H63.7892C64.6404 29.6736 66.4235 32.9919 69.6861 34.0238Z" fill="black"/>
</g>
<g opacity="0.5" filter="url(#filter0_f_790_90974)">
<ellipse cx="183.763" cy="95.204" rx="183.763" ry="95.204" transform="matrix(0.941227 -0.337774 0.493662 0.869654 -391 52.1404)" fill="#91E2FD"/>
</g>
<g opacity="0.5" filter="url(#filter1_f_790_90974)">
<ellipse cx="183.763" cy="95.204" rx="183.763" ry="95.204" transform="matrix(0.979291 0.202458 -0.0321161 0.999484 172.062 43.5056)" fill="#91E2FD"/>
</g>
</g>
<defs>
<filter id="filter0_f_790_90974" x="-500.318" y="-180.619" width="658.558" height="506.968" filterUnits="userSpaceOnUse" color-interpolation-filters="sRGB">
<feFlood flood-opacity="0" result="BackgroundImageFix"/>
<feBlend mode="normal" in="SourceGraphic" in2="BackgroundImageFix" result="shape"/>
<feGaussianBlur stdDeviation="75" result="effect1_foregroundBlur_790_90974"/>
</filter>
<filter id="filter1_f_790_90974" x="18.9775" y="-76.3322" width="659.967" height="504.394" filterUnits="userSpaceOnUse" color-interpolation-filters="sRGB">
<feFlood flood-opacity="0" result="BackgroundImageFix"/>
<feBlend mode="normal" in="SourceGraphic" in2="BackgroundImageFix" result="shape"/>
<feGaussianBlur stdDeviation="75" result="effect1_foregroundBlur_790_90974"/>
</filter>
</defs>
</svg>
