<svg width="38" height="28" viewBox="0 0 38 28" fill="none" xmlns="http://www.w3.org/2000/svg">
<path d="M12.5749 24.8098C12.5546 25.0119 12.5721 25.2229 12.6457 25.432C12.8256 25.9361 13.2476 26.3468 13.7475 26.5016C14.212 26.6485 14.6741 26.5507 14.8143 26.3983L15.7834 25.3584C16.0638 25.0586 16.1346 24.5795 15.9699 24.1145C15.5644 23.3375 15.0211 23.0572 14.3253 22.9316L12.5749 24.8098ZM11.2787 19.6103L9.58503 21.4267C9.24091 21.801 9.14225 22.3765 9.33437 22.9278C9.53829 23.5103 10.025 23.9842 10.6075 24.1613C11.1588 24.3265 11.712 24.1981 12.0585 23.8294L13.6267 22.1475C13.9731 21.7741 14.0694 21.2016 13.8773 20.6502C13.6734 20.0649 13.1839 19.5928 12.6042 19.4168C12.1416 19.269 11.5988 19.2634 11.2787 19.6103ZM7.92108 16.6213L6.3572 18.3004C6.01261 18.6719 5.91631 19.2492 6.10655 19.8024C6.31047 20.383 6.79714 20.857 7.37964 21.034C7.93005 21.2016 8.48894 21.0708 8.66313 20.8862L10.3993 19.0231C10.7458 18.6488 10.8421 18.0733 10.65 17.5229C10.4451 16.9385 9.95841 16.4665 9.37591 16.2914C8.84014 16.1167 8.24726 16.272 7.92108 16.6213ZM4.86177 13.3114L3.12843 15.1755C2.78195 15.5489 2.68566 16.1214 2.87778 16.67C3.07981 17.2572 3.56932 17.7292 4.15182 17.9062C4.70222 18.0705 5.26018 17.943 5.43247 17.7561L7.17053 15.893V15.8911C7.51701 15.5224 7.61331 14.9489 7.42118 14.3985C7.22009 13.8113 6.73059 13.3392 6.14809 13.1641C5.70295 13.0107 5.16435 12.9842 4.86177 13.3114ZM27.365 2.19431C26.2439 2.82118 24.6857 2.93352 23.168 3.04257C22.02 3.12092 20.8357 3.204 19.9846 3.51838L15.2524 5.26447C15.2206 5.27678 15.1875 5.28518 15.1537 5.28949C14.9252 5.32536 14.7138 5.35604 14.524 5.38248C13.3717 5.54486 13.2386 5.59443 13.106 5.93571C12.9851 6.25104 13.1178 6.70561 13.4454 7.09174C13.7126 7.40896 14.7581 8.3993 16.9092 7.88997L19.6041 7.53405C21.1132 7.33957 22.3231 8.3233 23.2894 9.11728L30.5366 14.9149L30.5423 14.9121C31.9749 14.3126 33.4675 13.5328 34.7364 12.0043L27.365 2.19431Z" fill="#91E2FD"/>
<path d="M17.3929 1.84224C16.9634 1.88189 16.471 1.93618 15.9546 1.98999C13.0983 2.29493 11.5146 2.41483 10.7088 2.26566L3.29349 11.9175C3.55426 12.1597 3.78315 12.4341 3.97464 12.7341C4.59443 12.0997 5.53097 11.8731 6.44295 12.1488C7.33794 12.4188 8.08519 13.1443 8.39768 14.0445C8.53032 14.4255 8.57186 14.8163 8.53787 15.1906C8.91725 15.1362 9.30396 15.1655 9.67078 15.2766C10.5634 15.5447 11.3135 16.2721 11.6236 17.1723C11.7581 17.5513 11.8006 17.9412 11.7685 18.3156C12.1481 18.2609 12.535 18.2912 12.9014 18.4043C13.7922 18.6743 14.5389 19.3998 14.8514 20.2953C15.0478 20.8632 15.0554 21.4476 14.8958 21.9715C14.9869 21.989 15.0804 22.0112 15.1734 22.0405C15.9725 22.2883 16.6513 22.9449 16.9435 23.7544C17.222 24.538 17.1012 25.3613 16.6438 25.9523L17.9594 27.0044C18.2813 27.2598 18.7505 27.2877 19.1886 27.0753C19.6634 26.8449 20.0222 26.3771 20.1279 25.8536C20.1688 25.6458 20.1618 25.4314 20.1076 25.2267L18.439 23.8918C18.3309 23.8037 18.2613 23.6771 18.2448 23.5387C18.2282 23.4003 18.266 23.2608 18.3502 23.1497C18.3915 23.0954 18.4433 23.0498 18.5024 23.0157C18.5616 22.9816 18.627 22.9596 18.6948 22.9511C18.7625 22.9427 18.8313 22.9478 18.897 22.9663C18.9628 22.9847 19.0242 23.0161 19.0776 23.0586L21.0838 24.6664C21.283 24.826 21.8537 24.8685 22.3772 24.6221C22.9276 24.3591 23.3435 23.8172 23.4587 23.2125C23.5691 22.6409 23.3921 22.0867 22.9984 21.7695L21.1839 20.3175C21.0752 20.2303 21.005 20.1039 20.9884 19.9655C20.9718 19.8272 21.0101 19.6878 21.0951 19.5773C21.1358 19.5224 21.1872 19.4763 21.2462 19.4418C21.3052 19.4073 21.3706 19.3851 21.4384 19.3766C21.5062 19.3681 21.5751 19.3734 21.6408 19.3923C21.7065 19.4111 21.7677 19.4431 21.8207 19.4862L24.4584 21.5958C24.855 21.9111 25.4247 21.9545 25.951 21.7091C26.4967 21.448 26.9126 20.9071 27.0306 20.2958C27.1411 19.7241 26.964 19.1719 26.5661 18.8518L23.9274 16.7451C23.8185 16.6567 23.7483 16.5294 23.7318 16.3902C23.7152 16.2509 23.7535 16.1107 23.8387 15.9993C23.8804 15.9452 23.9324 15.9 23.9918 15.8662C24.0512 15.8325 24.1166 15.8109 24.1844 15.8027C24.2522 15.7946 24.321 15.8 24.3867 15.8186C24.4523 15.8373 24.5136 15.8689 24.567 15.9115C24.567 15.9115 28.5737 19.1152 28.5765 19.1152C28.7757 19.2719 29.3436 19.3163 29.8647 19.0671C30.4161 18.8098 30.8291 18.2688 30.949 17.6594C31.0576 17.0868 30.8806 16.5308 30.4845 16.2164L22.6425 9.94059C21.7428 9.20279 20.8133 8.43856 19.7338 8.58347L17.0932 8.92806C15.3131 9.35573 13.634 8.93279 12.6631 7.78478C12.0777 7.09324 11.8785 6.2379 12.1414 5.55013C12.5101 4.59613 13.2163 4.49748 14.3818 4.33321C14.5559 4.31102 14.7433 4.28364 14.9496 4.25107L19.6332 2.5234C19.9377 2.41011 20.2747 2.33175 20.6236 2.26236C19.4194 1.79645 18.5466 1.7686 17.3929 1.84224ZM7.21474 0.013077C6.36176 -0.0515928 5.58289 0.591328 4.46179 2.05135L1.59461 5.78615C0.55753 7.13336 0.169039 7.97124 0.254951 8.68119C0.323869 9.26463 0.729825 9.83722 1.13248 10.1601L2.49243 11.2463L9.87753 1.63407L8.92164 0.868889C8.26456 0.344922 7.72643 0.0527285 7.21474 0.013077ZM30.8962 0.00316321C30.3845 0.0352621 29.8416 0.32132 29.1793 0.837735L28.2131 1.58734L35.4957 11.2779L36.437 10.5458C37.2513 9.91416 37.6667 9.34913 37.7427 8.76615C37.8366 8.05809 37.4604 7.21361 36.4398 5.84893L33.6194 2.07826C32.5205 0.60313 31.7515 -0.0515937 30.8962 0.00316321Z" fill="#91E2FD"/>
</svg>
