<svg width="28" height="28" viewBox="0 0 28 28" fill="none" xmlns="http://www.w3.org/2000/svg">
<g clip-path="url(#clip0_790_119382)">
<g clip-path="url(#clip1_790_119382)">
<path d="M14 27.6719C21.5508 27.6719 27.6719 21.5508 27.6719 14C27.6719 6.44923 21.5508 0.328125 14 0.328125C6.44923 0.328125 0.328125 6.44923 0.328125 14C0.328125 21.5508 6.44923 27.6719 14 27.6719Z" fill="url(#paint0_linear_790_119382)"/>
<path d="M15.581 20.9874V22.425H12.5161V20.9958C10.0172 20.5401 8.46924 18.8962 8.46924 16.4075H12.3912C12.3912 17.3359 13.15 17.7996 13.999 17.7996C14.7952 17.7996 15.5539 17.3944 15.5539 16.6866C15.5539 15.8272 14.4894 15.578 13.1842 15.2554C11.1913 14.7602 8.65375 14.1449 8.65375 11.0171C8.65375 8.78992 10.0342 7.34491 12.3783 6.92573V5.57495H15.4432V6.93979C17.7729 7.39424 19.0862 8.92948 19.0862 11.2147L15.2779 11.2233C15.2779 10.418 14.6335 10.0246 13.8461 10.0246C13.1619 10.0246 12.5087 10.3062 12.5087 10.8996C12.5087 11.6859 13.5411 11.9436 14.8485 12.2751C16.8794 12.7994 19.5313 13.4646 19.5313 16.6109C19.5312 19.0674 17.9448 20.5493 15.581 20.9874Z" fill="#1B1C1E"/>
</g>
</g>
<defs>
<linearGradient id="paint0_linear_790_119382" x1="0.328125" y1="14" x2="27.6719" y2="14" gradientUnits="userSpaceOnUse">
<stop stop-color="#96E3FD"/>
<stop offset="0.5" stop-color="#91E2FD"/>
<stop offset="1" stop-color="#53D4FF"/>
</linearGradient>
<clipPath id="clip0_790_119382">
<rect width="28" height="28" fill="white"/>
</clipPath>
<clipPath id="clip1_790_119382">
<rect width="28" height="28" fill="white"/>
</clipPath>
</defs>
</svg>
