<svg width="30" height="23" viewBox="0 0 30 23" fill="none" xmlns="http://www.w3.org/2000/svg">
<path d="M20.4956 10.372V10.8736H10.2479V0H11.2556C12.5889 3.47998 15.3847 8.73653 20.4956 10.372Z" fill="#111214"/>
<path d="M20.4957 10.8739V11.3703C15.3847 13.011 12.5838 18.2676 11.2556 21.7423H10.2479V10.8739H20.4957Z" fill="#111214"/>
<path d="M10.2478 10.8739V21.7423H9.24004C7.91191 18.2676 5.11096 13.011 0 11.3703V10.8739H10.2478Z" fill="#111214"/>
<path d="M10.2478 0V10.8736H0V10.372C5.11096 8.73653 7.90674 3.47998 9.24004 0L10.2478 0Z" fill="#111214"/>
<path d="M29.3692 5.24747V5.50125H24.1846V0H24.6945C25.369 1.76061 26.7835 4.42004 29.3692 5.24747Z" fill="#111214"/>
<path d="M29.3692 5.50153V5.75266C26.7835 6.58274 25.3664 9.24217 24.6945 11.0001H24.1846V5.50153H29.3692Z" fill="#111214"/>
<path d="M24.1845 5.50153V11.0001H23.6747C23.0028 9.24217 21.5857 6.58274 18.9999 5.75266V5.50153H24.1845Z" fill="#111214"/>
<path d="M24.1846 0V5.50125H19V5.24747C21.5858 4.42004 23.0002 1.76061 23.6748 0L24.1846 0Z" fill="#111214"/>
<path d="M23.2867 19.1814V19.3353H20.1434V16H20.4525C20.8614 17.0674 21.719 18.6798 23.2867 19.1814Z" fill="#111214"/>
<path d="M23.2868 19.3354V19.4877C21.7191 19.991 20.8599 21.6033 20.4525 22.6691H20.1434V19.3354H23.2868Z" fill="#111214"/>
<path d="M20.1433 19.3354V22.6691H19.8342C19.4268 21.6033 18.5677 19.991 17 19.4877V19.3354H20.1433Z" fill="#111214"/>
<path d="M20.1433 16V19.3353H17V19.1814C18.5677 18.6798 19.4253 17.0674 19.8342 16H20.1433Z" fill="#111214"/>
</svg>
