<svg width="369" height="219" viewBox="0 0 369 219" fill="none" xmlns="http://www.w3.org/2000/svg">
<g clip-path="url(#clip0_790_86886)">
<rect width="369" height="219" rx="20" fill="url(#paint0_linear_790_86886)"/>
<g opacity="0.2" clip-path="url(#clip1_790_86886)">
<path d="M497.565 1115L490.454 1121.7L386.489 1219.57L296.109 1304.93L414.117 1094.8L549.669 853.209L574.273 809.358L554.996 827.657L450.435 926.919L369.619 1003.75L609.974 574.771L645.385 511.569L617.627 538.065L438.657 708.896L669.672 296.036L712.69 219.158L678.961 251.493L504.099 419.125L728.819 17.0347L776.511 -68.3022L739.111 -32.3257L566.44 133.773L787.509 -262.193L837.467 -351.677L798.286 -313.881L626.143 -147.818L845.776 -541.63L895.789 -631.304L856.557 -593.336L683.056 -425.424L903.616 -821.27L951.434 -907.087L913.916 -870.668L737.334 -699.257L960.993 -1101.14L1004.15 -1178.69L970.28 -1145.69L788.377 -968.427L883.336 -1139.16L1017.86 -1381.26L1053.6 -1445.58L1025.55 -1418.16L836.198 -1232.99L1074.11 -1661.68L1099.21 -1706.92L1079.5 -1687.57L972.407 -1582.41L879.377 -1490.82L995.38 -1700.23L1129.47 -1942.54L1139.15 -1960.04L1131.56 -1952.57L919.238 -1743.71L1187.64 -2222.02L1196.73 -2238.23L1189.62 -2231.53L1085.66 -2133.66L995.276 -2048.3L1113.28 -2258.43L1248.84 -2500.02L1273.44 -2543.87L1254.16 -2525.57L1149.6 -2426.31L1068.79 -2349.48L1309.14 -2778.45L1344.55 -2841.66L1316.79 -2815.16L1137.82 -2644.33L1368.84 -3057.19L1411.86 -3134.07L1378.13 -3101.73L1203.27 -2934.1L1427.98 -3336.19L1475.68 -3421.53L1438.28 -3385.55L1265.61 -3219.45L1486.68 -3615.42L1536.63 -3704.9L1497.45 -3667.11L1325.31 -3501.04L1544.94 -3894.86L1594.96 -3984.53L1555.72 -3946.56L1382.22 -3778.65L1602.78 -4174.5L1650.6 -4260.32L1613.08 -4223.9L1436.5 -4052.48L1660.16 -4454.37L1703.32 -4531.92L1669.45 -4498.91L1487.54 -4321.65L1582.5 -4492.39L1717.02 -4734.49L1752.76 -4798.81L1724.71 -4771.38L1535.36 -4586.22L1773.27 -5014.91L1798.38 -5060.15L1778.67 -5040.8L1671.57 -4935.64L1578.54 -4844.04L1694.55 -5053.46L1828.64 -5295.77L1838.32 -5313.26L1830.73 -5305.8L1616.25 -5094.81C1615.58 -5094.15 1614.56 -5092.51 1613.98 -5091.14C1613.41 -5089.8 1613.47 -5089.22 1614.1 -5089.82L1815.28 -5280.34L1689.17 -5056.09L1553.47 -4814.57L1535.38 -4782.37L1549.56 -4795.78L1653.88 -4894.48L1738.91 -4975.16L1492.8 -4536.31L1461.96 -4481.31L1486.14 -4504.35L1668 -4677.68L1568.15 -4499.41L1432.88 -4257.68L1393.36 -4187.07L1424.33 -4216.69L1600.98 -4385.66L1373.46 -3978.82L1327.7 -3897.01L1363.58 -3931.47L1537.1 -4098.12L1314.55 -3699.69L1265.43 -3611.75L1303.96 -3648.86L1476.15 -3814.76L1256.07 -3420.37L1205.72 -3330.15L1245.22 -3368.32L1417.88 -3535.2L1198.03 -3140.82L1148.87 -3052.64L1187.44 -3090.01L1362.27 -3259.47L1140.41 -2861.07L1094.62 -2778.84L1130.55 -2813.78L1309.52 -2987.82L1083.29 -2581.08L1043.47 -2509.49L1074.72 -2540.01L1260.23 -2721.15L1026.74 -2300.8L996.004 -2245.47L1020.13 -2269.12L1127.1 -2373.96L1214.74 -2459.99L1105.15 -2262.41L970.909 -2020.17L953.079 -1987.99L967.079 -2001.8L1074.51 -2107.74L1174.89 -2207L915.506 -1739.33C914.911 -1738.26 914.514 -1737.29 914.436 -1736.77C914.433 -1736.75 914.431 -1736.73 914.429 -1736.71C914.429 -1736.7 914.425 -1736.68 914.425 -1736.67C914.391 -1736.29 914.565 -1736.24 914.935 -1736.59L1116.12 -1927.11L990.001 -1702.86L854.307 -1461.34L836.217 -1429.14L850.39 -1442.55L954.71 -1541.25L1039.75 -1621.93L793.635 -1183.08L762.789 -1128.08L786.972 -1151.12L968.835 -1324.45L868.986 -1146.18L733.715 -904.454L694.197 -833.835L725.168 -863.461L901.809 -1032.43L674.289 -625.589L628.538 -543.777L664.416 -578.236L837.936 -744.889L615.389 -346.464L566.263 -258.516L604.79 -295.633L776.988 -461.528L556.906 -67.1416L506.561 23.0757L546.054 -15.0942L718.717 -181.974L498.868 212.406L449.708 300.593L488.274 263.213L663.106 93.7622L441.249 492.157L395.454 574.391L431.389 539.447L610.356 365.407L384.122 772.15L344.301 843.745L375.559 813.222L561.065 632.078L327.577 1052.43L296.841 1107.76L320.971 1084.11L427.933 979.267L515.581 893.243L405.985 1090.82L271.747 1333.06L253.916 1365.23L267.916 1351.43L375.349 1245.49L475.721 1146.22L216.342 1613.89C215.503 1615.41 215.055 1616.73 215.344 1616.84C215.627 1616.96 216.516 1615.86 217.344 1614.38L488.473 1131.21L497.567 1115.01L497.565 1115Z" fill="black"/>
<path d="M308.704 1384.9L301.593 1391.6L197.627 1489.47L107.248 1574.83L225.255 1364.7L360.807 1123.11L385.412 1079.26L366.135 1097.56L261.574 1196.82L180.757 1273.65L421.113 844.669L456.524 781.467L428.766 807.963L249.795 978.794L480.811 565.934L523.828 489.056L490.1 521.391L315.238 689.023L539.959 286.929L587.652 201.592L550.252 237.569L377.581 403.667L598.65 7.70459L648.608 -81.7788L609.426 -43.9834L437.283 122.08L656.917 -271.731L706.93 -361.406L667.697 -323.438L494.197 -155.526L714.757 -551.372L762.575 -637.189L725.057 -600.771L548.474 -429.359L772.133 -831.243L815.293 -908.795L781.42 -875.788L599.518 -698.529L694.476 -869.266L828.996 -1111.36L864.738 -1175.69L836.689 -1148.26L647.339 -963.09L885.248 -1391.78L910.355 -1437.02L890.646 -1417.67L783.547 -1312.51L690.517 -1220.92L806.52 -1430.33L940.611 -1672.64L950.295 -1690.14L942.704 -1682.67L730.381 -1473.81L998.782 -1952.12L1007.88 -1968.33L1000.76 -1961.63L896.799 -1863.76L806.42 -1778.4L924.429 -1988.53L1059.98 -2230.12L1084.59 -2273.97L1065.31 -2255.67L960.746 -2156.41L879.929 -2079.58L1120.28 -2508.56L1155.7 -2571.76L1127.94 -2545.26L948.968 -2374.43L1179.98 -2787.29L1223 -2864.17L1189.27 -2831.83L1014.41 -2664.2L1239.13 -3066.3L1286.82 -3151.63L1249.42 -3115.66L1076.75 -2949.56L1297.82 -3345.52L1347.78 -3435.01L1308.6 -3397.21L1136.46 -3231.15L1356.09 -3624.96L1406.1 -3714.63L1366.87 -3676.67L1193.37 -3508.75L1413.93 -3904.6L1461.75 -3990.42L1424.23 -3954L1247.65 -3782.59L1471.31 -4184.47L1514.46 -4262.02L1480.59 -4229.02L1298.69 -4051.76L1393.65 -4222.5L1528.17 -4464.59L1563.91 -4528.92L1535.86 -4501.49L1346.51 -4316.32L1584.42 -4745.01L1609.53 -4790.25L1589.82 -4770.9L1482.72 -4665.74L1389.69 -4574.15L1505.69 -4783.56L1639.78 -5025.87L1649.47 -5043.37L1641.88 -5035.9L1427.4 -4824.92C1426.72 -4824.26 1425.71 -4822.61 1425.13 -4821.25C1424.56 -4819.9 1424.61 -4819.32 1425.25 -4819.93L1626.43 -5010.45L1500.32 -4786.19L1364.62 -4544.67L1346.53 -4512.47L1360.7 -4525.88L1465.02 -4624.58L1550.06 -4705.27L1303.95 -4266.41L1273.1 -4211.41L1297.29 -4234.46L1479.15 -4407.78L1379.3 -4229.52L1244.03 -3987.79L1204.51 -3917.17L1235.48 -3946.79L1412.12 -4115.77L1184.6 -3708.92L1138.85 -3627.11L1174.73 -3661.57L1348.25 -3828.22L1125.7 -3429.8L1076.58 -3341.85L1115.1 -3378.97L1287.3 -3544.86L1067.22 -3150.48L1016.87 -3060.26L1056.37 -3098.43L1229.03 -3265.31L1009.18 -2870.93L960.02 -2782.74L998.587 -2820.12L1173.42 -2989.57L951.561 -2591.18L905.767 -2508.94L941.702 -2543.89L1120.67 -2717.93L894.434 -2311.19L854.614 -2239.59L885.872 -2270.11L1071.38 -2451.26L837.888 -2030.91L807.152 -1975.57L831.282 -1999.22L938.244 -2104.07L1025.89 -2190.09L916.296 -1992.51L782.057 -1750.27L764.227 -1718.1L778.227 -1731.9L885.662 -1837.84L986.033 -1937.11L726.655 -1469.44C726.059 -1468.36 725.662 -1467.39 725.584 -1466.87C725.581 -1466.85 725.579 -1466.84 725.577 -1466.82C725.577 -1466.8 725.573 -1466.79 725.573 -1466.77C725.539 -1466.4 725.713 -1466.35 726.084 -1466.7L927.265 -1657.22L801.149 -1432.96L665.455 -1191.44L647.366 -1159.24L661.538 -1172.65L765.859 -1271.35L850.893 -1352.04L604.783 -913.183L573.937 -858.181L598.12 -881.228L779.983 -1054.55L680.134 -876.288L544.863 -634.558L505.346 -563.939L536.316 -593.565L712.957 -762.538L485.437 -355.692L439.686 -273.881L475.564 -308.34L649.084 -474.993L426.531 -76.5698L377.405 11.3779L415.932 -25.7388L588.13 -191.633L368.046 202.755L317.701 292.972L357.194 254.802L529.858 87.9219L310.008 482.303L260.848 570.489L299.415 533.109L474.247 363.658L252.389 762.053L206.595 844.288L242.53 809.343L421.496 635.303L195.262 1042.05L155.442 1113.64L186.7 1083.12L372.206 901.974L138.717 1322.32L107.982 1377.66L132.112 1354.01L239.074 1249.16L326.721 1163.14L217.125 1360.72L82.8873 1602.96L65.0568 1635.13L79.0569 1621.33L186.49 1515.39L286.861 1416.12L27.4787 1883.79C26.6393 1885.3 26.1912 1886.62 26.4805 1886.74C26.7641 1886.85 27.6527 1885.76 28.4808 1884.28L299.61 1401.11L308.704 1384.9Z" fill="black"/>
<path d="M119.843 1654.8L112.733 1661.49L8.76709 1759.36L-81.6124 1844.72L36.3948 1634.6L171.947 1393L196.552 1349.15L177.275 1367.45L72.7137 1466.71L-8.10295 1543.54L232.252 1114.56L267.664 1051.36L239.905 1077.86L60.9351 1248.69L291.951 835.83L334.968 758.951L301.239 791.287L126.377 958.919L351.099 556.824L398.792 471.487L361.391 507.464L188.721 673.563L409.789 277.596L459.747 188.113L420.566 225.909L248.423 391.972L468.057 -1.83447L518.069 -91.5088L478.837 -53.541L305.336 114.371L525.897 -281.475L573.714 -367.292L536.197 -330.873L359.614 -159.461L583.273 -561.346L626.432 -638.898L592.56 -605.891L410.657 -428.632L505.616 -599.368L640.136 -841.465L675.878 -905.79L647.829 -878.36L458.479 -693.193L696.387 -1121.89L721.495 -1167.13L701.785 -1147.77L594.687 -1042.61L501.657 -951.021L617.66 -1160.44L751.751 -1402.74L761.434 -1420.24L753.842 -1412.77L541.519 -1203.91L809.919 -1682.23L819.013 -1698.43L811.903 -1691.74L707.937 -1593.86L617.556 -1508.5L735.565 -1718.63L871.117 -1960.22L895.722 -2004.08L876.445 -1985.78L771.882 -1886.51L691.065 -1809.68L931.42 -2238.66L966.832 -2301.86L939.074 -2275.36L760.103 -2104.53L991.121 -2517.39L1034.14 -2594.27L1000.41 -2561.94L825.547 -2394.3L1050.27 -2796.4L1097.96 -2881.73L1060.56 -2845.76L887.889 -2679.66L1108.96 -3075.63L1158.92 -3165.11L1119.73 -3127.31L947.591 -2961.25L1167.22 -3355.06L1217.24 -3444.74L1178.01 -3406.77L1004.5 -3238.86L1225.06 -3634.7L1272.88 -3720.52L1235.36 -3684.1L1058.78 -3512.69L1282.44 -3914.57L1325.6 -3992.13L1291.73 -3959.12L1109.83 -3781.86L1204.78 -3952.6L1339.3 -4194.69L1375.05 -4259.02L1347 -4231.59L1157.65 -4046.42L1395.56 -4475.11L1420.66 -4520.35L1400.95 -4501L1293.86 -4395.84L1200.83 -4304.25L1316.83 -4513.66L1450.92 -4755.97L1460.6 -4773.47L1453.01 -4766L1238.53 -4555.02C1237.86 -4554.36 1236.85 -4552.71 1236.26 -4551.34C1235.69 -4550 1235.75 -4549.42 1236.39 -4550.03L1437.57 -4740.55L1311.45 -4516.29L1175.76 -4274.77L1157.67 -4242.57L1171.84 -4255.98L1276.16 -4354.68L1361.2 -4435.37L1115.09 -3996.51L1084.24 -3941.51L1108.42 -3964.56L1290.29 -4137.88L1190.44 -3959.62L1055.17 -3717.89L1015.65 -3647.27L1046.62 -3676.9L1223.26 -3845.87L995.74 -3439.02L949.988 -3357.21L985.867 -3391.67L1159.39 -3558.32L936.839 -3159.9L887.713 -3071.95L926.24 -3109.07L1098.44 -3274.96L878.354 -2880.58L828.009 -2790.36L867.502 -2828.53L1040.17 -2995.41L820.316 -2601.03L771.156 -2512.84L809.723 -2550.22L984.555 -2719.67L762.697 -2321.28L716.903 -2239.04L752.838 -2273.99L931.804 -2448.03L705.57 -2041.29L665.75 -1969.69L697.008 -2000.21L882.512 -2181.36L649.023 -1761.01L618.288 -1705.67L642.418 -1729.32L749.38 -1834.17L837.027 -1920.19L727.432 -1722.61L593.193 -1480.38L575.363 -1448.2L589.363 -1462L696.798 -1567.95L797.169 -1667.21L537.79 -1199.54C537.195 -1198.47 536.798 -1197.49 536.72 -1196.97C536.717 -1196.96 536.715 -1196.94 536.713 -1196.92C536.713 -1196.9 536.709 -1196.89 536.709 -1196.87C536.675 -1196.5 536.849 -1196.45 537.219 -1196.8L738.401 -1387.32L612.285 -1163.06L476.591 -921.54L458.501 -889.343L472.674 -902.751L576.994 -1001.45L662.029 -1082.14L415.919 -643.284L385.073 -588.282L409.256 -611.329L591.119 -784.654L491.27 -606.388L355.999 -364.659L316.481 -294.04L347.452 -323.666L524.093 -492.639L296.573 -85.7993L250.822 -3.98779L286.7 -38.4463L460.22 -205.1L237.671 193.327L188.545 281.275L227.072 244.159L399.27 78.2637L179.186 472.652L128.841 562.869L168.334 524.699L340.997 357.819L121.148 752.2L71.9877 840.386L110.555 803.007L285.386 633.556L63.5272 1031.95L17.7324 1114.18L53.6676 1079.24L232.634 905.201L6.40002 1311.94L-33.4203 1383.54L-2.16261 1353.01L183.344 1171.87L-50.1448 1592.22L-80.8807 1647.55L-56.7506 1623.9L50.2115 1519.06L137.859 1433.03L28.2632 1630.61L-105.975 1872.85L-123.805 1905.03L-109.805 1891.22L-2.37436 1785.28L97.997 1686.02L-161.382 2153.68C-162.221 2155.2 -162.669 2156.52 -162.38 2156.63C-162.096 2156.75 -161.208 2155.65 -160.38 2154.18L110.749 1671L119.843 1654.8Z" fill="black"/>
<path d="M-69.0176 1924.7L-76.1282 1931.39L-180.094 2029.26L-270.473 2114.62L-152.466 1904.49L-16.9139 1662.9L7.69073 1619.05L-11.5861 1637.35L-116.147 1736.61L-196.964 1813.44L43.3914 1384.47L78.8028 1321.27L51.0447 1347.76L-127.926 1518.59L103.09 1105.73L146.107 1028.85L112.378 1061.19L-62.4836 1228.82L162.238 826.727L209.931 741.39L172.531 777.366L-0.14212 943.465L220.927 547.499L270.885 458.015L231.703 495.811L59.5601 661.874L279.196 268.064L329.209 178.39L289.976 216.357L116.475 384.27L337.036 -11.5767L384.853 -97.394L347.336 -60.9746L170.753 110.437L394.412 -291.448L437.572 -368.999L403.699 -335.993L221.796 -158.733L316.755 -329.47L451.275 -571.566L487.017 -635.891L458.968 -608.462L269.618 -423.294L507.527 -851.988L532.634 -897.229L512.924 -877.876L405.826 -772.714L312.796 -681.123L428.799 -890.538L562.89 -1132.84L572.574 -1150.34L564.981 -1142.87L352.658 -934.014L621.059 -1412.33L630.153 -1428.53L623.042 -1421.84L519.076 -1323.97L428.697 -1238.61L546.706 -1448.73L682.258 -1690.32L706.863 -1734.18L687.586 -1715.88L583.025 -1616.62L502.208 -1539.79L742.563 -1968.76L777.975 -2031.96L750.217 -2005.47L571.246 -1834.63L802.264 -2247.5L845.281 -2324.37L811.552 -2292.04L636.69 -2124.41L861.41 -2526.5L909.103 -2611.84L871.703 -2575.86L699.032 -2409.76L920.101 -2805.73L970.059 -2895.21L930.877 -2857.42L758.734 -2691.35L978.368 -3085.16L1028.38 -3174.84L989.148 -3136.87L815.647 -2968.96L1036.21 -3364.8L1084.03 -3450.62L1046.51 -3414.2L869.925 -3242.79L1093.58 -3644.68L1136.74 -3722.23L1102.87 -3689.22L920.969 -3511.96L1015.93 -3682.7L1150.45 -3924.8L1186.19 -3989.12L1158.14 -3961.69L968.79 -3776.52L1206.7 -4205.22L1231.81 -4250.46L1212.1 -4231.11L1105 -4125.94L1011.97 -4034.35L1127.97 -4243.77L1262.06 -4486.07L1271.75 -4503.57L1264.15 -4496.1L1049.67 -4285.12C1049 -4284.46 1047.99 -4282.81 1047.4 -4281.45C1046.83 -4280.11 1046.89 -4279.53 1047.53 -4280.13L1248.71 -4470.65L1122.59 -4246.4L986.898 -4004.87L968.809 -3972.68L982.981 -3986.08L1087.3 -4084.78L1172.34 -4165.47L926.226 -3726.62L895.381 -3671.61L919.564 -3694.66L1101.43 -3867.99L1001.58 -3689.72L866.307 -3447.99L826.789 -3377.37L857.759 -3407L1034.4 -3575.97L806.881 -3169.13L761.13 -3087.32L797.008 -3121.77L970.528 -3288.43L747.98 -2890L698.854 -2802.05L737.381 -2839.17L909.579 -3005.07L689.496 -2610.68L639.15 -2520.46L678.643 -2558.63L851.307 -2725.51L631.457 -2331.13L582.297 -2242.94L620.864 -2280.32L795.696 -2449.77L573.838 -2051.38L528.044 -1969.15L563.979 -2004.09L742.945 -2178.13L516.711 -1771.39L476.891 -1699.8L508.149 -1730.32L693.653 -1911.46L460.165 -1491.11L429.429 -1435.78L453.559 -1459.43L560.521 -1564.27L648.168 -1650.3L538.573 -1452.72L404.334 -1210.48L386.504 -1178.3L400.504 -1192.11L507.939 -1298.05L608.31 -1397.31L348.932 -929.644C348.336 -928.57 347.939 -927.596 347.861 -927.078C347.858 -927.059 347.856 -927.04 347.854 -927.021C347.854 -927.006 347.85 -926.991 347.85 -926.976C347.816 -926.603 347.99 -926.55 348.361 -926.902L549.542 -1117.42L423.426 -893.168L287.732 -651.644L269.643 -619.447L283.815 -632.855L388.136 -731.555L473.17 -812.241L227.056 -373.393L196.211 -318.391L220.394 -341.438L402.257 -514.763L302.407 -336.498L167.138 -94.7661L127.621 -24.1475L158.591 -53.7734L335.232 -222.746L107.71 184.1L61.9592 265.91L97.8376 231.452L271.357 64.7993L48.8099 463.226L-0.316071 551.174L38.2111 514.057L210.409 348.162L-9.67654 742.55L-60.022 832.767L-20.5287 794.598L152.134 627.718L-67.715 1022.1L-116.875 1110.28L-78.3081 1072.9L96.5237 903.454L-125.334 1301.85L-171.128 1384.08L-135.193 1349.14L43.7733 1175.1L-182.461 1581.84L-222.281 1653.44L-191.023 1622.91L-5.51907 1441.77L-239.008 1862.12L-269.743 1917.45L-245.613 1893.8L-138.651 1788.96L-51.0037 1702.93L-160.599 1900.51L-294.838 2142.75L-312.668 2174.92L-298.668 2161.12L-191.235 2055.18L-90.8638 1955.91L-350.242 2423.58C-351.082 2425.1 -351.53 2426.42 -351.241 2426.53C-350.957 2426.65 -350.068 2425.55 -349.24 2424.07L-78.1115 1940.9L-69.0176 1924.7Z" fill="black"/>
<path d="M-257.877 2194.59L-264.988 2201.28L-368.954 2299.16L-459.333 2384.52L-341.326 2174.39L-205.774 1932.8L-181.169 1888.95L-200.446 1907.24L-305.007 2006.51L-385.824 2083.34L-145.468 1654.36L-110.057 1591.16L-137.815 1617.65L-316.786 1788.48L-85.7701 1375.63L-42.7527 1298.75L-76.4814 1331.08L-251.343 1498.72L-26.6238 1096.62L21.0692 1011.28L-16.3312 1047.26L-189.002 1213.36L32.0669 817.396L82.0248 727.912L42.8434 765.708L-129.3 931.771L90.336 537.959L140.349 448.285L101.116 486.252L-72.3845 654.165L148.176 258.319L195.994 172.501L158.476 208.92L-18.1065 380.332L205.554 -21.5542L248.714 -99.106L214.841 -66.0991L32.9404 111.16L127.899 -59.5767L262.419 -301.673L298.161 -365.998L270.112 -338.569L80.7599 -153.401L318.669 -582.094L343.776 -627.335L324.066 -607.983L216.968 -502.821L123.938 -411.229L239.941 -620.644L374.032 -862.95L383.716 -880.448L376.123 -872.98L163.8 -664.121L432.201 -1142.43L441.295 -1158.64L434.184 -1151.95L330.219 -1054.07L239.839 -968.712L357.848 -1178.84L493.4 -1420.43L518.005 -1464.28L498.728 -1445.99L394.165 -1346.72L313.348 -1269.89L553.704 -1698.87L589.115 -1762.07L561.357 -1735.57L382.387 -1564.74L613.404 -1977.6L656.421 -2054.48L622.691 -2022.14L447.829 -1854.51L672.548 -2256.61L720.241 -2341.94L682.841 -2305.97L510.17 -2139.87L731.239 -2535.83L781.197 -2625.32L742.016 -2587.52L569.872 -2421.46L789.506 -2815.27L839.519 -2904.94L800.286 -2866.98L626.786 -2699.06L847.346 -3094.91L895.164 -3180.73L857.646 -3144.31L681.064 -2972.9L904.723 -3374.78L947.882 -3452.33L914.01 -3419.33L732.107 -3242.07L827.065 -3412.8L961.585 -3654.9L997.328 -3719.23L969.278 -3691.8L779.928 -3506.63L1017.84 -3935.32L1042.94 -3980.56L1023.23 -3961.21L916.136 -3856.05L823.106 -3764.46L939.109 -3973.87L1073.2 -4216.18L1082.88 -4233.67L1075.29 -4226.21L860.813 -4015.22C860.142 -4014.56 859.127 -4012.92 858.544 -4011.55C857.973 -4010.21 858.032 -4009.63 858.667 -4010.23L1059.85 -4200.75L933.733 -3976.5L798.038 -3734.98L779.949 -3702.78L794.121 -3716.19L898.442 -3814.89L983.477 -3895.58L737.367 -3456.72L706.521 -3401.72L730.704 -3424.77L912.567 -3598.09L812.717 -3419.83L677.447 -3178.1L637.929 -3107.48L668.899 -3137.1L845.541 -3306.08L618.021 -2899.23L572.27 -2817.42L608.148 -2851.88L781.668 -3018.53L559.12 -2620.11L509.994 -2532.16L548.521 -2569.28L720.719 -2735.17L500.636 -2340.78L450.29 -2250.57L489.783 -2288.74L662.447 -2455.62L442.597 -2061.24L393.437 -1973.05L432.004 -2010.43L606.836 -2179.88L384.979 -1781.48L339.184 -1699.25L375.119 -1734.2L554.085 -1908.24L327.851 -1501.49L288.031 -1429.9L319.289 -1460.42L504.793 -1641.56L271.305 -1221.22L240.569 -1165.88L264.699 -1189.53L371.661 -1294.38L459.308 -1380.4L349.713 -1182.82L215.475 -940.583L197.644 -908.407L211.644 -922.212L319.079 -1028.15L419.45 -1127.42L160.07 -659.752C159.474 -658.678 159.077 -657.704 159 -657.186C158.996 -657.167 158.994 -657.149 158.992 -657.13C158.992 -657.115 158.988 -657.099 158.988 -657.084C158.954 -656.712 159.128 -656.659 159.499 -657.01L360.68 -847.531L234.564 -623.276L98.8703 -381.752L80.7808 -349.555L94.9529 -362.964L199.274 -461.664L284.308 -542.35L38.1964 -103.496L7.35077 -48.4941L31.5338 -71.541L213.397 -244.866L113.549 -66.6006L-21.7214 175.129L-61.2392 245.748L-30.2689 216.122L146.372 47.1489L-81.1494 453.996L-126.901 535.807L-91.0222 501.349L82.4974 334.696L-140.05 733.121L-189.176 821.069L-150.649 783.952L21.5475 618.059L-198.536 1012.45L-248.882 1102.66L-209.389 1064.49L-36.7253 897.612L-256.575 1291.99L-305.735 1380.18L-267.168 1342.8L-92.3362 1173.35L-314.193 1571.74L-359.988 1653.98L-324.053 1619.03L-145.087 1444.99L-371.321 1851.74L-411.141 1923.33L-379.883 1892.81L-194.377 1711.66L-427.865 2132.01L-458.601 2187.35L-434.471 2163.7L-327.509 2058.85L-239.862 1972.83L-349.457 2170.41L-483.696 2412.64L-501.526 2444.82L-487.526 2431.02L-380.093 2325.07L-279.722 2225.81L-539.1 2693.48C-539.94 2694.99 -540.388 2696.32 -540.099 2696.43C-539.815 2696.54 -538.926 2695.45 -538.098 2693.97L-266.969 2210.8L-257.876 2194.59L-257.877 2194.59Z" fill="black"/>
<path d="M-446.74 2464.49L-453.85 2471.18L-557.816 2569.06L-648.195 2654.41L-530.188 2444.29L-394.636 2202.69L-370.031 2158.84L-389.308 2177.14L-493.869 2276.4L-574.686 2353.23L-334.331 1924.26L-298.919 1861.05L-326.677 1887.55L-505.648 2058.38L-274.632 1645.52L-231.615 1568.64L-265.344 1600.98L-440.206 1768.61L-215.484 1366.52L-167.791 1281.18L-205.192 1317.16L-377.862 1483.25L-156.793 1087.29L-106.836 997.804L-146.017 1035.6L-318.16 1201.66L-98.5263 807.851L-48.5135 718.177L-87.7459 756.145L-261.247 924.057L-40.6844 528.215L7.13324 442.395L-30.3843 478.815L-206.967 650.226L16.6941 248.344L59.8533 170.792L25.9808 203.799L-155.922 381.058L-60.9633 210.321L73.5565 -31.7771L109.299 -96.1018L81.2495 -68.6726L-108.1 116.495L129.808 -312.198L154.916 -357.439L135.206 -338.087L28.1078 -232.924L-64.9223 -141.333L51.0808 -350.748L185.172 -593.054L194.855 -610.552L187.262 -603.084L-25.0604 -394.225L243.34 -872.538L252.434 -888.742L245.324 -882.05L141.358 -784.176L50.9768 -698.816L168.986 -908.944L304.538 -1150.54L329.143 -1194.39L309.866 -1176.09L205.303 -1076.83L124.486 -999.996L364.841 -1428.97L400.253 -1492.17L372.495 -1465.68L193.524 -1294.84L424.542 -1707.71L467.559 -1784.58L433.83 -1752.25L258.968 -1584.62L483.688 -1986.71L531.381 -2072.05L493.98 -2036.07L321.31 -1869.97L542.379 -2265.94L592.336 -2355.42L553.155 -2317.62L381.012 -2151.56L600.646 -2545.37L650.658 -2635.04L611.426 -2597.08L437.925 -2429.17L658.486 -2825.01L706.303 -2910.83L668.786 -2874.41L492.203 -2703L715.862 -3104.88L759.022 -3182.43L725.149 -3149.43L543.246 -2972.17L638.205 -3142.9L772.725 -3385L808.467 -3449.33L780.418 -3421.9L591.068 -3236.73L828.977 -3665.42L854.084 -3710.66L834.374 -3691.31L727.276 -3586.15L634.246 -3494.56L750.249 -3703.97L884.34 -3946.28L894.024 -3963.77L886.431 -3956.31L671.951 -3745.32C671.28 -3744.66 670.264 -3743.02 669.682 -3741.65C669.111 -3740.31 669.17 -3739.73 669.805 -3740.33L870.986 -3930.85L744.87 -3706.6L609.176 -3465.08L591.087 -3432.88L605.259 -3446.29L709.58 -3544.99L794.614 -3625.67L548.504 -3186.82L517.659 -3131.82L541.842 -3154.86L723.705 -3328.19L623.855 -3149.92L488.585 -2908.19L449.067 -2837.57L480.037 -2867.2L656.678 -3036.17L429.159 -2629.33L383.407 -2547.52L419.286 -2581.98L592.805 -2748.63L370.258 -2350.21L321.132 -2262.26L359.659 -2299.37L531.857 -2465.27L311.773 -2070.88L261.428 -1980.67L300.921 -2018.84L473.584 -2185.72L253.735 -1791.33L204.573 -1703.15L243.14 -1740.53L417.972 -1909.98L196.114 -1511.58L150.32 -1429.35L186.255 -1464.29L365.221 -1638.33L138.987 -1231.59L99.1669 -1160L130.425 -1190.52L315.929 -1371.66L82.4424 -951.318L51.7066 -895.984L75.8366 -919.635L182.799 -1024.48L270.446 -1110.5L160.85 -912.922L26.6142 -670.689L8.78375 -638.512L22.7838 -652.318L130.219 -758.259L230.59 -857.521L-28.7905 -389.854C-29.3861 -388.78 -29.7831 -387.806 -29.8607 -387.288C-29.8644 -387.27 -29.8663 -387.25 -29.8682 -387.231C-29.8682 -387.216 -29.872 -387.201 -29.872 -387.186C-29.906 -386.814 -29.7321 -386.761 -29.3615 -387.113L171.82 -577.633L45.7019 -353.378L-89.9919 -111.856L-108.081 -79.6589L-93.9094 -93.0671L10.4116 -191.767L95.4462 -272.454L-150.664 166.401L-181.51 221.403L-157.327 198.356L24.5364 25.0308L-75.3132 203.296L-210.584 445.025L-250.101 515.646L-219.131 486.018L-42.49 317.045L-270.01 723.891L-315.761 805.702L-279.883 771.243L-106.363 604.591L-328.91 1003.01L-378.036 1090.96L-339.509 1053.85L-167.311 887.951L-387.395 1282.34L-437.74 1372.55L-398.247 1334.39L-225.584 1167.51L-445.433 1561.89L-494.595 1650.07L-456.028 1612.69L-281.197 1443.24L-503.054 1841.64L-548.849 1923.87L-512.913 1888.92L-333.947 1714.88L-560.181 2121.63L-600.001 2193.22L-568.744 2162.7L-383.237 1981.56L-616.726 2401.91L-647.462 2457.24L-623.332 2433.59L-516.37 2328.74L-428.722 2242.72L-538.318 2440.3L-672.556 2682.53L-690.386 2714.71L-676.386 2700.91L-568.953 2594.97L-468.582 2495.7L-727.961 2963.37C-728.8 2964.88 -729.248 2966.2 -728.959 2966.32C-728.675 2966.43 -727.787 2965.34 -726.959 2963.86L-455.83 2480.69L-446.736 2464.48L-446.74 2464.49Z" fill="black"/>
<path d="M-635.6 2734.39L-642.711 2741.08L-746.676 2838.95L-837.056 2924.31L-719.047 2714.18L-583.495 2472.59L-558.89 2428.74L-578.167 2447.04L-682.728 2546.3L-763.544 2623.13L-523.189 2194.15L-487.778 2130.95L-515.536 2157.45L-694.506 2328.28L-463.489 1915.42L-420.472 1838.54L-454.2 1870.87L-629.062 2038.51L-404.343 1636.41L-356.65 1551.07L-394.05 1587.05L-566.721 1753.15L-345.652 1357.18L-295.694 1267.7L-334.875 1305.5L-507.019 1471.56L-287.383 1077.75L-237.37 988.075L-276.603 1026.04L-450.103 1193.96L-229.543 798.109L-181.725 712.292L-219.243 748.711L-395.825 920.122L-172.168 518.24L-129.009 440.688L-162.881 473.695L-344.784 650.954L-249.826 480.219L-115.306 238.121L-79.5635 173.796L-107.613 201.226L-296.963 386.394L-59.054 -42.302L-33.9465 -87.543L-53.6563 -68.1904L-160.755 36.9719L-253.785 128.563L-137.782 -80.8501L-3.68896 -323.158L5.99475 -340.656L-1.5979 -333.188L-213.921 -124.329L54.4799 -602.642L63.5738 -618.846L56.4632 -612.154L-47.5023 -514.28L-137.882 -428.92L-19.8727 -639.048L115.677 -880.639L140.282 -924.492L121.005 -906.193L16.4443 -806.93L-64.3724 -730.1L175.981 -1159.08L211.392 -1222.28L183.634 -1195.78L4.66376 -1024.95L235.681 -1437.81L278.699 -1514.69L244.97 -1482.35L70.1078 -1314.72L294.828 -1716.82L342.52 -1802.15L305.12 -1766.18L132.449 -1600.08L353.518 -1996.04L403.476 -2085.53L364.295 -2047.73L192.151 -1881.66L411.787 -2275.48L461.8 -2365.15L422.568 -2327.19L249.067 -2159.27L469.627 -2555.12L517.445 -2640.94L479.927 -2604.52L303.345 -2433.11L527.006 -2834.99L570.165 -2912.54L536.292 -2879.54L354.39 -2702.28L449.348 -2873.01L583.868 -3115.11L619.61 -3179.44L591.561 -3152.01L402.211 -2966.84L640.118 -3395.53L665.226 -3440.77L645.516 -3421.42L538.417 -3316.26L445.387 -3224.67L561.391 -3434.08L695.483 -3676.39L705.167 -3693.88L697.574 -3686.42L483.094 -3475.43C482.423 -3474.77 481.408 -3473.13 480.825 -3471.76C480.254 -3470.42 480.313 -3469.84 480.948 -3470.44L682.13 -3660.96L556.014 -3436.71L420.32 -3195.19L402.23 -3162.99L416.402 -3176.4L520.721 -3275.1L605.756 -3355.78L359.646 -2916.93L328.8 -2861.93L352.983 -2884.98L534.846 -3058.3L434.998 -2880.04L299.728 -2638.3L260.21 -2567.68L291.181 -2597.31L467.822 -2766.28L240.3 -2359.44L194.549 -2277.63L230.425 -2312.08L403.945 -2478.74L181.397 -2080.31L132.271 -1992.36L170.799 -2029.48L342.997 -2195.37L122.911 -1800.98L72.5656 -1710.77L112.057 -1748.94L284.722 -1915.82L64.8765 -1521.44L15.7145 -1433.26L54.2814 -1470.64L229.113 -1640.09L7.25592 -1241.69L-38.5389 -1159.46L-2.60376 -1194.4L176.363 -1368.44L-49.8713 -961.7L-89.6917 -890.106L-58.4357 -920.628L127.07 -1101.77L-106.418 -681.422L-137.154 -626.087L-113.024 -649.741L-6.06177 -754.584L81.5876 -840.611L-28.0081 -643.029L-162.246 -400.793L-180.079 -368.615L-166.077 -382.422L-58.6437 -488.363L41.7276 -587.625L-217.653 -119.958C-218.25 -118.882 -218.646 -117.908 -218.723 -117.39C-218.725 -117.373 -218.727 -117.356 -218.731 -117.341C-218.732 -117.324 -218.734 -117.305 -218.736 -117.288C-218.768 -116.919 -218.594 -116.866 -218.224 -117.216L-17.0424 -307.736L-143.158 -83.4836L-278.852 158.04L-296.942 190.237L-282.77 176.829L-178.451 78.1309L-93.4161 -2.55542L-339.526 436.297L-370.372 491.299L-346.189 468.252L-164.326 294.927L-264.174 473.192L-399.444 714.924L-438.962 785.544L-407.992 755.916L-231.35 586.944L-458.872 993.791L-504.623 1075.6L-468.747 1041.14L-295.227 874.49L-517.774 1272.91L-566.901 1360.86L-528.373 1323.75L-356.175 1157.85L-576.261 1552.24L-626.606 1642.46L-587.115 1604.29L-414.45 1437.41L-634.299 1831.79L-683.459 1919.98L-644.893 1882.6L-470.061 1713.15L-691.918 2111.54L-737.713 2193.77L-701.778 2158.83L-522.811 1984.79L-749.045 2391.53L-788.866 2463.13L-757.61 2432.6L-572.104 2251.46L-805.592 2671.81L-836.328 2727.14L-812.198 2703.49L-705.236 2598.65L-617.588 2512.62L-727.182 2710.2L-861.42 2952.44L-879.253 2984.61L-865.251 2970.81L-757.818 2864.87L-657.446 2765.61L-916.825 3233.27C-917.664 3234.79 -918.112 3236.11 -917.823 3236.22C-917.54 3236.33 -916.649 3235.24 -915.823 3233.76L-644.694 2750.59L-635.6 2734.39Z" fill="black"/>
<path d="M-824.46 3004.28L-831.569 3010.98L-935.534 3108.85L-1025.91 3194.21L-907.905 2984.08L-772.353 2742.49L-747.748 2698.64L-767.025 2716.94L-871.586 2816.2L-952.403 2893.03L-712.047 2464.05L-676.636 2400.85L-704.394 2427.34L-883.366 2598.18L-652.349 2185.32L-609.333 2108.44L-643.062 2140.77L-817.924 2308.41L-593.205 1906.31L-545.512 1820.98L-582.912 1856.95L-755.583 2023.05L-534.516 1627.09L-484.556 1537.6L-523.739 1575.4L-695.883 1741.46L-476.249 1347.65L-426.234 1257.98L-465.466 1295.95L-638.967 1463.86L-418.405 1068.01L-370.589 982.192L-408.105 1018.61L-584.687 1190.02L-361.028 788.14L-317.867 710.587L-351.74 743.595L-533.64 920.855L-438.682 750.12L-304.162 508.021L-268.42 443.697L-296.469 471.126L-485.819 656.293L-247.914 227.596L-222.807 182.355L-242.516 201.708L-349.615 306.87L-442.645 398.462L-326.642 189.048L-192.549 -53.2617L-182.865 -70.7593L-190.458 -63.2913L-402.781 145.568L-134.38 -332.743L-125.288 -348.948L-132.397 -342.255L-236.362 -244.381L-326.742 -159.021L-208.733 -369.149L-73.1805 -610.741L-48.5759 -654.594L-67.8528 -636.295L-172.416 -537.031L-253.232 -460.202L-12.8772 -889.179L22.5342 -952.379L-5.22388 -925.884L-184.196 -755.05L46.8213 -1167.91L89.8368 -1244.79L56.1079 -1212.46L-118.754 -1044.82L105.966 -1446.92L153.659 -1532.25L116.258 -1496.28L-56.4126 -1330.18L164.656 -1726.14L214.616 -1815.63L175.433 -1777.83L3.28955 -1611.77L222.923 -2005.58L272.938 -2095.26L233.706 -2057.29L60.205 -1889.37L280.767 -2285.22L328.583 -2371.04L291.067 -2334.62L114.485 -2163.21L338.144 -2565.09L381.305 -2642.65L347.432 -2609.64L165.532 -2432.38L260.49 -2603.11L395.01 -2845.21L430.752 -2909.54L402.703 -2882.11L213.353 -2696.94L451.26 -3125.63L476.368 -3170.87L456.658 -3151.52L349.559 -3046.36L256.529 -2954.77L372.532 -3164.18L506.625 -3406.49L516.309 -3423.99L508.716 -3416.52L294.236 -3205.54C293.565 -3204.88 292.55 -3203.23 291.967 -3201.87C291.396 -3200.52 291.455 -3199.95 292.09 -3200.55L493.27 -3391.07L367.156 -3166.82L231.462 -2925.29L213.372 -2893.09L227.544 -2906.5L331.863 -3005.2L416.898 -3085.89L170.788 -2647.03L139.942 -2592.03L164.125 -2615.08L345.99 -2788.4L246.14 -2610.14L110.87 -2368.41L71.3522 -2297.79L102.322 -2327.42L278.964 -2496.39L51.4419 -2089.54L5.69067 -2007.73L41.5673 -2042.19L215.087 -2208.84L-7.46057 -1810.42L-56.5865 -1722.47L-18.0594 -1759.59L154.137 -1925.48L-65.947 -1531.09L-116.292 -1440.88L-76.801 -1479.04L95.8621 -1645.92L-123.987 -1251.55L-173.149 -1163.36L-134.582 -1200.74L40.2494 -1370.19L-181.61 -971.795L-227.405 -889.561L-191.469 -924.507L-12.5028 -1098.55L-238.737 -691.802L-278.557 -620.209L-247.302 -650.731L-61.7952 -831.876L-295.278 -411.526L-326.014 -356.191L-301.884 -379.844L-194.922 -484.687L-107.272 -570.714L-216.868 -373.135L-351.108 -130.896L-368.94 -98.718L-354.939 -112.525L-247.506 -218.466L-147.134 -317.728L-406.513 149.939C-407.108 151.015 -407.505 151.989 -407.583 152.507C-407.585 152.524 -407.589 152.541 -407.591 152.556C-407.592 152.573 -407.594 152.592 -407.596 152.608C-407.628 152.977 -407.454 153.03 -407.084 152.68L-205.904 -37.8381L-332.018 186.415L-467.712 427.938L-485.802 460.136L-471.63 446.727L-367.311 348.029L-282.276 267.343L-528.386 706.195L-559.232 761.197L-535.049 738.15L-353.184 564.825L-453.034 743.091L-588.304 984.822L-627.822 1055.44L-596.852 1025.81L-420.211 856.842L-647.732 1263.69L-693.483 1345.5L-657.607 1311.04L-484.087 1144.39L-706.635 1542.81L-755.761 1630.76L-717.233 1593.65L-545.037 1427.75L-765.121 1822.14L-815.466 1912.35L-775.975 1874.19L-603.312 1707.31L-823.161 2101.69L-872.323 2189.88L-833.756 2152.49L-658.925 1983.04L-880.784 2381.44L-926.579 2463.67L-890.643 2428.72L-711.677 2254.69L-937.911 2661.43L-977.731 2733.02L-946.475 2702.5L-760.969 2521.36L-994.458 2941.71L-1025.19 2997.04L-1001.06 2973.39L-894.101 2868.54L-806.454 2782.52L-916.048 2980.1L-1050.29 3222.33L-1068.12 3254.51L-1054.12 3240.7L-946.683 3134.77L-846.312 3035.5L-1105.69 3503.17C-1106.53 3504.68 -1106.98 3506 -1106.69 3506.12C-1106.41 3506.23 -1105.51 3505.14 -1104.69 3503.66L-833.56 3020.49L-824.468 3004.28H-824.46Z" fill="black"/>
<path d="M-1013.32 3274.18L-1020.43 3280.87L-1124.4 3378.75L-1214.78 3464.11L-1096.77 3253.98L-961.215 3012.38L-936.61 2968.53L-955.887 2986.83L-1060.45 3086.09L-1141.26 3162.92L-900.91 2733.95L-865.498 2670.75L-893.254 2697.24L-1072.23 2868.07L-841.209 2455.21L-798.194 2378.34L-831.923 2410.67L-1006.78 2578.3L-782.065 2176.21L-734.372 2090.87L-771.772 2126.85L-944.443 2292.95L-723.376 1896.98L-673.416 1807.5L-712.6 1845.3L-884.743 2011.36L-665.109 1617.55L-615.094 1527.87L-654.327 1565.84L-827.827 1733.75L-607.265 1337.91L-559.449 1252.09L-596.965 1288.51L-773.548 1459.92L-549.889 1058.04L-506.727 980.483L-540.6 1013.49L-722.501 1190.75L-627.542 1020.02L-493.022 777.918L-457.28 713.593L-485.329 741.022L-674.679 926.19L-436.772 497.497L-411.665 452.256L-431.375 471.608L-538.473 576.771L-631.503 668.362L-515.5 458.948L-381.407 216.64L-371.724 199.143L-379.316 206.611L-591.639 415.47L-323.24 -62.8469L-314.148 -79.0515L-321.257 -72.3586L-425.223 25.5151L-515.602 110.875L-397.595 -99.2529L-262.043 -340.844L-237.438 -384.698L-256.715 -366.398L-361.278 -267.135L-442.095 -190.305L-201.739 -619.281L-166.328 -682.48L-194.086 -655.985L-373.058 -485.152L-142.041 -898.014L-99.0255 -974.89L-132.754 -942.555L-307.616 -774.925L-82.8947 -1177.02L-35.2018 -1262.36L-72.6021 -1226.38L-245.273 -1060.28L-24.204 -1456.25L25.7557 -1545.73L-13.4275 -1507.93L-185.571 -1341.87L34.0651 -1735.68L84.0797 -1825.36L44.8474 -1787.39L-128.653 -1619.48L91.9088 -2015.32L139.724 -2101.14L102.209 -2064.72L-74.3737 -1893.31L149.286 -2295.19L192.447 -2372.75L158.574 -2339.74L-23.3268 -2162.48L71.6318 -2333.22L206.152 -2575.31L241.894 -2639.64L213.845 -2612.21L24.4948 -2427.04L262.402 -2855.74L287.509 -2900.98L267.799 -2881.62L160.701 -2776.46L67.6709 -2684.87L183.674 -2894.28L317.767 -3136.59L327.45 -3154.09L319.858 -3146.62L105.378 -2935.64C104.706 -2934.98 103.691 -2933.33 103.109 -2931.97C102.538 -2930.62 102.596 -2930.05 103.232 -2930.65L304.411 -3121.17L178.297 -2896.91L42.6031 -2655.39L24.5137 -2623.19L38.6858 -2636.6L143.005 -2735.3L228.039 -2815.99L-18.0746 -2377.14L-48.9202 -2322.14L-24.7372 -2345.19L157.128 -2518.51L57.2782 -2340.24L-77.9922 -2098.51L-117.51 -2027.89L-86.5398 -2057.52L90.1013 -2226.49L-137.42 -1819.65L-183.172 -1737.84L-147.295 -1772.29L26.2247 -1938.95L-196.323 -1540.52L-245.449 -1452.57L-206.922 -1489.69L-34.7253 -1655.58L-254.809 -1261.2L-305.155 -1170.98L-265.663 -1209.15L-93.0001 -1376.03L-312.849 -981.649L-362.011 -893.461L-323.445 -930.841L-148.613 -1100.29L-370.472 -701.899L-416.267 -619.665L-380.332 -654.611L-201.365 -828.65L-427.599 -421.907L-467.419 -350.315L-436.164 -380.837L-250.657 -561.981L-484.138 -141.629L-514.874 -86.2944L-490.744 -109.948L-383.782 -214.791L-296.133 -300.818L-405.73 -103.236L-539.968 139L-557.801 171.178L-543.799 157.371L-436.366 51.4302L-335.995 -47.8296L-595.373 419.837C-595.971 420.913 -596.366 421.887 -596.443 422.405C-596.445 422.422 -596.447 422.439 -596.451 422.454C-596.453 422.471 -596.455 422.49 -596.457 422.507C-596.489 422.875 -596.315 422.928 -595.944 422.579L-394.765 232.061L-520.879 456.313L-656.573 697.837L-674.662 730.034L-660.49 716.625L-556.171 617.927L-471.136 537.241L-717.247 976.093L-748.092 1031.1L-723.909 1008.05L-542.044 834.724L-641.894 1012.99L-777.164 1254.72L-816.682 1325.34L-785.712 1295.71L-609.071 1126.74L-836.592 1533.59L-882.344 1615.4L-846.467 1580.94L-672.947 1414.29L-895.495 1812.71L-944.621 1900.66L-906.094 1863.54L-733.897 1697.65L-953.981 2092.04L-1004.33 2182.25L-964.835 2144.09L-792.172 1977.21L-1012.02 2371.59L-1061.18 2459.77L-1022.61 2422.39L-847.783 2252.94L-1069.64 2651.33L-1115.44 2733.57L-1079.5 2698.62L-900.535 2524.58L-1126.77 2931.33L-1166.59 3002.92L-1135.33 2972.4L-949.828 2791.26L-1183.32 3211.61L-1214.05 3266.94L-1189.92 3243.29L-1082.96 3138.44L-995.312 3052.42L-1104.91 3250L-1239.14 3492.23L-1256.98 3524.41L-1242.97 3510.6L-1135.54 3404.66L-1035.17 3305.4L-1294.55 3773.07C-1295.39 3774.58 -1295.84 3775.9 -1295.55 3776.02C-1295.26 3776.13 -1294.37 3775.03 -1293.55 3773.56L-1022.42 3290.38L-1013.33 3274.18L-1013.32 3274.18Z" fill="black"/>
<path d="M-1202.18 3544.08L-1209.29 3550.77L-1313.26 3648.64L-1403.64 3734L-1285.63 3523.87L-1150.07 3282.28L-1125.47 3238.43L-1144.75 3256.73L-1249.31 3355.99L-1330.12 3432.82L-1089.77 3003.84L-1054.36 2940.64L-1082.12 2967.14L-1261.09 3137.97L-1030.07 2725.11L-987.056 2648.23L-1020.78 2680.57L-1195.65 2848.2L-970.927 2446.11L-923.234 2360.77L-960.634 2396.75L-1133.3 2562.85L-912.238 2166.88L-862.278 2077.4L-901.461 2115.19L-1073.6 2281.26L-853.971 1887.45L-803.956 1797.77L-843.189 1835.74L-1016.69 2003.65L-796.127 1607.8L-748.311 1521.99L-785.827 1558.41L-962.409 1729.82L-738.75 1327.93L-695.589 1250.38L-729.462 1283.39L-911.363 1460.65L-816.404 1289.91L-681.884 1047.81L-646.142 983.489L-674.191 1010.92L-863.541 1196.09L-625.634 767.392L-600.527 722.152L-620.237 741.504L-727.335 846.667L-820.365 938.258L-704.362 728.845L-570.269 486.536L-560.586 469.038L-568.178 476.506L-780.501 685.366L-512.1 207.053L-503.008 190.848L-510.117 197.541L-614.083 295.415L-704.462 380.775L-586.453 170.647L-450.903 -70.9487L-426.298 -114.802L-445.575 -96.5022L-550.136 2.76099L-630.953 79.5903L-390.598 -349.385L-355.186 -412.584L-382.944 -386.089L-561.917 -215.256L-330.899 -628.118L-287.884 -704.994L-321.612 -672.659L-496.474 -505.029L-271.755 -907.121L-224.062 -992.458L-261.462 -956.482L-434.133 -790.381L-213.064 -1186.35L-163.104 -1275.83L-202.287 -1238.03L-374.431 -1071.97L-154.797 -1465.78L-104.782 -1555.46L-144.015 -1517.49L-317.515 -1349.58L-96.9531 -1745.42L-49.1373 -1831.24L-86.653 -1794.82L-263.236 -1623.41L-39.5764 -2025.3L3.58459 -2102.85L-30.2878 -2069.84L-212.189 -1892.59L-117.23 -2063.32L17.2898 -2305.42L53.032 -2369.74L24.9827 -2342.32L-164.367 -2157.15L73.5397 -2585.84L98.6472 -2631.08L78.9374 -2611.73L-28.1609 -2506.57L-121.191 -2414.98L-5.18982 -2624.39L128.903 -2866.7L138.587 -2884.2L130.994 -2876.73L-83.4862 -2665.75C-84.1573 -2665.09 -85.1726 -2663.44 -85.755 -2662.08C-86.3259 -2660.73 -86.2673 -2660.16 -85.6321 -2660.76L115.547 -2851.28L-10.5667 -2627.02L-146.261 -2385.5L-164.35 -2353.3L-150.178 -2366.71L-45.859 -2465.41L39.1757 -2546.09L-206.935 -2107.24L-237.78 -2052.24L-213.597 -2075.29L-31.7323 -2248.61L-131.582 -2070.35L-266.852 -1828.62L-306.37 -1758L-275.4 -1787.62L-98.7587 -1956.6L-326.28 -1549.75L-372.032 -1467.94L-336.155 -1502.4L-162.635 -1669.05L-385.183 -1270.63L-434.309 -1182.68L-395.781 -1219.79L-223.585 -1385.69L-443.669 -991.299L-494.015 -901.083L-454.523 -939.25L-281.86 -1106.13L-501.71 -711.752L-550.871 -623.563L-512.305 -660.943L-337.473 -830.396L-559.332 -432.001L-605.127 -349.767L-569.192 -384.713L-390.225 -558.753L-616.453 -152.009L-656.274 -80.4167L-625.018 -110.939L-439.512 -292.084L-673 128.265L-703.736 183.599L-679.606 159.946L-572.644 55.1033L-484.995 -30.9241L-594.59 166.656L-728.828 408.892L-746.661 441.07L-732.659 427.263L-625.226 321.322L-524.855 222.06L-784.233 689.728C-784.831 690.803 -785.226 691.777 -785.303 692.295C-785.305 692.312 -785.307 692.329 -785.311 692.344C-785.313 692.361 -785.315 692.38 -785.317 692.397C-785.349 692.766 -785.175 692.819 -784.804 692.469L-583.625 501.95L-709.739 726.203L-845.433 967.727L-863.522 999.924L-849.35 986.516L-745.031 887.818L-659.996 807.131L-906.107 1245.98L-936.952 1300.99L-912.769 1277.94L-730.904 1104.61L-830.754 1282.88L-966.024 1524.61L-1005.54 1595.23L-974.572 1565.6L-797.931 1396.63L-1025.45 1803.48L-1071.2 1885.29L-1035.33 1850.83L-861.807 1684.18L-1084.35 2082.6L-1133.48 2170.55L-1094.95 2133.43L-922.757 1967.54L-1142.84 2361.93L-1193.19 2452.14L-1153.7 2413.98L-981.032 2247.1L-1200.88 2641.48L-1250.04 2729.66L-1211.48 2692.28L-1036.64 2522.83L-1258.5 2921.22L-1304.3 3003.46L-1268.36 2968.51L-1089.4 2794.47L-1315.63 3201.22L-1355.45 3272.81L-1324.2 3242.29L-1138.69 3061.14L-1372.18 3481.49L-1402.91 3536.83L-1378.78 3513.18L-1271.82 3408.33L-1184.17 3322.31L-1293.77 3519.89L-1428.01 3762.12L-1445.84 3794.3L-1431.84 3780.49L-1324.4 3674.55L-1224.03 3575.29L-1483.41 4042.96C-1484.25 4044.47 -1484.7 4045.79 -1484.41 4045.91C-1484.13 4046.02 -1483.24 4044.92 -1482.41 4043.45L-1211.28 3560.28L-1202.19 3544.07L-1202.18 3544.08Z" fill="black"/>
</g>
<g opacity="0.6" filter="url(#filter0_f_790_86886)">
<ellipse cx="-75.5" cy="-6.49997" rx="167.5" ry="138.5" transform="rotate(180 -75.5 -6.49997)" fill="#83DBF9"/>
</g>
<path d="M402.809 95.0353V100.989C341.052 120.644 307.229 183.627 291.212 225.3H279.012V95.0353H402.809Z" fill="url(#paint1_linear_790_86886)"/>
<path d="M279.012 -21.3661V108.851H155.214V102.808C216.972 83.2138 250.747 20.277 266.811 -21.4133H279.012V-21.3661Z" fill="url(#paint2_linear_790_86886)"/>
<path d="M402.809 95.0353V100.989C341.052 120.644 307.229 183.627 291.212 225.3H279.012V95.0353H402.809Z" fill="url(#paint3_linear_790_86886)"/>
<path d="M279.012 -21.3661V108.851H155.214V102.808C216.972 83.2138 250.747 20.277 266.811 -21.4133H279.012V-21.3661Z" fill="url(#paint4_linear_790_86886)"/>
<g opacity="0.3" filter="url(#filter1_f_790_86886)">
<ellipse cx="441" cy="126.5" rx="209" ry="172.5" transform="rotate(180 441 126.5)" fill="#83DBF9"/>
</g>
<g filter="url(#filter2_d_790_86886)">
<g filter="url(#filter3_f_790_86886)">
<circle cx="366.411" cy="249.773" r="26.7714" transform="rotate(-23.002 366.411 249.773)" fill="#91E2FD"/>
</g>
<path d="M263.997 148.181L263.307 146.56L261.551 146.727C249.943 147.834 239.613 139.795 233.52 133.548L232.37 132.369L230.856 133.01L226.402 134.894L224.887 135.535L224.94 137.178C225.217 145.886 223.845 158.875 214.983 166.428L213.642 167.571L214.333 169.192L215.26 171.367L215.95 172.987L217.704 172.822C229.319 171.724 239.66 179.761 245.736 185.999L246.885 187.179L248.401 186.537L252.855 184.653L254.37 184.012L254.317 182.368C254.034 173.68 255.415 160.683 264.276 153.119L265.614 151.977L264.924 150.357L263.997 148.181Z" fill="url(#paint5_linear_790_86886)" stroke="url(#paint6_linear_790_86886)" stroke-width="4.80687"/>
<path d="M262.246 150.205L262.706 151.284C252.863 159.653 251.504 173.701 251.775 182.5L249.531 183.45L239.474 159.839L262.246 150.205Z" fill="url(#paint7_linear_790_86886)"/>
<path d="M229.417 136.228L239.474 159.839L217.01 169.343L216.543 168.247C226.24 159.962 227.508 145.957 227.203 137.165L229.417 136.228Z" fill="url(#paint8_linear_790_86886)"/>
<path d="M231.568 164.701C231.493 165.175 231.492 165.175 231.492 165.175L231.491 165.175L231.49 165.175L231.487 165.174L231.48 165.173L231.46 165.169C231.444 165.166 231.424 165.161 231.401 165.155C231.355 165.143 231.292 165.124 231.221 165.095C231.091 165.04 230.883 164.927 230.744 164.703C230.589 164.452 230.575 164.15 230.693 163.841C230.802 163.555 231.027 163.25 231.37 162.914L231.373 162.911L231.385 162.9L231.431 162.854L231.606 162.677L232.244 162.032C232.781 161.489 233.516 160.747 234.31 159.944C235.896 158.34 237.715 156.499 238.651 155.544C239.011 155.165 239.8 154.361 240.497 153.654C240.846 153.299 241.174 152.968 241.414 152.725L241.7 152.436L241.779 152.356L241.8 152.335L241.805 152.33L241.806 152.329L241.807 152.328L241.807 152.328L242.149 152.666L241.807 152.328L241.813 152.322L242.149 152.666C241.813 152.322 241.813 152.322 241.813 152.322L241.814 152.321L241.814 152.321L241.816 152.319L241.821 152.314L241.835 152.301C241.847 152.29 241.863 152.275 241.884 152.258C241.924 152.223 241.98 152.177 242.049 152.126C242.183 152.028 242.386 151.899 242.624 151.822C242.862 151.745 243.187 151.705 243.509 151.866C243.831 152.027 244.047 152.339 244.18 152.743C244.323 153.161 244.624 154.341 244.987 155.763C245.123 156.298 245.268 156.868 245.417 157.444L245.418 157.448L245.418 157.448C245.796 158.965 246.192 160.552 246.494 161.76L246.863 163.232L246.967 163.649L246.995 163.759L247.001 163.785L247.001 163.786C247.005 163.797 247.009 163.811 247.013 163.828C247.023 163.862 247.034 163.909 247.046 163.966C247.069 164.078 247.093 164.237 247.094 164.416C247.095 164.762 247.008 165.284 246.538 165.629C246.309 165.796 246.035 165.879 245.785 165.922C245.53 165.966 245.264 165.975 245.023 165.967C244.558 165.952 244.127 165.875 243.949 165.827C243.944 165.826 243.93 165.823 243.903 165.818C243.868 165.811 243.822 165.802 243.765 165.792C243.681 165.777 243.576 165.758 243.452 165.736C243.408 165.728 243.36 165.719 243.311 165.71C242.941 165.644 242.451 165.555 241.925 165.454C240.883 165.256 239.665 165.005 238.964 164.787L238.962 164.787C238.734 164.714 238.391 164.556 238.181 164.221C237.949 163.85 237.954 163.392 238.192 162.896C238.886 161.373 239.673 159.563 240.241 158.196C239.315 159.654 238.393 161.072 237.696 162.134C237.337 162.68 237.039 163.133 236.829 163.449C236.725 163.607 236.642 163.731 236.586 163.815L236.522 163.911L236.506 163.936L236.501 163.943L236.5 163.944L236.5 163.945L236.5 163.945L236.099 163.678M231.568 164.701L231.602 165.18L231.602 165.18L231.602 165.18L231.603 165.18L231.607 165.18L231.62 165.179L231.671 165.175L231.862 165.161C232.026 165.149 232.257 165.131 232.528 165.109C233.071 165.064 233.777 165.002 234.425 164.931C235.141 164.853 235.645 164.633 235.979 164.416C236.145 164.308 236.267 164.203 236.351 164.119C236.392 164.077 236.425 164.041 236.448 164.013C236.46 163.999 236.47 163.986 236.477 163.976L236.487 163.963L236.491 163.958L236.492 163.956L236.493 163.955L236.493 163.954C236.494 163.954 236.494 163.954 236.099 163.678M231.568 164.701L231.493 165.175L231.547 165.184L231.602 165.18L231.568 164.701ZM236.099 163.678L236.5 163.945L236.494 163.954L236.099 163.678ZM240.646 156.918C240.646 156.917 240.647 156.919 240.647 156.924C240.646 156.92 240.646 156.918 240.646 156.918Z" fill="#31464C" stroke="url(#paint9_linear_790_86886)" stroke-width="0.961374"/>
<g filter="url(#filter4_f_790_86886)">
<circle cx="436.013" cy="168.131" r="31.8534" transform="rotate(6.99805 436.013 168.131)" fill="#91E2FD"/>
</g>
<path d="M318.922 119.027L319.138 117.277L317.534 116.548C304.706 110.714 298.82 96.1136 296.267 86.0465L295.863 84.4532L294.231 84.2537L288.517 83.5551L286.885 83.3556L286.106 84.8043C281.185 93.9577 271.927 106.706 258.064 109.277L256.33 109.599L256.115 111.348L255.771 114.139L255.555 115.887L257.158 116.618C269.986 122.465 275.886 137.07 278.426 147.117L278.829 148.711L280.462 148.911L286.176 149.61L287.809 149.809L288.588 148.359C293.492 139.223 302.763 126.472 316.631 123.889L318.363 123.566L318.578 121.818L318.922 119.027Z" fill="url(#paint10_linear_790_86886)" stroke="url(#paint11_linear_790_86886)" stroke-width="4.80687"/>
<path d="M316.362 120.13L316.191 121.514C301.053 124.303 291.266 137.974 286.292 147.203L283.413 146.851L287.146 116.558L316.362 120.13Z" fill="url(#paint12_linear_790_86886)"/>
<path d="M290.883 86.2657L287.149 116.558L258.329 113.035L258.502 111.629C273.44 108.839 283.107 95.1597 288.042 85.9184L290.883 86.2657Z" fill="url(#paint13_linear_790_86886)"/>
<path d="M284.863 119.501L286.299 107.846L289.98 108.296L289.185 114.744L289.12 115.273L289.654 115.283C291.243 115.31 292.911 114.557 294.344 113.405C295.692 112.322 296.875 110.852 297.635 109.232L301.331 109.684C299.952 113.39 296.67 115.861 294.412 116.794L293.54 117.154L294.343 117.648C296.339 118.875 299.386 121.762 300.31 126.368L296.191 125.865C295.387 122.393 292.895 119.477 289.231 118.663L288.714 118.548L288.65 119.074L287.937 124.856L287.86 124.846C283.06 124.259 279.539 122.203 277.341 118.999C275.204 115.882 274.279 111.62 274.726 106.432L278.694 106.917C278.021 114.793 281.218 118.761 284.216 119.893L284.788 120.109L284.863 119.501Z" fill="url(#paint14_linear_790_86886)" stroke="#A1E7FE" stroke-width="0.961374"/>
<path d="M367.708 49.4519L367.924 47.7023L366.32 46.9727C346.484 37.9508 337.515 15.4839 333.664 0.296906L333.26 -1.29636L331.628 -1.49589L323.035 -2.54644L321.403 -2.74597L320.624 -1.29731C313.2 12.5112 299.041 32.1507 277.603 36.1267L275.87 36.4483L275.654 38.1979L275.137 42.3952L274.921 44.1433L276.523 44.8736C296.36 53.9153 305.348 76.3879 309.181 91.5462L309.584 93.1409L311.217 93.3405L319.81 94.3911L321.443 94.5908L322.222 93.1405C329.622 79.3555 343.801 59.7152 365.243 55.72L366.975 55.3973L367.191 53.6492L367.708 49.4519Z" fill="url(#paint15_linear_790_86886)" stroke="url(#paint16_linear_790_86886)" stroke-width="4.80687"/>
<path d="M365.063 51.257L364.806 53.339C342.04 57.5335 327.321 78.0931 319.84 91.9728L315.51 91.4434L321.125 45.8853L365.063 51.257Z" fill="url(#paint17_linear_790_86886)"/>
<path d="M326.741 0.327926L321.126 45.886L277.781 40.587L278.042 38.4726C300.507 34.2774 315.047 13.704 322.469 -0.194319L326.741 0.327926Z" fill="url(#paint18_linear_790_86886)"/>
<path d="M328.255 30.5405L328.255 30.5417L328.254 30.5452C328.253 30.5478 328.251 30.5547 328.248 30.5641L328.248 30.5644C328.246 30.5702 328.237 30.5954 328.222 30.6266C328.215 30.6389 328.194 30.6813 328.156 30.7285C328.138 30.7515 328.097 30.7991 328.032 30.8431C327.968 30.8864 327.83 30.9586 327.646 30.936L327.715 30.3733L327.784 29.8106L322.035 29.1078L321.473 29.039L321.403 29.6017L318.673 51.7532C318.636 52.0528 318.601 52.3345 318.555 52.6092L318.553 52.6213L318.552 52.6335C318.552 52.6335 318.552 52.6345 318.551 52.6372L318.549 52.6506L318.544 52.6752C318.543 52.6799 318.542 52.6852 318.541 52.6908C318.54 52.6971 318.539 52.7039 318.537 52.7111L318.537 52.7122L318.53 52.7319L318.525 52.7805C318.382 53.4688 318.074 54.1125 317.627 54.6561C317.175 55.2051 316.594 55.6352 315.936 55.9084L315.935 55.9085C315.251 56.193 314.503 56.2949 313.767 56.2039L313.766 56.2038C311.4 55.9145 309.717 53.7569 310.01 51.3783C310.303 48.9997 312.46 47.3116 314.827 47.6009L314.827 47.6009C315.275 47.6553 315.711 47.7799 316.12 47.9702L316.826 48.299L316.923 47.5257L317.648 41.6937L317.71 41.1983L317.226 41.0749C315.711 40.6883 314.131 40.619 312.586 40.8713C311.042 41.1236 309.567 41.6921 308.254 42.541L308.254 42.5409L308.245 42.5465C307.096 43.3191 306.089 44.2856 305.272 45.4025C304.939 45.8421 303.77 47.4884 303.306 50.3042C303.039 51.8777 303.291 53.5417 303.439 54.2976L303.437 54.3185L303.458 54.4146C303.556 54.8485 303.95 56.3093 304.737 57.6107L304.738 57.6119C305.367 58.6443 306.144 59.5787 307.046 60.3851L307.854 61.1079L307.865 61.0205C308.983 61.8122 310.13 62.291 311.051 62.5787C311.625 62.7577 312.116 62.8642 312.466 62.9262C312.642 62.9573 312.782 62.9773 312.881 62.9896C312.93 62.9958 312.969 63.0001 312.996 63.0029L313.029 63.0061L313.038 63.007L313.041 63.0073L313.043 63.0073L313.043 63.0074C313.043 63.0074 313.043 63.0074 313.09 62.4424L313.043 63.0074L313.044 63.0074C313.083 63.0106 313.13 63.015 313.184 63.0201C313.858 63.083 315.638 63.2493 317.742 62.5535C318.996 62.1387 320.01 61.5569 320.709 61.0796C321.06 60.8404 321.334 60.6262 321.521 60.47C321.616 60.3918 321.688 60.3281 321.739 60.2828C321.764 60.2601 321.783 60.2421 321.797 60.2292L321.813 60.2139C322.795 59.3249 323.618 58.276 324.247 57.1119L324.249 57.1078C324.977 55.735 325.368 54.0522 325.455 53.3462L326.775 42.635L326.854 42.7023L326.881 42.7253L326.888 42.7314L326.89 42.7329L326.891 42.7333L326.891 42.7334L326.891 42.7334L326.891 42.7335L326.897 42.7387L327.258 42.3015C326.897 42.7387 326.897 42.7388 326.897 42.7388L326.897 42.739L326.898 42.7394L326.899 42.7406L326.903 42.744L326.917 42.755C326.929 42.7643 326.945 42.7772 326.966 42.7936C327.008 42.8263 327.068 42.8726 327.146 42.9301C327.303 43.0452 327.531 43.2052 327.823 43.3907C328.407 43.7615 329.251 44.2363 330.299 44.6577L330.3 44.6581C331.065 44.9641 331.963 45.1992 332.656 45.3564C333.006 45.4356 333.309 45.4963 333.525 45.5373C333.633 45.5578 333.72 45.5734 333.78 45.584L333.849 45.596L333.868 45.5992L333.873 45.6L333.874 45.6002L333.875 45.6003L333.875 45.6004C333.875 45.6004 333.875 45.6004 333.967 45.041L333.875 45.6004L334.458 45.6962L334.53 45.1098L335.231 39.4228L335.308 38.796L334.677 38.7872C334.097 38.7791 332.794 38.4312 331.479 37.565C331.285 37.4327 331.098 37.2908 330.918 37.14C330.385 36.6874 329.909 36.1729 329.5 35.6077C328.595 34.2759 328.286 33.0078 328.2 32.0678L328.185 31.753C328.166 31.3528 328.187 31.0314 328.212 30.8156C328.224 30.7075 328.237 30.6278 328.247 30.5796C328.249 30.5678 328.251 30.5584 328.253 30.5514L328.254 30.5434C328.255 30.5415 328.255 30.5406 328.255 30.5405ZM328.255 30.5405L328.255 30.5405L328.255 30.5405Z" fill="url(#paint19_linear_790_86886)" stroke="url(#paint20_linear_790_86886)" stroke-width="1.13395"/>
</g>
<path d="M34.642 23.82V39H30.55V27.34H24.104V39H20.034V23.82H34.642ZM40.5784 35.854C40.9451 36.294 41.5317 36.514 42.3384 36.514C43.1451 36.514 43.7317 36.294 44.0984 35.854C44.4797 35.3993 44.6704 34.6367 44.6704 33.566C44.6704 32.4367 44.4797 31.6447 44.0984 31.19C43.7317 30.7207 43.1451 30.486 42.3384 30.486C41.5171 30.486 40.9231 30.7133 40.5564 31.168C40.2044 31.6227 40.0284 32.422 40.0284 33.566C40.0284 34.6367 40.2117 35.3993 40.5784 35.854ZM42.3384 27.67C44.4357 27.67 45.9611 28.11 46.9144 28.99C47.8824 29.8553 48.3664 31.3807 48.3664 33.566C48.3664 35.6927 47.8824 37.1887 46.9144 38.054C45.9611 38.9047 44.4357 39.33 42.3384 39.33C40.2557 39.33 38.7304 38.9047 37.7624 38.054C36.8091 37.1887 36.3324 35.6927 36.3324 33.566C36.3324 31.3807 36.8091 29.8553 37.7624 28.99C38.7304 28.11 40.2557 27.67 42.3384 27.67ZM59.5338 41.926V39H52.3178V41.926H48.9738V36.184H50.2498C50.9685 35.5533 51.3278 34.0867 51.3278 31.784V28H61.1838V36.184H62.8778V41.926H59.5338ZM54.4518 32.07C54.4518 33.9327 54.2098 35.304 53.7258 36.184H57.4878V30.816H54.4518V32.07ZM63.9869 39V28H75.2509V39H71.5549V30.816H67.6829V39H63.9869ZM87.8755 39H84.3335V33.17L79.6915 39H76.9635V28H80.5275V33.874L85.0375 28H87.8755V39ZM93.3138 28V36.184H95.9318V28H99.4958V36.184H102.114V28H105.81V39H89.6178V28H93.3138ZM118.448 39H114.906V33.17L110.264 39H107.536V28H111.1V33.874L115.61 28H118.448V39ZM128.044 34.468H131.74C131.637 36.2573 131.124 37.5187 130.2 38.252C129.276 38.9707 127.875 39.33 125.998 39.33C123.915 39.33 122.397 38.9047 121.444 38.054C120.491 37.1887 120.014 35.6927 120.014 33.566C120.014 31.3807 120.491 29.8553 121.444 28.99C122.397 28.11 123.915 27.67 125.998 27.67C127.861 27.67 129.254 28.0293 130.178 28.748C131.102 29.452 131.615 30.6693 131.718 32.4H128.022C127.905 31.124 127.23 30.486 125.998 30.486C125.191 30.486 124.605 30.7133 124.238 31.168C123.886 31.6227 123.71 32.422 123.71 33.566C123.71 34.6367 123.886 35.3993 124.238 35.854C124.605 36.294 125.191 36.514 125.998 36.514C127.259 36.514 127.941 35.832 128.044 34.468ZM139.261 31.366C140.962 31.366 142.172 31.6373 142.891 32.18C143.624 32.7227 143.991 33.6833 143.991 35.062C143.991 37.6873 142.641 39 139.943 39H133.167V28H136.863V31.366H139.261ZM138.887 33.852H136.863V36.184H138.865C139.833 36.184 140.317 35.788 140.317 34.996C140.317 34.2333 139.84 33.852 138.887 33.852ZM30.77 65H27.228V59.17L22.586 65H19.858V54H23.422V59.874L27.932 54H30.77V65ZM42.8427 56.486C41.552 56.486 40.8773 57.124 40.8187 58.4H37.2327C37.2913 56.6693 37.7973 55.452 38.7507 54.748C39.7187 54.0293 41.2 53.67 43.1947 53.67C46.6267 53.67 48.3427 54.6967 48.3427 56.75C48.3427 58.1873 47.4113 59.0013 45.5487 59.192V59.632C46.5753 59.7053 47.3453 59.9327 47.8587 60.314C48.372 60.6953 48.6287 61.282 48.6287 62.074C48.6287 64.2447 46.8173 65.33 43.1947 65.33C41.156 65.33 39.6527 64.9707 38.6847 64.252C37.7167 63.5187 37.2033 62.2573 37.1447 60.468H40.7307C40.76 61.2013 40.9507 61.7293 41.3027 62.052C41.6693 62.36 42.1973 62.514 42.8867 62.514C44.1627 62.514 44.8007 62.1547 44.8007 61.436C44.8007 60.7907 44.3533 60.468 43.4587 60.468H42.0727V58.422H43.4807C44.2287 58.422 44.6027 58.1067 44.6027 57.476C44.6027 57.1533 44.478 56.9113 44.2287 56.75C43.994 56.574 43.532 56.486 42.8427 56.486ZM53.4331 65.33C52.2744 65.33 51.3651 65.0293 50.7051 64.428C50.0451 63.812 49.7151 62.954 49.7151 61.854C49.7151 59.6393 51.1084 58.532 53.8951 58.532C54.6284 58.532 55.8311 58.5833 57.5031 58.686V57.85C57.5031 57.366 57.3491 57.0213 57.0411 56.816C56.7478 56.596 56.2711 56.486 55.6111 56.486C54.9951 56.486 54.5331 56.5813 54.2251 56.772C53.9318 56.9627 53.7558 57.3073 53.6971 57.806H50.0231C50.1111 56.2807 50.6024 55.21 51.4971 54.594C52.4064 53.978 53.8071 53.67 55.6991 53.67C57.5031 53.67 58.8671 54 59.7911 54.66C60.7298 55.32 61.1991 56.3687 61.1991 57.806V65H57.5031V62.91H57.1291C56.8944 63.702 56.4544 64.3033 55.8091 64.714C55.1784 65.1247 54.3864 65.33 53.4331 65.33ZM55.2591 62.712C55.8898 62.712 56.4104 62.58 56.8211 62.316C57.2464 62.0373 57.4738 61.6047 57.5031 61.018V60.446C56.7551 60.3873 56.0584 60.358 55.4131 60.358C54.6798 60.358 54.1884 60.468 53.9391 60.688C53.6898 60.908 53.5651 61.194 53.5651 61.546C53.5651 62.3233 54.1298 62.712 55.2591 62.712ZM68.7008 65.33C66.5888 65.33 65.0488 64.846 64.0808 63.878C63.1274 62.8953 62.6508 61.216 62.6508 58.84C62.6508 57.872 62.6728 57.0727 62.7168 56.442C62.7608 55.7967 62.8781 55.0853 63.0688 54.308C63.2741 53.516 63.5528 52.8707 63.9048 52.372C64.2714 51.8587 64.7921 51.3893 65.4668 50.964C66.1414 50.524 66.9554 50.2013 67.9088 49.996C70.6074 49.3653 72.3014 48.918 72.9908 48.654L73.8488 51.734C73.0421 52.042 71.6268 52.416 69.6028 52.856C68.3708 53.1053 67.5348 53.5747 67.0948 54.264C66.6694 54.9387 66.4348 55.848 66.3908 56.992H66.7428C66.9628 56.332 67.3808 55.804 67.9968 55.408C68.6274 54.9973 69.3901 54.792 70.2848 54.792C71.6048 54.792 72.6681 55.188 73.4748 55.98C74.2814 56.7573 74.6848 58.0187 74.6848 59.764C74.6848 61.8027 74.2081 63.24 73.2548 64.076C72.3014 64.912 70.7834 65.33 68.7008 65.33ZM68.7008 62.514C69.4928 62.514 70.0721 62.3013 70.4388 61.876C70.8054 61.4507 70.9888 60.7247 70.9888 59.698C70.9888 58.7447 70.8054 58.07 70.4388 57.674C70.0868 57.278 69.5074 57.08 68.7008 57.08C67.9088 57.08 67.3148 57.2853 66.9188 57.696C66.5228 58.092 66.3248 58.7593 66.3248 59.698C66.3248 60.7247 66.5154 61.4507 66.8968 61.876C67.2781 62.3013 67.8794 62.514 68.7008 62.514ZM87.1235 65H83.5815V59.17L78.9395 65H76.2115V54H79.7755V59.874L84.2855 54H87.1235V65ZM96.4778 65.33C94.5565 65.33 93.3758 64.4647 92.9358 62.734H92.5618V68.96H88.8658V54H92.5618V56.266H92.9358C93.1411 55.4447 93.5445 54.8067 94.1458 54.352C94.7618 53.8973 95.5391 53.67 96.4778 53.67C97.9738 53.67 99.0738 54.1027 99.7778 54.968C100.482 55.8333 100.834 57.3587 100.834 59.544C100.834 61.7147 100.482 63.2253 99.7778 64.076C99.0738 64.912 97.9738 65.33 96.4778 65.33ZM94.7618 56.486C93.3391 56.486 92.6058 57.146 92.5618 58.466V60.424C92.5618 61.8173 93.2951 62.514 94.7618 62.514C95.6858 62.514 96.3165 62.3233 96.6538 61.942C96.9911 61.546 97.1598 60.7467 97.1598 59.544C97.1598 58.312 96.9838 57.498 96.6318 57.102C96.2945 56.6913 95.6711 56.486 94.7618 56.486ZM105.833 65.33C104.675 65.33 103.765 65.0293 103.105 64.428C102.445 63.812 102.115 62.954 102.115 61.854C102.115 59.6393 103.509 58.532 106.295 58.532C107.029 58.532 108.231 58.5833 109.903 58.686V57.85C109.903 57.366 109.749 57.0213 109.441 56.816C109.148 56.596 108.671 56.486 108.011 56.486C107.395 56.486 106.933 56.5813 106.625 56.772C106.332 56.9627 106.156 57.3073 106.097 57.806H102.423C102.511 56.2807 103.003 55.21 103.897 54.594C104.807 53.978 106.207 53.67 108.099 53.67C109.903 53.67 111.267 54 112.191 54.66C113.13 55.32 113.599 56.3687 113.599 57.806V65H109.903V62.91H109.529C109.295 63.702 108.855 64.3033 108.209 64.714C107.579 65.1247 106.787 65.33 105.833 65.33ZM107.659 62.712C108.29 62.712 108.811 62.58 109.221 62.316C109.647 62.0373 109.874 61.6047 109.903 61.018V60.446C109.155 60.3873 108.459 60.358 107.813 60.358C107.08 60.358 106.589 60.468 106.339 60.688C106.09 60.908 105.965 61.194 105.965 61.546C105.965 62.3233 106.53 62.712 107.659 62.712ZM126.139 65H122.597V59.17L117.955 65H115.227V54H118.791V59.874L123.301 54H126.139V65ZM123.543 52.108C122.942 52.6067 121.988 52.856 120.683 52.856C119.378 52.856 118.417 52.6067 117.801 52.108C117.2 51.5947 116.899 50.7733 116.899 49.644H119.385C119.385 50.084 119.48 50.392 119.671 50.568C119.876 50.7293 120.214 50.81 120.683 50.81C121.152 50.81 121.482 50.7293 121.673 50.568C121.878 50.392 121.981 50.084 121.981 49.644H124.467C124.467 50.7733 124.159 51.5947 123.543 52.108ZM25.732 91.33C23.62 91.33 22.08 90.846 21.112 89.878C20.1587 88.8953 19.682 87.216 19.682 84.84C19.682 83.872 19.704 83.0727 19.748 82.442C19.792 81.7967 19.9093 81.0853 20.1 80.308C20.3053 79.516 20.584 78.8707 20.936 78.372C21.3027 77.8587 21.8233 77.3893 22.498 76.964C23.1727 76.524 23.9867 76.2013 24.94 75.996C27.6387 75.3653 29.3327 74.918 30.022 74.654L30.88 77.734C30.0733 78.042 28.658 78.416 26.634 78.856C25.402 79.1053 24.566 79.5747 24.126 80.264C23.7007 80.9387 23.466 81.848 23.422 82.992H23.774C23.994 82.332 24.412 81.804 25.028 81.408C25.6587 80.9973 26.4213 80.792 27.316 80.792C28.636 80.792 29.6993 81.188 30.506 81.98C31.3127 82.7573 31.716 84.0187 31.716 85.764C31.716 87.8027 31.2393 89.24 30.286 90.076C29.3327 90.912 27.8147 91.33 25.732 91.33ZM25.732 88.514C26.524 88.514 27.1033 88.3013 27.47 87.876C27.8367 87.4507 28.02 86.7247 28.02 85.698C28.02 84.7447 27.8367 84.07 27.47 83.674C27.118 83.278 26.5387 83.08 25.732 83.08C24.94 83.08 24.346 83.2853 23.95 83.696C23.554 84.092 23.356 84.7593 23.356 85.698C23.356 86.7247 23.5467 87.4507 23.928 87.876C24.3093 88.3013 24.9107 88.514 25.732 88.514ZM37.3128 87.854C37.6794 88.294 38.2661 88.514 39.0728 88.514C39.8794 88.514 40.4661 88.294 40.8328 87.854C41.2141 87.3993 41.4048 86.6367 41.4048 85.566C41.4048 84.4367 41.2141 83.6447 40.8328 83.19C40.4661 82.7207 39.8794 82.486 39.0728 82.486C38.2514 82.486 37.6574 82.7133 37.2908 83.168C36.9388 83.6227 36.7628 84.422 36.7628 85.566C36.7628 86.6367 36.9461 87.3993 37.3128 87.854ZM39.0728 79.67C41.1701 79.67 42.6954 80.11 43.6488 80.99C44.6168 81.8553 45.1008 83.3807 45.1008 85.566C45.1008 87.6927 44.6168 89.1887 43.6488 90.054C42.6954 90.9047 41.1701 91.33 39.0728 91.33C36.9901 91.33 35.4648 90.9047 34.4968 90.054C33.5434 89.1887 33.0668 87.6927 33.0668 85.566C33.0668 83.3807 33.5434 81.8553 34.4968 80.99C35.4648 80.11 36.9901 79.67 39.0728 79.67ZM50.345 80V83.96H54.217V80H57.913V91H54.217V86.776H50.345V91H46.649V80H50.345ZM61.8696 94.96L63.8496 90.78L58.7676 80H63.0796L65.5436 86.732L67.7656 80H72.0336L65.7636 94.96H61.8696ZM80.3058 86.468H84.0018C83.8991 88.2573 83.3858 89.5187 82.4618 90.252C81.5378 90.9707 80.1371 91.33 78.2598 91.33C76.1771 91.33 74.6591 90.9047 73.7058 90.054C72.7524 89.1887 72.2758 87.6927 72.2758 85.566C72.2758 83.3807 72.7524 81.8553 73.7058 80.99C74.6591 80.11 76.1771 79.67 78.2598 79.67C80.1224 79.67 81.5158 80.0293 82.4398 80.748C83.3638 81.452 83.8771 82.6693 83.9798 84.4H80.2838C80.1664 83.124 79.4918 82.486 78.2598 82.486C77.4531 82.486 76.8664 82.7133 76.4998 83.168C76.1478 83.6227 75.9718 84.422 75.9718 85.566C75.9718 86.6367 76.1478 87.3993 76.4998 87.854C76.8664 88.294 77.4531 88.514 78.2598 88.514C79.5211 88.514 80.2031 87.832 80.3058 86.468Z" fill="white"/>
<rect x="19" y="168" width="175" height="32" rx="8" fill="#83DBF9"/>
<path d="M52.9776 178.46V189.5H50.0016V181.02H45.3136V189.5H42.3536V178.46H52.9776ZM60.2389 189.74C59.1723 189.74 58.2816 189.649 57.5669 189.468C56.8523 189.287 56.2443 188.977 55.7429 188.54C55.2416 188.103 54.8736 187.516 54.6389 186.78C54.4149 186.033 54.3029 185.105 54.3029 183.996C54.3029 182.855 54.4203 181.905 54.6549 181.148C54.9003 180.38 55.2843 179.788 55.8069 179.372C56.3296 178.945 56.9376 178.647 57.6309 178.476C58.3349 178.305 59.2043 178.22 60.2389 178.22C61.2736 178.22 62.1376 178.305 62.8309 178.476C63.5349 178.647 64.1483 178.945 64.6709 179.372C65.2043 179.788 65.5883 180.38 65.8229 181.148C66.0683 181.905 66.1909 182.855 66.1909 183.996C66.1909 186.172 65.7323 187.676 64.8149 188.508C63.8976 189.329 62.3723 189.74 60.2389 189.74ZM60.2389 187.26C61.0496 187.26 61.6523 187.185 62.0469 187.036C62.4416 186.876 62.7349 186.567 62.9269 186.108C63.1189 185.639 63.2149 184.935 63.2149 183.996C63.2149 183.26 63.1669 182.679 63.0709 182.252C62.9856 181.825 62.8149 181.495 62.5589 181.26C62.3029 181.025 62.0043 180.876 61.6629 180.812C61.3216 180.737 60.8469 180.7 60.2389 180.7C59.6203 180.7 59.1403 180.737 58.7989 180.812C58.4683 180.876 58.1749 181.025 57.9189 181.26C57.6736 181.484 57.5029 181.815 57.4069 182.252C57.3216 182.679 57.2789 183.26 57.2789 183.996C57.2789 184.711 57.3216 185.281 57.4069 185.708C57.5029 186.124 57.6736 186.449 57.9189 186.684C58.1749 186.919 58.4736 187.073 58.8149 187.148C59.1563 187.223 59.6309 187.26 60.2389 187.26ZM77.8206 178.46V186.94H79.2606V192.06H76.5086V189.5H69.3406V192.06H66.5886V186.94H67.9166C68.3112 186.172 68.5566 185.42 68.6526 184.684C68.7486 183.937 68.7966 182.689 68.7966 180.94V178.46H77.8206ZM71.4846 181.612C71.4846 184.097 71.2339 185.873 70.7326 186.94H74.8606V180.828H71.4846V181.612ZM90.8057 178.46V189.5H87.8297V181.02H83.1417V189.5H80.1817V178.46H90.8057ZM95.2351 178.46V184.924L100.179 178.46H102.547V189.5H99.6031V183.1L94.5951 189.5H92.2911V178.46H95.2351ZM112.249 185.004H115.225C115.086 186.743 114.612 187.969 113.801 188.684C113.001 189.388 111.609 189.74 109.625 189.74C108.601 189.74 107.742 189.649 107.049 189.468C106.356 189.287 105.764 188.977 105.273 188.54C104.782 188.103 104.425 187.516 104.201 186.78C103.988 186.033 103.881 185.105 103.881 183.996C103.881 182.844 103.993 181.895 104.217 181.148C104.452 180.391 104.82 179.799 105.321 179.372C105.822 178.945 106.409 178.647 107.081 178.476C107.764 178.305 108.612 178.22 109.625 178.22C111.513 178.22 112.868 178.556 113.689 179.228C114.521 179.9 115.012 181.057 115.161 182.7H112.201C112.105 181.879 111.886 181.34 111.545 181.084C111.204 180.828 110.564 180.7 109.625 180.7C109.07 180.7 108.633 180.737 108.313 180.812C108.004 180.876 107.726 181.025 107.481 181.26C107.246 181.484 107.081 181.815 106.985 182.252C106.9 182.679 106.857 183.26 106.857 183.996C106.857 184.935 106.948 185.639 107.129 186.108C107.321 186.577 107.598 186.887 107.961 187.036C108.334 187.185 108.889 187.26 109.625 187.26C110.574 187.26 111.23 187.116 111.593 186.828C111.956 186.529 112.174 185.921 112.249 185.004ZM115.273 189.5L120.009 178.46H122.617L127.321 189.5H124.025L123.433 187.9H119.097L118.505 189.5H115.273ZM121.289 182.076L119.833 185.964H122.729L121.289 182.076ZM136.559 178.46V181.02H132.703V189.5H129.727V181.02H125.871V178.46H136.559ZM147.207 185.676C147.207 186.977 146.887 187.943 146.247 188.572C145.618 189.191 144.653 189.5 143.351 189.5H137.447V178.46H140.407V182.108H143.319C144.695 182.108 145.687 182.385 146.295 182.94C146.903 183.495 147.207 184.407 147.207 185.676ZM142.679 184.476H140.407V187.132H142.711C143.234 187.132 143.618 187.031 143.863 186.828C144.109 186.615 144.231 186.257 144.231 185.756C144.231 185.255 144.119 184.919 143.895 184.748C143.682 184.567 143.277 184.476 142.679 184.476ZM156.562 185.004H159.538C159.399 186.743 158.924 187.969 158.114 188.684C157.314 189.388 155.922 189.74 153.938 189.74C152.914 189.74 152.055 189.649 151.362 189.468C150.668 189.287 150.076 188.977 149.586 188.54C149.095 188.103 148.738 187.516 148.514 186.78C148.3 186.033 148.194 185.105 148.194 183.996C148.194 182.844 148.306 181.895 148.53 181.148C148.764 180.391 149.132 179.799 149.634 179.372C150.135 178.945 150.722 178.647 151.394 178.476C152.076 178.305 152.924 178.22 153.938 178.22C155.826 178.22 157.18 178.556 158.002 179.228C158.834 179.9 159.324 181.057 159.474 182.7H156.514C156.418 181.879 156.199 181.34 155.858 181.084C155.516 180.828 154.876 180.7 153.938 180.7C153.383 180.7 152.946 180.737 152.626 180.812C152.316 180.876 152.039 181.025 151.794 181.26C151.559 181.484 151.394 181.815 151.298 182.252C151.212 182.679 151.17 183.26 151.17 183.996C151.17 184.935 151.26 185.639 151.442 186.108C151.634 186.577 151.911 186.887 152.274 187.036C152.647 187.185 153.202 187.26 153.938 187.26C154.887 187.26 155.543 187.116 155.906 186.828C156.268 186.529 156.487 185.921 156.562 185.004ZM170.647 189.5H167.687V186.428H165.143L163.783 189.5H160.535L162.359 186.028C161.175 185.42 160.583 184.204 160.583 182.38C160.583 180.993 160.914 179.996 161.575 179.388C162.237 178.769 163.303 178.46 164.775 178.46H170.647V189.5ZM163.943 181.196C163.698 181.431 163.575 181.847 163.575 182.444C163.575 183.041 163.703 183.463 163.959 183.708C164.215 183.953 164.626 184.076 165.191 184.076H167.687V180.828H165.223C164.626 180.828 164.199 180.951 163.943 181.196Z" fill="#101010"/>
</g>
<defs>
<filter id="filter0_f_790_86886" x="-344" y="-246" width="537" height="479" filterUnits="userSpaceOnUse" color-interpolation-filters="sRGB">
<feFlood flood-opacity="0" result="BackgroundImageFix"/>
<feBlend mode="normal" in="SourceGraphic" in2="BackgroundImageFix" result="shape"/>
<feGaussianBlur stdDeviation="50.5" result="effect1_foregroundBlur_790_86886"/>
</filter>
<filter id="filter1_f_790_86886" x="47.6" y="-230.4" width="786.8" height="713.8" filterUnits="userSpaceOnUse" color-interpolation-filters="sRGB">
<feFlood flood-opacity="0" result="BackgroundImageFix"/>
<feBlend mode="normal" in="SourceGraphic" in2="BackgroundImageFix" result="shape"/>
<feGaussianBlur stdDeviation="92.2" result="effect1_foregroundBlur_790_86886"/>
</filter>
<filter id="filter2_d_790_86886" x="160.738" y="-51.3309" width="462.47" height="381.883" filterUnits="userSpaceOnUse" color-interpolation-filters="sRGB">
<feFlood flood-opacity="0" result="BackgroundImageFix"/>
<feColorMatrix in="SourceAlpha" type="matrix" values="0 0 0 0 0 0 0 0 0 0 0 0 0 0 0 0 0 0 127 0" result="hardAlpha"/>
<feOffset dy="4"/>
<feGaussianBlur stdDeviation="25"/>
<feComposite in2="hardAlpha" operator="out"/>
<feColorMatrix type="matrix" values="0 0 0 0 0 0 0 0 0 0 0 0 0 0 0 0 0 0 0.5 0"/>
<feBlend mode="normal" in2="BackgroundImageFix" result="effect1_dropShadow_790_86886"/>
<feBlend mode="normal" in="SourceGraphic" in2="effect1_dropShadow_790_86886" result="shape"/>
</filter>
<filter id="filter3_f_790_86886" x="272.336" y="155.699" width="188.149" height="188.149" filterUnits="userSpaceOnUse" color-interpolation-filters="sRGB">
<feFlood flood-opacity="0" result="BackgroundImageFix"/>
<feBlend mode="normal" in="SourceGraphic" in2="BackgroundImageFix" result="shape"/>
<feGaussianBlur stdDeviation="33.6481" result="effect1_foregroundBlur_790_86886"/>
</filter>
<filter id="filter4_f_790_86886" x="336.86" y="68.9782" width="198.306" height="198.306" filterUnits="userSpaceOnUse" color-interpolation-filters="sRGB">
<feFlood flood-opacity="0" result="BackgroundImageFix"/>
<feBlend mode="normal" in="SourceGraphic" in2="BackgroundImageFix" result="shape"/>
<feGaussianBlur stdDeviation="33.6481" result="effect1_foregroundBlur_790_86886"/>
</filter>
<linearGradient id="paint0_linear_790_86886" x1="184.5" y1="0" x2="184.5" y2="219" gradientUnits="userSpaceOnUse">
<stop stop-color="#1D2025"/>
<stop offset="1" stop-color="#111111"/>
</linearGradient>
<linearGradient id="paint1_linear_790_86886" x1="340.91" y1="95.0353" x2="340.91" y2="225.3" gradientUnits="userSpaceOnUse">
<stop/>
<stop offset="1" stop-color="#83DBF9"/>
</linearGradient>
<linearGradient id="paint2_linear_790_86886" x1="217.113" y1="-21.4133" x2="217.113" y2="108.851" gradientUnits="userSpaceOnUse">
<stop/>
<stop offset="1" stop-color="#83DBF9"/>
</linearGradient>
<linearGradient id="paint3_linear_790_86886" x1="340.91" y1="95.0353" x2="340.91" y2="225.3" gradientUnits="userSpaceOnUse">
<stop/>
<stop offset="1" stop-color="#83DBF9"/>
</linearGradient>
<linearGradient id="paint4_linear_790_86886" x1="217.113" y1="-21.4133" x2="217.113" y2="108.851" gradientUnits="userSpaceOnUse">
<stop/>
<stop offset="1" stop-color="#83DBF9"/>
</linearGradient>
<linearGradient id="paint5_linear_790_86886" x1="229.571" y1="136.163" x2="276.38" y2="183.947" gradientUnits="userSpaceOnUse">
<stop stop-color="#91E2FD"/>
<stop offset="1" stop-color="#34B8E4"/>
</linearGradient>
<linearGradient id="paint6_linear_790_86886" x1="244.752" y1="125.76" x2="231.528" y2="187.871" gradientUnits="userSpaceOnUse">
<stop stop-color="#91E2FD"/>
<stop offset="1" stop-color="#50D3FF"/>
</linearGradient>
<linearGradient id="paint7_linear_790_86886" x1="250.86" y1="155.022" x2="260.859" y2="178.657" gradientUnits="userSpaceOnUse">
<stop stop-color="#91E2FD"/>
<stop offset="1" stop-color="#B4ECFF"/>
</linearGradient>
<linearGradient id="paint8_linear_790_86886" x1="218.185" y1="140.98" x2="228.184" y2="164.616" gradientUnits="userSpaceOnUse">
<stop stop-color="#91E2FD"/>
<stop offset="1" stop-color="#B4ECFF"/>
</linearGradient>
<linearGradient id="paint9_linear_790_86886" x1="235.945" y1="155.163" x2="241.135" y2="167.432" gradientUnits="userSpaceOnUse">
<stop stop-color="#99E5FE"/>
<stop offset="1" stop-color="#69D0F3"/>
</linearGradient>
<linearGradient id="paint10_linear_790_86886" x1="291.08" y1="86.2898" x2="310.931" y2="163.24" gradientUnits="userSpaceOnUse">
<stop stop-color="#91E2FD"/>
<stop offset="1" stop-color="#34B8E4"/>
</linearGradient>
<linearGradient id="paint11_linear_790_86886" x1="312.933" y1="84.5687" x2="262.338" y2="140.835" gradientUnits="userSpaceOnUse">
<stop stop-color="#91E2FD"/>
<stop offset="1" stop-color="#50D3FF"/>
</linearGradient>
<linearGradient id="paint12_linear_790_86886" x1="301.754" y1="118.344" x2="298.05" y2="148.64" gradientUnits="userSpaceOnUse">
<stop stop-color="#91E2FD"/>
<stop offset="1" stop-color="#B4ECFF"/>
</linearGradient>
<linearGradient id="paint13_linear_790_86886" x1="276.472" y1="84.5039" x2="272.769" y2="114.8" gradientUnits="userSpaceOnUse">
<stop stop-color="#91E2FD"/>
<stop offset="1" stop-color="#B4ECFF"/>
</linearGradient>
<linearGradient id="paint14_linear_790_86886" x1="288.674" y1="107.652" x2="271.778" y2="126.918" gradientUnits="userSpaceOnUse">
<stop stop-color="#1D1F23"/>
<stop offset="1" stop-color="#72D4F5"/>
</linearGradient>
<linearGradient id="paint15_linear_790_86886" x1="327.037" y1="0.364221" x2="356.892" y2="116.093" gradientUnits="userSpaceOnUse">
<stop stop-color="#91E2FD"/>
<stop offset="1" stop-color="#34B8E4"/>
</linearGradient>
<linearGradient id="paint16_linear_790_86886" x1="359.903" y1="-2.22422" x2="283.81" y2="82.3967" gradientUnits="userSpaceOnUse">
<stop stop-color="#91E2FD"/>
<stop offset="1" stop-color="#50D3FF"/>
</linearGradient>
<linearGradient id="paint17_linear_790_86886" x1="343.094" y1="48.5711" x2="337.523" y2="94.1347" gradientUnits="userSpaceOnUse">
<stop stop-color="#91E2FD"/>
<stop offset="1" stop-color="#B4ECFF"/>
</linearGradient>
<linearGradient id="paint18_linear_790_86886" x1="305.068" y1="-2.32161" x2="299.498" y2="43.2419" gradientUnits="userSpaceOnUse">
<stop stop-color="#91E2FD"/>
<stop offset="1" stop-color="#B4ECFF"/>
</linearGradient>
<linearGradient id="paint19_linear_790_86886" x1="307.861" y1="61.8048" x2="349.593" y2="30.5123" gradientUnits="userSpaceOnUse">
<stop/>
<stop offset="1" stop-color="#A7E9FF"/>
</linearGradient>
<linearGradient id="paint20_linear_790_86886" x1="321.149" y1="29.5706" x2="317.071" y2="62.9308" gradientUnits="userSpaceOnUse">
<stop stop-color="#98E4FE"/>
<stop offset="1" stop-color="#6BD1F3"/>
</linearGradient>
<clipPath id="clip0_790_86886">
<rect width="369" height="219" rx="20" fill="white"/>
</clipPath>
<clipPath id="clip1_790_86886">
<rect width="363" height="363" fill="white" transform="translate(0 -72)"/>
</clipPath>
</defs>
</svg>
