<svg width="32" height="36" viewBox="0 0 32 36" fill="none" xmlns="http://www.w3.org/2000/svg">
<path opacity="0.8" fill-rule="evenodd" clip-rule="evenodd" d="M0 16V23.6189C0 27.397 3.05538 30.4612 6.82979 30.476H7.23818C7.74335 30.476 8.22782 30.2753 8.58503 29.9181C8.94223 29.5609 9.14291 29.0764 9.14291 28.5713V17.1425C9.14291 16.6374 8.94223 16.1529 8.58503 15.7957C8.22782 15.4385 7.74335 15.2378 7.23818 15.2378H6.83348C4.68895 15.2448 2.77648 16.2368 1.524 17.7848V16C1.524 15.2219 1.58561 14.4587 1.70367 13.7142H3.34425C3.74744 13.7139 4.14015 13.5857 4.46585 13.348C4.79156 13.1104 5.03346 12.7755 5.15674 12.3916C6.65972 7.85059 10.9469 4.5709 16 4.5709C18.4002 4.57104 20.7394 5.3268 22.6859 6.73101C24.6324 8.13522 26.0875 10.1166 26.8447 12.3942C26.9685 12.7761 27.2101 13.1089 27.5348 13.345C27.8595 13.5811 28.2506 13.7083 28.6521 13.7083C29.1685 13.7116 29.8208 13.7131 30.2949 13.7131C30.4144 14.4649 30.476 15.2293 30.476 15.9996V17.7845C29.2235 16.2365 27.3107 15.2445 25.1665 15.2374H24.7618C24.2567 15.2374 23.7722 15.4381 23.415 15.7953C23.0578 16.1525 22.8571 16.637 22.8571 17.1422V29.7134C22.8571 30.3199 22.6162 30.9014 22.1875 31.3293C21.9754 31.5417 21.7236 31.7102 21.4463 31.8252C21.169 31.9401 20.8718 31.9993 20.5716 31.9993H18.9174C18.7597 31.5536 18.4678 31.1678 18.0817 30.8949C17.6957 30.622 17.2346 30.4756 16.7618 30.4756H15.2382C14.938 30.4756 14.6408 30.5347 14.3635 30.6495C14.0861 30.7643 13.8341 30.9327 13.6219 31.1449C13.4096 31.3571 13.2412 31.6091 13.1264 31.8864C13.0115 32.1637 12.9524 32.4609 12.9524 32.7611V32.7626C12.9525 33.3684 13.1932 33.9493 13.6215 34.3777C14.0499 34.8061 14.6309 35.0468 15.2367 35.0469H16.7633C17.2358 35.0469 17.6967 34.9003 18.0825 34.6275C18.4683 34.3546 18.76 33.9688 18.9174 33.5233H20.5713C21.5817 33.5233 22.5509 33.1215 23.2655 32.4077C23.7932 31.8791 24.1543 31.2074 24.304 30.4756H25.1429C28.9302 30.4756 32 27.4059 32 23.6185V16C32.0001 13.8988 31.5863 11.8182 30.7821 9.87694C29.978 7.93572 28.7992 6.17194 27.3133 4.68637C25.8277 3.20051 24.064 2.02187 22.1228 1.21777C20.1817 0.413671 18.1011 -0.000130812 16 3.10195e-08C7.16366 3.10195e-08 0 7.16329 0 16Z" fill="#FDF74B"/>
</svg>
