<svg width="207" height="60" viewBox="0 0 207 60" fill="none" xmlns="http://www.w3.org/2000/svg">
<mask id="mask0_790_91125" style="mask-type:alpha" maskUnits="userSpaceOnUse" x="0" y="0" width="207" height="60">
<rect width="207" height="60" rx="10" fill="#D9D9D9"/>
</mask>
<g mask="url(#mask0_790_91125)">
<g filter="url(#filter0_f_790_91125)">
<rect x="0.5" y="0.5" width="206" height="59" rx="9.5" fill="#141517" stroke="#191A1C"/>
<g opacity="0.5" filter="url(#filter1_f_790_91125)">
<ellipse cx="183.763" cy="95.204" rx="183.763" ry="95.204" transform="matrix(0.941227 -0.337774 0.493662 0.869654 -390 52.1404)" fill="#91E2FD"/>
</g>
<path d="M-30.6299 4.75017L-29.4567 3.34987C-11.0527 10.9297 0.872004 3.59452 12.8286 -2.99687L15.6987 -0.592055L-5.29834 33.7639L-30.6299 4.75017Z" fill="#91E2FD"/>
<path d="M27.702 53.6251L28.8753 52.2248C18.1907 35.432 23.325 22.4073 27.7214 9.4815L24.8513 7.07668L-5.29834 33.7639L27.702 53.6251Z" fill="#91E2FD"/>
<path d="M-26.3074 68.1342L-5.29826 33.7637L20.0333 62.7775L18.8479 64.1923C0.456129 56.598 -11.4541 63.9453 -23.4373 70.539L-26.3074 68.1342Z" fill="#91E2FD"/>
</g>
</g>
<defs>
<filter id="filter0_f_790_91125" x="-353.318" y="-34.6191" width="564.318" height="214.968" filterUnits="userSpaceOnUse" color-interpolation-filters="sRGB">
<feFlood flood-opacity="0" result="BackgroundImageFix"/>
<feBlend mode="normal" in="SourceGraphic" in2="BackgroundImageFix" result="shape"/>
<feGaussianBlur stdDeviation="2" result="effect1_foregroundBlur_790_91125"/>
</filter>
<filter id="filter1_f_790_91125" x="-499.318" y="-180.619" width="658.558" height="506.968" filterUnits="userSpaceOnUse" color-interpolation-filters="sRGB">
<feFlood flood-opacity="0" result="BackgroundImageFix"/>
<feBlend mode="normal" in="SourceGraphic" in2="BackgroundImageFix" result="shape"/>
<feGaussianBlur stdDeviation="75" result="effect1_foregroundBlur_790_91125"/>
</filter>
</defs>
</svg>
