<svg width="40" height="28" viewBox="0 0 40 28" fill="none" xmlns="http://www.w3.org/2000/svg">
<path d="M26.6285 22.6954C26.2417 22.6942 25.8639 22.579 25.5423 22.3641C25.2207 22.1493 24.9695 21.8444 24.8203 21.4876C24.6711 21.1308 24.6304 20.7379 24.7033 20.358C24.7762 19.9782 24.9595 19.6283 25.2302 19.3521C26.7052 17.8698 27.5333 15.8638 27.5333 13.7726C27.5333 11.6815 26.7052 9.67547 25.2302 8.1932C24.8735 7.82036 24.6776 7.32227 24.6847 6.80633C24.6919 6.29038 24.9016 5.79792 25.2685 5.43512C25.6354 5.07233 26.1302 4.86827 26.6462 4.86695C27.1622 4.86563 27.658 5.06715 28.0268 5.42807C30.2301 7.64638 31.4666 10.6461 31.4666 13.7726C31.4666 16.8992 30.2301 19.8989 28.0268 22.1172C27.8435 22.3011 27.6255 22.4469 27.3855 22.5462C27.1455 22.6454 26.8882 22.6961 26.6285 22.6954ZM14.0871 22.127C14.4579 21.7603 14.6678 21.2613 14.6708 20.7399C14.6737 20.2184 14.4694 19.7171 14.1028 19.3462C12.6278 17.8639 11.7997 15.8579 11.7997 13.7667C11.7997 11.6756 12.6278 9.66957 14.1028 8.1873C14.2893 8.00475 14.4377 7.78691 14.5391 7.54646C14.6406 7.30601 14.6932 7.04777 14.6939 6.78678C14.6946 6.5258 14.6433 6.26729 14.543 6.02633C14.4428 5.78536 14.2956 5.56676 14.11 5.38326C13.9244 5.19977 13.7041 5.05504 13.4621 4.95753C13.22 4.86001 12.9609 4.81165 12.6999 4.81527C12.439 4.8189 12.1814 4.87442 11.9421 4.97862C11.7028 5.08281 11.4866 5.23359 11.3062 5.42216C9.10291 7.64048 7.86637 10.6402 7.86637 13.7667C7.86637 16.8933 9.10291 19.893 11.3062 22.1113C11.6729 22.4821 12.1719 22.692 12.6934 22.695C13.2149 22.6979 13.7162 22.4936 14.0871 22.127ZM34.2828 26.8864C37.5333 23.2898 39.333 18.6146 39.333 13.7667C39.333 8.91889 37.5333 4.24367 34.2828 0.647098C33.9328 0.260337 33.4435 0.0284495 32.9225 0.00244754C32.4016 -0.0235544 31.8916 0.15846 31.5049 0.508448C31.1181 0.858437 30.8862 1.34773 30.8602 1.86869C30.8342 2.38965 31.0162 2.8996 31.3662 3.28636C33.9623 6.15971 35.3995 9.89431 35.3995 13.7667C35.3995 17.6392 33.9623 21.3738 31.3662 24.2471C31.0162 24.6339 30.8342 25.1438 30.8602 25.6648C30.8862 26.1857 31.1181 26.675 31.5049 27.025C31.8916 27.375 32.4016 27.557 32.9225 27.531C33.4435 27.505 33.9328 27.2731 34.2828 26.8864ZM7.82717 27.024C8.21379 26.6742 8.44568 26.1852 8.47186 25.6645C8.49805 25.1437 8.31638 24.6339 7.96681 24.2471C5.37074 21.3738 3.9335 17.6392 3.9335 13.7667C3.9335 9.89431 5.37074 6.15971 7.96681 3.28636C8.1401 3.09486 8.27398 2.8711 8.3608 2.62785C8.44762 2.38461 8.48568 2.12664 8.47281 1.86869C8.45993 1.61074 8.39637 1.35785 8.28577 1.12445C8.17516 0.891064 8.01966 0.681745 7.82816 0.508448C7.63665 0.335151 7.41289 0.201271 7.16964 0.114451C6.9264 0.0276316 6.66844 -0.0104273 6.41048 0.00244754C5.88952 0.0284495 5.40023 0.260337 5.05024 0.647098C1.79967 4.24367 0 8.91889 0 13.7667C0 18.6146 1.79967 23.2898 5.05024 26.8864C5.40032 27.2727 5.88949 27.5042 6.41021 27.53C6.93093 27.5559 7.44059 27.3738 7.82717 27.024ZM19.6665 10.8167C19.0831 10.8167 18.5127 10.9897 18.0276 11.3139C17.5424 11.638 17.1643 12.0988 16.9411 12.6378C16.7178 13.1769 16.6594 13.77 16.7732 14.3422C16.887 14.9145 17.168 15.4401 17.5805 15.8527C17.9931 16.2653 18.5187 16.5462 19.091 16.66C19.6632 16.7739 20.2564 16.7155 20.7954 16.4922C21.3345 16.2689 21.7952 15.8908 22.1193 15.4057C22.4435 14.9205 22.6165 14.3502 22.6165 13.7667C22.6165 12.9843 22.3057 12.234 21.7525 11.6808C21.1992 11.1275 20.4489 10.8167 19.6665 10.8167Z" fill="#4C4D4F"/>
</svg>
