<svg xmlns="http://www.w3.org/2000/svg" width="334" height="136" viewBox="0 0 334 136" fill="none">
    <g opacity="0.55">
        <mask id="mask0_2012_81962" style="mask-type:luminance" maskUnits="userSpaceOnUse" x="278"
            y="0" width="38" height="20">
            <path d="M315.617 0.00012207H278.988V19.0755H315.617V0.00012207Z" fill="white" />
        </mask>
        <g mask="url(#mask0_2012_81962)">
            <path
                d="M315.617 11.0344V19.0766H305.807V18.704C310.699 17.4946 313.375 13.6083 314.651 11.0344H315.617Z"
                fill="#101010" />
            <path
                d="M315.617 -8.04089V0.00126839H305.807V-0.371336C310.699 -1.58071 313.375 -5.46699 314.651 -8.04089H315.617Z"
                fill="#101010" />
            <path
                d="M307.113 9.53879V9.90758C302.221 11.1208 299.54 15.007 298.268 17.5771H297.303V9.53879H307.113Z"
                fill="#101010" />
            <path
                d="M297.302 1.49667V9.53884H287.492V9.16623C292.384 7.95685 295.061 4.07057 296.337 1.49667H297.302Z"
                fill="#101010" />
            <path
                d="M288.798 0.00125122V0.370041C283.906 1.58323 281.225 5.46951 279.954 8.0396H278.988V0.00125122H288.798Z"
                fill="#101010" />
        </g>
        <mask id="mask1_2012_81962" style="mask-type:luminance" maskUnits="userSpaceOnUse" x="315"
            y="0" width="38" height="20">
            <path d="M352.264 0.00012207H315.635V19.0755H352.264V0.00012207Z" fill="white" />
        </mask>
        <g mask="url(#mask1_2012_81962)">
            <path
                d="M343.759 9.53879V9.90758C338.867 11.1208 336.186 15.007 334.915 17.5771H333.949V9.53879H343.759Z"
                fill="#101010" />
            <path
                d="M333.949 1.49667V9.53884H324.139V9.16623C329.031 7.95685 331.707 4.07057 332.983 1.49667H333.949Z"
                fill="#101010" />
            <path
                d="M325.445 0.00125122V0.370041C320.553 1.58323 317.872 5.46951 316.6 8.0396H315.635V0.00125122H325.445Z"
                fill="#101010" />
        </g>
        <mask id="mask2_2012_81962" style="mask-type:luminance" maskUnits="userSpaceOnUse" x="278"
            y="19" width="38" height="20">
            <path d="M315.617 19.0754H278.988V38.1508H315.617V19.0754Z" fill="white" />
        </mask>
        <g mask="url(#mask2_2012_81962)">
            <path
                d="M315.617 30.1099V38.152H305.807V37.7794C310.699 36.57 313.375 32.6838 314.651 30.1099H315.617Z"
                fill="#101010" />
            <path
                d="M315.617 11.0345V19.0767H305.807V18.7041C310.699 17.4947 313.375 13.6084 314.651 11.0345H315.617Z"
                fill="#101010" />
            <path
                d="M307.113 28.6144V28.9832C302.221 30.1964 299.54 34.0827 298.268 36.6528H297.303V28.6144H307.113Z"
                fill="#101010" />
            <path
                d="M297.302 20.5721V28.6143H287.492V28.2417C292.384 27.0323 295.061 23.146 296.337 20.5721H297.302Z"
                fill="#101010" />
            <path
                d="M288.798 19.0768V19.4456C283.906 20.6588 281.225 24.5451 279.954 27.1152H278.988V19.0768H288.798Z"
                fill="#101010" />
        </g>
        <mask id="mask3_2012_81962" style="mask-type:luminance" maskUnits="userSpaceOnUse" x="315"
            y="19" width="38" height="20">
            <path d="M352.264 19.0754H315.635V38.1508H352.264V19.0754Z" fill="white" />
        </mask>
        <g mask="url(#mask3_2012_81962)">
            <path
                d="M343.759 28.6144V28.9832C338.867 30.1964 336.186 34.0827 334.915 36.6528H333.949V28.6144H343.759Z"
                fill="#101010" />
            <path
                d="M333.949 20.5721V28.6143H324.139V28.2417C329.031 27.0323 331.707 23.146 332.983 20.5721H333.949Z"
                fill="#101010" />
            <path
                d="M325.445 19.0768V19.4456C320.553 20.6588 317.872 24.5451 316.6 27.1152H315.635V19.0768H325.445Z"
                fill="#101010" />
        </g>
        <mask id="mask4_2012_81962" style="mask-type:luminance" maskUnits="userSpaceOnUse" x="278"
            y="38" width="38" height="20">
            <path d="M315.617 38.1508H278.988V57.2261H315.617V38.1508Z" fill="white" />
        </mask>
        <g mask="url(#mask4_2012_81962)">
            <path
                d="M315.617 49.1851V57.2272H305.807V56.8546C310.699 55.6452 313.375 51.759 314.651 49.1851H315.617Z"
                fill="#101010" />
            <path
                d="M315.617 30.1097V38.1519H305.807V37.7793C310.699 36.5699 313.375 32.6836 314.651 30.1097H315.617Z"
                fill="#101010" />
            <path
                d="M307.113 47.6897V48.0585C302.221 49.2717 299.54 53.158 298.268 55.728H297.303V47.6897H307.113Z"
                fill="#101010" />
            <path
                d="M297.302 39.6475V47.6897H287.492V47.317C292.384 46.1077 295.061 42.2214 296.337 39.6475H297.302Z"
                fill="#101010" />
            <path
                d="M288.798 38.1519V38.5207C283.906 39.7339 281.225 43.6201 279.954 46.1902H278.988V38.1519H288.798Z"
                fill="#101010" />
        </g>
        <mask id="mask5_2012_81962" style="mask-type:luminance" maskUnits="userSpaceOnUse" x="315"
            y="38" width="38" height="20">
            <path d="M352.264 38.1508H315.635V57.2261H352.264V38.1508Z" fill="white" />
        </mask>
        <g mask="url(#mask5_2012_81962)">
            <path
                d="M343.759 47.6897V48.0585C338.867 49.2717 336.186 53.158 334.915 55.728H333.949V47.6897H343.759Z"
                fill="#101010" />
            <path
                d="M333.949 39.6475V47.6897H324.139V47.317C329.031 46.1077 331.707 42.2214 332.983 39.6475H333.949Z"
                fill="#101010" />
            <path
                d="M325.445 38.1519V38.5207C320.553 39.7339 317.872 43.6201 316.6 46.1902H315.635V38.1519H325.445Z"
                fill="#101010" />
        </g>
        <mask id="mask6_2012_81962" style="mask-type:luminance" maskUnits="userSpaceOnUse" x="278"
            y="57" width="38" height="20">
            <path d="M315.617 57.2261H278.988V76.3014H315.617V57.2261Z" fill="white" />
        </mask>
        <g mask="url(#mask6_2012_81962)">
            <path
                d="M315.617 68.2607V76.3028H305.807V75.9302C310.699 74.7209 313.375 70.8346 314.651 68.2607H315.617Z"
                fill="#101010" />
            <path
                d="M315.617 49.1852V57.2273H305.807V56.8547C310.699 55.6454 313.375 51.7591 314.651 49.1852H315.617Z"
                fill="#101010" />
            <path
                d="M307.113 66.765V67.1338C302.221 68.347 299.54 72.2333 298.268 74.8034H297.303V66.765H307.113Z"
                fill="#101010" />
            <path
                d="M297.302 58.7229V66.7651H287.492V66.3925C292.384 65.1831 295.061 61.2968 296.337 58.7229H297.302Z"
                fill="#101010" />
            <path
                d="M288.798 57.2275V57.5963C283.906 58.8095 281.225 62.6957 279.954 65.2658H278.988V57.2275H288.798Z"
                fill="#101010" />
        </g>
        <mask id="mask7_2012_81962" style="mask-type:luminance" maskUnits="userSpaceOnUse" x="315"
            y="57" width="38" height="20">
            <path d="M352.264 57.2261H315.635V76.3014H352.264V57.2261Z" fill="white" />
        </mask>
        <g mask="url(#mask7_2012_81962)">
            <path
                d="M343.759 66.765V67.1338C338.867 68.347 336.186 72.2333 334.915 74.8034H333.949V66.765H343.759Z"
                fill="#101010" />
            <path
                d="M333.949 58.7229V66.7651H324.139V66.3925C329.031 65.1831 331.707 61.2968 332.983 58.7229H333.949Z"
                fill="#101010" />
            <path
                d="M325.445 57.2275V57.5963C320.553 58.8095 317.872 62.6957 316.6 65.2658H315.635V57.2275H325.445Z"
                fill="#101010" />
        </g>
        <mask id="mask8_2012_81962" style="mask-type:luminance" maskUnits="userSpaceOnUse" x="278"
            y="76" width="38" height="20">
            <path d="M315.617 76.3016H278.988V95.3769H315.617V76.3016Z" fill="white" />
        </mask>
        <g mask="url(#mask8_2012_81962)">
            <path
                d="M315.617 87.3361V95.3783H305.807V95.0056C310.699 93.7963 313.375 89.91 314.651 87.3361H315.617Z"
                fill="#101010" />
            <path
                d="M315.617 68.2608V76.3029H305.807V75.9303C310.699 74.721 313.375 70.8347 314.651 68.2608H315.617Z"
                fill="#101010" />
            <path
                d="M307.113 85.84V86.2088C302.221 87.422 299.54 91.3083 298.268 93.8784H297.303V85.84H307.113Z"
                fill="#101010" />
            <path
                d="M297.302 77.7982V85.8403H287.492V85.4677C292.384 84.2584 295.061 80.3721 296.337 77.7982H297.302Z"
                fill="#101010" />
            <path
                d="M288.798 76.3029V76.6717C283.906 77.8849 281.225 81.7712 279.954 84.3413H278.988V76.3029H288.798Z"
                fill="#101010" />
        </g>
        <mask id="mask9_2012_81962" style="mask-type:luminance" maskUnits="userSpaceOnUse" x="315"
            y="76" width="38" height="20">
            <path d="M352.264 76.3016H315.635V95.3769H352.264V76.3016Z" fill="white" />
        </mask>
        <g mask="url(#mask9_2012_81962)">
            <path
                d="M343.759 85.84V86.2088C338.867 87.422 336.186 91.3083 334.915 93.8784H333.949V85.84H343.759Z"
                fill="#101010" />
            <path
                d="M333.949 77.7982V85.8403H324.139V85.4677C329.031 84.2584 331.707 80.3721 332.983 77.7982H333.949Z"
                fill="#101010" />
            <path
                d="M325.445 76.3029V76.6717C320.553 77.8849 317.872 81.7712 316.6 84.3413H315.635V76.3029H325.445Z"
                fill="#101010" />
        </g>
        <mask id="mask10_2012_81962" style="mask-type:luminance" maskUnits="userSpaceOnUse" x="278"
            y="95" width="38" height="20">
            <path d="M315.617 95.3769H278.988V114.452H315.617V95.3769Z" fill="white" />
        </mask>
        <g mask="url(#mask10_2012_81962)">
            <path
                d="M315.617 106.412V114.454H305.807V114.081C310.699 112.872 313.375 108.985 314.651 106.412H315.617Z"
                fill="#101010" />
            <path
                d="M315.617 87.3362V95.3784H305.807V95.0058C310.699 93.7964 313.375 89.9101 314.651 87.3362H315.617Z"
                fill="#101010" />
            <path
                d="M307.113 104.916V105.285C302.221 106.498 299.54 110.384 298.268 112.954H297.303V104.916H307.113Z"
                fill="#101010" />
            <path
                d="M297.302 96.8736V104.916H287.492V104.543C292.384 103.334 295.061 99.4475 296.337 96.8736H297.302Z"
                fill="#101010" />
            <path
                d="M288.798 95.378V95.7468C283.906 96.96 281.225 100.846 279.954 103.416H278.988V95.378H288.798Z"
                fill="#101010" />
        </g>
        <mask id="mask11_2012_81962" style="mask-type:luminance" maskUnits="userSpaceOnUse" x="315"
            y="95" width="38" height="20">
            <path d="M352.264 95.3769H315.635V114.452H352.264V95.3769Z" fill="white" />
        </mask>
        <g mask="url(#mask11_2012_81962)">
            <path
                d="M343.759 104.916V105.285C338.867 106.498 336.186 110.384 334.915 112.954H333.949V104.916H343.759Z"
                fill="#101010" />
            <path
                d="M333.949 96.8736V104.916H324.139V104.543C329.031 103.334 331.707 99.4475 332.983 96.8736H333.949Z"
                fill="#101010" />
            <path
                d="M325.445 95.378V95.7468C320.553 96.96 317.872 100.846 316.6 103.416H315.635V95.378H325.445Z"
                fill="#101010" />
        </g>
        <mask id="mask12_2012_81962" style="mask-type:luminance" maskUnits="userSpaceOnUse" x="278"
            y="114" width="38" height="20">
            <path d="M315.617 114.452H278.988V133.528H315.617V114.452Z" fill="white" />
        </mask>
        <g mask="url(#mask12_2012_81962)">
            <path
                d="M315.617 125.487V133.529H305.807V133.156C310.699 131.947 313.375 128.061 314.651 125.487H315.617Z"
                fill="#101010" />
            <path
                d="M315.617 106.411V114.454H305.807V114.081C310.699 112.872 313.375 108.985 314.651 106.411H315.617Z"
                fill="#101010" />
            <path
                d="M307.113 123.991V124.36C302.221 125.573 299.54 129.459 298.268 132.029H297.303V123.991H307.113Z"
                fill="#101010" />
            <path
                d="M297.302 115.949V123.991H287.492V123.619C292.384 122.409 295.061 118.523 296.337 115.949H297.302Z"
                fill="#101010" />
            <path
                d="M288.798 114.454V114.822C283.906 116.035 281.225 119.922 279.954 122.492H278.988V114.454H288.798Z"
                fill="#101010" />
        </g>
        <mask id="mask13_2012_81962" style="mask-type:luminance" maskUnits="userSpaceOnUse" x="315"
            y="114" width="38" height="20">
            <path d="M352.264 114.452H315.635V133.528H352.264V114.452Z" fill="white" />
        </mask>
        <g mask="url(#mask13_2012_81962)">
            <path
                d="M343.759 123.991V124.36C338.867 125.573 336.186 129.459 334.915 132.029H333.949V123.991H343.759Z"
                fill="#101010" />
            <path
                d="M333.949 115.949V123.991H324.139V123.619C329.031 122.409 331.707 118.523 332.983 115.949H333.949Z"
                fill="#101010" />
            <path
                d="M325.445 114.454V114.822C320.553 116.035 317.872 119.922 316.6 122.492H315.635V114.454H325.445Z"
                fill="#101010" />
        </g>
        <mask id="mask14_2012_81962" style="mask-type:luminance" maskUnits="userSpaceOnUse" x="278"
            y="133" width="38" height="20">
            <path d="M315.617 133.528H278.988V152.603H315.617V133.528Z" fill="white" />
        </mask>
        <g mask="url(#mask14_2012_81962)">
            <path
                d="M315.617 125.487V133.529H305.807V133.156C310.699 131.947 313.375 128.061 314.651 125.487H315.617Z"
                fill="#101010" />
            <path
                d="M297.302 135.024V143.066H287.492V142.694C292.384 141.484 295.061 137.598 296.337 135.024H297.302Z"
                fill="#101010" />
            <path
                d="M288.798 133.529V133.897C283.906 135.111 281.225 138.997 279.954 141.567H278.988V133.529H288.798Z"
                fill="#101010" />
        </g>
        <mask id="mask15_2012_81962" style="mask-type:luminance" maskUnits="userSpaceOnUse" x="315"
            y="133" width="38" height="20">
            <path d="M352.264 133.528H315.635V152.603H352.264V133.528Z" fill="white" />
        </mask>
        <g mask="url(#mask15_2012_81962)">
            <path
                d="M333.949 135.024V143.066H324.139V142.694C329.031 141.484 331.707 137.598 332.983 135.024H333.949Z"
                fill="#101010" />
            <path
                d="M325.445 133.529V133.897C320.553 135.111 317.872 138.997 316.6 141.567H315.635V133.529H325.445Z"
                fill="#101010" />
        </g>
        <mask id="mask16_2012_81962" style="mask-type:luminance" maskUnits="userSpaceOnUse" x="242"
            y="0" width="37" height="20">
            <path d="M278.988 0.00012207H242.359V19.0755H278.988V0.00012207Z" fill="white" />
        </mask>
        <g mask="url(#mask16_2012_81962)">
            <path
                d="M278.988 11.0344V19.0766H269.178V18.704C274.07 17.4946 276.746 13.6083 278.022 11.0344H278.988Z"
                fill="#101010" />
            <path
                d="M278.988 -8.04089V0.00126839H269.178V-0.371336C274.07 -1.58071 276.746 -5.46699 278.022 -8.04089H278.988Z"
                fill="#101010" />
            <path
                d="M270.484 9.53879V9.90758C265.592 11.1208 262.911 15.007 261.639 17.5771H260.674V9.53879H270.484Z"
                fill="#101010" />
            <path
                d="M260.673 1.49667V9.53884H250.863V9.16623C255.755 7.95685 258.432 4.07057 259.708 1.49667H260.673Z"
                fill="#101010" />
            <path
                d="M252.169 0.00125122V0.370041C247.277 1.58323 244.596 5.46951 243.325 8.0396H242.359V0.00125122H252.169Z"
                fill="#101010" />
        </g>
        <mask id="mask17_2012_81962" style="mask-type:luminance" maskUnits="userSpaceOnUse" x="242"
            y="19" width="37" height="20">
            <path d="M278.988 19.0754H242.359V38.1508H278.988V19.0754Z" fill="white" />
        </mask>
        <g mask="url(#mask17_2012_81962)">
            <path
                d="M278.988 30.1099V38.152H269.178V37.7794C274.07 36.57 276.746 32.6838 278.022 30.1099H278.988Z"
                fill="#101010" />
            <path
                d="M278.988 11.0345V19.0767H269.178V18.7041C274.07 17.4947 276.746 13.6084 278.022 11.0345H278.988Z"
                fill="#101010" />
            <path
                d="M270.484 28.6144V28.9832C265.592 30.1964 262.911 34.0827 261.639 36.6528H260.674V28.6144H270.484Z"
                fill="#101010" />
            <path
                d="M260.673 20.5721V28.6143H250.863V28.2417C255.755 27.0323 258.432 23.146 259.708 20.5721H260.673Z"
                fill="#101010" />
            <path
                d="M252.169 19.0768V19.4456C247.277 20.6588 244.596 24.5451 243.325 27.1152H242.359V19.0768H252.169Z"
                fill="#101010" />
        </g>
        <mask id="mask18_2012_81962" style="mask-type:luminance" maskUnits="userSpaceOnUse" x="242"
            y="38" width="37" height="20">
            <path d="M278.988 38.1508H242.359V57.2261H278.988V38.1508Z" fill="white" />
        </mask>
        <g mask="url(#mask18_2012_81962)">
            <path
                d="M278.988 49.1851V57.2272H269.178V56.8546C274.07 55.6452 276.746 51.759 278.022 49.1851H278.988Z"
                fill="#101010" />
            <path
                d="M278.988 30.1097V38.1519H269.178V37.7793C274.07 36.5699 276.746 32.6836 278.022 30.1097H278.988Z"
                fill="#101010" />
            <path
                d="M270.484 47.6897V48.0585C265.592 49.2717 262.911 53.158 261.639 55.728H260.674V47.6897H270.484Z"
                fill="#101010" />
            <path
                d="M260.673 39.6475V47.6897H250.863V47.317C255.755 46.1077 258.432 42.2214 259.708 39.6475H260.673Z"
                fill="#101010" />
            <path
                d="M252.169 38.1519V38.5207C247.277 39.7339 244.596 43.6201 243.325 46.1902H242.359V38.1519H252.169Z"
                fill="#101010" />
        </g>
        <mask id="mask19_2012_81962" style="mask-type:luminance" maskUnits="userSpaceOnUse" x="242"
            y="57" width="37" height="20">
            <path d="M278.988 57.2261H242.359V76.3014H278.988V57.2261Z" fill="white" />
        </mask>
        <g mask="url(#mask19_2012_81962)">
            <path
                d="M278.988 68.2607V76.3028H269.178V75.9302C274.07 74.7209 276.746 70.8346 278.022 68.2607H278.988Z"
                fill="#101010" />
            <path
                d="M278.988 49.1852V57.2273H269.178V56.8547C274.07 55.6454 276.746 51.7591 278.022 49.1852H278.988Z"
                fill="#101010" />
            <path
                d="M270.484 66.765V67.1338C265.592 68.347 262.911 72.2333 261.639 74.8034H260.674V66.765H270.484Z"
                fill="#101010" />
            <path
                d="M260.673 58.7229V66.7651H250.863V66.3925C255.755 65.1831 258.432 61.2968 259.708 58.7229H260.673Z"
                fill="#101010" />
            <path
                d="M252.169 57.2275V57.5963C247.277 58.8095 244.596 62.6957 243.325 65.2658H242.359V57.2275H252.169Z"
                fill="#101010" />
        </g>
        <mask id="mask20_2012_81962" style="mask-type:luminance" maskUnits="userSpaceOnUse" x="242"
            y="76" width="37" height="20">
            <path d="M278.988 76.3016H242.359V95.3769H278.988V76.3016Z" fill="white" />
        </mask>
        <g mask="url(#mask20_2012_81962)">
            <path
                d="M278.988 87.3361V95.3783H269.178V95.0056C274.07 93.7963 276.746 89.91 278.022 87.3361H278.988Z"
                fill="#101010" />
            <path
                d="M278.988 68.2608V76.3029H269.178V75.9303C274.07 74.721 276.746 70.8347 278.022 68.2608H278.988Z"
                fill="#101010" />
            <path
                d="M270.484 85.84V86.2088C265.592 87.422 262.911 91.3083 261.639 93.8784H260.674V85.84H270.484Z"
                fill="#101010" />
            <path
                d="M260.673 77.7982V85.8403H250.863V85.4677C255.755 84.2584 258.432 80.3721 259.708 77.7982H260.673Z"
                fill="#101010" />
            <path
                d="M252.169 76.3029V76.6717C247.277 77.8849 244.596 81.7712 243.325 84.3413H242.359V76.3029H252.169Z"
                fill="#101010" />
        </g>
        <mask id="mask21_2012_81962" style="mask-type:luminance" maskUnits="userSpaceOnUse" x="242"
            y="95" width="37" height="20">
            <path d="M278.988 95.3769H242.359V114.452H278.988V95.3769Z" fill="white" />
        </mask>
        <g mask="url(#mask21_2012_81962)">
            <path
                d="M278.988 106.412V114.454H269.178V114.081C274.07 112.872 276.746 108.985 278.022 106.412H278.988Z"
                fill="#101010" />
            <path
                d="M278.988 87.3362V95.3784H269.178V95.0058C274.07 93.7964 276.746 89.9101 278.022 87.3362H278.988Z"
                fill="#101010" />
            <path
                d="M270.484 104.916V105.285C265.592 106.498 262.911 110.384 261.639 112.954H260.674V104.916H270.484Z"
                fill="#101010" />
            <path
                d="M260.673 96.8736V104.916H250.863V104.543C255.755 103.334 258.432 99.4475 259.708 96.8736H260.673Z"
                fill="#101010" />
            <path
                d="M252.169 95.378V95.7468C247.277 96.96 244.596 100.846 243.325 103.416H242.359V95.378H252.169Z"
                fill="#101010" />
        </g>
        <mask id="mask22_2012_81962" style="mask-type:luminance" maskUnits="userSpaceOnUse" x="242"
            y="114" width="37" height="20">
            <path d="M278.988 114.452H242.359V133.528H278.988V114.452Z" fill="white" />
        </mask>
        <g mask="url(#mask22_2012_81962)">
            <path
                d="M278.988 125.487V133.529H269.178V133.156C274.07 131.947 276.746 128.061 278.022 125.487H278.988Z"
                fill="#101010" />
            <path
                d="M278.988 106.411V114.454H269.178V114.081C274.07 112.872 276.746 108.985 278.022 106.411H278.988Z"
                fill="#101010" />
            <path
                d="M270.484 123.991V124.36C265.592 125.573 262.911 129.459 261.639 132.029H260.674V123.991H270.484Z"
                fill="#101010" />
            <path
                d="M260.673 115.949V123.991H250.863V123.619C255.755 122.409 258.432 118.523 259.708 115.949H260.673Z"
                fill="#101010" />
            <path
                d="M252.169 114.454V114.822C247.277 116.035 244.596 119.922 243.325 122.492H242.359V114.454H252.169Z"
                fill="#101010" />
        </g>
        <mask id="mask23_2012_81962" style="mask-type:luminance" maskUnits="userSpaceOnUse" x="242"
            y="133" width="37" height="20">
            <path d="M278.988 133.528H242.359V152.603H278.988V133.528Z" fill="white" />
        </mask>
        <g mask="url(#mask23_2012_81962)">
            <path
                d="M278.988 125.487V133.529H269.178V133.156C274.07 131.947 276.746 128.061 278.022 125.487H278.988Z"
                fill="#101010" />
            <path
                d="M260.673 135.024V143.066H250.863V142.694C255.755 141.484 258.432 137.598 259.708 135.024H260.673Z"
                fill="#101010" />
            <path
                d="M252.169 133.529V133.897C247.277 135.111 244.596 138.997 243.325 141.567H242.359V133.529H252.169Z"
                fill="#101010" />
        </g>
        <mask id="mask24_2012_81962" style="mask-type:luminance" maskUnits="userSpaceOnUse" x="205"
            y="0" width="38" height="20">
            <path d="M242.36 0.00012207H205.73V19.0755H242.36V0.00012207Z" fill="white" />
        </mask>
        <g mask="url(#mask24_2012_81962)">
            <path
                d="M242.359 11.0344V19.0766H232.549V18.704C237.441 17.4946 240.117 13.6083 241.394 11.0344H242.359Z"
                fill="#101010" />
            <path
                d="M242.359 -8.04089V0.00126839H232.549V-0.371336C237.441 -1.58071 240.117 -5.46699 241.394 -8.04089H242.359Z"
                fill="#101010" />
            <path
                d="M233.855 9.53879V9.90758C228.963 11.1208 226.282 15.007 225.01 17.5771H224.045V9.53879H233.855Z"
                fill="#101010" />
            <path
                d="M224.044 1.49667V9.53884H214.234V9.16623C219.126 7.95685 221.803 4.07057 223.079 1.49667H224.044Z"
                fill="#101010" />
            <path
                d="M215.541 0.00125122V0.370041C210.649 1.58323 207.967 5.46951 206.696 8.0396H205.73V0.00125122H215.541Z"
                fill="#101010" />
        </g>
        <mask id="mask25_2012_81962" style="mask-type:luminance" maskUnits="userSpaceOnUse" x="205"
            y="19" width="38" height="20">
            <path d="M242.36 19.0754H205.73V38.1508H242.36V19.0754Z" fill="white" />
        </mask>
        <g mask="url(#mask25_2012_81962)">
            <path
                d="M242.359 30.1099V38.152H232.549V37.7794C237.441 36.57 240.117 32.6838 241.394 30.1099H242.359Z"
                fill="#101010" />
            <path
                d="M242.359 11.0345V19.0767H232.549V18.7041C237.441 17.4947 240.117 13.6084 241.394 11.0345H242.359Z"
                fill="#101010" />
            <path
                d="M233.855 28.6144V28.9832C228.963 30.1964 226.282 34.0827 225.01 36.6528H224.045V28.6144H233.855Z"
                fill="#101010" />
            <path
                d="M224.044 20.5721V28.6143H214.234V28.2417C219.126 27.0323 221.803 23.146 223.079 20.5721H224.044Z"
                fill="#101010" />
            <path
                d="M215.541 19.0768V19.4456C210.649 20.6588 207.967 24.5451 206.696 27.1152H205.73V19.0768H215.541Z"
                fill="#101010" />
        </g>
        <mask id="mask26_2012_81962" style="mask-type:luminance" maskUnits="userSpaceOnUse" x="205"
            y="38" width="38" height="20">
            <path d="M242.36 38.1508H205.73V57.2261H242.36V38.1508Z" fill="white" />
        </mask>
        <g mask="url(#mask26_2012_81962)">
            <path
                d="M242.359 49.1851V57.2272H232.549V56.8546C237.441 55.6452 240.117 51.759 241.394 49.1851H242.359Z"
                fill="#101010" />
            <path
                d="M242.359 30.1097V38.1519H232.549V37.7793C237.441 36.5699 240.117 32.6836 241.394 30.1097H242.359Z"
                fill="#101010" />
            <path
                d="M233.855 47.6897V48.0585C228.963 49.2717 226.282 53.158 225.01 55.728H224.045V47.6897H233.855Z"
                fill="#101010" />
            <path
                d="M224.044 39.6475V47.6897H214.234V47.317C219.126 46.1077 221.803 42.2214 223.079 39.6475H224.044Z"
                fill="#101010" />
            <path
                d="M215.541 38.1519V38.5207C210.649 39.7339 207.967 43.6201 206.696 46.1902H205.73V38.1519H215.541Z"
                fill="#101010" />
        </g>
        <mask id="mask27_2012_81962" style="mask-type:luminance" maskUnits="userSpaceOnUse" x="205"
            y="57" width="38" height="20">
            <path d="M242.36 57.2261H205.73V76.3014H242.36V57.2261Z" fill="white" />
        </mask>
        <g mask="url(#mask27_2012_81962)">
            <path
                d="M242.359 68.2607V76.3028H232.549V75.9302C237.441 74.7209 240.117 70.8346 241.394 68.2607H242.359Z"
                fill="#101010" />
            <path
                d="M242.359 49.1852V57.2273H232.549V56.8547C237.441 55.6454 240.117 51.7591 241.394 49.1852H242.359Z"
                fill="#101010" />
            <path
                d="M233.855 66.765V67.1338C228.963 68.347 226.282 72.2333 225.01 74.8034H224.045V66.765H233.855Z"
                fill="#101010" />
            <path
                d="M224.044 58.7229V66.7651H214.234V66.3925C219.126 65.1831 221.803 61.2968 223.079 58.7229H224.044Z"
                fill="#101010" />
            <path
                d="M215.541 57.2275V57.5963C210.649 58.8095 207.967 62.6957 206.696 65.2658H205.73V57.2275H215.541Z"
                fill="#101010" />
        </g>
        <mask id="mask28_2012_81962" style="mask-type:luminance" maskUnits="userSpaceOnUse" x="205"
            y="76" width="38" height="20">
            <path d="M242.36 76.3016H205.73V95.3769H242.36V76.3016Z" fill="white" />
        </mask>
        <g mask="url(#mask28_2012_81962)">
            <path
                d="M242.359 87.3361V95.3783H232.549V95.0056C237.441 93.7963 240.117 89.91 241.394 87.3361H242.359Z"
                fill="#101010" />
            <path
                d="M242.359 68.2608V76.3029H232.549V75.9303C237.441 74.721 240.117 70.8347 241.394 68.2608H242.359Z"
                fill="#101010" />
            <path
                d="M233.855 85.84V86.2088C228.963 87.422 226.282 91.3083 225.01 93.8784H224.045V85.84H233.855Z"
                fill="#101010" />
            <path
                d="M224.044 77.7982V85.8403H214.234V85.4677C219.126 84.2584 221.803 80.3721 223.079 77.7982H224.044Z"
                fill="#101010" />
            <path
                d="M215.541 76.3029V76.6717C210.649 77.8849 207.967 81.7712 206.696 84.3413H205.73V76.3029H215.541Z"
                fill="#101010" />
        </g>
        <mask id="mask29_2012_81962" style="mask-type:luminance" maskUnits="userSpaceOnUse" x="205"
            y="95" width="38" height="20">
            <path d="M242.36 95.3769H205.73V114.452H242.36V95.3769Z" fill="white" />
        </mask>
        <g mask="url(#mask29_2012_81962)">
            <path
                d="M242.359 106.412V114.454H232.549V114.081C237.441 112.872 240.117 108.985 241.394 106.412H242.359Z"
                fill="#101010" />
            <path
                d="M242.359 87.3362V95.3784H232.549V95.0058C237.441 93.7964 240.117 89.9101 241.394 87.3362H242.359Z"
                fill="#101010" />
            <path
                d="M233.855 104.916V105.285C228.963 106.498 226.282 110.384 225.01 112.954H224.045V104.916H233.855Z"
                fill="#101010" />
            <path
                d="M224.044 96.8736V104.916H214.234V104.543C219.126 103.334 221.803 99.4475 223.079 96.8736H224.044Z"
                fill="#101010" />
            <path
                d="M215.541 95.378V95.7468C210.649 96.96 207.967 100.846 206.696 103.416H205.73V95.378H215.541Z"
                fill="#101010" />
        </g>
        <mask id="mask30_2012_81962" style="mask-type:luminance" maskUnits="userSpaceOnUse" x="205"
            y="114" width="38" height="20">
            <path d="M242.36 114.452H205.73V133.528H242.36V114.452Z" fill="white" />
        </mask>
        <g mask="url(#mask30_2012_81962)">
            <path
                d="M242.359 125.487V133.529H232.549V133.156C237.441 131.947 240.117 128.061 241.394 125.487H242.359Z"
                fill="#101010" />
            <path
                d="M242.359 106.411V114.454H232.549V114.081C237.441 112.872 240.117 108.985 241.394 106.411H242.359Z"
                fill="#101010" />
            <path
                d="M233.855 123.991V124.36C228.963 125.573 226.282 129.459 225.01 132.029H224.045V123.991H233.855Z"
                fill="#101010" />
            <path
                d="M224.044 115.949V123.991H214.234V123.619C219.126 122.409 221.803 118.523 223.079 115.949H224.044Z"
                fill="#101010" />
            <path
                d="M215.541 114.454V114.822C210.649 116.035 207.967 119.922 206.696 122.492H205.73V114.454H215.541Z"
                fill="#101010" />
        </g>
        <mask id="mask31_2012_81962" style="mask-type:luminance" maskUnits="userSpaceOnUse" x="205"
            y="133" width="38" height="20">
            <path d="M242.36 133.528H205.73V152.603H242.36V133.528Z" fill="white" />
        </mask>
        <g mask="url(#mask31_2012_81962)">
            <path
                d="M242.359 125.487V133.529H232.549V133.156C237.441 131.947 240.117 128.061 241.394 125.487H242.359Z"
                fill="#101010" />
            <path
                d="M224.044 135.024V143.066H214.234V142.694C219.126 141.484 221.803 137.598 223.079 135.024H224.044Z"
                fill="#101010" />
            <path
                d="M215.541 133.529V133.897C210.649 135.111 207.967 138.997 206.696 141.567H205.73V133.529H215.541Z"
                fill="#101010" />
        </g>
        <mask id="mask32_2012_81962" style="mask-type:luminance" maskUnits="userSpaceOnUse" x="169"
            y="0" width="37" height="20">
            <path d="M205.731 0.00012207H169.102V19.0755H205.731V0.00012207Z" fill="white" />
        </mask>
        <g mask="url(#mask32_2012_81962)">
            <path
                d="M205.73 11.0344V19.0766H195.92V18.704C200.812 17.4946 203.488 13.6083 204.765 11.0344H205.73Z"
                fill="#101010" />
            <path
                d="M205.73 -8.04089V0.00126839H195.92V-0.371336C200.812 -1.58071 203.488 -5.46699 204.765 -8.04089H205.73Z"
                fill="#101010" />
            <path
                d="M197.226 9.53879V9.90758C192.334 11.1208 189.653 15.007 188.381 17.5771H187.416V9.53879H197.226Z"
                fill="#101010" />
            <path
                d="M187.416 1.49667V9.53884H177.605V9.16623C182.497 7.95685 185.174 4.07057 186.45 1.49667H187.416Z"
                fill="#101010" />
            <path
                d="M178.912 0.00125122V0.370041C174.02 1.58323 171.338 5.46951 170.067 8.0396H169.102V0.00125122H178.912Z"
                fill="#101010" />
        </g>
        <mask id="mask33_2012_81962" style="mask-type:luminance" maskUnits="userSpaceOnUse" x="169"
            y="19" width="37" height="20">
            <path d="M205.731 19.0754H169.102V38.1508H205.731V19.0754Z" fill="white" />
        </mask>
        <g mask="url(#mask33_2012_81962)">
            <path
                d="M205.73 30.1099V38.152H195.92V37.7794C200.812 36.57 203.488 32.6838 204.765 30.1099H205.73Z"
                fill="#101010" />
            <path
                d="M205.73 11.0345V19.0767H195.92V18.7041C200.812 17.4947 203.488 13.6084 204.765 11.0345H205.73Z"
                fill="#101010" />
            <path
                d="M197.226 28.6144V28.9832C192.334 30.1964 189.653 34.0827 188.381 36.6528H187.416V28.6144H197.226Z"
                fill="#101010" />
            <path
                d="M187.416 20.5721V28.6143H177.605V28.2417C182.497 27.0323 185.174 23.146 186.45 20.5721H187.416Z"
                fill="#101010" />
            <path
                d="M178.912 19.0768V19.4456C174.02 20.6588 171.338 24.5451 170.067 27.1152H169.102V19.0768H178.912Z"
                fill="#101010" />
        </g>
        <mask id="mask34_2012_81962" style="mask-type:luminance" maskUnits="userSpaceOnUse" x="169"
            y="38" width="37" height="20">
            <path d="M205.731 38.1508H169.102V57.2261H205.731V38.1508Z" fill="white" />
        </mask>
        <g mask="url(#mask34_2012_81962)">
            <path
                d="M205.73 49.1851V57.2272H195.92V56.8546C200.812 55.6452 203.488 51.759 204.765 49.1851H205.73Z"
                fill="#101010" />
            <path
                d="M205.73 30.1097V38.1519H195.92V37.7793C200.812 36.5699 203.488 32.6836 204.765 30.1097H205.73Z"
                fill="#101010" />
            <path
                d="M197.226 47.6897V48.0585C192.334 49.2717 189.653 53.158 188.381 55.728H187.416V47.6897H197.226Z"
                fill="#101010" />
            <path
                d="M187.416 39.6475V47.6897H177.605V47.317C182.497 46.1077 185.174 42.2214 186.45 39.6475H187.416Z"
                fill="#101010" />
            <path
                d="M178.912 38.1519V38.5207C174.02 39.7339 171.338 43.6201 170.067 46.1902H169.102V38.1519H178.912Z"
                fill="#101010" />
        </g>
        <mask id="mask35_2012_81962" style="mask-type:luminance" maskUnits="userSpaceOnUse" x="169"
            y="57" width="37" height="20">
            <path d="M205.731 57.2261H169.102V76.3014H205.731V57.2261Z" fill="white" />
        </mask>
        <g mask="url(#mask35_2012_81962)">
            <path
                d="M205.73 68.2607V76.3028H195.92V75.9302C200.812 74.7209 203.488 70.8346 204.765 68.2607H205.73Z"
                fill="#101010" />
            <path
                d="M205.73 49.1852V57.2273H195.92V56.8547C200.812 55.6454 203.488 51.7591 204.765 49.1852H205.73Z"
                fill="#101010" />
            <path
                d="M197.226 66.765V67.1338C192.334 68.347 189.653 72.2333 188.381 74.8034H187.416V66.765H197.226Z"
                fill="#101010" />
            <path
                d="M187.416 58.7229V66.7651H177.605V66.3925C182.497 65.1831 185.174 61.2968 186.45 58.7229H187.416Z"
                fill="#101010" />
            <path
                d="M178.912 57.2275V57.5963C174.02 58.8095 171.338 62.6957 170.067 65.2658H169.102V57.2275H178.912Z"
                fill="#101010" />
        </g>
        <mask id="mask36_2012_81962" style="mask-type:luminance" maskUnits="userSpaceOnUse" x="169"
            y="76" width="37" height="20">
            <path d="M205.731 76.3016H169.102V95.3769H205.731V76.3016Z" fill="white" />
        </mask>
        <g mask="url(#mask36_2012_81962)">
            <path
                d="M205.73 87.3361V95.3783H195.92V95.0056C200.812 93.7963 203.488 89.91 204.765 87.3361H205.73Z"
                fill="#101010" />
            <path
                d="M205.73 68.2608V76.3029H195.92V75.9303C200.812 74.721 203.488 70.8347 204.765 68.2608H205.73Z"
                fill="#101010" />
            <path
                d="M197.226 85.84V86.2088C192.334 87.422 189.653 91.3083 188.381 93.8784H187.416V85.84H197.226Z"
                fill="#101010" />
            <path
                d="M187.416 77.7982V85.8403H177.605V85.4677C182.497 84.2584 185.174 80.3721 186.45 77.7982H187.416Z"
                fill="#101010" />
            <path
                d="M178.912 76.3029V76.6717C174.02 77.8849 171.338 81.7712 170.067 84.3413H169.102V76.3029H178.912Z"
                fill="#101010" />
        </g>
        <mask id="mask37_2012_81962" style="mask-type:luminance" maskUnits="userSpaceOnUse" x="169"
            y="95" width="37" height="20">
            <path d="M205.731 95.3769H169.102V114.452H205.731V95.3769Z" fill="white" />
        </mask>
        <g mask="url(#mask37_2012_81962)">
            <path
                d="M205.73 106.412V114.454H195.92V114.081C200.812 112.872 203.488 108.985 204.765 106.412H205.73Z"
                fill="#101010" />
            <path
                d="M205.73 87.3362V95.3784H195.92V95.0058C200.812 93.7964 203.488 89.9101 204.765 87.3362H205.73Z"
                fill="#101010" />
            <path
                d="M197.226 104.916V105.285C192.334 106.498 189.653 110.384 188.381 112.954H187.416V104.916H197.226Z"
                fill="#101010" />
            <path
                d="M187.416 96.8736V104.916H177.605V104.543C182.497 103.334 185.174 99.4475 186.45 96.8736H187.416Z"
                fill="#101010" />
            <path
                d="M178.912 95.378V95.7468C174.02 96.96 171.338 100.846 170.067 103.416H169.102V95.378H178.912Z"
                fill="#101010" />
        </g>
        <mask id="mask38_2012_81962" style="mask-type:luminance" maskUnits="userSpaceOnUse" x="169"
            y="114" width="37" height="20">
            <path d="M205.731 114.452H169.102V133.528H205.731V114.452Z" fill="white" />
        </mask>
        <g mask="url(#mask38_2012_81962)">
            <path
                d="M205.73 125.487V133.529H195.92V133.156C200.812 131.947 203.488 128.061 204.765 125.487H205.73Z"
                fill="#101010" />
            <path
                d="M205.73 106.411V114.454H195.92V114.081C200.812 112.872 203.488 108.985 204.765 106.411H205.73Z"
                fill="#101010" />
            <path
                d="M197.226 123.991V124.36C192.334 125.573 189.653 129.459 188.381 132.029H187.416V123.991H197.226Z"
                fill="#101010" />
            <path
                d="M187.416 115.949V123.991H177.605V123.619C182.497 122.409 185.174 118.523 186.45 115.949H187.416Z"
                fill="#101010" />
            <path
                d="M178.912 114.454V114.822C174.02 116.035 171.338 119.922 170.067 122.492H169.102V114.454H178.912Z"
                fill="#101010" />
        </g>
        <mask id="mask39_2012_81962" style="mask-type:luminance" maskUnits="userSpaceOnUse" x="169"
            y="133" width="37" height="20">
            <path d="M205.731 133.528H169.102V152.603H205.731V133.528Z" fill="white" />
        </mask>
        <g mask="url(#mask39_2012_81962)">
            <path
                d="M205.73 125.487V133.529H195.92V133.156C200.812 131.947 203.488 128.061 204.765 125.487H205.73Z"
                fill="#101010" />
            <path
                d="M187.416 135.024V143.066H177.605V142.694C182.497 141.484 185.174 137.598 186.45 135.024H187.416Z"
                fill="#101010" />
            <path
                d="M178.912 133.529V133.897C174.02 135.111 171.338 138.997 170.067 141.567H169.102V133.529H178.912Z"
                fill="#101010" />
        </g>
        <mask id="mask40_2012_81962" style="mask-type:luminance" maskUnits="userSpaceOnUse" x="132"
            y="0" width="38" height="20">
            <path d="M169.1 0.00012207H132.471V19.0755H169.1V0.00012207Z" fill="white" />
        </mask>
        <g mask="url(#mask40_2012_81962)">
            <path
                d="M169.099 11.0344V19.0766H159.289V18.704C164.181 17.4946 166.857 13.6083 168.134 11.0344H169.099Z"
                fill="#101010" />
            <path
                d="M169.099 -8.04089V0.00126839H159.289V-0.371336C164.181 -1.58071 166.857 -5.46699 168.134 -8.04089H169.099Z"
                fill="#101010" />
            <path
                d="M160.595 9.53879V9.90758C155.703 11.1208 153.022 15.007 151.751 17.5771H150.785V9.53879H160.595Z"
                fill="#101010" />
            <path
                d="M150.785 1.49667V9.53884H140.975V9.16623C145.867 7.95685 148.543 4.07057 149.819 1.49667H150.785Z"
                fill="#101010" />
            <path
                d="M142.281 0.00125122V0.370041C137.389 1.58323 134.708 5.46951 133.436 8.0396H132.471V0.00125122H142.281Z"
                fill="#101010" />
        </g>
        <mask id="mask41_2012_81962" style="mask-type:luminance" maskUnits="userSpaceOnUse" x="132"
            y="19" width="38" height="20">
            <path d="M169.1 19.0754H132.471V38.1508H169.1V19.0754Z" fill="white" />
        </mask>
        <g mask="url(#mask41_2012_81962)">
            <path
                d="M169.099 30.1099V38.152H159.289V37.7794C164.181 36.57 166.857 32.6838 168.134 30.1099H169.099Z"
                fill="#101010" />
            <path
                d="M169.099 11.0345V19.0767H159.289V18.7041C164.181 17.4947 166.857 13.6084 168.134 11.0345H169.099Z"
                fill="#101010" />
            <path
                d="M160.595 28.6144V28.9832C155.703 30.1964 153.022 34.0827 151.751 36.6528H150.785V28.6144H160.595Z"
                fill="#101010" />
            <path
                d="M150.785 20.5721V28.6143H140.975V28.2417C145.867 27.0323 148.543 23.146 149.819 20.5721H150.785Z"
                fill="#101010" />
            <path
                d="M142.281 19.0768V19.4456C137.389 20.6588 134.708 24.5451 133.436 27.1152H132.471V19.0768H142.281Z"
                fill="#101010" />
        </g>
        <mask id="mask42_2012_81962" style="mask-type:luminance" maskUnits="userSpaceOnUse" x="132"
            y="38" width="38" height="20">
            <path d="M169.1 38.1508H132.471V57.2261H169.1V38.1508Z" fill="white" />
        </mask>
        <g mask="url(#mask42_2012_81962)">
            <path
                d="M169.099 49.1851V57.2272H159.289V56.8546C164.181 55.6452 166.857 51.759 168.134 49.1851H169.099Z"
                fill="#101010" />
            <path
                d="M169.099 30.1097V38.1519H159.289V37.7793C164.181 36.5699 166.857 32.6836 168.134 30.1097H169.099Z"
                fill="#101010" />
            <path
                d="M160.595 47.6897V48.0585C155.703 49.2717 153.022 53.158 151.751 55.728H150.785V47.6897H160.595Z"
                fill="#101010" />
            <path
                d="M150.785 39.6475V47.6897H140.975V47.317C145.867 46.1077 148.543 42.2214 149.819 39.6475H150.785Z"
                fill="#101010" />
            <path
                d="M142.281 38.1519V38.5207C137.389 39.7339 134.708 43.6201 133.436 46.1902H132.471V38.1519H142.281Z"
                fill="#101010" />
        </g>
        <mask id="mask43_2012_81962" style="mask-type:luminance" maskUnits="userSpaceOnUse" x="132"
            y="57" width="38" height="20">
            <path d="M169.1 57.2261H132.471V76.3014H169.1V57.2261Z" fill="white" />
        </mask>
        <g mask="url(#mask43_2012_81962)">
            <path
                d="M169.099 68.2607V76.3028H159.289V75.9302C164.181 74.7209 166.857 70.8346 168.134 68.2607H169.099Z"
                fill="#101010" />
            <path
                d="M169.099 49.1852V57.2273H159.289V56.8547C164.181 55.6454 166.857 51.7591 168.134 49.1852H169.099Z"
                fill="#101010" />
            <path
                d="M160.595 66.765V67.1338C155.703 68.347 153.022 72.2333 151.751 74.8034H150.785V66.765H160.595Z"
                fill="#101010" />
            <path
                d="M150.785 58.7229V66.7651H140.975V66.3925C145.867 65.1831 148.543 61.2968 149.819 58.7229H150.785Z"
                fill="#101010" />
            <path
                d="M142.281 57.2275V57.5963C137.389 58.8095 134.708 62.6957 133.436 65.2658H132.471V57.2275H142.281Z"
                fill="#101010" />
        </g>
        <mask id="mask44_2012_81962" style="mask-type:luminance" maskUnits="userSpaceOnUse" x="132"
            y="76" width="38" height="20">
            <path d="M169.1 76.3016H132.471V95.3769H169.1V76.3016Z" fill="white" />
        </mask>
        <g mask="url(#mask44_2012_81962)">
            <path
                d="M169.099 87.3361V95.3783H159.289V95.0056C164.181 93.7963 166.857 89.91 168.134 87.3361H169.099Z"
                fill="#101010" />
            <path
                d="M169.099 68.2608V76.3029H159.289V75.9303C164.181 74.721 166.857 70.8347 168.134 68.2608H169.099Z"
                fill="#101010" />
            <path
                d="M160.595 85.84V86.2088C155.703 87.422 153.022 91.3083 151.751 93.8784H150.785V85.84H160.595Z"
                fill="#101010" />
            <path
                d="M150.785 77.7982V85.8403H140.975V85.4677C145.867 84.2584 148.543 80.3721 149.819 77.7982H150.785Z"
                fill="#101010" />
            <path
                d="M142.281 76.3029V76.6717C137.389 77.8849 134.708 81.7712 133.436 84.3413H132.471V76.3029H142.281Z"
                fill="#101010" />
        </g>
        <mask id="mask45_2012_81962" style="mask-type:luminance" maskUnits="userSpaceOnUse" x="132"
            y="95" width="38" height="20">
            <path d="M169.1 95.3769H132.471V114.452H169.1V95.3769Z" fill="white" />
        </mask>
        <g mask="url(#mask45_2012_81962)">
            <path
                d="M169.099 106.412V114.454H159.289V114.081C164.181 112.872 166.857 108.985 168.134 106.412H169.099Z"
                fill="#101010" />
            <path
                d="M169.099 87.3362V95.3784H159.289V95.0058C164.181 93.7964 166.857 89.9101 168.134 87.3362H169.099Z"
                fill="#101010" />
            <path
                d="M160.595 104.916V105.285C155.703 106.498 153.022 110.384 151.751 112.954H150.785V104.916H160.595Z"
                fill="#101010" />
            <path
                d="M150.785 96.8736V104.916H140.975V104.543C145.867 103.334 148.543 99.4475 149.819 96.8736H150.785Z"
                fill="#101010" />
            <path
                d="M142.281 95.378V95.7468C137.389 96.96 134.708 100.846 133.436 103.416H132.471V95.378H142.281Z"
                fill="#101010" />
        </g>
        <mask id="mask46_2012_81962" style="mask-type:luminance" maskUnits="userSpaceOnUse" x="132"
            y="114" width="38" height="20">
            <path d="M169.1 114.452H132.471V133.528H169.1V114.452Z" fill="white" />
        </mask>
        <g mask="url(#mask46_2012_81962)">
            <path
                d="M169.099 125.487V133.529H159.289V133.156C164.181 131.947 166.857 128.061 168.134 125.487H169.099Z"
                fill="#101010" />
            <path
                d="M169.099 106.411V114.454H159.289V114.081C164.181 112.872 166.857 108.985 168.134 106.411H169.099Z"
                fill="#101010" />
            <path
                d="M160.595 123.991V124.36C155.703 125.573 153.022 129.459 151.751 132.029H150.785V123.991H160.595Z"
                fill="#101010" />
            <path
                d="M150.785 115.949V123.991H140.975V123.619C145.867 122.409 148.543 118.523 149.819 115.949H150.785Z"
                fill="#101010" />
            <path
                d="M142.281 114.454V114.822C137.389 116.035 134.708 119.922 133.436 122.492H132.471V114.454H142.281Z"
                fill="#101010" />
        </g>
        <mask id="mask47_2012_81962" style="mask-type:luminance" maskUnits="userSpaceOnUse" x="132"
            y="133" width="38" height="20">
            <path d="M169.1 133.528H132.471V152.603H169.1V133.528Z" fill="white" />
        </mask>
        <g mask="url(#mask47_2012_81962)">
            <path
                d="M169.099 125.487V133.529H159.289V133.156C164.181 131.947 166.857 128.061 168.134 125.487H169.099Z"
                fill="#101010" />
            <path
                d="M150.785 135.024V143.066H140.975V142.694C145.867 141.484 148.543 137.598 149.819 135.024H150.785Z"
                fill="#101010" />
            <path
                d="M142.281 133.529V133.897C137.389 135.111 134.708 138.997 133.436 141.567H132.471V133.529H142.281Z"
                fill="#101010" />
        </g>
        <mask id="mask48_2012_81962" style="mask-type:luminance" maskUnits="userSpaceOnUse" x="95"
            y="0" width="38" height="20">
            <path d="M132.471 0.00012207H95.8418V19.0755H132.471V0.00012207Z" fill="white" />
        </mask>
        <g mask="url(#mask48_2012_81962)">
            <path
                d="M132.47 11.0344V19.0766H122.66V18.704C127.552 17.4946 130.229 13.6083 131.505 11.0344H132.47Z"
                fill="#101010" />
            <path
                d="M132.47 -8.04089V0.00126839H122.66V-0.371336C127.552 -1.58071 130.229 -5.46699 131.505 -8.04089H132.47Z"
                fill="#101010" />
            <path
                d="M123.966 9.53879V9.90758C119.074 11.1208 116.393 15.007 115.122 17.5771H114.156V9.53879H123.966Z"
                fill="#101010" />
            <path
                d="M114.156 1.49667V9.53884H104.346V9.16623C109.238 7.95685 111.914 4.07057 113.19 1.49667H114.156Z"
                fill="#101010" />
            <path
                d="M105.652 0.00125122V0.370041C100.76 1.58323 98.0786 5.46951 96.8072 8.0396H95.8418V0.00125122H105.652Z"
                fill="#101010" />
        </g>
        <mask id="mask49_2012_81962" style="mask-type:luminance" maskUnits="userSpaceOnUse" x="95"
            y="19" width="38" height="20">
            <path d="M132.471 19.0754H95.8418V38.1508H132.471V19.0754Z" fill="white" />
        </mask>
        <g mask="url(#mask49_2012_81962)">
            <path
                d="M132.47 30.1099V38.152H122.66V37.7794C127.552 36.57 130.229 32.6838 131.505 30.1099H132.47Z"
                fill="#101010" />
            <path
                d="M132.47 11.0345V19.0767H122.66V18.7041C127.552 17.4947 130.229 13.6084 131.505 11.0345H132.47Z"
                fill="#101010" />
            <path
                d="M123.966 28.6144V28.9832C119.074 30.1964 116.393 34.0827 115.122 36.6528H114.156V28.6144H123.966Z"
                fill="#101010" />
            <path
                d="M114.156 20.5721V28.6143H104.346V28.2417C109.238 27.0323 111.914 23.146 113.19 20.5721H114.156Z"
                fill="#101010" />
            <path
                d="M105.652 19.0768V19.4456C100.76 20.6588 98.0786 24.5451 96.8072 27.1152H95.8418V19.0768H105.652Z"
                fill="#101010" />
        </g>
        <mask id="mask50_2012_81962" style="mask-type:luminance" maskUnits="userSpaceOnUse" x="95"
            y="38" width="38" height="20">
            <path d="M132.471 38.1508H95.8418V57.2261H132.471V38.1508Z" fill="white" />
        </mask>
        <g mask="url(#mask50_2012_81962)">
            <path
                d="M132.47 49.1851V57.2272H122.66V56.8546C127.552 55.6452 130.229 51.759 131.505 49.1851H132.47Z"
                fill="#101010" />
            <path
                d="M132.47 30.1097V38.1519H122.66V37.7793C127.552 36.5699 130.229 32.6836 131.505 30.1097H132.47Z"
                fill="#101010" />
            <path
                d="M123.966 47.6897V48.0585C119.074 49.2717 116.393 53.158 115.122 55.728H114.156V47.6897H123.966Z"
                fill="#101010" />
            <path
                d="M114.156 39.6475V47.6897H104.346V47.317C109.238 46.1077 111.914 42.2214 113.19 39.6475H114.156Z"
                fill="#101010" />
            <path
                d="M105.652 38.1519V38.5207C100.76 39.7339 98.0786 43.6201 96.8072 46.1902H95.8418V38.1519H105.652Z"
                fill="#101010" />
        </g>
        <mask id="mask51_2012_81962" style="mask-type:luminance" maskUnits="userSpaceOnUse" x="95"
            y="57" width="38" height="20">
            <path d="M132.471 57.2261H95.8418V76.3014H132.471V57.2261Z" fill="white" />
        </mask>
        <g mask="url(#mask51_2012_81962)">
            <path
                d="M132.47 68.2607V76.3028H122.66V75.9302C127.552 74.7209 130.229 70.8346 131.505 68.2607H132.47Z"
                fill="#101010" />
            <path
                d="M132.47 49.1852V57.2273H122.66V56.8547C127.552 55.6454 130.229 51.7591 131.505 49.1852H132.47Z"
                fill="#101010" />
            <path
                d="M123.966 66.765V67.1338C119.074 68.347 116.393 72.2333 115.122 74.8034H114.156V66.765H123.966Z"
                fill="#101010" />
            <path
                d="M114.156 58.7229V66.7651H104.346V66.3925C109.238 65.1831 111.914 61.2968 113.19 58.7229H114.156Z"
                fill="#101010" />
            <path
                d="M105.652 57.2275V57.5963C100.76 58.8095 98.0786 62.6957 96.8072 65.2658H95.8418V57.2275H105.652Z"
                fill="#101010" />
        </g>
        <mask id="mask52_2012_81962" style="mask-type:luminance" maskUnits="userSpaceOnUse" x="95"
            y="76" width="38" height="20">
            <path d="M132.471 76.3016H95.8418V95.3769H132.471V76.3016Z" fill="white" />
        </mask>
        <g mask="url(#mask52_2012_81962)">
            <path
                d="M132.47 87.3361V95.3783H122.66V95.0056C127.552 93.7963 130.229 89.91 131.505 87.3361H132.47Z"
                fill="#101010" />
            <path
                d="M132.47 68.2608V76.3029H122.66V75.9303C127.552 74.721 130.229 70.8347 131.505 68.2608H132.47Z"
                fill="#101010" />
            <path
                d="M123.966 85.84V86.2088C119.074 87.422 116.393 91.3083 115.122 93.8784H114.156V85.84H123.966Z"
                fill="#101010" />
            <path
                d="M114.156 77.7982V85.8403H104.346V85.4677C109.238 84.2584 111.914 80.3721 113.19 77.7982H114.156Z"
                fill="#101010" />
            <path
                d="M105.652 76.3029V76.6717C100.76 77.8849 98.0786 81.7712 96.8072 84.3413H95.8418V76.3029H105.652Z"
                fill="#101010" />
        </g>
        <mask id="mask53_2012_81962" style="mask-type:luminance" maskUnits="userSpaceOnUse" x="95"
            y="95" width="38" height="20">
            <path d="M132.471 95.3769H95.8418V114.452H132.471V95.3769Z" fill="white" />
        </mask>
        <g mask="url(#mask53_2012_81962)">
            <path
                d="M132.47 106.412V114.454H122.66V114.081C127.552 112.872 130.229 108.985 131.505 106.412H132.47Z"
                fill="#101010" />
            <path
                d="M132.47 87.3362V95.3784H122.66V95.0058C127.552 93.7964 130.229 89.9101 131.505 87.3362H132.47Z"
                fill="#101010" />
            <path
                d="M123.966 104.916V105.285C119.074 106.498 116.393 110.384 115.122 112.954H114.156V104.916H123.966Z"
                fill="#101010" />
            <path
                d="M114.156 96.8736V104.916H104.346V104.543C109.238 103.334 111.914 99.4475 113.19 96.8736H114.156Z"
                fill="#101010" />
            <path
                d="M105.652 95.378V95.7468C100.76 96.96 98.0786 100.846 96.8072 103.416H95.8418V95.378H105.652Z"
                fill="#101010" />
        </g>
        <mask id="mask54_2012_81962" style="mask-type:luminance" maskUnits="userSpaceOnUse" x="95"
            y="114" width="38" height="20">
            <path d="M132.471 114.452H95.8418V133.528H132.471V114.452Z" fill="white" />
        </mask>
        <g mask="url(#mask54_2012_81962)">
            <path
                d="M132.47 125.487V133.529H122.66V133.156C127.552 131.947 130.229 128.061 131.505 125.487H132.47Z"
                fill="#101010" />
            <path
                d="M132.47 106.411V114.454H122.66V114.081C127.552 112.872 130.229 108.985 131.505 106.411H132.47Z"
                fill="#101010" />
            <path
                d="M123.966 123.991V124.36C119.074 125.573 116.393 129.459 115.122 132.029H114.156V123.991H123.966Z"
                fill="#101010" />
            <path
                d="M114.156 115.949V123.991H104.346V123.619C109.238 122.409 111.914 118.523 113.19 115.949H114.156Z"
                fill="#101010" />
            <path
                d="M105.652 114.454V114.822C100.76 116.035 98.0786 119.922 96.8072 122.492H95.8418V114.454H105.652Z"
                fill="#101010" />
        </g>
        <mask id="mask55_2012_81962" style="mask-type:luminance" maskUnits="userSpaceOnUse" x="95"
            y="133" width="38" height="20">
            <path d="M132.471 133.528H95.8418V152.603H132.471V133.528Z" fill="white" />
        </mask>
        <g mask="url(#mask55_2012_81962)">
            <path
                d="M132.47 125.487V133.529H122.66V133.156C127.552 131.947 130.229 128.061 131.505 125.487H132.47Z"
                fill="#101010" />
            <path
                d="M114.156 135.024V143.066H104.346V142.694C109.238 141.484 111.914 137.598 113.19 135.024H114.156Z"
                fill="#101010" />
            <path
                d="M105.652 133.529V133.897C100.76 135.111 98.0786 138.997 96.8072 141.567H95.8418V133.529H105.652Z"
                fill="#101010" />
        </g>
        <mask id="mask56_2012_81962" style="mask-type:luminance" maskUnits="userSpaceOnUse" x="59"
            y="0" width="37" height="20">
            <path d="M95.842 0.00012207H59.2129V19.0755H95.842V0.00012207Z" fill="white" />
        </mask>
        <g mask="url(#mask56_2012_81962)">
            <path
                d="M95.8413 11.0344V19.0766H86.0312V18.704C90.9233 17.4946 93.5996 13.6083 94.876 11.0344H95.8413Z"
                fill="#101010" />
            <path
                d="M95.8413 -8.04089V0.00126839H86.0312V-0.371336C90.9233 -1.58071 93.5996 -5.46699 94.876 -8.04089H95.8413Z"
                fill="#101010" />
            <path
                d="M87.3374 9.53879V9.90758C82.4454 11.1208 79.7642 15.007 78.4927 17.5771H77.5273V9.53879H87.3374Z"
                fill="#101010" />
            <path
                d="M77.5269 1.49667V9.53884H67.7168V9.16623C72.6088 7.95685 75.2852 4.07057 76.5615 1.49667H77.5269Z"
                fill="#101010" />
            <path
                d="M69.023 0.00125122V0.370041C64.131 1.58323 61.4497 5.46951 60.1783 8.0396H59.2129V0.00125122H69.023Z"
                fill="#101010" />
        </g>
        <mask id="mask57_2012_81962" style="mask-type:luminance" maskUnits="userSpaceOnUse" x="59"
            y="19" width="37" height="20">
            <path d="M95.842 19.0754H59.2129V38.1508H95.842V19.0754Z" fill="white" />
        </mask>
        <g mask="url(#mask57_2012_81962)">
            <path
                d="M95.8413 30.1099V38.152H86.0312V37.7794C90.9233 36.57 93.5996 32.6838 94.876 30.1099H95.8413Z"
                fill="#101010" />
            <path
                d="M95.8413 11.0345V19.0767H86.0312V18.7041C90.9233 17.4947 93.5996 13.6084 94.876 11.0345H95.8413Z"
                fill="#101010" />
            <path
                d="M87.3374 28.6144V28.9832C82.4454 30.1964 79.7642 34.0827 78.4927 36.6528H77.5273V28.6144H87.3374Z"
                fill="#101010" />
            <path
                d="M77.5269 20.5721V28.6143H67.7168V28.2417C72.6088 27.0323 75.2852 23.146 76.5615 20.5721H77.5269Z"
                fill="#101010" />
            <path
                d="M69.023 19.0768V19.4456C64.131 20.6588 61.4497 24.5451 60.1783 27.1152H59.2129V19.0768H69.023Z"
                fill="#101010" />
        </g>
        <mask id="mask58_2012_81962" style="mask-type:luminance" maskUnits="userSpaceOnUse" x="59"
            y="38" width="37" height="20">
            <path d="M95.842 38.1508H59.2129V57.2261H95.842V38.1508Z" fill="white" />
        </mask>
        <g mask="url(#mask58_2012_81962)">
            <path
                d="M95.8413 49.1851V57.2272H86.0312V56.8546C90.9233 55.6452 93.5996 51.759 94.876 49.1851H95.8413Z"
                fill="#101010" />
            <path
                d="M95.8413 30.1097V38.1519H86.0312V37.7793C90.9233 36.5699 93.5996 32.6836 94.876 30.1097H95.8413Z"
                fill="#101010" />
            <path
                d="M87.3374 47.6897V48.0585C82.4454 49.2717 79.7642 53.158 78.4927 55.728H77.5273V47.6897H87.3374Z"
                fill="#101010" />
            <path
                d="M77.5269 39.6475V47.6897H67.7168V47.317C72.6088 46.1077 75.2852 42.2214 76.5615 39.6475H77.5269Z"
                fill="#101010" />
            <path
                d="M69.023 38.1519V38.5207C64.131 39.7339 61.4497 43.6201 60.1783 46.1902H59.2129V38.1519H69.023Z"
                fill="#101010" />
        </g>
        <mask id="mask59_2012_81962" style="mask-type:luminance" maskUnits="userSpaceOnUse" x="59"
            y="57" width="37" height="20">
            <path d="M95.842 57.2261H59.2129V76.3014H95.842V57.2261Z" fill="white" />
        </mask>
        <g mask="url(#mask59_2012_81962)">
            <path
                d="M95.8413 68.2607V76.3028H86.0312V75.9302C90.9233 74.7209 93.5996 70.8346 94.876 68.2607H95.8413Z"
                fill="#101010" />
            <path
                d="M95.8413 49.1852V57.2273H86.0312V56.8547C90.9233 55.6454 93.5996 51.7591 94.876 49.1852H95.8413Z"
                fill="#101010" />
            <path
                d="M87.3374 66.765V67.1338C82.4454 68.347 79.7642 72.2333 78.4927 74.8034H77.5273V66.765H87.3374Z"
                fill="#101010" />
            <path
                d="M77.5269 58.7229V66.7651H67.7168V66.3925C72.6088 65.1831 75.2852 61.2968 76.5615 58.7229H77.5269Z"
                fill="#101010" />
            <path
                d="M69.023 57.2275V57.5963C64.131 58.8095 61.4497 62.6957 60.1783 65.2658H59.2129V57.2275H69.023Z"
                fill="#101010" />
        </g>
        <mask id="mask60_2012_81962" style="mask-type:luminance" maskUnits="userSpaceOnUse" x="59"
            y="76" width="37" height="20">
            <path d="M95.842 76.3016H59.2129V95.3769H95.842V76.3016Z" fill="white" />
        </mask>
        <g mask="url(#mask60_2012_81962)">
            <path
                d="M95.8413 87.3361V95.3783H86.0312V95.0056C90.9233 93.7963 93.5996 89.91 94.876 87.3361H95.8413Z"
                fill="#101010" />
            <path
                d="M95.8413 68.2608V76.3029H86.0312V75.9303C90.9233 74.721 93.5996 70.8347 94.876 68.2608H95.8413Z"
                fill="#101010" />
            <path
                d="M87.3374 85.84V86.2088C82.4454 87.422 79.7642 91.3083 78.4927 93.8784H77.5273V85.84H87.3374Z"
                fill="#101010" />
            <path
                d="M77.5269 77.7982V85.8403H67.7168V85.4677C72.6088 84.2584 75.2852 80.3721 76.5615 77.7982H77.5269Z"
                fill="#101010" />
            <path
                d="M69.023 76.3029V76.6717C64.131 77.8849 61.4497 81.7712 60.1783 84.3413H59.2129V76.3029H69.023Z"
                fill="#101010" />
        </g>
        <mask id="mask61_2012_81962" style="mask-type:luminance" maskUnits="userSpaceOnUse" x="59"
            y="95" width="37" height="20">
            <path d="M95.842 95.3769H59.2129V114.452H95.842V95.3769Z" fill="white" />
        </mask>
        <g mask="url(#mask61_2012_81962)">
            <path
                d="M95.8413 106.412V114.454H86.0312V114.081C90.9233 112.872 93.5996 108.985 94.876 106.412H95.8413Z"
                fill="#101010" />
            <path
                d="M95.8413 87.3362V95.3784H86.0312V95.0058C90.9233 93.7964 93.5996 89.9101 94.876 87.3362H95.8413Z"
                fill="#101010" />
            <path
                d="M87.3374 104.916V105.285C82.4454 106.498 79.7642 110.384 78.4927 112.954H77.5273V104.916H87.3374Z"
                fill="#101010" />
            <path
                d="M77.5269 96.8736V104.916H67.7168V104.543C72.6088 103.334 75.2852 99.4475 76.5615 96.8736H77.5269Z"
                fill="#101010" />
            <path
                d="M69.023 95.378V95.7468C64.131 96.96 61.4497 100.846 60.1783 103.416H59.2129V95.378H69.023Z"
                fill="#101010" />
        </g>
        <mask id="mask62_2012_81962" style="mask-type:luminance" maskUnits="userSpaceOnUse" x="59"
            y="114" width="37" height="20">
            <path d="M95.842 114.452H59.2129V133.528H95.842V114.452Z" fill="white" />
        </mask>
        <g mask="url(#mask62_2012_81962)">
            <path
                d="M95.8413 125.487V133.529H86.0312V133.156C90.9233 131.947 93.5996 128.061 94.876 125.487H95.8413Z"
                fill="#101010" />
            <path
                d="M95.8413 106.411V114.454H86.0312V114.081C90.9233 112.872 93.5996 108.985 94.876 106.411H95.8413Z"
                fill="#101010" />
            <path
                d="M87.3374 123.991V124.36C82.4454 125.573 79.7642 129.459 78.4927 132.029H77.5273V123.991H87.3374Z"
                fill="#101010" />
            <path
                d="M77.5269 115.949V123.991H67.7168V123.619C72.6088 122.409 75.2852 118.523 76.5615 115.949H77.5269Z"
                fill="#101010" />
            <path
                d="M69.023 114.454V114.822C64.131 116.035 61.4497 119.922 60.1783 122.492H59.2129V114.454H69.023Z"
                fill="#101010" />
        </g>
        <mask id="mask63_2012_81962" style="mask-type:luminance" maskUnits="userSpaceOnUse" x="59"
            y="133" width="37" height="20">
            <path d="M95.842 133.528H59.2129V152.603H95.842V133.528Z" fill="white" />
        </mask>
        <g mask="url(#mask63_2012_81962)">
            <path
                d="M95.8413 125.487V133.529H86.0312V133.156C90.9233 131.947 93.5996 128.061 94.876 125.487H95.8413Z"
                fill="#101010" />
            <path
                d="M77.5269 135.024V143.066H67.7168V142.694C72.6088 141.484 75.2852 137.598 76.5615 135.024H77.5269Z"
                fill="#101010" />
            <path
                d="M69.023 133.529V133.897C64.131 135.111 61.4497 138.997 60.1783 141.567H59.2129V133.529H69.023Z"
                fill="#101010" />
        </g>
        <mask id="mask64_2012_81962" style="mask-type:luminance" maskUnits="userSpaceOnUse" x="22"
            y="0" width="38" height="20">
            <path d="M59.2131 0.00012207H22.584V19.0755H59.2131V0.00012207Z" fill="white" />
        </mask>
        <g mask="url(#mask64_2012_81962)">
            <path
                d="M59.2124 11.0344V19.0766H49.4023V18.704C54.2944 17.4946 56.9707 13.6083 58.2471 11.0344H59.2124Z"
                fill="#101010" />
            <path
                d="M59.2124 -8.04089V0.00126839H49.4023V-0.371336C54.2944 -1.58071 56.9707 -5.46699 58.2471 -8.04089H59.2124Z"
                fill="#101010" />
            <path
                d="M50.7085 9.53879V9.90758C45.8165 11.1208 43.1353 15.007 41.8638 17.5771H40.8984V9.53879H50.7085Z"
                fill="#101010" />
            <path
                d="M40.898 1.49667V9.53884H31.0879V9.16623C35.9799 7.95685 38.6563 4.07057 39.9326 1.49667H40.898Z"
                fill="#101010" />
            <path
                d="M32.3941 0.00125122V0.370041C27.5021 1.58323 24.8208 5.46951 23.5494 8.0396H22.584V0.00125122H32.3941Z"
                fill="#101010" />
        </g>
        <mask id="mask65_2012_81962" style="mask-type:luminance" maskUnits="userSpaceOnUse" x="22"
            y="19" width="38" height="20">
            <path d="M59.2131 19.0754H22.584V38.1508H59.2131V19.0754Z" fill="white" />
        </mask>
        <g mask="url(#mask65_2012_81962)">
            <path
                d="M59.2124 30.1099V38.152H49.4023V37.7794C54.2944 36.57 56.9707 32.6838 58.2471 30.1099H59.2124Z"
                fill="#101010" />
            <path
                d="M59.2124 11.0345V19.0767H49.4023V18.7041C54.2944 17.4947 56.9707 13.6084 58.2471 11.0345H59.2124Z"
                fill="#101010" />
            <path
                d="M50.7085 28.6144V28.9832C45.8165 30.1964 43.1353 34.0827 41.8638 36.6528H40.8984V28.6144H50.7085Z"
                fill="#101010" />
            <path
                d="M40.898 20.5721V28.6143H31.0879V28.2417C35.9799 27.0323 38.6563 23.146 39.9326 20.5721H40.898Z"
                fill="#101010" />
            <path
                d="M32.3941 19.0768V19.4456C27.5021 20.6588 24.8208 24.5451 23.5494 27.1152H22.584V19.0768H32.3941Z"
                fill="#101010" />
        </g>
        <mask id="mask66_2012_81962" style="mask-type:luminance" maskUnits="userSpaceOnUse" x="22"
            y="38" width="38" height="20">
            <path d="M59.2131 38.1508H22.584V57.2261H59.2131V38.1508Z" fill="white" />
        </mask>
        <g mask="url(#mask66_2012_81962)">
            <path
                d="M59.2124 49.1851V57.2272H49.4023V56.8546C54.2944 55.6452 56.9707 51.759 58.2471 49.1851H59.2124Z"
                fill="#101010" />
            <path
                d="M59.2124 30.1097V38.1519H49.4023V37.7793C54.2944 36.5699 56.9707 32.6836 58.2471 30.1097H59.2124Z"
                fill="#101010" />
            <path
                d="M50.7085 47.6897V48.0585C45.8165 49.2717 43.1353 53.158 41.8638 55.728H40.8984V47.6897H50.7085Z"
                fill="#101010" />
            <path
                d="M40.898 39.6475V47.6897H31.0879V47.317C35.9799 46.1077 38.6563 42.2214 39.9326 39.6475H40.898Z"
                fill="#101010" />
            <path
                d="M32.3941 38.1519V38.5207C27.5021 39.7339 24.8208 43.6201 23.5494 46.1902H22.584V38.1519H32.3941Z"
                fill="#101010" />
        </g>
        <mask id="mask67_2012_81962" style="mask-type:luminance" maskUnits="userSpaceOnUse" x="22"
            y="57" width="38" height="20">
            <path d="M59.2131 57.2261H22.584V76.3014H59.2131V57.2261Z" fill="white" />
        </mask>
        <g mask="url(#mask67_2012_81962)">
            <path
                d="M59.2124 68.2607V76.3028H49.4023V75.9302C54.2944 74.7209 56.9707 70.8346 58.2471 68.2607H59.2124Z"
                fill="#101010" />
            <path
                d="M59.2124 49.1852V57.2273H49.4023V56.8547C54.2944 55.6454 56.9707 51.7591 58.2471 49.1852H59.2124Z"
                fill="#101010" />
            <path
                d="M50.7085 66.765V67.1338C45.8165 68.347 43.1353 72.2333 41.8638 74.8034H40.8984V66.765H50.7085Z"
                fill="#101010" />
            <path
                d="M40.898 58.7229V66.7651H31.0879V66.3925C35.9799 65.1831 38.6563 61.2968 39.9326 58.7229H40.898Z"
                fill="#101010" />
            <path
                d="M32.3941 57.2275V57.5963C27.5021 58.8095 24.8208 62.6957 23.5494 65.2658H22.584V57.2275H32.3941Z"
                fill="#101010" />
        </g>
        <mask id="mask68_2012_81962" style="mask-type:luminance" maskUnits="userSpaceOnUse" x="22"
            y="76" width="38" height="20">
            <path d="M59.2131 76.3016H22.584V95.3769H59.2131V76.3016Z" fill="white" />
        </mask>
        <g mask="url(#mask68_2012_81962)">
            <path
                d="M59.2124 87.3361V95.3783H49.4023V95.0056C54.2944 93.7963 56.9707 89.91 58.2471 87.3361H59.2124Z"
                fill="#101010" />
            <path
                d="M59.2124 68.2608V76.3029H49.4023V75.9303C54.2944 74.721 56.9707 70.8347 58.2471 68.2608H59.2124Z"
                fill="#101010" />
            <path
                d="M50.7085 85.84V86.2088C45.8165 87.422 43.1353 91.3083 41.8638 93.8784H40.8984V85.84H50.7085Z"
                fill="#101010" />
            <path
                d="M40.898 77.7982V85.8403H31.0879V85.4677C35.9799 84.2584 38.6563 80.3721 39.9326 77.7982H40.898Z"
                fill="#101010" />
            <path
                d="M32.3941 76.3029V76.6717C27.5021 77.8849 24.8208 81.7712 23.5494 84.3413H22.584V76.3029H32.3941Z"
                fill="#101010" />
        </g>
        <mask id="mask69_2012_81962" style="mask-type:luminance" maskUnits="userSpaceOnUse" x="22"
            y="95" width="38" height="20">
            <path d="M59.2131 95.3769H22.584V114.452H59.2131V95.3769Z" fill="white" />
        </mask>
        <g mask="url(#mask69_2012_81962)">
            <path
                d="M59.2124 106.412V114.454H49.4023V114.081C54.2944 112.872 56.9707 108.985 58.2471 106.412H59.2124Z"
                fill="#101010" />
            <path
                d="M59.2124 87.3362V95.3784H49.4023V95.0058C54.2944 93.7964 56.9707 89.9101 58.2471 87.3362H59.2124Z"
                fill="#101010" />
            <path
                d="M50.7085 104.916V105.285C45.8165 106.498 43.1353 110.384 41.8638 112.954H40.8984V104.916H50.7085Z"
                fill="#101010" />
            <path
                d="M40.898 96.8736V104.916H31.0879V104.543C35.9799 103.334 38.6563 99.4475 39.9326 96.8736H40.898Z"
                fill="#101010" />
            <path
                d="M32.3941 95.378V95.7468C27.5021 96.96 24.8208 100.846 23.5494 103.416H22.584V95.378H32.3941Z"
                fill="#101010" />
        </g>
        <mask id="mask70_2012_81962" style="mask-type:luminance" maskUnits="userSpaceOnUse" x="22"
            y="114" width="38" height="20">
            <path d="M59.2131 114.452H22.584V133.528H59.2131V114.452Z" fill="white" />
        </mask>
        <g mask="url(#mask70_2012_81962)">
            <path
                d="M59.2124 125.487V133.529H49.4023V133.156C54.2944 131.947 56.9707 128.061 58.2471 125.487H59.2124Z"
                fill="#101010" />
            <path
                d="M59.2124 106.411V114.454H49.4023V114.081C54.2944 112.872 56.9707 108.985 58.2471 106.411H59.2124Z"
                fill="#101010" />
            <path
                d="M50.7085 123.991V124.36C45.8165 125.573 43.1353 129.459 41.8638 132.029H40.8984V123.991H50.7085Z"
                fill="#101010" />
            <path
                d="M40.898 115.949V123.991H31.0879V123.619C35.9799 122.409 38.6563 118.523 39.9326 115.949H40.898Z"
                fill="#101010" />
            <path
                d="M32.3941 114.454V114.822C27.5021 116.035 24.8208 119.922 23.5494 122.492H22.584V114.454H32.3941Z"
                fill="#101010" />
        </g>
        <mask id="mask71_2012_81962" style="mask-type:luminance" maskUnits="userSpaceOnUse" x="22"
            y="133" width="38" height="20">
            <path d="M59.2131 133.528H22.584V152.603H59.2131V133.528Z" fill="white" />
        </mask>
        <g mask="url(#mask71_2012_81962)">
            <path
                d="M59.2124 125.487V133.529H49.4023V133.156C54.2944 131.947 56.9707 128.061 58.2471 125.487H59.2124Z"
                fill="#101010" />
            <path
                d="M40.898 135.024V143.066H31.0879V142.694C35.9799 141.484 38.6563 137.598 39.9326 135.024H40.898Z"
                fill="#101010" />
            <path
                d="M32.3941 133.529V133.897C27.5021 135.111 24.8208 138.997 23.5494 141.567H22.584V133.529H32.3941Z"
                fill="#101010" />
        </g>
        <mask id="mask72_2012_81962" style="mask-type:luminance" maskUnits="userSpaceOnUse" x="-15"
            y="0" width="38" height="20">
            <path d="M22.5842 6.10352e-05H-14.0449V19.0754H22.5842V6.10352e-05Z" fill="white" />
        </mask>
        <g mask="url(#mask72_2012_81962)">
            <path
                d="M22.5835 11.0344V19.0765H12.7734V18.7039C17.6655 17.4945 20.3418 13.6083 21.6181 11.0344H22.5835Z"
                fill="#101010" />
            <path
                d="M22.5835 -8.04095V0.00120735H12.7734V-0.371397C17.6655 -1.58077 20.3418 -5.46706 21.6181 -8.04095H22.5835Z"
                fill="#101010" />
            <path
                d="M14.0796 9.53873V9.90752C9.1876 11.1207 6.50635 15.007 5.23491 17.5771H4.26953V9.53873H14.0796Z"
                fill="#101010" />
            <path
                d="M4.26908 1.49661V9.53877H-5.54102V9.16617C-0.648994 7.95679 2.02737 4.07051 3.30369 1.49661H4.26908Z"
                fill="#101010" />
        </g>
        <mask id="mask73_2012_81962" style="mask-type:luminance" maskUnits="userSpaceOnUse" x="-15"
            y="19" width="38" height="20">
            <path d="M22.5842 19.0754H-14.0449V38.1508H22.5842V19.0754Z" fill="white" />
        </mask>
        <g mask="url(#mask73_2012_81962)">
            <path
                d="M22.5835 30.1099V38.152H12.7734V37.7794C17.6655 36.57 20.3418 32.6838 21.6181 30.1099H22.5835Z"
                fill="#101010" />
            <path
                d="M22.5835 11.0345V19.0767H12.7734V18.7041C17.6655 17.4947 20.3418 13.6084 21.6181 11.0345H22.5835Z"
                fill="#101010" />
            <path
                d="M14.0796 28.6144V28.9832C9.1876 30.1964 6.50635 34.0827 5.23491 36.6528H4.26953V28.6144H14.0796Z"
                fill="#101010" />
            <path
                d="M4.26908 20.5721V28.6143H-5.54102V28.2417C-0.648994 27.0323 2.02737 23.146 3.30369 20.5721H4.26908Z"
                fill="#101010" />
        </g>
        <mask id="mask74_2012_81962" style="mask-type:luminance" maskUnits="userSpaceOnUse" x="-15"
            y="38" width="38" height="20">
            <path d="M22.5842 38.1508H-14.0449V57.2261H22.5842V38.1508Z" fill="white" />
        </mask>
        <g mask="url(#mask74_2012_81962)">
            <path
                d="M22.5835 49.1851V57.2272H12.7734V56.8546C17.6655 55.6452 20.3418 51.759 21.6181 49.1851H22.5835Z"
                fill="#101010" />
            <path
                d="M22.5835 30.1097V38.1519H12.7734V37.7793C17.6655 36.5699 20.3418 32.6836 21.6181 30.1097H22.5835Z"
                fill="#101010" />
            <path
                d="M14.0796 47.6897V48.0585C9.1876 49.2717 6.50635 53.158 5.23491 55.728H4.26953V47.6897H14.0796Z"
                fill="#101010" />
            <path
                d="M4.26908 39.6475V47.6897H-5.54102V47.317C-0.648994 46.1077 2.02737 42.2214 3.30369 39.6475H4.26908Z"
                fill="#101010" />
        </g>
        <mask id="mask75_2012_81962" style="mask-type:luminance" maskUnits="userSpaceOnUse" x="-15"
            y="57" width="38" height="20">
            <path d="M22.5842 57.2261H-14.0449V76.3014H22.5842V57.2261Z" fill="white" />
        </mask>
        <g mask="url(#mask75_2012_81962)">
            <path
                d="M22.5835 68.2607V76.3028H12.7734V75.9302C17.6655 74.7209 20.3418 70.8346 21.6181 68.2607H22.5835Z"
                fill="#101010" />
            <path
                d="M22.5835 49.1852V57.2273H12.7734V56.8547C17.6655 55.6454 20.3418 51.7591 21.6181 49.1852H22.5835Z"
                fill="#101010" />
            <path
                d="M14.0796 66.765V67.1338C9.1876 68.347 6.50635 72.2333 5.23491 74.8034H4.26953V66.765H14.0796Z"
                fill="#101010" />
            <path
                d="M4.26908 58.7229V66.7651H-5.54102V66.3925C-0.648994 65.1831 2.02737 61.2968 3.30369 58.7229H4.26908Z"
                fill="#101010" />
        </g>
        <mask id="mask76_2012_81962" style="mask-type:luminance" maskUnits="userSpaceOnUse" x="-15"
            y="76" width="38" height="20">
            <path d="M22.5842 76.3016H-14.0449V95.3769H22.5842V76.3016Z" fill="white" />
        </mask>
        <g mask="url(#mask76_2012_81962)">
            <path
                d="M22.5835 87.3361V95.3783H12.7734V95.0056C17.6655 93.7963 20.3418 89.91 21.6181 87.3361H22.5835Z"
                fill="#101010" />
            <path
                d="M22.5835 68.2608V76.3029H12.7734V75.9303C17.6655 74.721 20.3418 70.8347 21.6181 68.2608H22.5835Z"
                fill="#101010" />
            <path
                d="M14.0796 85.84V86.2088C9.1876 87.422 6.50635 91.3083 5.23491 93.8784H4.26953V85.84H14.0796Z"
                fill="#101010" />
            <path
                d="M4.26908 77.7982V85.8403H-5.54102V85.4677C-0.648994 84.2584 2.02737 80.3721 3.30369 77.7982H4.26908Z"
                fill="#101010" />
        </g>
        <mask id="mask77_2012_81962" style="mask-type:luminance" maskUnits="userSpaceOnUse" x="-15"
            y="95" width="38" height="20">
            <path d="M22.5842 95.3769H-14.0449V114.452H22.5842V95.3769Z" fill="white" />
        </mask>
        <g mask="url(#mask77_2012_81962)">
            <path
                d="M22.5835 106.412V114.454H12.7734V114.081C17.6655 112.872 20.3418 108.985 21.6181 106.412H22.5835Z"
                fill="#101010" />
            <path
                d="M22.5835 87.3362V95.3784H12.7734V95.0058C17.6655 93.7964 20.3418 89.9101 21.6181 87.3362H22.5835Z"
                fill="#101010" />
            <path
                d="M14.0796 104.916V105.285C9.1876 106.498 6.50635 110.384 5.23491 112.954H4.26953V104.916H14.0796Z"
                fill="#101010" />
            <path
                d="M4.26908 96.8736V104.916H-5.54102V104.543C-0.648994 103.334 2.02737 99.4475 3.30369 96.8736H4.26908Z"
                fill="#101010" />
        </g>
        <mask id="mask78_2012_81962" style="mask-type:luminance" maskUnits="userSpaceOnUse" x="-15"
            y="114" width="38" height="20">
            <path d="M22.5842 114.452H-14.0449V133.528H22.5842V114.452Z" fill="white" />
        </mask>
        <g mask="url(#mask78_2012_81962)">
            <path
                d="M22.5835 125.487V133.529H12.7734V133.156C17.6655 131.947 20.3418 128.061 21.6181 125.487H22.5835Z"
                fill="#101010" />
            <path
                d="M22.5835 106.411V114.454H12.7734V114.081C17.6655 112.872 20.3418 108.985 21.6181 106.411H22.5835Z"
                fill="#101010" />
            <path
                d="M14.0796 123.991V124.36C9.1876 125.573 6.50635 129.459 5.23491 132.029H4.26953V123.991H14.0796Z"
                fill="#101010" />
            <path
                d="M4.26908 115.949V123.991H-5.54102V123.619C-0.648994 122.409 2.02737 118.523 3.30369 115.949H4.26908Z"
                fill="#101010" />
        </g>
        <mask id="mask79_2012_81962" style="mask-type:luminance" maskUnits="userSpaceOnUse" x="-15"
            y="133" width="38" height="20">
            <path d="M22.5842 133.528H-14.0449V152.603H22.5842V133.528Z" fill="white" />
        </mask>
        <g mask="url(#mask79_2012_81962)">
            <path
                d="M22.5835 125.487V133.529H12.7734V133.156C17.6655 131.947 20.3418 128.061 21.6181 125.487H22.5835Z"
                fill="#101010" />
            <path
                d="M4.26908 135.024V143.066H-5.54102V142.694C-0.648994 141.484 2.02737 137.598 3.30369 135.024H4.26908Z"
                fill="#101010" />
        </g>
    </g>
</svg>