<svg xmlns="http://www.w3.org/2000/svg" width="334" height="164" viewBox="0 0 334 164" fill="none">
    <g opacity="0.27">
        <mask id="mask0_2012_78685" style="mask-type:alpha" maskUnits="userSpaceOnUse" x="-153"
            y="-254" width="692" height="440">
            <rect x="-153" y="-254" width="691.429" height="440" rx="25"
                fill="url(#paint0_linear_2012_78685)" />
        </mask>
        <g mask="url(#mask0_2012_78685)">
            <path
                d="M109.52 258.152L177.668 109.447H185.685L139.357 209.481H172.356L113.994 267.844L109.52 258.152Z"
                fill="#191A1E" />
            <path
                d="M103.118 277.266L117.132 307.83H125.154L108.962 272.874L105.853 266.151L78.8264 207.801H111.814L44.0701 140.051L40.1934 139.975L101.935 274.678L103.118 277.266Z"
                fill="#191A1E" />
            <path
                d="M108.963 388.797L236.82 260.933H174.558L261.984 72.1544H246.846L101.654 388.943L108.963 388.797Z"
                fill="#191A1E" />
            <path
                d="M-65.8341 151.084L87.5034 94.1209L93.178 99.7897L-10.3177 137.767L13.019 161.104H-69.5176L-65.8341 151.084Z"
                fill="#191A1E" />
            <path
                d="M-158.601 243.066H22.2198L-21.8067 199.04L173.496 127.372L162.797 116.667L-163.871 238.006L-158.601 243.066Z"
                fill="#191A1E" />
            <path
                d="M-114.111 -48.6109L34.5945 19.5371V27.5542L-65.4345 -18.7738V14.2256L-123.803 -44.1368L-114.111 -48.6109Z"
                fill="#191A1E" />
            <path
                d="M-244.75 -49.1674L-116.893 78.69V16.4274L71.8862 103.848V88.7157L-244.902 -56.4758L-244.75 -49.1674Z"
                fill="#191A1E" />
            <path
                d="M-99.0254 -316.729V-135.909L-54.9989 -179.936L16.6687 15.3672L27.3738 4.66797L-93.9657 -322L-99.0254 -316.729Z"
                fill="#191A1E" />
            <path
                d="M192.657 -136.431L124.509 12.2743H116.486L162.814 -87.7546H129.815L188.177 -146.123L192.657 -136.431Z"
                fill="#191A1E" />
            <path
                d="M193.215 -267.069L65.3514 -139.212H127.614L40.1934 49.567H55.3257L200.517 -267.222L193.215 -267.069Z"
                fill="#191A1E" />
            <path
                d="M368.002 24.961L214.665 81.9238L208.996 76.255L312.486 38.2779L289.149 14.9411H371.692L368.002 24.961Z"
                fill="#191A1E" />
            <path
                d="M386.04 15.9717L397.746 -15.552L392.078 -21.2207L378.802 14.941L376.254 21.8981L354.1 82.2692L330.77 58.9383V154.751L333.457 157.544L385.05 18.6362L386.04 15.9717Z"
                fill="#191A1E" />
            <path
                d="M460.776 -67.0215H279.95L323.977 -22.995L128.674 48.6726L139.373 59.3776L466.047 -61.9618L460.776 -67.0215Z"
                fill="#191A1E" />
            <path
                d="M416.287 34.5291L267.576 -33.619V-41.6419L367.611 4.6861V-28.3133L425.973 30.0491L416.287 34.5291Z"
                fill="#191A1E" />
            <path
                d="M435.395 40.9236L465.958 26.9098V18.8928L431.003 35.0792L424.286 38.1947L365.93 65.2149V32.2272L298.18 99.9771L298.104 103.848L432.807 42.1066L435.395 40.9236Z"
                fill="#191A1E" />
            <path
                d="M546.925 35.085L419.062 -92.7783V-30.5156L230.283 -117.936V-102.804L547.072 42.3876L546.925 35.085Z"
                fill="#191A1E" />
            <path
                d="M309.213 209.874L252.25 56.5362L257.919 50.8674L295.896 154.357L319.233 131.021V213.563L309.213 209.874Z"
                fill="#191A1E" />
            <path
                d="M401.194 302.647V121.826L357.173 165.847L285.5 -29.4557L274.801 -18.7565L396.14 307.917L401.194 302.647Z"
                fill="#191A1E" />
        </g>
    </g>
    <defs>
        <linearGradient id="paint0_linear_2012_78685" x1="786.086" y1="-421.2" x2="-183.8"
            y2="177.2" gradientUnits="userSpaceOnUse">
            <stop stop-color="#2D2F36" />
            <stop offset="1" />
        </linearGradient>
    </defs>
</svg>