<svg width="457" height="221" viewBox="0 0 457 221" fill="none" xmlns="http://www.w3.org/2000/svg">
    <path
        d="M178.018 318.549L228.647 201.892H234.605L200.194 280.364H224.712L181.347 326.153L178.018 318.549Z"
        fill="#91E2FD" />
    <path
        d="M177.604 421.043L272.603 320.736H226.338L291.29 172.639H280.058L172.172 421.161L177.604 421.043Z"
        fill="#91E2FD" />
    <path
        d="M47.7362 234.559L161.661 189.864L165.882 194.322L88.9822 224.113L106.331 242.415H44.9961L47.7362 234.559Z"
        fill="#91E2FD" />
    <path
        d="M34.3372 241.608L25.6387 266.335L29.8445 270.793L39.706 242.415L41.6018 236.965L58.0588 189.595L75.3919 207.897V132.738L73.4005 130.535L35.0699 239.522L34.3372 241.608Z"
        fill="#91E2FD" />
    <path
        d="M-21.2003 306.724H113.148L80.441 272.172L225.559 215.954L217.609 207.561L-25.1035 302.754L-21.2003 306.724Z"
        fill="#91E2FD" />
    <path
        d="M11.8553 77.8834L122.354 131.359V137.65L48.0191 101.299V127.187L4.6543 81.3992L11.8553 77.8834Z"
        fill="#91E2FD" />
    <path
        d="M-2.33867 72.8705L-25.0566 83.8717V90.163L0.927216 77.4627L5.9137 75.0068L49.2786 53.8116V79.7L99.6054 26.544L99.6691 23.4992L-0.410954 71.9453L-2.33867 72.8705Z"
        fill="#91E2FD" />
    <path
        d="M-85.1971 77.4459L9.80091 177.77V128.92L150.06 197.501V185.625L-85.3086 71.7267L-85.1971 77.4459Z"
        fill="#91E2FD" />
    <path
        d="M91.4165 -59.6664L133.73 60.6245L129.524 65.0654L101.31 -16.1155L83.9766 2.18641V-62.5598L91.4165 -59.6664Z"
        fill="#91E2FD" />
    <path
        d="M23.0723 -132.453V9.40286L55.7791 -25.1318L109.037 128.079L116.987 119.685L26.832 -136.591L23.0723 -132.453Z"
        fill="#91E2FD" />
    <path
        d="M239.783 -97.5486L189.154 19.1088H183.195L217.623 -59.3637H193.105L236.453 -105.152L239.783 -97.5486Z"
        fill="#91E2FD" />
    <path
        d="M240.197 -200.042L145.199 -99.7355H191.463L126.512 48.3783H137.743L245.63 -200.16L240.197 -200.042Z"
        fill="#91E2FD" />
    <path
        d="M370.07 -13.5586L256.146 31.1363L251.924 26.6954L328.824 -3.11238L311.491 -21.4142H372.81L370.07 -13.5586Z"
        fill="#91E2FD" />
    <path
        d="M383.469 -20.6068L392.167 -45.3345L387.961 -49.7922L378.1 -21.4142L376.204 -15.964L359.747 31.4054L342.414 13.1036V88.2623L344.405 90.466L382.736 -18.5209L383.469 -20.6068Z"
        fill="#91E2FD" />
    <path
        d="M439.005 -85.7231H304.657L337.364 -51.1716L192.246 5.04604L200.196 13.44L442.908 -81.7531L439.005 -85.7231Z"
        fill="#91E2FD" />
    <path
        d="M405.946 143.117L295.447 89.6584V83.3672L369.783 119.702V93.8134L413.147 139.602L405.946 143.117Z"
        fill="#91E2FD" />
    <path
        d="M420.144 148.13L442.862 137.146V130.854L416.879 143.555L411.892 145.994L368.527 167.189V141.318L318.2 194.457L318.137 197.501L418.217 149.055L420.144 148.13Z"
        fill="#91E2FD" />
    <path
        d="M503.001 143.555L408.003 43.2477V92.0807L267.744 23.4991V35.3753L503.112 149.274L503.001 143.555Z"
        fill="#91E2FD" />
    <path
        d="M326.386 280.684L284.072 160.376L288.278 155.935L316.492 237.116L333.826 218.814V283.577L326.386 280.684Z"
        fill="#91E2FD" />
    <path
        d="M394.731 353.454V211.598L362.024 246.133L308.766 92.922L300.816 101.316L390.971 357.592L394.731 353.454Z"
        fill="#91E2FD" />
</svg>
    