<svg width="142" height="30" viewBox="0 0 142 30" fill="none" xmlns="http://www.w3.org/2000/svg">
<g clip-path="url(#clip0_295_10037)">
<path d="M12.0196 0H17.627C22.5808 0.927083 26.8892 4.71875 28.6118 9.59583C30.649 14.6979 29.471 20.8479 26.0037 24.9854C23.8314 27.5167 20.8724 29.3854 17.633 30H12.0236C8.44133 29.3521 5.16767 27.1854 2.99531 24.1896C1.36151 21.9667 0.369119 19.2833 0 16.5292V14.0708C0.252131 10.7063 1.51682 7.39375 3.7154 4.87708C5.88574 2.40208 8.81852 0.58125 12.0196 0ZM14.1697 5.23542C13.9156 6.07917 13.7522 6.95 13.5545 7.8125C12.4956 7.71667 11.5456 7.13542 10.4886 7.02083C9.98236 7.35833 10.0086 8.16042 9.87949 8.72708C10.527 8.97708 11.5415 8.92292 11.7392 9.78333C11.2733 12.0812 10.7024 14.3583 10.2103 16.6542C10.0711 17.1292 9.99244 17.7771 9.47204 17.9708C8.96778 17.9083 8.46756 17.8062 7.96329 17.7563C7.70713 18.3771 7.43281 18.9958 7.29364 19.6583C8.09642 19.8333 8.89719 20.025 9.69997 20.2042C9.93395 20.3 10.3999 20.2604 10.3757 20.6375C10.2889 21.4708 9.91983 22.25 9.86133 23.0938C10.182 23.5042 10.8457 23.3958 11.3076 23.5792C11.7594 22.7667 11.7493 21.7937 12.0902 20.9354C12.5339 21.0062 12.9716 21.1083 13.4073 21.2083C13.3327 22.1917 12.7881 23.0625 12.7397 24.0521C13.258 24.1708 13.7764 24.2875 14.3029 24.3521C14.5853 23.4833 14.7164 22.575 14.9806 21.7021C16.3603 21.7146 17.8448 22.1062 19.1357 21.4271C20.3883 20.7771 20.8805 19.2625 21.0237 17.9146C21.0822 16.7542 20.2068 15.9354 19.41 15.2729C20.467 14.9208 21.3625 13.9062 21.3182 12.7167C21.306 12.0896 21.417 11.3562 20.9611 10.8562C20.2753 9.88125 19.1478 9.47917 18.1595 8.93542C18.2825 8.02292 18.5709 7.14583 18.6839 6.23333C18.1958 6.01458 17.6875 5.85 17.1711 5.72917C16.9109 6.6375 16.7092 7.56667 16.3562 8.44375C15.971 8.36042 15.5897 8.26042 15.2146 8.14375C15.3477 7.22708 15.6906 6.35417 15.7531 5.425C15.2408 5.35625 14.6437 4.97083 14.1697 5.23542Z" fill="#1B1C1E"/>
<path d="M14.6316 10.2417C15.9972 10.2813 17.6411 10.775 18.2321 12.1771C18.337 13.0271 17.5664 13.9021 16.7334 13.8813C15.7894 13.9459 14.8414 13.8167 13.9559 13.4729C14.1556 12.3896 14.4925 11.3375 14.6316 10.2417Z" fill="#1B1C1E"/>
<path d="M13.5223 15.2396C14.6841 15.3646 15.7874 15.8292 16.8201 16.3709C17.8912 16.9042 17.8811 18.673 16.8443 19.2313C15.4606 19.6855 13.9539 19.2584 12.6328 18.7688C12.895 17.5834 13.2843 16.4313 13.5223 15.2396Z" fill="#1B1C1E"/>
<path d="M41.061 0H42.5717C41.8033 2.52917 41.3676 5.14792 40.7302 7.7125C40.5628 8.38125 40.2844 9.03333 40.2844 9.7375C43.0357 8.28333 46.8439 8.91042 48.7419 11.5292C50.055 13.2667 50.3939 15.5583 50.3394 17.7062C50.2527 22.1375 47.8161 26.45 44.0724 28.6375C43.076 29.2833 41.9465 29.6479 40.829 30H34.4148C33.017 29.7562 31.6051 29.4542 30.3444 28.7562C31.0786 24.8854 32.1577 21.0896 32.9827 17.2375C34.0598 11.9583 35.502 6.77083 36.5529 1.48542C36.6376 1.13333 36.6779 0.616667 37.1358 0.6C38.4328 0.33125 39.7539 0.202083 41.061 0ZM39.0782 14.9083C38.58 17.4146 37.8297 19.8604 37.3617 22.375C37.2024 23.3979 36.7143 24.3542 36.7264 25.4042C38.3521 25.7313 40.117 25.4854 41.5148 24.5354C43.4048 23.1021 44.6554 20.7771 44.726 18.3438C44.7542 17.1938 44.7885 15.975 44.2439 14.9312C43.9131 14.2062 43.1446 13.7479 42.3741 13.7937C41.2143 13.7333 39.8245 13.8729 39.0782 14.9083Z" fill="#1B1C1E"/>
<path d="M58.5871 0.33539C59.5129 0.00413973 60.5759 0.0499731 61.4654 0.47914C62.1996 0.908306 62.8451 1.65622 62.8834 2.56456C63.192 4.77289 61.2496 6.96872 59.0994 6.89372C58.1615 6.89581 57.1288 6.57497 56.5519 5.76247C55.9811 5.02289 56.1182 4.00414 56.1727 3.12497C56.4228 1.83956 57.4233 0.802056 58.5871 0.33539Z" fill="#1B1C1E"/>
<path d="M120.48 0.270832C121.813 -0.131251 123.453 0.235415 124.256 1.47917C124.96 2.82917 124.619 4.66667 123.473 5.65208C122.162 7.3625 119.104 7.37292 118.015 5.4125C117.053 3.375 118.516 0.910416 120.48 0.270832Z" fill="#1B1C1E"/>
<path d="M66.0038 4.28126C67.8978 4.09376 69.7555 3.66459 71.6475 3.46667C71.3267 5.48751 70.6833 7.44167 70.4231 9.47084C72.4119 9.46459 74.4007 9.42501 76.3895 9.48542C76.2282 11.0188 75.7743 12.4979 75.4314 13.9958C73.3841 14.1521 71.3268 14.0229 69.2754 14.0563C68.6562 16.8896 67.8514 19.6833 67.3612 22.5458C67.1999 23.5063 67.454 24.7875 68.4565 25.1396C70.1246 25.6354 71.8572 25.1771 73.5031 24.8063C73.5294 26.2938 73.8521 27.7625 73.7573 29.2542C72.8052 29.5375 71.8492 29.8021 70.879 30H66.0643C63.9625 29.7333 62.0907 27.9938 61.8224 25.7896C61.534 23.0938 62.1815 20.4167 62.8531 17.8333C63.196 16.2229 63.5591 14.6167 63.9867 13.0271C64.5898 10.0958 65.2958 7.18751 66.0038 4.28126Z" fill="#1B1C1E"/>
<path d="M81.1215 11.0896C83.195 9.50832 85.8011 8.85623 88.3466 8.8479C90.0954 8.8479 91.8744 9.2229 93.4275 10.0562C93.4154 10.4458 93.2077 10.7917 93.0725 11.1458C92.5723 12.25 92.2213 13.4292 91.5839 14.4646C89.819 13.7229 87.8141 13.4333 85.9725 14.0417C84.6655 14.5792 83.5198 15.5896 82.9328 16.925C82.0635 18.6125 81.9162 20.5979 82.1805 22.4625C82.3943 23.6562 83.1224 24.9146 84.3528 25.1792C86.1964 25.5833 88.0985 25.2312 89.8654 24.6375C89.8553 26.1812 90.2608 27.7437 90.0712 29.2687C89.2926 29.6167 88.4555 29.7937 87.6346 30H82.1966C80.6717 29.6104 79.2114 28.8125 78.1887 27.5583C76.6578 25.8104 76.2847 23.3187 76.323 21.0417C76.3916 17.2292 78.0718 13.3354 81.1215 11.0896Z" fill="#1B1C1E"/>
<path d="M99.2346 10.1958C100.901 9.08958 102.948 8.79167 104.894 8.86875C106.579 9.05208 108.342 9.525 109.622 10.7354C111.044 12.0958 111.787 14.075 111.958 16.0417C112.279 19.9271 111.111 24.0063 108.519 26.8875C107.119 28.3729 105.372 29.6083 103.372 30H98.339C97.4233 29.6625 96.5075 29.2625 95.7693 28.5938C94.2121 27.3208 93.4699 25.2729 93.2198 23.2958C92.7316 18.2708 94.9 12.7813 99.2346 10.1958ZM102.547 13.8813C101.173 14.4292 100.193 15.7042 99.5734 17.0417C99.0692 18.3083 98.6557 19.6542 98.7182 21.0396C98.6597 22.3021 98.7626 23.6625 99.5311 24.7021C100.296 25.4729 101.478 25.4104 102.456 25.2417C103.809 24.9188 104.642 23.6729 105.342 22.5354C106.093 21.0583 106.51 19.3833 106.425 17.7083C106.482 16.4854 106.29 15.1375 105.411 14.2417C104.62 13.5708 103.482 13.6396 102.547 13.8813Z" fill="#1B1C1E"/>
<path d="M126.769 10.3146C128.514 9.76876 130.269 9.16251 132.102 9.05001C133.319 9.03751 134.533 8.8021 135.745 9.00002C137.377 8.99585 139.033 9.61877 140.197 10.8188C141.78 12.6771 142.036 15.3333 141.556 17.6792C140.971 20.2958 140.439 22.9292 139.727 25.5146C139.396 26.8792 139.194 28.2792 138.807 29.6292C138.579 29.8229 138.244 29.7021 137.976 29.7438C136.368 29.7146 134.759 29.7708 133.153 29.7104C133.887 27.475 134.156 25.1146 134.825 22.8604C135.219 21.275 135.523 19.6688 135.868 18.0729C136.078 17.1708 136.138 16.2229 136.017 15.3042C135.787 14.5458 135.136 13.8479 134.333 13.8125C133.442 13.7729 132.54 13.7646 131.661 13.9125C131.293 14.0063 131.364 14.4833 131.251 14.7688C130.467 18.6813 129.424 22.5333 128.617 26.4396C128.361 27.5396 128.078 28.6313 127.81 29.725C125.96 29.7417 124.111 29.7458 122.261 29.7229C122.923 26.5833 123.762 23.4813 124.432 20.3396C124.732 19.0958 124.972 17.8354 125.339 16.6083C125.872 14.525 126.192 12.3875 126.769 10.3146Z" fill="#1B1C1E"/>
<path d="M55.4788 9.57505L55.6563 9.4813C57.4212 9.43339 59.1902 9.45005 60.9551 9.4813C60.5678 11.623 60.0878 13.7521 59.5654 15.8646C58.5508 20.4917 57.4232 25.0938 56.3925 29.7188C54.5449 29.7521 52.6973 29.7396 50.8497 29.7251C50.9223 28.9584 51.1563 28.2251 51.362 27.4896C52.0216 24.7938 52.4795 22.0438 53.2258 19.373C53.9075 16.0896 54.6902 12.8292 55.4788 9.57505Z" fill="#1B1C1E"/>
<path d="M116.972 10.1896C117.063 9.94792 117.021 9.43959 117.398 9.48125C119.171 9.44167 120.952 9.43125 122.727 9.49375C122.616 10.7542 122.08 11.9104 121.88 13.1521C120.69 18.6917 119.244 24.1688 118.1 29.7188C116.258 29.7521 114.417 29.7354 112.577 29.7313C112.61 29.375 112.636 29.0188 112.717 28.6708C113.435 26.1104 113.896 23.4833 114.506 20.8938C115.153 18.575 115.571 16.1938 116.141 13.8521C116.47 12.6438 116.747 11.4229 116.972 10.1896Z" fill="#1B1C1E"/>
<path d="M14.1697 5.23547C14.6438 4.97088 15.2408 5.3563 15.7531 5.42505C15.6906 6.35422 15.3477 7.22713 15.2146 8.1438C15.5897 8.26047 15.971 8.36047 16.3562 8.4438C16.7092 7.56672 16.9109 6.63755 17.1711 5.72922C17.6875 5.85005 18.1958 6.01463 18.6839 6.23338C18.5709 7.14588 18.2825 8.02297 18.1595 8.93547C19.1478 9.47922 20.2753 9.8813 20.9611 10.8563C21.417 11.3563 21.3061 12.0896 21.3182 12.7167C21.3625 13.9063 20.467 14.9209 19.41 15.273C20.2068 15.9355 21.0822 16.7542 21.0237 17.9146C20.8805 19.2625 20.3883 20.7771 19.1357 21.4271C17.8448 22.1063 16.3603 21.7146 14.9806 21.7021C14.7164 22.575 14.5853 23.4834 14.3029 24.3521C13.7764 24.2875 13.258 24.1709 12.7397 24.0521C12.7881 23.0625 13.3327 22.1917 13.4073 21.2084C12.9716 21.1084 12.5339 21.0063 12.0902 20.9355C11.7493 21.7938 11.7594 22.7667 11.3076 23.5792C10.8457 23.3959 10.182 23.5042 9.86134 23.0938C9.91983 22.25 10.289 21.4709 10.3757 20.6375C10.3999 20.2605 9.93395 20.3 9.69998 20.2042C8.89719 20.0251 8.09642 19.8334 7.29364 19.6584C7.43282 18.9959 7.70713 18.3771 7.9633 17.7563C8.46756 17.8063 8.96779 17.9084 9.47205 17.9709C9.99245 17.7771 10.0711 17.1292 10.2103 16.6542C10.7024 14.3584 11.2733 12.0813 11.7392 9.78338C11.5415 8.92297 10.527 8.97713 9.87949 8.72713C10.0086 8.16047 9.98236 7.35838 10.4886 7.02088C11.5456 7.13547 12.4956 7.71672 13.5545 7.81255C13.7522 6.95005 13.9156 6.07922 14.1697 5.23547ZM14.6317 10.2417C14.4925 11.3375 14.1556 12.3896 13.9559 13.473C14.8414 13.8167 15.7894 13.9459 16.7334 13.8813C17.5665 13.9021 18.337 13.0271 18.2321 12.1771C17.6411 10.775 15.9972 10.2813 14.6317 10.2417ZM13.5223 15.2396C13.2843 16.4313 12.895 17.5834 12.6328 18.7688C13.9539 19.2584 15.4607 19.6855 16.8443 19.2313C17.8811 18.673 17.8912 16.9042 16.8201 16.3709C15.7874 15.8292 14.6841 15.3646 13.5223 15.2396Z" fill="#08090C"/>
</g>
<defs>
<clipPath id="clip0_295_10037">
<rect width="142" height="30" fill="white"/>
</clipPath>
</defs>
</svg>
