<svg xmlns="http://www.w3.org/2000/svg" width="21" height="21" viewBox="0 0 21 21" fill="none">
    <g clip-path="url(#clip0_1618_126876)">
        <path
            d="M19.1091 10.3794C19.1091 10.8716 19.1058 11.3285 19.0993 11.7563C19.0722 13.5331 18.9894 14.8173 18.8532 16.1392C18.7366 17.2593 18.2382 18.3052 17.4417 19.1013C16.6452 19.8973 15.599 20.3951 14.4789 20.5111L14.4448 20.5144C13.0827 20.6563 12.8641 20.7683 9.99176 20.7683H9.74566C6.87457 20.7683 6.65514 20.6563 5.29301 20.5144L5.25897 20.5107C4.13991 20.3938 3.09507 19.8957 2.29962 19.0999C1.50418 18.3042 1.00648 17.2592 0.88998 16.1401C0.719355 14.4994 0.632812 12.9175 0.632812 10.3794C0.632812 7.84137 0.719355 6.25939 0.88998 4.61877C0.98677 3.68667 1.34878 2.80186 1.93311 2.06923C2.51744 1.3366 3.29958 0.786875 4.18682 0.485215V0.503672C4.54265 0.379519 4.91164 0.296939 5.28645 0.257578L5.32049 0.253887C6.68262 0.111973 7.14609 0 10.0184 0C12.8907 0 13.1094 0.111973 14.4715 0.253887L14.5055 0.257578C14.8626 0.295034 15.2144 0.371647 15.5547 0.486035C15.6006 0.501621 15.6466 0.518027 15.6917 0.535254C16.5526 0.851153 17.3076 1.40236 17.8707 2.12615C18.4338 2.84995 18.7825 3.71727 18.877 4.62943C18.877 4.62943 19.1091 7.10063 19.1091 10.3794Z"
            fill="#66992A" />
        <path
            d="M5.28645 0.257578C4.91164 0.296939 4.54265 0.379519 4.18682 0.503672V0.485215C3.29958 0.786875 2.51744 1.3366 1.93311 2.06923C1.34878 2.80186 0.98677 3.68667 0.88998 4.61877C0.719355 6.25939 0.632812 7.84178 0.632812 10.3794C0.632812 12.655 0.702129 14.1623 0.837891 15.6319C2.14185 16.1302 3.52628 16.3848 4.92223 16.3829C11.2345 16.3829 16.3512 11.2658 16.3512 4.95387C16.3535 3.40385 16.0391 1.86969 15.4276 0.44543C15.1271 0.352965 14.8182 0.29005 14.5055 0.257578L14.4715 0.253887C13.1094 0.111973 12.8907 0 10.0184 0C7.14609 0 6.68262 0.111973 5.32049 0.253887L5.28645 0.257578Z"
            fill="#7FB640" />
        <path
            d="M5.39496 5.46143H14.347C14.6061 5.46143 14.8546 5.56436 15.0379 5.74758C15.2211 5.9308 15.324 6.1793 15.324 6.43842C15.324 6.69753 15.2211 6.94603 15.0379 7.12926C14.8546 7.31248 14.6061 7.41541 14.347 7.41541H5.39496C5.13585 7.41541 4.88734 7.31248 4.70412 7.12926C4.5209 6.94603 4.41797 6.69753 4.41797 6.43842C4.41797 6.1793 4.5209 5.9308 4.70412 5.74758C4.88734 5.56436 5.13585 5.46143 5.39496 5.46143ZM5.39496 11.5961C5.13926 11.5909 4.8958 11.4856 4.71681 11.3029C4.53783 11.1203 4.43758 10.8747 4.43758 10.6189C4.43758 10.3632 4.53783 10.1176 4.71681 9.93492C4.8958 9.75223 5.13926 9.64698 5.39496 9.64174H10.5006C10.7563 9.64698 10.9998 9.75223 11.1787 9.93492C11.3577 10.1176 11.458 10.3632 11.458 10.6189C11.458 10.8747 11.3577 11.1203 11.1787 11.3029C10.9998 11.4856 10.7563 11.5909 10.5006 11.5961H5.39496Z"
            fill="white" />
        <path
            d="M15.6571 11.5957C14.7271 11.5957 13.818 11.8715 13.0448 12.3881C12.2716 12.9048 11.6689 13.6392 11.313 14.4983C10.9571 15.3575 10.864 16.303 11.0454 17.2151C11.2269 18.1272 11.6747 18.965 12.3323 19.6226C12.9899 20.2802 13.8277 20.728 14.7398 20.9094C15.6519 21.0908 16.5973 20.9977 17.4565 20.6418C18.3157 20.286 19.05 19.6833 19.5667 18.91C20.0834 18.1368 20.3591 17.2277 20.3591 16.2977C20.359 15.0507 19.8636 13.8548 18.9818 12.973C18.1001 12.0912 16.9041 11.5958 15.6571 11.5957Z"
            fill="#724D44" />
        <path
            d="M17.5208 16.9861H15.5636C15.4152 16.9859 15.2729 16.9269 15.1679 16.8219C15.063 16.7169 15.0041 16.5746 15.0041 16.4262V13.4197C15.0021 13.345 15.0151 13.2706 15.0423 13.2009C15.0695 13.1312 15.1104 13.0677 15.1626 13.0141C15.2147 12.9605 15.2771 12.9179 15.346 12.8888C15.4149 12.8597 15.489 12.8447 15.5638 12.8447C15.6386 12.8447 15.7126 12.8597 15.7815 12.8888C15.8504 12.9179 15.9128 12.9605 15.965 13.0141C16.0171 13.0677 16.058 13.1312 16.0853 13.2009C16.1125 13.2706 16.1255 13.345 16.1234 13.4197V15.8667H17.5208C17.6666 15.8707 17.8051 15.9314 17.9069 16.0359C18.0086 16.1404 18.0655 16.2805 18.0655 16.4264C18.0655 16.5723 18.0086 16.7124 17.9069 16.8169C17.8051 16.9214 17.6666 16.9821 17.5208 16.9861Z"
            fill="white" />
    </g>
    <defs>
        <clipPath id="clip0_1618_126876">
            <rect width="21" height="21" fill="white" />
        </clipPath>
    </defs>
</svg>