<svg xmlns="http://www.w3.org/2000/svg" width="332" height="320" viewBox="0 0 332 320" fill="none">
    <g opacity="0.27">
        <mask id="mask0_2012_78486" style="mask-type:alpha" maskUnits="userSpaceOnUse" x="-139"
            y="-61" width="624" height="397">
            <rect x="-139" y="-61" width="623.857" height="397" rx="25"
                fill="url(#paint0_linear_2012_78486)" />
        </mask>
        <g mask="url(#mask0_2012_78486)">
            <path
                d="M129.557 410.591L199.733 257.459H207.989L160.282 360.472H194.264L134.164 420.571L129.557 410.591Z"
                fill="#191A1E" />
            <path
                d="M122.966 430.274L137.397 461.747H145.658L128.984 425.751L125.782 418.828L97.9511 358.741H131.921L62.1602 288.974L58.168 288.896L121.747 427.609L122.966 430.274Z"
                fill="#191A1E" />
            <path
                d="M128.983 545.125L260.647 413.455H196.531L286.56 219.056H270.971L121.457 545.276L128.983 545.125Z"
                fill="#191A1E" />
            <path
                d="M-51.0135 300.335L106.889 241.677L112.732 247.514L6.15559 286.622L30.1871 310.654H-54.8066L-51.0135 300.335Z"
                fill="#191A1E" />
            <path
                d="M-146.543 395.056H39.6602L-5.67703 349.719L195.44 275.918L184.422 264.894L-151.971 389.846L-146.543 395.056Z"
                fill="#191A1E" />
            <path
                d="M-100.729 94.6957L52.4037 164.872V173.128L-50.6031 125.421V159.403L-110.709 99.3029L-100.729 94.6957Z"
                fill="#191A1E" />
            <path
                d="M-120.412 88.1043L-151.885 102.535V110.797L-115.889 94.1228L-108.966 90.9206L-48.878 63.0898V97.0596L20.8888 27.2989L20.9672 23.3067L-117.746 86.8862L-120.412 88.1043Z"
                fill="#191A1E" />
            <path
                d="M-235.257 94.1227L-103.594 225.786V161.67L90.8053 251.693V236.111L-235.414 86.5966L-235.257 94.1227Z"
                fill="#191A1E" />
            <path
                d="M9.52503 -85.875L68.1836 72.0334L62.3461 77.8709L23.2384 -28.7L-0.787109 -4.67448V-89.6682L9.52503 -85.875Z"
                fill="#191A1E" />
            <path
                d="M-85.1953 -181.405V4.79881L-39.8581 -40.5384L33.943 160.578L44.9668 149.561L-79.985 -186.832L-85.1953 -181.405Z"
                fill="#191A1E" />
            <path
                d="M215.171 -135.591L144.994 17.5413H136.732L184.44 -85.4655H150.458L210.558 -145.571L215.171 -135.591Z"
                fill="#191A1E" />
            <path
                d="M215.745 -270.119L84.075 -138.455H148.191L58.168 55.9439H73.7508L223.265 -270.276L215.745 -270.119Z"
                fill="#191A1E" />
            <path
                d="M395.738 -25.3354L237.836 33.3232L231.998 27.4857L338.569 -11.6221L314.537 -35.6536H399.537L395.738 -25.3354Z"
                fill="#191A1E" />
            <path
                d="M491.272 -120.056H305.063L350.4 -74.7189L149.283 -0.917809L160.301 10.1059L496.7 -114.846L491.272 -120.056Z"
                fill="#191A1E" />
            <path
                d="M445.459 180.311L292.32 110.134V101.872L395.333 149.579V115.597L455.433 175.697L445.459 180.311Z"
                fill="#191A1E" />
            <path
                d="M465.137 186.896L496.61 172.465V164.209L460.614 180.877L453.697 184.085L393.603 211.91V177.94L323.836 247.707L323.758 251.693L462.471 188.114L465.137 186.896Z"
                fill="#191A1E" />
            <path
                d="M579.987 180.883L448.317 49.2135V113.33L253.918 23.3065V38.8893L580.137 188.403L579.987 180.883Z"
                fill="#191A1E" />
            <path
                d="M335.196 360.875L276.537 202.973L282.375 197.135L321.482 303.706L345.514 279.675V364.674L335.196 360.875Z"
                fill="#191A1E" />
            <path
                d="M429.918 456.41V270.207L384.587 315.538L310.779 114.421L299.762 125.439L424.713 461.838L429.918 456.41Z"
                fill="#191A1E" />
            <path
                d="M158.461 212.085L177.626 170.264H179.881L166.855 198.396H176.136L159.721 214.811L158.461 212.085Z"
                fill="#191A1E" />
            <path
                d="M156.664 217.465L160.602 226.058H162.858L158.305 216.228L157.43 214.335L149.826 197.926H159.107L140.056 178.87L138.965 178.851L156.327 216.735L156.664 217.465Z"
                fill="#191A1E" />
            <path
                d="M158.304 248.829L194.264 212.869H176.752L201.338 159.777H197.087L156.248 248.871L158.304 248.829Z"
                fill="#191A1E" />
            <path
                d="M109.145 181.975L152.269 165.952L153.867 167.55L124.758 178.23L131.325 184.791H108.107L109.145 181.975Z"
                fill="#191A1E" />
            <path
                d="M104.074 184.502L100.781 193.366L102.373 194.964L106.106 184.791L106.824 182.837L113.053 165.855L119.614 172.416V145.472L118.861 144.682L104.351 183.754L104.074 184.502Z"
                fill="#191A1E" />
            <path
                d="M83.0517 207.846H133.907L121.526 195.459L176.458 175.305L173.449 172.296L81.5742 206.422L83.0517 207.846Z"
                fill="#191A1E" />
            <path
                d="M95.5656 125.806L137.393 144.977V147.233L109.255 134.201V143.482L92.8398 127.067L95.5656 125.806Z"
                fill="#191A1E" />
            <path
                d="M90.1913 124.009L81.5918 127.953V130.209L91.4275 125.656L93.3151 124.775L109.73 117.177V126.458L128.78 107.401L128.805 106.31L90.921 123.678L90.1913 124.009Z"
                fill="#191A1E" />
            <path
                d="M58.8274 125.65L94.7872 161.616V144.103L147.88 168.69V164.432L58.7852 123.6L58.8274 125.65Z"
                fill="#191A1E" />
            <path
                d="M125.68 76.4957L141.697 119.62L140.104 121.212L129.424 92.1086L122.863 98.6698V75.4584L125.68 76.4957Z"
                fill="#191A1E" />
            <path
                d="M123.146 71.4178L114.282 68.1311L112.689 69.7232L122.863 73.4561L124.817 74.1737L141.793 80.4032L135.237 86.9644H162.182L162.966 86.2106L123.9 71.7012L123.146 71.4178Z"
                fill="#191A1E" />
            <path
                d="M99.8086 50.4017V101.257L112.189 88.8762L132.349 143.802L135.358 140.793L101.232 48.9182L99.8086 50.4017Z"
                fill="#191A1E" />
            <path
                d="M181.842 62.9151L162.677 104.737H160.422L173.454 76.6043H164.173L180.582 60.1893L181.842 62.9151Z"
                fill="#191A1E" />
            <path
                d="M183.645 57.5417L179.701 48.9423H177.445L181.998 58.772L182.873 60.6655L190.477 77.0745H181.196L200.253 96.1308L201.338 96.1489L183.976 58.2654L183.645 57.5417Z"
                fill="#191A1E" />
            <path
                d="M181.998 26.1712L146.039 62.131H163.551L138.965 115.229H143.216L184.055 26.129L181.998 26.1712Z"
                fill="#191A1E" />
            <path
                d="M231.16 93.0249L188.036 109.048L186.438 107.456L215.547 96.7699L208.985 90.2087H232.197L231.16 93.0249Z"
                fill="#191A1E" />
            <path
                d="M236.232 90.498L239.525 81.6331L237.933 80.0351L234.2 90.2085L233.482 92.1624L227.253 109.144L220.691 102.583V129.527L221.445 130.317L235.955 91.2457L236.232 90.498Z"
                fill="#191A1E" />
            <path
                d="M257.254 67.1543H206.399L218.779 79.541L163.848 99.6949L166.857 102.704L258.731 68.5776L257.254 67.1543Z"
                fill="#191A1E" />
            <path
                d="M244.742 149.193L202.914 130.028V127.773L231.052 140.799V131.518L247.467 147.933L244.742 149.193Z"
                fill="#191A1E" />
            <path
                d="M250.113 150.99L258.713 147.052V144.796L248.877 149.349L246.989 150.224L230.574 157.822V148.547L211.524 167.598L211.5 168.689L249.384 151.321L250.113 150.99Z"
                fill="#191A1E" />
            <path
                d="M281.478 149.35L245.518 113.39V130.897L192.426 106.31V110.568L281.52 151.4L281.478 149.35Z"
                fill="#191A1E" />
            <path
                d="M214.624 198.511L198.607 155.38L200.199 153.788L210.879 182.892L217.441 176.33V199.548L214.624 198.511Z"
                fill="#191A1E" />
            <path
                d="M217.157 203.582L226.022 206.875L227.614 205.277L217.441 201.544L215.487 200.826L198.511 194.597L205.072 188.036H178.122L177.338 188.796L216.403 203.305L217.157 203.582Z"
                fill="#191A1E" />
            <path
                d="M240.495 224.599V173.744L228.114 186.124L207.955 131.198L204.945 134.208L239.072 226.082L240.495 224.599Z"
                fill="#191A1E" />
        </g>
    </g>
    <defs>
        <linearGradient id="paint0_linear_2012_78486" x1="708.311" y1="-211.86" x2="-166.79"
            y2="328.06" gradientUnits="userSpaceOnUse">
            <stop stop-color="#2D2F36" />
            <stop offset="1" />
        </linearGradient>
    </defs>
</svg>