<svg width="98" height="37" viewBox="0 0 98 37" fill="none" xmlns="http://www.w3.org/2000/svg">
<g id="log&#208;&#176;o 1" clip-path="url(#clip0_1618_126804)">
<path id="Vector" d="M32.1136 24.4675C32.1136 24.6688 32.0467 24.8345 31.913 24.9648C31.7793 25.095 31.6091 25.1601 31.4025 25.1601C31.1959 25.1601 31.0257 25.095 30.892 24.9648C30.7583 24.8345 30.6914 24.6688 30.6914 24.4675V11.9822C30.6914 11.7809 30.7583 11.6152 30.892 11.4849C31.0257 11.3547 31.1959 11.2896 31.4025 11.2896H35.049C35.9363 11.2896 36.7264 11.4849 37.4193 11.8756C38.1242 12.2545 38.6712 12.7873 39.0602 13.474C39.4491 14.1489 39.6436 14.9244 39.6436 15.8006C39.6436 16.6649 39.4491 17.4345 39.0602 18.1094C38.6712 18.7843 38.1242 19.3112 37.4193 19.69C36.7264 20.0689 35.9363 20.2584 35.049 20.2584H32.1136V24.4675ZM35.049 18.9264C35.6689 18.9264 36.222 18.7961 36.7082 18.5356C37.1944 18.2633 37.5712 17.8903 37.8386 17.4167C38.1181 16.9432 38.258 16.4044 38.258 15.8006C38.258 15.1849 38.1181 14.6403 37.8386 14.1667C37.5712 13.6812 37.1944 13.3024 36.7082 13.03C36.222 12.7577 35.6689 12.6215 35.049 12.6215H32.1136V18.9264H35.049Z" fill="#2196F3"/>
<path id="Vector_2" d="M41.9646 16.1381C41.9646 15.9368 42.0314 15.7711 42.1651 15.6408C42.2989 15.5106 42.469 15.4455 42.6757 15.4455C42.8823 15.4455 43.0464 15.5106 43.1679 15.6408C43.3016 15.7711 43.3685 15.9368 43.3685 16.1381V24.4675C43.3685 24.6688 43.3016 24.8346 43.1679 24.9648C43.0464 25.0951 42.8823 25.1602 42.6757 25.1602C42.469 25.1602 42.2989 25.0951 42.1651 24.9648C42.0314 24.8346 41.9646 24.6688 41.9646 24.4675V16.1381ZM42.6757 11.6626C42.943 11.6626 43.174 11.7514 43.3685 11.929C43.563 12.1066 43.6602 12.3375 43.6602 12.6216C43.6602 12.8939 43.563 13.1248 43.3685 13.3143C43.174 13.5037 42.937 13.5984 42.6575 13.5984C42.3779 13.5984 42.1408 13.5037 41.9464 13.3143C41.7641 13.1248 41.6729 12.8939 41.6729 12.6216C41.6729 12.3375 41.7701 12.1066 41.9646 11.929C42.159 11.7514 42.3961 11.6626 42.6757 11.6626Z" fill="#2196F3"/>
<path id="Vector_3" d="M51.4837 15.3564C52.4318 15.3564 53.2887 15.5755 54.0545 16.0136C54.8324 16.4398 55.4402 17.0318 55.8777 17.7896C56.3275 18.5473 56.5523 19.388 56.5523 20.3115V24.4851C56.5523 24.6745 56.4855 24.8343 56.3518 24.9646C56.2181 25.0948 56.0479 25.16 55.8413 25.16C55.6346 25.16 55.4645 25.1007 55.3308 24.9823C55.1971 24.8521 55.1302 24.6863 55.1302 24.4851V23.4195C54.7048 23.9878 54.1639 24.4377 53.5075 24.7692C52.8511 25.0889 52.1279 25.2487 51.3379 25.2487C50.4141 25.2487 49.5754 25.0356 48.8217 24.6094C48.0803 24.1713 47.4908 23.5793 47.0532 22.8334C46.6278 22.0756 46.415 21.235 46.415 20.3115C46.415 19.388 46.6339 18.5473 47.0714 17.7896C47.5212 17.0318 48.1289 16.4398 48.8947 16.0136C49.6726 15.5755 50.5356 15.3564 51.4837 15.3564ZM51.4837 24.0055C52.1766 24.0055 52.8025 23.8457 53.3617 23.526C53.9208 23.2063 54.3584 22.7683 54.6744 22.2118C55.0026 21.6435 55.1667 21.01 55.1667 20.3115C55.1667 19.6129 55.0026 18.9854 54.6744 18.4289C54.3584 17.8606 53.9208 17.4166 53.3617 17.0969C52.8025 16.7654 52.1766 16.5996 51.4837 16.5996C50.7909 16.5996 50.1588 16.7654 49.5875 17.0969C49.0284 17.4166 48.5847 17.8606 48.2566 18.4289C47.9405 18.9854 47.7825 19.6129 47.7825 20.3115C47.7825 21.01 47.9405 21.6435 48.2566 22.2118C48.5847 22.7683 49.0284 23.2063 49.5875 23.526C50.1588 23.8457 50.7909 24.0055 51.4837 24.0055Z" fill="#2196F3"/>
<path id="Vector_4" d="M62.7283 15.3564C63.5306 15.3564 64.2295 15.4926 64.8251 15.7649C65.4206 16.0254 65.9008 16.3924 66.2654 16.866C66.3627 17.02 66.4113 17.1561 66.4113 17.2745C66.4113 17.4758 66.314 17.6356 66.1196 17.754C66.0345 17.8132 65.919 17.8428 65.7731 17.8428C65.5179 17.8428 65.3052 17.754 65.135 17.5764C64.5394 16.9134 63.725 16.5819 62.6918 16.5819C62.0233 16.5819 61.4885 16.718 61.0874 16.9904C60.6863 17.2508 60.4857 17.5824 60.4857 17.9849C60.4857 18.4112 60.6741 18.7545 61.0509 19.015C61.4277 19.2636 62.0962 19.4649 63.0565 19.6188C64.3571 19.8319 65.2869 20.1812 65.8461 20.6667C66.4052 21.1403 66.6848 21.7323 66.6848 22.4427C66.6848 22.9873 66.5147 23.4728 66.1743 23.899C65.8461 24.3252 65.3842 24.6568 64.7886 24.8936C64.193 25.1304 63.5184 25.2487 62.7648 25.2487C62.0112 25.2487 61.288 25.1244 60.5951 24.8758C59.9023 24.6272 59.3432 24.2779 58.9177 23.828C58.7961 23.6859 58.7354 23.5497 58.7354 23.4195C58.7354 23.2182 58.8326 23.0406 59.0271 22.8867C59.173 22.7801 59.3249 22.7268 59.4829 22.7268C59.6895 22.7268 59.8658 22.8097 60.0117 22.9755C60.3034 23.307 60.6863 23.5616 61.1603 23.7392C61.6465 23.9168 62.1814 24.0055 62.7648 24.0055C63.6156 24.0055 64.2538 23.8635 64.6792 23.5793C65.1046 23.2952 65.3234 22.9222 65.3356 22.4604C65.3356 22.0342 65.1228 21.679 64.6974 21.3948C64.272 21.1107 63.5974 20.8976 62.6736 20.7555C61.4824 20.566 60.589 20.2404 59.9934 19.7787C59.41 19.3051 59.1183 18.7368 59.1183 18.0737C59.1183 17.2094 59.4586 16.5404 60.1393 16.0668C60.8321 15.5932 61.6952 15.3564 62.7283 15.3564Z" fill="#2196F3"/>
<path id="Vector_5" d="M73.5056 23.7924C73.7001 23.7924 73.8581 23.8576 73.9795 23.9878C74.1009 24.118 74.1616 24.2838 74.1616 24.4851C74.1616 24.6745 74.0885 24.8344 73.9429 24.9646C73.7967 25.0948 73.6145 25.16 73.3959 25.16H73.013C72.3688 25.16 71.7915 25.012 71.2809 24.716C70.7704 24.4081 70.3693 23.9996 70.0776 23.4905C69.798 22.9696 69.6582 22.3835 69.6582 21.7323V16.9904H68.4731C68.2786 16.9904 68.1206 16.9371 67.9991 16.8305C67.8897 16.7121 67.835 16.57 67.835 16.4043C67.835 16.2267 67.8897 16.0846 67.9991 15.978C68.1206 15.8596 68.2786 15.8004 68.4731 15.8004H69.6582V13.0476C69.6582 12.8464 69.719 12.6806 69.8405 12.5504C69.9742 12.4201 70.1444 12.355 70.3511 12.355C70.5577 12.355 70.7279 12.4201 70.8615 12.5504C70.9952 12.6806 71.0621 12.8464 71.0621 13.0476V15.8004H73.1224C73.3169 15.8004 73.469 15.8596 73.578 15.978C73.7001 16.0846 73.7608 16.2267 73.7608 16.4043C73.7608 16.57 73.7001 16.7121 73.578 16.8305C73.469 16.9371 73.3169 16.9904 73.1224 16.9904H71.0621V21.7323C71.0621 22.3361 71.2444 22.8334 71.6091 23.2241C71.9738 23.603 72.4417 23.7924 73.013 23.7924H73.5056Z" fill="#2196F3"/>
<path id="Vector_6" d="M80.9499 15.3389C81.4604 15.3389 81.8619 15.404 82.153 15.5343C82.4572 15.6645 82.6093 15.848 82.6093 16.0848C82.6093 16.1559 82.6027 16.2091 82.591 16.2447C82.542 16.4104 82.4631 16.5229 82.3541 16.5821C82.2568 16.6413 82.1171 16.6709 81.9343 16.6709C81.8253 16.6709 81.6366 16.6591 81.369 16.6354C81.2717 16.6235 81.1262 16.6176 80.9316 16.6176C80.0204 16.6176 79.2722 16.8544 78.6893 17.328C78.1181 17.8016 77.8322 18.4173 77.8322 19.1751V24.4853C77.8322 24.6984 77.7715 24.8642 77.6501 24.9826C77.5279 25.101 77.3583 25.1602 77.1396 25.1602C76.9202 25.1602 76.7505 25.101 76.6291 24.9826C76.507 24.8642 76.4463 24.6984 76.4463 24.4853V16.1203C76.4463 15.9072 76.507 15.7415 76.6291 15.6231C76.7505 15.5047 76.9202 15.4455 77.1396 15.4455C77.3583 15.4455 77.5279 15.5047 77.6501 15.6231C77.7715 15.7415 77.8322 15.9072 77.8322 16.1203V16.9018C78.1847 16.4045 78.6345 16.0197 79.1815 15.7474C79.7286 15.4751 80.318 15.3389 80.9499 15.3389Z" fill="#2196F3"/>
<path id="Vector_7" d="M85.0887 16.1381C85.0887 15.9368 85.156 15.7711 85.2898 15.6408C85.4229 15.5106 85.5933 15.4455 85.8003 15.4455C86.0065 15.4455 86.1703 15.5106 86.2925 15.6408C86.4256 15.7711 86.4929 15.9368 86.4929 16.1381V24.4675C86.4929 24.6688 86.4256 24.8346 86.2925 24.9648C86.1703 25.0951 86.0065 25.1602 85.8003 25.1602C85.5933 25.1602 85.4229 25.0951 85.2898 24.9648C85.156 24.8346 85.0887 24.6688 85.0887 24.4675V16.1381ZM85.8003 11.6626C86.0672 11.6626 86.2983 11.7514 86.4929 11.929C86.6874 12.1066 86.7847 12.3375 86.7847 12.6216C86.7847 12.8939 86.6874 13.1248 86.4929 13.3143C86.2983 13.5037 86.0614 13.5984 85.782 13.5984C85.5019 13.5984 85.2649 13.5037 85.0704 13.3143C84.8883 13.1248 84.7969 12.8939 84.7969 12.6216C84.7969 12.3375 84.8941 12.1066 85.0887 11.929C85.2832 11.7514 85.5202 11.6626 85.8003 11.6626Z" fill="#2196F3"/>
<path id="Vector_8" d="M97.4512 24.0944C97.585 24.2602 97.6516 24.42 97.6516 24.5739C97.6516 24.7397 97.585 24.8818 97.4512 25.0002C97.3298 25.1067 97.1901 25.16 97.0321 25.16C96.8858 25.16 96.7644 25.1363 96.6672 25.089C96.5699 25.0416 96.4785 24.9587 96.3937 24.8403L93.4032 21.1285L90.3038 24.9469C90.1948 25.089 90.0302 25.16 89.8116 25.16C89.617 25.16 89.4591 25.1008 89.3376 24.9824C89.2279 24.864 89.1738 24.7219 89.1738 24.5562C89.1738 24.3667 89.2345 24.2069 89.3559 24.0767L92.5102 20.2405L89.5198 16.5464C89.3984 16.4162 89.3376 16.2563 89.3376 16.0669C89.3376 15.8893 89.3925 15.7413 89.5015 15.6229C89.6112 15.5045 89.7691 15.4453 89.9761 15.4453C90.1824 15.4453 90.3586 15.5163 90.5049 15.6584L93.4398 19.3347L96.3388 15.765C96.5092 15.5519 96.7096 15.4453 96.9407 15.4453C97.1352 15.4453 97.2874 15.5045 97.3963 15.6229C97.5177 15.7413 97.5784 15.8834 97.5784 16.0491C97.5784 16.2267 97.5119 16.3984 97.378 16.5642L94.3517 20.2227L97.4512 24.0944Z" fill="#2196F3"/>
<path id="Vector_9" d="M17.2409 14.8707C17.181 14.8902 17.1181 14.9055 17.0598 14.9311C16.3252 15.2264 15.7164 15.7622 15.3359 16.4479C14.9553 17.1336 14.8263 17.9276 14.9706 18.6961C14.989 18.7974 15.0075 18.8987 15.0335 18.9984C15.0596 19.0983 15.0919 19.1996 15.1272 19.3009C15.3779 19.9784 15.8298 20.5658 16.4243 20.9868C16.4749 21.0201 16.5241 21.0534 16.5778 21.0851C16.6898 21.1534 16.8056 21.2155 16.9247 21.271C17.0076 21.3119 17.092 21.3512 17.1795 21.386C17.5899 21.5468 18.0272 21.6305 18.4689 21.6324C18.5103 21.6324 18.5487 21.6218 18.5887 21.6203V21.6083C19.0551 21.5874 19.514 21.4851 19.944 21.3058C20.7433 20.9624 21.3853 20.3396 21.7462 19.5576C22.1072 18.7757 22.1616 17.8898 21.8989 17.0707C21.6362 16.2516 21.075 15.5572 20.3235 15.1214C19.572 14.6856 18.6834 14.5392 17.8288 14.7104C17.7781 14.721 17.729 14.7285 17.6753 14.7406C17.5278 14.7746 17.3827 14.818 17.2409 14.8707Z" fill="#FFD833"/>
<g id="Mask group">
<mask id="mask0_1618_126804" style="mask-type:alpha" maskUnits="userSpaceOnUse" x="0" y="0" width="24" height="37">
<g id="Group">
<path id="Vector_10" d="M15.2773 14.703C14.0299 12.7637 13.3033 10.7516 13.0976 8.66704C11.2833 7.2155 8.39028 6.50281 4.41869 6.52902C4.32077 8.11418 4.56239 9.7019 5.12786 11.1891H5.08795C5.49976 12.1465 6.07385 13.028 6.78567 13.7958C6.78679 13.8107 6.7909 13.8251 6.79775 13.8384C6.80459 13.8516 6.81406 13.8633 6.82557 13.873C7.07693 14.1447 7.35455 14.3919 7.65448 14.6108C9.40137 15.9293 11.4711 16.7458 13.8636 17.0603C14.0843 16.1528 14.5769 15.3315 15.2773 14.703Z" fill="url(#paint0_linear_1618_126804)"/>
<path id="Vector_11" d="M7.65282 23.8617H7.61282C6.4821 25.546 5.75859 27.9557 5.44238 31.0906C7.18206 31.3497 8.78663 31.2721 10.2562 30.8578C11.5223 30.4843 12.6926 29.8481 13.6884 28.992V28.9527L13.9248 28.7199H13.9678C15.5407 27.0808 16.5895 25.0415 17.1146 22.6021C16.3954 22.391 15.7378 22.0142 15.1958 21.5029C12.7839 23.0522 10.2695 23.8385 7.65282 23.8617Z" fill="url(#paint1_linear_1618_126804)"/>
<path id="Vector_12" d="M6.86455 15.5846C6.60265 15.3781 6.35257 15.1576 6.11546 14.9238C4.27346 15.4157 2.23497 16.5427 0 18.3047C0.91238 19.6239 2.11227 20.7258 3.51209 21.5298C4.66981 22.1812 5.96728 22.5543 7.29896 22.6185H7.65358C10.0073 22.5963 12.2586 21.9003 14.4076 20.5304C13.9961 19.8571 13.7657 19.0916 13.7383 18.3062C11.1073 17.9605 8.81605 17.0532 6.86455 15.5846Z" fill="url(#paint2_linear_1618_126804)"/>
<path id="Vector_13" d="M20.9712 14.198C22.2146 12.311 22.9176 10.3635 23.0803 8.35545V8.27839C23.1074 8.03327 23.1208 7.78701 23.1202 7.54053C23.1039 6.10516 22.7098 4.69853 21.9767 3.45801C21.243 2.16573 20.1541 1.01306 18.7101 0H18.701C17.2539 1.00802 16.1625 2.16119 15.4268 3.45952C14.6936 4.70005 14.2996 6.10666 14.2832 7.54202C14.2826 7.7885 14.296 8.03483 14.3231 8.27989V8.35695C14.4797 10.2934 15.1407 12.1739 16.3063 13.9984C17.0342 13.6273 17.848 13.4506 18.6667 13.4859C19.4856 13.5212 20.2806 13.7673 20.9727 14.1995L20.9712 14.198Z" fill="url(#paint3_linear_1618_126804)"/>
<path id="Vector_14" d="M22.6456 27.9421V27.9028C22.4 25.9936 21.7189 24.1213 20.6025 22.2856C19.9376 22.6221 19.2008 22.7973 18.4534 22.7967C18.4227 22.7967 18.3921 22.7967 18.3613 22.7967C17.7862 25.477 16.6238 27.7234 14.8738 29.5359C14.8684 29.535 14.8628 29.5355 14.8577 29.5372C14.8525 29.5389 14.8477 29.5418 14.8439 29.5457C14.84 29.5495 14.8371 29.5541 14.8353 29.5592C14.8336 29.5643 14.8331 29.5698 14.8339 29.5751C14.8347 29.5805 14.8342 29.5859 14.8324 29.591C14.8307 29.5961 14.8277 29.6008 14.8239 29.6046C14.82 29.6084 14.8153 29.6112 14.8101 29.613C14.805 29.6147 14.7994 29.6151 14.7939 29.6144C15.189 31.6093 16.4119 33.8269 18.4627 36.2674C19.7803 35.3402 20.8833 34.1482 21.6985 32.77C22.2765 31.7652 22.6391 30.654 22.7637 29.5056C22.7145 29.4374 22.6873 29.3563 22.6854 29.2727C22.7388 28.8297 22.7254 28.3813 22.6456 27.9421Z" fill="url(#paint4_linear_1618_126804)"/>
</g>
</mask>
<g mask="url(#mask0_1618_126804)">
<g id="Group_2">
<path id="Vector_15" d="M23.5504 0H0V36.26H23.5504V0Z" fill="url(#paint5_radial_1618_126804)"/>
</g>
</g>
</g>
</g>
<defs>
<linearGradient id="paint0_linear_1618_126804" x1="4.55757" y1="6.65998" x2="13.4345" y2="15.7731" gradientUnits="userSpaceOnUse">
<stop stop-color="#FF4081"/>
<stop offset="1" stop-color="#FFA73F"/>
</linearGradient>
<linearGradient id="paint1_linear_1618_126804" x1="17.4723" y1="21.4602" x2="5.57245" y2="31.3861" gradientUnits="userSpaceOnUse">
<stop stop-color="#FFA73F"/>
<stop offset="1" stop-color="#FF4081"/>
</linearGradient>
<linearGradient id="paint2_linear_1618_126804" x1="14.4341" y1="20.3502" x2="0.0132331" y2="18.4022" gradientUnits="userSpaceOnUse">
<stop stop-color="#FFA73F"/>
<stop offset="1" stop-color="#FF4081"/>
</linearGradient>
<linearGradient id="paint3_linear_1618_126804" x1="18.7017" y1="0" x2="18.7017" y2="14.1995" gradientUnits="userSpaceOnUse">
<stop stop-color="#FF4081"/>
<stop offset="1" stop-color="#FFA73F"/>
</linearGradient>
<linearGradient id="paint4_linear_1618_126804" x1="18.7788" y1="22.2856" x2="18.7788" y2="36.2674" gradientUnits="userSpaceOnUse">
<stop stop-color="#FFA73F"/>
<stop offset="1" stop-color="#FF4081"/>
</linearGradient>
<radialGradient id="paint5_radial_1618_126804" cx="0" cy="0" r="1" gradientUnits="userSpaceOnUse" gradientTransform="translate(17.4729 18.5) rotate(180) scale(25.8294 15.9175)">
<stop stop-color="#FFA73F"/>
<stop offset="0.756906" stop-color="#FF4081"/>
</radialGradient>
<clipPath id="clip0_1618_126804">
<rect width="98" height="37" fill="white"/>
</clipPath>
</defs>
</svg>
