<svg xmlns="http://www.w3.org/2000/svg" width="142" height="104" viewBox="0 0 142 104" fill="none">
    <g filter="url(#filter0_i_2012_118639)">
        <path fill-rule="evenodd" clip-rule="evenodd"
            d="M25.0015 47.149C24.3046 47.474 24.0031 48.3024 24.3281 48.9993C25.0435 50.5335 24.3797 52.3572 22.8455 53.0726C21.3113 53.7881 19.4875 53.1243 18.7721 51.59C18.4472 50.8931 17.6188 50.5916 16.9219 50.9166L9.03278 54.5953C4.61905 56.6535 2.70948 61.9 4.76764 66.3137L18.6009 95.9793C20.6591 100.393 25.9056 102.303 30.3193 100.244L38.2084 96.5657C38.9053 96.2407 39.2068 95.4123 38.8818 94.7154C38.1664 93.1812 38.8302 91.3575 40.3644 90.6421C41.8986 89.9266 43.7223 90.5904 44.4378 92.1246C44.7627 92.8215 45.5911 93.1231 46.288 92.7981L133.269 52.2383C137.682 50.1802 139.592 44.9337 137.534 40.5199L123.701 10.8544C121.642 6.44065 116.396 4.53108 111.982 6.58924L25.0015 47.149ZM22.3985 54.6717C20.4365 55.0535 18.3931 54.0718 17.5103 52.1785L17.5096 52.1788C18.3926 54.0722 20.4364 55.0539 22.3985 54.6717ZM114.289 7.29062C117.559 6.65145 120.966 8.28705 122.438 11.443L136.271 41.1085C138.004 44.8253 136.396 49.2434 132.68 50.9766L45.6995 91.5361C45.6996 91.5361 45.6996 91.5362 45.6996 91.5362L132.68 50.9765C136.397 49.2433 138.005 44.8252 136.272 41.1084L122.439 11.4428C120.967 8.28663 117.559 6.65103 114.289 7.29062ZM40.6554 89.0763C40.3579 89.1453 40.0631 89.2461 39.7752 89.3803C37.5441 90.4207 36.5788 93.0729 37.6192 95.304L29.7301 98.9827C29.244 99.2094 28.7459 99.379 28.2433 99.4941C28.7461 99.379 29.2445 99.2094 29.7309 98.9826L37.62 95.3038C36.5796 93.0727 37.5448 90.4206 39.776 89.3802C40.0636 89.2461 40.3582 89.1453 40.6554 89.0763Z"
            fill="#101013" />
    </g>
    <g filter="url(#filter1_f_2012_118639)">
        <path fill-rule="evenodd" clip-rule="evenodd"
            d="M24.1109 45.2401C23.414 45.5651 23.1125 46.3935 23.4374 47.0904C24.1529 48.6246 23.4891 50.4483 21.9549 51.1638C20.4206 51.8792 18.5969 51.2154 17.8815 49.6812C17.5565 48.9843 16.7281 48.6828 16.0312 49.0077L8.14215 52.6865C3.72843 54.7446 1.81886 59.9911 3.87701 64.4048L17.7103 94.0704C19.7684 98.4841 25.015 100.394 29.4287 98.3356L37.3177 94.6568C38.0147 94.3318 38.3162 93.5034 37.9912 92.8065C37.2758 91.2723 37.9395 89.4486 39.4738 88.7332C41.008 88.0178 42.8317 88.6815 43.5471 90.2158C43.8721 90.9127 44.7005 91.2142 45.3974 90.8892L132.378 50.3295C136.792 48.2713 138.701 43.0248 136.643 38.6111L122.81 8.94551C120.752 4.53178 115.505 2.62221 111.092 4.68037L24.1109 45.2401ZM19.837 52.7671C18.4741 52.51 17.2505 51.6225 16.6196 50.2696L16.6191 50.2698C17.2502 51.6228 18.4739 52.5102 19.837 52.7671ZM116.127 5.36213C118.422 5.77527 120.487 7.2599 121.547 9.5338L135.381 39.1994C137.114 42.9162 135.506 47.3343 131.789 49.0675L44.8088 89.627C44.8089 89.6271 44.8089 89.6272 44.809 89.6273L131.79 49.0676C135.506 47.3344 137.115 42.9163 135.381 39.1995L121.548 9.53392C120.488 7.25979 118.422 5.77509 116.127 5.36213ZM41.4658 87.108C40.6177 86.9729 39.7216 87.0809 38.8847 87.4712C36.6535 88.5116 35.6883 91.1637 36.7287 93.3948L28.8396 97.0736C27.446 97.7234 25.9538 97.9036 24.5416 97.6789C25.954 97.9037 27.4465 97.7236 28.8403 97.0737L36.7293 93.395C35.6889 91.1638 36.6542 88.5117 38.8854 87.4713C39.722 87.0812 40.6179 86.9731 41.4658 87.108Z"
            fill="url(#paint0_linear_2012_118639)" />
    </g>
    <g filter="url(#filter2_i_2012_118639)">
        <path fill-rule="evenodd" clip-rule="evenodd"
            d="M38.7734 87.5242C38.81 87.5059 38.8469 87.4881 38.8842 87.4707C41.1153 86.4303 43.7675 87.3956 44.8078 89.6267L44.8079 89.6269L124.018 52.6907C132.026 48.9562 135.491 39.4366 131.757 31.4279L125.171 17.3044C121.436 9.29575 111.917 5.83086 103.908 9.56535L24.6982 46.5015C25.7385 48.7326 24.7732 51.3846 22.5421 52.425C22.5048 52.4424 22.4674 52.4592 22.4299 52.4755L38.7734 87.5242Z"
            fill="url(#paint1_linear_2012_118639)" />
    </g>
    <path fill-rule="evenodd" clip-rule="evenodd"
        d="M135.519 39.5198C135.475 39.4125 135.429 39.3056 135.379 39.1993L133.192 34.5103L130.162 38.6637L132.284 32.5624L130.701 29.1668L122.252 53.5139L126.99 51.3043L135.519 39.5198ZM120.24 54.4522L129.745 27.1174L127.237 21.7391L113.93 40.0342L123.251 13.1912L121.644 9.74476L103.374 62.3167L104.213 61.9255L124.637 33.789L116.932 55.9948L120.24 54.4522ZM98.0736 64.7884L101.425 63.2257L119.265 11.8495L97.4388 41.9587L109.592 6.91467L106.375 8.41461L86.6316 65.1538L108.272 35.4433L98.0736 64.7884ZM100.944 10.9472L92.9307 14.6839L88.1131 28.5064L100.944 10.9472ZM69.0524 25.8185L71.5721 24.6435L63.6711 47.5033L84.4406 18.6429L85.268 18.2571L63.5906 80.8681L60.5647 82.2791L76.3075 37.1106L54.9564 66.2074L69.0524 25.8185ZM62.314 28.9607L66.1932 27.1518L46.195 85.0115L68.3015 54.2933L58.2362 83.3649L55.3069 84.7308L58.8312 74.619L49.385 87.4923L44.8066 89.6272C44.4179 88.7936 43.8042 88.1367 43.0716 87.6951L60.7532 37.0326L39.5472 65.8197L50.519 34.4608L52.4352 33.5673L46.34 51.2402L62.314 28.9607ZM33.1745 42.5486L28.5814 55.9101L38.092 42.5503L40.5477 39.1105L44.9033 37.0794L36.8007 48.0282L26.6995 61.6365L26.0643 60.2743L32.1115 43.0444L33.1745 42.5486ZM26.9555 45.4486L27.7175 45.0933L24.0119 55.8729L23.604 54.9981L26.9555 45.4486ZM29.4921 67.6252L30.7089 70.2346L33.5872 61.8888L29.4921 67.6252ZM38.7564 87.4926L43.2771 74.5394L36.81 83.3185L35.2126 79.8929L51.1207 57.7052L40.9756 87.0575C40.2772 87.0242 39.5607 87.1552 38.8829 87.4712C38.8454 87.4887 38.8083 87.5066 38.7715 87.525L38.7564 87.4926ZM33.3187 75.8313L32.3888 73.8372L45.3171 36.8864L47.0248 36.0902L33.3187 75.8313ZM74.0042 76.0121L74.6781 74.0753L72.8797 76.5365L64.1849 80.591L85.1805 51.5347L77.2104 74.517L74.0042 76.0121ZM96.1133 65.7025L101.789 49.3573L86.7886 70.0507L96.1133 65.7025ZM82.5417 72.031L102.657 14.0268L80.7046 44.4072L90.6229 15.76L87.6729 17.1356L70.6371 66.0141L92.1544 36.5675L79.2858 73.5493L82.5417 72.031ZM77.4047 21.9238L74.2907 23.3759L72.4327 28.6995L77.4047 21.9238ZM111.657 5.95165L104.108 27.6457L119.317 6.76442C117.192 5.14822 114.265 4.7355 111.678 5.94208L111.657 5.95165ZM109.66 59.3857L114.948 56.9197L118.149 47.7137L109.66 59.3857ZM124.188 15.2011L120.34 26.2752L125.827 18.7158L124.188 15.2011ZM132.955 48.389L134.267 46.5909L133.928 47.5626C133.631 47.8625 133.306 48.1394 132.955 48.389Z"
        fill="url(#paint2_linear_2012_118639)" />
    <path fill-rule="evenodd" clip-rule="evenodd"
        d="M135.519 39.5198C135.475 39.4125 135.429 39.3056 135.379 39.1993L133.192 34.5103L130.162 38.6637L132.284 32.5624L130.701 29.1668L122.252 53.5139L126.99 51.3043L135.519 39.5198ZM120.24 54.4522L129.745 27.1174L127.237 21.7391L113.93 40.0342L123.251 13.1912L121.644 9.74476L103.374 62.3167L104.213 61.9255L124.637 33.789L116.932 55.9948L120.24 54.4522ZM98.0736 64.7884L101.425 63.2257L119.265 11.8495L97.4388 41.9587L109.592 6.91467L106.375 8.41461L86.6316 65.1538L108.272 35.4433L98.0736 64.7884ZM100.944 10.9472L92.9307 14.6839L88.1131 28.5064L100.944 10.9472ZM69.0524 25.8185L71.5721 24.6435L63.6711 47.5033L84.4406 18.6429L85.268 18.2571L63.5906 80.8681L60.5647 82.2791L76.3075 37.1106L54.9564 66.2074L69.0524 25.8185ZM62.314 28.9607L66.1932 27.1518L46.195 85.0115L68.3015 54.2933L58.2362 83.3649L55.3069 84.7308L58.8312 74.619L49.385 87.4923L44.8066 89.6272C44.4179 88.7936 43.8042 88.1367 43.0716 87.6951L60.7532 37.0326L39.5472 65.8197L50.519 34.4608L52.4352 33.5673L46.34 51.2402L62.314 28.9607ZM33.1745 42.5486L28.5814 55.9101L38.092 42.5503L40.5477 39.1105L44.9033 37.0794L36.8007 48.0282L26.6995 61.6365L26.0643 60.2743L32.1115 43.0444L33.1745 42.5486ZM26.9555 45.4486L27.7175 45.0933L24.0119 55.8729L23.604 54.9981L26.9555 45.4486ZM29.4921 67.6252L30.7089 70.2346L33.5872 61.8888L29.4921 67.6252ZM38.7564 87.4926L43.2771 74.5394L36.81 83.3185L35.2126 79.8929L51.1207 57.7052L40.9756 87.0575C40.2772 87.0242 39.5607 87.1552 38.8829 87.4712C38.8454 87.4887 38.8083 87.5066 38.7715 87.525L38.7564 87.4926ZM33.3187 75.8313L32.3888 73.8372L45.3171 36.8864L47.0248 36.0902L33.3187 75.8313ZM74.0042 76.0121L74.6781 74.0753L72.8797 76.5365L64.1849 80.591L85.1805 51.5347L77.2104 74.517L74.0042 76.0121ZM96.1133 65.7025L101.789 49.3573L86.7886 70.0507L96.1133 65.7025ZM82.5417 72.031L102.657 14.0268L80.7046 44.4072L90.6229 15.76L87.6729 17.1356L70.6371 66.0141L92.1544 36.5675L79.2858 73.5493L82.5417 72.031ZM77.4047 21.9238L74.2907 23.3759L72.4327 28.6995L77.4047 21.9238ZM111.657 5.95165L104.108 27.6457L119.317 6.76442C117.192 5.14822 114.265 4.7355 111.678 5.94208L111.657 5.95165ZM109.66 59.3857L114.948 56.9197L118.149 47.7137L109.66 59.3857ZM124.188 15.2011L120.34 26.2752L125.827 18.7158L124.188 15.2011ZM132.955 48.389L134.267 46.5909L133.928 47.5626C133.631 47.8625 133.306 48.1394 132.955 48.389Z"
        fill="url(#paint3_linear_2012_118639)" />
    <path
        d="M119.68 22.9763L129.223 43.4417L124.397 45.6922L119.296 34.7531L119.903 47.7765L114.339 50.371L108.836 39.3757L109.256 52.7413L103.522 55.4151L103.397 30.5691L108.95 27.98L114.536 39.2199L114.029 25.6113L119.68 22.9763Z"
        fill="#FDF74B" />
    <path
        d="M93.769 45.1164L97.7648 43.2531L97.8399 58.0647L92.2874 60.6539L86.7017 49.4151L87.209 63.022L81.5571 65.6575L72.0134 45.191L76.8396 42.9405L81.9417 53.882L81.3341 40.8574L86.897 38.2634L92.4019 49.2593L91.9812 35.8926L98.1247 33.0278L93.769 45.1164Z"
        fill="#FDF74B" />
    <path
        d="M94.1444 22.6203L94.2138 22.7693L91.1745 24.1865L89.6771 20.9754L89.9766 20.8358C90.8514 21.679 92.4041 22.8438 94.1444 22.6203Z"
        fill="#FDF74B" />
    <path
        d="M94.2133 22.7681L94.2817 22.9147C92.9912 24.1059 92.8843 26.0446 92.9697 27.2545L92.6702 27.3941L91.1739 24.1854L94.2133 22.7681Z"
        fill="#FDF74B" />
    <path
        d="M91.1739 24.1854L92.6702 27.3941L92.3706 27.5338C91.4987 26.6906 89.9437 25.527 88.2029 25.7493L88.1345 25.6026L91.1739 24.1854Z"
        fill="#FDF74B" />
    <path
        d="M89.6771 20.9754L91.1739 24.1854L88.1345 25.6026L88.0651 25.4537C89.3561 24.2637 89.4619 22.3256 89.377 21.114L89.6766 20.9743L89.6771 20.9754Z"
        fill="#FDF74B" />
    <path fill-rule="evenodd" clip-rule="evenodd"
        d="M20.3574 58.9859L10.0234 63.8047L11.1538 66.2288L21.4877 61.41L20.3574 58.9859ZM24.2249 67.2791L13.8909 72.0978L16.2309 77.1159L26.5648 72.2971L24.2249 67.2791ZM18.095 81.1129L28.429 76.2942L29.6187 78.8456L19.2848 83.6644L18.095 81.1129ZM30.1743 80.0366L19.8403 84.8554L21.0301 87.4068L31.364 82.5881L30.1743 80.0366ZM11.7102 67.4194L22.0441 62.6006L22.5796 63.7489L12.2457 68.5677L11.7102 67.4194ZM23.1345 64.9397L12.8006 69.7585L13.336 70.9068L23.6699 66.088L23.1345 64.9397ZM16.787 78.3063L27.1209 73.4875L27.6563 74.6358L17.3224 79.4546L16.787 78.3063ZM31.9196 83.7791L21.5857 88.5978L22.1211 89.7461L32.455 84.9273L31.9196 83.7791Z"
        fill="#D9D9D9" />
    <g filter="url(#filter3_d_2012_118639)">
        <rect x="34.4844" y="80.155" width="1.90808" height="5.73216" rx="0.954038"
            transform="rotate(-25 34.4844 80.155)" fill="#101013" />
    </g>
    <g filter="url(#filter4_d_2012_118639)">
        <rect x="22.6406" y="54.7592" width="1.90808" height="5.73216" rx="0.954038"
            transform="rotate(-25 22.6406 54.7592)" fill="#101013" />
    </g>
    <g filter="url(#filter5_d_2012_118639)">
        <rect x="26.5879" y="63.2244" width="1.90808" height="5.73216" rx="0.954038"
            transform="rotate(-25 26.5879 63.2244)" fill="#101013" />
    </g>
    <g filter="url(#filter6_d_2012_118639)">
        <rect x="30.5371" y="71.6898" width="1.90808" height="5.73216" rx="0.954038"
            transform="rotate(-25 30.5371 71.6898)" fill="#101013" />
    </g>
    <defs>
        <filter id="filter0_i_2012_118639" x="2.93945" y="4.76096" width="135.422" height="96.3117"
            filterUnits="userSpaceOnUse" color-interpolation-filters="sRGB">
            <feFlood flood-opacity="0" result="BackgroundImageFix" />
            <feBlend mode="normal" in="SourceGraphic" in2="BackgroundImageFix" result="shape" />
            <feColorMatrix in="SourceAlpha" type="matrix"
                values="0 0 0 0 0 0 0 0 0 0 0 0 0 0 0 0 0 0 127 0" result="hardAlpha" />
            <feOffset dx="-1" dy="-1" />
            <feGaussianBlur stdDeviation="0.6" />
            <feComposite in2="hardAlpha" operator="arithmetic" k2="-1" k3="1" />
            <feColorMatrix type="matrix"
                values="0 0 0 0 0.221111 0 0 0 0 0.2325 0 0 0 0 0.266667 0 0 0 0.63 0" />
            <feBlend mode="normal" in2="shape" result="effect1_innerShadow_2012_118639" />
        </filter>
        <filter id="filter1_f_2012_118639" x="2.44883" y="3.25208" width="135.622" height="96.5117"
            filterUnits="userSpaceOnUse" color-interpolation-filters="sRGB">
            <feFlood flood-opacity="0" result="BackgroundImageFix" />
            <feBlend mode="normal" in="SourceGraphic" in2="BackgroundImageFix" result="shape" />
            <feGaussianBlur stdDeviation="0.3" result="effect1_foregroundBlur_2012_118639" />
        </filter>
        <filter id="filter2_i_2012_118639" x="22.4297" y="7.06247" width="110.83" height="82.5644"
            filterUnits="userSpaceOnUse" color-interpolation-filters="sRGB">
            <feFlood flood-opacity="0" result="BackgroundImageFix" />
            <feBlend mode="normal" in="SourceGraphic" in2="BackgroundImageFix" result="shape" />
            <feColorMatrix in="SourceAlpha" type="matrix"
                values="0 0 0 0 0 0 0 0 0 0 0 0 0 0 0 0 0 0 127 0" result="hardAlpha" />
            <feOffset dy="-1" />
            <feGaussianBlur stdDeviation="0.5" />
            <feComposite in2="hardAlpha" operator="arithmetic" k2="-1" k3="1" />
            <feColorMatrix type="matrix"
                values="0 0 0 0 0.482353 0 0 0 0 0.513726 0 0 0 0 0.639216 0 0 0 0.58 0" />
            <feBlend mode="multiply" in2="shape" result="effect1_innerShadow_2012_118639" />
        </filter>
        <filter id="filter3_d_2012_118639" x="34.0988" y="79.6622" width="4.92344" height="7.07433"
            filterUnits="userSpaceOnUse" color-interpolation-filters="sRGB">
            <feFlood flood-opacity="0" result="BackgroundImageFix" />
            <feColorMatrix in="SourceAlpha" type="matrix"
                values="0 0 0 0 0 0 0 0 0 0 0 0 0 0 0 0 0 0 127 0" result="hardAlpha" />
            <feOffset dy="1" />
            <feGaussianBlur stdDeviation="0.35" />
            <feComposite in2="hardAlpha" operator="out" />
            <feColorMatrix type="matrix"
                values="0 0 0 0 0.292969 0 0 0 0 0.297852 0 0 0 0 0.3125 0 0 0 1 0" />
            <feBlend mode="normal" in2="BackgroundImageFix" result="effect1_dropShadow_2012_118639" />
            <feBlend mode="normal" in="SourceGraphic" in2="effect1_dropShadow_2012_118639"
                result="shape" />
        </filter>
        <filter id="filter4_d_2012_118639" x="22.2551" y="54.2664" width="4.92344" height="7.07433"
            filterUnits="userSpaceOnUse" color-interpolation-filters="sRGB">
            <feFlood flood-opacity="0" result="BackgroundImageFix" />
            <feColorMatrix in="SourceAlpha" type="matrix"
                values="0 0 0 0 0 0 0 0 0 0 0 0 0 0 0 0 0 0 127 0" result="hardAlpha" />
            <feOffset dy="1" />
            <feGaussianBlur stdDeviation="0.35" />
            <feComposite in2="hardAlpha" operator="out" />
            <feColorMatrix type="matrix"
                values="0 0 0 0 0.292969 0 0 0 0 0.297852 0 0 0 0 0.3125 0 0 0 1 0" />
            <feBlend mode="normal" in2="BackgroundImageFix" result="effect1_dropShadow_2012_118639" />
            <feBlend mode="normal" in="SourceGraphic" in2="effect1_dropShadow_2012_118639"
                result="shape" />
        </filter>
        <filter id="filter5_d_2012_118639" x="26.2023" y="62.7316" width="4.92344" height="7.07433"
            filterUnits="userSpaceOnUse" color-interpolation-filters="sRGB">
            <feFlood flood-opacity="0" result="BackgroundImageFix" />
            <feColorMatrix in="SourceAlpha" type="matrix"
                values="0 0 0 0 0 0 0 0 0 0 0 0 0 0 0 0 0 0 127 0" result="hardAlpha" />
            <feOffset dy="1" />
            <feGaussianBlur stdDeviation="0.35" />
            <feComposite in2="hardAlpha" operator="out" />
            <feColorMatrix type="matrix"
                values="0 0 0 0 0.292969 0 0 0 0 0.297852 0 0 0 0 0.3125 0 0 0 1 0" />
            <feBlend mode="normal" in2="BackgroundImageFix" result="effect1_dropShadow_2012_118639" />
            <feBlend mode="normal" in="SourceGraphic" in2="effect1_dropShadow_2012_118639"
                result="shape" />
        </filter>
        <filter id="filter6_d_2012_118639" x="30.1516" y="71.197" width="4.92344" height="7.07433"
            filterUnits="userSpaceOnUse" color-interpolation-filters="sRGB">
            <feFlood flood-opacity="0" result="BackgroundImageFix" />
            <feColorMatrix in="SourceAlpha" type="matrix"
                values="0 0 0 0 0 0 0 0 0 0 0 0 0 0 0 0 0 0 127 0" result="hardAlpha" />
            <feOffset dy="1" />
            <feGaussianBlur stdDeviation="0.35" />
            <feComposite in2="hardAlpha" operator="out" />
            <feColorMatrix type="matrix"
                values="0 0 0 0 0.292969 0 0 0 0 0.297852 0 0 0 0 0.3125 0 0 0 1 0" />
            <feBlend mode="normal" in2="BackgroundImageFix" result="effect1_dropShadow_2012_118639" />
            <feBlend mode="normal" in="SourceGraphic" in2="effect1_dropShadow_2012_118639"
                result="shape" />
        </filter>
        <linearGradient id="paint0_linear_2012_118639" x1="114.119" y1="16.222" x2="107.286"
            y2="94.4351" gradientUnits="userSpaceOnUse">
            <stop stop-color="#161920" />
            <stop offset="0.47" stop-color="#1F222C" />
            <stop offset="1" stop-color="#24262D" />
        </linearGradient>
        <linearGradient id="paint1_linear_2012_118639" x1="118.214" y1="6.4108" x2="17.8133"
            y2="93.1202" gradientUnits="userSpaceOnUse">
            <stop stop-color="#0B0012" />
            <stop offset="1" stop-color="#4B3B00" />
        </linearGradient>
        <linearGradient id="paint2_linear_2012_118639" x1="26.7811" y1="40.8012" x2="89.5859"
            y2="68.7463" gradientUnits="userSpaceOnUse">
            <stop stop-color="#FDF74B" />
            <stop offset="1" stop-color="#D45AFF" stop-opacity="0" />
        </linearGradient>
        <linearGradient id="paint3_linear_2012_118639" x1="156.015" y1="69.8231" x2="85.9364"
            y2="40.6272" gradientUnits="userSpaceOnUse">
            <stop stop-color="#FDCD52" />
            <stop offset="1" stop-color="#EFDC35" stop-opacity="0" />
        </linearGradient>
    </defs>
</svg>