<svg xmlns="http://www.w3.org/2000/svg" width="142" height="104" viewBox="0 0 142 104" fill="none">
    <g filter="url(#filter0_i_2012_118549)">
        <path fill-rule="evenodd" clip-rule="evenodd"
            d="M25.2937 46.5676C24.5981 46.892 24.2971 47.7189 24.6215 48.4146C25.3356 49.9462 24.673 51.7667 23.1415 52.4809C21.6099 53.1951 19.7894 52.5325 19.0752 51.0009C18.7508 50.3052 17.9238 50.0042 17.2282 50.3286L9.35283 54.0009C4.9468 56.0555 3.04056 61.2929 5.09513 65.6989L18.9043 95.3128C20.9589 99.7188 26.1962 101.625 30.6023 99.5705L38.4776 95.8981C39.1733 95.5737 39.4743 94.7468 39.1498 94.0511C38.4357 92.5195 39.0983 90.699 40.6298 89.9848C42.1614 89.2707 43.9819 89.9333 44.6961 91.4648C45.0205 92.1605 45.8475 92.4615 46.5432 92.1371L133.372 51.648C137.778 49.5935 139.685 44.3561 137.63 39.9501L123.821 10.3362C121.766 5.93019 116.529 4.02395 112.123 6.07852L25.2937 46.5676ZM26.2847 49.3482C26.2432 48.8353 26.1113 48.3209 25.8811 47.8272L25.8812 47.8272C26.1114 48.3209 26.2432 48.8353 26.2847 49.3482ZM136.861 45.3979C136.351 47.5183 134.915 49.3949 132.785 50.3882L45.9558 90.8772C44.9172 88.65 42.2697 87.6864 40.0424 88.7249C38.3719 89.5039 37.4123 91.188 37.4751 92.921C37.4124 91.1881 38.372 89.5041 40.0425 88.7252C42.2697 87.6866 44.9172 88.6502 45.9558 90.8774L132.785 50.3884C134.915 49.3951 136.351 47.5184 136.861 45.3979ZM37.8901 94.6383L30.0148 98.3106C26.3045 100.041 21.8941 98.4355 20.1639 94.7251L6.35476 65.1113C5.97715 64.3015 5.75842 63.4584 5.68578 62.617C5.7584 63.4584 5.97714 64.3017 6.35478 65.1115L20.164 94.7254C21.8941 98.4357 26.3045 100.041 30.0149 98.3108L37.8902 94.6385C37.8902 94.6384 37.8901 94.6384 37.8901 94.6383Z"
            fill="#101013" />
    </g>
    <g filter="url(#filter1_f_2012_118549)">
        <path fill-rule="evenodd" clip-rule="evenodd"
            d="M24.407 44.6616C23.7113 44.986 23.4103 45.8129 23.7348 46.5086C24.4489 48.0402 23.7863 49.8607 22.2548 50.5749C20.7232 51.2891 18.9027 50.6264 18.1885 49.0949C17.8641 48.3992 17.0371 48.0982 16.3414 48.4226L8.46612 52.0949C4.06008 54.1495 2.15384 59.3869 4.20841 63.7929L18.0176 93.4068C20.0721 97.8128 25.3095 99.719 29.7155 97.6645L37.5909 93.9921C38.2865 93.6677 38.5875 92.8408 38.2631 92.1451C37.549 90.6135 38.2116 88.793 39.7431 88.0788C41.2747 87.3646 43.0952 88.0273 43.8094 89.5588C44.1338 90.2545 44.9608 90.5555 45.6564 90.2311L132.486 49.742C136.892 47.6875 138.798 42.4501 136.743 38.0441L122.934 8.43022C120.879 4.02418 115.642 2.11794 111.236 4.17251L24.407 44.6616ZM24.9945 45.9213C24.9944 45.9213 24.9944 45.9213 24.9944 45.9212L111.823 5.43217C114.606 4.13455 117.783 4.71309 119.927 6.64877C117.783 4.71314 114.606 4.1347 111.823 5.43231L24.9945 45.9213ZM25.377 48.358C25.191 49.8234 24.2798 51.1641 22.8421 51.8345C20.6149 52.8731 17.9674 51.9095 16.9288 49.6823L9.0535 53.3546C6.73454 54.4359 5.23787 56.5643 4.86388 58.9143C5.23791 56.5643 6.73457 54.4361 9.05348 53.3547L16.9288 49.6824C17.9674 51.9097 20.6149 52.8733 22.8421 51.8347C24.2799 51.1643 25.191 49.8234 25.377 48.358ZM37.0034 92.7325L37.0035 92.7325C36.7631 92.2169 36.6299 91.6789 36.5949 91.1434C36.6299 91.6789 36.763 92.217 37.0034 92.7325ZM135.769 39.3345C135.687 39.098 135.592 38.8634 135.484 38.6315L121.674 9.01761C121.674 9.01764 121.674 9.01771 121.674 9.01775L135.484 38.6316C135.592 38.8635 135.687 39.098 135.769 39.3345Z"
            fill="url(#paint0_linear_2012_118549)" />
    </g>
    <g filter="url(#filter2_i_2012_118549)">
        <path fill-rule="evenodd" clip-rule="evenodd"
            d="M39.0423 86.8724C39.079 86.8541 39.116 86.8362 39.1533 86.8188C41.3806 85.7802 44.0281 86.7438 45.0666 88.971L45.0668 88.9714L124.114 52.1113C132.122 48.3768 135.587 38.8571 131.853 30.8484L125.302 16.8001C121.567 8.79144 112.048 5.32655 104.039 9.06104L24.9921 45.9212C26.0305 48.1483 25.0669 50.7956 22.8397 51.8341C22.8024 51.8516 22.7649 51.8684 22.7273 51.8847L39.0423 86.8724Z"
            fill="url(#paint1_linear_2012_118549)" />
    </g>
    <path fill-rule="evenodd" clip-rule="evenodd"
        d="M135.622 38.9511C135.578 38.8441 135.531 38.7377 135.482 38.6318L133.299 33.9503L130.274 38.0967L132.392 32.0058L130.811 28.6161L122.377 52.9216L127.107 50.7161L135.622 38.9511ZM120.368 53.8583L129.857 26.5703L127.354 21.2014L114.07 39.4648L123.375 12.6684L121.77 9.22791L103.532 61.7091L104.369 61.3188L124.758 33.2305L117.066 55.3982L120.368 53.8583ZM98.2406 64.1765L101.586 62.6165L119.395 11.3292L97.6072 41.3859L109.739 6.40364L106.528 7.90097L86.8188 64.5406L108.421 34.8818L98.2406 64.1765ZM101.106 10.4293L93.1067 14.1593L88.2977 27.9571L101.106 10.4293ZM69.27 25.2745L71.7853 24.1016L63.8983 46.9208L84.631 18.1116L85.4573 17.7263L63.8177 80.2282L60.7971 81.6367L76.5126 36.5462L55.1988 65.5923L69.27 25.2745ZM62.543 28.4114L66.4157 26.6055L46.4526 84.3637L68.5206 53.699L58.4727 82.7206L55.5484 84.0842L59.0668 73.9893L49.6364 86.841L45.067 88.9717C44.6789 88.1395 44.0662 87.4836 43.3346 87.0428L60.9855 36.4684L39.8164 65.2053L50.7689 33.9018L52.6817 33.0098L46.5974 50.6512L62.543 28.4114ZM33.4547 41.9755L28.8698 55.313L38.3638 41.9764L40.8146 38.5435L45.1626 36.516L37.0748 47.4448L26.9913 61.0292L26.3572 59.6694L32.3935 42.4704L33.4547 41.9755ZM27.2464 44.8705L28.0071 44.5157L24.3083 55.2757L23.9011 54.4023L27.2464 44.8705ZM29.779 67.0075L30.9936 69.6123L33.8669 61.2813L29.779 67.0075ZM39.0271 86.8402L43.5398 73.9099L37.0841 82.6735L35.4895 79.2538L51.3698 57.105L41.2423 86.4065C40.5452 86.3733 39.8301 86.5041 39.1537 86.8195C39.1163 86.8369 39.0792 86.8548 39.0425 86.8732L39.0271 86.8402ZM33.5989 75.1993L32.6706 73.2087L45.5761 36.3232L47.2808 35.5283L33.5989 75.1993ZM74.2131 75.3807L74.8862 73.4465L73.0902 75.9043L64.4105 79.9517L85.3702 50.9452L77.4138 73.8882L74.2131 75.3807ZM96.2838 65.089L101.95 48.7716L86.9749 69.4298L96.2838 65.089ZM82.7358 71.4065L102.816 13.5027L80.9021 43.8301L90.8029 15.2336L87.8581 16.6068L70.8522 65.3994L92.332 36.0041L79.4856 72.9221L82.7358 71.4065ZM77.6073 21.3868L74.4991 22.8362L72.6446 28.1498L77.6073 21.3868ZM111.8 5.4423L104.265 27.0978L119.447 6.25305C117.326 4.63994 114.404 4.22808 111.821 5.43247L111.8 5.4423ZM109.806 58.7834L115.086 56.3215L118.282 47.1308L109.806 58.7834ZM124.31 14.6747L120.468 25.7298L125.946 18.1833L124.31 14.6747ZM133.06 47.8064L134.371 46.0101L134.032 46.9812C133.736 47.2807 133.411 47.5572 133.06 47.8064Z"
        fill="url(#paint2_linear_2012_118549)" />
    <path fill-rule="evenodd" clip-rule="evenodd"
        d="M135.622 38.9511C135.578 38.8441 135.531 38.7377 135.482 38.6318L133.299 33.9503L130.274 38.0967L132.392 32.0058L130.811 28.6161L122.377 52.9216L127.107 50.7161L135.622 38.9511ZM120.368 53.8583L129.857 26.5703L127.354 21.2014L114.07 39.4648L123.375 12.6684L121.77 9.22791L103.532 61.7091L104.369 61.3188L124.758 33.2305L117.066 55.3982L120.368 53.8583ZM98.2406 64.1765L101.586 62.6165L119.395 11.3292L97.6072 41.3859L109.739 6.40364L106.528 7.90097L86.8188 64.5406L108.421 34.8818L98.2406 64.1765ZM101.106 10.4293L93.1067 14.1593L88.2977 27.9571L101.106 10.4293ZM69.27 25.2745L71.7853 24.1016L63.8983 46.9208L84.631 18.1116L85.4573 17.7263L63.8177 80.2282L60.7971 81.6367L76.5126 36.5462L55.1988 65.5923L69.27 25.2745ZM62.543 28.4114L66.4157 26.6055L46.4526 84.3637L68.5206 53.699L58.4727 82.7206L55.5484 84.0842L59.0668 73.9893L49.6364 86.841L45.067 88.9717C44.6789 88.1395 44.0662 87.4836 43.3346 87.0428L60.9855 36.4684L39.8164 65.2053L50.7689 33.9018L52.6817 33.0098L46.5974 50.6512L62.543 28.4114ZM33.4547 41.9755L28.8698 55.313L38.3638 41.9764L40.8146 38.5435L45.1626 36.516L37.0748 47.4448L26.9913 61.0292L26.3572 59.6694L32.3935 42.4704L33.4547 41.9755ZM27.2464 44.8705L28.0071 44.5157L24.3083 55.2757L23.9011 54.4023L27.2464 44.8705ZM29.779 67.0075L30.9936 69.6123L33.8669 61.2813L29.779 67.0075ZM39.0271 86.8402L43.5398 73.9099L37.0841 82.6735L35.4895 79.2538L51.3698 57.105L41.2423 86.4065C40.5452 86.3733 39.8301 86.5041 39.1537 86.8195C39.1163 86.8369 39.0792 86.8548 39.0425 86.8732L39.0271 86.8402ZM33.5989 75.1993L32.6706 73.2087L45.5761 36.3232L47.2808 35.5283L33.5989 75.1993ZM74.2131 75.3807L74.8862 73.4465L73.0902 75.9043L64.4105 79.9517L85.3702 50.9452L77.4138 73.8882L74.2131 75.3807ZM96.2838 65.089L101.95 48.7716L86.9749 69.4298L96.2838 65.089ZM82.7358 71.4065L102.816 13.5027L80.9021 43.8301L90.8029 15.2336L87.8581 16.6068L70.8522 65.3994L92.332 36.0041L79.4856 72.9221L82.7358 71.4065ZM77.6073 21.3868L74.4991 22.8362L72.6446 28.1498L77.6073 21.3868ZM111.8 5.4423L104.265 27.0978L119.447 6.25305C117.326 4.63994 114.404 4.22808 111.821 5.43247L111.8 5.4423ZM109.806 58.7834L115.086 56.3215L118.282 47.1308L109.806 58.7834ZM124.31 14.6747L120.468 25.7298L125.946 18.1833L124.31 14.6747ZM133.06 47.8064L134.371 46.0101L134.032 46.9812C133.736 47.2807 133.411 47.5572 133.06 47.8064Z"
        fill="url(#paint3_linear_2012_118549)" />
    <path
        d="M119.807 22.437L129.334 42.8667L124.516 45.1133L119.424 34.1932L120.03 47.1939L114.475 49.784L108.982 38.8078L109.401 52.1501L103.677 54.8192L103.553 30.0166L109.095 27.4319L114.672 38.6523L114.166 25.0674L119.807 22.437Z"
        fill="#C085FF" />
    <path
        d="M93.9411 44.5384L97.9299 42.6784L98.0049 57.4642L92.4621 60.0489L86.8861 48.8297L87.3926 62.4128L81.7505 65.0438L72.2234 44.6129L77.0412 42.3664L82.1344 53.2888L81.5279 40.2869L87.0811 37.6974L92.5764 48.6742L92.1564 35.3308L98.2892 32.471L93.9411 44.5384Z"
        fill="#C085FF" />
    <path
        d="M94.3158 22.0816L94.3852 22.2303L91.3511 23.6451L89.8563 20.4396L90.1554 20.3002C91.0286 21.1419 92.5786 22.3047 94.3158 22.0816Z"
        fill="#C085FF" />
    <path
        d="M94.3846 22.2291L94.4529 22.3755C93.1647 23.5646 93.0579 25.4999 93.1432 26.7077L92.8442 26.8471L91.3506 23.6439L94.3846 22.2291Z"
        fill="#C085FF" />
    <path
        d="M91.3506 23.6439L92.8442 26.8471L92.5452 26.9865C91.6748 26.1448 90.1225 24.9832 88.3847 25.2051L88.3164 25.0587L91.3506 23.6439Z"
        fill="#C085FF" />
    <path
        d="M89.8563 20.4396L91.3506 23.6439L88.3164 25.0587L88.2472 24.91C89.5359 23.7221 89.6415 21.7874 89.5568 20.5779L89.8558 20.4384L89.8563 20.4396Z"
        fill="#C085FF" />
    <path fill-rule="evenodd" clip-rule="evenodd"
        d="M20.66 58.3844L10.3441 63.1948L11.4725 65.6147L21.7884 60.8043L20.66 58.3844ZM24.5206 66.6626L14.2046 71.473L16.5405 76.4823L26.8564 71.672L24.5206 66.6626ZM18.4016 80.4726L28.7176 75.6622L29.9052 78.2092L19.5893 83.0196L18.4016 80.4726ZM30.4588 79.3981L20.1429 84.2085L21.3306 86.7555L31.6465 81.9451L30.4588 79.3981ZM12.0264 66.8032L22.3423 61.9928L22.8768 63.1391L12.5609 67.9495L12.0264 66.8032ZM23.4314 64.3278L13.1155 69.1382L13.65 70.2845L23.9659 65.4741L23.4314 64.3278ZM17.094 77.6709L27.4099 72.8605L27.9444 74.0068L17.6285 78.8171L17.094 77.6709ZM32.2018 83.134L21.8858 87.9444L22.4204 89.0907L32.7363 84.2803L32.2018 83.134Z"
        fill="#D9D9D9" />
    <g filter="url(#filter3_d_2012_118549)">
        <rect x="34.7617" y="79.516" width="1.90475" height="5.72217" rx="0.952375"
            transform="rotate(-25 34.7617 79.516)" fill="#101013" />
    </g>
    <g filter="url(#filter4_d_2012_118549)">
        <rect x="22.9375" y="54.1645" width="1.90475" height="5.72217" rx="0.952375"
            transform="rotate(-25 22.9375 54.1645)" fill="#101013" />
    </g>
    <g filter="url(#filter5_d_2012_118549)">
        <rect x="26.8809" y="62.6148" width="1.90475" height="5.72217" rx="0.952375"
            transform="rotate(-25 26.8809 62.6148)" fill="#101013" />
    </g>
    <g filter="url(#filter6_d_2012_118549)">
        <rect x="30.8203" y="71.0656" width="1.90475" height="5.72217" rx="0.952375"
            transform="rotate(-25 30.8203 71.0656)" fill="#101013" />
    </g>
    <defs>
        <filter id="filter0_i_2012_118549" x="3.26758" y="4.25168" width="135.189" height="96.1456"
            filterUnits="userSpaceOnUse" color-interpolation-filters="sRGB">
            <feFlood flood-opacity="0" result="BackgroundImageFix" />
            <feBlend mode="normal" in="SourceGraphic" in2="BackgroundImageFix" result="shape" />
            <feColorMatrix in="SourceAlpha" type="matrix"
                values="0 0 0 0 0 0 0 0 0 0 0 0 0 0 0 0 0 0 127 0" result="hardAlpha" />
            <feOffset dx="-1" dy="-1" />
            <feGaussianBlur stdDeviation="0.6" />
            <feComposite in2="hardAlpha" operator="arithmetic" k2="-1" k3="1" />
            <feColorMatrix type="matrix"
                values="0 0 0 0 0.221111 0 0 0 0 0.2325 0 0 0 0 0.266667 0 0 0 0.63 0" />
            <feBlend mode="normal" in2="shape" result="effect1_innerShadow_2012_118549" />
        </filter>
        <filter id="filter1_f_2012_118549" x="2.78086" y="2.74567" width="135.389" height="96.3456"
            filterUnits="userSpaceOnUse" color-interpolation-filters="sRGB">
            <feFlood flood-opacity="0" result="BackgroundImageFix" />
            <feBlend mode="normal" in="SourceGraphic" in2="BackgroundImageFix" result="shape" />
            <feGaussianBlur stdDeviation="0.3" result="effect1_foregroundBlur_2012_118549" />
        </filter>
        <filter id="filter2_i_2012_118549" x="22.7266" y="6.55817" width="110.629" height="82.4132"
            filterUnits="userSpaceOnUse" color-interpolation-filters="sRGB">
            <feFlood flood-opacity="0" result="BackgroundImageFix" />
            <feBlend mode="normal" in="SourceGraphic" in2="BackgroundImageFix" result="shape" />
            <feColorMatrix in="SourceAlpha" type="matrix"
                values="0 0 0 0 0 0 0 0 0 0 0 0 0 0 0 0 0 0 127 0" result="hardAlpha" />
            <feOffset dy="-1" />
            <feGaussianBlur stdDeviation="0.5" />
            <feComposite in2="hardAlpha" operator="arithmetic" k2="-1" k3="1" />
            <feColorMatrix type="matrix"
                values="0 0 0 0 0.482353 0 0 0 0 0.513726 0 0 0 0 0.639216 0 0 0 0.58 0" />
            <feBlend mode="multiply" in2="shape" result="effect1_innerShadow_2012_118549" />
        </filter>
        <filter id="filter3_d_2012_118549" x="34.3742" y="79.024" width="4.91953" height="7.06493"
            filterUnits="userSpaceOnUse" color-interpolation-filters="sRGB">
            <feFlood flood-opacity="0" result="BackgroundImageFix" />
            <feColorMatrix in="SourceAlpha" type="matrix"
                values="0 0 0 0 0 0 0 0 0 0 0 0 0 0 0 0 0 0 127 0" result="hardAlpha" />
            <feOffset dy="1" />
            <feGaussianBlur stdDeviation="0.35" />
            <feComposite in2="hardAlpha" operator="out" />
            <feColorMatrix type="matrix"
                values="0 0 0 0 0.292969 0 0 0 0 0.297852 0 0 0 0 0.3125 0 0 0 1 0" />
            <feBlend mode="normal" in2="BackgroundImageFix" result="effect1_dropShadow_2012_118549" />
            <feBlend mode="normal" in="SourceGraphic" in2="effect1_dropShadow_2012_118549"
                result="shape" />
        </filter>
        <filter id="filter4_d_2012_118549" x="22.55" y="53.6725" width="4.91953" height="7.06493"
            filterUnits="userSpaceOnUse" color-interpolation-filters="sRGB">
            <feFlood flood-opacity="0" result="BackgroundImageFix" />
            <feColorMatrix in="SourceAlpha" type="matrix"
                values="0 0 0 0 0 0 0 0 0 0 0 0 0 0 0 0 0 0 127 0" result="hardAlpha" />
            <feOffset dy="1" />
            <feGaussianBlur stdDeviation="0.35" />
            <feComposite in2="hardAlpha" operator="out" />
            <feColorMatrix type="matrix"
                values="0 0 0 0 0.292969 0 0 0 0 0.297852 0 0 0 0 0.3125 0 0 0 1 0" />
            <feBlend mode="normal" in2="BackgroundImageFix" result="effect1_dropShadow_2012_118549" />
            <feBlend mode="normal" in="SourceGraphic" in2="effect1_dropShadow_2012_118549"
                result="shape" />
        </filter>
        <filter id="filter5_d_2012_118549" x="26.4934" y="62.1229" width="4.91953" height="7.06493"
            filterUnits="userSpaceOnUse" color-interpolation-filters="sRGB">
            <feFlood flood-opacity="0" result="BackgroundImageFix" />
            <feColorMatrix in="SourceAlpha" type="matrix"
                values="0 0 0 0 0 0 0 0 0 0 0 0 0 0 0 0 0 0 127 0" result="hardAlpha" />
            <feOffset dy="1" />
            <feGaussianBlur stdDeviation="0.35" />
            <feComposite in2="hardAlpha" operator="out" />
            <feColorMatrix type="matrix"
                values="0 0 0 0 0.292969 0 0 0 0 0.297852 0 0 0 0 0.3125 0 0 0 1 0" />
            <feBlend mode="normal" in2="BackgroundImageFix" result="effect1_dropShadow_2012_118549" />
            <feBlend mode="normal" in="SourceGraphic" in2="effect1_dropShadow_2012_118549"
                result="shape" />
        </filter>
        <filter id="filter6_d_2012_118549" x="30.4328" y="70.5737" width="4.91953" height="7.06493"
            filterUnits="userSpaceOnUse" color-interpolation-filters="sRGB">
            <feFlood flood-opacity="0" result="BackgroundImageFix" />
            <feColorMatrix in="SourceAlpha" type="matrix"
                values="0 0 0 0 0 0 0 0 0 0 0 0 0 0 0 0 0 0 127 0" result="hardAlpha" />
            <feOffset dy="1" />
            <feGaussianBlur stdDeviation="0.35" />
            <feComposite in2="hardAlpha" operator="out" />
            <feColorMatrix type="matrix"
                values="0 0 0 0 0.292969 0 0 0 0 0.297852 0 0 0 0 0.3125 0 0 0 1 0" />
            <feBlend mode="normal" in2="BackgroundImageFix" result="effect1_dropShadow_2012_118549" />
            <feBlend mode="normal" in="SourceGraphic" in2="effect1_dropShadow_2012_118549"
                result="shape" />
        </filter>
        <linearGradient id="paint0_linear_2012_118549" x1="114.258" y1="15.6941" x2="107.437"
            y2="93.7708" gradientUnits="userSpaceOnUse">
            <stop stop-color="#161920" />
            <stop offset="0.47" stop-color="#1F222C" />
            <stop offset="1" stop-color="#24262D" />
        </linearGradient>
        <linearGradient id="paint1_linear_2012_118549" x1="118.345" y1="5.90021" x2="18.119"
            y2="92.4592" gradientUnits="userSpaceOnUse">
            <stop stop-color="#0B0012" />
            <stop offset="1" stop-color="#6400A0" />
        </linearGradient>
        <linearGradient id="paint2_linear_2012_118549" x1="38.4089" y1="35.7637" x2="89.7683"
            y2="68.1272" gradientUnits="userSpaceOnUse">
            <stop stop-color="#BD52FD" />
            <stop offset="1" stop-color="#8800FF" stop-opacity="0" />
        </linearGradient>
        <linearGradient id="paint3_linear_2012_118549" x1="156.082" y1="69.2022" x2="86.1252"
            y2="40.0571" gradientUnits="userSpaceOnUse">
            <stop stop-color="#52ABFD" />
            <stop offset="1" stop-color="#8800FF" stop-opacity="0" />
        </linearGradient>
    </defs>
</svg>