<svg xmlns="http://www.w3.org/2000/svg" width="142" height="104" viewBox="0 0 142 104" fill="none">
    <g filter="url(#filter0_i_2012_118789)">
        <path fill-rule="evenodd" clip-rule="evenodd"
            d="M25.5633 47.1008C24.8676 47.4252 24.5666 48.2521 24.891 48.9478C25.6052 50.4794 24.9426 52.2999 23.411 53.0141C21.8795 53.7283 20.0589 53.0656 19.3448 51.5341C19.0203 50.8384 18.1934 50.5374 17.4977 50.8618L9.62237 54.5341C5.21633 56.5887 3.31009 61.8261 5.36466 66.2321L19.1738 95.846C21.2284 100.252 26.4658 102.158 30.8718 100.104L38.7471 96.4314C39.4428 96.107 39.7438 95.28 39.4194 94.5843C38.7052 93.0528 39.3679 91.2323 40.8994 90.5181C42.431 89.8039 44.2515 90.4665 44.9657 91.9981C45.2901 92.6938 46.1171 92.9947 46.8127 92.6703L133.642 52.1812C138.048 50.1267 139.954 44.8893 137.9 40.4833L124.09 10.8694C122.036 6.46334 116.798 4.5571 112.392 6.61167L25.5633 47.1008ZM26.5542 49.8814C26.5127 49.3685 26.3809 48.8541 26.1507 48.3604L26.1508 48.3604C26.381 48.8541 26.5128 49.3685 26.5542 49.8814ZM137.131 45.9312C136.621 48.0516 135.185 49.9281 133.054 50.9213L46.2253 91.4105C45.1867 89.1832 42.5393 88.2196 40.312 89.2582C38.6415 90.0372 37.6819 91.7212 37.7447 93.4542C37.682 91.7213 38.6416 90.0373 40.312 89.2584C42.5393 88.2198 45.1868 89.1834 46.2254 91.4107L133.055 50.9216C135.185 49.9283 136.621 48.0516 137.131 45.9312ZM38.1597 95.1715L30.2844 98.8438C26.5741 100.574 22.1636 98.9687 20.4335 95.2584L6.6243 65.6445C6.24669 64.8347 6.02796 63.9916 5.95531 63.1502C6.02794 63.9916 6.24667 64.8349 6.62432 65.6447L20.4335 95.2586C22.1637 98.969 26.5741 100.574 30.2844 98.8441L38.1598 95.1717C38.1597 95.1717 38.1597 95.1716 38.1597 95.1715Z"
            fill="#101013" />
    </g>
    <g filter="url(#filter1_f_2012_118789)">
        <path fill-rule="evenodd" clip-rule="evenodd"
            d="M24.6766 45.1948C23.9809 45.5192 23.6799 46.3461 24.0043 47.0418C24.7185 48.5734 24.0559 50.3939 22.5243 51.1081C20.9927 51.8223 19.1722 51.1596 18.458 49.6281C18.1336 48.9324 17.3067 48.6314 16.611 48.9558L8.73566 52.6281C4.32961 54.6827 2.42337 59.9201 4.47794 64.3261L18.2871 93.94C20.3417 98.346 25.5791 100.252 29.9851 98.1977L37.8604 94.5254C38.5561 94.201 38.8571 93.374 38.5327 92.6783C37.8185 91.1468 38.4811 89.3262 40.0127 88.6121C41.5443 87.8979 43.3648 88.5605 44.079 90.0921C44.4034 90.7878 45.2303 91.0887 45.926 90.7643L132.755 50.2752C137.161 48.2207 139.067 42.9833 137.013 38.5773L123.204 8.96337C121.149 4.55733 115.912 2.65109 111.506 4.70566L24.6766 45.1948ZM25.264 46.4545C25.264 46.4545 25.264 46.4545 25.264 46.4544L112.093 5.96532C114.876 4.66769 118.052 5.24624 120.197 7.18193C118.052 5.24629 114.876 4.66785 112.093 5.96546L25.264 46.4545ZM25.6413 48.931C25.444 50.3808 24.5363 51.7034 23.1117 52.3677C20.8844 53.4063 18.237 52.4427 17.1984 50.2155L9.32304 53.8878C7.00408 54.9691 5.50741 57.0975 5.13342 59.4475C5.50745 57.0975 7.0041 54.9693 9.32303 53.8879L17.1984 50.2156C18.2369 52.4429 20.8844 53.4065 23.1117 52.3679C24.5364 51.7035 25.444 50.3809 25.6413 48.931ZM37.273 93.2658L37.273 93.2657C37.0274 92.7389 36.8937 92.1885 36.8623 91.6415C36.8937 92.1885 37.0273 92.7389 37.273 93.2658ZM136.248 40.5822C136.134 40.1032 135.97 39.6284 135.753 39.1647L121.944 9.55076C121.944 9.5508 121.944 9.55087 121.944 9.5509L135.753 39.1648C135.969 39.6285 136.134 40.1032 136.248 40.5822Z"
            fill="url(#paint0_linear_2012_118789)" />
    </g>
    <g filter="url(#filter2_i_2012_118789)">
        <path fill-rule="evenodd" clip-rule="evenodd"
            d="M39.3138 87.4059C39.3504 87.3876 39.3874 87.3698 39.4247 87.3524C41.6519 86.3138 44.2994 87.2774 45.338 89.5047L45.3382 89.505L124.385 52.6448C132.394 48.9103 135.859 39.3907 132.124 31.382L125.573 17.3336C121.839 9.32497 112.319 5.86009 104.31 9.59458L25.2635 46.4547C26.3018 48.6819 25.3382 51.3292 23.1111 52.3677C23.0738 52.3851 23.0363 52.4019 22.9988 52.4182L39.3138 87.4059Z"
            fill="url(#paint1_linear_2012_118789)" />
    </g>
    <path fill-rule="evenodd" clip-rule="evenodd"
        d="M135.891 39.4845C135.847 39.3775 135.801 39.2709 135.751 39.165L133.568 34.4837L130.543 38.6303L132.662 32.5391L131.081 29.1494L122.647 53.4548L127.377 51.2491L135.891 39.4845ZM120.638 54.3914L130.127 27.1036L127.623 21.7349L114.339 39.9984L123.644 13.2017L122.04 9.76124L103.802 62.2422L104.639 61.8518L125.028 33.7641L117.335 55.9314L120.638 54.3914ZM98.5103 64.7097L101.856 63.1496L119.665 11.8627L97.8768 41.9195L110.009 6.93672L106.798 8.43405L87.0884 65.0742L108.691 35.4154L98.5103 64.7097ZM101.376 10.9623L93.3765 14.6924L88.5673 28.4907L101.376 10.9623ZM69.5398 25.8076L72.0551 24.6347L64.1679 47.4544L84.9011 18.6445L85.727 18.2594L64.0874 80.7613L61.0668 82.1698L76.7822 37.0798L55.4684 66.1259L69.5398 25.8076ZM62.813 28.9444L66.6855 27.1386L46.7222 84.8973L68.7902 54.2326L58.7424 83.2537L55.8182 84.6173L59.3364 74.523L49.9065 87.374L45.3366 89.505C44.9485 88.6727 44.3358 88.0169 43.6043 87.5761L61.255 37.0019L40.086 65.739L51.0386 34.4349L52.9515 33.5429L46.867 51.1848L62.813 28.9444ZM33.7244 42.5086L29.1393 55.8466L38.6334 42.51L41.0846 39.0765L45.4326 37.049L37.3443 47.9784L27.2609 61.5627L26.6268 60.2028L32.6632 43.0035L33.7244 42.5086ZM27.5161 45.4036L28.2768 45.0489L24.5779 55.8091L24.1707 54.9357L27.5161 45.4036ZM30.0486 67.541L31.2632 70.1457L34.1364 61.8149L30.0486 67.541ZM39.2967 87.3736L43.8094 74.4435L37.3538 83.2069L35.7592 79.7873L51.6394 57.6386L41.512 86.9398C40.8149 86.9065 40.0997 87.0373 39.4233 87.3527C39.3858 87.3702 39.3488 87.3881 39.312 87.4064L39.2967 87.3736ZM33.8685 75.7327L32.9402 73.7421L45.8458 36.8563L47.5505 36.0614L33.8685 75.7327ZM74.4829 75.9138L75.1558 73.9802L73.3603 76.4373L64.6806 80.4847L85.6398 51.4788L77.6836 74.4213L74.4829 75.9138ZM96.5535 65.6221L102.219 49.3052L87.245 69.9628L96.5535 65.6221ZM83.0056 71.9397L103.086 14.0362L81.1717 44.3637L91.0727 15.7667L88.1278 17.1399L71.1218 65.933L92.6016 36.5377L79.7554 73.4552L83.0056 71.9397ZM77.8773 21.9198L74.7689 23.3693L72.9142 28.6834L77.8773 21.9198ZM112.07 5.97538L104.534 27.6314L119.717 6.78636C117.596 5.17313 114.674 4.76119 112.091 5.96562L112.07 5.97538ZM110.076 59.3164L115.355 56.8547L118.551 47.6645L110.076 59.3164ZM124.58 15.2081L120.738 26.2634L126.216 18.7168L124.58 15.2081ZM133.33 48.3391L134.64 46.5437L134.302 47.5142C134.006 47.8136 133.682 48.09 133.33 48.3391Z"
        fill="url(#paint2_linear_2012_118789)" />
    <path fill-rule="evenodd" clip-rule="evenodd"
        d="M135.891 39.4845C135.847 39.3775 135.801 39.2709 135.751 39.165L133.568 34.4837L130.543 38.6303L132.662 32.5391L131.081 29.1494L122.647 53.4548L127.377 51.2491L135.891 39.4845ZM120.638 54.3914L130.127 27.1036L127.623 21.7349L114.339 39.9984L123.644 13.2017L122.04 9.76124L103.802 62.2422L104.639 61.8518L125.028 33.7641L117.335 55.9314L120.638 54.3914ZM98.5103 64.7097L101.856 63.1496L119.665 11.8627L97.8768 41.9195L110.009 6.93672L106.798 8.43405L87.0884 65.0742L108.691 35.4154L98.5103 64.7097ZM101.376 10.9623L93.3765 14.6924L88.5673 28.4907L101.376 10.9623ZM69.5398 25.8076L72.0551 24.6347L64.1679 47.4544L84.9011 18.6445L85.727 18.2594L64.0874 80.7613L61.0668 82.1698L76.7822 37.0798L55.4684 66.1259L69.5398 25.8076ZM62.813 28.9444L66.6855 27.1386L46.7222 84.8973L68.7902 54.2326L58.7424 83.2537L55.8182 84.6173L59.3364 74.523L49.9065 87.374L45.3366 89.505C44.9485 88.6727 44.3358 88.0169 43.6043 87.5761L61.255 37.0019L40.086 65.739L51.0386 34.4349L52.9515 33.5429L46.867 51.1848L62.813 28.9444ZM33.7244 42.5086L29.1393 55.8466L38.6334 42.51L41.0846 39.0765L45.4326 37.049L37.3443 47.9784L27.2609 61.5627L26.6268 60.2028L32.6632 43.0035L33.7244 42.5086ZM27.5161 45.4036L28.2768 45.0489L24.5779 55.8091L24.1707 54.9357L27.5161 45.4036ZM30.0486 67.541L31.2632 70.1457L34.1364 61.8149L30.0486 67.541ZM39.2967 87.3736L43.8094 74.4435L37.3538 83.2069L35.7592 79.7873L51.6394 57.6386L41.512 86.9398C40.8149 86.9065 40.0997 87.0373 39.4233 87.3527C39.3858 87.3702 39.3488 87.3881 39.312 87.4064L39.2967 87.3736ZM33.8685 75.7327L32.9402 73.7421L45.8458 36.8563L47.5505 36.0614L33.8685 75.7327ZM74.4829 75.9138L75.1558 73.9802L73.3603 76.4373L64.6806 80.4847L85.6398 51.4788L77.6836 74.4213L74.4829 75.9138ZM96.5535 65.6221L102.219 49.3052L87.245 69.9628L96.5535 65.6221ZM83.0056 71.9397L103.086 14.0362L81.1717 44.3637L91.0727 15.7667L88.1278 17.1399L71.1218 65.933L92.6016 36.5377L79.7554 73.4552L83.0056 71.9397ZM77.8773 21.9198L74.7689 23.3693L72.9142 28.6834L77.8773 21.9198ZM112.07 5.97538L104.534 27.6314L119.717 6.78636C117.596 5.17313 114.674 4.76119 112.091 5.96562L112.07 5.97538ZM110.076 59.3164L115.355 56.8547L118.551 47.6645L110.076 59.3164ZM124.58 15.2081L120.738 26.2634L126.216 18.7168L124.58 15.2081ZM133.33 48.3391L134.64 46.5437L134.302 47.5142C134.006 47.8136 133.682 48.09 133.33 48.3391Z"
        fill="url(#paint3_linear_2012_118789)" />
    <path
        d="M120.077 22.9698L129.603 43.3995L124.785 45.6461L119.693 34.726L120.299 47.7267L114.745 50.3168L109.251 39.3406L109.671 52.6829L103.947 55.352L103.822 30.5493L109.365 27.9647L114.942 39.1851L114.436 25.6002L120.077 22.9698Z"
        fill="#4ACCC4" />
    <path
        d="M94.2106 45.0712L98.1995 43.2112L98.2745 57.997L92.7316 60.5817L87.1557 49.3625L87.6621 62.9457L82.02 65.5766L72.4929 45.1457L77.3107 42.8991L82.4039 53.8216L81.7975 40.8197L87.3507 38.2302L92.846 49.207L92.426 35.8635L98.5588 33.0038L94.2106 45.0712Z"
        fill="#4ACCC4" />
    <path
        d="M94.5854 22.6143L94.6547 22.7631L91.6207 24.1779L90.1259 20.9724L90.4249 20.8329C91.2982 21.6747 92.8481 22.8374 94.5854 22.6143Z"
        fill="#4ACCC4" />
    <path
        d="M94.6542 22.7619L94.7225 22.9083C93.4343 24.0974 93.3275 26.0327 93.4128 27.2404L93.1138 27.3799L91.6201 24.1767L94.6542 22.7619Z"
        fill="#4ACCC4" />
    <path
        d="M91.6201 24.1767L93.1138 27.3799L92.8147 27.5193C91.9443 26.6776 90.3921 25.516 88.6543 25.7379L88.586 25.5915L91.6201 24.1767Z"
        fill="#4ACCC4" />
    <path
        d="M90.1259 20.9724L91.6201 24.1767L88.586 25.5915L88.5167 25.4428C89.8055 24.2549 89.9111 22.3201 89.8264 21.1106L90.1254 20.9712L90.1259 20.9724Z"
        fill="#4ACCC4" />
    <path fill-rule="evenodd" clip-rule="evenodd"
        d="M20.9293 58.9174L10.6133 63.7278L11.7417 66.1476L22.0577 61.3372L20.9293 58.9174ZM24.7898 67.196L14.4739 72.0064L16.8098 77.0157L27.1257 72.2053L24.7898 67.196ZM18.6709 81.0056L28.9868 76.1952L30.1745 78.7422L19.8586 83.5526L18.6709 81.0056ZM30.7298 79.9314L20.4139 84.7418L21.6015 87.2888L31.9175 82.4784L30.7298 79.9314ZM12.2973 67.3359L22.6133 62.5255L23.1478 63.6718L12.8319 68.4822L12.2973 67.3359ZM23.7007 64.8608L13.3847 69.6712L13.9193 70.8175L24.2352 66.0071L23.7007 64.8608ZM17.365 78.2041L27.6809 73.3937L28.2154 74.54L17.8995 79.3504L17.365 78.2041ZM32.471 83.667L22.1551 88.4774L22.6896 89.6236L33.0055 84.8132L32.471 83.667Z"
        fill="#D9D9D9" />
    <g filter="url(#filter3_d_2012_118789)">
        <rect x="35.0312" y="80.0492" width="1.90475" height="5.72217" rx="0.952376"
            transform="rotate(-25 35.0312 80.0492)" fill="#101013" />
    </g>
    <g filter="url(#filter4_d_2012_118789)">
        <rect x="23.209" y="54.6973" width="1.90475" height="5.72217" rx="0.952376"
            transform="rotate(-25 23.209 54.6973)" fill="#101013" />
    </g>
    <g filter="url(#filter5_d_2012_118789)">
        <rect x="27.1504" y="63.1476" width="1.90475" height="5.72217" rx="0.952376"
            transform="rotate(-25 27.1504 63.1476)" fill="#101013" />
    </g>
    <g filter="url(#filter6_d_2012_118789)">
        <rect x="31.0898" y="71.5988" width="1.90475" height="5.72217" rx="0.952376"
            transform="rotate(-25 31.0898 71.5988)" fill="#101013" />
    </g>
    <defs>
        <filter id="filter0_i_2012_118789" x="3.53711" y="4.78482" width="135.189" height="96.1457"
            filterUnits="userSpaceOnUse" color-interpolation-filters="sRGB">
            <feFlood flood-opacity="0" result="BackgroundImageFix" />
            <feBlend mode="normal" in="SourceGraphic" in2="BackgroundImageFix" result="shape" />
            <feColorMatrix in="SourceAlpha" type="matrix"
                values="0 0 0 0 0 0 0 0 0 0 0 0 0 0 0 0 0 0 127 0" result="hardAlpha" />
            <feOffset dx="-1" dy="-1" />
            <feGaussianBlur stdDeviation="0.6" />
            <feComposite in2="hardAlpha" operator="arithmetic" k2="-1" k3="1" />
            <feColorMatrix type="matrix"
                values="0 0 0 0 0.221111 0 0 0 0 0.2325 0 0 0 0 0.266667 0 0 0 0.63 0" />
            <feBlend mode="normal" in2="shape" result="effect1_innerShadow_2012_118789" />
        </filter>
        <filter id="filter1_f_2012_118789" x="3.05039" y="3.27881" width="135.389" height="96.3457"
            filterUnits="userSpaceOnUse" color-interpolation-filters="sRGB">
            <feFlood flood-opacity="0" result="BackgroundImageFix" />
            <feBlend mode="normal" in="SourceGraphic" in2="BackgroundImageFix" result="shape" />
            <feGaussianBlur stdDeviation="0.3" result="effect1_foregroundBlur_2012_118789" />
        </filter>
        <filter id="filter2_i_2012_118789" x="22.998" y="7.09167" width="110.629" height="82.4133"
            filterUnits="userSpaceOnUse" color-interpolation-filters="sRGB">
            <feFlood flood-opacity="0" result="BackgroundImageFix" />
            <feBlend mode="normal" in="SourceGraphic" in2="BackgroundImageFix" result="shape" />
            <feColorMatrix in="SourceAlpha" type="matrix"
                values="0 0 0 0 0 0 0 0 0 0 0 0 0 0 0 0 0 0 127 0" result="hardAlpha" />
            <feOffset dy="-1" />
            <feGaussianBlur stdDeviation="0.5" />
            <feComposite in2="hardAlpha" operator="arithmetic" k2="-1" k3="1" />
            <feColorMatrix type="matrix"
                values="0 0 0 0 0.482353 0 0 0 0 0.513726 0 0 0 0 0.639216 0 0 0 0.58 0" />
            <feBlend mode="multiply" in2="shape" result="effect1_innerShadow_2012_118789" />
        </filter>
        <filter id="filter3_d_2012_118789" x="34.6438" y="79.5573" width="4.91953" height="7.06493"
            filterUnits="userSpaceOnUse" color-interpolation-filters="sRGB">
            <feFlood flood-opacity="0" result="BackgroundImageFix" />
            <feColorMatrix in="SourceAlpha" type="matrix"
                values="0 0 0 0 0 0 0 0 0 0 0 0 0 0 0 0 0 0 127 0" result="hardAlpha" />
            <feOffset dy="1" />
            <feGaussianBlur stdDeviation="0.35" />
            <feComposite in2="hardAlpha" operator="out" />
            <feColorMatrix type="matrix"
                values="0 0 0 0 0.292969 0 0 0 0 0.297852 0 0 0 0 0.3125 0 0 0 1 0" />
            <feBlend mode="normal" in2="BackgroundImageFix" result="effect1_dropShadow_2012_118789" />
            <feBlend mode="normal" in="SourceGraphic" in2="effect1_dropShadow_2012_118789"
                result="shape" />
        </filter>
        <filter id="filter4_d_2012_118789" x="22.8215" y="54.2053" width="4.91953" height="7.06493"
            filterUnits="userSpaceOnUse" color-interpolation-filters="sRGB">
            <feFlood flood-opacity="0" result="BackgroundImageFix" />
            <feColorMatrix in="SourceAlpha" type="matrix"
                values="0 0 0 0 0 0 0 0 0 0 0 0 0 0 0 0 0 0 127 0" result="hardAlpha" />
            <feOffset dy="1" />
            <feGaussianBlur stdDeviation="0.35" />
            <feComposite in2="hardAlpha" operator="out" />
            <feColorMatrix type="matrix"
                values="0 0 0 0 0.292969 0 0 0 0 0.297852 0 0 0 0 0.3125 0 0 0 1 0" />
            <feBlend mode="normal" in2="BackgroundImageFix" result="effect1_dropShadow_2012_118789" />
            <feBlend mode="normal" in="SourceGraphic" in2="effect1_dropShadow_2012_118789"
                result="shape" />
        </filter>
        <filter id="filter5_d_2012_118789" x="26.7629" y="62.6556" width="4.91953" height="7.06493"
            filterUnits="userSpaceOnUse" color-interpolation-filters="sRGB">
            <feFlood flood-opacity="0" result="BackgroundImageFix" />
            <feColorMatrix in="SourceAlpha" type="matrix"
                values="0 0 0 0 0 0 0 0 0 0 0 0 0 0 0 0 0 0 127 0" result="hardAlpha" />
            <feOffset dy="1" />
            <feGaussianBlur stdDeviation="0.35" />
            <feComposite in2="hardAlpha" operator="out" />
            <feColorMatrix type="matrix"
                values="0 0 0 0 0.292969 0 0 0 0 0.297852 0 0 0 0 0.3125 0 0 0 1 0" />
            <feBlend mode="normal" in2="BackgroundImageFix" result="effect1_dropShadow_2012_118789" />
            <feBlend mode="normal" in="SourceGraphic" in2="effect1_dropShadow_2012_118789"
                result="shape" />
        </filter>
        <filter id="filter6_d_2012_118789" x="30.7023" y="71.1069" width="4.91953" height="7.06493"
            filterUnits="userSpaceOnUse" color-interpolation-filters="sRGB">
            <feFlood flood-opacity="0" result="BackgroundImageFix" />
            <feColorMatrix in="SourceAlpha" type="matrix"
                values="0 0 0 0 0 0 0 0 0 0 0 0 0 0 0 0 0 0 127 0" result="hardAlpha" />
            <feOffset dy="1" />
            <feGaussianBlur stdDeviation="0.35" />
            <feComposite in2="hardAlpha" operator="out" />
            <feColorMatrix type="matrix"
                values="0 0 0 0 0.292969 0 0 0 0 0.297852 0 0 0 0 0.3125 0 0 0 1 0" />
            <feBlend mode="normal" in2="BackgroundImageFix" result="effect1_dropShadow_2012_118789" />
            <feBlend mode="normal" in="SourceGraphic" in2="effect1_dropShadow_2012_118789"
                result="shape" />
        </filter>
        <linearGradient id="paint0_linear_2012_118789" x1="114.528" y1="16.2272" x2="107.707"
            y2="94.3041" gradientUnits="userSpaceOnUse">
            <stop stop-color="#161920" />
            <stop offset="0.47" stop-color="#1F222C" />
            <stop offset="1" stop-color="#24262D" />
        </linearGradient>
        <linearGradient id="paint1_linear_2012_118789" x1="118.616" y1="6.43374" x2="18.3905"
            y2="92.9926" gradientUnits="userSpaceOnUse">
            <stop stop-color="#0B0012" />
            <stop offset="1" stop-color="#002936" />
        </linearGradient>
        <linearGradient id="paint2_linear_2012_118789" x1="27.3425" y1="40.7641" x2="90.0379"
            y2="68.6604" gradientUnits="userSpaceOnUse">
            <stop stop-color="#5AD6FF" />
            <stop offset="1" stop-color="#5AD6FF" stop-opacity="0" />
        </linearGradient>
        <linearGradient id="paint3_linear_2012_118789" x1="156.351" y1="69.7354" x2="86.3948"
            y2="40.5903" gradientUnits="userSpaceOnUse">
            <stop stop-color="#52ABFD" />
            <stop offset="1" stop-color="#1178B1" stop-opacity="0" />
        </linearGradient>
    </defs>
</svg>