<svg xmlns="http://www.w3.org/2000/svg" width="21" height="21" viewBox="0 0 21 21" fill="none">
    <path
        d="M19.9859 9.17247V5.62318C19.9859 4.78309 19.3049 4.10205 18.4648 4.10205H1.52113C0.681042 4.10205 0 4.78309 0 5.62318V9.21473L19.9859 9.17247Z"
        fill="#724D44" />
    <path
        d="M18.3638 3.53108V6.00333L17.8889 7.27093H1.62207L1.90103 3.54307C2.73951 3.53953 2.89859 2.90978 3.43284 2.33424C3.91927 1.81026 4.53976 1.40462 4.55404 0.630371H15.4626V0.649385C15.4626 1.44523 16.0296 1.70488 16.5512 2.22633C17.0728 2.74778 17.5489 3.53108 18.3447 3.53108H18.3638Z"
        fill="#9BCE60" />
    <path
        d="M18.3638 1.21098V3.53112H18.3447C16.7531 3.53112 15.4626 2.24112 15.4626 0.649427V0.630413H17.7832C18.1039 0.630413 18.3638 0.890273 18.3638 1.21098ZM4.55404 0.630413C4.52404 2.25506 3.2239 3.56365 1.62207 3.57041L2.04461 1.7517C2.04461 1.43099 1.88193 0.630371 2.20263 0.630371H4.55404V0.630413ZM13.77 5.64963C13.77 7.73568 12.0789 9.42671 9.99291 9.42671C7.9069 9.42671 6.77717 7.81017 6.77717 5.72412C6.77717 4.10467 7.23498 2.64878 8.66691 2.11182C9.07948 1.95709 9.52635 1.8725 9.99296 1.8725C12.079 1.87254 13.77 3.56361 13.77 5.64963Z"
        fill="#7FB640" />
    <path
        d="M2.46714 5.58062V1.05273H2.20263C1.88201 1.05273 1.92249 1.36613 1.92249 1.68679L1.62207 3.5702V7.27076H18.3638V6.00316H2.88968C2.65631 6.00316 2.46714 5.81399 2.46714 5.58062Z"
        fill="#7FB640" />
    <path
        d="M10.4952 5.42191C10.132 5.29354 9.72966 5.13792 9.4993 4.9572C9.40596 4.88402 9.36535 4.73212 9.39586 4.57029C9.42556 4.41264 9.53272 4.22144 9.74437 4.15768C10.2195 4.01453 10.5276 4.27468 10.5434 4.28846C10.6061 4.34396 10.6881 4.37243 10.7717 4.36766C10.8552 4.36288 10.9335 4.32525 10.9894 4.26297C11.0453 4.20069 11.0743 4.11882 11.0701 4.03523C11.0659 3.95165 11.0287 3.87313 10.9668 3.81682C10.9289 3.78272 10.6911 3.58071 10.3101 3.50693V3.18995C10.3101 3.01493 10.1683 2.87305 9.9932 2.87305C9.81814 2.87305 9.6763 3.01493 9.6763 3.18995V3.52088C9.63861 3.5295 9.60049 3.53913 9.56153 3.55084C9.15704 3.67265 8.85489 4.01829 8.773 4.45291C8.69804 4.85064 8.82645 5.23498 9.10811 5.45592C9.35196 5.64716 9.69265 5.81047 10.2839 6.0195C10.6843 6.161 10.7575 6.49096 10.6922 6.75691L10.2541 8.01213C10.2374 8.0599 10.2324 8.11097 10.2395 8.16106C10.2466 8.21116 10.2656 8.25883 10.2949 8.30009C10.3241 8.34134 10.3629 8.37499 10.4078 8.3982C10.4528 8.42142 10.5027 8.43353 10.5533 8.43353C10.619 8.4335 10.6832 8.41302 10.7368 8.37494C10.7904 8.33685 10.8308 8.28304 10.8525 8.22095L11.2951 6.95284C11.2978 6.94491 11.3003 6.93689 11.3024 6.92879C11.4749 6.27057 11.143 5.65092 10.4952 5.42191Z"
        fill="#9BCE60" />
    <path
        d="M13.7532 6.00316H11.1998L10.8872 6.15308L10.2369 6.00316H7.9756C7.81571 6.00316 7.67657 5.89145 7.6445 5.73481C7.59328 5.48426 7.56754 5.22918 7.56768 4.97345C7.56768 3.76669 8.13345 2.69218 9.01444 2.00049C7.28775 2.44833 6.04698 4.15415 6.23217 6.00316H6.23209C6.25786 6.27904 6.31444 6.55546 6.39983 6.81714C6.89171 8.33163 8.31413 9.42654 9.99265 9.42654C10.8719 9.42654 11.6811 9.12612 12.3229 8.62246C12.0039 8.7078 11.675 8.75084 11.3448 8.75049C10.1231 8.75049 9.03717 8.17039 8.34679 7.27077H13.4046C13.5905 6.88035 13.7114 6.45316 13.7532 6.00316Z"
        fill="#66992A" />
    <path
        d="M11.3023 6.92919C11.3002 6.93722 11.2981 6.94525 11.2951 6.95285L11.184 7.27102L10.8527 8.22131C10.831 8.28342 10.7905 8.33725 10.7368 8.37532C10.6831 8.4134 10.619 8.43385 10.5532 8.43384C10.5185 8.43384 10.4834 8.42793 10.4488 8.41609C10.3694 8.3883 10.3044 8.33015 10.2678 8.25442C10.2313 8.17868 10.2263 8.09155 10.254 8.01215L10.5126 7.27102L10.6922 6.75722C10.7577 6.49102 10.6846 6.16102 10.284 6.0199C10.2684 6.0144 10.2527 6.00891 10.2375 6.00342H11.2005C11.3479 6.27131 11.3898 6.59539 11.3023 6.92919Z"
        fill="#7FB640" />
    <path
        d="M2.46714 0.630371V3.4415C2.19333 3.52582 1.90857 3.56925 1.62207 3.57037V1.21093C1.62207 0.89023 1.88193 0.630371 2.20263 0.630371H2.46714Z"
        fill="#66992A" />
    <path
        d="M18.1054 14.6547L19.9857 16.6868V17.722L19.435 18.0059L19.9857 18.3558V18.8558C19.986 19.0877 19.9329 19.3166 19.8303 19.5246C19.5834 20.0253 18.9596 20.0916 18.3636 20.0916L1.81668 20.1563C0.980565 20.1563 0.302734 19.4785 0.302734 18.6424L0.422312 6.84863H18.4717C19.3079 6.84863 19.9857 7.52646 19.9857 8.36258V8.84879L19.6904 9.12006L19.9857 9.48259V11.1092L18.1054 14.6547Z"
        fill="#855B51" />
    <path
        d="M19.8304 19.5247C19.5837 20.0254 19.0682 20.3698 18.472 20.3698H1.51394C0.677747 20.3698 0 19.692 0 18.8558V6.84863H0.845071V18.8558C0.845071 19.2247 1.14507 19.5247 1.51394 19.5247H19.8304ZM19.9859 8.84891V9.48272H18.4225C18.2476 9.48272 18.1056 9.34074 18.1056 9.16582C18.1056 8.99046 18.2476 8.84891 18.4225 8.84891H19.9859ZM15.8873 9.48259H14.3239C14.1489 9.48259 14.007 9.3407 14.007 9.16569C14.007 8.99067 14.1489 8.84879 14.3239 8.84879H15.8873C16.0624 8.84879 16.2042 8.99067 16.2042 9.16569C16.2042 9.3407 16.0624 9.48259 15.8873 9.48259ZM11.7887 9.48259H10.2254C10.0503 9.48259 9.90845 9.3407 9.90845 9.16569C9.90845 8.99067 10.0503 8.84879 10.2254 8.84879H11.7887C11.9638 8.84879 12.1056 8.99067 12.1056 9.16569C12.1056 9.3407 11.9638 9.48259 11.7887 9.48259ZM7.69014 9.48259H6.12676C5.9517 9.48259 5.80986 9.3407 5.80986 9.16569C5.80986 8.99067 5.9517 8.84879 6.12676 8.84879H7.69014C7.8652 8.84879 8.00704 8.99067 8.00704 9.16569C8.00704 9.3407 7.8652 9.48259 7.69014 9.48259Z"
        fill="#724D44" />
    <path
        d="M7.69026 18.3556H6.12688C5.95183 18.3556 5.80998 18.2137 5.80998 18.0387C5.80998 17.8637 5.95183 17.7218 6.12688 17.7218H7.69026C7.86532 17.7218 8.00716 17.8637 8.00716 18.0387C8.00716 18.2137 7.86532 18.3556 7.69026 18.3556ZM19.986 17.7219V18.3557H18.4227C18.2477 18.3557 18.1058 18.2137 18.1058 18.0388C18.1058 17.8635 18.2477 17.7219 18.4227 17.7219H19.986ZM15.8874 18.3556H14.3241C14.149 18.3556 14.0072 18.2137 14.0072 18.0387C14.0072 17.8637 14.149 17.7218 14.3241 17.7218H15.8874C16.0625 17.7218 16.2043 17.8637 16.2043 18.0387C16.2043 18.2137 16.0625 18.3556 15.8874 18.3556ZM11.7889 18.3556H10.2255C10.0504 18.3556 9.90857 18.2137 9.90857 18.0387C9.90857 17.8637 10.0504 17.7218 10.2255 17.7218H11.7889C11.9639 17.7218 12.1058 17.8637 12.1058 18.0387C12.1058 18.2137 11.9639 18.3556 11.7889 18.3556ZM2.13393 14.7007C2.04988 14.7007 1.96927 14.6673 1.90984 14.6078C1.85041 14.5484 1.81703 14.4678 1.81703 14.3838V12.8204C1.81703 12.6454 1.95887 12.5035 2.13393 12.5035C2.30898 12.5035 2.45083 12.6454 2.45083 12.8204V14.3838C2.45083 14.4678 2.41744 14.5484 2.35801 14.6078C2.29858 14.6673 2.21797 14.7007 2.13393 14.7007ZM2.1128 10.6478C2.02875 10.6478 1.94815 10.6144 1.88872 10.555C1.82929 10.4956 1.7959 10.415 1.7959 10.3309V10.183C1.7959 9.44914 2.39298 8.85205 3.12688 8.85205H3.59167C3.76673 8.85205 3.90857 8.99394 3.90857 9.16895C3.90857 9.34397 3.76673 9.48585 3.59167 9.48585H3.12688C2.74246 9.48585 2.4297 9.79861 2.4297 10.183V10.3309C2.4297 10.415 2.39631 10.4956 2.33688 10.555C2.27745 10.6144 2.19685 10.6478 2.1128 10.6478ZM3.60562 18.3591H3.12688C2.39298 18.3591 1.7959 17.762 1.7959 17.0281V16.8802C1.7959 16.7052 1.93774 16.5633 2.1128 16.5633C2.28786 16.5633 2.4297 16.7052 2.4297 16.8802V17.0281C2.4297 17.4125 2.74246 17.7253 3.12688 17.7253H3.60562C3.78067 17.7253 3.92252 17.8672 3.92252 18.0422C3.92252 18.2172 3.78067 18.3591 3.60562 18.3591ZM19.986 11.6644V16.6867H16.4156C15.7214 16.6867 15.0931 16.4053 14.638 15.9502C14.1829 15.4952 13.9015 14.8668 13.9015 14.1726C13.9015 13.8701 13.9548 13.5802 14.0528 13.3115C14.1508 13.0428 14.2936 12.7952 14.4715 12.5784L14.4741 12.5754C14.4762 12.5725 14.4787 12.5699 14.4812 12.567L14.96 12.0008L14.9511 12.1297C15.3777 11.8227 15.8901 11.6579 16.4156 11.6585H19.9015C19.9303 11.6585 19.9586 11.6606 19.986 11.6644Z"
        fill="#724D44" />
    <path
        d="M21 15.5033C21 15.5312 20.9982 15.559 20.9946 15.5867C20.9538 15.8973 20.6597 15.981 20.3379 15.981L17.0152 15.9271C15.6267 15.9271 14.5986 14.966 14.5986 13.5775C14.5986 12.8456 14.6789 12.2324 15.178 11.7729C15.6258 11.3606 16.2237 11.1089 16.8803 11.1089H20.3662C20.7163 11.1089 21 11.3927 21 11.7427V15.5033Z"
        fill="#F9AF38" />
    <path
        d="M20.9945 15.587C20.9535 15.8976 20.6878 16.1376 20.3662 16.1376H16.8803C15.4918 16.1376 14.3662 15.012 14.3662 13.6235C14.3662 12.9293 14.6476 12.301 15.1027 11.8459C15.2202 11.7284 15.349 11.6224 15.488 11.5303C15.1555 11.9562 14.9578 12.492 14.9578 13.0742C14.9578 14.4627 16.0834 15.5883 17.4718 15.5883H20.9578C20.97 15.5883 20.9823 15.5879 20.9945 15.587Z"
        fill="#F48931" />
    <path
        d="M17.6197 13.567C17.6197 13.077 17.2225 12.6797 16.7324 12.6797C16.6652 12.6797 16.5997 12.6872 16.5367 12.7013C16.1408 12.7904 15.9795 13.1863 15.9795 13.6091C15.9795 14.0992 16.2424 14.3307 16.7324 14.3307C17.1112 14.3307 17.4345 14.217 17.5618 13.8829C17.6002 13.782 17.6199 13.6749 17.6197 13.567Z"
        fill="#855B51" />
    <path
        d="M17.5615 13.8826C17.4339 14.2168 17.1106 14.4538 16.7321 14.4538C16.2419 14.4538 15.8447 14.0567 15.8447 13.5665C15.8447 13.144 16.1405 12.7899 16.5364 12.7012C16.4992 12.7992 16.4785 12.9057 16.4785 13.0172C16.4785 13.5074 16.8757 13.9046 17.3659 13.9046C17.433 13.9046 17.4985 13.8969 17.5615 13.8826Z"
        fill="#724D44" />
</svg>