<svg width="369" height="219" viewBox="0 0 369 219" fill="none" xmlns="http://www.w3.org/2000/svg">
    <g opacity="0.2">
        <path
            d="M225.488 29.866V31.4067C217.562 33.9233 213.221 41.9865 211.163 47.3138H208.031C205.981 41.9865 201.636 33.9233 193.715 31.4067V29.866C201.641 27.3587 205.972 19.2955 208.031 13.9589H211.163C213.23 19.2955 217.562 27.3587 225.488 29.866Z"
            fill="black" />
        <path
            d="M225.488 186.929V188.469C217.562 190.986 213.221 199.049 211.163 204.376H208.031C205.981 199.049 201.636 190.986 193.715 188.469V186.929C201.641 184.421 205.972 176.358 208.031 171.021H211.163C213.23 176.358 217.562 184.421 225.488 186.929Z"
            fill="black" />
        <path
            d="M47.8996 69.1318V70.6726C39.974 73.1891 35.633 81.2524 33.5746 86.5797H30.4426C28.3935 81.2524 24.0479 73.1891 16.127 70.6726V69.1318C24.0526 66.6246 28.3842 58.5614 30.4426 53.2248H33.5746C35.6424 58.5614 39.974 66.6246 47.8996 69.1318Z"
            fill="black" />
        <path
            d="M47.8996 226.194V227.735C39.974 230.251 35.633 238.315 33.5746 243.642H30.4426C28.3935 238.315 24.0479 230.251 16.127 227.735V226.194C24.0526 223.687 28.3842 215.624 30.4426 210.287H33.5746C35.6424 215.624 39.974 223.687 47.8996 226.194Z"
            fill="black" />
        <path
            d="M225.488 108.398V109.938C217.562 112.455 213.221 120.518 211.163 125.845H208.031C205.981 120.518 201.636 112.455 193.715 109.938V108.398C201.641 105.89 205.972 97.8272 208.031 92.4906H211.163C213.23 97.8272 217.562 105.89 225.488 108.398Z"
            fill="black" />
        <path
            d="M47.8996 147.663V149.204C39.974 151.72 35.633 159.784 33.5746 165.111H30.4426C28.3935 159.784 24.0479 151.72 16.127 149.204V147.663C24.0526 145.156 28.3842 137.092 30.4426 131.756H33.5746C35.6424 137.092 39.974 145.156 47.8996 147.663Z"
            fill="black" />
        <path
            d="M205.757 -9.3996V-7.85885C197.831 -5.34229 193.49 2.72097 191.432 8.04823H188.3C186.251 2.72097 181.905 -5.34229 173.984 -7.85885V-9.3996C181.91 -11.9068 186.242 -19.9701 188.3 -25.3067H191.432C193.5 -19.9701 197.831 -11.9068 205.757 -9.3996Z"
            fill="black" />
        <path
            d="M205.757 147.663V149.204C197.831 151.72 193.49 159.784 191.432 165.111H188.3C186.251 159.784 181.905 151.72 173.984 149.204V147.663C181.91 145.156 186.242 137.092 188.3 131.756H191.432C193.5 137.092 197.831 145.156 205.757 147.663Z"
            fill="black" />
        <path
            d="M383.347 29.866V31.4067C375.421 33.9233 371.08 41.9865 369.022 47.3138H365.89C363.841 41.9865 359.495 33.9233 351.574 31.4067V29.866C359.5 27.3587 363.831 19.2955 365.89 13.9589H369.022C371.09 19.2955 375.421 27.3587 383.347 29.866Z"
            fill="black" />
        <path
            d="M383.347 186.929V188.469C375.421 190.986 371.08 199.049 369.022 204.376H365.89C363.841 199.049 359.495 190.986 351.574 188.469V186.929C359.5 184.421 363.831 176.358 365.89 171.021H369.022C371.09 176.358 375.421 184.421 383.347 186.929Z"
            fill="black" />
        <path
            d="M28.1672 29.866V31.4067C20.2415 33.9233 15.9006 41.9865 13.8422 47.3138H10.7102C8.66111 41.9865 4.31553 33.9233 -3.60547 31.4067V29.866C4.32019 27.3587 8.65177 19.2955 10.7102 13.9589H13.8422C15.91 19.2955 20.2415 27.3587 28.1672 29.866Z"
            fill="black" />
        <path
            d="M28.1672 186.929V188.469C20.2415 190.986 15.9006 199.049 13.8422 204.376H10.7102C8.66111 199.049 4.31553 190.986 -3.60547 188.469V186.929C4.32019 184.421 8.65177 176.358 10.7102 171.021H13.8422C15.91 176.358 20.2415 184.421 28.1672 186.929Z"
            fill="black" />
        <path
            d="M205.757 69.1315V70.6723C197.831 73.1888 193.49 81.2521 191.432 86.5794H188.3C186.251 81.2521 181.905 73.1888 173.984 70.6723V69.1315C181.91 66.6243 186.242 58.5611 188.3 53.2245H191.432C193.5 58.5611 197.831 66.6243 205.757 69.1315Z"
            fill="black" />
        <path
            d="M205.757 226.194V227.735C197.831 230.251 193.49 238.315 191.432 243.642H188.3C186.251 238.315 181.905 230.251 173.984 227.735V226.194C181.91 223.687 186.242 215.624 188.3 210.287H191.432C193.5 215.624 197.831 223.687 205.757 226.194Z"
            fill="black" />
        <path
            d="M383.347 108.397V109.938C375.421 112.455 371.08 120.518 369.022 125.845H365.89C363.841 120.518 359.495 112.455 351.574 109.938V108.397C359.5 105.89 363.831 97.8269 365.89 92.4903H369.022C371.09 97.8269 375.421 105.89 383.347 108.397Z"
            fill="black" />
        <path
            d="M28.1672 108.397V109.938C20.2415 112.455 15.9006 120.518 13.8422 125.845H10.7102C8.66111 120.518 4.31553 112.455 -3.60547 109.938V108.397C4.32019 105.89 8.65177 97.8269 10.7102 92.4903H13.8422C15.91 97.8269 20.2415 105.89 28.1672 108.397Z"
            fill="black" />
        <path
            d="M186.023 29.866V31.4067C178.097 33.9233 173.756 41.9865 171.698 47.3138H168.566C166.517 41.9865 162.171 33.9233 154.25 31.4067V29.866C162.176 27.3587 166.507 19.2955 168.566 13.9589H171.698C173.765 19.2955 178.097 27.3587 186.023 29.866Z"
            fill="black" />
        <path
            d="M186.023 186.929V188.469C178.097 190.986 173.756 199.049 171.698 204.376H168.566C166.517 199.049 162.171 190.986 154.25 188.469V186.929C162.176 184.421 166.507 176.358 168.566 171.021H171.698C173.765 176.358 178.097 184.421 186.023 186.929Z"
            fill="black" />
        <path
            d="M363.613 69.1318V70.6726C355.687 73.1891 351.346 81.2524 349.288 86.5797H346.156C344.106 81.2524 339.761 73.1891 331.84 70.6726V69.1318C339.766 66.6246 344.097 58.5614 346.156 53.2248H349.288C351.355 58.5614 355.687 66.6246 363.613 69.1318Z"
            fill="black" />
        <path
            d="M363.613 226.194V227.735C355.687 230.251 351.346 238.315 349.288 243.642H346.156C344.106 238.315 339.761 230.251 331.84 227.735V226.194C339.766 223.687 344.097 215.624 346.156 210.287H349.288C351.355 215.624 355.687 223.687 363.613 226.194Z"
            fill="black" />
        <path
            d="M8.43282 69.1318V70.6726C0.50716 73.1891 -3.83375 81.2524 -5.89218 86.5797H-9.02417C-11.0733 81.2524 -15.4188 73.1891 -23.3398 70.6726V69.1318C-15.4142 66.6246 -11.0826 58.5614 -9.02417 53.2248H-5.89218C-3.82442 58.5614 0.50716 66.6246 8.43282 69.1318Z"
            fill="black" />
        <path
            d="M8.43282 226.194V227.735C0.50716 230.251 -3.83375 238.315 -5.89218 243.642H-9.02417C-11.0733 238.315 -15.4188 230.251 -23.3398 227.735V226.194C-15.4142 223.687 -11.0826 215.624 -9.02417 210.287H-5.89218C-3.82442 215.624 0.50716 223.687 8.43282 226.194Z"
            fill="black" />
        <path
            d="M186.023 108.398V109.938C178.097 112.455 173.756 120.518 171.698 125.845H168.566C166.517 120.518 162.171 112.455 154.25 109.938V108.398C162.176 105.89 166.507 97.8272 168.566 92.4906H171.698C173.765 97.8272 178.097 105.89 186.023 108.398Z"
            fill="black" />
        <path
            d="M363.613 147.663V149.204C355.687 151.72 351.346 159.784 349.288 165.111H346.156C344.106 159.784 339.761 151.72 331.84 149.204V147.663C339.766 145.156 344.097 137.092 346.156 131.756H349.288C351.355 137.092 355.687 145.156 363.613 147.663Z"
            fill="black" />
        <path
            d="M8.43282 147.663V149.204C0.50716 151.72 -3.83375 159.784 -5.89218 165.111H-9.02417C-11.0733 159.784 -15.4188 151.72 -23.3398 149.204V147.663C-15.4142 145.156 -11.0826 137.092 -9.02417 131.756H-5.89218C-3.82442 137.092 0.50716 145.156 8.43282 147.663Z"
            fill="black" />
        <path
            d="M166.29 -9.3996V-7.85885C158.365 -5.34229 154.024 2.72097 151.965 8.04823H148.833C146.784 2.72097 142.439 -5.34229 134.518 -7.85885V-9.3996C142.443 -11.9068 146.775 -19.9701 148.833 -25.3067H151.965C154.033 -19.9701 158.365 -11.9068 166.29 -9.3996Z"
            fill="black" />
        <path
            d="M166.29 147.663V149.204C158.365 151.72 154.024 159.784 151.965 165.111H148.833C146.784 159.784 142.439 151.72 134.518 149.204V147.663C142.443 145.156 146.775 137.092 148.833 131.756H151.965C154.033 137.092 158.365 145.156 166.29 147.663Z"
            fill="black" />
        <path
            d="M343.88 29.866V31.4067C335.954 33.9233 331.614 41.9865 329.555 47.3138H326.423C324.374 41.9865 320.028 33.9233 312.107 31.4067V29.866C320.033 27.3587 324.365 19.2955 326.423 13.9589H329.555C331.623 19.2955 335.954 27.3587 343.88 29.866Z"
            fill="black" />
        <path
            d="M343.88 186.929V188.469C335.954 190.986 331.614 199.049 329.555 204.376H326.423C324.374 199.049 320.028 190.986 312.107 188.469V186.929C320.033 184.421 324.365 176.358 326.423 171.021H329.555C331.623 176.358 335.954 184.421 343.88 186.929Z"
            fill="black" />
        <path
            d="M166.29 69.1315V70.6723C158.365 73.1888 154.024 81.2521 151.965 86.5794H148.833C146.784 81.2521 142.439 73.1888 134.518 70.6723V69.1315C142.443 66.6243 146.775 58.5611 148.833 53.2245H151.965C154.033 58.5611 158.365 66.6243 166.29 69.1315Z"
            fill="black" />
        <path
            d="M166.29 226.194V227.735C158.365 230.251 154.024 238.315 151.965 243.642H148.833C146.784 238.315 142.439 230.251 134.518 227.735V226.194C142.443 223.687 146.775 215.624 148.833 210.287H151.965C154.033 215.624 158.365 223.687 166.29 226.194Z"
            fill="black" />
        <path
            d="M343.88 108.397V109.938C335.954 112.455 331.614 120.518 329.555 125.845H326.423C324.374 120.518 320.028 112.455 312.107 109.938V108.397C320.033 105.89 324.365 97.8269 326.423 92.4903H329.555C331.623 97.8269 335.954 105.89 343.88 108.397Z"
            fill="black" />
        <path
            d="M146.558 29.866V31.4067C138.632 33.9233 134.291 41.9865 132.233 47.3138H129.101C127.052 41.9865 122.706 33.9233 114.785 31.4067V29.866C122.711 27.3587 127.042 19.2955 129.101 13.9589H132.233C134.301 19.2955 138.632 27.3587 146.558 29.866Z"
            fill="black" />
        <path
            d="M146.558 186.929V188.469C138.632 190.986 134.291 199.049 132.233 204.376H129.101C127.052 199.049 122.706 190.986 114.785 188.469V186.929C122.711 184.421 127.042 176.358 129.101 171.021H132.233C134.301 176.358 138.632 184.421 146.558 186.929Z"
            fill="black" />
        <path
            d="M324.148 69.1318V70.6726C316.222 73.1891 311.881 81.2524 309.823 86.5797H306.691C304.642 81.2524 300.296 73.1891 292.375 70.6726V69.1318C300.301 66.6246 304.632 58.5614 306.691 53.2248H309.823C311.89 58.5614 316.222 66.6246 324.148 69.1318Z"
            fill="black" />
        <path
            d="M324.148 226.194V227.735C316.222 230.251 311.881 238.315 309.823 243.642H306.691C304.642 238.315 300.296 230.251 292.375 227.735V226.194C300.301 223.687 304.632 215.624 306.691 210.287H309.823C311.89 215.624 316.222 223.687 324.148 226.194Z"
            fill="black" />
        <path
            d="M146.558 108.398V109.938C138.632 112.455 134.291 120.518 132.233 125.845H129.101C127.052 120.518 122.706 112.455 114.785 109.938V108.398C122.711 105.89 127.042 97.8272 129.101 92.4906H132.233C134.301 97.8272 138.632 105.89 146.558 108.398Z"
            fill="black" />
        <path
            d="M324.148 147.663V149.204C316.222 151.72 311.881 159.784 309.823 165.111H306.691C304.642 159.784 300.296 151.72 292.375 149.204V147.663C300.301 145.156 304.632 137.092 306.691 131.756H309.823C311.89 137.092 316.222 145.156 324.148 147.663Z"
            fill="black" />
        <path
            d="M126.827 -9.3996V-7.85885C118.902 -5.34229 114.561 2.72097 112.502 8.04823H109.37C107.321 2.72097 102.976 -5.34229 95.0547 -7.85885V-9.3996C102.98 -11.9068 107.312 -19.9701 109.37 -25.3067H112.502C114.57 -19.9701 118.902 -11.9068 126.827 -9.3996Z"
            fill="black" />
        <path
            d="M126.827 147.663V149.204C118.902 151.72 114.561 159.784 112.502 165.111H109.37C107.321 159.784 102.976 151.72 95.0547 149.204V147.663C102.98 145.156 107.312 137.092 109.37 131.756H112.502C114.57 137.092 118.902 145.156 126.827 147.663Z"
            fill="black" />
        <path
            d="M304.417 29.866V31.4067C296.492 33.9233 292.151 41.9865 290.092 47.3138H286.96C284.911 41.9865 280.566 33.9233 272.645 31.4067V29.866C280.57 27.3587 284.902 19.2955 286.96 13.9589H290.092C292.16 19.2955 296.492 27.3587 304.417 29.866Z"
            fill="black" />
        <path
            d="M304.417 186.929V188.469C296.492 190.986 292.151 199.049 290.092 204.376H286.96C284.911 199.049 280.566 190.986 272.645 188.469V186.929C280.57 184.421 284.902 176.358 286.96 171.021H290.092C292.16 176.358 296.492 184.421 304.417 186.929Z"
            fill="black" />
        <path
            d="M126.827 69.1315V70.6723C118.902 73.1888 114.561 81.2521 112.502 86.5794H109.37C107.321 81.2521 102.976 73.1888 95.0547 70.6723V69.1315C102.98 66.6243 107.312 58.5611 109.37 53.2245H112.502C114.57 58.5611 118.902 66.6243 126.827 69.1315Z"
            fill="black" />
        <path
            d="M126.827 226.194V227.735C118.902 230.251 114.561 238.315 112.502 243.642H109.37C107.321 238.315 102.976 230.251 95.0547 227.735V226.194C102.98 223.687 107.312 215.624 109.37 210.287H112.502C114.57 215.624 118.902 223.687 126.827 226.194Z"
            fill="black" />
        <path
            d="M304.417 108.397V109.938C296.492 112.455 292.151 120.518 290.092 125.845H286.96C284.911 120.518 280.566 112.455 272.645 109.938V108.397C280.57 105.89 284.902 97.8269 286.96 92.4903H290.092C292.16 97.8269 296.492 105.89 304.417 108.397Z"
            fill="black" />
        <path
            d="M264.952 29.866V31.4067C257.027 33.9233 252.686 41.9865 250.627 47.3138H247.495C245.446 41.9865 241.101 33.9233 233.18 31.4067V29.866C241.105 27.3587 245.437 19.2955 247.495 13.9589H250.627C252.695 19.2955 257.027 27.3587 264.952 29.866Z"
            fill="black" />
        <path
            d="M264.952 186.929V188.469C257.027 190.986 252.686 199.049 250.627 204.376H247.495C245.446 199.049 241.101 190.986 233.18 188.469V186.929C241.105 184.421 245.437 176.358 247.495 171.021H250.627C252.695 176.358 257.027 184.421 264.952 186.929Z"
            fill="black" />
        <path
            d="M87.3625 69.1318V70.6726C79.4368 73.1891 75.0959 81.2524 73.0375 86.5797H69.9055C67.8564 81.2524 63.5108 73.1891 55.5898 70.6726V69.1318C63.5155 66.6246 67.8471 58.5614 69.9055 53.2248H73.0375C75.1053 58.5614 79.4368 66.6246 87.3625 69.1318Z"
            fill="black" />
        <path
            d="M87.3625 226.194V227.735C79.4368 230.251 75.0959 238.315 73.0375 243.642H69.9055C67.8564 238.315 63.5108 230.251 55.5898 227.735V226.194C63.5155 223.687 67.8471 215.624 69.9055 210.287H73.0375C75.1053 215.624 79.4368 223.687 87.3625 226.194Z"
            fill="black" />
        <path
            d="M264.952 108.398V109.938C257.027 112.455 252.686 120.518 250.627 125.845H247.495C245.446 120.518 241.101 112.455 233.18 109.938V108.398C241.105 105.89 245.437 97.8272 247.495 92.4906H250.627C252.695 97.8272 257.027 105.89 264.952 108.398Z"
            fill="black" />
        <path
            d="M87.3625 147.663V149.204C79.4368 151.72 75.0959 159.784 73.0375 165.111H69.9055C67.8564 159.784 63.5108 151.72 55.5898 149.204V147.663C63.5155 145.156 67.8471 137.092 69.9055 131.756H73.0375C75.1053 137.092 79.4368 145.156 87.3625 147.663Z"
            fill="black" />
        <path
            d="M245.22 -9.3996V-7.85885C237.294 -5.34229 232.953 2.72097 230.895 8.04823H227.763C225.714 2.72097 221.368 -5.34229 213.447 -7.85885V-9.3996C221.373 -11.9068 225.705 -19.9701 227.763 -25.3067H230.895C232.963 -19.9701 237.294 -11.9068 245.22 -9.3996Z"
            fill="black" />
        <path
            d="M245.22 147.663V149.204C237.294 151.72 232.953 159.784 230.895 165.111H227.763C225.714 159.784 221.368 151.72 213.447 149.204V147.663C221.373 145.156 225.705 137.092 227.763 131.756H230.895C232.963 137.092 237.294 145.156 245.22 147.663Z"
            fill="black" />
        <path
            d="M67.632 29.866V31.4067C59.7064 33.9233 55.3655 41.9865 53.307 47.3138H50.175C48.126 41.9865 43.7804 33.9233 35.8594 31.4067V29.866C43.785 27.3587 48.1166 19.2955 50.175 13.9589H53.307C55.3748 19.2955 59.7064 27.3587 67.632 29.866Z"
            fill="black" />
        <path
            d="M67.632 186.929V188.469C59.7064 190.986 55.3655 199.049 53.307 204.376H50.175C48.126 199.049 43.7804 190.986 35.8594 188.469V186.929C43.785 184.421 48.1166 176.358 50.175 171.021H53.307C55.3748 176.358 59.7064 184.421 67.632 186.929Z"
            fill="black" />
        <path
            d="M245.22 69.1315V70.6723C237.294 73.1888 232.953 81.2521 230.895 86.5794H227.763C225.714 81.2521 221.368 73.1888 213.447 70.6723V69.1315C221.373 66.6243 225.705 58.5611 227.763 53.2245H230.895C232.963 58.5611 237.294 66.6243 245.22 69.1315Z"
            fill="black" />
        <path
            d="M245.22 226.194V227.735C237.294 230.251 232.953 238.315 230.895 243.642H227.763C225.714 238.315 221.368 230.251 213.447 227.735V226.194C221.373 223.687 225.705 215.624 227.763 210.287H230.895C232.963 215.624 237.294 223.687 245.22 226.194Z"
            fill="black" />
        <path
            d="M67.632 108.397V109.938C59.7064 112.455 55.3655 120.518 53.307 125.845H50.175C48.126 120.518 43.7804 112.455 35.8594 109.938V108.397C43.785 105.89 48.1166 97.8269 50.175 92.4903H53.307C55.3748 97.8269 59.7064 105.89 67.632 108.397Z"
            fill="black" />
        <path
            d="M284.683 -9.3996V-7.85885C276.757 -5.34229 272.416 2.72097 270.358 8.04823H267.226C265.177 2.72097 260.831 -5.34229 252.91 -7.85885V-9.3996C260.836 -11.9068 265.167 -19.9701 267.226 -25.3067H270.358C272.426 -19.9701 276.757 -11.9068 284.683 -9.3996Z"
            fill="black" />
        <path
            d="M284.683 147.663V149.204C276.757 151.72 272.416 159.784 270.358 165.111H267.226C265.177 159.784 260.831 151.72 252.91 149.204V147.663C260.836 145.156 265.167 137.092 267.226 131.756H270.358C272.426 137.092 276.757 145.156 284.683 147.663Z"
            fill="black" />
        <path
            d="M107.093 29.866V31.4067C99.1673 33.9233 94.8264 41.9865 92.768 47.3138H89.636C87.5869 41.9865 83.2413 33.9233 75.3203 31.4067V29.866C83.246 27.3587 87.5776 19.2955 89.636 13.9589H92.768C94.8357 19.2955 99.1673 27.3587 107.093 29.866Z"
            fill="black" />
        <path
            d="M107.093 186.929V188.469C99.1673 190.986 94.8264 199.049 92.768 204.376H89.636C87.5869 199.049 83.2413 190.986 75.3203 188.469V186.929C83.246 184.421 87.5776 176.358 89.636 171.021H92.768C94.8357 176.358 99.1673 184.421 107.093 186.929Z"
            fill="black" />
        <path
            d="M284.683 69.1315V70.6723C276.757 73.1888 272.416 81.2521 270.358 86.5794H267.226C265.177 81.2521 260.831 73.1888 252.91 70.6723V69.1315C260.836 66.6243 265.167 58.5611 267.226 53.2245H270.358C272.426 58.5611 276.757 66.6243 284.683 69.1315Z"
            fill="black" />
        <path
            d="M284.683 226.194V227.735C276.757 230.251 272.416 238.315 270.358 243.642H267.226C265.177 238.315 260.831 230.251 252.91 227.735V226.194C260.836 223.687 265.167 215.624 267.226 210.287H270.358C272.426 215.624 276.757 223.687 284.683 226.194Z"
            fill="black" />
        <path
            d="M107.093 108.397V109.938C99.1673 112.455 94.8264 120.518 92.768 125.845H89.636C87.5869 120.518 83.2413 112.455 75.3203 109.938V108.397C83.246 105.89 87.5776 97.8269 89.636 92.4903H92.768C94.8357 97.8269 99.1673 105.89 107.093 108.397Z"
            fill="black" />
    </g>
</svg>
    