<svg xmlns="http://www.w3.org/2000/svg" width="15" height="16" viewBox="0 0 15 16" fill="none">
    <path fill-rule="evenodd" clip-rule="evenodd"
        d="M6.51507 0.434187L7.06985 0.00244141V0.212336L6.98545 0.434187H7.22175L7.22173 0.436941H7.93347C8.87328 2.86211 10.8436 6.52322 14.4435 7.66302V7.8449L15.0004 7.92642L14.4435 8.35265V8.35787C11.0927 9.42056 9.15158 12.662 8.14482 15.0591L8.49265 15.1498L7.9349 15.5826L7.93455 15.5812C7.93419 15.5821 7.93383 15.583 7.93347 15.584H7.22173L6.51001 15.5839C5.57569 13.1615 3.59988 9.50039 0 8.35784V8.01178V7.66027C0.00176184 7.65971 0.00352328 7.65915 0.00528434 7.6586L0.00372869 7.65791L0.558991 7.23141L0.639692 7.42503C3.8386 6.07946 5.62997 2.71178 6.51001 0.434187H6.51507Z"
        fill="url(#paint0_linear_1618_134347)" />
    <path fill-rule="evenodd" clip-rule="evenodd"
        d="M0 8.35504V8.01157V7.66006L0.00624829 7.65808L0.00372869 7.65697L0.558991 7.23047L0.589712 7.30417L0.682125 7.83653L0 8.35504ZM8.44498 15.1365L8.49265 15.1489L7.9349 15.5816L7.93466 15.5806L7.93347 15.5837H7.22173L6.52311 15.5837L7.20824 15.045L8.44498 15.1365Z"
        fill="#CC671D" />
    <path
        d="M15.0001 7.22884V7.58039H7.77837V0.00275376H8.49011C9.42992 2.42793 11.4002 6.08903 15.0001 7.22884Z"
        fill="url(#paint1_linear_1618_134347)" />
    <path
        d="M15.0001 7.57762V7.92368C11.3975 9.06623 9.42443 12.7273 8.49011 15.1498H7.77837V7.57762H15.0001Z"
        fill="url(#paint2_linear_1618_134347)" />
    <path
        d="M7.77837 7.57762V15.1498L7.06665 15.1497C6.13233 12.7273 4.15652 9.06621 0.556641 7.92366V7.5776L7.77837 7.57762Z"
        fill="url(#paint3_linear_1618_134347)" />
    <path
        d="M7.77837 0.00275376V7.57762L0.556641 7.5776V7.22608C4.15927 6.08628 6.12959 2.42517 7.06665 0H7.77839L7.77837 0.00275376Z"
        fill="url(#paint4_linear_1618_134347)" />
    <defs>
        <linearGradient id="paint0_linear_1618_134347" x1="7.61261" y1="0.448587" x2="7.61261"
            y2="16.0302" gradientUnits="userSpaceOnUse">
            <stop stop-color="#F4BB2B" />
            <stop offset="1" stop-color="#D5790D" />
        </linearGradient>
        <linearGradient id="paint1_linear_1618_134347" x1="7.77838" y1="0" x2="7.77838" y2="15.1498"
            gradientUnits="userSpaceOnUse">
            <stop stop-color="#FDF74B" />
            <stop offset="1" stop-color="#F4BB2B" />
        </linearGradient>
        <linearGradient id="paint2_linear_1618_134347" x1="7.77838" y1="0" x2="7.77838" y2="15.1498"
            gradientUnits="userSpaceOnUse">
            <stop stop-color="#FDF74B" />
            <stop offset="1" stop-color="#F4BB2B" />
        </linearGradient>
        <linearGradient id="paint3_linear_1618_134347" x1="7.77838" y1="0" x2="7.77838" y2="15.1498"
            gradientUnits="userSpaceOnUse">
            <stop stop-color="#FDF74B" />
            <stop offset="1" stop-color="#F4BB2B" />
        </linearGradient>
        <linearGradient id="paint4_linear_1618_134347" x1="7.77838" y1="0" x2="7.77838" y2="15.1498"
            gradientUnits="userSpaceOnUse">
            <stop stop-color="#FDF74B" />
            <stop offset="1" stop-color="#F4BB2B" />
        </linearGradient>
    </defs>
</svg>