<svg width="61" height="21" viewBox="0 0 61 21" fill="none" xmlns="http://www.w3.org/2000/svg">
<g id="Mir-logo.SVG 1">
<g id="sim">
<g id="mir-logo">
<g id="Group-5">
<path id="Combined-Shape" fill-rule="evenodd" clip-rule="evenodd" d="M6.37277 2.27777C6.90372 2.27448 8.48168 2.12717 9.15008 4.46532C9.60032 6.04032 10.3175 8.62024 11.3017 12.2051H11.7025C12.7579 8.42569 13.483 5.84577 13.8776 4.46532C14.5529 2.10282 16.2413 2.27782 16.9167 2.27782L22.1272 2.27782V19.0778H16.8165V9.17728H16.4604L13.4999 19.0778H9.50427L6.5438 9.16995H6.18768V19.0778H0.876953V2.27782L6.37277 2.27777ZM29.7533 2.27782V12.1857H30.177L33.7781 4.03852C34.4772 2.41721 35.9671 2.27782 35.9671 2.27782H41.1062V19.0778H35.6846V9.16995H35.2609L31.7304 17.3171C31.0314 18.9311 29.4709 19.0778 29.4709 19.0778H24.3317V2.27782H29.7533ZM59.8459 10.2613C59.0896 12.4826 56.7146 14.0734 54.0852 14.0734H48.3996V19.0778H43.2439V10.2613H59.8459Z" fill="#0F754E"/>
<path id="path24" fill-rule="evenodd" clip-rule="evenodd" d="M54.334 2.27783H42.9736C43.244 6.01808 46.3516 9.21998 49.5686 9.21998H60.2042C60.8179 6.11139 58.7051 2.27783 54.334 2.27783Z" fill="url(#paint0_linear_1618_126823)"/>
</g>
</g>
</g>
</g>
<defs>
<linearGradient id="paint0_linear_1618_126823" x1="1776.46" y1="438.969" x2="42.9736" y2="438.969" gradientUnits="userSpaceOnUse">
<stop stop-color="#1F5CD7"/>
<stop offset="1" stop-color="#02AEFF"/>
</linearGradient>
</defs>
</svg>
