<svg width="75" height="41" viewBox="0 0 75 41" fill="none" xmlns="http://www.w3.org/2000/svg">
<g id="sbp 1">
<g id="Group 1654706891">
<path id="Vector" d="M74.0913 17.3562V27.38H70.3871V20.3485H66.8204V27.38H63.1162V17.3555H74.0913V17.3562Z" fill="#AEAEAE"/>
<path id="Vector_2" fill-rule="evenodd" clip-rule="evenodd" d="M55.508 27.7382C58.8244 27.7382 61.2868 25.7737 61.2868 22.7957C61.2868 19.9131 59.47 18.0414 56.4337 18.0414C55.0325 18.0414 53.8762 18.518 53.0053 19.3404C53.2132 17.6406 54.7008 16.3997 56.3386 16.3997C56.7166 16.3997 59.5623 16.3939 59.5623 16.3939L61.1712 13.418C61.1712 13.418 57.5988 13.4966 55.938 13.4966C52.1433 13.5608 49.5801 16.8937 49.5801 20.9415C49.5801 25.6578 52.08 27.7386 55.5084 27.7386L55.508 27.7382ZM55.5285 20.677C56.7597 20.677 57.6133 21.4588 57.6133 22.7954C57.6133 23.998 56.8549 24.9895 55.5285 24.9923C54.2599 24.9923 53.4063 24.0739 53.4063 22.8159C53.4063 21.4789 54.2599 20.677 55.5285 20.677Z" fill="#AEAEAE"/>
<path id="Vector_3" d="M46.5653 24.0245C46.5653 24.0245 45.6905 24.5117 44.3836 24.604C42.8819 24.647 41.5436 23.7303 41.5436 22.1016C41.5436 20.5128 42.7246 19.6023 44.3461 19.6023C45.3404 19.6023 46.6558 20.2682 46.6558 20.2682C46.6558 20.2682 47.6183 18.5616 48.1168 17.7081C47.2039 17.0395 45.9879 16.6729 44.5735 16.6729C41.004 16.6729 38.2393 18.9217 38.2393 22.0814C38.2393 25.2815 40.8378 27.4781 44.5735 27.4114C45.6176 27.3739 47.0582 27.0199 47.9361 26.4749L46.5653 24.0245Z" fill="#AEAEAE"/>
</g>
<path id="Vector_4" d="M1.0166 8.92432L6.15499 17.7991V23.2125L1.02261 32.0698L1.0166 8.92432Z" fill="#5B57A2"/>
<path id="Vector_5" d="M20.7451 14.5699L25.56 11.7184L35.4138 11.7095L20.7451 20.3926V14.5699Z" fill="#D90751"/>
<path id="Vector_6" d="M20.7179 8.87206L20.7451 20.622L15.5947 17.5641V0L20.7179 8.87206Z" fill="#FAB718"/>
<path id="Vector_7" d="M35.4139 11.7093L25.5596 11.7181L20.7179 8.87206L15.5947 0L35.4139 11.7093Z" fill="#ED6F26"/>
<path id="Vector_8" d="M20.7451 32.119V26.4183L15.5947 23.4185L15.5976 40.9999L20.7451 32.119Z" fill="#63B22F"/>
<path id="Vector_9" d="M25.5488 29.2935L6.15464 17.7991L1.0166 8.92432L35.3938 29.2818L25.5488 29.2935Z" fill="#1487C9"/>
<path id="Vector_10" d="M15.5986 40.9999L20.7455 32.1189L25.5483 29.2934L35.3934 29.2817L15.5986 40.9999Z" fill="#017F36"/>
<path id="Vector_11" d="M1.02246 32.0699L15.6374 23.4189L10.7239 20.5059L6.15484 23.2125L1.02246 32.0699Z" fill="#984995"/>
</g>
</svg>
