<svg width="38" height="39" viewBox="0 0 38 39" fill="none" xmlns="http://www.w3.org/2000/svg">
    <g clip-path="url(#clip0_4064_8460)">
        <path
            d="M36.2688 18.4415V17.7088L35.5701 17.488C27.8385 15.0445 23.4935 7.1207 21.3693 1.63869L21.1218 1H20.4369H17.1975H16.5125L16.2651 1.63869C14.1409 7.1207 9.79588 15.0445 2.06426 17.488L1.3656 17.7088V18.4415V20.0294V20.7615L2.06347 20.9827C9.79618 23.4335 14.1487 31.3587 16.2648 36.8307L16.5121 37.47H17.1975H20.4369H21.1223L21.3696 36.8307C23.4857 31.3587 27.8382 23.4335 35.5709 20.9827L36.2688 20.7615V20.0294V18.4415Z"
            fill="url(#paint0_linear_4064_8460)" stroke="url(#paint1_linear_4064_8460)"
            stroke-width="2" />
        <path
            d="M35.2684 19.2349V20.0225C27.0055 22.6231 22.4802 30.9562 20.3373 36.4699H18.7049V19.2349H35.2684Z"
            fill="url(#paint2_linear_4064_8460)" />
        <path d="M18.7053 2V19.235H2.3656V18.4351C10.5168 15.848 14.9748 7.51795 17.0949 2H18.7053Z"
            fill="url(#paint3_linear_4064_8460)" />
        <g clip-path="url(#clip1_4064_8460)">
            <g clip-path="url(#clip2_4064_8460)">
                <path
                    d="M16.4998 18.8751C16.4985 18.8747 16.4959 18.8739 16.4912 18.8723C16.4593 18.8615 16.3892 18.823 16.2751 18.7069C16.0476 18.4755 15.7318 18.0274 15.2787 17.2492C14.9795 16.7082 14.7075 16.1746 14.4817 15.5991C14.4212 15.4398 14.2981 15.3074 14.2072 15.2317L14.1949 15.2214L14.1816 15.2125C14.1816 15.2125 14.1806 15.2118 14.1782 15.2101L14.1664 15.2014C14.1569 15.1944 14.1393 15.1815 14.1185 15.1687C14.0894 15.1508 14.0438 15.1266 13.9848 15.1134C13.82 15.0434 13.6546 15.0339 13.5256 15.0339L13.5221 15.0339L11.4945 15.0572L11.4888 15.0573L11.4731 15.0577C11.4604 15.0581 11.4431 15.0589 11.4225 15.0604C11.3817 15.0634 11.3247 15.0694 11.2619 15.082C11.2004 15.0943 11.1244 15.1146 11.0498 15.1496C10.9784 15.1832 10.89 15.2388 10.8236 15.3316C10.6932 15.5057 10.7062 15.7009 10.7276 15.8098C10.7393 15.8693 10.7564 15.9196 10.7702 15.9547C10.7772 15.9726 10.7838 15.9875 10.789 15.9987L10.793 16.0069L10.7953 16.0123L10.8104 16.047C10.8236 16.0773 10.8432 16.1218 10.8687 16.1788C10.9196 16.293 10.9944 16.4577 11.09 16.6615C11.2811 17.0689 11.5559 17.633 11.8912 18.2601C12.558 19.5074 13.477 21.0299 14.4627 22.0578C15.3857 23.0295 16.3713 23.4856 17.1303 23.6974C17.5092 23.8031 17.8312 23.8479 18.061 23.8662C18.1759 23.8753 18.2679 23.8778 18.3327 23.8779C18.3651 23.878 18.3907 23.8774 18.409 23.8769L18.4296 23.876H19.3312H19.3541L19.3768 23.8725C19.5836 23.8407 19.7834 23.7476 19.9383 23.6238L19.9804 23.5901L20.0081 23.5438C20.0888 23.4093 20.1791 23.2248 20.1791 22.9931V22.9877L20.179 22.9862V22.9784C20.179 22.9712 20.179 22.9598 20.1792 22.9449C20.1796 22.9152 20.1808 22.8715 20.1839 22.8181C20.1901 22.7104 20.2038 22.5679 20.233 22.4227C20.2626 22.275 20.3054 22.1397 20.3623 22.0378C20.4192 21.936 20.4744 21.8943 20.5201 21.8794C20.5291 21.8764 20.5776 21.8638 20.707 21.9539C20.8331 22.0417 20.9776 22.1874 21.1472 22.3779C21.2115 22.4502 21.2837 22.5341 21.3589 22.6214C21.4639 22.7433 21.5746 22.8719 21.6774 22.9848C21.8627 23.1881 22.0668 23.392 22.2847 23.5429C22.61 23.7686 22.9045 23.8606 23.1276 23.8933C23.2384 23.9095 23.33 23.9108 23.3972 23.9073C23.4309 23.9056 23.4584 23.9026 23.4793 23.8998C23.4814 23.8995 23.4834 23.8992 23.4854 23.8989L25.4917 23.8643L25.503 23.8639L25.4866 23.5644C25.503 23.8639 25.5028 23.8639 25.503 23.8639L25.5042 23.8638L25.5057 23.8638L25.51 23.8635L25.5229 23.8625C25.5335 23.8616 25.5479 23.8603 25.5653 23.8583C25.6 23.8543 25.648 23.8476 25.7035 23.8364C25.8104 23.8149 25.9635 23.7734 26.1047 23.6905C26.2475 23.6067 26.4062 23.4628 26.458 23.2316C26.5082 23.0076 26.4422 22.771 26.2966 22.532C26.2278 22.3969 25.9146 21.8328 24.7236 20.7219L24.7058 20.7054C24.3882 20.4112 24.19 20.2275 24.0728 20.076C23.9675 19.9398 23.9655 19.8786 23.9788 19.8165C24.0014 19.7109 24.0866 19.555 24.3019 19.2612C24.4053 19.1201 24.5214 18.9692 24.6573 18.7924C24.8075 18.5971 24.982 18.3702 25.1904 18.0901C25.6606 17.4671 25.999 16.9526 26.206 16.5432C26.3095 16.3386 26.3851 16.1507 26.4256 15.982C26.4653 15.8171 26.4785 15.6418 26.423 15.4809C26.3596 15.2969 26.2216 15.1885 26.0915 15.1288C25.9657 15.0711 25.8302 15.0498 25.7207 15.0419C25.6081 15.0339 25.5032 15.0389 25.4283 15.0454C25.3902 15.0487 25.3586 15.0525 25.3358 15.0555C25.3309 15.0562 25.3264 15.0568 25.3223 15.0574L23.1019 15.0802C22.9285 15.0508 22.7484 15.0987 22.6113 15.1844C22.4579 15.2803 22.3671 15.4263 22.3144 15.5112C22.3115 15.5159 22.3087 15.5203 22.306 15.5246L22.2894 15.5512L22.2786 15.5807C22.0644 16.1671 21.781 16.7575 21.4723 17.3182C20.9639 18.1728 20.6277 18.594 20.4151 18.7867C20.3519 18.8439 20.3072 18.8739 20.2795 18.8893C20.2318 18.8331 20.1852 18.7151 20.1665 18.4849C20.1519 18.3062 20.1569 18.1244 20.162 17.9354C20.1647 17.8359 20.1674 17.7345 20.1674 17.6305C20.1674 17.2577 20.1799 16.9344 20.1908 16.65C20.1919 16.6217 20.193 16.5937 20.194 16.566C20.2053 16.2673 20.214 16.0003 20.1972 15.7776C20.1805 15.5565 20.1365 15.3366 20.0109 15.1549C19.8775 14.9618 19.6815 14.853 19.4473 14.7972L19.4386 14.7953C19.0856 14.7223 18.7034 14.6725 18.317 14.6725H18.3089C17.9071 14.6725 17.525 14.6725 17.1935 14.6966C16.867 14.7203 16.5556 14.7691 16.3066 14.8848C16.1184 14.9647 15.9643 15.0954 15.8698 15.2145C15.8275 15.2678 15.7698 15.3525 15.7503 15.4525C15.7407 15.5018 15.7299 15.6107 15.8029 15.7151C15.8772 15.8213 15.9855 15.8504 16.0582 15.8548C16.2276 15.8709 16.378 15.9484 16.5202 16.0837C16.5808 16.188 16.6257 16.3693 16.651 16.567C16.6636 16.6651 16.67 16.7546 16.6732 16.8196C16.6748 16.852 16.6756 16.8779 16.6759 16.8952L16.6763 16.9145L16.6763 16.9189L16.6763 16.9291L16.6769 16.9388L16.6772 16.9434L16.6781 16.9587C16.6789 16.9723 16.68 16.9927 16.6813 17.0189C16.6838 17.0714 16.6869 17.1471 16.6893 17.2388C16.6941 17.4229 16.6958 17.669 16.6839 17.9209C16.6719 18.1754 16.6464 18.4233 16.6008 18.6158C16.5779 18.7123 16.5526 18.7835 16.528 18.831C16.5138 18.8585 16.5037 18.8706 16.5003 18.8743C16.5003 18.8742 16.5003 18.8743 16.5003 18.8743C16.4997 18.8749 16.4998 18.8751 16.4998 18.8751C16.4993 18.8755 16.4998 18.8751 16.4998 18.8751ZM16.4998 18.8751C16.4993 18.8755 16.4998 18.8751 16.4998 18.8751C16.5006 18.8753 16.5007 18.8745 16.5003 18.8743C16.5003 18.8742 16.5003 18.8743 16.5003 18.8743C16.4997 18.8749 16.4998 18.8751 16.4998 18.8751Z"
                    fill="#0F1013" />
                <path
                    d="M16.4998 18.8751C16.4985 18.8747 16.4959 18.8739 16.4912 18.8723C16.4593 18.8615 16.3892 18.823 16.2751 18.7069C16.0476 18.4755 15.7318 18.0274 15.2787 17.2492C14.9795 16.7082 14.7075 16.1746 14.4817 15.5991C14.4212 15.4398 14.2981 15.3074 14.2072 15.2317L14.1949 15.2214L14.1816 15.2125C14.1816 15.2125 14.1806 15.2118 14.1782 15.2101L14.1664 15.2014C14.1569 15.1944 14.1393 15.1815 14.1185 15.1687C14.0894 15.1508 14.0438 15.1266 13.9848 15.1134C13.82 15.0434 13.6546 15.0339 13.5256 15.0339L13.5221 15.0339L11.4945 15.0572L11.4888 15.0573L11.4731 15.0577C11.4604 15.0581 11.4431 15.0589 11.4225 15.0604C11.3817 15.0634 11.3247 15.0694 11.2619 15.082C11.2004 15.0943 11.1244 15.1146 11.0498 15.1496C10.9784 15.1832 10.89 15.2388 10.8236 15.3316C10.6932 15.5057 10.7062 15.7009 10.7276 15.8098C10.7393 15.8693 10.7564 15.9196 10.7702 15.9547C10.7772 15.9726 10.7838 15.9875 10.789 15.9987L10.793 16.0069L10.7953 16.0123L10.8104 16.047C10.8236 16.0773 10.8432 16.1218 10.8687 16.1788C10.9196 16.293 10.9944 16.4577 11.09 16.6615C11.2811 17.0689 11.5559 17.633 11.8912 18.2601C12.558 19.5074 13.477 21.0299 14.4627 22.0578C15.3857 23.0295 16.3713 23.4856 17.1303 23.6974C17.5092 23.8031 17.8312 23.8479 18.061 23.8662C18.1759 23.8753 18.2679 23.8778 18.3327 23.8779C18.3651 23.878 18.3907 23.8774 18.409 23.8769L18.4296 23.876H19.3312H19.3541L19.3768 23.8725C19.5836 23.8407 19.7834 23.7476 19.9383 23.6238L19.9804 23.5901L20.0081 23.5438C20.0888 23.4093 20.1791 23.2248 20.1791 22.9931V22.9877L20.179 22.9862V22.9784C20.179 22.9712 20.179 22.9598 20.1792 22.9449C20.1796 22.9152 20.1808 22.8715 20.1839 22.8181C20.1901 22.7104 20.2038 22.5679 20.233 22.4227C20.2626 22.275 20.3054 22.1397 20.3623 22.0378C20.4192 21.936 20.4744 21.8943 20.5201 21.8794C20.5291 21.8764 20.5776 21.8638 20.707 21.9539C20.8331 22.0417 20.9776 22.1874 21.1472 22.3779C21.2115 22.4502 21.2837 22.5341 21.3589 22.6214C21.4639 22.7433 21.5746 22.8719 21.6774 22.9848C21.8627 23.1881 22.0668 23.392 22.2847 23.5429M16.4998 18.8751C16.4998 18.8751 16.4997 18.8749 16.5003 18.8743M16.4998 18.8751C16.4998 18.8751 16.4993 18.8755 16.4998 18.8751ZM16.4998 18.8751C16.5006 18.8753 16.5007 18.8745 16.5003 18.8743M22.2847 23.5429L22.4553 23.2965M22.2847 23.5429C22.61 23.7686 22.9045 23.8606 23.1276 23.8933C23.2384 23.9095 23.33 23.9108 23.3972 23.9073C23.4309 23.9056 23.4584 23.9026 23.4793 23.8998C23.4814 23.8995 23.4834 23.8992 23.4854 23.8989L25.4917 23.8643L25.503 23.8639M25.503 23.8639L25.4866 23.5644C25.503 23.8639 25.5028 23.8639 25.503 23.8639ZM25.503 23.8639L25.5042 23.8638L25.5057 23.8638L25.51 23.8635L25.5229 23.8625C25.5335 23.8616 25.5479 23.8603 25.5653 23.8583C25.6 23.8543 25.648 23.8476 25.7035 23.8364C25.8104 23.8149 25.9635 23.7734 26.1047 23.6905C26.2475 23.6067 26.4062 23.4628 26.458 23.2316C26.5082 23.0076 26.4422 22.771 26.2966 22.532C26.2278 22.3969 25.9146 21.8328 24.7236 20.7219L24.7058 20.7054C24.3882 20.4112 24.19 20.2275 24.0728 20.076C23.9675 19.9398 23.9655 19.8786 23.9788 19.8165C24.0014 19.7109 24.0866 19.555 24.3019 19.2612C24.4053 19.1201 24.5214 18.9692 24.6573 18.7924C24.8075 18.5971 24.982 18.3702 25.1904 18.0901C25.6606 17.4671 25.999 16.9526 26.206 16.5432C26.3095 16.3386 26.3851 16.1507 26.4256 15.982C26.4653 15.8171 26.4785 15.6418 26.423 15.4809C26.3596 15.2969 26.2216 15.1885 26.0915 15.1288C25.9657 15.0711 25.8302 15.0498 25.7207 15.0419C25.6081 15.0339 25.5032 15.0389 25.4283 15.0454C25.3902 15.0487 25.3586 15.0525 25.3358 15.0555C25.3309 15.0562 25.3264 15.0568 25.3223 15.0574L23.1019 15.0802C22.9285 15.0508 22.7484 15.0987 22.6113 15.1844C22.4579 15.2803 22.3671 15.4263 22.3144 15.5112C22.3115 15.5159 22.3087 15.5203 22.306 15.5246L22.2894 15.5512L22.2786 15.5807C22.0644 16.1671 21.781 16.7575 21.4723 17.3182C20.9639 18.1728 20.6277 18.594 20.4151 18.7867C20.3519 18.8439 20.3072 18.8739 20.2795 18.8893C20.2318 18.8331 20.1852 18.7151 20.1665 18.4849C20.1519 18.3062 20.1569 18.1244 20.162 17.9354C20.1647 17.8359 20.1674 17.7345 20.1674 17.6305C20.1674 17.2577 20.1799 16.9344 20.1908 16.65C20.1919 16.6217 20.193 16.5937 20.194 16.566C20.2053 16.2673 20.214 16.0003 20.1972 15.7776C20.1805 15.5565 20.1365 15.3366 20.0109 15.1549C19.8775 14.9618 19.6815 14.853 19.4473 14.7972L19.4386 14.7953C19.0856 14.7223 18.7034 14.6725 18.317 14.6725H18.3089C17.9071 14.6725 17.525 14.6725 17.1935 14.6966C16.867 14.7203 16.5556 14.7691 16.3066 14.8848C16.1184 14.9647 15.9643 15.0954 15.8698 15.2145C15.8275 15.2678 15.7698 15.3525 15.7503 15.4525C15.7407 15.5018 15.7299 15.6107 15.8029 15.7151C15.8772 15.8213 15.9855 15.8504 16.0582 15.8548C16.2276 15.8709 16.378 15.9484 16.5202 16.0837C16.5808 16.188 16.6257 16.3693 16.651 16.567C16.6636 16.6651 16.67 16.7546 16.6732 16.8196C16.6748 16.852 16.6756 16.8779 16.6759 16.8952L16.6763 16.9145L16.6763 16.9189L16.6763 16.9291L16.6769 16.9388L16.6772 16.9434L16.6781 16.9587C16.6789 16.9723 16.68 16.9927 16.6813 17.0189C16.6838 17.0714 16.6869 17.1471 16.6893 17.2388C16.6941 17.4229 16.6958 17.669 16.6839 17.9209C16.6719 18.1754 16.6464 18.4233 16.6008 18.6158C16.5779 18.7123 16.5526 18.7835 16.528 18.831C16.5138 18.8585 16.5037 18.8706 16.5003 18.8743M16.5003 18.8743C16.5003 18.8743 16.5003 18.8742 16.5003 18.8743Z"
                    stroke="#F6F6F6" stroke-width="0.6" />
            </g>
        </g>
    </g>
    <defs>
        <linearGradient id="paint0_linear_4064_8460" x1="18.8172" y1="2" x2="35.2688" y2="43.7445"
            gradientUnits="userSpaceOnUse">
            <stop stop-color="#EAEAEA" />
            <stop offset="1" stop-color="#9A9A9A" />
        </linearGradient>
        <linearGradient id="paint1_linear_4064_8460" x1="30.9041" y1="-0.462141" x2="6.39456"
            y2="34.4555" gradientUnits="userSpaceOnUse">
            <stop stop-color="white" />
            <stop offset="1" stop-color="#DEDEDE" />
        </linearGradient>
        <linearGradient id="paint2_linear_4064_8460" x1="26.9866" y1="19.2349" x2="26.9866"
            y2="36.4699" gradientUnits="userSpaceOnUse">
            <stop stop-color="#DEDEDE" />
            <stop offset="1" stop-color="#F4F4F4" />
        </linearGradient>
        <linearGradient id="paint3_linear_4064_8460" x1="10.5354" y1="2" x2="10.5354" y2="19.235"
            gradientUnits="userSpaceOnUse">
            <stop stop-color="#DEDEDE" />
            <stop offset="1" stop-color="#F4F4F4" />
        </linearGradient>
        <clipPath id="clip0_4064_8460">
            <rect width="38" height="39" fill="white" />
        </clipPath>
        <clipPath id="clip1_4064_8460">
            <rect width="52" height="52" fill="white" transform="translate(11 3)" />
        </clipPath>
        <clipPath id="clip2_4064_8460">
            <rect width="17" height="11" fill="white" transform="translate(10 14)" />
        </clipPath>
    </defs>
</svg>
    