<svg width="37" height="39" viewBox="0 0 37 39" fill="none" xmlns="http://www.w3.org/2000/svg">
<path d="M36 18.4415V17.7088L35.3013 17.488C27.5697 15.0445 23.2247 7.1207 21.1005 1.63869L20.853 1H20.1681H16.9287H16.2437L15.9963 1.63869C13.8721 7.1207 9.52708 15.0445 1.79546 17.488L1.0968 17.7088V18.4415V20.0294V20.7615L1.79467 20.9827C9.52738 23.4335 13.8799 31.3587 15.996 36.8307L16.2433 37.47H16.9287H20.1681H20.8535L21.1008 36.8307C23.2169 31.3587 27.5694 23.4335 35.3021 20.9827L36 20.7615V20.0294V18.4415Z" fill="url(#paint0_linear_295_9988)" stroke="url(#paint1_linear_295_9988)" stroke-width="2"/>
<path d="M34.9995 19.2349V20.0225C26.7366 22.6231 22.2113 30.9562 20.0684 36.4699H18.436V19.2349H34.9995Z" fill="url(#paint2_linear_295_9988)"/>
<path d="M18.4365 2V19.235H2.0968V18.4351C10.248 15.848 14.706 7.51795 16.8261 2H18.4365Z" fill="url(#paint3_linear_295_9988)"/>
<path d="M25.5524 15.6775L25.5522 15.6763C25.5066 15.2952 25.3082 14.9398 25.0447 14.6715C24.7814 14.4033 24.4305 14.1991 24.0521 14.1498L24.0521 14.1498L24.0503 14.1496C20.3834 13.6939 16.6742 13.6939 13.0073 14.1496L13.0073 14.1496L13.0057 14.1498C12.6269 14.199 12.2759 14.4032 12.0125 14.6714C11.749 14.9398 11.5506 15.2953 11.5049 15.6763L11.5049 15.6763L11.5048 15.6775C11.2449 17.9211 11.2449 20.0974 11.5048 22.3404L11.5047 22.3404L11.5049 22.3416C11.5506 22.7227 11.749 23.0782 12.0125 23.3467C12.2758 23.6149 12.627 23.8192 13.0059 23.8682L13.0073 23.8683C16.6742 24.3241 20.3834 24.3241 24.0503 23.8684L24.0517 23.8682C24.4305 23.8193 24.7815 23.6149 25.0448 23.3467C25.3082 23.0782 25.5066 22.7226 25.5523 22.3416L25.5524 22.3404C25.8123 20.0976 25.8123 17.9211 25.5524 15.6775ZM20.294 19.0094L17.6754 20.7551V17.2636L20.294 19.0094Z" fill="#0F1013" stroke="#F6F6F6" stroke-width="0.6"/>
<defs>
<linearGradient id="paint0_linear_295_9988" x1="18.5484" y1="2" x2="35" y2="43.7445" gradientUnits="userSpaceOnUse">
<stop stop-color="#EAEAEA"/>
<stop offset="1" stop-color="#9A9A9A"/>
</linearGradient>
<linearGradient id="paint1_linear_295_9988" x1="30.6353" y1="-0.462142" x2="6.12576" y2="34.4555" gradientUnits="userSpaceOnUse">
<stop stop-color="white"/>
<stop offset="1" stop-color="#DEDEDE"/>
</linearGradient>
<linearGradient id="paint2_linear_295_9988" x1="26.7177" y1="19.2349" x2="26.7177" y2="36.4699" gradientUnits="userSpaceOnUse">
<stop stop-color="#DEDEDE"/>
<stop offset="1" stop-color="#F4F4F4"/>
</linearGradient>
<linearGradient id="paint3_linear_295_9988" x1="10.2666" y1="2" x2="10.2666" y2="19.235" gradientUnits="userSpaceOnUse">
<stop stop-color="#DEDEDE"/>
<stop offset="1" stop-color="#F4F4F4"/>
</linearGradient>
</defs>
</svg>
