<svg width="412" height="221" viewBox="0 0 412 221" fill="none" xmlns="http://www.w3.org/2000/svg">
    <g opacity="0.2">
        <mask id="mask0_1889_124528" style="mask-type:luminance" maskUnits="userSpaceOnUse" x="364"
            y="-18" width="48" height="39">
            <path d="M411.405 -17.5979H364.649V20.5414H411.405V-17.5979Z" fill="white" />
        </mask>
        <g mask="url(#mask0_1889_124528)">
            <path
                d="M411.404 4.46463V20.5441H398.882V19.7991C405.126 17.3811 408.542 9.61088 410.172 4.46463H411.404Z"
                fill="#101010" />
            <path
                d="M400.549 1.47482V2.21219C394.305 4.63784 390.883 12.4081 389.26 17.5467H388.027V1.47482H400.549Z"
                fill="#101010" />
            <path
                d="M388.027 -14.6049V1.47462H375.505V0.729633C381.749 -1.68839 385.166 -9.45861 386.795 -14.6049H388.027Z"
                fill="#101010" />
        </g>
        <mask id="mask1_1889_124528" style="mask-type:luminance" maskUnits="userSpaceOnUse" x="364"
            y="20" width="48" height="39">
            <path d="M411.405 20.5413H364.649V58.6805H411.405V20.5413Z" fill="white" />
        </mask>
        <g mask="url(#mask1_1889_124528)">
            <path
                d="M411.404 42.6032V58.6827H398.882V57.9377C405.126 55.5197 408.542 47.7495 410.172 42.6032H411.404Z"
                fill="#101010" />
            <path
                d="M411.404 4.46408V20.5436H398.882V19.7986C405.126 17.3805 408.542 9.61033 410.172 4.46408H411.404Z"
                fill="#101010" />
            <path
                d="M400.549 39.6133V40.3506C394.305 42.7763 390.883 50.5465 389.26 55.6851H388.027V39.6133H400.549Z"
                fill="#101010" />
            <path
                d="M388.027 23.5335V39.6129H375.505V38.868C381.749 36.4499 385.166 28.6797 386.795 23.5335H388.027Z"
                fill="#101010" />
            <path
                d="M377.171 20.5433V21.2807C370.927 23.7064 367.505 31.4766 365.882 36.6152H364.649V20.5433H377.171Z"
                fill="#101010" />
        </g>
        <mask id="mask2_1889_124528" style="mask-type:luminance" maskUnits="userSpaceOnUse" x="364"
            y="58" width="48" height="39">
            <path d="M411.405 58.68H364.649V96.8192H411.405V58.68Z" fill="white" />
        </mask>
        <g mask="url(#mask2_1889_124528)">
            <path
                d="M411.404 80.7421V96.8215H398.882V96.0766C405.126 93.6585 408.542 85.8883 410.172 80.7421H411.404Z"
                fill="#101010" />
            <path
                d="M411.404 42.6028V58.6823H398.882V57.9373C405.126 55.5193 408.542 47.749 410.172 42.6028H411.404Z"
                fill="#101010" />
            <path
                d="M400.549 77.7517V78.4891C394.305 80.9147 390.883 88.685 389.26 93.8236H388.027V77.7517H400.549Z"
                fill="#101010" />
            <path
                d="M388.027 61.6724V77.7519H375.505V77.0069C381.749 74.5889 385.166 66.8187 386.795 61.6724H388.027Z"
                fill="#101010" />
            <path
                d="M377.171 58.6822V59.4196C370.927 61.8452 367.505 69.6155 365.882 74.7541H364.649V58.6822H377.171Z"
                fill="#101010" />
        </g>
        <mask id="mask3_1889_124528" style="mask-type:luminance" maskUnits="userSpaceOnUse" x="364"
            y="96" width="48" height="39">
            <path d="M411.405 96.8196H364.649V134.959H411.405V96.8196Z" fill="white" />
        </mask>
        <g mask="url(#mask3_1889_124528)">
            <path
                d="M411.404 118.882V134.962H398.882V134.217C405.126 131.799 408.542 124.028 410.172 118.882H411.404Z"
                fill="#101010" />
            <path
                d="M411.404 80.743V96.8224H398.882V96.0774C405.126 93.6594 408.542 85.8892 410.172 80.743H411.404Z"
                fill="#101010" />
            <path
                d="M400.549 115.892V116.629C394.305 119.055 390.883 126.825 389.26 131.964H388.027V115.892H400.549Z"
                fill="#101010" />
            <path
                d="M388.027 99.8123V115.892H375.505V115.147C381.749 112.729 385.166 104.959 386.795 99.8123H388.027Z"
                fill="#101010" />
            <path
                d="M377.171 96.8223V97.5597C370.927 99.9853 367.505 107.756 365.882 112.894H364.649V96.8223H377.171Z"
                fill="#101010" />
        </g>
        <mask id="mask4_1889_124528" style="mask-type:luminance" maskUnits="userSpaceOnUse" x="364"
            y="134" width="48" height="40">
            <path d="M411.405 134.959H364.649V173.098H411.405V134.959Z" fill="white" />
        </mask>
        <g mask="url(#mask4_1889_124528)">
            <path
                d="M411.404 157.022V173.101H398.882V172.356C405.126 169.938 408.542 162.168 410.172 157.022H411.404Z"
                fill="#101010" />
            <path
                d="M411.404 118.882V134.962H398.882V134.217C405.126 131.799 408.542 124.029 410.172 118.882H411.404Z"
                fill="#101010" />
            <path
                d="M400.549 154.031V154.768C394.305 157.194 390.883 164.964 389.26 170.103H388.027V154.031H400.549Z"
                fill="#101010" />
            <path
                d="M388.027 137.951V154.031H375.505V153.286C381.749 150.868 385.166 143.098 386.795 137.951H388.027Z"
                fill="#101010" />
            <path
                d="M377.171 134.962V135.699C370.927 138.125 367.505 145.895 365.882 151.033H364.649V134.962H377.171Z"
                fill="#101010" />
        </g>
        <mask id="mask5_1889_124528" style="mask-type:luminance" maskUnits="userSpaceOnUse" x="364"
            y="173" width="48" height="39">
            <path d="M411.405 173.098H364.649V211.237H411.405V173.098Z" fill="white" />
        </mask>
        <g mask="url(#mask5_1889_124528)">
            <path
                d="M411.404 195.16V211.24H398.882V210.495C405.126 208.077 408.542 200.307 410.172 195.16H411.404Z"
                fill="#101010" />
            <path
                d="M411.404 157.021V173.101H398.882V172.356C405.126 169.938 408.542 162.167 410.172 157.021H411.404Z"
                fill="#101010" />
            <path
                d="M400.549 192.17V192.908C394.305 195.333 390.883 203.103 389.26 208.242H388.027V192.17H400.549Z"
                fill="#101010" />
            <path
                d="M388.027 176.09V192.17H375.505V191.425C381.749 189.007 385.166 181.237 386.795 176.09H388.027Z"
                fill="#101010" />
            <path
                d="M377.171 173.101V173.838C370.927 176.264 367.505 184.034 365.882 189.172H364.649V173.101H377.171Z"
                fill="#101010" />
        </g>
        <mask id="mask6_1889_124528" style="mask-type:luminance" maskUnits="userSpaceOnUse" x="364"
            y="211" width="48" height="39">
            <path d="M411.405 211.237H364.649V249.376H411.405V211.237Z" fill="white" />
        </mask>
        <g mask="url(#mask6_1889_124528)">
            <path
                d="M411.404 195.16V211.24H398.882V210.495C405.126 208.077 408.542 200.306 410.172 195.16H411.404Z"
                fill="#101010" />
            <path
                d="M388.027 214.23V230.309H375.505V229.564C381.749 227.146 385.166 219.376 386.795 214.23H388.027Z"
                fill="#101010" />
            <path
                d="M377.171 211.24V211.977C370.927 214.403 367.505 222.173 365.882 227.311H364.649V211.24H377.171Z"
                fill="#101010" />
        </g>
        <mask id="mask7_1889_124528" style="mask-type:luminance" maskUnits="userSpaceOnUse" x="317"
            y="-18" width="48" height="39">
            <path d="M364.649 -17.598H317.894V20.5412H364.649V-17.598Z" fill="white" />
        </mask>
        <g mask="url(#mask7_1889_124528)">
            <path
                d="M364.649 4.46454V20.544H352.127V19.799C358.371 17.381 361.788 9.61079 363.417 4.46454H364.649Z"
                fill="#101010" />
            <path
                d="M353.794 1.47476V2.21213C347.549 4.63778 344.127 12.408 342.504 17.5466H341.271V1.47476H353.794Z"
                fill="#101010" />
            <path
                d="M341.271 -14.6049V1.47453H328.749V0.729542C334.993 -1.68848 338.41 -9.4587 340.039 -14.6049H341.271Z"
                fill="#101010" />
        </g>
        <mask id="mask8_1889_124528" style="mask-type:luminance" maskUnits="userSpaceOnUse" x="317"
            y="20" width="48" height="39">
            <path d="M364.649 20.5413H317.894V58.6805H364.649V20.5413Z" fill="white" />
        </mask>
        <g mask="url(#mask8_1889_124528)">
            <path
                d="M364.649 42.6034V58.6829H352.127V57.9379C358.371 55.5199 361.788 47.7496 363.417 42.6034H364.649Z"
                fill="#101010" />
            <path
                d="M364.649 4.4642V20.5437H352.127V19.7987C358.371 17.3807 361.788 9.61045 363.417 4.4642H364.649Z"
                fill="#101010" />
            <path
                d="M353.794 39.6134V40.3508C347.549 42.7764 344.127 50.5467 342.504 55.6853H341.271V39.6134H353.794Z"
                fill="#101010" />
            <path
                d="M341.271 23.5336V39.6131H328.749V38.8681C334.993 36.4501 338.41 28.6798 340.039 23.5336H341.271Z"
                fill="#101010" />
            <path
                d="M330.416 20.5435V21.2809C324.171 23.7065 320.749 31.4768 319.126 36.6154H317.894V20.5435H330.416Z"
                fill="#101010" />
        </g>
        <mask id="mask9_1889_124528" style="mask-type:luminance" maskUnits="userSpaceOnUse" x="317"
            y="58" width="48" height="39">
            <path d="M364.649 58.6805H317.894V96.8197H364.649V58.6805Z" fill="white" />
        </mask>
        <g mask="url(#mask9_1889_124528)">
            <path
                d="M364.649 80.7421V96.8216H352.127V96.0766C358.371 93.6586 361.788 85.8884 363.417 80.7421H364.649Z"
                fill="#101010" />
            <path
                d="M364.649 42.6029V58.6824H352.127V57.9374C358.371 55.5194 361.788 47.7492 363.417 42.6029H364.649Z"
                fill="#101010" />
            <path
                d="M353.794 77.7518V78.4892C347.549 80.9148 344.127 88.6851 342.504 93.8237H341.271V77.7518H353.794Z"
                fill="#101010" />
            <path
                d="M341.271 61.6725V77.752H328.749V77.007C334.993 74.589 338.41 66.8188 340.039 61.6725H341.271Z"
                fill="#101010" />
            <path
                d="M330.416 58.6823V59.4197C324.171 61.8453 320.749 69.6156 319.126 74.7542H317.894V58.6823H330.416Z"
                fill="#101010" />
        </g>
        <mask id="mask10_1889_124528" style="mask-type:luminance" maskUnits="userSpaceOnUse" x="317"
            y="96" width="48" height="39">
            <path d="M364.649 96.8197H317.894V134.959H364.649V96.8197Z" fill="white" />
        </mask>
        <g mask="url(#mask10_1889_124528)">
            <path
                d="M364.649 118.882V134.962H352.127V134.217C358.371 131.799 361.788 124.029 363.417 118.882H364.649Z"
                fill="#101010" />
            <path
                d="M364.649 80.7432V96.8227H352.127V96.0777C358.371 93.6597 361.788 85.8895 363.417 80.7432H364.649Z"
                fill="#101010" />
            <path
                d="M353.794 115.892V116.63C347.549 119.055 344.127 126.825 342.504 131.964H341.271V115.892H353.794Z"
                fill="#101010" />
            <path
                d="M341.271 99.8125V115.892H328.749V115.147C334.993 112.729 338.41 104.959 340.039 99.8125H341.271Z"
                fill="#101010" />
            <path
                d="M330.416 96.8225V97.5599C324.171 99.9855 320.749 107.756 319.126 112.894H317.894V96.8225H330.416Z"
                fill="#101010" />
        </g>
        <mask id="mask11_1889_124528" style="mask-type:luminance" maskUnits="userSpaceOnUse" x="317"
            y="134" width="48" height="40">
            <path d="M364.649 134.959H317.894V173.098H364.649V134.959Z" fill="white" />
        </mask>
        <g mask="url(#mask11_1889_124528)">
            <path
                d="M364.649 157.021V173.101H352.127V172.356C358.371 169.938 361.788 162.168 363.417 157.021H364.649Z"
                fill="#101010" />
            <path
                d="M364.649 118.882V134.962H352.127V134.217C358.371 131.799 361.788 124.029 363.417 118.882H364.649Z"
                fill="#101010" />
            <path
                d="M353.794 154.031V154.768C347.549 157.194 344.127 164.964 342.504 170.103H341.271V154.031H353.794Z"
                fill="#101010" />
            <path
                d="M341.271 137.951V154.031H328.749V153.286C334.993 150.868 338.41 143.098 340.039 137.951H341.271Z"
                fill="#101010" />
            <path
                d="M330.416 134.962V135.699C324.171 138.125 320.749 145.895 319.126 151.033H317.894V134.962H330.416Z"
                fill="#101010" />
        </g>
        <mask id="mask12_1889_124528" style="mask-type:luminance" maskUnits="userSpaceOnUse" x="317"
            y="173" width="48" height="39">
            <path d="M364.649 173.098H317.894V211.237H364.649V173.098Z" fill="white" />
        </mask>
        <g mask="url(#mask12_1889_124528)">
            <path
                d="M364.649 195.161V211.24H352.127V210.495C358.371 208.077 361.788 200.307 363.417 195.161H364.649Z"
                fill="#101010" />
            <path
                d="M364.649 157.021V173.101H352.127V172.356C358.371 169.938 361.788 162.168 363.417 157.021H364.649Z"
                fill="#101010" />
            <path
                d="M353.794 192.17V192.908C347.549 195.333 344.127 203.103 342.504 208.242H341.271V192.17H353.794Z"
                fill="#101010" />
            <path
                d="M341.271 176.09V192.17H328.749V191.425C334.993 189.007 338.41 181.237 340.039 176.09H341.271Z"
                fill="#101010" />
            <path
                d="M330.416 173.101V173.838C324.171 176.264 320.749 184.034 319.126 189.172H317.894V173.101H330.416Z"
                fill="#101010" />
        </g>
        <mask id="mask13_1889_124528" style="mask-type:luminance" maskUnits="userSpaceOnUse" x="317"
            y="211" width="48" height="39">
            <path d="M364.649 211.237H317.894V249.376H364.649V211.237Z" fill="white" />
        </mask>
        <g mask="url(#mask13_1889_124528)">
            <path
                d="M364.649 195.16V211.24H352.127V210.495C358.371 208.077 361.788 200.307 363.417 195.16H364.649Z"
                fill="#101010" />
            <path
                d="M341.271 214.23V230.309H328.749V229.564C334.993 227.146 338.41 219.376 340.039 214.23H341.271Z"
                fill="#101010" />
            <path
                d="M330.416 211.24V211.977C324.171 214.403 320.749 222.173 319.126 227.312H317.894V211.24H330.416Z"
                fill="#101010" />
        </g>
        <mask id="mask14_1889_124528" style="mask-type:luminance" maskUnits="userSpaceOnUse" x="271"
            y="-18" width="47" height="39">
            <path d="M317.894 -17.598H271.139V20.5412H317.894V-17.598Z" fill="white" />
        </mask>
        <g mask="url(#mask14_1889_124528)">
            <path
                d="M317.893 4.46454V20.544H305.371V19.799C311.615 17.381 315.032 9.61079 316.661 4.46454H317.893Z"
                fill="#101010" />
            <path
                d="M307.039 1.47488V2.21225C300.794 4.6379 297.372 12.4081 295.749 17.5467H294.517V1.47488H307.039Z"
                fill="#101010" />
            <path
                d="M294.516 -14.6051V1.47434H281.994V0.729359C288.239 -1.68867 291.655 -9.45889 293.284 -14.6051H294.516Z"
                fill="#101010" />
        </g>
        <mask id="mask15_1889_124528" style="mask-type:luminance" maskUnits="userSpaceOnUse" x="271"
            y="20" width="47" height="39">
            <path d="M317.894 20.5413H271.139V58.6805H317.894V20.5413Z" fill="white" />
        </mask>
        <g mask="url(#mask15_1889_124528)">
            <path
                d="M317.893 42.6034V58.6829H305.371V57.9379C311.615 55.5199 315.032 47.7496 316.661 42.6034H317.893Z"
                fill="#101010" />
            <path
                d="M317.893 4.4642V20.5437H305.371V19.7987C311.615 17.3807 315.032 9.61045 316.661 4.4642H317.893Z"
                fill="#101010" />
            <path
                d="M307.039 39.6134V40.3508C300.794 42.7764 297.372 50.5466 295.749 55.6852H294.517V39.6134H307.039Z"
                fill="#101010" />
            <path
                d="M294.516 23.5338V39.6133H281.994V38.8683C288.239 36.4503 291.655 28.68 293.284 23.5338H294.516Z"
                fill="#101010" />
            <path
                d="M283.661 20.5435V21.2809C277.416 23.7065 273.994 31.4768 272.371 36.6154H271.139V20.5435H283.661Z"
                fill="#101010" />
        </g>
        <mask id="mask16_1889_124528" style="mask-type:luminance" maskUnits="userSpaceOnUse" x="271"
            y="58" width="47" height="39">
            <path d="M317.894 58.6805H271.139V96.8197H317.894V58.6805Z" fill="white" />
        </mask>
        <g mask="url(#mask16_1889_124528)">
            <path
                d="M317.893 80.7421V96.8216H305.371V96.0766C311.615 93.6586 315.032 85.8884 316.661 80.7421H317.893Z"
                fill="#101010" />
            <path
                d="M317.893 42.6029V58.6824H305.371V57.9374C311.615 55.5194 315.032 47.7492 316.661 42.6029H317.893Z"
                fill="#101010" />
            <path
                d="M307.039 77.7518V78.4892C300.794 80.9148 297.372 88.6851 295.749 93.8237H294.517V77.7518H307.039Z"
                fill="#101010" />
            <path
                d="M294.516 61.6725V77.752H281.994V77.007C288.239 74.589 291.655 66.8188 293.284 61.6725H294.516Z"
                fill="#101010" />
            <path
                d="M283.661 58.6823V59.4197C277.416 61.8453 273.994 69.6156 272.371 74.7542H271.139V58.6823H283.661Z"
                fill="#101010" />
        </g>
        <mask id="mask17_1889_124528" style="mask-type:luminance" maskUnits="userSpaceOnUse" x="271"
            y="96" width="47" height="39">
            <path d="M317.894 96.8197H271.139V134.959H317.894V96.8197Z" fill="white" />
        </mask>
        <g mask="url(#mask17_1889_124528)">
            <path
                d="M317.893 118.882V134.962H305.371V134.217C311.615 131.799 315.032 124.029 316.661 118.882H317.893Z"
                fill="#101010" />
            <path
                d="M317.893 80.7432V96.8227H305.371V96.0777C311.615 93.6597 315.032 85.8895 316.661 80.7432H317.893Z"
                fill="#101010" />
            <path
                d="M307.039 115.892V116.63C300.794 119.055 297.372 126.826 295.749 131.964H294.517V115.892H307.039Z"
                fill="#101010" />
            <path
                d="M294.516 99.8124V115.892H281.994V115.147C288.239 112.729 291.655 104.959 293.284 99.8124H294.516Z"
                fill="#101010" />
            <path
                d="M283.661 96.8225V97.5599C277.416 99.9855 273.994 107.756 272.371 112.894H271.139V96.8225H283.661Z"
                fill="#101010" />
        </g>
        <mask id="mask18_1889_124528" style="mask-type:luminance" maskUnits="userSpaceOnUse" x="271"
            y="134" width="47" height="40">
            <path d="M317.894 134.959H271.139V173.098H317.894V134.959Z" fill="white" />
        </mask>
        <g mask="url(#mask18_1889_124528)">
            <path
                d="M317.893 157.021V173.101H305.371V172.356C311.615 169.938 315.032 162.168 316.661 157.021H317.893Z"
                fill="#101010" />
            <path
                d="M317.893 118.882V134.962H305.371V134.217C311.615 131.799 315.032 124.029 316.661 118.882H317.893Z"
                fill="#101010" />
            <path
                d="M307.039 154.031V154.768C300.794 157.194 297.372 164.964 295.749 170.103H294.517V154.031H307.039Z"
                fill="#101010" />
            <path
                d="M294.516 137.951V154.031H281.994V153.286C288.239 150.868 291.655 143.098 293.284 137.951H294.516Z"
                fill="#101010" />
            <path
                d="M283.661 134.962V135.699C277.416 138.125 273.994 145.895 272.371 151.033H271.139V134.962H283.661Z"
                fill="#101010" />
        </g>
        <mask id="mask19_1889_124528" style="mask-type:luminance" maskUnits="userSpaceOnUse" x="271"
            y="173" width="47" height="39">
            <path d="M317.894 173.098H271.139V211.237H317.894V173.098Z" fill="white" />
        </mask>
        <g mask="url(#mask19_1889_124528)">
            <path
                d="M317.893 195.161V211.24H305.371V210.495C311.615 208.077 315.032 200.307 316.661 195.161H317.893Z"
                fill="#101010" />
            <path
                d="M317.893 157.021V173.101H305.371V172.356C311.615 169.938 315.032 162.168 316.661 157.021H317.893Z"
                fill="#101010" />
            <path
                d="M307.039 192.17V192.908C300.794 195.333 297.372 203.103 295.749 208.242H294.517V192.17H307.039Z"
                fill="#101010" />
            <path
                d="M294.516 176.09V192.17H281.994V191.425C288.239 189.007 291.655 181.237 293.284 176.09H294.516Z"
                fill="#101010" />
            <path
                d="M283.661 173.101V173.838C277.416 176.264 273.994 184.034 272.371 189.172H271.139V173.101H283.661Z"
                fill="#101010" />
        </g>
        <mask id="mask20_1889_124528" style="mask-type:luminance" maskUnits="userSpaceOnUse" x="271"
            y="211" width="47" height="39">
            <path d="M317.894 211.237H271.139V249.376H317.894V211.237Z" fill="white" />
        </mask>
        <g mask="url(#mask20_1889_124528)">
            <path
                d="M317.893 195.16V211.24H305.371V210.495C311.615 208.077 315.032 200.307 316.661 195.16H317.893Z"
                fill="#101010" />
            <path
                d="M294.516 214.23V230.309H281.994V229.564C288.239 227.146 291.655 219.376 293.284 214.23H294.516Z"
                fill="#101010" />
            <path
                d="M283.661 211.24V211.977C277.416 214.403 273.994 222.173 272.371 227.312H271.139V211.24H283.661Z"
                fill="#101010" />
        </g>
        <mask id="mask21_1889_124528" style="mask-type:luminance" maskUnits="userSpaceOnUse" x="224"
            y="-18" width="48" height="39">
            <path d="M271.138 -17.598H224.383V20.5412H271.138V-17.598Z" fill="white" />
        </mask>
        <g mask="url(#mask21_1889_124528)">
            <path
                d="M271.137 4.46448V20.544H258.615V19.799C264.86 17.3809 268.276 9.61072 269.905 4.46448H271.137Z"
                fill="#101010" />
            <path
                d="M260.283 1.47467V2.21203C254.038 4.63769 250.616 12.4079 248.993 17.5465H247.761V1.47467H260.283Z"
                fill="#101010" />
            <path
                d="M247.76 -14.605V1.47446H235.238V0.729481C241.483 -1.68854 244.899 -9.45876 246.528 -14.605H247.76Z"
                fill="#101010" />
        </g>
        <mask id="mask22_1889_124528" style="mask-type:luminance" maskUnits="userSpaceOnUse" x="224"
            y="20" width="48" height="39">
            <path d="M271.138 20.5414H224.383V58.6806H271.138V20.5414Z" fill="white" />
        </mask>
        <g mask="url(#mask22_1889_124528)">
            <path
                d="M271.137 42.6033V58.6828H258.615V57.9378C264.86 55.5198 268.276 47.7495 269.905 42.6033H271.137Z"
                fill="#101010" />
            <path
                d="M271.137 4.46414V20.5436H258.615V19.7986C264.86 17.3806 268.276 9.61039 269.905 4.46414H271.137Z"
                fill="#101010" />
            <path
                d="M260.283 39.6133V40.3507C254.038 42.7763 250.616 50.5466 248.993 55.6852H247.761V39.6133H260.283Z"
                fill="#101010" />
            <path
                d="M247.76 23.5335V39.613H235.238V38.868C241.483 36.45 244.899 28.6798 246.528 23.5335H247.76Z"
                fill="#101010" />
            <path
                d="M236.905 20.5434V21.2808C230.66 23.7064 227.238 31.4766 225.615 36.6153H224.383V20.5434H236.905Z"
                fill="#101010" />
        </g>
        <mask id="mask23_1889_124528" style="mask-type:luminance" maskUnits="userSpaceOnUse" x="224"
            y="58" width="48" height="39">
            <path d="M271.138 58.68H224.383V96.8192H271.138V58.68Z" fill="white" />
        </mask>
        <g mask="url(#mask23_1889_124528)">
            <path
                d="M271.137 80.7421V96.8215H258.615V96.0766C264.86 93.6585 268.276 85.8883 269.905 80.7421H271.137Z"
                fill="#101010" />
            <path
                d="M271.137 42.6028V58.6823H258.615V57.9373C264.86 55.5193 268.276 47.7491 269.905 42.6028H271.137Z"
                fill="#101010" />
            <path
                d="M260.283 77.7519V78.4893C254.038 80.9149 250.616 88.6852 248.993 93.8238H247.761V77.7519H260.283Z"
                fill="#101010" />
            <path
                d="M247.76 61.6726V77.752H235.238V77.0071C241.483 74.589 244.899 66.8188 246.528 61.6726H247.76Z"
                fill="#101010" />
            <path
                d="M236.905 58.6822V59.4196C230.66 61.8453 227.238 69.6155 225.615 74.7541H224.383V58.6822H236.905Z"
                fill="#101010" />
        </g>
        <mask id="mask24_1889_124528" style="mask-type:luminance" maskUnits="userSpaceOnUse" x="224"
            y="96" width="48" height="39">
            <path d="M271.138 96.8197H224.383V134.959H271.138V96.8197Z" fill="white" />
        </mask>
        <g mask="url(#mask24_1889_124528)">
            <path
                d="M271.137 118.882V134.962H258.615V134.217C264.86 131.799 268.276 124.029 269.905 118.882H271.137Z"
                fill="#101010" />
            <path
                d="M271.137 80.7431V96.8225H258.615V96.0776C264.86 93.6595 268.276 85.8893 269.905 80.7431H271.137Z"
                fill="#101010" />
            <path
                d="M260.283 115.892V116.629C254.038 119.055 250.616 126.825 248.993 131.964H247.761V115.892H260.283Z"
                fill="#101010" />
            <path
                d="M247.76 99.8123V115.892H235.238V115.147C241.483 112.729 244.899 104.959 246.528 99.8123H247.76Z"
                fill="#101010" />
            <path
                d="M236.905 96.8224V97.5598C230.66 99.9854 227.238 107.756 225.615 112.894H224.383V96.8224H236.905Z"
                fill="#101010" />
        </g>
        <mask id="mask25_1889_124528" style="mask-type:luminance" maskUnits="userSpaceOnUse" x="224"
            y="134" width="48" height="40">
            <path d="M271.138 134.959H224.383V173.098H271.138V134.959Z" fill="white" />
        </mask>
        <g mask="url(#mask25_1889_124528)">
            <path
                d="M271.137 157.021V173.101H258.615V172.356C264.86 169.938 268.276 162.168 269.905 157.021H271.137Z"
                fill="#101010" />
            <path
                d="M271.137 118.882V134.962H258.615V134.217C264.86 131.799 268.276 124.028 269.905 118.882H271.137Z"
                fill="#101010" />
            <path
                d="M260.283 154.031V154.769C254.038 157.194 250.616 164.965 248.993 170.103H247.761V154.031H260.283Z"
                fill="#101010" />
            <path
                d="M247.76 137.952V154.031H235.238V153.286C241.483 150.868 244.899 143.098 246.528 137.952H247.76Z"
                fill="#101010" />
            <path
                d="M236.905 134.962V135.699C230.66 138.125 227.238 145.895 225.615 151.033H224.383V134.962H236.905Z"
                fill="#101010" />
        </g>
        <mask id="mask26_1889_124528" style="mask-type:luminance" maskUnits="userSpaceOnUse" x="224"
            y="173" width="48" height="39">
            <path d="M271.138 173.098H224.383V211.237H271.138V173.098Z" fill="white" />
        </mask>
        <g mask="url(#mask26_1889_124528)">
            <path
                d="M271.137 195.161V211.24H258.615V210.495C264.86 208.077 268.276 200.307 269.905 195.161H271.137Z"
                fill="#101010" />
            <path
                d="M271.137 157.021V173.101H258.615V172.356C264.86 169.938 268.276 162.168 269.905 157.021H271.137Z"
                fill="#101010" />
            <path
                d="M260.283 192.17V192.908C254.038 195.333 250.616 203.103 248.993 208.242H247.761V192.17H260.283Z"
                fill="#101010" />
            <path
                d="M247.76 176.091V192.17H235.238V191.425C241.483 189.007 244.899 181.237 246.528 176.091H247.76Z"
                fill="#101010" />
            <path
                d="M236.905 173.101V173.838C230.66 176.264 227.238 184.034 225.615 189.173H224.383V173.101H236.905Z"
                fill="#101010" />
        </g>
        <mask id="mask27_1889_124528" style="mask-type:luminance" maskUnits="userSpaceOnUse" x="224"
            y="211" width="48" height="39">
            <path d="M271.138 211.237H224.383V249.376H271.138V211.237Z" fill="white" />
        </mask>
        <g mask="url(#mask27_1889_124528)">
            <path
                d="M271.137 195.16V211.24H258.615V210.495C264.86 208.077 268.276 200.307 269.905 195.16H271.137Z"
                fill="#101010" />
            <path
                d="M247.76 214.23V230.309H235.238V229.564C241.483 227.146 244.899 219.376 246.528 214.23H247.76Z"
                fill="#101010" />
            <path
                d="M236.905 211.24V211.977C230.66 214.403 227.238 222.173 225.615 227.312H224.383V211.24H236.905Z"
                fill="#101010" />
        </g>
        <mask id="mask28_1889_124528" style="mask-type:luminance" maskUnits="userSpaceOnUse" x="177"
            y="-18" width="48" height="39">
            <path d="M224.384 -17.598H177.629V20.5412H224.384V-17.598Z" fill="white" />
        </mask>
        <g mask="url(#mask28_1889_124528)">
            <path
                d="M224.383 4.46448V20.544H211.861V19.799C218.106 17.3809 221.522 9.61072 223.151 4.46448H224.383Z"
                fill="#101010" />
            <path
                d="M213.529 1.47467V2.21203C207.284 4.63769 203.862 12.4079 202.239 17.5465H201.007V1.47467H213.529Z"
                fill="#101010" />
            <path
                d="M201.006 -14.605V1.47446H188.484V0.729481C194.729 -1.68854 198.145 -9.45876 199.774 -14.605H201.006Z"
                fill="#101010" />
        </g>
        <mask id="mask29_1889_124528" style="mask-type:luminance" maskUnits="userSpaceOnUse" x="177"
            y="20" width="48" height="39">
            <path d="M224.384 20.5414H177.629V58.6806H224.384V20.5414Z" fill="white" />
        </mask>
        <g mask="url(#mask29_1889_124528)">
            <path
                d="M224.383 42.6033V58.6828H211.861V57.9378C218.106 55.5198 221.522 47.7495 223.151 42.6033H224.383Z"
                fill="#101010" />
            <path
                d="M224.383 4.46414V20.5436H211.861V19.7986C218.106 17.3806 221.522 9.61039 223.151 4.46414H224.383Z"
                fill="#101010" />
            <path
                d="M213.529 39.6133V40.3507C207.284 42.7763 203.862 50.5466 202.239 55.6852H201.007V39.6133H213.529Z"
                fill="#101010" />
            <path
                d="M201.006 23.5335V39.613H188.484V38.868C194.729 36.45 198.145 28.6798 199.774 23.5335H201.006Z"
                fill="#101010" />
            <path
                d="M190.151 20.5434V21.2808C183.907 23.7064 180.484 31.4766 178.861 36.6153H177.629V20.5434H190.151Z"
                fill="#101010" />
        </g>
        <mask id="mask30_1889_124528" style="mask-type:luminance" maskUnits="userSpaceOnUse" x="177"
            y="58" width="48" height="39">
            <path d="M224.384 58.68H177.629V96.8192H224.384V58.68Z" fill="white" />
        </mask>
        <g mask="url(#mask30_1889_124528)">
            <path
                d="M224.383 80.7421V96.8215H211.861V96.0766C218.106 93.6585 221.522 85.8883 223.151 80.7421H224.383Z"
                fill="#101010" />
            <path
                d="M224.383 42.6028V58.6823H211.861V57.9373C218.106 55.5193 221.522 47.7491 223.151 42.6028H224.383Z"
                fill="#101010" />
            <path
                d="M213.529 77.7517V78.4891C207.284 80.9148 203.862 88.685 202.239 93.8236H201.007V77.7517H213.529Z"
                fill="#101010" />
            <path
                d="M201.006 61.6725V77.7519H188.484V77.0069C194.729 74.5889 198.145 66.8187 199.774 61.6725H201.006Z"
                fill="#101010" />
            <path
                d="M190.151 58.6822V59.4196C183.907 61.8453 180.484 69.6155 178.861 74.7541H177.629V58.6822H190.151Z"
                fill="#101010" />
        </g>
        <mask id="mask31_1889_124528" style="mask-type:luminance" maskUnits="userSpaceOnUse" x="177"
            y="96" width="48" height="39">
            <path d="M224.384 96.8197H177.629V134.959H224.384V96.8197Z" fill="white" />
        </mask>
        <g mask="url(#mask31_1889_124528)">
            <path
                d="M224.383 118.882V134.962H211.861V134.217C218.106 131.799 221.522 124.029 223.151 118.882H224.383Z"
                fill="#101010" />
            <path
                d="M224.383 80.7431V96.8225H211.861V96.0776C218.106 93.6595 221.522 85.8893 223.151 80.7431H224.383Z"
                fill="#101010" />
            <path
                d="M213.529 115.892V116.63C207.284 119.055 203.862 126.825 202.239 131.964H201.007V115.892H213.529Z"
                fill="#101010" />
            <path
                d="M201.006 99.8124V115.892H188.484V115.147C194.729 112.729 198.145 104.959 199.774 99.8124H201.006Z"
                fill="#101010" />
            <path
                d="M190.151 96.8224V97.5598C183.907 99.9854 180.484 107.756 178.861 112.894H177.629V96.8224H190.151Z"
                fill="#101010" />
        </g>
        <mask id="mask32_1889_124528" style="mask-type:luminance" maskUnits="userSpaceOnUse" x="177"
            y="134" width="48" height="40">
            <path d="M224.384 134.959H177.629V173.098H224.384V134.959Z" fill="white" />
        </mask>
        <g mask="url(#mask32_1889_124528)">
            <path
                d="M224.383 157.021V173.101H211.861V172.356C218.106 169.938 221.522 162.168 223.151 157.021H224.383Z"
                fill="#101010" />
            <path
                d="M224.383 118.882V134.962H211.861V134.217C218.106 131.799 221.522 124.028 223.151 118.882H224.383Z"
                fill="#101010" />
            <path
                d="M213.529 154.031V154.768C207.284 157.194 203.862 164.964 202.239 170.103H201.007V154.031H213.529Z"
                fill="#101010" />
            <path
                d="M201.006 137.951V154.031H188.484V153.286C194.729 150.868 198.145 143.098 199.774 137.951H201.006Z"
                fill="#101010" />
            <path
                d="M190.151 134.962V135.699C183.907 138.125 180.484 145.895 178.861 151.033H177.629V134.962H190.151Z"
                fill="#101010" />
        </g>
        <mask id="mask33_1889_124528" style="mask-type:luminance" maskUnits="userSpaceOnUse" x="177"
            y="173" width="48" height="39">
            <path d="M224.384 173.098H177.629V211.237H224.384V173.098Z" fill="white" />
        </mask>
        <g mask="url(#mask33_1889_124528)">
            <path
                d="M224.383 195.161V211.24H211.861V210.495C218.106 208.077 221.522 200.307 223.151 195.161H224.383Z"
                fill="#101010" />
            <path
                d="M224.383 157.021V173.101H211.861V172.356C218.106 169.938 221.522 162.168 223.151 157.021H224.383Z"
                fill="#101010" />
            <path
                d="M213.529 192.17V192.908C207.284 195.333 203.862 203.104 202.239 208.242H201.007V192.17H213.529Z"
                fill="#101010" />
            <path
                d="M201.006 176.091V192.17H188.484V191.425C194.729 189.007 198.145 181.237 199.774 176.091H201.006Z"
                fill="#101010" />
            <path
                d="M190.151 173.101V173.838C183.907 176.264 180.484 184.034 178.861 189.173H177.629V173.101H190.151Z"
                fill="#101010" />
        </g>
        <mask id="mask34_1889_124528" style="mask-type:luminance" maskUnits="userSpaceOnUse" x="177"
            y="211" width="48" height="39">
            <path d="M224.384 211.237H177.629V249.376H224.384V211.237Z" fill="white" />
        </mask>
        <g mask="url(#mask34_1889_124528)">
            <path
                d="M224.383 195.16V211.24H211.861V210.495C218.106 208.077 221.522 200.307 223.151 195.16H224.383Z"
                fill="#101010" />
            <path
                d="M201.006 214.23V230.309H188.484V229.564C194.729 227.146 198.145 219.376 199.774 214.23H201.006Z"
                fill="#101010" />
            <path
                d="M190.151 211.24V211.977C183.907 214.403 180.484 222.173 178.861 227.312H177.629V211.24H190.151Z"
                fill="#101010" />
        </g>
        <mask id="mask35_1889_124528" style="mask-type:luminance" maskUnits="userSpaceOnUse" x="130"
            y="-18" width="48" height="39">
            <path d="M177.628 -17.598H130.873V20.5412H177.628V-17.598Z" fill="white" />
        </mask>
        <g mask="url(#mask35_1889_124528)">
            <path
                d="M177.628 4.46454V20.544H165.105V19.799C171.35 17.381 174.766 9.61079 176.395 4.46454H177.628Z"
                fill="#101010" />
            <path
                d="M166.773 1.47488V2.21225C160.529 4.6379 157.106 12.4081 155.483 17.5467H154.251V1.47488H166.773Z"
                fill="#101010" />
            <path
                d="M154.251 -14.6051V1.47434H141.729V0.729359C147.973 -1.68867 151.389 -9.45889 153.018 -14.6051H154.251Z"
                fill="#101010" />
        </g>
        <mask id="mask36_1889_124528" style="mask-type:luminance" maskUnits="userSpaceOnUse" x="130"
            y="20" width="48" height="39">
            <path d="M177.628 20.5413H130.873V58.6805H177.628V20.5413Z" fill="white" />
        </mask>
        <g mask="url(#mask36_1889_124528)">
            <path
                d="M177.628 42.6034V58.6829H165.105V57.9379C171.35 55.5199 174.766 47.7496 176.395 42.6034H177.628Z"
                fill="#101010" />
            <path
                d="M177.628 4.4642V20.5437H165.105V19.7987C171.35 17.3807 174.766 9.61045 176.395 4.4642H177.628Z"
                fill="#101010" />
            <path
                d="M166.773 39.6134V40.3508C160.529 42.7764 157.106 50.5466 155.483 55.6852H154.251V39.6134H166.773Z"
                fill="#101010" />
            <path
                d="M154.251 23.5338V39.6133H141.729V38.8683C147.973 36.4503 151.389 28.68 153.018 23.5338H154.251Z"
                fill="#101010" />
            <path
                d="M143.395 20.5435V21.2809C137.151 23.7065 133.728 31.4768 132.105 36.6154H130.873V20.5435H143.395Z"
                fill="#101010" />
        </g>
        <mask id="mask37_1889_124528" style="mask-type:luminance" maskUnits="userSpaceOnUse" x="130"
            y="58" width="48" height="39">
            <path d="M177.628 58.6805H130.873V96.8197H177.628V58.6805Z" fill="white" />
        </mask>
        <g mask="url(#mask37_1889_124528)">
            <path
                d="M177.628 80.7421V96.8216H165.105V96.0766C171.35 93.6586 174.766 85.8884 176.395 80.7421H177.628Z"
                fill="#101010" />
            <path
                d="M177.628 42.6029V58.6824H165.105V57.9374C171.35 55.5194 174.766 47.7492 176.395 42.6029H177.628Z"
                fill="#101010" />
            <path
                d="M166.773 77.7518V78.4892C160.529 80.9148 157.106 88.6851 155.483 93.8237H154.251V77.7518H166.773Z"
                fill="#101010" />
            <path
                d="M154.251 61.6725V77.752H141.729V77.007C147.973 74.589 151.389 66.8188 153.018 61.6725H154.251Z"
                fill="#101010" />
            <path
                d="M143.395 58.6823V59.4197C137.151 61.8453 133.728 69.6156 132.105 74.7542H130.873V58.6823H143.395Z"
                fill="#101010" />
        </g>
        <mask id="mask38_1889_124528" style="mask-type:luminance" maskUnits="userSpaceOnUse" x="130"
            y="96" width="48" height="39">
            <path d="M177.628 96.8197H130.873V134.959H177.628V96.8197Z" fill="white" />
        </mask>
        <g mask="url(#mask38_1889_124528)">
            <path
                d="M177.628 118.882V134.962H165.105V134.217C171.35 131.799 174.766 124.029 176.395 118.882H177.628Z"
                fill="#101010" />
            <path
                d="M177.628 80.7432V96.8227H165.105V96.0777C171.35 93.6597 174.766 85.8895 176.395 80.7432H177.628Z"
                fill="#101010" />
            <path
                d="M166.773 115.892V116.63C160.529 119.055 157.106 126.826 155.483 131.964H154.251V115.892H166.773Z"
                fill="#101010" />
            <path
                d="M154.251 99.8124V115.892H141.729V115.147C147.973 112.729 151.389 104.959 153.018 99.8124H154.251Z"
                fill="#101010" />
            <path
                d="M143.395 96.8225V97.5599C137.151 99.9855 133.728 107.756 132.105 112.894H130.873V96.8225H143.395Z"
                fill="#101010" />
        </g>
        <mask id="mask39_1889_124528" style="mask-type:luminance" maskUnits="userSpaceOnUse" x="130"
            y="134" width="48" height="40">
            <path d="M177.628 134.959H130.873V173.098H177.628V134.959Z" fill="white" />
        </mask>
        <g mask="url(#mask39_1889_124528)">
            <path
                d="M177.628 157.021V173.101H165.105V172.356C171.35 169.938 174.766 162.168 176.395 157.021H177.628Z"
                fill="#101010" />
            <path
                d="M177.628 118.882V134.962H165.105V134.217C171.35 131.799 174.766 124.029 176.395 118.882H177.628Z"
                fill="#101010" />
            <path
                d="M166.773 154.031V154.768C160.529 157.194 157.106 164.964 155.483 170.103H154.251V154.031H166.773Z"
                fill="#101010" />
            <path
                d="M154.251 137.951V154.031H141.729V153.286C147.973 150.868 151.389 143.098 153.018 137.951H154.251Z"
                fill="#101010" />
            <path
                d="M143.395 134.962V135.699C137.151 138.125 133.728 145.895 132.105 151.033H130.873V134.962H143.395Z"
                fill="#101010" />
        </g>
        <mask id="mask40_1889_124528" style="mask-type:luminance" maskUnits="userSpaceOnUse" x="130"
            y="173" width="48" height="39">
            <path d="M177.628 173.098H130.873V211.237H177.628V173.098Z" fill="white" />
        </mask>
        <g mask="url(#mask40_1889_124528)">
            <path
                d="M177.628 195.161V211.24H165.105V210.495C171.35 208.077 174.766 200.307 176.395 195.161H177.628Z"
                fill="#101010" />
            <path
                d="M177.628 157.021V173.101H165.105V172.356C171.35 169.938 174.766 162.168 176.395 157.021H177.628Z"
                fill="#101010" />
            <path
                d="M166.773 192.17V192.908C160.529 195.333 157.106 203.103 155.483 208.242H154.251V192.17H166.773Z"
                fill="#101010" />
            <path
                d="M154.251 176.09V192.17H141.729V191.425C147.973 189.007 151.389 181.237 153.018 176.09H154.251Z"
                fill="#101010" />
            <path
                d="M143.395 173.101V173.838C137.151 176.264 133.728 184.034 132.105 189.172H130.873V173.101H143.395Z"
                fill="#101010" />
        </g>
        <mask id="mask41_1889_124528" style="mask-type:luminance" maskUnits="userSpaceOnUse" x="130"
            y="211" width="48" height="39">
            <path d="M177.628 211.237H130.873V249.376H177.628V211.237Z" fill="white" />
        </mask>
        <g mask="url(#mask41_1889_124528)">
            <path
                d="M177.628 195.16V211.24H165.105V210.495C171.35 208.077 174.766 200.307 176.395 195.16H177.628Z"
                fill="#101010" />
            <path
                d="M154.251 214.23V230.309H141.729V229.564C147.973 227.146 151.389 219.376 153.018 214.23H154.251Z"
                fill="#101010" />
            <path
                d="M143.395 211.24V211.977C137.151 214.403 133.728 222.173 132.105 227.312H130.873V211.24H143.395Z"
                fill="#101010" />
        </g>
        <mask id="mask42_1889_124528" style="mask-type:luminance" maskUnits="userSpaceOnUse" x="84"
            y="-18" width="47" height="39">
            <path d="M130.873 -17.598H84.1182V20.5412H130.873V-17.598Z" fill="white" />
        </mask>
        <g mask="url(#mask42_1889_124528)">
            <path
                d="M130.873 4.46454V20.544H118.351V19.799C124.595 17.381 128.011 9.61079 129.64 4.46454H130.873Z"
                fill="#101010" />
            <path
                d="M120.018 1.47488V2.21225C113.774 4.6379 110.351 12.4081 108.728 17.5467H107.496V1.47488H120.018Z"
                fill="#101010" />
            <path
                d="M107.496 -14.6051V1.47434H94.9736V0.729359C101.218 -1.68867 104.634 -9.45889 106.263 -14.6051H107.496Z"
                fill="#101010" />
        </g>
        <mask id="mask43_1889_124528" style="mask-type:luminance" maskUnits="userSpaceOnUse" x="84"
            y="20" width="47" height="39">
            <path d="M130.873 20.5413H84.1182V58.6805H130.873V20.5413Z" fill="white" />
        </mask>
        <g mask="url(#mask43_1889_124528)">
            <path
                d="M130.873 42.6034V58.6829H118.351V57.9379C124.595 55.5199 128.011 47.7496 129.64 42.6034H130.873Z"
                fill="#101010" />
            <path
                d="M130.873 4.4642V20.5437H118.351V19.7987C124.595 17.3807 128.011 9.61045 129.64 4.4642H130.873Z"
                fill="#101010" />
            <path
                d="M120.018 39.6134V40.3508C113.774 42.7764 110.351 50.5466 108.728 55.6852H107.496V39.6134H120.018Z"
                fill="#101010" />
            <path
                d="M107.496 23.5338V39.6133H94.9736V38.8683C101.218 36.4503 104.634 28.68 106.263 23.5338H107.496Z"
                fill="#101010" />
            <path
                d="M96.6402 20.5435V21.2809C90.3958 23.7065 86.9733 31.4768 85.3504 36.6154H84.1182V20.5435H96.6402Z"
                fill="#101010" />
        </g>
        <mask id="mask44_1889_124528" style="mask-type:luminance" maskUnits="userSpaceOnUse" x="84"
            y="58" width="47" height="39">
            <path d="M130.873 58.6805H84.1182V96.8197H130.873V58.6805Z" fill="white" />
        </mask>
        <g mask="url(#mask44_1889_124528)">
            <path
                d="M130.873 80.7421V96.8216H118.351V96.0766C124.595 93.6586 128.011 85.8884 129.64 80.7421H130.873Z"
                fill="#101010" />
            <path
                d="M130.873 42.6029V58.6824H118.351V57.9374C124.595 55.5194 128.011 47.7492 129.64 42.6029H130.873Z"
                fill="#101010" />
            <path
                d="M120.018 77.7518V78.4892C113.774 80.9148 110.351 88.6851 108.728 93.8237H107.496V77.7518H120.018Z"
                fill="#101010" />
            <path
                d="M107.496 61.6725V77.752H94.9736V77.007C101.218 74.589 104.634 66.8188 106.263 61.6725H107.496Z"
                fill="#101010" />
            <path
                d="M96.6402 58.6823V59.4197C90.3958 61.8453 86.9733 69.6156 85.3504 74.7542H84.1182V58.6823H96.6402Z"
                fill="#101010" />
        </g>
        <mask id="mask45_1889_124528" style="mask-type:luminance" maskUnits="userSpaceOnUse" x="84"
            y="96" width="47" height="39">
            <path d="M130.873 96.8197H84.1182V134.959H130.873V96.8197Z" fill="white" />
        </mask>
        <g mask="url(#mask45_1889_124528)">
            <path
                d="M130.873 118.882V134.962H118.351V134.217C124.595 131.799 128.011 124.029 129.64 118.882H130.873Z"
                fill="#101010" />
            <path
                d="M130.873 80.7432V96.8227H118.351V96.0777C124.595 93.6597 128.011 85.8895 129.64 80.7432H130.873Z"
                fill="#101010" />
            <path
                d="M120.018 115.892V116.63C113.774 119.055 110.351 126.826 108.728 131.964H107.496V115.892H120.018Z"
                fill="#101010" />
            <path
                d="M107.496 99.8124V115.892H94.9736V115.147C101.218 112.729 104.634 104.959 106.263 99.8124H107.496Z"
                fill="#101010" />
            <path
                d="M96.6402 96.8225V97.5599C90.3958 99.9855 86.9733 107.756 85.3504 112.894H84.1182V96.8225H96.6402Z"
                fill="#101010" />
        </g>
        <mask id="mask46_1889_124528" style="mask-type:luminance" maskUnits="userSpaceOnUse" x="84"
            y="134" width="47" height="40">
            <path d="M130.873 134.959H84.1182V173.098H130.873V134.959Z" fill="white" />
        </mask>
        <g mask="url(#mask46_1889_124528)">
            <path
                d="M130.873 157.021V173.101H118.351V172.356C124.595 169.938 128.011 162.168 129.64 157.021H130.873Z"
                fill="#101010" />
            <path
                d="M130.873 118.882V134.962H118.351V134.217C124.595 131.799 128.011 124.029 129.64 118.882H130.873Z"
                fill="#101010" />
            <path
                d="M120.018 154.031V154.768C113.774 157.194 110.351 164.964 108.728 170.103H107.496V154.031H120.018Z"
                fill="#101010" />
            <path
                d="M107.496 137.951V154.031H94.9736V153.286C101.218 150.868 104.634 143.098 106.263 137.951H107.496Z"
                fill="#101010" />
            <path
                d="M96.6402 134.962V135.699C90.3958 138.125 86.9733 145.895 85.3504 151.033H84.1182V134.962H96.6402Z"
                fill="#101010" />
        </g>
        <mask id="mask47_1889_124528" style="mask-type:luminance" maskUnits="userSpaceOnUse" x="84"
            y="173" width="47" height="39">
            <path d="M130.873 173.098H84.1182V211.237H130.873V173.098Z" fill="white" />
        </mask>
        <g mask="url(#mask47_1889_124528)">
            <path
                d="M130.873 195.161V211.24H118.351V210.495C124.595 208.077 128.011 200.307 129.64 195.161H130.873Z"
                fill="#101010" />
            <path
                d="M130.873 157.021V173.101H118.351V172.356C124.595 169.938 128.011 162.168 129.64 157.021H130.873Z"
                fill="#101010" />
            <path
                d="M120.018 192.17V192.908C113.774 195.333 110.351 203.103 108.728 208.242H107.496V192.17H120.018Z"
                fill="#101010" />
            <path
                d="M107.496 176.09V192.17H94.9736V191.425C101.218 189.007 104.634 181.237 106.263 176.09H107.496Z"
                fill="#101010" />
            <path
                d="M96.6402 173.101V173.838C90.3958 176.264 86.9733 184.034 85.3504 189.172H84.1182V173.101H96.6402Z"
                fill="#101010" />
        </g>
        <mask id="mask48_1889_124528" style="mask-type:luminance" maskUnits="userSpaceOnUse" x="84"
            y="211" width="47" height="39">
            <path d="M130.873 211.237H84.1182V249.376H130.873V211.237Z" fill="white" />
        </mask>
        <g mask="url(#mask48_1889_124528)">
            <path
                d="M130.873 195.16V211.24H118.351V210.495C124.595 208.077 128.011 200.307 129.64 195.16H130.873Z"
                fill="#101010" />
            <path
                d="M107.496 214.23V230.309H94.9736V229.564C101.218 227.146 104.634 219.376 106.263 214.23H107.496Z"
                fill="#101010" />
            <path
                d="M96.6402 211.24V211.977C90.3958 214.403 86.9733 222.173 85.3504 227.312H84.1182V211.24H96.6402Z"
                fill="#101010" />
        </g>
        <mask id="mask49_1889_124528" style="mask-type:luminance" maskUnits="userSpaceOnUse" x="37"
            y="-18" width="48" height="39">
            <path d="M84.1174 -17.598H37.3623V20.5412H84.1174V-17.598Z" fill="white" />
        </mask>
        <g mask="url(#mask49_1889_124528)">
            <path
                d="M84.1168 4.46448V20.544H71.5947V19.799C77.8391 17.3809 81.2554 9.61072 82.8845 4.46448H84.1168Z"
                fill="#101010" />
            <path
                d="M73.2623 1.47467V2.21203C67.0179 4.63769 63.5954 12.4079 61.9725 17.5465H60.7402V1.47467H73.2623Z"
                fill="#101010" />
            <path
                d="M60.7398 -14.605V1.47446H48.2178V0.729481C54.4622 -1.68854 57.8784 -9.45876 59.5076 -14.605H60.7398Z"
                fill="#101010" />
        </g>
        <mask id="mask50_1889_124528" style="mask-type:luminance" maskUnits="userSpaceOnUse" x="37"
            y="20" width="48" height="39">
            <path d="M84.1174 20.5414H37.3623V58.6806H84.1174V20.5414Z" fill="white" />
        </mask>
        <g mask="url(#mask50_1889_124528)">
            <path
                d="M84.1168 42.6033V58.6828H71.5947V57.9378C77.8391 55.5198 81.2554 47.7495 82.8845 42.6033H84.1168Z"
                fill="#101010" />
            <path
                d="M84.1168 4.46414V20.5436H71.5947V19.7986C77.8391 17.3806 81.2554 9.61039 82.8845 4.46414H84.1168Z"
                fill="#101010" />
            <path
                d="M73.2623 39.6133V40.3507C67.0179 42.7763 63.5954 50.5466 61.9725 55.6852H60.7402V39.6133H73.2623Z"
                fill="#101010" />
            <path
                d="M60.7398 23.5335V39.613H48.2178V38.868C54.4622 36.45 57.8784 28.6798 59.5076 23.5335H60.7398Z"
                fill="#101010" />
            <path
                d="M49.8844 20.5434V21.2808C43.64 23.7064 40.2175 31.4766 38.5946 36.6153H37.3623V20.5434H49.8844Z"
                fill="#101010" />
        </g>
        <mask id="mask51_1889_124528" style="mask-type:luminance" maskUnits="userSpaceOnUse" x="37"
            y="58" width="48" height="39">
            <path d="M84.1174 58.68H37.3623V96.8192H84.1174V58.68Z" fill="white" />
        </mask>
        <g mask="url(#mask51_1889_124528)">
            <path
                d="M84.1168 80.7421V96.8215H71.5947V96.0766C77.8391 93.6585 81.2554 85.8883 82.8845 80.7421H84.1168Z"
                fill="#101010" />
            <path
                d="M84.1168 42.6028V58.6823H71.5947V57.9373C77.8391 55.5193 81.2554 47.7491 82.8845 42.6028H84.1168Z"
                fill="#101010" />
            <path
                d="M73.2623 77.7519V78.4893C67.0179 80.9149 63.5954 88.6852 61.9725 93.8238H60.7402V77.7519H73.2623Z"
                fill="#101010" />
            <path
                d="M60.7398 61.6726V77.752H48.2178V77.0071C54.4622 74.589 57.8784 66.8188 59.5076 61.6726H60.7398Z"
                fill="#101010" />
            <path
                d="M49.8844 58.6822V59.4196C43.64 61.8453 40.2175 69.6155 38.5946 74.7541H37.3623V58.6822H49.8844Z"
                fill="#101010" />
        </g>
        <mask id="mask52_1889_124528" style="mask-type:luminance" maskUnits="userSpaceOnUse" x="37"
            y="96" width="48" height="39">
            <path d="M84.1174 96.8197H37.3623V134.959H84.1174V96.8197Z" fill="white" />
        </mask>
        <g mask="url(#mask52_1889_124528)">
            <path
                d="M84.1168 118.882V134.962H71.5947V134.217C77.8391 131.799 81.2554 124.029 82.8845 118.882H84.1168Z"
                fill="#101010" />
            <path
                d="M84.1168 80.7431V96.8225H71.5947V96.0776C77.8391 93.6595 81.2554 85.8893 82.8845 80.7431H84.1168Z"
                fill="#101010" />
            <path
                d="M73.2623 115.892V116.629C67.0179 119.055 63.5954 126.825 61.9725 131.964H60.7402V115.892H73.2623Z"
                fill="#101010" />
            <path
                d="M60.7398 99.8123V115.892H48.2178V115.147C54.4622 112.729 57.8784 104.959 59.5076 99.8123H60.7398Z"
                fill="#101010" />
            <path
                d="M49.8844 96.8224V97.5598C43.64 99.9854 40.2175 107.756 38.5946 112.894H37.3623V96.8224H49.8844Z"
                fill="#101010" />
        </g>
        <mask id="mask53_1889_124528" style="mask-type:luminance" maskUnits="userSpaceOnUse" x="37"
            y="134" width="48" height="40">
            <path d="M84.1174 134.959H37.3623V173.098H84.1174V134.959Z" fill="white" />
        </mask>
        <g mask="url(#mask53_1889_124528)">
            <path
                d="M84.1168 157.021V173.101H71.5947V172.356C77.8391 169.938 81.2554 162.168 82.8845 157.021H84.1168Z"
                fill="#101010" />
            <path
                d="M84.1168 118.882V134.962H71.5947V134.217C77.8391 131.799 81.2554 124.028 82.8845 118.882H84.1168Z"
                fill="#101010" />
            <path
                d="M73.2623 154.031V154.769C67.0179 157.194 63.5954 164.965 61.9725 170.103H60.7402V154.031H73.2623Z"
                fill="#101010" />
            <path
                d="M60.7398 137.952V154.031H48.2178V153.286C54.4622 150.868 57.8784 143.098 59.5076 137.952H60.7398Z"
                fill="#101010" />
            <path
                d="M49.8844 134.962V135.699C43.64 138.125 40.2175 145.895 38.5946 151.033H37.3623V134.962H49.8844Z"
                fill="#101010" />
        </g>
        <mask id="mask54_1889_124528" style="mask-type:luminance" maskUnits="userSpaceOnUse" x="37"
            y="173" width="48" height="39">
            <path d="M84.1174 173.098H37.3623V211.237H84.1174V173.098Z" fill="white" />
        </mask>
        <g mask="url(#mask54_1889_124528)">
            <path
                d="M84.1168 195.161V211.24H71.5947V210.495C77.8391 208.077 81.2554 200.307 82.8845 195.161H84.1168Z"
                fill="#101010" />
            <path
                d="M84.1168 157.021V173.101H71.5947V172.356C77.8391 169.938 81.2554 162.168 82.8845 157.021H84.1168Z"
                fill="#101010" />
            <path
                d="M73.2623 192.17V192.908C67.0179 195.333 63.5954 203.103 61.9725 208.242H60.7402V192.17H73.2623Z"
                fill="#101010" />
            <path
                d="M60.7398 176.091V192.17H48.2178V191.425C54.4622 189.007 57.8784 181.237 59.5076 176.091H60.7398Z"
                fill="#101010" />
            <path
                d="M49.8844 173.101V173.838C43.64 176.264 40.2175 184.034 38.5946 189.173H37.3623V173.101H49.8844Z"
                fill="#101010" />
        </g>
        <mask id="mask55_1889_124528" style="mask-type:luminance" maskUnits="userSpaceOnUse" x="37"
            y="211" width="48" height="39">
            <path d="M84.1174 211.237H37.3623V249.376H84.1174V211.237Z" fill="white" />
        </mask>
        <g mask="url(#mask55_1889_124528)">
            <path
                d="M84.1168 195.16V211.24H71.5947V210.495C77.8391 208.077 81.2554 200.307 82.8845 195.16H84.1168Z"
                fill="#101010" />
            <path
                d="M60.7398 214.23V230.309H48.2178V229.564C54.4622 227.146 57.8784 219.376 59.5076 214.23H60.7398Z"
                fill="#101010" />
            <path
                d="M49.8844 211.24V211.977C43.64 214.403 40.2175 222.173 38.5946 227.312H37.3623V211.24H49.8844Z"
                fill="#101010" />
        </g>
        <mask id="mask56_1889_124528" style="mask-type:luminance" maskUnits="userSpaceOnUse" x="-10"
            y="-18" width="48" height="39">
            <path d="M37.3635 -17.598H-9.3916V20.5412H37.3635V-17.598Z" fill="white" />
        </mask>
        <g mask="url(#mask56_1889_124528)">
            <path
                d="M37.3629 4.46448V20.544H24.8408V19.799C31.0852 17.3809 34.5015 9.61072 36.1306 4.46448H37.3629Z"
                fill="#101010" />
            <path
                d="M26.5084 1.47467V2.21203C20.264 4.63769 16.8415 12.4079 15.2186 17.5465H13.9863V1.47467H26.5084Z"
                fill="#101010" />
            <path
                d="M13.9859 -14.605V1.47446H1.46387V0.729481C7.70827 -1.68854 11.1245 -9.45876 12.7537 -14.605H13.9859Z"
                fill="#101010" />
        </g>
        <mask id="mask57_1889_124528" style="mask-type:luminance" maskUnits="userSpaceOnUse" x="-10"
            y="20" width="48" height="39">
            <path d="M37.3635 20.5414H-9.3916V58.6806H37.3635V20.5414Z" fill="white" />
        </mask>
        <g mask="url(#mask57_1889_124528)">
            <path
                d="M37.3629 42.6033V58.6828H24.8408V57.9378C31.0852 55.5198 34.5015 47.7495 36.1306 42.6033H37.3629Z"
                fill="#101010" />
            <path
                d="M37.3629 4.46414V20.5436H24.8408V19.7986C31.0852 17.3806 34.5015 9.61039 36.1306 4.46414H37.3629Z"
                fill="#101010" />
            <path
                d="M26.5084 39.6133V40.3507C20.264 42.7763 16.8415 50.5466 15.2186 55.6852H13.9863V39.6133H26.5084Z"
                fill="#101010" />
            <path
                d="M13.9859 23.5335V39.613H1.46387V38.868C7.70827 36.45 11.1245 28.6798 12.7537 23.5335H13.9859Z"
                fill="#101010" />
            <path
                d="M3.13045 20.5434V21.2808C-3.11395 23.7064 -6.53642 31.4766 -8.15935 36.6153H-9.3916V20.5434H3.13045Z"
                fill="#101010" />
        </g>
        <mask id="mask58_1889_124528" style="mask-type:luminance" maskUnits="userSpaceOnUse" x="-10"
            y="58" width="48" height="39">
            <path d="M37.3635 58.68H-9.3916V96.8192H37.3635V58.68Z" fill="white" />
        </mask>
        <g mask="url(#mask58_1889_124528)">
            <path
                d="M37.3629 80.7421V96.8215H24.8408V96.0766C31.0852 93.6585 34.5015 85.8883 36.1306 80.7421H37.3629Z"
                fill="#101010" />
            <path
                d="M37.3629 42.6028V58.6823H24.8408V57.9373C31.0852 55.5193 34.5015 47.7491 36.1306 42.6028H37.3629Z"
                fill="#101010" />
            <path
                d="M26.5074 77.7519V78.4893C20.263 80.9149 16.8405 88.6852 15.2176 93.8238H13.9854V77.7519H26.5074Z"
                fill="#101010" />
            <path
                d="M13.9849 61.6726V77.752H1.46289V77.0071C7.70729 74.589 11.1235 66.8188 12.7527 61.6726H13.9849Z"
                fill="#101010" />
            <path
                d="M3.13045 58.6822V59.4196C-3.11395 61.8453 -6.53642 69.6155 -8.15935 74.7541H-9.3916V58.6822H3.13045Z"
                fill="#101010" />
        </g>
        <mask id="mask59_1889_124528" style="mask-type:luminance" maskUnits="userSpaceOnUse" x="-10"
            y="96" width="48" height="39">
            <path d="M37.3635 96.8197H-9.3916V134.959H37.3635V96.8197Z" fill="white" />
        </mask>
        <g mask="url(#mask59_1889_124528)">
            <path
                d="M37.3629 118.882V134.962H24.8408V134.217C31.0852 131.799 34.5015 124.029 36.1306 118.882H37.3629Z"
                fill="#101010" />
            <path
                d="M37.3629 80.7431V96.8225H24.8408V96.0776C31.0852 93.6595 34.5015 85.8893 36.1306 80.7431H37.3629Z"
                fill="#101010" />
            <path
                d="M26.5074 115.892V116.629C20.263 119.055 16.8405 126.825 15.2176 131.964H13.9854V115.892H26.5074Z"
                fill="#101010" />
            <path
                d="M13.9849 99.8123V115.892H1.46289V115.147C7.70729 112.729 11.1235 104.959 12.7527 99.8123H13.9849Z"
                fill="#101010" />
            <path
                d="M3.13045 96.8224V97.5598C-3.11395 99.9854 -6.53642 107.756 -8.15935 112.894H-9.3916V96.8224H3.13045Z"
                fill="#101010" />
        </g>
        <mask id="mask60_1889_124528" style="mask-type:luminance" maskUnits="userSpaceOnUse" x="-10"
            y="134" width="48" height="40">
            <path d="M37.3635 134.959H-9.3916V173.098H37.3635V134.959Z" fill="white" />
        </mask>
        <g mask="url(#mask60_1889_124528)">
            <path
                d="M37.3629 157.021V173.101H24.8408V172.356C31.0852 169.938 34.5015 162.168 36.1306 157.021H37.3629Z"
                fill="#101010" />
            <path
                d="M37.3629 118.882V134.962H24.8408V134.217C31.0852 131.799 34.5015 124.028 36.1306 118.882H37.3629Z"
                fill="#101010" />
            <path
                d="M26.5074 154.031V154.769C20.263 157.194 16.8405 164.965 15.2176 170.103H13.9854V154.031H26.5074Z"
                fill="#101010" />
            <path
                d="M13.9849 137.952V154.031H1.46289V153.286C7.70729 150.868 11.1235 143.098 12.7527 137.952H13.9849Z"
                fill="#101010" />
            <path
                d="M3.13045 134.962V135.699C-3.11395 138.125 -6.53642 145.895 -8.15935 151.033H-9.3916V134.962H3.13045Z"
                fill="#101010" />
        </g>
        <mask id="mask61_1889_124528" style="mask-type:luminance" maskUnits="userSpaceOnUse" x="-10"
            y="173" width="48" height="39">
            <path d="M37.3635 173.098H-9.3916V211.237H37.3635V173.098Z" fill="white" />
        </mask>
        <g mask="url(#mask61_1889_124528)">
            <path
                d="M37.3629 195.161V211.24H24.8408V210.495C31.0852 208.077 34.5015 200.307 36.1306 195.161H37.3629Z"
                fill="#101010" />
            <path
                d="M37.3629 157.021V173.101H24.8408V172.356C31.0852 169.938 34.5015 162.168 36.1306 157.021H37.3629Z"
                fill="#101010" />
            <path
                d="M26.5074 192.17V192.908C20.263 195.333 16.8405 203.103 15.2176 208.242H13.9854V192.17H26.5074Z"
                fill="#101010" />
            <path
                d="M13.9849 176.091V192.17H1.46289V191.425C7.70729 189.007 11.1235 181.237 12.7527 176.091H13.9849Z"
                fill="#101010" />
            <path
                d="M3.13045 173.101V173.838C-3.11395 176.264 -6.53642 184.034 -8.15935 189.173H-9.3916V173.101H3.13045Z"
                fill="#101010" />
        </g>
        <mask id="mask62_1889_124528" style="mask-type:luminance" maskUnits="userSpaceOnUse" x="-10"
            y="211" width="48" height="39">
            <path d="M37.3635 211.237H-9.3916V249.376H37.3635V211.237Z" fill="white" />
        </mask>
        <g mask="url(#mask62_1889_124528)">
            <path
                d="M37.3629 195.16V211.24H24.8408V210.495C31.0852 208.077 34.5015 200.307 36.1306 195.16H37.3629Z"
                fill="#101010" />
            <path
                d="M13.9849 214.23V230.309H1.46289V229.564C7.70729 227.146 11.1235 219.376 12.7527 214.23H13.9849Z"
                fill="#101010" />
            <path
                d="M3.13045 211.24V211.977C-3.11395 214.403 -6.53642 222.173 -8.15935 227.312H-9.3916V211.24H3.13045Z"
                fill="#101010" />
        </g>
    </g>
</svg>
    