<svg xmlns="http://www.w3.org/2000/svg" width="385" height="207" viewBox="0 0 385 207" fill="none">
    <g opacity="0.07">
        <path
            d="M175.177 -8.76435V-7.58489C169.125 -5.65844 165.811 0.514082 164.239 4.59216H161.848C160.284 0.514082 156.966 -5.65844 150.918 -7.58489V-8.76435C156.969 -10.6837 160.276 -16.8562 161.848 -20.9414H164.239C165.818 -16.8562 169.125 -10.6837 175.177 -8.76435Z"
            fill="black" />
        <path
            d="M175.177 111.469V112.649C169.125 114.575 165.811 120.747 164.239 124.826H161.848C160.284 120.747 156.966 114.575 150.918 112.649V111.469C156.969 109.55 160.276 103.377 161.848 99.292H164.239C165.818 103.377 169.125 109.55 175.177 111.469Z"
            fill="black" />
        <path
            d="M310.768 21.2942V22.4737C304.717 24.4002 301.403 30.5727 299.831 34.6508H297.44C295.875 30.5727 292.557 24.4002 286.51 22.4737V21.2942C292.561 19.3749 295.868 13.2024 297.44 9.11719H299.831C301.41 13.2024 304.717 19.3749 310.768 21.2942Z"
            fill="black" />
        <path
            d="M310.768 141.527V142.706C304.717 144.633 301.403 150.805 299.831 154.883H297.44C295.875 150.805 292.557 144.633 286.51 142.706V141.527C292.561 139.607 295.868 133.435 297.44 129.35H299.831C301.41 133.435 304.717 139.607 310.768 141.527Z"
            fill="black" />
        <path
            d="M39.5867 21.2942V22.4737C33.5354 24.4002 30.2211 30.5727 28.6495 34.6508H26.2582C24.6937 30.5727 21.3758 24.4002 15.3281 22.4737V21.2942C21.3794 19.3749 24.6866 13.2024 26.2582 9.11719H28.6495C30.2282 13.2024 33.5354 19.3749 39.5867 21.2942Z"
            fill="black" />
        <path
            d="M39.5867 141.527V142.706C33.5354 144.633 30.2211 150.805 28.6495 154.883H26.2582C24.6937 150.805 21.3758 144.633 15.3281 142.706V141.527C21.3794 139.607 24.6866 133.435 26.2582 129.35H28.6495C30.2282 133.435 33.5354 139.607 39.5867 141.527Z"
            fill="black" />
        <path
            d="M175.177 51.3519V52.5313C169.125 54.4578 165.811 60.6303 164.239 64.7084H161.848C160.284 60.6303 156.966 54.4578 150.918 52.5313V51.3519C156.969 49.4326 160.276 43.26 161.848 39.1748H164.239C165.818 43.26 169.125 49.4326 175.177 51.3519Z"
            fill="black" />
        <path
            d="M175.177 171.585V172.765C169.125 174.691 165.811 180.864 164.239 184.942H161.848C160.284 180.864 156.966 174.691 150.918 172.765V171.585C156.969 169.666 160.276 163.493 161.848 159.408H164.239C165.818 163.493 169.125 169.666 175.177 171.585Z"
            fill="black" />
        <path
            d="M310.768 81.4105V82.5899C304.717 84.5164 301.403 90.6889 299.831 94.767H297.44C295.875 90.6889 292.557 84.5164 286.51 82.5899V81.4105C292.561 79.4911 295.868 73.3186 297.44 69.2334H299.831C301.41 73.3186 304.717 79.4911 310.768 81.4105Z"
            fill="black" />
        <path
            d="M310.768 201.644V202.823C304.717 204.75 301.403 210.922 299.831 215H297.44C295.875 210.922 292.557 204.75 286.51 202.823V201.644C292.561 199.725 295.868 193.552 297.44 189.467H299.831C301.41 193.552 304.717 199.725 310.768 201.644Z"
            fill="black" />
        <path
            d="M39.5867 81.4105V82.5899C33.5354 84.5164 30.2211 90.6889 28.6495 94.767H26.2582C24.6937 90.6889 21.3758 84.5164 15.3281 82.5899V81.4105C21.3794 79.4911 24.6866 73.3186 26.2582 69.2334H28.6495C30.2282 73.3186 33.5354 79.4911 39.5867 81.4105Z"
            fill="black" />
        <path
            d="M39.5867 201.644V202.823C33.5354 204.75 30.2211 210.922 28.6495 215H26.2582C24.6937 210.922 21.3758 204.75 15.3281 202.823V201.644C21.3794 199.725 24.6866 193.552 26.2582 189.467H28.6495C30.2282 193.552 33.5354 199.725 39.5867 201.644Z"
            fill="black" />
        <path
            d="M160.112 81.4105V82.5899C154.061 84.5164 150.747 90.6889 149.175 94.767H146.784C145.219 90.6889 141.901 84.5164 135.854 82.5899V81.4105C141.905 79.4911 145.212 73.3186 146.784 69.2334H149.175C150.754 73.3186 154.061 79.4911 160.112 81.4105Z"
            fill="black" />
        <path
            d="M295.704 -8.76435V-7.58489C289.653 -5.65844 286.338 0.514082 284.767 4.59216H282.375C280.811 0.514082 277.493 -5.65844 271.445 -7.58489V-8.76435C277.497 -10.6837 280.804 -16.8562 282.375 -20.9414H284.767C286.345 -16.8562 289.653 -10.6837 295.704 -8.76435Z"
            fill="black" />
        <path
            d="M295.704 111.469V112.649C289.653 114.575 286.338 120.747 284.767 124.826H282.375C280.811 120.747 277.493 114.575 271.445 112.649V111.469C277.497 109.55 280.804 103.377 282.375 99.292H284.767C286.345 103.377 289.653 109.55 295.704 111.469Z"
            fill="black" />
        <path
            d="M24.5203 -8.76435V-7.58489C18.469 -5.65844 15.1547 0.514082 13.5831 4.59216H11.1918C9.62731 0.514082 6.30943 -5.65844 0.261719 -7.58489V-8.76435C6.313 -10.6837 9.62018 -16.8562 11.1918 -20.9414H13.5831C15.1618 -16.8562 18.469 -10.6837 24.5203 -8.76435Z"
            fill="black" />
        <path
            d="M24.5203 111.469V112.649C18.469 114.575 15.1547 120.747 13.5831 124.826H11.1918C9.62731 120.747 6.30943 114.575 0.261719 112.649V111.469C6.313 109.55 9.62018 103.377 11.1918 99.292H13.5831C15.1618 103.377 18.469 109.55 24.5203 111.469Z"
            fill="black" />
        <path
            d="M160.112 21.2933V22.4727C154.061 24.3992 150.747 30.5717 149.175 34.6498H146.784C145.219 30.5717 141.901 24.3992 135.854 22.4727V21.2933C141.905 19.374 145.212 13.2014 146.784 9.11621H149.175C150.754 13.2014 154.061 19.374 160.112 21.2933Z"
            fill="black" />
        <path
            d="M160.112 141.527V142.706C154.061 144.633 150.747 150.805 149.175 154.883H146.784C145.219 150.805 141.901 144.633 135.854 142.706V141.527C141.905 139.607 145.212 133.435 146.784 129.35H149.175C150.754 133.435 154.061 139.607 160.112 141.527Z"
            fill="black" />
        <path
            d="M295.704 51.3519V52.5313C289.653 54.4578 286.338 60.6303 284.767 64.7084H282.375C280.811 60.6303 277.493 54.4578 271.445 52.5313V51.3519C277.497 49.4326 280.804 43.26 282.375 39.1748H284.767C286.345 43.26 289.653 49.4326 295.704 51.3519Z"
            fill="black" />
        <path
            d="M295.704 171.585V172.765C289.653 174.691 286.338 180.864 284.767 184.942H282.375C280.811 180.864 277.493 174.691 271.445 172.765V171.585C277.497 169.666 280.804 163.493 282.375 159.408H284.767C286.345 163.493 289.653 169.666 295.704 171.585Z"
            fill="black" />
        <path
            d="M24.5203 51.3519V52.5313C18.469 54.4578 15.1547 60.6303 13.5831 64.7084H11.1918C9.62731 60.6303 6.30943 54.4578 0.261719 52.5313V51.3519C6.313 49.4326 9.62018 43.26 11.1918 39.1748H13.5831C15.1618 43.26 18.469 49.4326 24.5203 51.3519Z"
            fill="black" />
        <path
            d="M24.5203 171.585V172.765C18.469 174.691 15.1547 180.864 13.5831 184.942H11.1918C9.62731 180.864 6.30943 174.691 0.261719 172.765V171.585C6.313 169.666 9.62018 163.493 11.1918 159.408H13.5831C15.1618 163.493 18.469 169.666 24.5203 171.585Z"
            fill="black" />
        <path
            d="M145.046 -8.76435V-7.58489C138.994 -5.65844 135.68 0.514082 134.108 4.59216H131.717C130.153 0.514082 126.835 -5.65844 120.787 -7.58489V-8.76435C126.838 -10.6837 130.146 -16.8562 131.717 -20.9414H134.108C135.687 -16.8562 138.994 -10.6837 145.046 -8.76435Z"
            fill="black" />
        <path
            d="M145.046 111.469V112.649C138.994 114.575 135.68 120.747 134.108 124.826H131.717C130.153 120.747 126.835 114.575 120.787 112.649V111.469C126.838 109.55 130.146 103.377 131.717 99.292H134.108C135.687 103.377 138.994 109.55 145.046 111.469Z"
            fill="black" />
        <path
            d="M280.637 21.2942V22.4737C274.586 24.4002 271.272 30.5727 269.7 34.6508H267.309C265.744 30.5727 262.427 24.4002 256.379 22.4737V21.2942C262.43 19.3749 265.737 13.2024 267.309 9.11719H269.7C271.279 13.2024 274.586 19.3749 280.637 21.2942Z"
            fill="black" />
        <path
            d="M280.637 141.527V142.706C274.586 144.633 271.272 150.805 269.7 154.883H267.309C265.744 150.805 262.427 144.633 256.379 142.706V141.527C262.43 139.607 265.737 133.435 267.309 129.35H269.7C271.279 133.435 274.586 139.607 280.637 141.527Z"
            fill="black" />
        <path
            d="M9.45584 21.2942V22.4737C3.40456 24.4002 0.0902529 30.5727 -1.48137 34.6508H-3.87265C-5.43715 30.5727 -8.75502 24.4002 -14.8027 22.4737V21.2942C-8.75146 19.3749 -5.44428 13.2024 -3.87265 9.11719H-1.48137C0.0973797 13.2024 3.40456 19.3749 9.45584 21.2942Z"
            fill="black" />
        <path
            d="M9.45584 141.527V142.706C3.40456 144.633 0.0902529 150.805 -1.48137 154.883H-3.87265C-5.43715 150.805 -8.75502 144.633 -14.8027 142.706V141.527C-8.75146 139.607 -5.44428 133.435 -3.87265 129.35H-1.48137C0.0973797 133.435 3.40456 139.607 9.45584 141.527Z"
            fill="black" />
        <path
            d="M145.046 51.3519V52.5313C138.994 54.4578 135.68 60.6303 134.108 64.7084H131.717C130.153 60.6303 126.835 54.4578 120.787 52.5313V51.3519C126.838 49.4326 130.146 43.26 131.717 39.1748H134.108C135.687 43.26 138.994 49.4326 145.046 51.3519Z"
            fill="black" />
        <path
            d="M145.046 171.585V172.765C138.994 174.691 135.68 180.864 134.108 184.942H131.717C130.153 180.864 126.835 174.691 120.787 172.765V171.585C126.838 169.666 130.146 163.493 131.717 159.408H134.108C135.687 163.493 138.994 169.666 145.046 171.585Z"
            fill="black" />
        <path
            d="M280.637 81.4105V82.5899C274.586 84.5164 271.272 90.6889 269.7 94.767H267.309C265.744 90.6889 262.427 84.5164 256.379 82.5899V81.4105C262.43 79.4911 265.737 73.3186 267.309 69.2334H269.7C271.279 73.3186 274.586 79.4911 280.637 81.4105Z"
            fill="black" />
        <path
            d="M280.637 201.644V202.823C274.586 204.75 271.272 210.922 269.7 215H267.309C265.744 210.922 262.427 204.75 256.379 202.823V201.644C262.43 199.725 265.737 193.552 267.309 189.467H269.7C271.279 193.552 274.586 199.725 280.637 201.644Z"
            fill="black" />
        <path
            d="M9.45584 81.4105V82.5899C3.40456 84.5164 0.0902529 90.6889 -1.48137 94.767H-3.87265C-5.43715 90.6889 -8.75502 84.5164 -14.8027 82.5899V81.4105C-8.75146 79.4911 -5.44428 73.3186 -3.87265 69.2334H-1.48137C0.0973797 73.3186 3.40456 79.4911 9.45584 81.4105Z"
            fill="black" />
        <path
            d="M9.45584 201.644V202.823C3.40456 204.75 0.0902529 210.922 -1.48137 215H-3.87265C-5.43715 210.922 -8.75502 204.75 -14.8027 202.823V201.644C-8.75146 199.725 -5.44428 193.552 -3.87265 189.467H-1.48137C0.0973797 193.552 3.40456 199.725 9.45584 201.644Z"
            fill="black" />
        <path
            d="M129.979 81.4105V82.5899C123.928 84.5164 120.614 90.6889 119.042 94.767H116.651C115.086 90.6889 111.768 84.5164 105.721 82.5899V81.4105C111.772 79.4911 115.079 73.3186 116.651 69.2334H119.042C120.621 73.3186 123.928 79.4911 129.979 81.4105Z"
            fill="black" />
        <path
            d="M265.571 -8.76435V-7.58489C259.52 -5.65844 256.205 0.514082 254.634 4.59216H252.243C250.678 0.514082 247.36 -5.65844 241.312 -7.58489V-8.76435C247.364 -10.6837 250.671 -16.8562 252.243 -20.9414H254.634C256.213 -16.8562 259.52 -10.6837 265.571 -8.76435Z"
            fill="black" />
        <path
            d="M265.571 111.469V112.649C259.52 114.575 256.205 120.747 254.634 124.826H252.243C250.678 120.747 247.36 114.575 241.312 112.649V111.469C247.364 109.55 250.671 103.377 252.243 99.292H254.634C256.213 103.377 259.52 109.55 265.571 111.469Z"
            fill="black" />
        <path
            d="M129.979 21.2933V22.4727C123.928 24.3992 120.614 30.5717 119.042 34.6498H116.651C115.086 30.5717 111.768 24.3992 105.721 22.4727V21.2933C111.772 19.374 115.079 13.2014 116.651 9.11621H119.042C120.621 13.2014 123.928 19.374 129.979 21.2933Z"
            fill="black" />
        <path
            d="M129.979 141.527V142.706C123.928 144.633 120.614 150.805 119.042 154.883H116.651C115.086 150.805 111.768 144.633 105.721 142.706V141.527C111.772 139.607 115.079 133.435 116.651 129.35H119.042C120.621 133.435 123.928 139.607 129.979 141.527Z"
            fill="black" />
        <path
            d="M265.571 51.3519V52.5313C259.52 54.4578 256.205 60.6303 254.634 64.7084H252.243C250.678 60.6303 247.36 54.4578 241.312 52.5313V51.3519C247.364 49.4326 250.671 43.26 252.243 39.1748H254.634C256.213 43.26 259.52 49.4326 265.571 51.3519Z"
            fill="black" />
        <path
            d="M265.571 171.585V172.765C259.52 174.691 256.205 180.864 254.634 184.942H252.243C250.678 180.864 247.36 174.691 241.312 172.765V171.585C247.364 169.666 250.671 163.493 252.243 159.408H254.634C256.213 163.493 259.52 169.666 265.571 171.585Z"
            fill="black" />
        <path
            d="M114.913 -8.76435V-7.58489C108.862 -5.65844 105.547 0.514082 103.976 4.59216H101.584C100.02 0.514082 96.702 -5.65844 90.6543 -7.58489V-8.76435C96.7056 -10.6837 100.013 -16.8562 101.584 -20.9414H103.976C105.554 -16.8562 108.862 -10.6837 114.913 -8.76435Z"
            fill="black" />
        <path
            d="M114.913 111.469V112.649C108.862 114.575 105.547 120.747 103.976 124.826H101.584C100.02 120.747 96.702 114.575 90.6543 112.649V111.469C96.7056 109.55 100.013 103.377 101.584 99.292H103.976C105.554 103.377 108.862 109.55 114.913 111.469Z"
            fill="black" />
        <path
            d="M250.505 21.2942V22.4737C244.453 24.4002 241.139 30.5727 239.567 34.6508H237.176C235.612 30.5727 232.294 24.4002 226.246 22.4737V21.2942C232.297 19.3749 235.605 13.2024 237.176 9.11719H239.567C241.146 13.2024 244.453 19.3749 250.505 21.2942Z"
            fill="black" />
        <path
            d="M250.505 141.527V142.706C244.453 144.633 241.139 150.805 239.567 154.883H237.176C235.612 150.805 232.294 144.633 226.246 142.706V141.527C232.297 139.607 235.605 133.435 237.176 129.35H239.567C241.146 133.435 244.453 139.607 250.505 141.527Z"
            fill="black" />
        <path
            d="M114.913 51.3519V52.5313C108.862 54.4578 105.547 60.6303 103.976 64.7084H101.584C100.02 60.6303 96.702 54.4578 90.6543 52.5313V51.3519C96.7056 49.4326 100.013 43.26 101.584 39.1748H103.976C105.554 43.26 108.862 49.4326 114.913 51.3519Z"
            fill="black" />
        <path
            d="M114.913 171.585V172.765C108.862 174.691 105.547 180.864 103.976 184.942H101.584C100.02 180.864 96.702 174.691 90.6543 172.765V171.585C96.7056 169.666 100.013 163.493 101.584 159.408H103.976C105.554 163.493 108.862 169.666 114.913 171.585Z"
            fill="black" />
        <path
            d="M250.505 81.4105V82.5899C244.453 84.5164 241.139 90.6889 239.567 94.767H237.176C235.612 90.6889 232.294 84.5164 226.246 82.5899V81.4105C232.297 79.4911 235.605 73.3186 237.176 69.2334H239.567C241.146 73.3186 244.453 79.4911 250.505 81.4105Z"
            fill="black" />
        <path
            d="M250.505 201.644V202.823C244.453 204.75 241.139 210.922 239.567 215H237.176C235.612 210.922 232.294 204.75 226.246 202.823V201.644C232.297 199.725 235.605 193.552 237.176 189.467H239.567C241.146 193.552 244.453 199.725 250.505 201.644Z"
            fill="black" />
        <path
            d="M99.8484 81.4105V82.5899C93.7971 84.5164 90.4828 90.6889 88.9112 94.767H86.5199C84.9554 90.6889 81.6376 84.5164 75.5898 82.5899V81.4105C81.6411 79.4911 84.9483 73.3186 86.5199 69.2334H88.9112C90.49 73.3186 93.7971 79.4911 99.8484 81.4105Z"
            fill="black" />
        <path
            d="M235.438 -8.76435V-7.58489C229.387 -5.65844 226.073 0.514082 224.501 4.59216H222.11C220.545 0.514082 217.227 -5.65844 211.18 -7.58489V-8.76435C217.231 -10.6837 220.538 -16.8562 222.11 -20.9414H224.501C226.08 -16.8562 229.387 -10.6837 235.438 -8.76435Z"
            fill="black" />
        <path
            d="M235.438 111.469V112.649C229.387 114.575 226.073 120.747 224.501 124.826H222.11C220.545 120.747 217.227 114.575 211.18 112.649V111.469C217.231 109.55 220.538 103.377 222.11 99.292H224.501C226.08 103.377 229.387 109.55 235.438 111.469Z"
            fill="black" />
        <path
            d="M99.8484 21.2933V22.4727C93.7971 24.3992 90.4828 30.5717 88.9112 34.6498H86.5199C84.9554 30.5717 81.6376 24.3992 75.5898 22.4727V21.2933C81.6411 19.374 84.9483 13.2014 86.5199 9.11621H88.9112C90.49 13.2014 93.7971 19.374 99.8484 21.2933Z"
            fill="black" />
        <path
            d="M99.8484 141.527V142.706C93.7971 144.633 90.4828 150.805 88.9112 154.883H86.5199C84.9554 150.805 81.6376 144.633 75.5898 142.706V141.527C81.6411 139.607 84.9483 133.435 86.5199 129.35H88.9112C90.49 133.435 93.7971 139.607 99.8484 141.527Z"
            fill="black" />
        <path
            d="M235.438 51.3519V52.5313C229.387 54.4578 226.073 60.6303 224.501 64.7084H222.11C220.545 60.6303 217.227 54.4578 211.18 52.5313V51.3519C217.231 49.4326 220.538 43.26 222.11 39.1748H224.501C226.08 43.26 229.387 49.4326 235.438 51.3519Z"
            fill="black" />
        <path
            d="M235.438 171.585V172.765C229.387 174.691 226.073 180.864 224.501 184.942H222.11C220.545 180.864 217.227 174.691 211.18 172.765V171.585C217.231 169.666 220.538 163.493 222.11 159.408H224.501C226.08 163.493 229.387 169.666 235.438 171.585Z"
            fill="black" />
        <path
            d="M205.309 -8.76435V-7.58489C199.258 -5.65844 195.944 0.514082 194.372 4.59216H191.981C190.416 0.514082 187.098 -5.65844 181.051 -7.58489V-8.76435C187.102 -10.6837 190.409 -16.8562 191.981 -20.9414H194.372C195.951 -16.8562 199.258 -10.6837 205.309 -8.76435Z"
            fill="black" />
        <path
            d="M205.309 111.469V112.649C199.258 114.575 195.944 120.747 194.372 124.826H191.981C190.416 120.747 187.098 114.575 181.051 112.649V111.469C187.102 109.55 190.409 103.377 191.981 99.292H194.372C195.951 103.377 199.258 109.55 205.309 111.469Z"
            fill="black" />
        <path
            d="M340.899 21.2942V22.4737C334.848 24.4002 331.534 30.5727 329.962 34.6508H327.571C326.006 30.5727 322.688 24.4002 316.641 22.4737V21.2942C322.692 19.3749 325.999 13.2024 327.571 9.11719H329.962C331.541 13.2024 334.848 19.3749 340.899 21.2942Z"
            fill="black" />
        <path
            d="M340.899 141.527V142.706C334.848 144.633 331.534 150.805 329.962 154.883H327.571C326.006 150.805 322.688 144.633 316.641 142.706V141.527C322.692 139.607 325.999 133.435 327.571 129.35H329.962C331.541 133.435 334.848 139.607 340.899 141.527Z"
            fill="black" />
        <path
            d="M69.7176 21.2942V22.4737C63.6663 24.4002 60.352 30.5727 58.7803 34.6508H56.3891C54.8246 30.5727 51.5067 24.4002 45.459 22.4737V21.2942C51.5103 19.3749 54.8174 13.2024 56.3891 9.11719H58.7803C60.3591 13.2024 63.6663 19.3749 69.7176 21.2942Z"
            fill="black" />
        <path
            d="M69.7176 141.527V142.706C63.6663 144.633 60.352 150.805 58.7803 154.883H56.3891C54.8246 150.805 51.5067 144.633 45.459 142.706V141.527C51.5103 139.607 54.8174 133.435 56.3891 129.35H58.7803C60.3591 133.435 63.6663 139.607 69.7176 141.527Z"
            fill="black" />
        <path
            d="M205.309 51.3519V52.5313C199.258 54.4578 195.944 60.6303 194.372 64.7084H191.981C190.416 60.6303 187.098 54.4578 181.051 52.5313V51.3519C187.102 49.4326 190.409 43.26 191.981 39.1748H194.372C195.951 43.26 199.258 49.4326 205.309 51.3519Z"
            fill="black" />
        <path
            d="M205.309 171.585V172.765C199.258 174.691 195.944 180.864 194.372 184.942H191.981C190.416 180.864 187.098 174.691 181.051 172.765V171.585C187.102 169.666 190.409 163.493 191.981 159.408H194.372C195.951 163.493 199.258 169.666 205.309 171.585Z"
            fill="black" />
        <path
            d="M340.899 81.4105V82.5899C334.848 84.5164 331.534 90.6889 329.962 94.767H327.571C326.006 90.6889 322.688 84.5164 316.641 82.5899V81.4105C322.692 79.4911 325.999 73.3186 327.571 69.2334H329.962C331.541 73.3186 334.848 79.4911 340.899 81.4105Z"
            fill="black" />
        <path
            d="M340.899 201.644V202.823C334.848 204.75 331.534 210.922 329.962 215H327.571C326.006 210.922 322.688 204.75 316.641 202.823V201.644C322.692 199.725 325.999 193.552 327.571 189.467H329.962C331.541 193.552 334.848 199.725 340.899 201.644Z"
            fill="black" />
        <path
            d="M371.899 21.2942V22.4737C365.848 24.4002 362.534 30.5727 360.962 34.6508H358.571C357.006 30.5727 353.688 24.4002 347.641 22.4737V21.2942C353.692 19.3749 356.999 13.2024 358.571 9.11719H360.962C362.541 13.2024 365.848 19.3749 371.899 21.2942Z"
            fill="black" />
        <path
            d="M371.899 141.527V142.706C365.848 144.633 362.534 150.805 360.962 154.883H358.571C357.006 150.805 353.688 144.633 347.641 142.706V141.527C353.692 139.607 356.999 133.435 358.571 129.35H360.962C362.541 133.435 365.848 139.607 371.899 141.527Z"
            fill="black" />
        <path
            d="M371.899 81.4105V82.5899C365.848 84.5164 362.534 90.6889 360.962 94.767H358.571C357.006 90.6889 353.688 84.5164 347.641 82.5899V81.4105C353.692 79.4911 356.999 73.3186 358.571 69.2334H360.962C362.541 73.3186 365.848 79.4911 371.899 81.4105Z"
            fill="black" />
        <path
            d="M371.899 201.644V202.823C365.848 204.75 362.534 210.922 360.962 215H358.571C357.006 210.922 353.688 204.75 347.641 202.823V201.644C353.692 199.725 356.999 193.552 358.571 189.467H360.962C362.541 193.552 365.848 199.725 371.899 201.644Z"
            fill="black" />
        <path
            d="M402.899 21.2942V22.4737C396.848 24.4002 393.534 30.5727 391.962 34.6508H389.571C388.006 30.5727 384.688 24.4002 378.641 22.4737V21.2942C384.692 19.3749 387.999 13.2024 389.571 9.11719H391.962C393.541 13.2024 396.848 19.3749 402.899 21.2942Z"
            fill="black" />
        <path
            d="M402.899 141.527V142.706C396.848 144.633 393.534 150.805 391.962 154.883H389.571C388.006 150.805 384.688 144.633 378.641 142.706V141.527C384.692 139.607 387.999 133.435 389.571 129.35H391.962C393.541 133.435 396.848 139.607 402.899 141.527Z"
            fill="black" />
        <path
            d="M402.899 81.4105V82.5899C396.848 84.5164 393.534 90.6889 391.962 94.767H389.571C388.006 90.6889 384.688 84.5164 378.641 82.5899V81.4105C384.692 79.4911 387.999 73.3186 389.571 69.2334H391.962C393.541 73.3186 396.848 79.4911 402.899 81.4105Z"
            fill="black" />
        <path
            d="M402.899 201.644V202.823C396.848 204.75 393.534 210.922 391.962 215H389.571C388.006 210.922 384.688 204.75 378.641 202.823V201.644C384.692 199.725 387.999 193.552 389.571 189.467H391.962C393.541 193.552 396.848 199.725 402.899 201.644Z"
            fill="black" />
        <path
            d="M69.7176 81.4105V82.5899C63.6663 84.5164 60.352 90.6889 58.7803 94.767H56.3891C54.8246 90.6889 51.5067 84.5164 45.459 82.5899V81.4105C51.5103 79.4911 54.8174 73.3186 56.3891 69.2334H58.7803C60.3591 73.3186 63.6663 79.4911 69.7176 81.4105Z"
            fill="black" />
        <path
            d="M69.7176 201.644V202.823C63.6663 204.75 60.352 210.922 58.7803 215H56.3891C54.8246 210.922 51.5067 204.75 45.459 202.823V201.644C51.5103 199.725 54.8174 193.552 56.3891 189.467H58.7803C60.3591 193.552 63.6663 199.725 69.7176 201.644Z"
            fill="black" />
        <path
            d="M190.243 81.4105V82.5899C184.192 84.5164 180.877 90.6889 179.306 94.767H176.914C175.35 90.6889 172.032 84.5164 165.984 82.5899V81.4105C172.036 79.4911 175.343 73.3186 176.914 69.2334H179.306C180.884 73.3186 184.192 79.4911 190.243 81.4105Z"
            fill="black" />
        <path
            d="M325.833 -8.76435V-7.58489C319.782 -5.65844 316.467 0.514082 314.896 4.59216H312.504C310.94 0.514082 307.622 -5.65844 301.574 -7.58489V-8.76435C307.625 -10.6837 310.933 -16.8562 312.504 -20.9414H314.896C316.474 -16.8562 319.782 -10.6837 325.833 -8.76435Z"
            fill="black" />
        <path
            d="M325.833 111.469V112.649C319.782 114.575 316.467 120.747 314.896 124.826H312.504C310.94 120.747 307.622 114.575 301.574 112.649V111.469C307.625 109.55 310.933 103.377 312.504 99.292H314.896C316.474 103.377 319.782 109.55 325.833 111.469Z"
            fill="black" />
        <path
            d="M54.6531 -8.76435V-7.58489C48.6018 -5.65844 45.2875 0.514082 43.7159 4.59216H41.3246C39.7601 0.514082 36.4422 -5.65844 30.3945 -7.58489V-8.76435C36.4458 -10.6837 39.753 -16.8562 41.3246 -20.9414H43.7159C45.2946 -16.8562 48.6018 -10.6837 54.6531 -8.76435Z"
            fill="black" />
        <path
            d="M54.6531 111.469V112.649C48.6018 114.575 45.2875 120.747 43.7159 124.826H41.3246C39.7601 120.747 36.4422 114.575 30.3945 112.649V111.469C36.4458 109.55 39.753 103.377 41.3246 99.292H43.7159C45.2946 103.377 48.6018 109.55 54.6531 111.469Z"
            fill="black" />
        <path
            d="M190.243 21.2933V22.4727C184.192 24.3992 180.877 30.5717 179.306 34.6498H176.914C175.35 30.5717 172.032 24.3992 165.984 22.4727V21.2933C172.036 19.374 175.343 13.2014 176.914 9.11621H179.306C180.884 13.2014 184.192 19.374 190.243 21.2933Z"
            fill="black" />
        <path
            d="M190.243 141.527V142.706C184.192 144.633 180.877 150.805 179.306 154.883H176.914C175.35 150.805 172.032 144.633 165.984 142.706V141.527C172.036 139.607 175.343 133.435 176.914 129.35H179.306C180.884 133.435 184.192 139.607 190.243 141.527Z"
            fill="black" />
        <path
            d="M325.833 51.3519V52.5313C319.782 54.4578 316.467 60.6303 314.896 64.7084H312.504C310.94 60.6303 307.622 54.4578 301.574 52.5313V51.3519C307.625 49.4326 310.933 43.26 312.504 39.1748H314.896C316.474 43.26 319.782 49.4326 325.833 51.3519Z"
            fill="black" />
        <path
            d="M325.833 171.585V172.765C319.782 174.691 316.467 180.864 314.896 184.942H312.504C310.94 180.864 307.622 174.691 301.574 172.765V171.585C307.625 169.666 310.933 163.493 312.504 159.408H314.896C316.474 163.493 319.782 169.666 325.833 171.585Z"
            fill="black" />
        <path
            d="M54.6531 51.3519V52.5313C48.6018 54.4578 45.2875 60.6303 43.7159 64.7084H41.3246C39.7601 60.6303 36.4422 54.4578 30.3945 52.5313V51.3519C36.4458 49.4326 39.753 43.26 41.3246 39.1748H43.7159C45.2946 43.26 48.6018 49.4326 54.6531 51.3519Z"
            fill="black" />
        <path
            d="M54.6531 171.585V172.765C48.6018 174.691 45.2875 180.864 43.7159 184.942H41.3246C39.7601 180.864 36.4422 174.691 30.3945 172.765V171.585C36.4458 169.666 39.753 163.493 41.3246 159.408H43.7159C45.2946 163.493 48.6018 169.666 54.6531 171.585Z"
            fill="black" />
        <path
            d="M220.372 81.4105V82.5899C214.321 84.5164 211.006 90.6889 209.435 94.767H207.043C205.479 90.6889 202.161 84.5164 196.113 82.5899V81.4105C202.165 79.4911 205.472 73.3186 207.043 69.2334H209.435C211.013 73.3186 214.321 79.4911 220.372 81.4105Z"
            fill="black" />
        <path
            d="M355.964 -8.76435V-7.58489C349.912 -5.65844 346.598 0.514082 345.026 4.59216H342.635C341.071 0.514082 337.753 -5.65844 331.705 -7.58489V-8.76435C337.756 -10.6837 341.064 -16.8562 342.635 -20.9414H345.026C346.605 -16.8562 349.912 -10.6837 355.964 -8.76435Z"
            fill="black" />
        <path
            d="M355.964 111.469V112.649C349.912 114.575 346.598 120.747 345.026 124.826H342.635C341.071 120.747 337.753 114.575 331.705 112.649V111.469C337.756 109.55 341.064 103.377 342.635 99.292H345.026C346.605 103.377 349.912 109.55 355.964 111.469Z"
            fill="black" />
        <path
            d="M84.782 -8.76435V-7.58489C78.7307 -5.65844 75.4164 0.514082 73.8448 4.59216H71.4535C69.889 0.514082 66.5712 -5.65844 60.5234 -7.58489V-8.76435C66.5747 -10.6837 69.8819 -16.8562 71.4535 -20.9414H73.8448C75.4236 -16.8562 78.7307 -10.6837 84.782 -8.76435Z"
            fill="black" />
        <path
            d="M84.782 111.469V112.649C78.7307 114.575 75.4164 120.747 73.8448 124.826H71.4535C69.889 120.747 66.5712 114.575 60.5234 112.649V111.469C66.5747 109.55 69.8819 103.377 71.4535 99.292H73.8448C75.4236 103.377 78.7307 109.55 84.782 111.469Z"
            fill="black" />
        <path
            d="M220.372 21.2933V22.4727C214.321 24.3992 211.006 30.5717 209.435 34.6498H207.043C205.479 30.5717 202.161 24.3992 196.113 22.4727V21.2933C202.165 19.374 205.472 13.2014 207.043 9.11621H209.435C211.013 13.2014 214.321 19.374 220.372 21.2933Z"
            fill="black" />
        <path
            d="M220.372 141.527V142.706C214.321 144.633 211.006 150.805 209.435 154.883H207.043C205.479 150.805 202.161 144.633 196.113 142.706V141.527C202.165 139.607 205.472 133.435 207.043 129.35H209.435C211.013 133.435 214.321 139.607 220.372 141.527Z"
            fill="black" />
        <path
            d="M355.964 51.3519V52.5313C349.912 54.4578 346.598 60.6303 345.026 64.7084H342.635C341.071 60.6303 337.753 54.4578 331.705 52.5313V51.3519C337.756 49.4326 341.064 43.26 342.635 39.1748H345.026C346.605 43.26 349.912 49.4326 355.964 51.3519Z"
            fill="black" />
        <path
            d="M355.964 171.585V172.765C349.912 174.691 346.598 180.864 345.026 184.942H342.635C341.071 180.864 337.753 174.691 331.705 172.765V171.585C337.756 169.666 341.064 163.493 342.635 159.408H345.026C346.605 163.493 349.912 169.666 355.964 171.585Z"
            fill="black" />
        <path
            d="M386.964 -8.76435V-7.58489C380.912 -5.65844 377.598 0.514082 376.026 4.59216H373.635C372.071 0.514082 368.753 -5.65844 362.705 -7.58489V-8.76435C368.756 -10.6837 372.064 -16.8562 373.635 -20.9414H376.026C377.605 -16.8562 380.912 -10.6837 386.964 -8.76435Z"
            fill="black" />
        <path
            d="M386.964 111.469V112.649C380.912 114.575 377.598 120.747 376.026 124.826H373.635C372.071 120.747 368.753 114.575 362.705 112.649V111.469C368.756 109.55 372.064 103.377 373.635 99.292H376.026C377.605 103.377 380.912 109.55 386.964 111.469Z"
            fill="black" />
        <path
            d="M386.964 51.3519V52.5313C380.912 54.4578 377.598 60.6303 376.026 64.7084H373.635C372.071 60.6303 368.753 54.4578 362.705 52.5313V51.3519C368.756 49.4326 372.064 43.26 373.635 39.1748H376.026C377.605 43.26 380.912 49.4326 386.964 51.3519Z"
            fill="black" />
        <path
            d="M386.964 171.585V172.765C380.912 174.691 377.598 180.864 376.026 184.942H373.635C372.071 180.864 368.753 174.691 362.705 172.765V171.585C368.756 169.666 372.064 163.493 373.635 159.408H376.026C377.605 163.493 380.912 169.666 386.964 171.585Z"
            fill="black" />
        <path
            d="M84.782 51.3519V52.5313C78.7307 54.4578 75.4164 60.6303 73.8448 64.7084H71.4535C69.889 60.6303 66.5712 54.4578 60.5234 52.5313V51.3519C66.5747 49.4326 69.8819 43.26 71.4535 39.1748H73.8448C75.4236 43.26 78.7307 49.4326 84.782 51.3519Z"
            fill="black" />
        <path
            d="M84.782 171.585V172.765C78.7307 174.691 75.4164 180.864 73.8448 184.942H71.4535C69.889 180.864 66.5712 174.691 60.5234 172.765V171.585C66.5747 169.666 69.8819 163.493 71.4535 159.408H73.8448C75.4236 163.493 78.7307 169.666 84.782 171.585Z"
            fill="black" />
    </g>
</svg>