<svg width="19" height="19" viewBox="0 0 19 19" fill="none" xmlns="http://www.w3.org/2000/svg">
    <path d="M6.61924 0.624927C4.72084 1.2835 3.08367 2.53349 1.94819 4.19129C0.812718 5.84909 0.238789 7.82733 0.310709 9.83542C0.382628 11.8435 1.09661 13.7756 2.34777 15.348C3.59893 16.9203 5.32133 18.0499 7.26197 18.571C8.8353 18.977 10.4837 18.9948 12.0654 18.623C13.4983 18.3011 14.8231 17.6127 15.9099 16.625C17.0412 15.5657 17.8622 14.2181 18.2849 12.727C18.7444 11.1056 18.8261 9.40045 18.5239 7.7425H9.68893V11.4074H14.8056C14.7033 11.992 14.4842 12.5498 14.1613 13.0477C13.8384 13.5456 13.4184 13.9732 12.9263 14.3049C12.3015 14.7182 11.5972 14.9963 10.8586 15.1213C10.1178 15.2591 9.358 15.2591 8.61721 15.1213C7.86639 14.9661 7.15614 14.6562 6.53166 14.2114C5.52844 13.5013 4.77517 12.4924 4.37932 11.3288C3.97678 10.1433 3.97678 8.85817 4.37932 7.67274C4.66109 6.84181 5.1269 6.08525 5.74197 5.45954C6.44585 4.73033 7.33698 4.20909 8.3176 3.95301C9.29821 3.69692 10.3304 3.71589 11.301 4.00782C12.0591 4.24055 12.7524 4.64719 13.3256 5.19532C13.9026 4.62136 14.4785 4.04592 15.0535 3.46899C15.3503 3.15875 15.6739 2.86336 15.9663 2.54571C15.0914 1.73149 14.0644 1.09793 12.9442 0.681333C10.9042 -0.0593853 8.6721 -0.0792914 6.61924 0.624927Z" fill="#CDCDCD"/>
    </svg>
    