<svg width="24" height="14" viewBox="0 0 24 14" fill="none" xmlns="http://www.w3.org/2000/svg">
    <path
        d="M19.1759 7.73006C18.8023 7.25825 18.9092 7.04834 19.1759 6.62659C19.1807 6.62178 22.2649 2.36004 22.5826 0.914743L22.5845 0.91378C22.7424 0.387081 22.5845 0 21.821 0H19.2943C18.6511 0 18.3546 0.332196 18.1957 0.703871C18.1957 0.703871 16.9093 3.78319 15.0894 5.77925C14.5021 6.35602 14.2305 6.5409 13.9099 6.5409C13.752 6.5409 13.5064 6.35602 13.5064 5.82932V0.91378C13.5064 0.282126 13.3264 0 12.7939 0H8.82102C8.41757 0 8.17781 0.294644 8.17781 0.569067C8.17781 1.16798 9.08774 1.30568 9.1821 2.99073V6.64681C9.1821 7.44794 9.0367 7.59526 8.71413 7.59526C7.85524 7.59526 5.77059 4.50343 4.5352 0.964813C4.28581 0.278274 4.0422 0.000962818 3.39418 0.000962818H0.866599C0.145396 0.000962818 0 0.333159 0 0.704834C0 1.36152 0.858896 4.62668 3.99406 8.94041C6.08352 11.8849 9.02611 13.4804 11.7029 13.4804C13.3119 13.4804 13.5084 13.1261 13.5084 12.5166C13.5084 9.70302 13.363 9.43726 14.1689 9.43726C14.5425 9.43726 15.1857 9.62214 16.6878 11.0424C18.4046 12.7265 18.6868 13.4804 19.6477 13.4804H22.1743C22.8946 13.4804 23.2595 13.1261 23.0496 12.427C22.5691 10.9567 19.3223 7.93227 19.1759 7.73006Z"
        fill="#CDCDCD" />
</svg>
    