<svg xmlns="http://www.w3.org/2000/svg" width="214" height="219" viewBox="0 0 214 219" fill="none">
    <path
        d="M247.809 95.0353V100.989C186.052 120.644 152.229 183.627 136.212 225.3H124.012V95.0353H247.809Z"
        fill="url(#paint0_linear_4001_54062)" />
    <path
        d="M124.012 -21.3661V108.851H0.214844V102.808C61.9721 83.2138 95.7478 20.277 111.811 -21.4133H124.012V-21.3661Z"
        fill="url(#paint1_linear_4001_54062)" />
    <g filter="url(#filter0_d_4001_54062)">
        <path
            d="M108.998 148.181L108.308 146.56L106.552 146.727C94.9439 147.834 84.6143 139.795 78.5208 133.548L77.3715 132.369L75.8567 133.01L71.403 134.894L69.8883 135.535L69.9406 137.178C70.218 145.886 68.8461 158.875 59.9838 166.428L58.6434 167.571L59.3341 169.192L60.2607 171.367L60.9508 172.987L62.7051 172.822C74.3199 171.724 84.6612 179.761 90.7366 185.999L91.886 187.179L93.4018 186.537L97.8555 184.653L99.3714 184.012L99.3179 182.368C99.0354 173.68 100.416 160.683 109.277 153.119L110.615 151.977L109.925 150.357L108.998 148.181Z"
            fill="url(#paint2_linear_4001_54062)" stroke="url(#paint3_linear_4001_54062)"
            stroke-width="4.80687" />
        <path
            d="M107.247 150.205L107.707 151.284C97.8641 159.653 96.5051 173.701 96.7764 182.5L94.5321 183.45L84.4746 159.839L107.247 150.205Z"
            fill="url(#paint4_linear_4001_54062)" />
        <path
            d="M74.4179 136.228L84.4754 159.839L62.0106 169.343L61.5438 168.247C71.2409 159.962 72.509 145.957 72.2039 137.165L74.4179 136.228Z"
            fill="url(#paint5_linear_4001_54062)" />
        <path
            d="M76.5699 164.701C76.495 165.175 76.4947 165.175 76.4944 165.175L76.4938 165.175L76.4924 165.175L76.4894 165.174L76.482 165.173L76.4621 165.169C76.4466 165.166 76.4266 165.161 76.4032 165.155C76.357 165.143 76.294 165.124 76.2239 165.095C76.0939 165.04 75.885 164.927 75.7466 164.703C75.5916 164.452 75.5774 164.15 75.695 163.841C75.8043 163.555 76.0292 163.25 76.3728 162.914L76.3756 162.911L76.3873 162.9L76.433 162.854L76.608 162.677L77.2468 162.032C77.7836 161.489 78.5188 160.747 79.3124 159.944C80.8987 158.34 82.7174 156.499 83.6531 155.544C84.0133 155.165 84.8026 154.361 85.499 153.654C85.8488 153.299 86.1764 152.968 86.4165 152.725L86.7029 152.436L86.7817 152.356L86.8023 152.335L86.8076 152.33L86.8089 152.329L86.8092 152.328L86.8093 152.328L87.1517 152.666L86.8093 152.328L86.8156 152.322L87.1515 152.666C86.8156 152.322 86.8158 152.322 86.8159 152.322L86.8162 152.321L86.8169 152.321L86.8186 152.319L86.8234 152.314L86.8379 152.301C86.8497 152.29 86.8659 152.275 86.886 152.258C86.926 152.223 86.9826 152.177 87.0519 152.126C87.1857 152.028 87.3886 151.899 87.6263 151.822C87.8648 151.745 88.1897 151.705 88.5114 151.866C88.8338 152.027 89.0499 152.339 89.1822 152.743C89.3255 153.161 89.6264 154.341 89.989 155.763C90.1255 156.298 90.2707 156.868 90.4196 157.444L90.4206 157.448L90.4206 157.448C90.7984 158.965 91.1949 160.552 91.4969 161.76L91.8651 163.232L91.9695 163.649L91.9971 163.759L92.0035 163.785L92.0039 163.786C92.007 163.797 92.0111 163.811 92.0158 163.828C92.0251 163.862 92.0368 163.909 92.0484 163.966C92.0714 164.078 92.0953 164.237 92.0962 164.416C92.0979 164.762 92.0109 165.284 91.5402 165.629C91.3118 165.796 91.0373 165.879 90.7877 165.922C90.5329 165.966 90.2667 165.975 90.0253 165.967C89.5602 165.952 89.1293 165.875 88.9519 165.827C88.9467 165.826 88.9325 165.823 88.905 165.818C88.8708 165.811 88.8248 165.802 88.7676 165.792C88.6836 165.777 88.5783 165.758 88.4549 165.736C88.4101 165.728 88.3629 165.719 88.3134 165.71C87.9434 165.644 87.4534 165.555 86.9272 165.454C85.885 165.256 84.6678 165.005 83.9668 164.787L83.964 164.787C83.7367 164.714 83.3937 164.556 83.1835 164.221C82.951 163.85 82.9565 163.392 83.1946 162.896C83.888 161.373 84.6756 159.563 85.2439 158.196C84.3175 159.654 83.395 161.072 82.6981 162.134C82.3398 162.68 82.0411 163.133 81.8318 163.449C81.7271 163.607 81.6449 163.731 81.5887 163.815L81.5246 163.911L81.5081 163.936L81.5039 163.943L81.5028 163.944L81.5026 163.945L81.5025 163.945L81.1019 163.678M76.5699 164.701L76.6045 165.18L76.6046 165.18L76.6048 165.18L76.6057 165.18L76.6091 165.18L76.6224 165.179L76.6734 165.175L76.8645 165.161C77.028 165.149 77.2593 165.131 77.5308 165.109C78.0733 165.064 78.7792 165.002 79.4269 164.931C80.1435 164.853 80.6473 164.633 80.9817 164.416C81.1478 164.308 81.2694 164.203 81.353 164.119C81.3948 164.077 81.427 164.041 81.4506 164.013C81.4624 163.999 81.472 163.986 81.4796 163.976L81.4894 163.963L81.4932 163.958L81.4948 163.956L81.4956 163.955L81.4959 163.954C81.4961 163.954 81.4963 163.954 81.1019 163.678M76.5699 164.701L76.495 165.175L76.5495 165.184L76.6045 165.18L76.5699 164.701ZM81.1019 163.678L81.5025 163.945L81.4964 163.954L81.1019 163.678ZM85.6485 156.918C85.6486 156.917 85.6491 156.919 85.6498 156.924C85.6488 156.92 85.6484 156.918 85.6485 156.918Z"
            fill="#31464C" stroke="url(#paint6_linear_4001_54062)" stroke-width="0.961374" />
        <g filter="url(#filter1_f_4001_54062)">
            <circle cx="281.014" cy="168.131" r="31.8534"
                transform="rotate(6.99805 281.014 168.131)" fill="#91E2FD" />
        </g>
        <path
            d="M163.923 119.027L164.139 117.277L162.534 116.548C149.707 110.714 143.82 96.1136 141.268 86.0465L140.864 84.4532L139.232 84.2537L133.518 83.5552L131.886 83.3556L131.107 84.8043C126.185 93.9577 116.928 106.706 103.065 109.277L101.331 109.599L101.115 111.348L100.771 114.139L100.556 115.887L102.158 116.618C114.986 122.465 120.886 137.07 123.426 147.117L123.83 148.711L125.463 148.911L131.177 149.61L132.81 149.809L133.588 148.359C138.493 139.223 147.764 126.472 161.631 123.889L163.363 123.566L163.579 121.818L163.923 119.027Z"
            fill="url(#paint7_linear_4001_54062)" stroke="url(#paint8_linear_4001_54062)"
            stroke-width="4.80687" />
        <path
            d="M161.362 120.13L161.191 121.514C146.054 124.303 136.266 137.974 131.292 147.203L128.413 146.851L132.146 116.558L161.362 120.13Z"
            fill="url(#paint9_linear_4001_54062)" />
        <path
            d="M135.883 86.2657L132.15 116.558L103.329 113.035L103.502 111.629C118.44 108.839 128.108 95.1597 133.043 85.9184L135.883 86.2657Z"
            fill="url(#paint10_linear_4001_54062)" />
        <path
            d="M129.864 119.501L131.3 107.846L134.981 108.296L134.186 114.744L134.121 115.273L134.655 115.283C136.243 115.31 137.912 114.557 139.345 113.405C140.693 112.322 141.876 110.852 142.636 109.232L146.332 109.684C144.953 113.39 141.671 115.861 139.413 116.794L138.541 117.154L139.344 117.648C141.34 118.875 144.387 121.762 145.311 126.368L141.192 125.865C140.388 122.393 137.896 119.477 134.232 118.663L133.715 118.548L133.651 119.074L132.938 124.856L132.861 124.846C128.061 124.259 124.539 122.203 122.342 118.999C120.205 115.882 119.28 111.62 119.727 106.432L123.695 106.917C123.022 114.793 126.219 118.761 129.216 119.893L129.789 120.109L129.864 119.501Z"
            fill="url(#paint11_linear_4001_54062)" stroke="#A1E7FE" stroke-width="0.961374" />
        <path
            d="M212.709 49.4519L212.924 47.7023L211.32 46.9727C191.484 37.9507 182.515 15.4839 178.665 0.296903L178.261 -1.29637L176.628 -1.4959L168.035 -2.54644L166.403 -2.74597L165.624 -1.29732C158.2 12.5112 144.042 32.1507 122.604 36.1267L120.87 36.4483L120.654 38.1979L120.137 42.3952L119.922 44.1433L121.524 44.8736C141.36 53.9153 150.348 76.3879 154.181 91.5462L154.584 93.1409L156.218 93.3405L164.811 94.3911L166.444 94.5907L167.222 93.1405C174.622 79.3555 188.801 59.7152 210.244 55.72L211.976 55.3973L212.191 53.6492L212.709 49.4519Z"
            fill="url(#paint12_linear_4001_54062)" stroke="url(#paint13_linear_4001_54062)"
            stroke-width="4.80687" />
        <path
            d="M210.063 51.257L209.807 53.339C187.04 57.5335 172.321 78.0931 164.84 91.9728L160.51 91.4434L166.125 45.8853L210.063 51.257Z"
            fill="url(#paint14_linear_4001_54062)" />
        <path
            d="M171.741 0.327922L166.126 45.886L122.782 40.5869L123.042 38.4726C145.508 34.2774 160.047 13.7039 167.469 -0.194323L171.741 0.327922Z"
            fill="url(#paint15_linear_4001_54062)" />
        <path
            d="M173.257 30.5405L173.256 30.5417L173.255 30.5452C173.255 30.5478 173.253 30.5546 173.249 30.5641L173.249 30.5644C173.247 30.5702 173.238 30.5954 173.223 30.6266C173.217 30.6389 173.196 30.6813 173.158 30.7285C173.139 30.7515 173.098 30.7991 173.033 30.8431C172.969 30.8864 172.832 30.9586 172.647 30.936L172.716 30.3733L172.786 29.8106L167.037 29.1078L166.474 29.039L166.405 29.6017L163.675 51.7532C163.638 52.0528 163.603 52.3345 163.557 52.6092L163.555 52.6213L163.553 52.6335C163.553 52.6334 163.553 52.6345 163.553 52.6372L163.55 52.6506L163.546 52.6752C163.545 52.6799 163.544 52.6852 163.543 52.6908C163.541 52.6971 163.54 52.7039 163.539 52.7111L163.539 52.7122L163.532 52.7319L163.526 52.7805C163.384 53.4688 163.076 54.1125 162.628 54.6561C162.176 55.2051 161.596 55.6352 160.937 55.9084L160.937 55.9085C160.252 56.193 159.505 56.2949 158.768 56.2039L158.768 56.2038C156.402 55.9145 154.718 53.7569 155.011 51.3783C155.305 48.9996 157.462 47.3116 159.828 47.6009L159.829 47.6009C160.276 47.6553 160.713 47.7799 161.122 47.9702L161.828 48.299L161.924 47.5257L162.65 41.6937L162.712 41.1983L162.228 41.0749C160.712 40.6883 159.132 40.619 157.588 40.8713C156.044 41.1236 154.568 41.6921 153.255 42.541L153.255 42.5409L153.247 42.5465C152.097 43.3191 151.091 44.2856 150.274 45.4025C149.94 45.8421 148.771 47.4884 148.307 50.3042C148.041 51.8777 148.293 53.5416 148.441 54.2976L148.438 54.3185L148.46 54.4146C148.558 54.8485 148.951 56.3093 149.739 57.6107L149.74 57.6119C150.368 58.6443 151.146 59.5787 152.048 60.3851L152.856 61.1079L152.867 61.0204C153.984 61.8122 155.131 62.291 156.053 62.5787C156.626 62.7577 157.117 62.8642 157.468 62.9262C157.643 62.9573 157.784 62.9773 157.882 62.9896C157.931 62.9958 157.97 63.0001 157.998 63.0029L158.03 63.0061L158.04 63.007L158.043 63.0072L158.044 63.0073L158.044 63.0074C158.045 63.0074 158.045 63.0074 158.092 62.4424L158.045 63.0074L158.045 63.0074C158.084 63.0106 158.132 63.015 158.186 63.0201C158.859 63.083 160.639 63.2493 162.743 62.5535C163.998 62.1387 165.011 61.5569 165.711 61.0795C166.061 60.8404 166.335 60.6262 166.523 60.47C166.617 60.3918 166.69 60.3281 166.74 60.2828C166.765 60.2601 166.785 60.2421 166.799 60.2292L166.815 60.2139C167.797 59.3249 168.62 58.276 169.249 57.1119L169.251 57.1078C169.978 55.735 170.369 54.0522 170.456 53.3462L171.776 42.635L171.856 42.7023L171.883 42.7253L171.89 42.7314L171.892 42.7329L171.892 42.7333L171.892 42.7334L171.892 42.7334L171.892 42.7335L171.898 42.7387L172.26 42.3015C171.898 42.7387 171.899 42.7387 171.899 42.7388L171.899 42.739L171.899 42.7394L171.901 42.7406L171.905 42.744L171.919 42.755C171.93 42.7643 171.946 42.7772 171.967 42.7936C172.009 42.8263 172.07 42.8726 172.148 42.9301C172.304 43.0452 172.532 43.2052 172.824 43.3907C173.408 43.7615 174.252 44.2363 175.3 44.6576L175.301 44.6581C176.067 44.9641 176.965 45.1992 177.658 45.3564C178.007 45.4356 178.31 45.4963 178.526 45.5373C178.635 45.5578 178.721 45.5734 178.781 45.584L178.851 45.596L178.869 45.5992L178.874 45.6L178.876 45.6002L178.876 45.6003L178.876 45.6003C178.876 45.6004 178.876 45.6004 178.969 45.041L178.876 45.6004L179.459 45.6962L179.532 45.1098L180.233 39.4228L180.31 38.796L179.678 38.7872C179.098 38.7791 177.796 38.4312 176.481 37.565C176.287 37.4327 176.099 37.2908 175.919 37.14C175.387 36.6874 174.911 36.1729 174.501 35.6077C173.597 34.2759 173.287 33.0078 173.201 32.0678L173.187 31.753C173.168 31.3528 173.188 31.0314 173.213 30.8156C173.225 30.7075 173.239 30.6278 173.248 30.5796C173.251 30.5678 173.253 30.5584 173.254 30.5514L173.256 30.5434C173.256 30.5415 173.257 30.5406 173.257 30.5405ZM173.257 30.5405L173.257 30.5405L173.257 30.5405Z"
            fill="url(#paint16_linear_4001_54062)" stroke="url(#paint17_linear_4001_54062)"
            stroke-width="1.13395" />
    </g>
    <defs>
        <linearGradient id="paint0_linear_4001_54062" x1="185.91" y1="95.0353" x2="185.91"
            y2="225.3" gradientUnits="userSpaceOnUse">
            <stop />
            <stop offset="1" stop-color="#83DBF9" />
        </linearGradient>
        <linearGradient id="paint1_linear_4001_54062" x1="62.1134" y1="-21.4133" x2="62.1134"
            y2="108.851" gradientUnits="userSpaceOnUse">
            <stop />
            <stop offset="1" stop-color="#83DBF9" />
        </linearGradient>
        <linearGradient id="paint2_linear_4001_54062" x1="74.5718" y1="136.163" x2="121.381"
            y2="183.947" gradientUnits="userSpaceOnUse">
            <stop stop-color="#91E2FD" />
            <stop offset="1" stop-color="#34B8E4" />
        </linearGradient>
        <linearGradient id="paint3_linear_4001_54062" x1="89.7528" y1="125.76" x2="76.529"
            y2="187.871" gradientUnits="userSpaceOnUse">
            <stop stop-color="#91E2FD" />
            <stop offset="1" stop-color="#50D3FF" />
        </linearGradient>
        <linearGradient id="paint4_linear_4001_54062" x1="95.8609" y1="155.022" x2="105.86"
            y2="178.657" gradientUnits="userSpaceOnUse">
            <stop stop-color="#91E2FD" />
            <stop offset="1" stop-color="#B4ECFF" />
        </linearGradient>
        <linearGradient id="paint5_linear_4001_54062" x1="63.1855" y1="140.98" x2="73.1846"
            y2="164.616" gradientUnits="userSpaceOnUse">
            <stop stop-color="#91E2FD" />
            <stop offset="1" stop-color="#B4ECFF" />
        </linearGradient>
        <linearGradient id="paint6_linear_4001_54062" x1="80.9475" y1="155.163" x2="86.1378"
            y2="167.432" gradientUnits="userSpaceOnUse">
            <stop stop-color="#99E5FE" />
            <stop offset="1" stop-color="#69D0F3" />
        </linearGradient>
        <linearGradient id="paint7_linear_4001_54062" x1="136.081" y1="86.2898" x2="155.932"
            y2="163.24" gradientUnits="userSpaceOnUse">
            <stop stop-color="#91E2FD" />
            <stop offset="1" stop-color="#34B8E4" />
        </linearGradient>
        <linearGradient id="paint8_linear_4001_54062" x1="157.933" y1="84.5687" x2="107.338"
            y2="140.835" gradientUnits="userSpaceOnUse">
            <stop stop-color="#91E2FD" />
            <stop offset="1" stop-color="#50D3FF" />
        </linearGradient>
        <linearGradient id="paint9_linear_4001_54062" x1="146.754" y1="118.344" x2="143.05"
            y2="148.64" gradientUnits="userSpaceOnUse">
            <stop stop-color="#91E2FD" />
            <stop offset="1" stop-color="#B4ECFF" />
        </linearGradient>
        <linearGradient id="paint10_linear_4001_54062" x1="121.473" y1="84.5039" x2="117.769"
            y2="114.8" gradientUnits="userSpaceOnUse">
            <stop stop-color="#91E2FD" />
            <stop offset="1" stop-color="#B4ECFF" />
        </linearGradient>
        <linearGradient id="paint11_linear_4001_54062" x1="133.675" y1="107.652" x2="116.779"
            y2="126.918" gradientUnits="userSpaceOnUse">
            <stop stop-color="#1D1F23" />
            <stop offset="1" stop-color="#72D4F5" />
        </linearGradient>
        <linearGradient id="paint12_linear_4001_54062" x1="172.038" y1="0.364217" x2="201.892"
            y2="116.093" gradientUnits="userSpaceOnUse">
            <stop stop-color="#91E2FD" />
            <stop offset="1" stop-color="#34B8E4" />
        </linearGradient>
        <linearGradient id="paint13_linear_4001_54062" x1="204.903" y1="-2.22422" x2="128.811"
            y2="82.3967" gradientUnits="userSpaceOnUse">
            <stop stop-color="#91E2FD" />
            <stop offset="1" stop-color="#50D3FF" />
        </linearGradient>
        <linearGradient id="paint14_linear_4001_54062" x1="188.094" y1="48.5711" x2="182.524"
            y2="94.1347" gradientUnits="userSpaceOnUse">
            <stop stop-color="#91E2FD" />
            <stop offset="1" stop-color="#B4ECFF" />
        </linearGradient>
        <linearGradient id="paint15_linear_4001_54062" x1="150.069" y1="-2.32162" x2="144.498"
            y2="43.2419" gradientUnits="userSpaceOnUse">
            <stop stop-color="#91E2FD" />
            <stop offset="1" stop-color="#B4ECFF" />
        </linearGradient>
        <linearGradient id="paint16_linear_4001_54062" x1="152.862" y1="61.8048" x2="194.595"
            y2="30.5123" gradientUnits="userSpaceOnUse">
            <stop />
            <stop offset="1" stop-color="#A7E9FF" />
        </linearGradient>
        <linearGradient id="paint17_linear_4001_54062" x1="166.151" y1="29.5706" x2="162.072"
            y2="62.9307" gradientUnits="userSpaceOnUse">
            <stop stop-color="#98E4FE" />
            <stop offset="1" stop-color="#6BD1F3" />
        </linearGradient>
    </defs>
</svg>