<svg width="363" height="219" viewBox="0 0 363 219" fill="none" xmlns="http://www.w3.org/2000/svg">
    <g opacity="0.2" clip-path="url(#clip0_790_92859)">
        <path
            d="M497.565 1115L490.454 1121.7L386.489 1219.57L296.109 1304.93L414.117 1094.8L549.669 853.209L574.273 809.358L554.996 827.657L450.435 926.919L369.619 1003.75L609.974 574.771L645.385 511.569L617.627 538.065L438.657 708.896L669.672 296.036L712.69 219.158L678.961 251.493L504.099 419.125L728.819 17.0347L776.511 -68.3022L739.111 -32.3257L566.44 133.773L787.509 -262.193L837.467 -351.677L798.286 -313.881L626.143 -147.818L845.776 -541.63L895.789 -631.304L856.557 -593.336L683.056 -425.424L903.616 -821.27L951.434 -907.087L913.916 -870.668L737.334 -699.257L960.993 -1101.14L1004.15 -1178.69L970.28 -1145.69L788.377 -968.427L883.336 -1139.16L1017.86 -1381.26L1053.6 -1445.58L1025.55 -1418.16L836.198 -1232.99L1074.11 -1661.68L1099.21 -1706.92L1079.5 -1687.57L972.407 -1582.41L879.377 -1490.82L995.38 -1700.23L1129.47 -1942.54L1139.15 -1960.04L1131.56 -1952.57L919.238 -1743.71L1187.64 -2222.02L1196.73 -2238.23L1189.62 -2231.53L1085.66 -2133.66L995.276 -2048.3L1113.28 -2258.43L1248.84 -2500.02L1273.44 -2543.87L1254.16 -2525.57L1149.6 -2426.31L1068.79 -2349.48L1309.14 -2778.45L1344.55 -2841.66L1316.79 -2815.16L1137.82 -2644.33L1368.84 -3057.19L1411.86 -3134.07L1378.13 -3101.73L1203.27 -2934.1L1427.98 -3336.19L1475.68 -3421.53L1438.28 -3385.55L1265.61 -3219.45L1486.68 -3615.42L1536.63 -3704.9L1497.45 -3667.11L1325.31 -3501.04L1544.94 -3894.86L1594.96 -3984.53L1555.72 -3946.56L1382.22 -3778.65L1602.78 -4174.5L1650.6 -4260.32L1613.08 -4223.9L1436.5 -4052.48L1660.16 -4454.37L1703.32 -4531.92L1669.45 -4498.91L1487.54 -4321.65L1582.5 -4492.39L1717.02 -4734.49L1752.76 -4798.81L1724.71 -4771.38L1535.36 -4586.22L1773.27 -5014.91L1798.38 -5060.15L1778.67 -5040.8L1671.57 -4935.64L1578.54 -4844.04L1694.55 -5053.46L1828.64 -5295.77L1838.32 -5313.26L1830.73 -5305.8L1616.25 -5094.81C1615.58 -5094.15 1614.56 -5092.51 1613.98 -5091.14C1613.41 -5089.8 1613.47 -5089.22 1614.1 -5089.82L1815.28 -5280.34L1689.17 -5056.09L1553.47 -4814.57L1535.38 -4782.37L1549.56 -4795.78L1653.88 -4894.48L1738.91 -4975.16L1492.8 -4536.31L1461.96 -4481.31L1486.14 -4504.35L1668 -4677.68L1568.15 -4499.41L1432.88 -4257.68L1393.36 -4187.07L1424.33 -4216.69L1600.98 -4385.66L1373.46 -3978.82L1327.7 -3897.01L1363.58 -3931.47L1537.1 -4098.12L1314.55 -3699.69L1265.43 -3611.75L1303.96 -3648.86L1476.15 -3814.76L1256.07 -3420.37L1205.72 -3330.15L1245.22 -3368.32L1417.88 -3535.2L1198.03 -3140.82L1148.87 -3052.64L1187.44 -3090.01L1362.27 -3259.47L1140.41 -2861.07L1094.62 -2778.84L1130.55 -2813.78L1309.52 -2987.82L1083.29 -2581.08L1043.47 -2509.49L1074.72 -2540.01L1260.23 -2721.15L1026.74 -2300.8L996.004 -2245.47L1020.13 -2269.12L1127.1 -2373.96L1214.74 -2459.99L1105.15 -2262.41L970.909 -2020.17L953.079 -1987.99L967.079 -2001.8L1074.51 -2107.74L1174.89 -2207L915.506 -1739.33C914.911 -1738.26 914.514 -1737.29 914.436 -1736.77C914.433 -1736.75 914.431 -1736.73 914.429 -1736.71C914.429 -1736.7 914.425 -1736.68 914.425 -1736.67C914.391 -1736.29 914.565 -1736.24 914.935 -1736.59L1116.12 -1927.11L990.001 -1702.86L854.307 -1461.34L836.217 -1429.14L850.39 -1442.55L954.71 -1541.25L1039.75 -1621.93L793.635 -1183.08L762.789 -1128.08L786.972 -1151.12L968.835 -1324.45L868.986 -1146.18L733.715 -904.454L694.197 -833.835L725.168 -863.461L901.809 -1032.43L674.289 -625.589L628.538 -543.777L664.416 -578.236L837.936 -744.889L615.389 -346.464L566.263 -258.516L604.79 -295.633L776.988 -461.528L556.906 -67.1416L506.561 23.0757L546.054 -15.0942L718.717 -181.974L498.868 212.406L449.708 300.593L488.274 263.213L663.106 93.7622L441.249 492.157L395.454 574.391L431.389 539.447L610.356 365.407L384.122 772.15L344.301 843.745L375.559 813.222L561.065 632.078L327.577 1052.43L296.841 1107.76L320.971 1084.11L427.933 979.267L515.581 893.243L405.985 1090.82L271.747 1333.06L253.916 1365.23L267.916 1351.43L375.349 1245.49L475.721 1146.22L216.342 1613.89C215.503 1615.41 215.055 1616.73 215.344 1616.84C215.627 1616.96 216.516 1615.86 217.344 1614.38L488.473 1131.21L497.567 1115.01L497.565 1115Z"
            fill="black" />
        <path
            d="M308.704 1384.9L301.593 1391.6L197.627 1489.47L107.248 1574.83L225.255 1364.7L360.807 1123.11L385.412 1079.26L366.135 1097.56L261.574 1196.82L180.757 1273.65L421.113 844.669L456.524 781.467L428.766 807.963L249.795 978.794L480.811 565.934L523.828 489.056L490.1 521.391L315.238 689.023L539.959 286.929L587.652 201.592L550.252 237.569L377.581 403.667L598.65 7.70459L648.608 -81.7788L609.426 -43.9834L437.283 122.08L656.917 -271.731L706.93 -361.406L667.697 -323.438L494.197 -155.526L714.757 -551.372L762.575 -637.189L725.057 -600.771L548.474 -429.359L772.133 -831.243L815.293 -908.795L781.42 -875.788L599.518 -698.529L694.476 -869.266L828.996 -1111.36L864.738 -1175.69L836.689 -1148.26L647.339 -963.09L885.248 -1391.78L910.355 -1437.02L890.646 -1417.67L783.547 -1312.51L690.517 -1220.92L806.52 -1430.33L940.611 -1672.64L950.295 -1690.14L942.704 -1682.67L730.381 -1473.81L998.782 -1952.12L1007.88 -1968.33L1000.76 -1961.63L896.799 -1863.76L806.42 -1778.4L924.429 -1988.53L1059.98 -2230.12L1084.59 -2273.97L1065.31 -2255.67L960.746 -2156.41L879.929 -2079.58L1120.28 -2508.56L1155.7 -2571.76L1127.94 -2545.26L948.968 -2374.43L1179.98 -2787.29L1223 -2864.17L1189.27 -2831.83L1014.41 -2664.2L1239.13 -3066.3L1286.82 -3151.63L1249.42 -3115.66L1076.75 -2949.56L1297.82 -3345.52L1347.78 -3435.01L1308.6 -3397.21L1136.46 -3231.15L1356.09 -3624.96L1406.1 -3714.63L1366.87 -3676.67L1193.37 -3508.75L1413.93 -3904.6L1461.75 -3990.42L1424.23 -3954L1247.65 -3782.59L1471.31 -4184.47L1514.46 -4262.02L1480.59 -4229.02L1298.69 -4051.76L1393.65 -4222.5L1528.17 -4464.59L1563.91 -4528.92L1535.86 -4501.49L1346.51 -4316.32L1584.42 -4745.01L1609.53 -4790.25L1589.82 -4770.9L1482.72 -4665.74L1389.69 -4574.15L1505.69 -4783.56L1639.78 -5025.87L1649.47 -5043.37L1641.88 -5035.9L1427.4 -4824.92C1426.72 -4824.26 1425.71 -4822.61 1425.13 -4821.25C1424.56 -4819.9 1424.61 -4819.32 1425.25 -4819.93L1626.43 -5010.45L1500.32 -4786.19L1364.62 -4544.67L1346.53 -4512.47L1360.7 -4525.88L1465.02 -4624.58L1550.06 -4705.27L1303.95 -4266.41L1273.1 -4211.41L1297.29 -4234.46L1479.15 -4407.78L1379.3 -4229.52L1244.03 -3987.79L1204.51 -3917.17L1235.48 -3946.79L1412.12 -4115.77L1184.6 -3708.92L1138.85 -3627.11L1174.73 -3661.57L1348.25 -3828.22L1125.7 -3429.8L1076.58 -3341.85L1115.1 -3378.97L1287.3 -3544.86L1067.22 -3150.48L1016.87 -3060.26L1056.37 -3098.43L1229.03 -3265.31L1009.18 -2870.93L960.02 -2782.74L998.587 -2820.12L1173.42 -2989.57L951.561 -2591.18L905.767 -2508.94L941.702 -2543.89L1120.67 -2717.93L894.434 -2311.19L854.614 -2239.59L885.872 -2270.11L1071.38 -2451.26L837.888 -2030.91L807.152 -1975.57L831.282 -1999.22L938.244 -2104.07L1025.89 -2190.09L916.296 -1992.51L782.057 -1750.27L764.227 -1718.1L778.227 -1731.9L885.662 -1837.84L986.033 -1937.11L726.655 -1469.44C726.059 -1468.36 725.662 -1467.39 725.584 -1466.87C725.581 -1466.85 725.579 -1466.84 725.577 -1466.82C725.577 -1466.8 725.573 -1466.79 725.573 -1466.77C725.539 -1466.4 725.713 -1466.35 726.084 -1466.7L927.265 -1657.22L801.149 -1432.96L665.455 -1191.44L647.366 -1159.24L661.538 -1172.65L765.859 -1271.35L850.893 -1352.04L604.783 -913.183L573.937 -858.181L598.12 -881.228L779.983 -1054.55L680.134 -876.288L544.863 -634.558L505.346 -563.939L536.316 -593.565L712.957 -762.538L485.437 -355.692L439.686 -273.881L475.564 -308.34L649.084 -474.993L426.531 -76.5698L377.405 11.3779L415.932 -25.7388L588.13 -191.633L368.046 202.755L317.701 292.972L357.194 254.802L529.858 87.9219L310.008 482.303L260.848 570.489L299.415 533.109L474.247 363.658L252.389 762.053L206.595 844.288L242.53 809.343L421.496 635.303L195.262 1042.05L155.442 1113.64L186.7 1083.12L372.206 901.974L138.717 1322.32L107.982 1377.66L132.112 1354.01L239.074 1249.16L326.721 1163.14L217.125 1360.72L82.8873 1602.96L65.0568 1635.13L79.0569 1621.33L186.49 1515.39L286.861 1416.12L27.4787 1883.79C26.6393 1885.3 26.1912 1886.62 26.4805 1886.74C26.7641 1886.85 27.6527 1885.76 28.4808 1884.28L299.61 1401.11L308.704 1384.9Z"
            fill="black" />
        <path
            d="M119.842 1654.8L112.732 1661.49L8.76611 1759.36L-81.6133 1844.72L36.3938 1634.6L171.946 1393L196.551 1349.15L177.274 1367.45L72.7127 1466.71L-8.10393 1543.54L232.251 1114.56L267.663 1051.36L239.905 1077.86L60.9341 1248.69L291.95 835.83L334.967 758.951L301.238 791.287L126.376 958.919L351.098 556.824L398.791 471.487L361.39 507.464L188.72 673.563L409.788 277.596L459.746 188.113L420.565 225.909L248.422 391.972L468.056 -1.83447L518.068 -91.5088L478.836 -53.541L305.335 114.371L525.896 -281.475L573.713 -367.292L536.196 -330.873L359.613 -159.461L583.272 -561.346L626.431 -638.898L592.559 -605.891L410.656 -428.632L505.615 -599.368L640.135 -841.465L675.877 -905.79L647.828 -878.36L458.478 -693.193L696.386 -1121.89L721.494 -1167.13L701.784 -1147.77L594.686 -1042.61L501.656 -951.021L617.659 -1160.44L751.75 -1402.74L761.433 -1420.24L753.841 -1412.77L541.518 -1203.91L809.919 -1682.23L819.012 -1698.43L811.902 -1691.74L707.936 -1593.86L617.555 -1508.5L735.564 -1718.63L871.116 -1960.22L895.721 -2004.08L876.444 -1985.78L771.881 -1886.51L691.064 -1809.68L931.419 -2238.66L966.831 -2301.86L939.073 -2275.36L760.102 -2104.53L991.12 -2517.39L1034.14 -2594.27L1000.41 -2561.94L825.546 -2394.3L1050.27 -2796.4L1097.96 -2881.73L1060.56 -2845.76L887.888 -2679.66L1108.96 -3075.63L1158.91 -3165.11L1119.73 -3127.31L947.59 -2961.25L1167.22 -3355.06L1217.24 -3444.74L1178 -3406.77L1004.5 -3238.86L1225.06 -3634.7L1272.88 -3720.52L1235.36 -3684.1L1058.78 -3512.69L1282.44 -3914.57L1325.6 -3992.13L1291.73 -3959.12L1109.82 -3781.86L1204.78 -3952.6L1339.3 -4194.69L1375.05 -4259.02L1347 -4231.59L1157.65 -4046.42L1395.55 -4475.11L1420.66 -4520.35L1400.95 -4501L1293.85 -4395.84L1200.82 -4304.25L1316.83 -4513.66L1450.92 -4755.97L1460.6 -4773.47L1453.01 -4766L1238.53 -4555.02C1237.86 -4554.36 1236.84 -4552.71 1236.26 -4551.34C1235.69 -4550 1235.75 -4549.42 1236.38 -4550.03L1437.57 -4740.55L1311.45 -4516.29L1175.76 -4274.77L1157.67 -4242.57L1171.84 -4255.98L1276.16 -4354.68L1361.19 -4435.37L1115.08 -3996.51L1084.24 -3941.51L1108.42 -3964.56L1290.28 -4137.88L1190.44 -3959.62L1055.16 -3717.89L1015.65 -3647.27L1046.62 -3676.9L1223.26 -3845.87L995.739 -3439.02L949.987 -3357.21L985.866 -3391.67L1159.39 -3558.32L936.838 -3159.9L887.712 -3071.95L926.239 -3109.07L1098.44 -3274.96L878.353 -2880.58L828.008 -2790.36L867.501 -2828.53L1040.16 -2995.41L820.315 -2601.03L771.155 -2512.84L809.722 -2550.22L984.554 -2719.67L762.696 -2321.28L716.902 -2239.04L752.837 -2273.99L931.803 -2448.03L705.569 -2041.29L665.749 -1969.69L697.007 -2000.21L882.511 -2181.36L649.023 -1761.01L618.287 -1705.67L642.417 -1729.32L749.379 -1834.17L837.026 -1920.19L727.431 -1722.61L593.192 -1480.38L575.362 -1448.2L589.362 -1462L696.797 -1567.95L797.168 -1667.21L537.789 -1199.54C537.194 -1198.47 536.797 -1197.49 536.719 -1196.97C536.716 -1196.96 536.714 -1196.94 536.712 -1196.92C536.712 -1196.9 536.708 -1196.89 536.708 -1196.87C536.674 -1196.5 536.848 -1196.45 537.219 -1196.8L738.4 -1387.32L612.284 -1163.06L476.59 -921.54L458.5 -889.343L472.673 -902.751L576.993 -1001.45L662.028 -1082.14L415.918 -643.284L385.072 -588.282L409.255 -611.329L591.118 -784.654L491.269 -606.388L355.998 -364.659L316.48 -294.04L347.451 -323.666L524.092 -492.639L296.572 -85.7993L250.821 -3.98779L286.699 -38.4463L460.219 -205.1L237.67 193.327L188.544 281.275L227.071 244.159L399.269 78.2637L179.185 472.652L128.84 562.869L168.333 524.699L340.996 357.819L121.147 752.2L71.9867 840.386L110.554 803.007L285.385 633.556L63.5262 1031.95L17.7315 1114.18L53.6666 1079.24L232.633 905.201L6.39905 1311.94L-33.4213 1383.54L-2.16359 1353.01L183.343 1171.87L-50.1458 1592.22L-80.8817 1647.55L-56.7516 1623.9L50.2105 1519.06L137.858 1433.03L28.2622 1630.61L-105.976 1872.85L-123.806 1905.03L-109.806 1891.22L-2.37534 1785.28L97.9961 1686.02L-161.383 2153.68C-162.222 2155.2 -162.67 2156.52 -162.381 2156.63C-162.097 2156.75 -161.209 2155.65 -160.381 2154.18L110.748 1671L119.842 1654.8Z"
            fill="black" />
        <path
            d="M-69.0171 1924.7L-76.1277 1931.39L-180.093 2029.26L-270.473 2114.62L-152.466 1904.49L-16.9134 1662.9L7.69122 1619.05L-11.5856 1637.35L-116.147 1736.61L-196.963 1813.44L43.3919 1384.47L78.8033 1321.27L51.0452 1347.76L-127.925 1518.59L103.09 1105.73L146.108 1028.85L112.379 1061.19L-62.4831 1228.82L162.238 826.727L209.931 741.39L172.531 777.366L-0.141632 943.465L220.927 547.499L270.885 458.015L231.704 495.811L59.5605 661.874L279.196 268.064L329.209 178.39L289.977 216.357L116.476 384.27L337.036 -11.5767L384.854 -97.394L347.336 -60.9746L170.754 110.437L394.413 -291.448L437.572 -368.999L403.7 -335.993L221.797 -158.733L316.755 -329.47L451.275 -571.566L487.018 -635.891L458.968 -608.462L269.618 -423.294L507.527 -851.988L532.635 -897.229L512.925 -877.876L405.827 -772.714L312.797 -681.123L428.8 -890.538L562.89 -1132.84L572.574 -1150.34L564.981 -1142.87L352.659 -934.014L621.059 -1412.33L630.153 -1428.53L623.042 -1421.84L519.077 -1323.97L428.698 -1238.61L546.707 -1448.73L682.259 -1690.32L706.863 -1734.18L687.587 -1715.88L583.026 -1616.62L502.209 -1539.79L742.564 -1968.76L777.975 -2031.96L750.217 -2005.47L571.247 -1834.63L802.264 -2247.5L845.282 -2324.37L811.553 -2292.04L636.691 -2124.41L861.411 -2526.5L909.104 -2611.84L871.703 -2575.86L699.032 -2409.76L920.101 -2805.73L970.059 -2895.21L930.878 -2857.42L758.734 -2691.35L978.368 -3085.16L1028.38 -3174.84L989.149 -3136.87L815.648 -2968.96L1036.21 -3364.8L1084.03 -3450.62L1046.51 -3414.2L869.926 -3242.79L1093.59 -3644.68L1136.74 -3722.23L1102.87 -3689.22L920.969 -3511.96L1015.93 -3682.7L1150.45 -3924.8L1186.19 -3989.12L1158.14 -3961.69L968.791 -3776.52L1206.7 -4205.22L1231.81 -4250.46L1212.1 -4231.11L1105 -4125.94L1011.97 -4034.35L1127.97 -4243.77L1262.06 -4486.07L1271.75 -4503.57L1264.15 -4496.1L1049.67 -4285.12C1049 -4284.46 1047.99 -4282.81 1047.4 -4281.45C1046.83 -4280.11 1046.89 -4279.53 1047.53 -4280.13L1248.71 -4470.65L1122.59 -4246.4L986.899 -4004.87L968.809 -3972.68L982.982 -3986.08L1087.3 -4084.78L1172.34 -4165.47L926.227 -3726.62L895.381 -3671.61L919.564 -3694.66L1101.43 -3867.99L1001.58 -3689.72L866.307 -3447.99L826.79 -3377.37L857.76 -3407L1034.4 -3575.97L806.881 -3169.13L761.13 -3087.32L797.008 -3121.77L970.528 -3288.43L747.981 -2890L698.855 -2802.05L737.382 -2839.17L909.58 -3005.07L689.496 -2610.68L639.151 -2520.46L678.644 -2558.63L851.307 -2725.51L631.458 -2331.13L582.298 -2242.94L620.864 -2280.32L795.696 -2449.77L573.839 -2051.38L528.044 -1969.15L563.979 -2004.09L742.946 -2178.13L516.712 -1771.39L476.891 -1699.8L508.149 -1730.32L693.653 -1911.46L460.165 -1491.11L429.429 -1435.78L453.559 -1459.43L560.521 -1564.27L648.169 -1650.3L538.573 -1452.72L404.335 -1210.48L386.504 -1178.3L400.505 -1192.11L507.939 -1298.05L608.311 -1397.31L348.932 -929.644C348.336 -928.57 347.939 -927.596 347.862 -927.078C347.858 -927.059 347.856 -927.04 347.854 -927.021C347.854 -927.006 347.851 -926.991 347.851 -926.976C347.817 -926.603 347.99 -926.55 348.361 -926.902L549.542 -1117.42L423.426 -893.168L287.732 -651.644L269.643 -619.447L283.815 -632.855L388.136 -731.555L473.171 -812.241L227.057 -373.393L196.211 -318.391L220.394 -341.438L402.257 -514.763L302.408 -336.498L167.139 -94.7661L127.621 -24.1475L158.591 -53.7734L335.233 -222.746L107.711 184.1L61.9597 265.91L97.8381 231.452L271.358 64.7993L48.8104 463.226L-0.315582 551.174L38.2116 514.057L210.41 348.162L-9.67606 742.55L-60.0215 832.767L-20.5283 794.598L152.135 627.718L-67.7145 1022.1L-116.875 1110.28L-78.3076 1072.9L96.5241 903.454L-125.333 1301.85L-171.128 1384.08L-135.193 1349.14L43.7738 1175.1L-182.46 1581.84L-222.281 1653.44L-191.023 1622.91L-5.51859 1441.77L-239.007 1862.12L-269.743 1917.45L-245.613 1893.8L-138.651 1788.96L-51.0032 1702.93L-160.599 1900.51L-294.837 2142.75L-312.668 2174.92L-298.668 2161.12L-191.235 2055.18L-90.8633 1955.91L-350.242 2423.58C-351.081 2425.1 -351.529 2426.42 -351.24 2426.53C-350.957 2426.65 -350.068 2425.55 -349.24 2424.07L-78.111 1940.9L-69.0171 1924.7Z"
            fill="black" />
        <path
            d="M-257.876 2194.59L-264.987 2201.28L-368.953 2299.16L-459.332 2384.52L-341.325 2174.39L-205.773 1932.8L-181.168 1888.95L-200.445 1907.24L-305.006 2006.51L-385.823 2083.34L-145.467 1654.36L-110.056 1591.16L-137.814 1617.65L-316.785 1788.48L-85.7691 1375.63L-42.7517 1298.75L-76.4804 1331.08L-251.342 1498.72L-26.6228 1096.62L21.0701 1011.28L-16.3302 1047.26L-189.001 1213.36L32.0679 817.396L82.0258 727.912L42.8444 765.708L-129.299 931.771L90.337 537.959L140.35 448.285L101.117 486.252L-72.3835 654.165L148.177 258.319L195.995 172.501L158.477 208.92L-18.1055 380.332L205.555 -21.5542L248.715 -99.106L214.842 -66.0991L32.9414 111.16L127.9 -59.5767L262.42 -301.673L298.162 -365.998L270.113 -338.569L80.7609 -153.401L318.67 -582.094L343.777 -627.335L324.067 -607.983L216.969 -502.821L123.939 -411.229L239.942 -620.644L374.033 -862.95L383.717 -880.448L376.124 -872.98L163.801 -664.121L432.202 -1142.43L441.296 -1158.64L434.185 -1151.95L330.219 -1054.07L239.84 -968.712L357.849 -1178.84L493.401 -1420.43L518.006 -1464.28L498.729 -1445.99L394.166 -1346.72L313.349 -1269.89L553.705 -1698.87L589.116 -1762.07L561.358 -1735.57L382.388 -1564.74L613.405 -1977.6L656.422 -2054.48L622.692 -2022.14L447.83 -1854.51L672.549 -2256.61L720.242 -2341.94L682.842 -2305.97L510.171 -2139.87L731.24 -2535.83L781.198 -2625.32L742.016 -2587.52L569.873 -2421.46L789.507 -2815.27L839.52 -2904.94L800.287 -2866.98L626.787 -2699.06L847.347 -3094.91L895.165 -3180.73L857.647 -3144.31L681.065 -2972.9L904.724 -3374.78L947.883 -3452.33L914.01 -3419.33L732.108 -3242.07L827.066 -3412.8L961.586 -3654.9L997.328 -3719.23L969.279 -3691.8L779.929 -3506.63L1017.84 -3935.32L1042.95 -3980.56L1023.24 -3961.21L916.137 -3856.05L823.107 -3764.46L939.11 -3973.87L1073.2 -4216.18L1082.88 -4233.67L1075.29 -4226.21L860.814 -4015.22C860.143 -4014.56 859.128 -4012.92 858.545 -4011.55C857.974 -4010.21 858.033 -4009.63 858.668 -4010.23L1059.85 -4200.75L933.734 -3976.5L798.039 -3734.98L779.95 -3702.78L794.122 -3716.19L898.443 -3814.89L983.478 -3895.58L737.368 -3456.72L706.522 -3401.72L730.705 -3424.77L912.568 -3598.09L812.718 -3419.83L677.448 -3178.1L637.93 -3107.48L668.9 -3137.1L845.542 -3306.08L618.022 -2899.23L572.271 -2817.42L608.149 -2851.88L781.669 -3018.53L559.121 -2620.11L509.995 -2532.16L548.522 -2569.28L720.72 -2735.17L500.637 -2340.78L450.291 -2250.57L489.784 -2288.74L662.448 -2455.62L442.598 -2061.24L393.438 -1973.05L432.005 -2010.43L606.837 -2179.88L384.98 -1781.48L339.185 -1699.25L375.12 -1734.2L554.086 -1908.24L327.852 -1501.49L288.032 -1429.9L319.29 -1460.42L504.794 -1641.56L271.306 -1221.22L240.57 -1165.88L264.7 -1189.53L371.662 -1294.38L459.309 -1380.4L349.714 -1182.82L215.476 -940.583L197.645 -908.407L211.645 -922.212L319.08 -1028.15L419.451 -1127.42L160.071 -659.752C159.475 -658.678 159.078 -657.704 159.001 -657.186C158.997 -657.167 158.995 -657.149 158.993 -657.13C158.993 -657.115 158.989 -657.099 158.989 -657.084C158.955 -656.712 159.129 -656.659 159.5 -657.01L360.681 -847.531L234.565 -623.276L98.8713 -381.752L80.7817 -349.555L94.9539 -362.964L199.275 -461.664L284.309 -542.35L38.1973 -103.496L7.35175 -48.4941L31.5348 -71.541L213.398 -244.866L113.55 -66.6006L-21.7204 175.129L-61.2383 245.748L-30.2679 216.122L146.373 47.1489L-81.1484 453.996L-126.9 535.807L-91.0212 501.349L82.4984 334.696L-140.049 733.121L-189.175 821.069L-150.648 783.952L21.5485 618.059L-198.535 1012.45L-248.881 1102.66L-209.388 1064.49L-36.7244 897.612L-256.574 1291.99L-305.734 1380.18L-267.167 1342.8L-92.3352 1173.35L-314.193 1571.74L-359.987 1653.98L-324.052 1619.03L-145.086 1444.99L-371.32 1851.74L-411.14 1923.33L-379.882 1892.81L-194.376 1711.66L-427.864 2132.01L-458.6 2187.35L-434.47 2163.7L-327.508 2058.85L-239.861 1972.83L-349.456 2170.41L-483.695 2412.64L-501.525 2444.82L-487.525 2431.02L-380.092 2325.07L-279.721 2225.81L-539.099 2693.48C-539.939 2694.99 -540.387 2696.32 -540.098 2696.43C-539.814 2696.54 -538.925 2695.45 -538.097 2693.97L-266.968 2210.8L-257.875 2194.59L-257.876 2194.59Z"
            fill="black" />
        <path
            d="M-446.74 2464.49L-453.85 2471.18L-557.816 2569.06L-648.195 2654.41L-530.188 2444.29L-394.636 2202.69L-370.031 2158.84L-389.308 2177.14L-493.869 2276.4L-574.686 2353.23L-334.331 1924.26L-298.919 1861.05L-326.677 1887.55L-505.648 2058.38L-274.632 1645.52L-231.615 1568.64L-265.344 1600.98L-440.206 1768.61L-215.484 1366.52L-167.791 1281.18L-205.192 1317.16L-377.862 1483.25L-156.793 1087.29L-106.836 997.804L-146.017 1035.6L-318.16 1201.66L-98.5263 807.851L-48.5135 718.177L-87.7459 756.145L-261.247 924.057L-40.6844 528.215L7.13324 442.395L-30.3843 478.815L-206.967 650.226L16.6941 248.344L59.8533 170.792L25.9808 203.799L-155.922 381.058L-60.9633 210.321L73.5565 -31.7771L109.299 -96.1018L81.2495 -68.6726L-108.1 116.495L129.808 -312.198L154.916 -357.439L135.206 -338.087L28.1078 -232.924L-64.9223 -141.333L51.0808 -350.748L185.172 -593.054L194.855 -610.552L187.262 -603.084L-25.0604 -394.225L243.34 -872.538L252.434 -888.742L245.324 -882.05L141.358 -784.176L50.9768 -698.816L168.986 -908.944L304.538 -1150.54L329.143 -1194.39L309.866 -1176.09L205.303 -1076.83L124.486 -999.996L364.841 -1428.97L400.253 -1492.17L372.495 -1465.68L193.524 -1294.84L424.542 -1707.71L467.559 -1784.58L433.83 -1752.25L258.968 -1584.62L483.688 -1986.71L531.381 -2072.05L493.98 -2036.07L321.31 -1869.97L542.379 -2265.94L592.336 -2355.42L553.155 -2317.62L381.012 -2151.56L600.646 -2545.37L650.658 -2635.04L611.426 -2597.08L437.925 -2429.17L658.486 -2825.01L706.303 -2910.83L668.786 -2874.41L492.203 -2703L715.862 -3104.88L759.022 -3182.43L725.149 -3149.43L543.246 -2972.17L638.205 -3142.9L772.725 -3385L808.467 -3449.33L780.418 -3421.9L591.068 -3236.73L828.977 -3665.42L854.084 -3710.66L834.374 -3691.31L727.276 -3586.15L634.246 -3494.56L750.249 -3703.97L884.34 -3946.28L894.024 -3963.77L886.431 -3956.31L671.951 -3745.32C671.28 -3744.66 670.264 -3743.02 669.682 -3741.65C669.111 -3740.31 669.17 -3739.73 669.805 -3740.33L870.986 -3930.85L744.87 -3706.6L609.176 -3465.08L591.087 -3432.88L605.259 -3446.29L709.58 -3544.99L794.614 -3625.67L548.504 -3186.82L517.659 -3131.82L541.842 -3154.86L723.705 -3328.19L623.855 -3149.92L488.585 -2908.19L449.067 -2837.57L480.037 -2867.2L656.678 -3036.17L429.159 -2629.33L383.407 -2547.52L419.286 -2581.98L592.805 -2748.63L370.258 -2350.21L321.132 -2262.26L359.659 -2299.37L531.857 -2465.27L311.773 -2070.88L261.428 -1980.67L300.921 -2018.84L473.584 -2185.72L253.735 -1791.33L204.573 -1703.15L243.14 -1740.53L417.972 -1909.98L196.114 -1511.58L150.32 -1429.35L186.255 -1464.29L365.221 -1638.33L138.987 -1231.59L99.1669 -1160L130.425 -1190.52L315.929 -1371.66L82.4424 -951.318L51.7066 -895.984L75.8366 -919.635L182.799 -1024.48L270.446 -1110.5L160.85 -912.922L26.6142 -670.689L8.78375 -638.512L22.7838 -652.318L130.219 -758.259L230.59 -857.521L-28.7905 -389.854C-29.3861 -388.78 -29.7831 -387.806 -29.8607 -387.288C-29.8644 -387.27 -29.8663 -387.25 -29.8682 -387.231C-29.8682 -387.216 -29.872 -387.201 -29.872 -387.186C-29.906 -386.814 -29.7321 -386.761 -29.3615 -387.113L171.82 -577.633L45.7019 -353.378L-89.9919 -111.856L-108.081 -79.6589L-93.9094 -93.0671L10.4116 -191.767L95.4462 -272.454L-150.664 166.401L-181.51 221.403L-157.327 198.356L24.5364 25.0308L-75.3132 203.296L-210.584 445.025L-250.101 515.646L-219.131 486.018L-42.49 317.045L-270.01 723.891L-315.761 805.702L-279.883 771.243L-106.363 604.591L-328.91 1003.01L-378.036 1090.96L-339.509 1053.85L-167.311 887.951L-387.395 1282.34L-437.74 1372.55L-398.247 1334.39L-225.584 1167.51L-445.433 1561.89L-494.595 1650.07L-456.028 1612.69L-281.197 1443.24L-503.054 1841.64L-548.849 1923.87L-512.913 1888.92L-333.947 1714.88L-560.181 2121.63L-600.001 2193.22L-568.744 2162.7L-383.237 1981.56L-616.726 2401.91L-647.462 2457.24L-623.332 2433.59L-516.37 2328.74L-428.722 2242.72L-538.318 2440.3L-672.556 2682.53L-690.386 2714.71L-676.386 2700.91L-568.953 2594.97L-468.582 2495.7L-727.961 2963.37C-728.8 2964.88 -729.248 2966.2 -728.959 2966.32C-728.675 2966.43 -727.787 2965.34 -726.959 2963.86L-455.83 2480.69L-446.736 2464.48L-446.74 2464.49Z"
            fill="black" />
        <path
            d="M-635.601 2734.39L-642.712 2741.08L-746.677 2838.95L-837.057 2924.31L-719.048 2714.18L-583.496 2472.59L-558.891 2428.74L-578.168 2447.04L-682.729 2546.3L-763.545 2623.13L-523.19 2194.15L-487.779 2130.95L-515.537 2157.45L-694.507 2328.28L-463.49 1915.42L-420.473 1838.54L-454.201 1870.87L-629.063 2038.51L-404.344 1636.41L-356.651 1551.07L-394.051 1587.05L-566.722 1753.15L-345.653 1357.18L-295.695 1267.7L-334.876 1305.5L-507.02 1471.56L-287.384 1077.75L-237.371 988.075L-276.604 1026.04L-450.104 1193.96L-229.544 798.109L-181.726 712.292L-219.244 748.711L-395.826 920.122L-172.169 518.24L-129.01 440.688L-162.882 473.695L-344.785 650.954L-249.827 480.219L-115.307 238.121L-79.5645 173.796L-107.614 201.226L-296.964 386.394L-59.055 -42.302L-33.9475 -87.543L-53.6573 -68.1904L-160.755 36.9719L-253.786 128.563L-137.783 -80.8501L-3.68994 -323.158L5.99377 -340.656L-1.59888 -333.188L-213.922 -124.329L54.4789 -602.642L63.5728 -618.846L56.4622 -612.154L-47.5033 -514.28L-137.883 -428.92L-19.8737 -639.048L115.677 -880.639L140.281 -924.492L121.004 -906.193L16.4433 -806.93L-64.3734 -730.1L175.98 -1159.08L211.391 -1222.28L183.633 -1195.78L4.66278 -1024.95L235.68 -1437.81L278.698 -1514.69L244.969 -1482.35L70.1069 -1314.72L294.827 -1716.82L342.519 -1802.15L305.119 -1766.18L132.448 -1600.08L353.517 -1996.04L403.475 -2085.53L364.294 -2047.73L192.151 -1881.66L411.786 -2275.48L461.799 -2365.15L422.567 -2327.19L249.066 -2159.27L469.626 -2555.12L517.444 -2640.94L479.926 -2604.52L303.344 -2433.11L527.005 -2834.99L570.164 -2912.54L536.292 -2879.54L354.389 -2702.28L449.347 -2873.01L583.867 -3115.11L619.609 -3179.44L591.56 -3152.01L402.21 -2966.84L640.117 -3395.53L665.225 -3440.77L645.515 -3421.42L538.417 -3316.26L445.386 -3224.67L561.39 -3434.08L695.482 -3676.39L705.166 -3693.88L697.573 -3686.42L483.093 -3475.43C482.422 -3474.77 481.407 -3473.13 480.824 -3471.76C480.253 -3470.42 480.312 -3469.84 480.947 -3470.44L682.129 -3660.96L556.013 -3436.71L420.319 -3195.19L402.229 -3162.99L416.401 -3176.4L520.72 -3275.1L605.755 -3355.78L359.645 -2916.93L328.799 -2861.93L352.982 -2884.98L534.845 -3058.3L434.997 -2880.04L299.727 -2638.3L260.209 -2567.68L291.18 -2597.31L467.821 -2766.28L240.299 -2359.44L194.548 -2277.63L230.424 -2312.08L403.944 -2478.74L181.396 -2080.31L132.271 -1992.36L170.798 -2029.48L342.996 -2195.37L122.91 -1800.98L72.5646 -1710.77L112.056 -1748.94L284.721 -1915.82L64.8755 -1521.44L15.7136 -1433.26L54.2805 -1470.64L229.112 -1640.09L7.25494 -1241.69L-38.5399 -1159.46L-2.60474 -1194.4L176.362 -1368.44L-49.8723 -961.7L-89.6926 -890.106L-58.4367 -920.628L127.069 -1101.77L-106.419 -681.422L-137.155 -626.087L-113.025 -649.741L-6.06274 -754.584L81.5867 -840.611L-28.009 -643.029L-162.247 -400.793L-180.08 -368.615L-166.078 -382.422L-58.6447 -488.363L41.7266 -587.625L-217.654 -119.958C-218.251 -118.882 -218.646 -117.908 -218.724 -117.39C-218.726 -117.373 -218.728 -117.356 -218.732 -117.341C-218.733 -117.324 -218.735 -117.305 -218.737 -117.288C-218.769 -116.919 -218.595 -116.866 -218.225 -117.216L-17.0434 -307.736L-143.159 -83.4836L-278.853 158.04L-296.943 190.237L-282.771 176.829L-178.452 78.1309L-93.4171 -2.55542L-339.527 436.297L-370.373 491.299L-346.19 468.252L-164.327 294.927L-264.175 473.192L-399.445 714.924L-438.963 785.544L-407.993 755.916L-231.351 586.944L-458.873 993.791L-504.624 1075.6L-468.748 1041.14L-295.228 874.49L-517.775 1272.91L-566.901 1360.86L-528.374 1323.75L-356.176 1157.85L-576.262 1552.24L-626.607 1642.46L-587.116 1604.29L-414.451 1437.41L-634.3 1831.79L-683.46 1919.98L-644.894 1882.6L-470.062 1713.15L-691.919 2111.54L-737.714 2193.77L-701.779 2158.83L-522.812 1984.79L-749.046 2391.53L-788.866 2463.13L-757.611 2432.6L-572.104 2251.46L-805.593 2671.81L-836.329 2727.14L-812.199 2703.49L-705.237 2598.65L-617.589 2512.62L-727.183 2710.2L-861.421 2952.44L-879.254 2984.61L-865.252 2970.81L-757.819 2864.87L-657.447 2765.61L-916.826 3233.27C-917.665 3234.79 -918.113 3236.11 -917.824 3236.22C-917.541 3236.33 -916.65 3235.24 -915.824 3233.76L-644.695 2750.59L-635.601 2734.39Z"
            fill="black" />
        <path
            d="M-824.461 3004.28L-831.569 3010.98L-935.535 3108.85L-1025.91 3194.21L-907.905 2984.08L-772.353 2742.49L-747.749 2698.64L-767.025 2716.94L-871.586 2816.2L-952.403 2893.03L-712.048 2464.05L-676.636 2400.85L-704.395 2427.34L-883.367 2598.18L-652.349 2185.32L-609.334 2108.44L-643.063 2140.77L-817.925 2308.41L-593.205 1906.31L-545.512 1820.98L-582.912 1856.95L-755.583 2023.05L-534.516 1627.09L-484.556 1537.6L-523.74 1575.4L-695.883 1741.46L-476.249 1347.65L-426.234 1257.98L-465.467 1295.95L-638.968 1463.86L-418.405 1068.01L-370.59 982.192L-408.105 1018.61L-584.688 1190.02L-361.029 788.14L-317.868 710.587L-351.74 743.595L-533.641 920.855L-438.682 750.12L-304.163 508.021L-268.42 443.697L-296.469 471.126L-485.819 656.293L-247.914 227.596L-222.807 182.355L-242.517 201.708L-349.615 306.87L-442.645 398.462L-326.642 189.048L-192.549 -53.2617L-182.866 -70.7593L-190.458 -63.2913L-402.781 145.568L-134.381 -332.743L-125.289 -348.948L-132.397 -342.255L-236.363 -244.381L-326.742 -159.021L-208.733 -369.149L-73.181 -610.741L-48.5764 -654.594L-67.8533 -636.295L-172.416 -537.031L-253.233 -460.202L-12.8777 -889.179L22.5337 -952.379L-5.22437 -925.884L-184.197 -755.05L46.8208 -1167.91L89.8363 -1244.79L56.1074 -1212.46L-118.755 -1044.82L105.965 -1446.92L153.658 -1532.25L116.258 -1496.28L-56.4131 -1330.18L164.656 -1726.14L214.616 -1815.63L175.432 -1777.83L3.28906 -1611.77L222.923 -2005.58L272.938 -2095.26L233.705 -2057.29L60.2045 -1889.37L280.767 -2285.22L328.582 -2371.04L291.067 -2334.62L114.484 -2163.21L338.143 -2565.09L381.304 -2642.65L347.432 -2609.64L165.531 -2432.38L260.49 -2603.11L395.01 -2845.21L430.752 -2909.54L402.703 -2882.11L213.353 -2696.94L451.26 -3125.63L476.367 -3170.87L456.657 -3151.52L349.559 -3046.36L256.529 -2954.77L372.532 -3164.18L506.625 -3406.49L516.308 -3423.99L508.716 -3416.52L294.235 -3205.54C293.564 -3204.88 292.549 -3203.23 291.967 -3201.87C291.396 -3200.52 291.454 -3199.95 292.09 -3200.55L493.269 -3391.07L367.155 -3166.82L231.461 -2925.29L213.372 -2893.09L227.544 -2906.5L331.863 -3005.2L416.897 -3085.89L170.787 -2647.03L139.942 -2592.03L164.125 -2615.08L345.99 -2788.4L246.14 -2610.14L110.869 -2368.41L71.3517 -2297.79L102.322 -2327.42L278.963 -2496.39L51.4414 -2089.54L5.69019 -2007.73L41.5668 -2042.19L215.086 -2208.84L-7.46106 -1810.42L-56.587 -1722.47L-18.0599 -1759.59L154.136 -1925.48L-65.9475 -1531.09L-116.293 -1440.88L-76.8015 -1479.04L95.8616 -1645.92L-123.988 -1251.55L-173.15 -1163.36L-134.583 -1200.74L40.2489 -1370.19L-181.61 -971.795L-227.405 -889.561L-191.47 -924.507L-12.5033 -1098.55L-238.737 -691.802L-278.558 -620.209L-247.302 -650.731L-61.7957 -831.876L-295.278 -411.526L-326.014 -356.191L-301.884 -379.844L-194.922 -484.687L-107.273 -570.714L-216.869 -373.135L-351.109 -130.896L-368.941 -98.718L-354.939 -112.525L-247.506 -218.466L-147.135 -317.728L-406.513 149.939C-407.109 151.015 -407.506 151.989 -407.583 152.507C-407.585 152.524 -407.589 152.541 -407.591 152.556C-407.593 152.573 -407.595 152.592 -407.597 152.608C-407.629 152.977 -407.455 153.03 -407.084 152.68L-205.905 -37.8381L-332.019 186.415L-467.713 427.938L-485.802 460.136L-471.63 446.727L-367.311 348.029L-282.277 267.343L-528.387 706.195L-559.232 761.197L-535.049 738.15L-353.185 564.825L-453.034 743.091L-588.305 984.822L-627.822 1055.44L-596.852 1025.81L-420.211 856.842L-647.733 1263.69L-693.484 1345.5L-657.607 1311.04L-484.088 1144.39L-706.635 1542.81L-755.761 1630.76L-717.234 1593.65L-545.038 1427.75L-765.121 1822.14L-815.467 1912.35L-775.976 1874.19L-603.312 1707.31L-823.162 2101.69L-872.324 2189.88L-833.757 2152.49L-658.925 1983.04L-880.784 2381.44L-926.579 2463.67L-890.644 2428.72L-711.677 2254.69L-937.911 2661.43L-977.732 2733.02L-946.476 2702.5L-760.97 2521.36L-994.458 2941.71L-1025.19 2997.04L-1001.06 2973.39L-894.102 2868.54L-806.454 2782.52L-916.048 2980.1L-1050.29 3222.33L-1068.12 3254.51L-1054.12 3240.7L-946.684 3134.77L-846.312 3035.5L-1105.69 3503.17C-1106.53 3504.68 -1106.98 3506 -1106.69 3506.12C-1106.41 3506.23 -1105.52 3505.14 -1104.69 3503.66L-833.56 3020.49L-824.468 3004.28H-824.461Z"
            fill="black" />
        <path
            d="M-1013.32 3274.18L-1020.43 3280.87L-1124.4 3378.75L-1214.78 3464.11L-1096.77 3253.98L-961.214 3012.38L-936.61 2968.53L-955.887 2986.83L-1060.45 3086.09L-1141.26 3162.92L-900.909 2733.95L-865.498 2670.75L-893.254 2697.24L-1072.23 2868.07L-841.209 2455.21L-798.193 2378.34L-831.922 2410.67L-1006.78 2578.3L-782.064 2176.21L-734.371 2090.87L-771.772 2126.85L-944.443 2292.95L-723.376 1896.98L-673.416 1807.5L-712.599 1845.3L-884.742 2011.36L-665.108 1617.55L-615.094 1527.87L-654.326 1565.84L-827.827 1733.75L-607.265 1337.91L-559.449 1252.09L-596.965 1288.51L-773.547 1459.92L-549.888 1058.04L-506.727 980.483L-540.599 1013.49L-722.5 1190.75L-627.542 1020.02L-493.022 777.918L-457.28 713.593L-485.329 741.022L-674.679 926.19L-436.772 497.497L-411.664 452.256L-431.374 471.608L-538.472 576.771L-631.503 668.362L-515.499 458.948L-381.407 216.64L-371.723 199.143L-379.316 206.611L-591.639 415.47L-323.24 -62.8469L-314.148 -79.0515L-321.257 -72.3586L-425.222 25.5151L-515.602 110.875L-397.594 -99.2529L-262.042 -340.844L-237.438 -384.698L-256.714 -366.398L-361.277 -267.135L-442.094 -190.305L-201.739 -619.281L-166.328 -682.48L-194.086 -655.985L-373.058 -485.152L-142.04 -898.014L-99.025 -974.89L-132.754 -942.555L-307.616 -774.925L-82.8942 -1177.02L-35.2013 -1262.36L-72.6016 -1226.38L-245.272 -1060.28L-24.2035 -1456.25L25.7562 -1545.73L-13.427 -1507.93L-185.57 -1341.87L34.0656 -1735.68L84.0802 -1825.36L44.8479 -1787.39L-128.653 -1619.48L91.9093 -2015.32L139.725 -2101.14L102.209 -2064.72L-74.3732 -1893.31L149.286 -2295.19L192.447 -2372.75L158.575 -2339.74L-23.3263 -2162.48L71.6323 -2333.22L206.152 -2575.31L241.894 -2639.64L213.845 -2612.21L24.4952 -2427.04L262.402 -2855.74L287.51 -2900.98L267.8 -2881.62L160.702 -2776.46L67.6714 -2684.87L183.674 -2894.28L317.767 -3136.59L327.451 -3154.09L319.858 -3146.62L105.378 -2935.64C104.707 -2934.98 103.692 -2933.33 103.109 -2931.97C102.538 -2930.62 102.597 -2930.05 103.232 -2930.65L304.412 -3121.17L178.298 -2896.91L42.6036 -2655.39L24.5142 -2623.19L38.6863 -2636.6L143.005 -2735.3L228.04 -2815.99L-18.0741 -2377.14L-48.9197 -2322.14L-24.7367 -2345.19L157.128 -2518.51L57.2787 -2340.24L-77.9917 -2098.51L-117.51 -2027.89L-86.5393 -2057.52L90.1018 -2226.49L-137.42 -1819.65L-183.171 -1737.84L-147.294 -1772.29L26.2252 -1938.95L-196.322 -1540.52L-245.448 -1452.57L-206.921 -1489.69L-34.7249 -1655.58L-254.809 -1261.2L-305.154 -1170.98L-265.663 -1209.15L-92.9996 -1376.03L-312.849 -981.649L-362.011 -893.461L-323.444 -930.841L-148.612 -1100.29L-370.472 -701.899L-416.266 -619.665L-380.331 -654.611L-201.365 -828.65L-427.599 -421.907L-467.419 -350.315L-436.163 -380.837L-250.657 -561.981L-484.138 -141.629L-514.874 -86.2944L-490.744 -109.948L-383.781 -214.791L-296.132 -300.818L-405.73 -103.236L-539.968 139L-557.8 171.178L-543.798 157.371L-436.365 51.4302L-335.994 -47.8296L-595.373 419.837C-595.97 420.913 -596.365 421.887 -596.443 422.405C-596.445 422.422 -596.447 422.439 -596.45 422.454C-596.452 422.471 -596.454 422.49 -596.456 422.507C-596.488 422.875 -596.314 422.928 -595.944 422.579L-394.764 232.061L-520.878 456.313L-656.572 697.837L-674.662 730.034L-660.49 716.625L-556.171 617.927L-471.136 537.241L-717.246 976.093L-748.092 1031.1L-723.909 1008.05L-542.044 834.724L-641.893 1012.99L-777.164 1254.72L-816.682 1325.34L-785.711 1295.71L-609.07 1126.74L-836.592 1533.59L-882.343 1615.4L-846.467 1580.94L-672.947 1414.29L-895.494 1812.71L-944.62 1900.66L-906.093 1863.54L-733.897 1697.65L-953.981 2092.04L-1004.33 2182.25L-964.835 2144.09L-792.172 1977.21L-1012.02 2371.59L-1061.18 2459.77L-1022.61 2422.39L-847.783 2252.94L-1069.64 2651.33L-1115.44 2733.57L-1079.5 2698.62L-900.535 2524.58L-1126.77 2931.33L-1166.59 3002.92L-1135.33 2972.4L-949.827 2791.26L-1183.32 3211.61L-1214.05 3266.94L-1189.92 3243.29L-1082.96 3138.44L-995.312 3052.42L-1104.91 3250L-1239.14 3492.23L-1256.98 3524.41L-1242.97 3510.6L-1135.54 3404.66L-1035.17 3305.4L-1294.55 3773.07C-1295.39 3774.58 -1295.84 3775.9 -1295.55 3776.02C-1295.26 3776.13 -1294.37 3775.03 -1293.55 3773.56L-1022.42 3290.38L-1013.33 3274.18L-1013.32 3274.18Z"
            fill="black" />
        <path
            d="M-1202.18 3544.08L-1209.29 3550.77L-1313.26 3648.64L-1403.63 3734L-1285.63 3523.87L-1150.07 3282.28L-1125.47 3238.43L-1144.75 3256.73L-1249.31 3355.99L-1330.12 3432.82L-1089.77 3003.84L-1054.36 2940.64L-1082.12 2967.14L-1261.09 3137.97L-1030.07 2725.11L-987.055 2648.23L-1020.78 2680.57L-1195.65 2848.2L-970.926 2446.11L-923.233 2360.77L-960.633 2396.75L-1133.3 2562.85L-912.237 2166.88L-862.277 2077.4L-901.46 2115.19L-1073.6 2281.26L-853.97 1887.45L-803.955 1797.77L-843.188 1835.74L-1016.69 2003.65L-796.126 1607.8L-748.31 1521.99L-785.826 1558.41L-962.409 1729.82L-738.749 1327.93L-695.588 1250.38L-729.461 1283.39L-911.362 1460.65L-816.403 1289.91L-681.883 1047.81L-646.141 983.489L-674.19 1010.92L-863.54 1196.09L-625.633 767.392L-600.526 722.152L-620.236 741.504L-727.334 846.667L-820.364 938.258L-704.361 728.845L-570.268 486.536L-560.585 469.038L-568.177 476.506L-780.5 685.366L-512.099 207.053L-503.007 190.848L-510.116 197.541L-614.082 295.415L-704.461 380.775L-586.452 170.647L-450.902 -70.9487L-426.297 -114.802L-445.574 -96.5022L-550.135 2.76099L-630.952 79.5903L-390.597 -349.385L-355.185 -412.584L-382.943 -386.089L-561.916 -215.256L-330.898 -628.118L-287.883 -704.994L-321.611 -672.659L-496.473 -505.029L-271.754 -907.121L-224.061 -992.458L-261.461 -956.482L-434.132 -790.381L-213.063 -1186.35L-163.103 -1275.83L-202.286 -1238.03L-374.43 -1071.97L-154.796 -1465.78L-104.781 -1555.46L-144.014 -1517.49L-317.514 -1349.58L-96.9521 -1745.42L-49.1364 -1831.24L-86.652 -1794.82L-263.235 -1623.41L-39.5754 -2025.3L3.58557 -2102.85L-30.2869 -2069.84L-212.188 -1892.59L-117.229 -2063.32L17.2908 -2305.42L53.033 -2369.74L24.9836 -2342.32L-164.366 -2157.15L73.5406 -2585.84L98.6482 -2631.08L78.9384 -2611.73L-28.1599 -2506.57L-121.19 -2414.98L-5.18884 -2624.39L128.904 -2866.7L138.588 -2884.2L130.995 -2876.73L-83.4852 -2665.75C-84.1564 -2665.09 -85.1716 -2663.44 -85.754 -2662.08C-86.325 -2660.73 -86.2664 -2660.16 -85.6311 -2660.76L115.548 -2851.28L-10.5657 -2627.02L-146.26 -2385.5L-164.349 -2353.3L-150.177 -2366.71L-45.858 -2465.41L39.1766 -2546.09L-206.934 -2107.24L-237.779 -2052.24L-213.596 -2075.29L-31.7313 -2248.61L-131.581 -2070.35L-266.851 -1828.62L-306.369 -1758L-275.399 -1787.62L-98.7577 -1956.6L-326.279 -1549.75L-372.031 -1467.94L-336.154 -1502.4L-162.634 -1669.05L-385.182 -1270.63L-434.308 -1182.68L-395.781 -1219.79L-223.584 -1385.69L-443.668 -991.299L-494.014 -901.083L-454.522 -939.25L-281.859 -1106.13L-501.709 -711.752L-550.87 -623.563L-512.304 -660.943L-337.472 -830.396L-559.331 -432.001L-605.126 -349.767L-569.191 -384.713L-390.224 -558.753L-616.453 -152.009L-656.273 -80.4167L-625.017 -110.939L-439.511 -292.084L-672.999 128.265L-703.735 183.599L-679.605 159.946L-572.643 55.1033L-484.994 -30.9241L-594.589 166.656L-728.827 408.892L-746.66 441.07L-732.658 427.263L-625.225 321.322L-524.854 222.06L-784.232 689.728C-784.83 690.803 -785.225 691.777 -785.302 692.295C-785.304 692.312 -785.306 692.329 -785.31 692.344C-785.312 692.361 -785.314 692.38 -785.316 692.397C-785.348 692.766 -785.174 692.819 -784.803 692.469L-583.624 501.95L-709.738 726.203L-845.432 967.727L-863.521 999.924L-849.349 986.516L-745.03 887.818L-659.995 807.131L-906.106 1245.98L-936.951 1300.99L-912.768 1277.94L-730.903 1104.61L-830.753 1282.88L-966.023 1524.61L-1005.54 1595.23L-974.571 1565.6L-797.93 1396.63L-1025.45 1803.48L-1071.2 1885.29L-1035.33 1850.83L-861.806 1684.18L-1084.35 2082.6L-1133.48 2170.55L-1094.95 2133.43L-922.756 1967.54L-1142.84 2361.93L-1193.19 2452.14L-1153.69 2413.98L-981.031 2247.1L-1200.88 2641.48L-1250.04 2729.66L-1211.48 2692.28L-1036.64 2522.83L-1258.5 2921.22L-1304.3 3003.46L-1268.36 2968.51L-1089.4 2794.47L-1315.63 3201.22L-1355.45 3272.81L-1324.19 3242.29L-1138.69 3061.14L-1372.18 3481.49L-1402.91 3536.83L-1378.78 3513.18L-1271.82 3408.33L-1184.17 3322.31L-1293.77 3519.89L-1428.01 3762.12L-1445.84 3794.3L-1431.84 3780.49L-1324.4 3674.55L-1224.03 3575.29L-1483.41 4042.96C-1484.25 4044.47 -1484.7 4045.79 -1484.41 4045.91C-1484.12 4046.02 -1483.23 4044.92 -1482.41 4043.45L-1211.28 3560.28L-1202.19 3544.07L-1202.18 3544.08Z"
            fill="black" />
    </g>
    <defs>
        <clipPath id="clip0_790_92859">
            <rect width="363" height="363" fill="white" transform="translate(0 -72)" />
        </clipPath>
    </defs>
</svg>
    