<svg width="186" height="218" viewBox="0 0 186 218" fill="none" xmlns="http://www.w3.org/2000/svg">
    <g filter="url(#filter0_d_790_87044)">
        <path
            d="M27.0059 84.3419C26.8927 84.2079 26.7916 84.0873 26.705 83.9839C26.7132 83.9153 26.7225 83.8401 26.7329 83.7583C26.7943 83.2762 26.8957 82.5698 27.0546 81.6873C27.3725 79.921 27.9192 77.4567 28.8319 74.6778C30.6633 69.1013 33.9354 62.3592 39.6922 57.4033C45.4455 52.4505 52.6081 50.2592 58.4066 49.3195C61.2961 48.8512 63.8202 48.698 65.6187 48.6619C66.5173 48.6439 67.2328 48.6551 67.72 48.6706C67.8082 48.6734 67.889 48.6763 67.9619 48.6793C68.0162 48.7395 68.0758 48.8059 68.14 48.8775C68.4563 49.2305 68.8808 49.7088 69.3153 50.2124C69.7516 50.7179 70.19 51.2397 70.5377 51.682C70.712 51.9037 70.8555 52.0953 70.9618 52.2487C71.0479 52.3731 71.0864 52.4398 71.0982 52.4603C71.103 52.4685 71.1034 52.4693 71.101 52.4635C72.4049 55.5581 71.979 59.9112 69.771 64.7703C67.5802 69.5918 63.7124 74.7229 58.48 79.2273C53.428 83.5764 48.0628 86.7268 43.1832 88.3833C38.2673 90.052 34.0356 90.1452 31.0861 88.6898C31.0878 88.6906 31.0866 88.6898 31.0824 88.687C31.0625 88.6738 30.9758 88.616 30.809 88.4725C30.6264 88.3153 30.4033 88.1041 30.1488 87.8484C29.641 87.3382 29.0532 86.6966 28.4882 86.0589C27.9255 85.4237 27.3957 84.8038 27.0059 84.3419Z"
            fill="url(#paint0_radial_790_87044)" stroke="url(#paint1_linear_790_87044)"
            stroke-width="2.5017" />
        <ellipse cx="47.1062" cy="66.1951" rx="27.9542" ry="11.8954"
            transform="rotate(-40.7243 47.1062 66.1951)" fill="url(#paint2_radial_790_87044)"
            stroke="url(#paint3_linear_790_87044)" stroke-width="2.5017" />
        <path
            d="M53.9404 58.5431C55.7623 56.1096 54.5181 55.3871 52.2797 55.2761L55.1045 51.8857L53.2196 51.9807L50.4693 55.2817C49.9738 55.3067 49.4584 55.3429 48.9461 55.3792L51.7149 52.0563L49.8313 52.1509L47.0066 55.5404C46.5909 55.57 46.1833 55.5985 45.7923 55.6184L45.8008 55.6079L43.2021 55.7376L41.3662 57.9417C41.3662 57.9417 42.7822 57.8427 42.7357 57.8719C43.4989 57.8338 43.343 58.3065 43.0664 58.7217L39.8485 62.584C39.9009 62.5817 39.9676 62.5806 40.0357 62.5884C39.9728 62.5916 39.906 62.5945 39.8364 62.5987L35.3277 68.0094C35.075 68.2742 34.5843 68.7007 34.0501 68.7286C34.0547 68.7508 32.6804 68.7971 32.6804 68.7971L30.2524 71.2805L32.7052 71.157C33.1611 71.1347 33.6032 71.1206 34.0415 71.1015L31.1853 74.5304L33.0677 74.4361L35.8945 71.0433C36.4017 71.0291 36.8982 71.0084 37.387 70.9833L34.5724 74.3605L36.4573 74.2655L39.3098 70.8426C42.6442 70.4842 45.5902 69.4986 48.5802 66.2267C50.9884 63.592 50.8367 62.4781 49.4321 62.0956C51.0324 61.4314 52.61 60.3236 53.9404 58.5431ZM45.1947 66.0076C43.0607 68.57 39.2964 68.4801 38.018 68.5456L41.8038 64.0024C43.0812 63.9385 47.4218 63.3349 45.1947 66.0076ZM49.6587 59.6419C47.7157 61.9732 44.6005 61.8692 43.5364 61.9228L46.9697 57.8024C48.0337 57.7488 51.6845 57.2102 49.6587 59.6419Z"
            fill="white" />
        <path
            d="M56.8701 127.421C84.0187 115.595 51.6412 107.876 51.6412 107.876L54.3968 107.628L53.718 105.476L56.4211 105.56L55.7949 103.076L58.2927 103.128L57.4879 100.956L59.6544 100.956L59.2334 98.5043C59.2334 98.5043 67.1891 97.7411 72.3502 107.25C77.5271 116.789 62.4254 126.579 56.8701 127.421Z"
            fill="url(#paint4_linear_790_87044)" stroke="url(#paint5_linear_790_87044)"
            stroke-width="2.10218" />
        <path
            d="M101.945 86.6934L44.829 126.204L71.8034 157.46L133.731 164.259L120.801 123.644L101.945 86.6934Z"
            fill="url(#paint6_linear_790_87044)" stroke="url(#paint7_linear_790_87044)"
            stroke-width="2.06176" />
        <path d="M168.526 86.3822L101.945 86.6931L118.728 139.412L166.628 108.907L168.526 86.3822Z"
            fill="url(#paint8_linear_790_87044)" stroke="url(#paint9_linear_790_87044)"
            stroke-width="2.06176" />
        <g opacity="0.2" filter="url(#filter1_f_790_87044)">
            <ellipse cx="50.7687" cy="35.6866" rx="50.7687" ry="35.6866"
                transform="matrix(-0.984104 0.177595 -0.123104 -0.992394 169.336 147.968)"
                fill="#FDF74B" />
        </g>
        <path d="M168.451 86.7025L121.006 123.727L136.761 173.218L167.763 138.021L168.451 86.7025Z"
            fill="url(#paint10_linear_790_87044)" stroke="url(#paint11_linear_790_87044)"
            stroke-width="2.06176" />
        <path
            d="M54.8127 119.245L54.8127 119.69C50.1785 121.154 47.6385 125.842 46.434 128.942L45.5195 128.942L45.5195 119.245L54.8127 119.245Z"
            fill="#FDF74B" />
        <path
            d="M45.5197 109.544L45.5197 119.246L36.2266 119.246L36.2266 118.796C40.8608 117.337 43.3962 112.649 44.6052 109.544L45.5197 109.544Z"
            fill="#FDF74B" />
        <path d="M44.6252 126.121L121.166 123.676L136.921 173.167L77.9759 166.023L44.6252 126.121Z"
            fill="url(#paint12_linear_790_87044)" stroke="url(#paint13_linear_790_87044)"
            stroke-width="2.06176" />
        <path d="M78.8652 124.334L104.042 169.204L114.512 170.45L95.8621 118.6L78.8652 124.334Z"
            fill="url(#paint14_linear_790_87044)" stroke="url(#paint15_linear_790_87044)"
            stroke-width="2.06176" />
        <path
            d="M96.6856 78.1226L97.7234 79.1471L99.228 78.4782L100.788 79.7443L102.305 78.8737L103.719 80.3176L105.132 79.4537L106.108 80.808L107.217 80.0631L107.952 81.1466L113.253 63.2789C114.474 60.4689 117.02 60.1155 118.842 60.2775L110.167 58.4868C110.167 58.4868 104.588 57.2164 102.641 57.5076C100.7 57.7947 99.8502 61.0626 99.8502 61.0626L95.0848 78.6264L96.69 78.1184L96.6856 78.1226Z"
            fill="url(#paint16_linear_790_87044)" stroke="url(#paint17_linear_790_87044)"
            stroke-width="1.69078" />
        <path
            d="M118.068 50.6421C118.068 50.6421 129.531 47.6256 140.407 40.6998C148.328 35.6549 145.774 34.2848 145.774 34.2848C145.774 34.2848 148.23 34.8837 149.509 35.2034C154.219 36.3675 157.692 40.2816 158.673 44.1206C159.023 45.4981 158.986 47.0147 158.686 48.5696C157.1 56.8927 148.82 62.6833 139.486 62.2867L124.756 61.6637L116.972 55.5912L118.068 50.6421Z"
            fill="url(#paint18_linear_790_87044)" stroke="url(#paint19_linear_790_87044)"
            stroke-width="1.69078" />
        <g style="mix-blend-mode:multiply" opacity="0.15">
            <path
                d="M157.024 40.5302C156.256 41.9735 155.432 43.3857 154.377 44.6691C151.205 48.5149 146.202 50.8488 141.032 51.9761C137.195 52.8266 133.21 53.0555 129.258 53.1431C127.588 53.1817 125.947 53.0703 124.355 53.5273C122.881 53.952 121.007 54.0814 119.736 54.9182C119.042 55.3742 118.553 56.1735 118.767 56.9382C118.776 56.9641 118.784 56.9858 118.792 57.0074L122.474 59.8809C124.243 60.7769 126.176 61.4051 128.153 61.8062L138.711 62.255C138.828 62.2442 138.949 62.2378 139.065 62.2313C142.166 61.9865 145.28 61.5356 148.262 60.7513C153.599 58.5351 157.631 54.116 158.687 48.5685C158.983 47.0134 159.024 45.4968 158.674 44.1192C158.365 42.9014 157.801 41.6747 157.024 40.5302Z"
                fill="#58238B" />
        </g>
        <path
            d="M149.51 35.1989C148.23 34.8834 145.775 34.2802 145.775 34.2802C145.775 34.2802 148.329 35.6461 140.407 40.6957C129.531 47.622 118.068 50.6387 118.068 50.6387L118.016 50.8785C124.226 50.2342 132.514 47.9424 138.732 45.2134C144.341 42.7528 150.622 39.6467 152.819 36.5612C151.808 35.9626 150.699 35.4955 149.51 35.1989Z"
            fill="url(#paint20_linear_790_87044)" stroke="url(#paint21_linear_790_87044)"
            stroke-width="1.69078" />
        <path
            d="M105.692 48.7268C105.692 48.7268 97.8116 40.3965 92.6947 29.0775C88.9702 20.831 91.9087 20.9744 91.9087 20.9744C91.9087 20.9744 89.4986 20.2388 88.2377 19.8593C83.6018 18.4559 78.4112 19.9911 75.3549 22.721C74.2587 23.6983 73.4153 24.9939 72.7587 26.452C69.2595 34.2456 72.8527 43.3021 80.9267 47.6859L93.6675 54.6083L103.738 53.4365L105.692 48.7225L105.692 48.7268Z"
            fill="url(#paint22_linear_790_87044)" stroke="url(#paint23_linear_790_87044)"
            stroke-width="1.69078" />
        <g style="mix-blend-mode:multiply" opacity="0.15">
            <path
                d="M78.8231 20.5401C78.6296 22.1441 78.5051 23.745 78.6479 25.3551C79.0803 30.1895 81.9299 34.6766 85.6202 38.2419C88.3528 40.8959 91.568 43.1031 94.8374 45.1736C96.2185 46.0496 97.6625 46.7849 98.7359 47.9777C99.729 49.0787 101.227 50.1373 101.806 51.4802C102.125 52.2123 102.069 53.1354 101.447 53.6657C101.429 53.6825 101.407 53.695 101.386 53.7118L96.6186 54.2661C94.6116 54.1223 92.6232 53.6738 90.7293 53.012L81.5965 48.0503C81.5028 47.9841 81.4092 47.918 81.3155 47.8518C78.8513 46.0795 76.4983 44.1243 74.4424 41.9596C71.2448 37.4018 70.424 31.6491 72.7582 26.452C73.4148 24.994 74.2581 23.7026 75.3544 22.721C76.3235 21.8531 77.5102 21.1095 78.8232 20.5359L78.8231 20.5401Z"
                fill="#5C2591" />
        </g>
        <path
            d="M88.2398 19.8617C89.5006 20.2413 91.9106 20.9768 91.9106 20.9768C91.9106 20.9768 88.9722 20.8334 92.6966 29.0796C97.8088 40.3982 105.693 48.7282 105.693 48.7282L105.598 48.9543C100.755 45.2737 95.1193 39.159 91.4766 33.7251C88.1949 28.822 84.7182 23.0387 84.666 19.333C85.8647 19.3417 87.0691 19.5053 88.2355 19.8617L88.2398 19.8617Z"
            fill="url(#paint24_linear_790_87044)" stroke="url(#paint25_linear_790_87044)"
            stroke-width="1.69078" />
        <path
            d="M103.97 52.1951C103.97 52.1951 105.086 43.7875 114.616 46.7543C121.417 48.8721 118.369 56.0927 118.369 56.0927L103.97 52.1951Z"
            fill="url(#paint26_linear_790_87044)" stroke="url(#paint27_linear_790_87044)"
            stroke-width="1.69078" />
        <path d="M58.0436 53.8974L67.816 66.1472L76.751 53.8077L64.8409 48.7435L58.0436 53.8974Z"
            fill="url(#paint28_linear_790_87044)" stroke="url(#paint29_linear_790_87044)"
            stroke-width="1.69078" />
        <path d="M72.9596 54.5686L67.8167 66.1485L149.083 84.835L144.757 65.3379L72.9596 54.5686Z"
            fill="url(#paint30_linear_790_87044)" stroke="url(#paint31_linear_790_87044)"
            stroke-width="1.69078" />
        <path d="M162.479 77.6918L149.085 84.836L144.24 67.5358L154.601 69.3659L162.479 77.6918Z"
            fill="url(#paint32_linear_790_87044)" stroke="url(#paint33_linear_790_87044)"
            stroke-width="1.69078" />
        <path d="M68.7528 43.5028L58.3518 53.9258L162.479 77.6916L154.839 60.4076L68.7528 43.5028Z"
            fill="url(#paint34_linear_790_87044)" stroke="url(#paint35_linear_790_87044)"
            stroke-width="1.69078" />
        <path
            d="M117.49 71.8359L127.712 73.9127L132.427 56.0258L117.717 52.9006C117.717 52.9006 113.839 65.3662 115.396 70.0788C115.686 70.9608 116.497 71.6331 117.49 71.8316L117.49 71.8359Z"
            fill="url(#paint36_linear_790_87044)" stroke="url(#paint37_linear_790_87044)"
            stroke-width="1.69078" />
        <path
            d="M137.276 60.0461L136.264 59.0006L134.853 59.8143L133.656 58.2766L132.322 59.411L131.365 57.8102C130.388 58.0916 129.84 58.2494 128.863 58.5308L127.922 57.1557L126.796 57.8744L126.092 56.7743L121.907 68.7962C120.609 71.579 118.394 71.745 116.573 71.5443C116.573 71.5443 130.414 75.045 132.368 74.8011C134.318 74.5572 135.253 71.308 135.253 71.308L138.893 59.5813L137.276 60.0504L137.276 60.0461Z"
            fill="url(#paint38_linear_790_87044)" stroke="url(#paint39_linear_790_87044)"
            stroke-width="1.69078" />
        <path
            d="M49.5295 187.144C49.2204 186.988 48.9658 186.858 48.7875 186.766C48.7473 186.668 48.6973 186.543 48.6393 186.394C48.4762 185.973 48.25 185.357 48.0016 184.582C47.5042 183.03 46.9198 180.85 46.5714 178.34C45.8702 173.288 46.1452 167.05 49.7968 161.872C53.4456 156.697 59.8546 153.53 65.4995 151.652C68.3041 150.719 70.877 150.118 72.7486 149.751C73.6834 149.568 74.4409 149.443 74.9619 149.365C75.1527 149.336 75.3117 149.314 75.4359 149.297C75.5739 149.363 75.7567 149.45 75.9721 149.553C76.4703 149.792 77.1419 150.117 77.8368 150.462C78.5331 150.808 79.2467 151.171 79.8312 151.485C80.4528 151.82 80.8309 152.05 80.9401 152.142C83.9039 154.628 85.148 158.453 84.7813 162.925C84.4148 167.394 82.4392 172.429 79.0867 177.183C72.5567 186.444 64.037 191.556 56.1041 190.133C55.8981 190.096 55.3441 189.896 54.5081 189.532C53.7198 189.19 52.7909 188.753 51.8972 188.319C51.0052 187.887 50.1561 187.462 49.5295 187.144Z"
            fill="url(#paint40_radial_790_87044)" stroke="url(#paint41_linear_790_87044)"
            stroke-width="1.94715" />
        <ellipse cx="23.932" cy="14.1153" rx="23.932" ry="14.1153"
            transform="matrix(0.57629 -0.817246 0.895297 0.44547 35.9023 181.168)"
            fill="url(#paint42_radial_790_87044)" stroke="url(#paint43_linear_790_87044)"
            stroke-width="1.94715" />
        <path
            d="M59.5665 154.005L67.6224 161.272C69.1036 162.609 68.1836 165.622 65.9356 166.701L50.9377 173.9C49.9587 174.37 49.1456 173.637 49.4758 172.581L54.529 156.411C55.2851 153.991 58.0853 152.669 59.5655 154.004L59.5665 154.005ZM53.9484 170.4L57.4693 168.535L65.5184 164.556C66.0387 164.306 66.2717 163.595 65.9108 163.269L62.6178 160.299L53.9483 170.402L53.9484 170.4ZM56.6607 156.564L53.8335 165.258L52.4794 169.074L61.149 158.971L57.856 156.001C57.4951 155.675 56.8363 156.003 56.6607 156.564Z"
            fill="white" />
        <g filter="url(#filter2_f_790_87044)">
            <circle cx="96.8333" cy="107.751" r="25.8173"
                transform="rotate(5.26932 96.8333 107.751)" fill="#FEF963" />
        </g>
        <path
            d="M135.053 106.971L135.222 105.146L133.532 104.437C114.376 96.4051 105.161 75.2307 101.037 60.8048L100.567 59.1604L98.8633 59.0038L90.6088 58.2447L88.9054 58.088L88.1415 59.619C81.4405 73.0493 68.4969 92.1862 48.1914 96.5891L46.3994 96.9776L46.2305 98.8032L45.8573 102.838L45.6886 104.662L47.3771 105.371C66.5334 113.422 75.7671 134.601 79.8734 149L80.3428 150.646L82.0474 150.803L90.3019 151.562L92.0066 151.718L92.77 150.186C99.4481 136.779 112.411 117.641 132.721 113.219L134.511 112.83L134.68 111.005L135.053 106.971Z"
            fill="url(#paint44_linear_790_87044)" stroke="url(#paint45_linear_790_87044)"
            stroke-width="5" />
        <path
            d="M132.377 108.758L132.192 110.759C110.525 115.431 97.0355 135.542 90.2791 149.049L86.1195 148.666L90.1699 104.877L132.377 108.758Z"
            fill="url(#paint46_linear_790_87044)" />
        <path
            d="M94.2206 61.0874L90.1702 104.877L48.5335 101.048L48.7215 99.0159C70.1003 94.3527 83.4178 74.2329 90.1172 60.71L94.2206 61.0874Z"
            fill="url(#paint47_linear_790_87044)" />
        <g filter="url(#filter3_f_790_87044)">
            <circle cx="105.596" cy="108.558" r="12.9086"
                transform="rotate(5.26932 105.596 108.558)" fill="white" />
        </g>
        <path
            d="M112.588 98.0409L112.634 97.543L112.136 97.4972L107.097 97.0338L106.771 97.0038L106.613 97.2907L102.518 104.725L103.022 97.1482L103.054 96.6621L102.569 96.6174L97.6184 96.1622L97.3041 96.1333L97.1427 96.4047L87.1175 113.26L86.7126 113.941L87.5012 114.013L92.6129 114.483L92.9367 114.513L93.0954 114.229L97.1654 106.947L96.6935 114.371L96.6627 114.855L97.1465 114.9L102.108 115.356L102.437 115.386L102.594 115.095L106.304 108.207L105.658 115.189L105.612 115.687L106.11 115.732L110.413 116.128L110.911 116.174L110.957 115.676L112.588 98.0409Z"
            fill="url(#paint48_linear_790_87044)" stroke="url(#paint49_linear_790_87044)" />
        <path
            d="M74.0439 101.542L74.6901 94.5555L74.7362 94.0577L74.2383 94.0119L69.9289 93.6156L69.431 93.5698L69.3849 94.0677L67.7537 111.703L67.7077 112.201L68.2056 112.246L73.2528 112.71L73.5786 112.74L73.7367 112.454L77.8391 105.019L77.3352 112.597L77.3029 113.083L77.7881 113.128L82.7464 113.583L83.0605 113.612L83.222 113.341L89.207 103.294L89.6127 102.613L88.8235 102.541L86.4819 102.325L93.5103 96.6544L94.4697 95.8803L93.2425 95.7675L87.7572 95.2631L87.4335 95.2333L87.2748 95.517L83.1971 102.805L83.668 95.3746L83.6987 94.8899L83.215 94.8454L78.2472 94.3886L77.918 94.3583L77.761 94.6493L74.0439 101.542Z"
            fill="url(#paint50_linear_790_87044)" stroke="url(#paint51_linear_790_87044)" />
        <path
            d="M173.957 78.5564V79.1093C168.197 80.9282 165.04 86.7548 163.543 90.6081H162.406V78.5564H173.957Z"
            fill="#FDF74B" />
        <path
            d="M162.406 66.4988V78.5563H150.855V77.9976C156.615 76.1845 159.766 70.3578 161.269 66.4988H162.406Z"
            fill="#FDF74B" />
        <path
            d="M127.352 176.272V177.051C119.235 179.614 114.787 187.825 112.678 193.254H111.076V176.272H127.352Z"
            fill="#FDF74B" />
        <path
            d="M111.076 159.282V176.272H94.8008V175.485C102.917 172.93 107.357 164.72 109.475 159.282H111.076Z"
            fill="#FDF74B" />
        <path
            d="M156.545 151.428C154.611 143.849 146.162 117.192 147.895 106.8L150.666 109.554C151.909 110.93 152.724 111.98 152.724 111.98L153.233 109.947L154.758 110.709L155.012 108.676L156.791 109.439L157.045 107.563L158.57 108.422L158.824 106.8L160.603 107.405C160.603 107.405 160.438 103.304 153.952 98.3167C147.775 93.5672 140.789 100.881 139.003 105.107C138.916 105.306 138.836 105.521 138.762 105.755C136.126 114.127 135.866 113.261 147.691 163.379L156.545 151.428Z"
            fill="url(#paint52_linear_790_87044)" />
        <path
            d="M152.724 111.98C152.724 111.98 141.399 97.3836 138.762 105.755M152.724 111.98L151.453 110.337L147.895 106.8C146.162 117.192 154.611 143.849 156.545 151.428L147.691 163.379C135.866 113.261 136.126 114.127 138.762 105.755M152.724 111.98L153.233 109.947L154.758 110.709L155.012 108.676L156.791 109.439L157.045 107.563L158.57 108.422L158.824 106.8L160.603 107.405C160.603 107.405 160.438 103.304 153.952 98.3167C147.445 93.3136 140.04 101.696 138.762 105.755"
            stroke="url(#paint53_linear_790_87044)" stroke-width="2.10218" />
        <path
            d="M148.268 133.325C148.421 133.266 148.56 133.213 148.68 133.167C148.738 133.19 148.801 133.216 148.868 133.244C149.334 133.436 150.013 133.727 150.854 134.12C152.536 134.907 154.858 136.097 157.399 137.704C162.5 140.93 168.384 145.769 171.846 152.312C175.305 158.851 175.653 165.869 175.099 171.323C174.824 174.04 174.327 176.34 173.901 177.959C173.687 178.767 173.492 179.404 173.352 179.834C173.331 179.897 173.312 179.954 173.294 180.008C173.175 180.056 173.037 180.111 172.885 180.171C172.326 180.394 171.571 180.691 170.789 180.991C170.004 181.291 169.2 181.589 168.54 181.816C168.209 181.929 167.926 182.021 167.705 182.085C167.543 182.132 167.454 182.152 167.42 182.159C167.401 182.164 167.4 182.164 167.415 182.162C164.056 182.442 160.183 180.775 156.225 177.324C152.295 173.897 148.473 168.867 145.298 162.866C142.253 157.111 140.488 151.421 140.09 146.594C139.688 141.731 140.683 137.939 142.883 135.729C142.879 135.732 142.881 135.731 142.887 135.726C142.908 135.711 142.987 135.652 143.161 135.551C143.364 135.433 143.631 135.294 143.952 135.139C144.592 134.831 145.385 134.487 146.169 134.163C146.949 133.84 147.706 133.543 148.268 133.325Z"
            fill="url(#paint54_radial_790_87044)" stroke="url(#paint55_linear_790_87044)"
            stroke-width="2.64482" />
        <ellipse cx="27.3553" cy="11.863" rx="27.3553" ry="11.863"
            transform="matrix(0.467655 0.883911 -0.929264 0.369416 159.434 127.857)"
            fill="url(#paint56_radial_790_87044)" stroke="url(#paint57_linear_790_87044)"
            stroke-width="2.64482" />
        <path fill-rule="evenodd" clip-rule="evenodd"
            d="M159.76 153.971L159.759 153.969C159.706 154.061 159.427 154.529 158.758 155.5C158.224 156.276 157.829 156.793 157.689 156.974L157.691 156.977C155.529 159.8 153.573 161.387 153.07 160.62C152.567 159.854 153.681 156.984 155.629 153.834L157.272 156.338C157.418 156.16 157.83 155.642 158.362 154.87C159 153.943 159.289 153.431 159.342 153.335L157.699 150.831C159.858 148.016 161.81 146.434 162.313 147.199C162.816 147.966 161.705 150.829 159.76 153.971ZM157.528 150.571L156.057 148.329L158.92 144.172L156.677 140.755L148.882 152.074L151.125 155.491L153.988 151.334L155.458 153.574C153.257 157.144 152.049 160.511 152.698 161.5C153.347 162.489 155.639 160.773 158.092 157.587L162.806 164.769L164.875 161.764L160.16 154.58C162.357 151.016 163.562 147.656 162.913 146.668C162.265 145.68 159.977 147.39 157.528 150.571Z"
            fill="white" />
    </g>
    <defs>
        <filter id="filter1_f_790_87044" x="17.9716" y="38.1625" width="194.02" height="166.812"
            filterUnits="userSpaceOnUse" color-interpolation-filters="sRGB">
            <feFlood flood-opacity="0" result="BackgroundImageFix" />
            <feBlend mode="normal" in="SourceGraphic" in2="BackgroundImageFix" result="shape" />
            <feGaussianBlur stdDeviation="23.4263" result="effect1_foregroundBlur_790_87044" />
        </filter>
        <filter id="filter2_f_790_87044" x="1.01367" y="11.9316" width="191.639" height="191.638"
            filterUnits="userSpaceOnUse" color-interpolation-filters="sRGB">
            <feFlood flood-opacity="0" result="BackgroundImageFix" />
            <feBlend mode="normal" in="SourceGraphic" in2="BackgroundImageFix" result="shape" />
            <feGaussianBlur stdDeviation="35" result="effect1_foregroundBlur_790_87044" />
        </filter>
        <filter id="filter3_f_790_87044" x="22.6875" y="25.649" width="165.818" height="165.819"
            filterUnits="userSpaceOnUse" color-interpolation-filters="sRGB">
            <feFlood flood-opacity="0" result="BackgroundImageFix" />
            <feBlend mode="normal" in="SourceGraphic" in2="BackgroundImageFix" result="shape" />
            <feGaussianBlur stdDeviation="35" result="effect1_foregroundBlur_790_87044" />
        </filter>
        <radialGradient id="paint0_radial_790_87044" cx="0" cy="0" r="1"
            gradientUnits="userSpaceOnUse"
            gradientTransform="translate(49.0152 68.3764) rotate(139.276) scale(51.5458 20.9715)">
            <stop stop-color="#46484E" />
            <stop offset="1" />
        </radialGradient>
        <linearGradient id="paint1_linear_790_87044" x1="55.8485" y1="32.6519" x2="80.9376"
            y2="90.3566" gradientUnits="userSpaceOnUse">
            <stop />
            <stop offset="0.470537" stop-color="#787A80" />
            <stop offset="1" />
        </linearGradient>
        <radialGradient id="paint2_radial_790_87044" cx="0" cy="0" r="1"
            gradientUnits="userSpaceOnUse"
            gradientTransform="translate(47.0404 66.1951) rotate(-180) scale(50.7025 15.9409)">
            <stop stop-color="#46484E" />
            <stop offset="1" />
        </radialGradient>
        <linearGradient id="paint3_linear_790_87044" x1="75.0604" y1="49.0044" x2="63.7142"
            y2="96.3611" gradientUnits="userSpaceOnUse">
            <stop />
            <stop offset="0.470537" stop-color="#787A80" />
            <stop offset="1" />
        </linearGradient>
        <linearGradient id="paint4_linear_790_87044" x1="32.227" y1="123.117" x2="36.4928"
            y2="72.6963" gradientUnits="userSpaceOnUse">
            <stop stop-color="#0B0B0B" />
            <stop offset="1" stop-color="#32343A" />
        </linearGradient>
        <linearGradient id="paint5_linear_790_87044" x1="92.1088" y1="139.484" x2="60.8954"
            y2="39.8231" gradientUnits="userSpaceOnUse">
            <stop />
            <stop offset="0.470537" stop-color="#787A80" />
            <stop offset="1" />
        </linearGradient>
        <linearGradient id="paint6_linear_790_87044" x1="118.42" y1="120.313" x2="39.6159"
            y2="188.991" gradientUnits="userSpaceOnUse">
            <stop />
            <stop offset="1" stop-color="#32343A" />
        </linearGradient>
        <linearGradient id="paint7_linear_790_87044" x1="102.745" y1="66.9221" x2="64.2588"
            y2="209.754" gradientUnits="userSpaceOnUse">
            <stop />
            <stop offset="0.470537" stop-color="#787A80" />
            <stop offset="1" />
        </linearGradient>
        <linearGradient id="paint8_linear_790_87044" x1="168.886" y1="91.1177" x2="110.499"
            y2="154.279" gradientUnits="userSpaceOnUse">
            <stop />
            <stop offset="1" stop-color="#32343A" />
        </linearGradient>
        <linearGradient id="paint9_linear_790_87044" x1="158.754" y1="55.6855" x2="143.373"
            y2="159.107" gradientUnits="userSpaceOnUse">
            <stop />
            <stop offset="0.470537" stop-color="#787A80" />
            <stop offset="1" />
        </linearGradient>
        <linearGradient id="paint10_linear_790_87044" x1="177.317" y1="117.755" x2="113.218"
            y2="168.972" gradientUnits="userSpaceOnUse">
            <stop />
            <stop offset="1" stop-color="#32343A" />
        </linearGradient>
        <linearGradient id="paint11_linear_790_87044" x1="163.534" y1="71.2566" x2="124.512"
            y2="188.97" gradientUnits="userSpaceOnUse">
            <stop />
            <stop offset="0.470537" stop-color="#787A80" />
            <stop offset="1" />
        </linearGradient>
        <linearGradient id="paint12_linear_790_87044" x1="55.6248" y1="156.494" x2="156.965"
            y2="172.397" gradientUnits="userSpaceOnUse">
            <stop />
            <stop offset="1" stop-color="#32343A" />
        </linearGradient>
        <linearGradient id="paint13_linear_790_87044" x1="39.7081" y1="110.675" x2="137.275"
            y2="202.438" gradientUnits="userSpaceOnUse">
            <stop />
            <stop offset="0.470537" stop-color="#787A80" />
            <stop offset="1" />
        </linearGradient>
        <linearGradient id="paint14_linear_790_87044" x1="111.57" y1="141.795" x2="69.9357"
            y2="153.09" gradientUnits="userSpaceOnUse">
            <stop stop-color="#141414" />
            <stop offset="1" stop-color="#32343A" />
        </linearGradient>
        <linearGradient id="paint15_linear_790_87044" x1="112.064" y1="106.953" x2="57.0102"
            y2="160.602" gradientUnits="userSpaceOnUse">
            <stop />
            <stop offset="0.470537" stop-color="#787A80" />
            <stop offset="1" />
        </linearGradient>
        <linearGradient id="paint16_linear_790_87044" x1="118.293" y1="68.1948" x2="88.6517"
            y2="82.0712" gradientUnits="userSpaceOnUse">
            <stop />
            <stop offset="1" stop-color="#32343A" />
        </linearGradient>
        <linearGradient id="paint17_linear_790_87044" x1="118.985" y1="52.4942" x2="96.9851"
            y2="89.6737" gradientUnits="userSpaceOnUse">
            <stop />
            <stop offset="0.470537" stop-color="#787A80" />
            <stop offset="1" />
        </linearGradient>
        <linearGradient id="paint18_linear_790_87044" x1="158.192" y1="46.9738" x2="115.385"
            y2="77.2291" gradientUnits="userSpaceOnUse">
            <stop />
            <stop offset="1" stop-color="#32343A" />
        </linearGradient>
        <linearGradient id="paint19_linear_790_87044" x1="159.257" y1="28.2692" x2="138.708"
            y2="79.6613" gradientUnits="userSpaceOnUse">
            <stop />
            <stop offset="0.470537" stop-color="#787A80" />
            <stop offset="1" />
        </linearGradient>
        <linearGradient id="paint20_linear_790_87044" x1="152.124" y1="41.9743" x2="124.717"
            y2="68.363" gradientUnits="userSpaceOnUse">
            <stop />
            <stop offset="1" stop-color="#32343A" />
        </linearGradient>
        <linearGradient id="paint21_linear_790_87044" x1="152.929" y1="30.6034" x2="143.016"
            y2="63.8247" gradientUnits="userSpaceOnUse">
            <stop />
            <stop offset="0.470537" stop-color="#787A80" />
            <stop offset="1" />
        </linearGradient>
        <linearGradient id="paint22_linear_790_87044" x1="105.346" y1="35.2678" x2="61.4551"
            y2="55.6425" gradientUnits="userSpaceOnUse">
            <stop />
            <stop offset="1" stop-color="#32343A" />
        </linearGradient>
        <linearGradient id="paint23_linear_790_87044" x1="106.373" y1="11.9056" x2="73.5111"
            y2="67.0124" gradientUnits="userSpaceOnUse">
            <stop />
            <stop offset="0.470537" stop-color="#787A80" />
            <stop offset="1" />
        </linearGradient>
        <linearGradient id="paint24_linear_790_87044" x1="105.619" y1="32.6726" x2="75.7873"
            y2="42.934" gradientUnits="userSpaceOnUse">
            <stop />
            <stop offset="1" stop-color="#32343A" />
        </linearGradient>
        <linearGradient id="paint25_linear_790_87044" x1="106.35" y1="13.2151" x2="75.9577"
            y2="51.5602" gradientUnits="userSpaceOnUse">
            <stop />
            <stop offset="0.470537" stop-color="#787A80" />
            <stop offset="1" />
        </linearGradient>
        <linearGradient id="paint26_linear_790_87044" x1="118.827" y1="50.6237" x2="103.711"
            y2="61.6572" gradientUnits="userSpaceOnUse">
            <stop />
            <stop offset="1" stop-color="#32343A" />
        </linearGradient>
        <linearGradient id="paint27_linear_790_87044" x1="119.207" y1="44.0805" x2="112.178"
            y2="62.2012" gradientUnits="userSpaceOnUse">
            <stop />
            <stop offset="0.470537" stop-color="#787A80" />
            <stop offset="1" />
        </linearGradient>
        <linearGradient id="paint28_linear_790_87044" x1="76.3769" y1="56.643" x2="53.4849"
            y2="68.3134" gradientUnits="userSpaceOnUse">
            <stop />
            <stop offset="1" stop-color="#32343A" />
        </linearGradient>
        <linearGradient id="paint29_linear_790_87044" x1="76.911" y1="45.1012" x2="61.408"
            y2="73.5139" gradientUnits="userSpaceOnUse">
            <stop />
            <stop offset="0.470537" stop-color="#787A80" />
            <stop offset="1" />
        </linearGradient>
        <linearGradient id="paint30_linear_790_87044" x1="147.974" y1="68.7338" x2="103.85"
            y2="128.065" gradientUnits="userSpaceOnUse">
            <stop />
            <stop offset="1" stop-color="#32343A" />
        </linearGradient>
        <linearGradient id="paint31_linear_790_87044" x1="149.732" y1="49.5353" x2="137.021"
            y2="107.778" gradientUnits="userSpaceOnUse">
            <stop />
            <stop offset="0.470537" stop-color="#787A80" />
            <stop offset="1" />
        </linearGradient>
        <linearGradient id="paint32_linear_790_87044" x1="162.202" y1="75.4912" x2="139.584"
            y2="86.9379" gradientUnits="userSpaceOnUse">
            <stop />
            <stop offset="1" stop-color="#32343A" />
        </linearGradient>
        <linearGradient id="paint33_linear_790_87044" x1="162.73" y1="64.0408" x2="147.291"
            y2="92.1398" gradientUnits="userSpaceOnUse">
            <stop />
            <stop offset="0.470537" stop-color="#787A80" />
            <stop offset="1" />
        </linearGradient>
        <linearGradient id="paint34_linear_790_87044" x1="161.013" y1="59.5782" x2="113.616"
            y2="132.05" gradientUnits="userSpaceOnUse">
            <stop />
            <stop offset="1" stop-color="#32343A" />
        </linearGradient>
        <linearGradient id="paint35_linear_790_87044" x1="163.209" y1="37.9892" x2="150.402"
            y2="104.104" gradientUnits="userSpaceOnUse">
            <stop />
            <stop offset="0.470537" stop-color="#787A80" />
            <stop offset="1" />
        </linearGradient>
        <linearGradient id="paint36_linear_790_87044" x1="132.014" y1="62.3931" x2="108.899"
            y2="71.3389" gradientUnits="userSpaceOnUse">
            <stop />
            <stop offset="1" stop-color="#32343A" />
        </linearGradient>
        <linearGradient id="paint37_linear_790_87044" x1="132.565" y1="48.534" x2="111.616"
            y2="78.0816" gradientUnits="userSpaceOnUse">
            <stop />
            <stop offset="0.470537" stop-color="#787A80" />
            <stop offset="1" />
        </linearGradient>
        <linearGradient id="paint38_linear_790_87044" x1="138.414" y1="64.9453" x2="113.054"
            y2="79.7719" gradientUnits="userSpaceOnUse">
            <stop />
            <stop offset="1" stop-color="#32343A" />
        </linearGradient>
        <linearGradient id="paint39_linear_790_87044" x1="139.014" y1="53.0183" x2="124.186"
            y2="83.9745" gradientUnits="userSpaceOnUse">
            <stop />
            <stop offset="0.470537" stop-color="#787A80" />
            <stop offset="1" />
        </linearGradient>
        <radialGradient id="paint40_radial_790_87044" cx="0" cy="0" r="1"
            gradientUnits="userSpaceOnUse"
            gradientTransform="translate(65.0938 169.57) rotate(125.19) scale(43.4729 23.9878)">
            <stop stop-color="#46484E" />
            <stop offset="1" />
        </radialGradient>
        <linearGradient id="paint41_linear_790_87044" x1="55.507" y1="138.277" x2="91.6086"
            y2="193.325" gradientUnits="userSpaceOnUse">
            <stop />
            <stop offset="0.470537" stop-color="#787A80" />
            <stop offset="1" />
        </linearGradient>
        <radialGradient id="paint42_radial_790_87044" cx="0" cy="0" r="1"
            gradientUnits="userSpaceOnUse"
            gradientTransform="translate(23.8756 14.1153) rotate(-180) scale(43.4073 18.9157)">
            <stop stop-color="#46484E" />
            <stop offset="1" />
        </radialGradient>
        <linearGradient id="paint43_linear_790_87044" x1="47.8641" y1="-6.28357" x2="30.0916"
            y2="47.2345" gradientUnits="userSpaceOnUse">
            <stop />
            <stop offset="0.470537" stop-color="#787A80" />
            <stop offset="1" />
        </linearGradient>
        <linearGradient id="paint44_linear_790_87044" x1="94.5058" y1="61.1136" x2="126.444"
            y2="171.081" gradientUnits="userSpaceOnUse">
            <stop stop-color="#FDF74B" />
            <stop offset="1" stop-color="#A09B05" />
        </linearGradient>
        <linearGradient id="paint45_linear_790_87044" x1="125.884" y1="57.6902" x2="55.4637"
            y2="140.867" gradientUnits="userSpaceOnUse">
            <stop stop-color="#F7F147" />
            <stop offset="1" stop-color="#C4BF21" />
        </linearGradient>
        <linearGradient id="paint46_linear_790_87044" x1="111.273" y1="106.817" x2="107.246"
            y2="150.609" gradientUnits="userSpaceOnUse">
            <stop stop-color="#FAF449" />
            <stop offset="1" stop-color="#FFFB73" />
        </linearGradient>
        <linearGradient id="paint47_linear_790_87044" x1="73.4023" y1="59.173" x2="69.3753"
            y2="102.965" gradientUnits="userSpaceOnUse">
            <stop stop-color="#FAF449" />
            <stop offset="1" stop-color="#FFFB73" />
        </linearGradient>
        <linearGradient id="paint48_linear_790_87044" x1="93.3373" y1="50.9189" x2="125.001"
            y2="84.1715" gradientUnits="userSpaceOnUse">
            <stop stop-color="#FEFA76" />
            <stop offset="1" stop-color="#151823" />
        </linearGradient>
        <linearGradient id="paint49_linear_790_87044" x1="111.924" y1="77.0824" x2="75.8156"
            y2="92.071" gradientUnits="userSpaceOnUse">
            <stop stop-color="#FDF96F" />
            <stop offset="1" stop-color="#BFBB48" />
        </linearGradient>
        <linearGradient id="paint50_linear_790_87044" x1="74.0424" y1="49.1442" x2="105.727"
            y2="82.9985" gradientUnits="userSpaceOnUse">
            <stop stop-color="#FEFA76" />
            <stop offset="1" stop-color="#151823" />
        </linearGradient>
        <linearGradient id="paint51_linear_790_87044" x1="92.9943" y1="75.3414" x2="56.504"
            y2="90.7983" gradientUnits="userSpaceOnUse">
            <stop stop-color="#FDF96F" />
            <stop offset="1" stop-color="#BFBB48" />
        </linearGradient>
        <linearGradient id="paint52_linear_790_87044" x1="139.083" y1="124.711" x2="177.188"
            y2="127.428" gradientUnits="userSpaceOnUse">
            <stop stop-color="#0B0B0B" />
            <stop offset="1" stop-color="#32343A" />
        </linearGradient>
        <linearGradient id="paint53_linear_790_87044" x1="133.896" y1="77.9509" x2="204.684"
            y2="112.847" gradientUnits="userSpaceOnUse">
            <stop />
            <stop offset="0.470537" stop-color="#787A80" />
            <stop offset="1" />
        </linearGradient>
        <radialGradient id="paint54_radial_790_87044" cx="0" cy="0" r="1"
            gradientUnits="userSpaceOnUse"
            gradientTransform="translate(158.529 157.508) rotate(-117.882) scale(50.4415 20.792)">
            <stop stop-color="#46484E" />
            <stop offset="1" />
        </radialGradient>
        <linearGradient id="paint55_linear_790_87044" x1="192.524" y1="173.816" x2="129.168"
            y2="184.835" gradientUnits="userSpaceOnUse">
            <stop />
            <stop offset="0.470537" stop-color="#787A80" />
            <stop offset="1" />
        </linearGradient>
        <radialGradient id="paint56_radial_790_87044" cx="0" cy="0" r="1"
            gradientUnits="userSpaceOnUse"
            gradientTransform="translate(27.2909 11.863) rotate(-180) scale(49.6164 15.8975)">
            <stop stop-color="#46484E" />
            <stop offset="1" />
        </radialGradient>
        <linearGradient id="paint57_linear_790_87044" x1="54.7107" y1="-5.28097" x2="43.2032"
            y2="41.8482" gradientUnits="userSpaceOnUse">
            <stop />
            <stop offset="0.470537" stop-color="#787A80" />
            <stop offset="1" />
        </linearGradient>
    </defs>
</svg>
    