<svg width="380" height="221" viewBox="0 0 380 221" fill="none" xmlns="http://www.w3.org/2000/svg">
<g clip-path="url(#clip0_790_92802)">
<rect width="380" height="221" rx="20" fill="url(#paint0_linear_790_92802)"/>
<g opacity="0.3" filter="url(#filter0_f_790_92802)">
<ellipse cx="-217.5" cy="120" rx="293.5" ry="206" transform="rotate(180 -217.5 120)" fill="#91E2FD"/>
</g>
<g opacity="0.5" filter="url(#filter1_f_790_92802)">
<ellipse cx="443" cy="225" rx="242" ry="170" transform="rotate(180 443 225)" fill="#91E2FD"/>
</g>
<path d="M152.842 318.549L203.413 201.892H209.364L174.992 280.364H199.482L156.168 326.152L152.842 318.549Z" fill="#91E2FD"/>
<path d="M152.428 421.043L247.316 320.736H201.106L265.982 172.639H254.764L147.002 421.16L152.428 421.043Z" fill="#91E2FD"/>
<path d="M22.7091 234.559L136.502 189.864L140.719 194.322L63.9075 224.113L81.2366 242.415H19.9722L22.7091 234.559Z" fill="#91E2FD"/>
<path d="M9.32662 241.607L0.638184 266.335L4.83919 270.793L14.6892 242.415L16.5829 236.965L33.0208 189.595L50.3339 207.897V132.738L48.3448 130.534L10.0586 239.521L9.32662 241.607Z" fill="#91E2FD"/>
<path d="M-46.1467 306.723H88.0461L55.3771 272.172L200.327 215.954L192.387 207.56L-50.0454 302.753L-46.1467 306.723Z" fill="#91E2FD"/>
<path d="M-13.1287 77.8832L97.2427 131.359V137.65L22.9934 101.299V127.187L-20.3213 81.3989L-13.1287 77.8832Z" fill="#91E2FD"/>
<path d="M-27.3068 72.8703L-49.9985 83.8715V90.1628L-24.0447 77.4625L-19.064 75.0066L24.2508 53.8114V79.6998L74.5193 26.5437L74.5831 23.4989L-25.3813 71.9451L-27.3068 72.8703Z" fill="#91E2FD"/>
<path d="M-110.069 77.4457L-15.1811 177.769V128.92L124.915 197.501V185.625L-110.181 71.7265L-110.069 77.4457Z" fill="#91E2FD"/>
<path d="M66.3415 -59.6666L108.606 60.6243L104.405 65.0652L76.2233 -16.1157L58.9102 2.1862V-62.56L66.3415 -59.6666Z" fill="#91E2FD"/>
<path d="M-1.9248 -132.454V9.40265L30.7442 -25.132L83.9409 128.079L91.8813 119.685L1.8306 -136.592L-1.9248 -132.454Z" fill="#91E2FD"/>
<path d="M214.535 -97.5488L163.965 19.1086H158.013L192.401 -59.3639H167.911L211.21 -105.152L214.535 -97.5488Z" fill="#91E2FD"/>
<path d="M214.949 -200.043L120.061 -99.7357H166.272L101.396 48.3781H112.614L220.376 -200.16L214.949 -200.043Z" fill="#91E2FD"/>
<path d="M344.672 -13.5588L230.879 31.1361L226.663 26.6952L303.474 -3.11257L286.161 -21.4144H347.409L344.672 -13.5588Z" fill="#91E2FD"/>
<path d="M358.055 -20.607L366.744 -45.3347L362.543 -49.7924L352.693 -21.4144L350.799 -15.9643L334.361 31.4052L317.048 13.1034V88.2621L319.037 90.4658L357.323 -18.5212L358.055 -20.607Z" fill="#91E2FD"/>
<path d="M413.528 -85.7233H279.335L312.004 -51.1718L167.054 5.04582L174.994 13.4398L417.426 -81.7534L413.528 -85.7233Z" fill="#91E2FD"/>
<path d="M380.507 143.117L270.135 89.6582V83.367L344.385 119.701V93.8132L387.699 139.601L380.507 143.117Z" fill="#91E2FD"/>
<path d="M394.686 148.13L417.378 137.146V130.854L391.424 143.555L386.443 145.994L343.129 167.189V141.317L292.86 194.457L292.796 197.501L392.761 149.055L394.686 148.13Z" fill="#91E2FD"/>
<path d="M477.448 143.554L382.56 43.2475V92.0804L242.463 23.4989V35.375L477.559 149.274L477.448 143.554Z" fill="#91E2FD"/>
<path d="M301.039 280.684L258.774 160.376L262.975 155.935L291.157 237.116L308.47 218.814V283.577L301.039 280.684Z" fill="#91E2FD"/>
<path d="M369.306 353.454V211.598L336.637 246.132L283.44 92.9217L275.5 101.316L365.55 357.592L369.306 353.454Z" fill="#91E2FD"/>
<g filter="url(#filter2_d_790_92802)">
<path d="M73.5 106.24H84.84C94.5933 106.24 101.477 107.43 105.49 109.81C109.503 112.19 111.51 116.227 111.51 121.92C111.51 127.847 109.153 132.35 104.44 135.43C99.7267 138.51 92.0267 140.05 81.34 140.05C70.6533 140.05 62.9067 138.37 58.1 135.01C53.2933 131.603 51.2167 126.213 51.87 118.84H72.73C72.6833 121.173 73.15 122.853 74.13 123.88C75.11 124.907 77.3967 125.42 80.99 125.42C84.4433 125.42 86.8233 125 88.13 124.16C89.4833 123.32 90.16 121.99 90.16 120.17C90.16 118.443 89.53 117.16 88.27 116.32C87.01 115.48 84.6533 115.06 81.2 115.06H57.05V90.7H106.96V104.07H73.5V106.24ZM147.042 104.28C143.075 104.28 140.438 104.91 139.132 106.17C137.872 107.43 137.242 110.347 137.242 114.92C137.242 119.307 137.872 122.153 139.132 123.46C140.438 124.767 143.075 125.42 147.042 125.42C151.008 125.42 153.622 124.79 154.882 123.53C156.188 122.223 156.842 119.353 156.842 114.92C156.842 110.347 156.212 107.43 154.952 106.17C153.692 104.91 151.055 104.28 147.042 104.28ZM161.182 138.86C157.448 139.653 152.735 140.05 147.042 140.05C141.348 140.05 136.635 139.653 132.902 138.86C129.168 138.067 125.995 136.713 123.382 134.8C120.815 132.887 118.972 130.32 117.852 127.1C116.732 123.88 116.172 119.82 116.172 114.92C116.172 109.88 116.778 105.727 117.992 102.46C119.205 99.1467 121.142 96.5567 123.802 94.69C126.508 92.8233 129.682 91.5167 133.322 90.77C137.008 90.0233 141.582 89.65 147.042 89.65C152.548 89.65 157.122 90.0233 160.762 90.77C164.448 91.5167 167.622 92.8233 170.282 94.69C172.942 96.5567 174.878 99.1467 176.092 102.46C177.305 105.727 177.912 109.88 177.912 114.92C177.912 119.82 177.352 123.88 176.232 127.1C175.112 130.32 173.245 132.887 170.632 134.8C168.065 136.713 164.915 138.067 161.182 138.86ZM212.393 104.28C208.426 104.28 205.79 104.91 204.483 106.17C203.223 107.43 202.593 110.347 202.593 114.92C202.593 119.307 203.223 122.153 204.483 123.46C205.79 124.767 208.426 125.42 212.393 125.42C216.36 125.42 218.973 124.79 220.233 123.53C221.54 122.223 222.193 119.353 222.193 114.92C222.193 110.347 221.563 107.43 220.303 106.17C219.043 104.91 216.406 104.28 212.393 104.28ZM226.533 138.86C222.8 139.653 218.086 140.05 212.393 140.05C206.7 140.05 201.986 139.653 198.253 138.86C194.52 138.067 191.346 136.713 188.733 134.8C186.166 132.887 184.323 130.32 183.203 127.1C182.083 123.88 181.523 119.82 181.523 114.92C181.523 109.88 182.13 105.727 183.343 102.46C184.556 99.1467 186.493 96.5567 189.153 94.69C191.86 92.8233 195.033 91.5167 198.673 90.77C202.36 90.0233 206.933 89.65 212.393 89.65C217.9 89.65 222.473 90.0233 226.113 90.77C229.8 91.5167 232.973 92.8233 235.633 94.69C238.293 96.5567 240.23 99.1467 241.443 102.46C242.656 105.727 243.263 109.88 243.263 114.92C243.263 119.82 242.703 123.88 241.583 127.1C240.463 130.32 238.596 132.887 235.983 134.8C233.416 136.713 230.266 138.067 226.533 138.86ZM261.995 139L301.195 90.7H311.695L272.705 139H261.995ZM267.875 99.03C267.361 98.33 266.311 97.98 264.725 97.98C263.138 97.98 262.065 98.33 261.505 99.03C260.945 99.6833 260.665 101.037 260.665 103.09C260.665 105.05 260.945 106.357 261.505 107.01C262.065 107.663 263.138 107.99 264.725 107.99C266.311 107.99 267.361 107.663 267.875 107.01C268.435 106.357 268.715 105.05 268.715 103.09C268.715 101.037 268.435 99.6833 267.875 99.03ZM264.725 115.9C259.078 115.9 254.925 114.92 252.265 112.96C249.651 110.953 248.345 107.663 248.345 103.09C248.345 98.4233 249.698 95.11 252.405 93.15C255.111 91.1433 259.218 90.14 264.725 90.14C270.231 90.14 274.315 91.12 276.975 93.08C279.681 95.04 281.035 98.3767 281.035 103.09C281.035 107.663 279.705 110.953 277.045 112.96C274.431 114.92 270.325 115.9 264.725 115.9ZM311.695 123.18C311.181 122.48 310.131 122.13 308.545 122.13C306.958 122.13 305.885 122.48 305.325 123.18C304.765 123.833 304.485 125.187 304.485 127.24C304.485 129.2 304.765 130.507 305.325 131.16C305.885 131.813 306.958 132.14 308.545 132.14C310.131 132.14 311.181 131.813 311.695 131.16C312.255 130.507 312.535 129.2 312.535 127.24C312.535 125.187 312.255 123.833 311.695 123.18ZM308.545 140.05C302.898 140.05 298.745 139.07 296.085 137.11C293.471 135.103 292.165 131.813 292.165 127.24C292.165 122.573 293.518 119.26 296.225 117.3C298.931 115.293 303.038 114.29 308.545 114.29C314.051 114.29 318.135 115.27 320.795 117.23C323.501 119.19 324.855 122.527 324.855 127.24C324.855 131.813 323.525 135.103 320.865 137.11C318.251 139.07 314.145 140.05 308.545 140.05Z" fill="white"/>
</g>
<path d="M163.505 114.524L163.505 113.512L162.545 113.191C159.246 112.089 156.629 109.744 154.578 106.965C152.528 104.186 151.103 101.052 150.175 98.5199L149.837 97.5983L148.856 97.5981L145.964 97.5975L144.982 97.5974L144.645 98.5188C143.717 101.051 142.293 104.185 140.245 106.962C138.195 109.74 135.578 112.084 132.28 113.186L131.32 113.506L131.32 114.518L131.321 116.017L131.321 117.028L132.279 117.349C135.579 118.455 138.199 120.802 140.25 123.582C142.301 126.36 143.725 129.492 144.65 132.019L144.988 132.942L145.97 132.942L148.862 132.942L149.844 132.943L150.181 132.02C151.105 129.494 152.528 126.362 154.578 123.584C156.629 120.806 159.247 118.46 162.547 117.355L163.505 117.034L163.505 116.023L163.505 114.524Z" fill="url(#paint1_linear_790_92802)" stroke="url(#paint2_linear_790_92802)" stroke-width="2.81"/>
<path d="M162.099 115.273L162.099 116.016C154.723 118.469 150.684 126.334 148.772 131.537L147.315 131.537L147.312 115.27L162.099 115.273Z" fill="url(#paint3_linear_790_92802)"/>
<path d="M147.31 99.0028L147.313 115.27L132.725 115.267L132.725 114.512C140.002 112.072 143.98 104.21 145.872 99.0025L147.31 99.0028Z" fill="url(#paint4_linear_790_92802)"/>
<path d="M228.473 114.524L228.472 113.512L227.513 113.191C224.214 112.089 221.596 109.744 219.546 106.965C217.496 104.186 216.071 101.052 215.143 98.5199L214.805 97.5983L213.823 97.5981L210.931 97.5975L209.95 97.5974L209.612 98.5188C208.685 101.051 207.261 104.185 205.212 106.962C203.163 109.74 200.546 112.084 197.248 113.186L196.288 113.506L196.288 114.518L196.288 116.017L196.289 117.028L197.247 117.349C200.547 118.455 203.166 120.802 205.218 123.582C207.268 126.36 208.693 129.492 209.618 132.019L209.955 132.942L210.937 132.942L213.829 132.942L214.812 132.943L215.149 132.02C216.073 129.494 217.496 126.362 219.546 123.584C221.596 120.806 224.215 118.46 227.514 117.355L228.473 117.034L228.473 116.023L228.473 114.524Z" fill="url(#paint5_linear_790_92802)" stroke="url(#paint6_linear_790_92802)" stroke-width="2.81"/>
<path d="M227.067 115.273L227.067 116.016C219.691 118.469 215.652 126.334 213.74 131.537L212.283 131.537L212.28 115.27L227.067 115.273Z" fill="url(#paint7_linear_790_92802)"/>
<path d="M212.278 99.0028L212.281 115.27L197.693 115.267L197.693 114.512C204.97 112.072 208.948 104.21 210.84 99.0025L212.278 99.0028Z" fill="url(#paint8_linear_790_92802)"/>
<path d="M161.518 68.442C162.368 69.1607 162.794 70.3633 162.794 72.05C162.794 73.7367 162.346 74.9833 161.452 75.79C160.557 76.5967 159.2 77 157.382 77H149.22V61.82H161.738V65.076H153.29V67.364H157.338C159.274 67.364 160.667 67.7233 161.518 68.442ZM156.612 70.312H153.29V73.744H156.656C157.36 73.744 157.873 73.612 158.196 73.348C158.533 73.084 158.702 72.6293 158.702 71.984C158.702 71.3387 158.548 70.8987 158.24 70.664C157.946 70.4293 157.404 70.312 156.612 70.312ZM172.136 77.33C170.669 77.33 169.445 77.2053 168.462 76.956C167.479 76.7067 166.643 76.2813 165.954 75.68C165.265 75.0787 164.759 74.272 164.436 73.26C164.128 72.2333 163.974 70.9573 163.974 69.432C163.974 67.8627 164.135 66.5573 164.458 65.516C164.795 64.46 165.323 63.646 166.042 63.074C166.761 62.4873 167.597 62.0767 168.55 61.842C169.518 61.6073 170.713 61.49 172.136 61.49C173.559 61.49 174.747 61.6073 175.7 61.842C176.668 62.0767 177.511 62.4873 178.23 63.074C178.963 63.646 179.491 64.46 179.814 65.516C180.151 66.5573 180.32 67.8627 180.32 69.432C180.32 72.424 179.689 74.492 178.428 75.636C177.167 76.7653 175.069 77.33 172.136 77.33ZM172.136 73.92C173.251 73.92 174.079 73.8173 174.622 73.612C175.165 73.392 175.568 72.9667 175.832 72.336C176.096 71.6907 176.228 70.7227 176.228 69.432C176.228 68.42 176.162 67.6207 176.03 67.034C175.913 66.4473 175.678 65.9927 175.326 65.67C174.974 65.3473 174.563 65.142 174.094 65.054C173.625 64.9513 172.972 64.9 172.136 64.9C171.285 64.9 170.625 64.9513 170.156 65.054C169.701 65.142 169.298 65.3473 168.946 65.67C168.609 65.978 168.374 66.4327 168.242 67.034C168.125 67.6207 168.066 68.42 168.066 69.432C168.066 70.4147 168.125 71.1993 168.242 71.786C168.374 72.358 168.609 72.8053 168.946 73.128C169.298 73.4507 169.709 73.6633 170.178 73.766C170.647 73.8687 171.3 73.92 172.136 73.92ZM186.247 61.82V67.782H192.781V61.82H196.851V77H192.781V71.302H186.247V77H182.177V61.82H186.247ZM206.789 77H202.081L204.281 73.392L197.879 61.82H202.785L206.481 69.542L209.891 61.82H214.467L206.789 77ZM226.054 70.818H230.146C229.956 73.2087 229.303 74.8953 228.188 75.878C227.088 76.846 225.174 77.33 222.446 77.33C221.038 77.33 219.858 77.2053 218.904 76.956C217.951 76.7067 217.137 76.2813 216.462 75.68C215.788 75.0787 215.296 74.272 214.988 73.26C214.695 72.2333 214.548 70.9573 214.548 69.432C214.548 67.848 214.702 66.5427 215.01 65.516C215.333 64.4747 215.839 63.6607 216.528 63.074C217.218 62.4873 218.024 62.0767 218.948 61.842C219.887 61.6073 221.053 61.49 222.446 61.49C225.042 61.49 226.905 61.952 228.034 62.876C229.178 63.8 229.853 65.3913 230.058 67.65H225.988C225.856 66.5207 225.556 65.78 225.086 65.428C224.617 65.076 223.737 64.9 222.446 64.9C221.684 64.9 221.082 64.9513 220.642 65.054C220.217 65.142 219.836 65.3473 219.498 65.67C219.176 65.978 218.948 66.4327 218.816 67.034C218.699 67.6207 218.64 68.42 218.64 69.432C218.64 70.7227 218.765 71.6907 219.014 72.336C219.278 72.9813 219.66 73.4067 220.158 73.612C220.672 73.8173 221.434 73.92 222.446 73.92C223.752 73.92 224.654 73.722 225.152 73.326C225.651 72.9153 225.952 72.0793 226.054 70.818Z" fill="white"/>
<path d="M99.758 157.271V161.631H106.598V157.271H107.718V167.271H106.598V162.591H99.758V167.271H98.658V157.271H99.758ZM113.521 167.571C111.001 167.571 109.741 166.517 109.741 164.411C109.741 162.411 111.195 161.411 114.101 161.411C114.768 161.411 116.101 161.477 118.101 161.611V160.631C118.101 159.657 117.815 158.964 117.241 158.551C116.681 158.124 115.795 157.911 114.581 157.911C113.501 157.911 112.668 158.104 112.081 158.491C111.508 158.864 111.175 159.517 111.081 160.451H110.021C110.155 159.184 110.608 158.291 111.381 157.771C112.155 157.237 113.221 156.971 114.581 156.971C117.661 156.971 119.201 158.191 119.201 160.631V167.271H118.101V165.151H117.941C117.595 165.911 117.021 166.504 116.221 166.931C115.421 167.357 114.521 167.571 113.521 167.571ZM113.881 166.631C114.375 166.631 114.861 166.571 115.341 166.451C115.821 166.331 116.268 166.144 116.681 165.891C117.108 165.637 117.448 165.284 117.701 164.831C117.968 164.377 118.101 163.851 118.101 163.251V162.411C116.235 162.304 115.021 162.251 114.461 162.251C113.075 162.251 112.121 162.437 111.601 162.811C111.095 163.171 110.841 163.704 110.841 164.411C110.841 165.171 111.081 165.731 111.561 166.091C112.055 166.451 112.828 166.631 113.881 166.631ZM126.217 167.271V157.271H135.277V167.271H134.157V158.231H127.317V167.271H126.217ZM147.52 161.891V162.651H138.48C138.493 164.117 138.84 165.144 139.52 165.731C140.213 166.317 141.233 166.611 142.58 166.611C143.7 166.611 144.58 166.424 145.22 166.051C145.873 165.677 146.267 165.037 146.4 164.131H147.5C147.193 166.424 145.553 167.571 142.58 167.571C140.847 167.571 139.547 167.171 138.68 166.371C137.813 165.557 137.38 164.211 137.38 162.331C137.38 160.397 137.813 159.024 138.68 158.211C139.547 157.384 140.84 156.971 142.56 156.971C144.213 156.971 145.453 157.371 146.28 158.171C147.107 158.971 147.52 160.211 147.52 161.891ZM142.56 157.931C141.267 157.931 140.28 158.211 139.6 158.771C138.92 159.331 138.553 160.324 138.5 161.751H146.4C146.4 160.337 146.08 159.351 145.44 158.791C144.8 158.217 143.84 157.931 142.56 157.931ZM154.935 167.571C152.841 167.571 151.495 166.817 150.895 165.311H150.735V170.871H149.635V157.271H150.735V159.231H150.895C151.495 157.724 152.841 156.971 154.935 156.971C156.575 156.971 157.775 157.364 158.535 158.151C159.295 158.937 159.675 160.317 159.675 162.291C159.675 164.237 159.295 165.604 158.535 166.391C157.775 167.177 156.575 167.571 154.935 167.571ZM154.595 157.911C152.088 157.911 150.801 158.984 150.735 161.131V163.211C150.735 163.891 150.841 164.464 151.055 164.931C151.268 165.397 151.561 165.751 151.935 165.991C152.321 166.231 152.728 166.397 153.155 166.491C153.581 166.584 154.061 166.631 154.595 166.631C156.048 166.631 157.075 166.331 157.675 165.731C158.288 165.131 158.595 163.984 158.595 162.291C158.595 160.584 158.288 159.431 157.675 158.831C157.075 158.217 156.048 157.911 154.595 157.911ZM161.822 167.271V157.271H167.262C168.369 157.271 169.182 157.511 169.702 157.991C170.222 158.457 170.482 159.044 170.482 159.751C170.482 161.071 169.829 161.844 168.522 162.071V162.291C170.029 162.451 170.782 163.224 170.782 164.611C170.782 165.411 170.515 166.057 169.982 166.551C169.462 167.031 168.655 167.271 167.562 167.271H161.822ZM167.402 162.651H162.922V166.311H167.342C168.902 166.311 169.682 165.704 169.682 164.491C169.682 163.264 168.922 162.651 167.402 162.651ZM167.162 158.231H162.922V161.731H167.422C168.115 161.731 168.615 161.557 168.922 161.211C169.242 160.864 169.402 160.431 169.402 159.911C169.402 158.791 168.655 158.231 167.162 158.231ZM177.479 161.051C178.679 161.051 179.552 161.324 180.099 161.871C180.645 162.404 180.919 163.131 180.919 164.051C180.919 165.037 180.645 165.824 180.099 166.411C179.565 166.984 178.732 167.271 177.599 167.271H172.799V157.271H173.899V161.051H177.479ZM177.459 161.971H173.899V166.311H177.399C179.025 166.311 179.839 165.557 179.839 164.051C179.839 162.664 179.045 161.971 177.459 161.971ZM182.879 157.271H183.979V167.271H182.879V157.271ZM195.371 167.271H194.271V159.131L187.131 167.271H186.451V157.271H187.551V165.471L194.691 157.271H195.371V167.271ZM193.211 155.211C192.731 155.624 191.964 155.831 190.911 155.831C189.858 155.831 189.084 155.624 188.591 155.211C188.111 154.784 187.871 154.091 187.871 153.131H188.811C188.811 153.824 188.978 154.304 189.311 154.571C189.644 154.824 190.178 154.951 190.911 154.951C191.644 154.951 192.178 154.824 192.511 154.571C192.844 154.304 193.011 153.824 193.011 153.131H193.951C193.951 154.091 193.704 154.784 193.211 155.211ZM203.473 160.351V157.271H211.413V166.311H213.053V170.271H211.953V167.271H202.153V170.271H201.053V166.311H202.233C202.66 165.897 202.973 165.231 203.173 164.311C203.373 163.391 203.473 162.071 203.473 160.351ZM204.553 160.531C204.553 163.304 204.193 165.231 203.473 166.311H210.313V158.231H204.553V160.531ZM224.102 161.891V162.651H215.062C215.075 164.117 215.422 165.144 216.102 165.731C216.795 166.317 217.815 166.611 219.162 166.611C220.282 166.611 221.162 166.424 221.802 166.051C222.455 165.677 222.849 165.037 222.982 164.131H224.082C223.775 166.424 222.135 167.571 219.162 167.571C217.429 167.571 216.129 167.171 215.262 166.371C214.395 165.557 213.962 164.211 213.962 162.331C213.962 160.397 214.395 159.024 215.262 158.211C216.129 157.384 217.422 156.971 219.142 156.971C220.795 156.971 222.035 157.371 222.862 158.171C223.689 158.971 224.102 160.211 224.102 161.891ZM219.142 157.931C217.849 157.931 216.862 158.211 216.182 158.771C215.502 159.331 215.135 160.324 215.082 161.751H222.982C222.982 160.337 222.662 159.351 222.022 158.791C221.382 158.217 220.422 157.931 219.142 157.931ZM226.217 167.271V157.271H235.277V167.271H234.157V158.231H227.317V167.271H226.217ZM239.48 165.691C240.16 166.304 241.193 166.611 242.58 166.611C243.967 166.611 245 166.304 245.68 165.691C246.36 165.064 246.7 163.944 246.7 162.331C246.7 160.677 246.36 159.531 245.68 158.891C245 158.251 243.967 157.931 242.58 157.931C241.193 157.931 240.16 158.251 239.48 158.891C238.813 159.517 238.48 160.664 238.48 162.331C238.48 163.944 238.813 165.064 239.48 165.691ZM242.58 156.971C244.327 156.971 245.627 157.384 246.48 158.211C247.347 159.024 247.78 160.397 247.78 162.331C247.78 164.211 247.347 165.557 246.48 166.371C245.627 167.171 244.327 167.571 242.58 167.571C240.847 167.571 239.547 167.171 238.68 166.371C237.813 165.557 237.38 164.211 237.38 162.331C237.38 160.397 237.813 159.024 238.68 158.211C239.547 157.384 240.847 156.971 242.58 156.971ZM254.308 157.931C253.188 157.931 252.314 158.124 251.688 158.511C251.074 158.884 250.714 159.537 250.608 160.471H249.488C249.621 159.231 250.088 158.337 250.888 157.791C251.701 157.244 252.841 156.971 254.308 156.971C255.814 156.971 256.914 157.231 257.608 157.751C258.314 158.257 258.668 158.917 258.668 159.731C258.668 161.024 258.014 161.784 256.708 162.011V162.231C258.201 162.391 258.948 163.164 258.948 164.551C258.948 166.564 257.421 167.571 254.368 167.571C252.821 167.571 251.634 167.297 250.808 166.751C249.981 166.191 249.508 165.277 249.388 164.011H250.488C250.594 164.971 250.968 165.644 251.608 166.031C252.248 166.417 253.168 166.611 254.368 166.611C255.501 166.611 256.368 166.451 256.968 166.131C257.568 165.797 257.868 165.231 257.868 164.431C257.868 163.204 257.108 162.591 255.588 162.591H253.408V161.671H255.608C256.301 161.671 256.801 161.504 257.108 161.171C257.414 160.824 257.568 160.397 257.568 159.891C257.568 158.584 256.481 157.931 254.308 157.931ZM269.902 167.271H268.802V159.131L261.662 167.271H260.982V157.271H262.082V165.471L269.222 157.271H269.902V167.271ZM271.288 157.271H280.448V158.231H276.408V167.271H275.308V158.231H271.288V157.271Z" fill="white"/>
</g>
<defs>
<filter id="filter0_f_790_92802" x="-617.8" y="-192.8" width="800.6" height="625.6" filterUnits="userSpaceOnUse" color-interpolation-filters="sRGB">
<feFlood flood-opacity="0" result="BackgroundImageFix"/>
<feBlend mode="normal" in="SourceGraphic" in2="BackgroundImageFix" result="shape"/>
<feGaussianBlur stdDeviation="53.4" result="effect1_foregroundBlur_790_92802"/>
</filter>
<filter id="filter1_f_790_92802" x="21.4" y="-124.6" width="843.2" height="699.2" filterUnits="userSpaceOnUse" color-interpolation-filters="sRGB">
<feFlood flood-opacity="0" result="BackgroundImageFix"/>
<feBlend mode="normal" in="SourceGraphic" in2="BackgroundImageFix" result="shape"/>
<feGaussianBlur stdDeviation="89.8" result="effect1_foregroundBlur_790_92802"/>
</filter>
<filter id="filter2_d_790_92802" x="13.2901" y="54.545" width="349.164" height="125.6" filterUnits="userSpaceOnUse" color-interpolation-filters="sRGB">
<feFlood flood-opacity="0" result="BackgroundImageFix"/>
<feColorMatrix in="SourceAlpha" type="matrix" values="0 0 0 0 0 0 0 0 0 0 0 0 0 0 0 0 0 0 127 0" result="hardAlpha"/>
<feOffset dy="2.49501"/>
<feGaussianBlur stdDeviation="18.8"/>
<feComposite in2="hardAlpha" operator="out"/>
<feColorMatrix type="matrix" values="0 0 0 0 0 0 0 0 0 0 0 0 0 0 0 0 0 0 0.79 0"/>
<feBlend mode="normal" in2="BackgroundImageFix" result="effect1_dropShadow_790_92802"/>
<feBlend mode="normal" in="SourceGraphic" in2="effect1_dropShadow_790_92802" result="shape"/>
</filter>
<linearGradient id="paint0_linear_790_92802" x1="170.535" y1="-76.051" x2="202.705" y2="251.908" gradientUnits="userSpaceOnUse">
<stop stop-color="#2D2F36"/>
<stop offset="1"/>
</linearGradient>
<linearGradient id="paint1_linear_790_92802" x1="147.41" y1="99.0028" x2="163.567" y2="137.796" gradientUnits="userSpaceOnUse">
<stop stop-color="#91E2FD"/>
<stop offset="1" stop-color="#34B8E4"/>
</linearGradient>
<linearGradient id="paint2_linear_790_92802" x1="158.2" y1="96.681" x2="134.66" y2="128.398" gradientUnits="userSpaceOnUse">
<stop stop-color="#7BCCE7"/>
<stop offset="1" stop-color="#2BAEDA"/>
</linearGradient>
<linearGradient id="paint3_linear_790_92802" x1="154.706" y1="115.271" x2="154.702" y2="131.539" gradientUnits="userSpaceOnUse">
<stop stop-color="#91E2FD"/>
<stop offset="1" stop-color="#B4ECFF"/>
</linearGradient>
<linearGradient id="paint4_linear_790_92802" x1="140.016" y1="99.0014" x2="140.013" y2="115.269" gradientUnits="userSpaceOnUse">
<stop stop-color="#91E2FD"/>
<stop offset="1" stop-color="#B4ECFF"/>
</linearGradient>
<linearGradient id="paint5_linear_790_92802" x1="212.378" y1="99.0028" x2="228.535" y2="137.796" gradientUnits="userSpaceOnUse">
<stop stop-color="#91E2FD"/>
<stop offset="1" stop-color="#34B8E4"/>
</linearGradient>
<linearGradient id="paint6_linear_790_92802" x1="223.168" y1="96.681" x2="199.628" y2="128.398" gradientUnits="userSpaceOnUse">
<stop stop-color="#7BCCE7"/>
<stop offset="1" stop-color="#2BAEDA"/>
</linearGradient>
<linearGradient id="paint7_linear_790_92802" x1="219.673" y1="115.271" x2="219.67" y2="131.539" gradientUnits="userSpaceOnUse">
<stop stop-color="#91E2FD"/>
<stop offset="1" stop-color="#B4ECFF"/>
</linearGradient>
<linearGradient id="paint8_linear_790_92802" x1="204.984" y1="99.0014" x2="204.981" y2="115.269" gradientUnits="userSpaceOnUse">
<stop stop-color="#91E2FD"/>
<stop offset="1" stop-color="#B4ECFF"/>
</linearGradient>
<clipPath id="clip0_790_92802">
<rect width="380" height="221" rx="20" fill="white"/>
</clipPath>
</defs>
</svg>
