<svg width="20" height="18" viewBox="0 0 20 18" fill="none" xmlns="http://www.w3.org/2000/svg">
<path d="M12.4854 0.600052H2.24413C1.30656 0.600052 0.549805 1.34374 0.549805 2.2651V8.92528C0.549805 9.84657 1.30656 10.5903 2.24413 10.5903H2.8089V12.2554C2.8089 12.6564 3.23139 12.9467 3.64477 12.7438C3.65606 12.7327 3.67869 12.7327 3.68999 12.7215C6.79685 10.6741 6.10056 11.1306 6.79625 10.6791C6.88657 10.6236 6.98823 10.5903 7.10119 10.5903H12.4854C13.4229 10.5903 14.1797 9.84657 14.1797 8.92528V2.2651C14.1797 1.34374 13.4229 0.600052 12.4854 0.600052ZM7.96717 7.26023H3.37368C2.62919 7.26023 2.62614 6.1502 3.37368 6.1502H7.96717C8.71166 6.1502 8.71471 7.26023 7.96717 7.26023ZM11.3558 5.04017H3.37368C2.62919 5.04017 2.62614 3.93014 3.37368 3.93014H11.3558C12.1003 3.93014 12.1034 5.04017 11.3558 5.04017Z" fill="#B4B4B4"/>
<path d="M18.1336 5.0417H15.3097V8.92681C15.3097 10.4587 14.0446 11.7019 12.4858 11.7019H7.27107L6.198 12.4012V13.3669C6.198 14.2882 6.95476 15.032 7.89232 15.032H13.4459L16.6877 17.1632C17.1302 17.4046 17.5688 17.111 17.5688 16.697V15.032H18.1336C19.0711 15.032 19.8279 14.2882 19.8279 13.3669V6.70675C19.8279 5.78542 19.0711 5.0417 18.1336 5.0417Z" fill="#B4B4B4"/>
</svg>
