<svg width="36" height="29" viewBox="0 0 36 29" fill="none" xmlns="http://www.w3.org/2000/svg">
<path d="M12.5002 13.335C13.8189 13.335 15.1081 12.9439 16.2046 12.2112C17.3011 11.4786 18.1556 10.4372 18.6603 9.21877C19.1649 8.00038 19.2968 6.65971 19.0395 5.36631C18.7821 4.07291 18.147 2.88488 17.2144 1.95246C16.2818 1.02004 15.0937 0.38511 13.8002 0.127975C12.5068 -0.12916 11.1661 0.00304462 9.94782 0.507871C8.72952 1.0127 7.68828 1.86747 6.95578 2.96409C6.22329 4.06071 5.83244 5.34991 5.83267 6.66867C5.83453 8.43632 6.53763 10.131 7.78766 11.3808C9.03769 12.6307 10.7325 13.3335 12.5002 13.335ZM21.2222 18.8428C19.5326 17.1099 17.3649 15.9198 14.9957 15.4248C12.6266 14.9298 10.1637 15.1523 7.92162 16.0637C5.67953 16.9752 3.76004 18.5344 2.40834 20.542C1.05664 22.5497 0.334101 24.9147 0.333008 27.335C0.333008 27.6444 0.455924 27.9412 0.674717 28.16C0.893509 28.3788 1.19026 28.5017 1.49967 28.5017H23.503C23.8124 28.5017 24.1092 28.3788 24.328 28.16C24.5468 27.9412 24.6697 27.6444 24.6697 27.335C24.6742 26.0979 24.4832 24.8678 24.1038 23.6903C23.539 21.8699 22.5515 20.2088 21.2222 18.8428Z" fill="#4C4D4F"/>
<path d="M26.5828 13.9185C29.3213 13.9185 31.5412 11.6986 31.5412 8.96016C31.5412 6.22175 29.3213 4.00183 26.5828 4.00183C23.8444 4.00183 21.6245 6.22175 21.6245 8.96016C21.6245 11.6986 23.8444 13.9185 26.5828 13.9185Z" fill="#4C4D4F"/>
<path d="M26.5829 15.2832C25.0191 15.2891 23.4855 15.715 22.1426 16.5164C22.3957 16.7427 22.6512 16.9655 22.8904 17.2105C24.479 18.8433 25.6591 20.8285 26.3344 23.0042C26.5657 23.7205 26.7363 24.455 26.8442 25.1999H34.1662C34.4757 25.1999 34.7724 25.077 34.9912 24.8582C35.21 24.6394 35.3329 24.3426 35.3329 24.0332C35.3304 21.7133 34.4078 19.4892 32.7674 17.8487C31.127 16.2083 28.9028 15.2857 26.5829 15.2832Z" fill="#4C4D4F"/>
</svg>
