<svg width="164" height="60" viewBox="0 0 164 60" fill="none" xmlns="http://www.w3.org/2000/svg">
<mask id="mask0_1273_46953" style="mask-type:alpha" maskUnits="userSpaceOnUse" x="0" y="0" width="164" height="60">
<rect width="164" height="59.7714" rx="10" fill="#D9D9D9"/>
</mask>
<g mask="url(#mask0_1273_46953)">
<rect x="0.5" y="0.5" width="163" height="58.7714" rx="9.5" fill="#141517" stroke="#191A1C"/>
<g opacity="0.5" filter="url(#filter0_f_1273_46953)">
<ellipse cx="183.683" cy="94.9298" rx="183.683" ry="94.9298" transform="matrix(0.941636 -0.336632 0.495088 0.868843 -363 50.6673)" fill="#BD52FD"/>
</g>
<path d="M58.4 29.785H61.19C61.06 31.415 60.615 32.565 59.855 33.235C59.105 33.895 57.8 34.225 55.94 34.225C54.98 34.225 54.175 34.14 53.525 33.97C52.875 33.8 52.32 33.51 51.86 33.1C51.4 32.69 51.065 32.14 50.855 31.45C50.655 30.75 50.555 29.88 50.555 28.84C50.555 27.76 50.66 26.87 50.87 26.17C51.09 25.46 51.435 24.905 51.905 24.505C52.375 24.105 52.925 23.825 53.555 23.665C54.195 23.505 54.99 23.425 55.94 23.425C57.71 23.425 58.98 23.74 59.75 24.37C60.53 25 60.99 26.085 61.13 27.625H58.355C58.265 26.855 58.06 26.35 57.74 26.11C57.42 25.87 56.82 25.75 55.94 25.75C55.42 25.75 55.01 25.785 54.71 25.855C54.42 25.915 54.16 26.055 53.93 26.275C53.71 26.485 53.555 26.795 53.465 27.205C53.385 27.605 53.345 28.15 53.345 28.84C53.345 29.72 53.43 30.38 53.6 30.82C53.78 31.26 54.04 31.55 54.38 31.69C54.73 31.83 55.25 31.9 55.94 31.9C56.83 31.9 57.445 31.765 57.785 31.495C58.125 31.215 58.33 30.645 58.4 29.785ZM67.1955 26.5H68.1105V28.75H66.3855C65.8255 28.74 65.4155 28.85 65.1555 29.08C64.9055 29.3 64.7705 29.64 64.7505 30.1V34H62.2305V26.5H64.7505V28.585H65.0055C65.1355 27.905 65.3655 27.39 65.6955 27.04C66.0255 26.68 66.5255 26.5 67.1955 26.5ZM71.3263 26.5V31.225C71.3263 31.635 71.4213 31.92 71.6113 32.08C71.8113 32.23 72.1213 32.305 72.5413 32.305C73.4613 32.305 73.9363 31.92 73.9663 31.15V26.5H76.4863V34H73.9663V32.455H73.7113C73.5713 33.025 73.2963 33.465 72.8863 33.775C72.4763 34.075 71.9713 34.225 71.3713 34.225C70.5313 34.225 69.8913 34.03 69.4513 33.64C69.0213 33.24 68.8063 32.56 68.8063 31.6V26.5H71.3263ZM81.0903 28C80.2903 28 79.8903 28.21 79.8903 28.63C79.8903 28.91 80.1603 29.1 80.7003 29.2L82.7253 29.575C83.4453 29.715 83.9803 29.955 84.3303 30.295C84.6803 30.625 84.8553 31.095 84.8553 31.705C84.8553 32.535 84.5703 33.165 84.0003 33.595C83.4403 34.015 82.4953 34.225 81.1653 34.225C79.8353 34.225 78.8803 34.02 78.3003 33.61C77.7303 33.2 77.4253 32.475 77.3853 31.435H79.8003C79.8303 32.145 80.3053 32.5 81.2253 32.5C82.0853 32.5 82.5153 32.26 82.5153 31.78C82.5153 31.61 82.4453 31.485 82.3053 31.405C82.1753 31.315 81.9653 31.245 81.6753 31.195L79.5603 30.79C78.9003 30.66 78.4003 30.425 78.0603 30.085C77.7203 29.745 77.5503 29.255 77.5503 28.615C77.5503 27.055 78.7253 26.275 81.0753 26.275C82.3153 26.275 83.2303 26.475 83.8203 26.875C84.4103 27.275 84.7253 27.965 84.7653 28.945H82.3953C82.3553 28.315 81.9203 28 81.0903 28ZM90.9452 34V29.275C90.9452 28.865 90.8402 28.585 90.6302 28.435C90.4202 28.275 90.0902 28.195 89.6402 28.195C88.7902 28.195 88.3452 28.55 88.3052 29.26V34H85.7852V23.65H88.3052V28.045H88.5602C88.6902 27.475 88.9502 27.04 89.3402 26.74C89.7302 26.43 90.2252 26.275 90.8252 26.275C91.6852 26.275 92.3402 26.475 92.7902 26.875C93.2402 27.265 93.4652 27.94 93.4652 28.9V34H90.9452Z" fill="#BD52FD"/>
<path d="M128.163 29.9187C128.7 29.5633 129.086 29.2167 129.32 28.8787C129.554 28.5407 129.671 28.1767 129.671 27.7867C129.671 27.3447 129.532 27.0067 129.255 26.7727C128.978 26.5387 128.501 26.4217 127.825 26.4217C127.166 26.4217 126.672 26.556 126.343 26.8247C126.022 27.0933 125.879 27.5743 125.914 28.2677H124.107C124.012 25.997 125.255 24.8617 127.838 24.8617C130.299 24.8617 131.53 25.828 131.53 27.7607C131.53 28.3933 131.361 28.9567 131.023 29.4507C130.694 29.936 130.113 30.43 129.281 30.9327L127.032 32.4277V32.5057H131.66V34.0267H123.964V32.7787L128.163 29.9187ZM139.422 31.3487C139.422 30.3953 138.624 29.9187 137.03 29.9187C135.435 29.9187 134.638 30.3953 134.638 31.3487C134.638 31.7993 134.811 32.1373 135.158 32.3627C135.513 32.588 136.137 32.7007 137.03 32.7007C137.922 32.7007 138.542 32.588 138.889 32.3627C139.244 32.1373 139.422 31.7993 139.422 31.3487ZM135.457 28.4757C135.76 28.675 136.284 28.7747 137.03 28.7747C137.775 28.7747 138.299 28.675 138.603 28.4757C138.915 28.2677 139.071 27.9513 139.071 27.5267C139.071 27.102 138.915 26.803 138.603 26.6297C138.291 26.4477 137.766 26.3567 137.03 26.3567C136.302 26.3567 135.782 26.4477 135.47 26.6297C135.158 26.803 135.002 27.102 135.002 27.5267C135.002 27.9513 135.153 28.2677 135.457 28.4757ZM133.221 27.2797C133.221 25.6677 134.49 24.8617 137.03 24.8617C139.569 24.8617 140.839 25.6677 140.839 27.2797C140.839 27.8083 140.696 28.2417 140.41 28.5797C140.132 28.9177 139.725 29.13 139.188 29.2167V29.3207C140.566 29.5893 141.255 30.3347 141.255 31.5567C141.255 32.458 140.934 33.1297 140.293 33.5717C139.651 34.005 138.564 34.2217 137.03 34.2217C135.504 34.2217 134.421 34.005 133.78 33.5717C133.138 33.1297 132.818 32.458 132.818 31.5567C132.818 30.3433 133.502 29.598 134.872 29.3207V29.2167C134.343 29.13 133.936 28.9177 133.65 28.5797C133.364 28.233 133.221 27.7997 133.221 27.2797Z" fill="#595063"/>
<path d="M109.296 28.8056C109.871 28.8056 110.432 28.636 110.909 28.3183C111.386 28.0005 111.758 27.5489 111.978 27.0206C112.198 26.4922 112.255 25.9108 112.143 25.35C112.031 24.7891 111.755 24.2739 111.349 23.8696C110.943 23.4652 110.425 23.1899 109.862 23.0784C109.299 22.9669 108.716 23.0242 108.185 23.2431C107.655 23.462 107.202 23.8327 106.883 24.3082C106.564 24.7838 106.394 25.3429 106.394 25.9147C106.395 26.6813 106.701 27.4162 107.245 27.9582C107.789 28.5001 108.527 28.8049 109.296 28.8056ZM113.093 31.194C112.358 30.4425 111.414 29.9265 110.383 29.7118C109.351 29.4972 108.279 29.5936 107.303 29.9889C106.327 30.3842 105.492 31.0603 104.903 31.9309C104.315 32.8015 104 33.8271 104 34.8767C104 35.0108 104.054 35.1395 104.149 35.2344C104.244 35.3293 104.373 35.3826 104.508 35.3826H114.086C114.221 35.3826 114.35 35.3293 114.445 35.2344C114.54 35.1395 114.594 35.0108 114.594 34.8767C114.596 34.3402 114.513 33.8068 114.348 33.2962C114.102 32.5067 113.672 31.7864 113.093 31.194Z" fill="#595063"/>
<path d="M115.427 29.0586C116.619 29.0586 117.585 28.0959 117.585 26.9084C117.585 25.7209 116.619 24.7582 115.427 24.7582C114.235 24.7582 113.268 25.7209 113.268 26.9084C113.268 28.0959 114.235 29.0586 115.427 29.0586Z" fill="#595063"/>
<path d="M115.427 29.6504C114.746 29.653 114.078 29.8376 113.494 30.1852C113.604 30.2833 113.715 30.3799 113.819 30.4862C114.511 31.1943 115.025 32.0551 115.319 32.9986C115.419 33.3092 115.494 33.6277 115.541 33.9508H118.728C118.863 33.9508 118.992 33.8975 119.087 33.8026C119.182 33.7077 119.236 33.579 119.236 33.4448C119.235 32.4388 118.833 31.4743 118.119 30.7629C117.405 30.0516 116.437 29.6515 115.427 29.6504Z" fill="#595063"/>
<path d="M30.6409 64.8692L28.9683 66.4186C7.30932 54.2077 -19.1714 61.0492 -35.0266 67.3488L-38.215 63.9333L-1.75879 30.161L30.6409 64.8692Z" fill="#BD52FD"/>
<path d="M34.7185 -3.62689L-1.75497 30.1614L-34.1546 -4.54679L-32.4648 -6.11225C-10.8231 6.1147 15.6415 -0.744088 31.5302 -7.04241L34.7185 -3.62689Z" fill="#BD52FD"/>
<path d="M33.3346 37.1082L33.0122 37.4069C28.8369 35.053 23.7322 36.3719 20.6758 37.5862L20.0612 36.9278L27.0889 30.4175L33.3346 37.1082Z" fill="#BD52FD"/>
<path d="M34.1207 23.9041L27.0897 30.4175L20.844 23.7268L21.1697 23.425C25.3416 25.782 30.4432 24.4598 33.5061 23.2457L34.1207 23.9041Z" fill="#BD52FD"/>
</g>
<defs>
<filter id="filter0_f_1273_46953" x="-472.318" y="-181.777" width="658.558" height="506.179" filterUnits="userSpaceOnUse" color-interpolation-filters="sRGB">
<feFlood flood-opacity="0" result="BackgroundImageFix"/>
<feBlend mode="normal" in="SourceGraphic" in2="BackgroundImageFix" result="shape"/>
<feGaussianBlur stdDeviation="75" result="effect1_foregroundBlur_1273_46953"/>
</filter>
</defs>
</svg>
