<svg width="164" height="60" viewBox="0 0 164 60" fill="none" xmlns="http://www.w3.org/2000/svg">
<mask id="mask0_1283_47887" style="mask-type:alpha" maskUnits="userSpaceOnUse" x="0" y="0" width="164" height="60">
<rect width="164" height="60" rx="10" fill="#1B1C1E"/>
</mask>
<g mask="url(#mask0_1283_47887)">
<rect width="164" height="60" rx="10" fill="#1B1C1E"/>
<g opacity="0.3" filter="url(#filter0_f_1283_47887)">
<ellipse cx="90.3073" cy="46.7865" rx="90.3073" ry="46.7865" transform="matrix(0.914235 -0.405185 0.555469 0.831537 -157 -21.8176)" fill="#FDF74B"/>
</g>
<g opacity="0.3" filter="url(#filter1_f_1283_47887)">
<ellipse cx="90.3073" cy="46.7865" rx="90.3073" ry="46.7865" transform="matrix(0.914235 -0.405185 0.555469 0.831537 20 88.1824)" fill="#FDF74B"/>
</g>
</g>
<g clip-path="url(#clip0_1283_47887)">
<path d="M59.7758 28.1535L58.0145 27.3238H71.3659C71.913 27.3238 72.4073 26.9986 72.6221 26.4974L73.7473 23.8716L60.78 23.8701C58.5978 23.8701 56.6251 25.163 55.7618 27.1595L52.2211 35.4451C51.4543 37.2402 52.7761 39.2327 54.7346 39.2327H66.2626C66.8098 39.2327 67.304 38.9074 67.5189 38.4063L68.665 35.7322H56.5317L59.7758 28.154V28.1535Z" fill="#E2E2E2"/>
<path d="M96.9654 23.8706C94.772 23.8706 92.7914 25.1772 91.9356 27.1892L91.3639 28.5333L90.9557 29.4913C90.1909 31.286 91.5132 33.276 93.4702 33.276H94.4745H102.672L101.619 35.7327H89.19C88.6438 35.7327 88.1506 36.0564 87.9352 36.5562L86.7803 39.2332H100.815C103.004 39.2332 104.981 37.9324 105.84 35.9273L106.869 33.5261C107.638 31.7311 106.316 29.7366 104.357 29.7366H95.164L95.8388 28.155L94.1211 27.3247H108.623C109.171 27.3247 109.665 26.9986 109.88 26.4964L111 23.8711H96.9659L96.9654 23.8706Z" fill="#E2E2E2"/>
<path d="M92.8881 20.3696C92.8758 20.3696 92.8656 20.3594 92.8656 20.3472C92.8666 20.2623 92.869 19.962 92.8695 19.9055C92.8695 19.8275 92.8147 19.7646 92.7462 19.7646C92.7066 19.7646 92.6712 19.786 92.6483 19.8192C92.6365 19.8358 92.4961 20.04 92.4095 20.1653C92.4046 20.1721 92.3973 20.176 92.3889 20.176H85.5463C85.5194 20.176 85.4974 20.1546 85.4969 20.1278L85.4832 19.9435C85.4827 19.9123 85.5111 19.8879 85.5419 19.8938L85.8918 19.9269C85.9222 19.9294 85.9495 19.9099 85.9569 19.8806L86.2119 18.8505C86.2173 18.8266 86.204 18.8022 86.1811 18.7939L85.9442 18.7057C85.9305 18.7003 85.9202 18.6891 85.9167 18.6749C85.8737 18.4955 85.5234 17.2962 83.8344 17.0281C83.0127 16.8979 82.4745 17.2474 82.1872 17.5263C82.0595 17.6501 81.9542 17.7949 81.872 17.9529L81.7712 18.1742C81.7624 18.1913 81.7232 18.399 81.7232 18.418L81.7766 19.4404C81.7766 19.4755 81.7932 19.5081 81.8207 19.5296L82.1911 19.689L81.9865 20.0269C81.9797 20.0517 81.9572 20.0688 81.9312 20.0688C81.9312 20.0688 81.4957 20.08 81.2808 20.0888C80.8781 20.1049 79.981 20.5948 79.3199 22.0038C78.6704 23.3874 78.5638 23.618 78.5638 23.618C78.5501 23.6443 78.5221 23.6609 78.4922 23.6595L77.8889 23.6614C77.8517 23.6614 77.8121 23.6911 77.7964 23.7248L76.8582 26.3735C76.8426 26.4072 76.8519 26.4579 76.8763 26.4862L77.5311 26.8942C77.5493 26.9093 77.5571 26.9332 77.5517 26.9557L77.2097 27.9624C77.2053 27.9848 77.1969 28.0068 77.1851 28.0268L76.7315 28.4251C76.7197 28.4353 76.7089 28.448 76.7026 28.4621C76.6992 28.4699 76.6963 28.4782 76.6938 28.4865L76.0693 30.0812C76.0611 30.1095 76.0351 30.1285 76.0058 30.1285L75.6553 30.1304C75.5672 30.1304 75.4939 30.1982 75.486 30.2855L75.2765 32.6691C75.2727 32.711 75.2672 32.7529 75.2599 32.7948L75.0945 33.7407C75.0881 33.7626 75.0759 33.7821 75.0597 33.7982L74.4764 34.2423C74.2092 34.4968 73.851 34.9614 73.6758 35.2856L71.7329 39.3726C71.686 39.4593 71.6482 39.6091 71.6506 39.7081L71.7886 39.9533C71.7907 40.041 71.7554 40.4282 71.7148 40.5061L71.0639 41.6402C71.0492 41.6679 71.0482 41.7006 71.061 41.7293L71.0933 41.8029L71.1907 41.9965L73.1663 41.9995C73.2887 42.0106 73.4242 41.8542 73.4281 41.6865L73.5354 40.336L73.5074 40.1327L77.2743 35.7244C77.3726 35.6049 77.5062 35.3943 77.5732 35.2549L79.3683 31.3078C79.3894 31.2645 79.427 31.2313 79.4731 31.2162L79.5865 31.1797C79.6555 31.1572 79.731 31.1792 79.7775 31.2347C79.9346 31.423 80.304 32.0484 80.4841 32.3092C80.6328 32.5258 81.3713 33.5909 81.6938 33.942C81.7829 34.0385 82.0574 34.1482 82.1804 34.2229C82.2205 34.2472 82.2337 34.2989 82.2106 34.3394L81.135 36.2231L80.6598 38.4477C80.6432 38.4995 80.6304 38.553 80.6226 38.6067L80.1925 40.1516C80.1954 40.3467 80.0451 40.4491 80.033 40.6792L79.8763 41.8083C79.8743 41.8429 79.9022 41.8722 79.937 41.8722L82.5948 41.8869H82.5968C82.6002 41.8869 82.7842 41.8843 82.8928 41.8799C82.9134 41.879 82.9486 41.8756 82.9717 41.8727C83.3259 41.8278 83.5683 41.7795 83.7331 41.724C83.7405 41.7216 83.7478 41.7191 83.7551 41.7162C83.8697 41.6758 83.944 41.6308 83.992 41.5812C84.0826 41.487 84.1873 41.3715 84.203 41.2229C84.2035 41.2169 84.204 41.2116 84.2045 41.2057C84.2045 41.2023 84.2045 41.1984 84.2049 41.1949C84.2049 41.1867 84.2049 41.1789 84.2049 41.1706C84.2049 41.1697 84.2049 41.1682 84.2049 41.1672C84.2049 41.1598 84.204 41.1525 84.203 41.1457C84.1995 41.116 84.1927 41.0936 84.1849 41.0755C84.1849 41.0755 84.1849 41.0755 84.1849 41.0751C84.1849 41.0746 84.1843 41.0741 84.1838 41.0736C84.1814 41.0678 84.1785 41.0629 84.1755 41.058C84.1736 41.055 84.1721 41.0521 84.1697 41.0492C84.1545 41.0283 84.1398 41.0205 84.1379 41.0194C84.1305 41.0152 84.1227 41.0112 84.1143 41.0083L82.8801 40.6372C82.8009 40.6129 82.7319 40.5641 82.6829 40.4979L82.3515 40.0093C82.3355 39.9753 82.3428 39.9342 82.3697 39.908L83.0152 39.2736C83.0373 39.2526 83.0544 39.2269 83.0656 39.1986L85.054 34.5236C85.147 34.2268 85.1162 33.8928 85.054 33.5398C85.0079 33.2789 84.338 32.1581 84.1628 31.8485C84.0086 31.5755 83.0475 29.8999 82.8195 29.503C82.7935 29.4582 82.7597 29.4182 82.7172 29.3889C82.6868 29.368 82.6569 29.3412 82.6325 29.3129C82.6081 29.2846 82.5905 29.2515 82.5806 29.2154L82.5047 28.0516C82.4979 28.0263 82.5155 28.0009 82.542 27.999L82.888 27.9702C82.9208 27.9673 82.9502 27.9483 82.9654 27.9195L84.1633 25.6754C84.1799 25.6447 84.179 25.6071 84.1609 25.5774L83.9157 25.2747C83.8991 25.2469 83.8986 25.2118 83.9147 25.1835L84.2817 24.7881C84.2969 24.7608 84.3312 24.7515 84.3586 24.7666L85.3345 25.3151C85.3936 25.3483 85.4607 25.3678 85.5287 25.3678C85.7994 25.3658 86.2452 25.2064 86.4771 25.065C86.5383 25.0275 86.5887 24.9743 86.622 24.911L87.1007 23.796C87.107 23.7818 87.128 23.7838 87.1309 23.7989L87.2645 24.419C87.2734 24.458 87.3077 24.48 87.3468 24.4712L88.7562 24.1587C88.7934 24.1504 88.8164 24.1138 88.8085 24.0768L88.4763 22.6771C88.4718 22.6581 88.4753 22.6381 88.486 22.6215L88.6231 22.4094C88.6402 22.3831 88.6529 22.3543 88.6608 22.3246L88.8267 21.5694C88.831 21.5499 88.8483 21.5358 88.8683 21.5358L92.7672 21.5406C92.822 21.5406 92.8646 21.4987 92.8646 21.4436V20.7835C92.8646 20.7713 92.8748 20.7611 92.8871 20.7611H94.3905C94.4169 20.7611 94.439 20.7396 94.439 20.7128V20.4154C94.439 20.3891 94.4174 20.3672 94.3905 20.3672H92.8866L92.8881 20.3696Z" fill="#E2E2E2"/>
</g>
<defs>
<filter id="filter0_f_1283_47887" x="-220.628" y="-158.513" width="344.358" height="278.018" filterUnits="userSpaceOnUse" color-interpolation-filters="sRGB">
<feFlood flood-opacity="0" result="BackgroundImageFix"/>
<feBlend mode="normal" in="SourceGraphic" in2="BackgroundImageFix" result="shape"/>
<feGaussianBlur stdDeviation="42.8" result="effect1_foregroundBlur_1283_47887"/>
</filter>
<filter id="filter1_f_1283_47887" x="-43.6283" y="-48.513" width="344.358" height="278.018" filterUnits="userSpaceOnUse" color-interpolation-filters="sRGB">
<feFlood flood-opacity="0" result="BackgroundImageFix"/>
<feBlend mode="normal" in="SourceGraphic" in2="BackgroundImageFix" result="shape"/>
<feGaussianBlur stdDeviation="42.8" result="effect1_foregroundBlur_1283_47887"/>
</filter>
<clipPath id="clip0_1283_47887">
<rect width="59" height="25" fill="white" transform="translate(52 17)"/>
</clipPath>
</defs>
</svg>
