<svg width="20" height="20" viewBox="0 0 20 20" fill="none" xmlns="http://www.w3.org/2000/svg">
<g clip-path="url(#clip0_790_87160)">
<path d="M10.5557 8.05555H2.22239C1.85407 8.0557 1.50089 8.20208 1.24045 8.46251C0.98002 8.72295 0.833643 9.07613 0.833496 9.44444V17.7778C0.833643 18.1461 0.98002 18.4993 1.24045 18.7597C1.50089 19.0201 1.85407 19.1665 2.22239 19.1667H10.5557C10.924 19.1665 11.2772 19.0201 11.5376 18.7597C11.7981 18.4993 11.9445 18.1461 11.9446 17.7778V9.44444C11.9445 9.07613 11.7981 8.72295 11.5376 8.46251C11.2772 8.20208 10.924 8.0557 10.5557 8.05555ZM3.61127 17.5C3.39152 17.5 3.1767 17.4348 2.99397 17.3127C2.81125 17.1907 2.66884 17.0171 2.58474 16.8141C2.50064 16.6111 2.47864 16.3877 2.52151 16.1721C2.56438 15.9566 2.67021 15.7586 2.8256 15.6032C2.98099 15.4478 3.17897 15.342 3.39451 15.2991C3.61004 15.2563 3.83345 15.2783 4.03648 15.3624C4.23951 15.4465 4.41304 15.5889 4.53513 15.7716C4.65722 15.9543 4.72239 16.1691 4.72239 16.3889C4.72242 16.5348 4.69371 16.6793 4.63788 16.8141C4.58206 16.949 4.50021 17.0715 4.39703 17.1746C4.29385 17.2778 4.17134 17.3597 4.03652 17.4155C3.9017 17.4713 3.7572 17.5 3.61127 17.5ZM6.38905 14.7222C6.16929 14.7222 5.95447 14.6571 5.77175 14.535C5.58903 14.4129 5.44662 14.2393 5.36252 14.0363C5.27842 13.8333 5.25642 13.6099 5.29929 13.3943C5.34216 13.1788 5.44799 12.9808 5.60338 12.8254C5.75877 12.67 5.95675 12.5642 6.17229 12.5213C6.38782 12.4785 6.61123 12.5005 6.81426 12.5846C7.01728 12.6687 7.19082 12.8111 7.31291 12.9938C7.435 13.1765 7.50016 13.3914 7.50016 13.6111C7.5002 13.757 7.47148 13.9015 7.41566 14.0364C7.35983 14.1712 7.27799 14.2937 7.17481 14.3969C7.07162 14.5 6.94912 14.5819 6.8143 14.6377C6.67948 14.6935 6.53498 14.7223 6.38905 14.7222ZM9.16683 11.9444C8.94707 11.9444 8.73225 11.8793 8.54953 11.7572C8.36681 11.6351 8.22439 11.4616 8.1403 11.2585C8.0562 11.0555 8.0342 10.8321 8.07707 10.6166C8.11994 10.401 8.22576 10.203 8.38116 10.0477C8.53655 9.89227 8.73453 9.78644 8.95006 9.74357C9.1656 9.7007 9.389 9.7227 9.59203 9.8068C9.79506 9.8909 9.96859 10.0333 10.0907 10.216C10.2128 10.3988 10.2779 10.6136 10.2779 10.8333C10.278 10.9793 10.2493 11.1238 10.1934 11.2586C10.1376 11.3934 10.0558 11.5159 9.95259 11.6191C9.8494 11.7223 9.7269 11.8041 9.59208 11.8599C9.45725 11.9158 9.31275 11.9445 9.16683 11.9444Z" fill="#A8A9AB"/>
<path d="M17.7779 0.833332H9.44455C9.07624 0.833479 8.72306 0.979856 8.46262 1.24029C8.20219 1.50073 8.05581 1.85391 8.05566 2.22222V7.5H10.5557C11.0712 7.50059 11.5654 7.70564 11.9299 8.07016C12.2945 8.43469 12.4995 8.92893 12.5001 9.44444V11.9444H17.7779C18.1462 11.9443 18.4994 11.7979 18.7598 11.5375C19.0203 11.2771 19.1666 10.9239 19.1668 10.5556V2.22222C19.1666 1.85391 19.0203 1.50073 18.7598 1.24029C18.4994 0.979856 18.1462 0.833479 17.7779 0.833332ZM11.389 7.5C11.1692 7.5 10.9544 7.43483 10.7717 7.31274C10.589 7.19065 10.4466 7.01712 10.3625 6.81409C10.2784 6.61106 10.2564 6.38766 10.2992 6.17212C10.3421 5.95659 10.4479 5.75861 10.6033 5.60321C10.7587 5.44782 10.9567 5.342 11.1722 5.29913C11.3878 5.25625 11.6112 5.27826 11.8142 5.36235C12.0172 5.44645 12.1908 5.58887 12.3129 5.77159C12.4349 5.95431 12.5001 6.16913 12.5001 6.38889C12.5001 6.53481 12.4714 6.67931 12.4156 6.81414C12.3598 6.94896 12.2779 7.07146 12.1748 7.17464C12.0716 7.27783 11.9491 7.35967 11.8142 7.41549C11.6794 7.47132 11.5349 7.50004 11.389 7.5ZM11.389 4.72222C11.1692 4.72222 10.9544 4.65706 10.7717 4.53497C10.589 4.41287 10.4466 4.23934 10.3625 4.03631C10.2784 3.83328 10.2564 3.60988 10.2992 3.39434C10.3421 3.17881 10.4479 2.98083 10.6033 2.82544C10.7587 2.67004 10.9567 2.56422 11.1722 2.52135C11.3878 2.47848 11.6112 2.50048 11.8142 2.58458C12.0172 2.66867 12.1908 2.81109 12.3129 2.99381C12.4349 3.17653 12.5001 3.39135 12.5001 3.61111C12.5001 3.75703 12.4714 3.90153 12.4156 4.03636C12.3598 4.17118 12.2779 4.29368 12.1748 4.39687C12.0716 4.50005 11.9491 4.58189 11.8142 4.63772C11.6794 4.69354 11.5349 4.72226 11.389 4.72222ZM15.8334 10.2778C15.6137 10.2778 15.3989 10.2126 15.2161 10.0905C15.0334 9.96843 14.891 9.7949 14.8069 9.59187C14.7228 9.38884 14.7008 9.16543 14.7437 8.9499C14.7866 8.73436 14.8924 8.53638 15.0478 8.38099C15.2032 8.2256 15.4011 8.11978 15.6167 8.0769C15.8322 8.03403 16.0556 8.05604 16.2586 8.14013C16.4617 8.22423 16.6352 8.36664 16.7573 8.54937C16.8794 8.73209 16.9446 8.94691 16.9446 9.16667C16.9446 9.31259 16.9159 9.45709 16.86 9.59191C16.8042 9.72674 16.7224 9.84924 16.6192 9.95242C16.516 10.0556 16.3935 10.1374 16.2587 10.1933C16.1239 10.2491 15.9794 10.2778 15.8334 10.2778ZM15.8334 7.5C15.6137 7.5 15.3989 7.43483 15.2161 7.31274C15.0334 7.19065 14.891 7.01712 14.8069 6.81409C14.7228 6.61106 14.7008 6.38766 14.7437 6.17212C14.7866 5.95659 14.8924 5.75861 15.0478 5.60321C15.2032 5.44782 15.4011 5.342 15.6167 5.29913C15.8322 5.25625 16.0556 5.27826 16.2586 5.36235C16.4617 5.44645 16.6352 5.58887 16.7573 5.77159C16.8794 5.95431 16.9446 6.16913 16.9446 6.38889C16.9446 6.53481 16.9159 6.67931 16.86 6.81414C16.8042 6.94896 16.7224 7.07146 16.6192 7.17464C16.516 7.27783 16.3935 7.35967 16.2587 7.41549C16.1239 7.47132 15.9794 7.50004 15.8334 7.5ZM15.8334 4.72222C15.6137 4.72222 15.3989 4.65706 15.2161 4.53497C15.0334 4.41287 14.891 4.23934 14.8069 4.03631C14.7228 3.83328 14.7008 3.60988 14.7437 3.39434C14.7866 3.17881 14.8924 2.98083 15.0478 2.82544C15.2032 2.67004 15.4011 2.56422 15.6167 2.52135C15.8322 2.47848 16.0556 2.50048 16.2586 2.58458C16.4617 2.66867 16.6352 2.81109 16.7573 2.99381C16.8794 3.17653 16.9446 3.39135 16.9446 3.61111C16.9446 3.75703 16.9159 3.90153 16.86 4.03636C16.8042 4.17118 16.7224 4.29368 16.6192 4.39687C16.516 4.50005 16.3935 4.58189 16.2587 4.63772C16.1239 4.69354 15.9794 4.72226 15.8334 4.72222Z" fill="#A8A9AB"/>
</g>
<defs>
<clipPath id="clip0_790_87160">
<rect width="20" height="20" fill="white"/>
</clipPath>
</defs>
</svg>
