<svg width="38" height="39" viewBox="0 0 38 39" fill="none" xmlns="http://www.w3.org/2000/svg">
<path d="M36.6344 18.4415V17.7088L35.9358 17.488C28.2042 15.0445 23.8592 7.1207 21.735 1.63869L21.4875 1H20.8025H17.5632H16.8782L16.6307 1.63869C14.5065 7.1207 10.1615 15.0445 2.42992 17.488L1.73126 17.7088V18.4415V20.0294V20.7615L2.42913 20.9827C10.1618 23.4335 14.5144 31.3587 16.6305 36.8307L16.8777 37.47H17.5632H20.8025H21.488L21.7352 36.8307C23.8513 31.3587 28.2039 23.4335 35.9366 20.9827L36.6344 20.7615V20.0294V18.4415Z" fill="url(#paint0_linear_295_9982)" stroke="url(#paint1_linear_295_9982)" stroke-width="2"/>
<path d="M35.6342 19.2349V20.0225C27.3714 22.6231 22.8461 30.9562 20.7031 36.4699H19.0707V19.2349H35.6342Z" fill="url(#paint2_linear_295_9982)"/>
<path d="M19.0709 2V19.235H2.73126V18.4351C10.8824 15.848 15.3404 7.51795 17.4606 2H19.0709Z" fill="url(#paint3_linear_295_9982)"/>
<path d="M16.4464 23.892L16.7118 23.5824C17.6905 23.8383 18.647 23.9766 19.6029 23.9596C20.2721 23.9477 20.9376 23.8597 21.6068 23.6852L21.7013 23.8143C21.8854 24.066 22.1016 24.3337 22.2701 24.5368C22.3547 24.6388 22.4279 24.7252 22.4801 24.7863C22.5062 24.8169 22.5271 24.8411 22.5415 24.8578L22.5581 24.8769L22.5625 24.882L22.5636 24.8833L22.564 24.8837L22.5641 24.8838L22.5641 24.8838L22.7902 24.6867L22.5641 24.8839L22.6538 24.9867H22.7902C23.933 24.9867 25.0513 24.66 26.0187 24.0318L26.0187 24.0319L26.0217 24.0298C26.8263 23.4934 27.286 22.565 27.1915 21.5925L27.1915 21.5924C27.0457 20.098 26.6934 18.6403 26.1471 17.2439C25.4263 15.3487 23.6949 14.0345 21.6853 13.8449L21.6853 13.8448L21.6785 13.8443C21.5009 13.8317 21.3732 13.8317 21.2994 13.8317H21.2994H21.1751L21.0872 13.9195L20.8964 14.1103L20.5511 14.4556C19.6227 14.337 18.6834 14.3245 17.7523 14.4181L17.373 14.0388L17.2298 13.8957L17.142 13.8078H17.0177C16.7479 13.8078 16.4941 13.8335 16.2359 13.8704L16.2358 13.8703L16.228 13.8717C14.3703 14.1876 12.8158 15.4638 12.1458 17.2208C11.5878 18.6765 11.2232 20.2065 11.0895 21.7625C11.0085 22.6826 11.4406 23.5846 12.1949 24.1099L12.1949 24.11L12.2007 24.1139C13.1334 24.7314 14.2407 25.0582 15.3599 25.0582H15.508L15.5981 24.9406L15.5981 24.9406L15.5981 24.9406L15.5983 24.9403L15.5992 24.9392L15.6027 24.9346L15.6167 24.9164L15.6705 24.847C15.717 24.7873 15.7834 24.7023 15.8632 24.6019C16.023 24.4006 16.2351 24.1385 16.4464 23.892ZM16.6716 21.2975C16.0706 21.2738 15.5933 20.7624 15.6121 20.14C15.6309 19.562 16.0952 19.0948 16.6721 19.0713C17.2723 19.0949 17.7491 19.605 17.7317 20.2263C17.702 20.8112 17.2435 21.2742 16.6716 21.2975ZM21.5377 21.2975C20.9367 21.2738 20.4594 20.7625 20.4781 20.1402C20.4968 19.5621 20.9612 19.0948 21.5381 19.0713C22.139 19.0949 22.6162 19.6061 22.5977 20.2284C22.579 20.8066 22.1146 21.274 21.5377 21.2975Z" fill="#0F1013" stroke="#F6F6F6" stroke-width="0.6"/>
<defs>
<linearGradient id="paint0_linear_295_9982" x1="19.1828" y1="2" x2="35.6344" y2="43.7445" gradientUnits="userSpaceOnUse">
<stop stop-color="#EAEAEA"/>
<stop offset="1" stop-color="#9A9A9A"/>
</linearGradient>
<linearGradient id="paint1_linear_295_9982" x1="31.2697" y1="-0.462142" x2="6.76023" y2="34.4555" gradientUnits="userSpaceOnUse">
<stop stop-color="white"/>
<stop offset="1" stop-color="#DEDEDE"/>
</linearGradient>
<linearGradient id="paint2_linear_295_9982" x1="27.3525" y1="19.2349" x2="27.3525" y2="36.4699" gradientUnits="userSpaceOnUse">
<stop stop-color="#DEDEDE"/>
<stop offset="1" stop-color="#F4F4F4"/>
</linearGradient>
<linearGradient id="paint3_linear_295_9982" x1="10.9011" y1="2" x2="10.9011" y2="19.235" gradientUnits="userSpaceOnUse">
<stop stop-color="#DEDEDE"/>
<stop offset="1" stop-color="#F4F4F4"/>
</linearGradient>
</defs>
</svg>
