<svg width="25" height="25" viewBox="0 0 25 25" fill="none" xmlns="http://www.w3.org/2000/svg">
<g clip-path="url(#clip0_790_113647)">
<g clip-path="url(#clip1_790_113647)">
<path d="M12.5 24.707C19.2418 24.707 24.707 19.2418 24.707 12.5C24.707 5.75824 19.2418 0.292969 12.5 0.292969C5.75824 0.292969 0.292969 5.75824 0.292969 12.5C0.292969 19.2418 5.75824 24.707 12.5 24.707Z" fill="url(#paint0_linear_790_113647)"/>
<path d="M13.9113 18.7389V20.0225H11.1748V18.7464C8.94365 18.3395 7.56152 16.8717 7.56152 14.6497H11.0633C11.0633 15.4787 11.7408 15.8927 12.4988 15.8927C13.2097 15.8927 13.8872 15.5309 13.8872 14.8989C13.8872 14.1315 12.9367 13.9091 11.7713 13.621C9.99189 13.1789 7.72627 12.6295 7.72627 9.83687C7.72627 7.84829 8.95879 6.55811 11.0518 6.18384V4.97778H13.7883V6.19639C15.8684 6.60215 17.041 7.9729 17.041 10.0133L13.6407 10.0209C13.6407 9.3019 13.0653 8.95068 12.3623 8.95068C11.7514 8.95068 11.1682 9.2021 11.1682 9.73193C11.1682 10.434 12.0899 10.6641 13.2573 10.9601C15.0706 11.4282 17.4384 12.0221 17.4384 14.8313C17.4382 17.0246 16.0219 18.3478 13.9113 18.7389Z" fill="#1B1C1E"/>
</g>
</g>
<defs>
<linearGradient id="paint0_linear_790_113647" x1="0.292969" y1="12.5" x2="24.707" y2="12.5" gradientUnits="userSpaceOnUse">
<stop stop-color="#96E3FD"/>
<stop offset="0.5" stop-color="#91E2FD"/>
<stop offset="1" stop-color="#53D4FF"/>
</linearGradient>
<clipPath id="clip0_790_113647">
<rect width="25" height="25" fill="white"/>
</clipPath>
<clipPath id="clip1_790_113647">
<rect width="25" height="25" fill="white"/>
</clipPath>
</defs>
</svg>
