<svg width="20" height="15" viewBox="0 0 20 15" fill="none" xmlns="http://www.w3.org/2000/svg">
<path d="M19.9982 11.8115C19.9513 9.13942 19.6432 6.43729 19.1377 3.70997C18.726 1.81509 17.2447 0.127409 14.878 0.00380358C13.1307 -0.0697997 12.7929 0.949446 10.8132 0.929845C10.271 0.926245 9.72922 0.926245 9.18704 0.929845C7.20699 0.949446 6.86832 -0.0697997 5.12186 0.00380358C2.7547 0.127409 1.22738 1.81069 0.860589 3.70997C0.354736 6.43729 0.0465371 9.13902 5.33931e-05 11.8111C-0.0112746 13.6716 1.78245 14.9093 2.96603 14.9941C5.25233 15.1709 7.06871 11.0423 8.45267 11.0419C9.4843 11.0479 10.5155 11.0483 11.5472 11.0419C12.9315 11.0419 14.7463 15.1713 17.0342 14.9945C18.2174 14.9097 20.0572 13.6636 19.9982 11.8115Z" fill="#303030"/>
<path d="M19.9982 11.8115C19.9514 9.13942 19.6432 6.43729 19.1377 3.70997C18.726 1.81509 17.2447 0.127409 14.878 0.00380358C13.1307 -0.0697997 12.7929 0.949446 10.8132 0.929845C10.271 0.926245 9.72922 0.926245 9.18704 0.929845C7.20699 0.949446 6.86832 -0.0697997 5.12186 0.00380358C2.7547 0.127409 1.22738 1.81069 0.860589 3.70997C0.354736 6.43729 0.0465372 9.13902 5.33931e-05 11.8111C-0.0112746 13.6716 1.78245 14.9093 2.96603 14.9941C5.25233 15.1709 7.06871 11.0423 8.45268 11.0419C9.4843 11.0479 10.5155 11.0483 11.5472 11.0419C12.9315 11.0419 14.7463 15.1713 17.0342 14.9945C18.2174 14.9097 20.0576 13.6636 19.9986 11.8115H19.9982ZM7.45699 6.5977H6.39059V7.68975C6.39059 8.15057 6.02575 8.52419 5.57576 8.52419C5.12577 8.52419 4.76093 8.15057 4.76093 7.68975V6.5977H3.69454C3.24454 6.5977 2.8797 6.22408 2.8797 5.76326C2.8797 5.30244 3.24454 4.92883 3.69454 4.92883H4.76093V3.83678C4.76093 3.37596 5.12577 3.00234 5.57576 3.00234C6.02575 3.00234 6.39059 3.37596 6.39059 3.83678V4.92883H7.45699C7.90698 4.92883 8.27182 5.30244 8.27182 5.76326C8.27182 6.22408 7.90698 6.5977 7.45699 6.5977ZM14.0417 8.52379C13.4038 8.54139 12.8733 8.02537 12.8561 7.37254C12.8393 6.71731 13.3436 6.17328 13.9811 6.15648C14.6194 6.14008 15.1506 6.6557 15.167 7.30933C15.1831 7.96296 14.6795 8.50699 14.0417 8.52379ZM15.9655 5.36965C15.3276 5.38805 14.796 4.87162 14.7784 4.21839C14.7624 3.56396 15.2659 3.02074 15.9041 3.00274C16.5432 2.98554 17.0737 3.50196 17.0908 4.15559C17.1076 4.80882 16.603 5.35325 15.9655 5.36965Z" fill="#FDF74B"/>
</svg>
