<svg width="369" height="219" viewBox="0 0 369 219" fill="none" xmlns="http://www.w3.org/2000/svg">
<g clip-path="url(#clip0_790_86929)">
<rect width="369" height="219" rx="20" fill="url(#paint0_linear_790_86929)"/>
<g opacity="0.4" filter="url(#filter0_f_790_86929)">
<ellipse cx="-80.5" cy="31.5" rx="207.5" ry="164.5" transform="rotate(180 -80.5 31.5)" fill="#FDF74B"/>
</g>
<g opacity="0.45" filter="url(#filter1_f_790_86929)">
<ellipse cx="453.5" cy="217.5" rx="229.5" ry="167.5" transform="rotate(180 453.5 217.5)" fill="#FDF74B"/>
</g>
<g opacity="0.2">
<path d="M225.488 29.866V31.4067C217.562 33.9233 213.221 41.9865 211.163 47.3138H208.031C205.981 41.9865 201.636 33.9233 193.715 31.4067V29.866C201.641 27.3587 205.972 19.2955 208.031 13.9589H211.163C213.23 19.2955 217.562 27.3587 225.488 29.866Z" fill="black"/>
<path d="M225.488 186.929V188.469C217.562 190.986 213.221 199.049 211.163 204.376H208.031C205.981 199.049 201.636 190.986 193.715 188.469V186.929C201.641 184.421 205.972 176.358 208.031 171.021H211.163C213.23 176.358 217.562 184.421 225.488 186.929Z" fill="black"/>
<path d="M47.8991 69.1318V70.6726C39.9735 73.1891 35.6326 81.2524 33.5741 86.5797H30.4421C28.393 81.2524 24.0475 73.1891 16.1265 70.6726V69.1318C24.0521 66.6246 28.3837 58.5614 30.4421 53.2248H33.5741C35.6419 58.5614 39.9735 66.6246 47.8991 69.1318Z" fill="black"/>
<path d="M47.8991 226.194V227.735C39.9735 230.251 35.6326 238.315 33.5741 243.642H30.4421C28.393 238.315 24.0475 230.251 16.1265 227.735V226.194C24.0521 223.687 28.3837 215.624 30.4421 210.287H33.5741C35.6419 215.624 39.9735 223.687 47.8991 226.194Z" fill="black"/>
<path d="M225.488 108.398V109.938C217.562 112.455 213.221 120.518 211.163 125.845H208.031C205.981 120.518 201.636 112.455 193.715 109.938V108.398C201.641 105.89 205.972 97.8272 208.031 92.4906H211.163C213.23 97.8272 217.562 105.89 225.488 108.398Z" fill="black"/>
<path d="M47.8991 147.663V149.204C39.9735 151.72 35.6326 159.784 33.5741 165.111H30.4421C28.393 159.784 24.0475 151.72 16.1265 149.204V147.663C24.0521 145.156 28.3837 137.092 30.4421 131.756H33.5741C35.6419 137.092 39.9735 145.156 47.8991 147.663Z" fill="black"/>
<path d="M205.756 -9.3996V-7.85885C197.83 -5.34229 193.489 2.72097 191.431 8.04823H188.299C186.249 2.72097 181.904 -5.34229 173.983 -7.85885V-9.3996C181.909 -11.9068 186.24 -19.9701 188.299 -25.3067H191.431C193.498 -19.9701 197.83 -11.9068 205.756 -9.3996Z" fill="black"/>
<path d="M205.756 147.663V149.204C197.83 151.72 193.489 159.784 191.431 165.111H188.299C186.249 159.784 181.904 151.72 173.983 149.204V147.663C181.909 145.156 186.24 137.092 188.299 131.756H191.431C193.498 137.092 197.83 145.156 205.756 147.663Z" fill="black"/>
<path d="M383.345 29.866V31.4067C375.42 33.9233 371.079 41.9865 369.02 47.3138H365.888C363.839 41.9865 359.494 33.9233 351.573 31.4067V29.866C359.498 27.3587 363.83 19.2955 365.888 13.9589H369.02C371.088 19.2955 375.42 27.3587 383.345 29.866Z" fill="black"/>
<path d="M383.345 186.929V188.469C375.42 190.986 371.079 199.049 369.02 204.376H365.888C363.839 199.049 359.494 190.986 351.573 188.469V186.929C359.498 184.421 363.83 176.358 365.888 171.021H369.02C371.088 176.358 375.42 184.421 383.345 186.929Z" fill="black"/>
<path d="M28.1672 29.866V31.4067C20.2415 33.9233 15.9006 41.9865 13.8422 47.3138H10.7102C8.66111 41.9865 4.31553 33.9233 -3.60547 31.4067V29.866C4.32019 27.3587 8.65177 19.2955 10.7102 13.9589H13.8422C15.91 19.2955 20.2415 27.3587 28.1672 29.866Z" fill="black"/>
<path d="M28.1672 186.929V188.469C20.2415 190.986 15.9006 199.049 13.8422 204.376H10.7102C8.66111 199.049 4.31553 190.986 -3.60547 188.469V186.929C4.32019 184.421 8.65177 176.358 10.7102 171.021H13.8422C15.91 176.358 20.2415 184.421 28.1672 186.929Z" fill="black"/>
<path d="M205.756 69.1315V70.6723C197.83 73.1888 193.489 81.2521 191.431 86.5794H188.299C186.249 81.2521 181.904 73.1888 173.983 70.6723V69.1315C181.909 66.6243 186.24 58.5611 188.299 53.2245H191.431C193.498 58.5611 197.83 66.6243 205.756 69.1315Z" fill="black"/>
<path d="M205.756 226.194V227.735C197.83 230.251 193.489 238.315 191.431 243.642H188.299C186.249 238.315 181.904 230.251 173.983 227.735V226.194C181.909 223.687 186.24 215.624 188.299 210.287H191.431C193.498 215.624 197.83 223.687 205.756 226.194Z" fill="black"/>
<path d="M383.345 108.397V109.938C375.42 112.455 371.079 120.518 369.02 125.845H365.888C363.839 120.518 359.494 112.455 351.573 109.938V108.397C359.498 105.89 363.83 97.8269 365.888 92.4903H369.02C371.088 97.8269 375.42 105.89 383.345 108.397Z" fill="black"/>
<path d="M28.1672 108.397V109.938C20.2415 112.455 15.9006 120.518 13.8422 125.845H10.7102C8.66111 120.518 4.31553 112.455 -3.60547 109.938V108.397C4.32019 105.89 8.65177 97.8269 10.7102 92.4903H13.8422C15.91 97.8269 20.2415 105.89 28.1672 108.397Z" fill="black"/>
<path d="M186.023 29.866V31.4067C178.097 33.9233 173.756 41.9865 171.698 47.3138H168.566C166.517 41.9865 162.171 33.9233 154.25 31.4067V29.866C162.176 27.3587 166.507 19.2955 168.566 13.9589H171.698C173.765 19.2955 178.097 27.3587 186.023 29.866Z" fill="black"/>
<path d="M186.023 186.929V188.469C178.097 190.986 173.756 199.049 171.698 204.376H168.566C166.517 199.049 162.171 190.986 154.25 188.469V186.929C162.176 184.421 166.507 176.358 168.566 171.021H171.698C173.765 176.358 178.097 184.421 186.023 186.929Z" fill="black"/>
<path d="M363.613 69.1318V70.6726C355.687 73.1891 351.346 81.2524 349.288 86.5797H346.156C344.106 81.2524 339.761 73.1891 331.84 70.6726V69.1318C339.766 66.6246 344.097 58.5614 346.156 53.2248H349.288C351.355 58.5614 355.687 66.6246 363.613 69.1318Z" fill="black"/>
<path d="M363.613 226.194V227.735C355.687 230.251 351.346 238.315 349.288 243.642H346.156C344.106 238.315 339.761 230.251 331.84 227.735V226.194C339.766 223.687 344.097 215.624 346.156 210.287H349.288C351.355 215.624 355.687 223.687 363.613 226.194Z" fill="black"/>
<path d="M8.43429 69.1318V70.6726C0.508625 73.1891 -3.83229 81.2524 -5.89072 86.5797H-9.0227C-11.0718 81.2524 -15.4174 73.1891 -23.3384 70.6726V69.1318C-15.4127 66.6246 -11.0811 58.5614 -9.0227 53.2248H-5.89072C-3.82295 58.5614 0.508625 66.6246 8.43429 69.1318Z" fill="black"/>
<path d="M8.43429 226.194V227.735C0.508625 230.251 -3.83229 238.315 -5.89072 243.642H-9.0227C-11.0718 238.315 -15.4174 230.251 -23.3384 227.735V226.194C-15.4127 223.687 -11.0811 215.624 -9.0227 210.287H-5.89072C-3.82295 215.624 0.508625 223.687 8.43429 226.194Z" fill="black"/>
<path d="M186.023 108.398V109.938C178.097 112.455 173.756 120.518 171.698 125.845H168.566C166.517 120.518 162.171 112.455 154.25 109.938V108.398C162.176 105.89 166.507 97.8272 168.566 92.4906H171.698C173.765 97.8272 178.097 105.89 186.023 108.398Z" fill="black"/>
<path d="M363.613 147.663V149.204C355.687 151.72 351.346 159.784 349.288 165.111H346.156C344.106 159.784 339.761 151.72 331.84 149.204V147.663C339.766 145.156 344.097 137.092 346.156 131.756H349.288C351.355 137.092 355.687 145.156 363.613 147.663Z" fill="black"/>
<path d="M8.43429 147.663V149.204C0.508625 151.72 -3.83229 159.784 -5.89072 165.111H-9.0227C-11.0718 159.784 -15.4174 151.72 -23.3384 149.204V147.663C-15.4127 145.156 -11.0811 137.092 -9.0227 131.756H-5.89072C-3.82295 137.092 0.508625 145.156 8.43429 147.663Z" fill="black"/>
<path d="M166.291 -9.3996V-7.85885C158.366 -5.34229 154.025 2.72097 151.966 8.04823H148.834C146.785 2.72097 142.44 -5.34229 134.519 -7.85885V-9.3996C142.444 -11.9068 146.776 -19.9701 148.834 -25.3067H151.966C154.034 -19.9701 158.366 -11.9068 166.291 -9.3996Z" fill="black"/>
<path d="M166.291 147.663V149.204C158.366 151.72 154.025 159.784 151.966 165.111H148.834C146.785 159.784 142.44 151.72 134.519 149.204V147.663C142.444 145.156 146.776 137.092 148.834 131.756H151.966C154.034 137.092 158.366 145.156 166.291 147.663Z" fill="black"/>
<path d="M343.881 29.866V31.4067C335.955 33.9233 331.614 41.9865 329.556 47.3138H326.424C324.374 41.9865 320.029 33.9233 312.108 31.4067V29.866C320.034 27.3587 324.365 19.2955 326.424 13.9589H329.556C331.623 19.2955 335.955 27.3587 343.881 29.866Z" fill="black"/>
<path d="M343.881 186.929V188.469C335.955 190.986 331.614 199.049 329.556 204.376H326.424C324.374 199.049 320.029 190.986 312.108 188.469V186.929C320.034 184.421 324.365 176.358 326.424 171.021H329.556C331.623 176.358 335.955 184.421 343.881 186.929Z" fill="black"/>
<path d="M166.291 69.1315V70.6723C158.366 73.1888 154.025 81.2521 151.966 86.5794H148.834C146.785 81.2521 142.44 73.1888 134.519 70.6723V69.1315C142.444 66.6243 146.776 58.5611 148.834 53.2245H151.966C154.034 58.5611 158.366 66.6243 166.291 69.1315Z" fill="black"/>
<path d="M166.291 226.194V227.735C158.366 230.251 154.025 238.315 151.966 243.642H148.834C146.785 238.315 142.44 230.251 134.519 227.735V226.194C142.444 223.687 146.776 215.624 148.834 210.287H151.966C154.034 215.624 158.366 223.687 166.291 226.194Z" fill="black"/>
<path d="M343.881 108.397V109.938C335.955 112.455 331.614 120.518 329.556 125.845H326.424C324.374 120.518 320.029 112.455 312.108 109.938V108.397C320.034 105.89 324.365 97.8269 326.424 92.4903H329.556C331.623 97.8269 335.955 105.89 343.881 108.397Z" fill="black"/>
<path d="M146.558 29.866V31.4067C138.632 33.9233 134.291 41.9865 132.233 47.3138H129.101C127.052 41.9865 122.706 33.9233 114.785 31.4067V29.866C122.711 27.3587 127.042 19.2955 129.101 13.9589H132.233C134.301 19.2955 138.632 27.3587 146.558 29.866Z" fill="black"/>
<path d="M146.558 186.929V188.469C138.632 190.986 134.291 199.049 132.233 204.376H129.101C127.052 199.049 122.706 190.986 114.785 188.469V186.929C122.711 184.421 127.042 176.358 129.101 171.021H132.233C134.301 176.358 138.632 184.421 146.558 186.929Z" fill="black"/>
<path d="M324.148 69.1318V70.6726C316.222 73.1891 311.881 81.2524 309.823 86.5797H306.691C304.642 81.2524 300.296 73.1891 292.375 70.6726V69.1318C300.301 66.6246 304.632 58.5614 306.691 53.2248H309.823C311.89 58.5614 316.222 66.6246 324.148 69.1318Z" fill="black"/>
<path d="M324.148 226.194V227.735C316.222 230.251 311.881 238.315 309.823 243.642H306.691C304.642 238.315 300.296 230.251 292.375 227.735V226.194C300.301 223.687 304.632 215.624 306.691 210.287H309.823C311.89 215.624 316.222 223.687 324.148 226.194Z" fill="black"/>
<path d="M146.558 108.398V109.938C138.632 112.455 134.291 120.518 132.233 125.845H129.101C127.052 120.518 122.706 112.455 114.785 109.938V108.398C122.711 105.89 127.042 97.8272 129.101 92.4906H132.233C134.301 97.8272 138.632 105.89 146.558 108.398Z" fill="black"/>
<path d="M324.148 147.663V149.204C316.222 151.72 311.881 159.784 309.823 165.111H306.691C304.642 159.784 300.296 151.72 292.375 149.204V147.663C300.301 145.156 304.632 137.092 306.691 131.756H309.823C311.89 137.092 316.222 145.156 324.148 147.663Z" fill="black"/>
<path d="M126.826 -9.3996V-7.85885C118.901 -5.34229 114.56 2.72097 112.501 8.04823H109.369C107.32 2.72097 102.975 -5.34229 95.0537 -7.85885V-9.3996C102.979 -11.9068 107.311 -19.9701 109.369 -25.3067H112.501C114.569 -19.9701 118.901 -11.9068 126.826 -9.3996Z" fill="black"/>
<path d="M126.826 147.663V149.204C118.901 151.72 114.56 159.784 112.501 165.111H109.369C107.32 159.784 102.975 151.72 95.0537 149.204V147.663C102.979 145.156 107.311 137.092 109.369 131.756H112.501C114.569 137.092 118.901 145.156 126.826 147.663Z" fill="black"/>
<path d="M304.416 29.866V31.4067C296.49 33.9233 292.149 41.9865 290.091 47.3138H286.959C284.91 41.9865 280.564 33.9233 272.643 31.4067V29.866C280.569 27.3587 284.9 19.2955 286.959 13.9589H290.091C292.158 19.2955 296.49 27.3587 304.416 29.866Z" fill="black"/>
<path d="M304.416 186.929V188.469C296.49 190.986 292.149 199.049 290.091 204.376H286.959C284.91 199.049 280.564 190.986 272.643 188.469V186.929C280.569 184.421 284.9 176.358 286.959 171.021H290.091C292.158 176.358 296.49 184.421 304.416 186.929Z" fill="black"/>
<path d="M126.826 69.1315V70.6723C118.901 73.1888 114.56 81.2521 112.501 86.5794H109.369C107.32 81.2521 102.975 73.1888 95.0537 70.6723V69.1315C102.979 66.6243 107.311 58.5611 109.369 53.2245H112.501C114.569 58.5611 118.901 66.6243 126.826 69.1315Z" fill="black"/>
<path d="M126.826 226.194V227.735C118.901 230.251 114.56 238.315 112.501 243.642H109.369C107.32 238.315 102.975 230.251 95.0537 227.735V226.194C102.979 223.687 107.311 215.624 109.369 210.287H112.501C114.569 215.624 118.901 223.687 126.826 226.194Z" fill="black"/>
<path d="M304.416 108.397V109.938C296.49 112.455 292.149 120.518 290.091 125.845H286.959C284.91 120.518 280.564 112.455 272.643 109.938V108.397C280.569 105.89 284.9 97.8269 286.959 92.4903H290.091C292.158 97.8269 296.49 105.89 304.416 108.397Z" fill="black"/>
<path d="M264.952 29.866V31.4067C257.027 33.9233 252.686 41.9865 250.627 47.3138H247.495C245.446 41.9865 241.101 33.9233 233.18 31.4067V29.866C241.105 27.3587 245.437 19.2955 247.495 13.9589H250.627C252.695 19.2955 257.027 27.3587 264.952 29.866Z" fill="black"/>
<path d="M264.952 186.929V188.469C257.027 190.986 252.686 199.049 250.627 204.376H247.495C245.446 199.049 241.101 190.986 233.18 188.469V186.929C241.105 184.421 245.437 176.358 247.495 171.021H250.627C252.695 176.358 257.027 184.421 264.952 186.929Z" fill="black"/>
<path d="M87.3635 69.1318V70.6726C79.4378 73.1891 75.0969 81.2524 73.0385 86.5797H69.9065C67.8574 81.2524 63.5118 73.1891 55.5908 70.6726V69.1318C63.5165 66.6246 67.8481 58.5614 69.9065 53.2248H73.0385C75.1062 58.5614 79.4378 66.6246 87.3635 69.1318Z" fill="black"/>
<path d="M87.3635 226.194V227.735C79.4378 230.251 75.0969 238.315 73.0385 243.642H69.9065C67.8574 238.315 63.5118 230.251 55.5908 227.735V226.194C63.5165 223.687 67.8481 215.624 69.9065 210.287H73.0385C75.1062 215.624 79.4378 223.687 87.3635 226.194Z" fill="black"/>
<path d="M264.952 108.398V109.938C257.027 112.455 252.686 120.518 250.627 125.845H247.495C245.446 120.518 241.101 112.455 233.18 109.938V108.398C241.105 105.89 245.437 97.8272 247.495 92.4906H250.627C252.695 97.8272 257.027 105.89 264.952 108.398Z" fill="black"/>
<path d="M87.3635 147.663V149.204C79.4378 151.72 75.0969 159.784 73.0385 165.111H69.9065C67.8574 159.784 63.5118 151.72 55.5908 149.204V147.663C63.5165 145.156 67.8481 137.092 69.9065 131.756H73.0385C75.1062 137.092 79.4378 145.156 87.3635 147.663Z" fill="black"/>
<path d="M245.22 -9.3996V-7.85885C237.294 -5.34229 232.953 2.72097 230.895 8.04823H227.763C225.714 2.72097 221.368 -5.34229 213.447 -7.85885V-9.3996C221.373 -11.9068 225.705 -19.9701 227.763 -25.3067H230.895C232.963 -19.9701 237.294 -11.9068 245.22 -9.3996Z" fill="black"/>
<path d="M245.22 147.663V149.204C237.294 151.72 232.953 159.784 230.895 165.111H227.763C225.714 159.784 221.368 151.72 213.447 149.204V147.663C221.373 145.156 225.705 137.092 227.763 131.756H230.895C232.963 137.092 237.294 145.156 245.22 147.663Z" fill="black"/>
<path d="M67.6311 29.866V31.4067C59.7054 33.9233 55.3645 41.9865 53.3061 47.3138H50.1741C48.125 41.9865 43.7794 33.9233 35.8584 31.4067V29.866C43.7841 27.3587 48.1156 19.2955 50.1741 13.9589H53.3061C55.3738 19.2955 59.7054 27.3587 67.6311 29.866Z" fill="black"/>
<path d="M67.6311 186.929V188.469C59.7054 190.986 55.3645 199.049 53.3061 204.376H50.1741C48.125 199.049 43.7794 190.986 35.8584 188.469V186.929C43.7841 184.421 48.1156 176.358 50.1741 171.021H53.3061C55.3738 176.358 59.7054 184.421 67.6311 186.929Z" fill="black"/>
<path d="M245.22 69.1315V70.6723C237.294 73.1888 232.953 81.2521 230.895 86.5794H227.763C225.714 81.2521 221.368 73.1888 213.447 70.6723V69.1315C221.373 66.6243 225.705 58.5611 227.763 53.2245H230.895C232.963 58.5611 237.294 66.6243 245.22 69.1315Z" fill="black"/>
<path d="M245.22 226.194V227.735C237.294 230.251 232.953 238.315 230.895 243.642H227.763C225.714 238.315 221.368 230.251 213.447 227.735V226.194C221.373 223.687 225.705 215.624 227.763 210.287H230.895C232.963 215.624 237.294 223.687 245.22 226.194Z" fill="black"/>
<path d="M67.6311 108.397V109.938C59.7054 112.455 55.3645 120.518 53.3061 125.845H50.1741C48.125 120.518 43.7794 112.455 35.8584 109.938V108.397C43.7841 105.89 48.1156 97.8269 50.1741 92.4903H53.3061C55.3738 97.8269 59.7054 105.89 67.6311 108.397Z" fill="black"/>
<path d="M284.683 -9.3996V-7.85885C276.758 -5.34229 272.417 2.72097 270.358 8.04823H267.226C265.177 2.72097 260.832 -5.34229 252.911 -7.85885V-9.3996C260.836 -11.9068 265.168 -19.9701 267.226 -25.3067H270.358C272.426 -19.9701 276.758 -11.9068 284.683 -9.3996Z" fill="black"/>
<path d="M284.683 147.663V149.204C276.758 151.72 272.417 159.784 270.358 165.111H267.226C265.177 159.784 260.832 151.72 252.911 149.204V147.663C260.836 145.156 265.168 137.092 267.226 131.756H270.358C272.426 137.092 276.758 145.156 284.683 147.663Z" fill="black"/>
<path d="M107.094 29.866V31.4067C99.1688 33.9233 94.8279 41.9865 92.7694 47.3138H89.6375C87.5884 41.9865 83.2428 33.9233 75.3218 31.4067V29.866C83.2474 27.3587 87.579 19.2955 89.6375 13.9589H92.7694C94.8372 19.2955 99.1688 27.3587 107.094 29.866Z" fill="black"/>
<path d="M107.094 186.929V188.469C99.1688 190.986 94.8279 199.049 92.7694 204.376H89.6375C87.5884 199.049 83.2428 190.986 75.3218 188.469V186.929C83.2474 184.421 87.579 176.358 89.6375 171.021H92.7694C94.8372 176.358 99.1688 184.421 107.094 186.929Z" fill="black"/>
<path d="M284.683 69.1315V70.6723C276.758 73.1888 272.417 81.2521 270.358 86.5794H267.226C265.177 81.2521 260.832 73.1888 252.911 70.6723V69.1315C260.836 66.6243 265.168 58.5611 267.226 53.2245H270.358C272.426 58.5611 276.758 66.6243 284.683 69.1315Z" fill="black"/>
<path d="M284.683 226.194V227.735C276.758 230.251 272.417 238.315 270.358 243.642H267.226C265.177 238.315 260.832 230.251 252.911 227.735V226.194C260.836 223.687 265.168 215.624 267.226 210.287H270.358C272.426 215.624 276.758 223.687 284.683 226.194Z" fill="black"/>
<path d="M107.094 108.397V109.938C99.1688 112.455 94.8279 120.518 92.7694 125.845H89.6375C87.5884 120.518 83.2428 112.455 75.3218 109.938V108.397C83.2474 105.89 87.579 97.8269 89.6375 92.4903H92.7694C94.8372 97.8269 99.1688 105.89 107.094 108.397Z" fill="black"/>
</g>
<g filter="url(#filter2_d_790_86929)">
<g filter="url(#filter3_d_790_86929)">
<path d="M30.026 116.562C30.026 118.659 29.586 120.207 28.706 121.204C27.8407 122.201 26.5133 122.7 24.724 122.7H20.104V126H16.034V110.82H24.68C26.572 110.82 27.936 111.267 28.772 112.162C29.608 113.042 30.026 114.509 30.026 116.562ZM23.646 114.076H20.104V119.444H23.69C24.4527 119.444 25.0173 119.231 25.384 118.806C25.7507 118.381 25.934 117.669 25.934 116.672C25.934 115.645 25.7727 114.956 25.45 114.604C25.1273 114.252 24.526 114.076 23.646 114.076ZM42.3006 126.33C40.306 126.33 38.656 126.213 37.3506 125.978C36.0453 125.729 34.9526 125.296 34.0726 124.68C33.2073 124.064 32.5913 123.257 32.2246 122.26C31.858 121.263 31.6746 119.987 31.6746 118.432C31.6746 116.848 31.8726 115.543 32.2686 114.516C32.6646 113.475 33.3173 112.661 34.2266 112.074C35.136 111.473 36.2213 111.062 37.4826 110.842C38.7586 110.607 40.3646 110.49 42.3006 110.49C44.2513 110.49 45.8573 110.607 47.1186 110.842C48.3946 111.062 49.4873 111.473 50.3966 112.074C51.306 112.661 51.9586 113.475 52.3546 114.516C52.7506 115.543 52.9486 116.848 52.9486 118.432C52.9486 119.987 52.758 121.263 52.3766 122.26C52.01 123.257 51.3866 124.064 50.5066 124.68C49.6413 125.296 48.556 125.729 47.2506 125.978C45.96 126.213 44.31 126.33 42.3006 126.33ZM39.7926 122.326C40.4086 122.414 41.2446 122.458 42.3006 122.458C43.3566 122.458 44.1853 122.414 44.7866 122.326C45.4026 122.223 45.9233 122.025 46.3486 121.732C46.7886 121.439 47.082 121.035 47.2286 120.522C47.39 120.009 47.4706 119.312 47.4706 118.432C47.4706 117.523 47.39 116.804 47.2286 116.276C47.082 115.748 46.7886 115.345 46.3486 115.066C45.9233 114.773 45.41 114.582 44.8086 114.494C44.2073 114.406 43.3713 114.362 42.3006 114.362C41.2153 114.362 40.3793 114.406 39.7926 114.494C39.206 114.567 38.6926 114.751 38.2526 115.044C37.8126 115.337 37.512 115.748 37.3506 116.276C37.204 116.804 37.1306 117.523 37.1306 118.432C37.1306 119.312 37.204 120.009 37.3506 120.522C37.512 121.035 37.8053 121.439 38.2306 121.732C38.6706 122.025 39.1913 122.223 39.7926 122.326ZM69.1092 121.688C69.1092 124.783 66.7552 126.33 62.0472 126.33C59.3632 126.33 57.4492 125.839 56.3052 124.856C55.1612 123.859 54.5378 122.179 54.4352 119.818H58.4612C58.5492 121.079 58.8425 121.915 59.3412 122.326C59.8545 122.722 60.7345 122.92 61.9812 122.92C63.0518 122.92 63.8218 122.795 64.2912 122.546C64.7752 122.282 65.0172 121.864 65.0172 121.292C65.0172 120.764 64.8632 120.39 64.5552 120.17C64.2472 119.935 63.6752 119.818 62.8392 119.818H60.5952V116.804H62.6852C63.9612 116.804 64.5992 116.327 64.5992 115.374C64.5992 114.846 64.3865 114.472 63.9612 114.252C63.5358 114.017 62.8318 113.9 61.8492 113.9C60.7052 113.9 59.8838 114.091 59.3852 114.472C58.9012 114.839 58.6518 115.587 58.6372 116.716H54.6552C54.6698 114.487 55.2565 112.895 56.4152 111.942C57.5885 110.974 59.4145 110.49 61.8932 110.49C64.2252 110.49 65.9412 110.849 67.0412 111.568C68.1412 112.287 68.6912 113.409 68.6912 114.934C68.6912 116.577 67.8038 117.611 66.0292 118.036V118.256C67.0412 118.417 67.8038 118.799 68.3172 119.4C68.8452 119.987 69.1092 120.749 69.1092 121.688ZM83.1852 120.742C83.1852 122.531 82.7452 123.859 81.8652 124.724C80.9999 125.575 79.6726 126 77.8832 126H70.7332V110.82H74.8032V115.836H77.8392C79.7312 115.836 81.0952 116.217 81.9312 116.98C82.7672 117.743 83.1852 118.997 83.1852 120.742ZM88.4652 110.82V126H84.3952V110.82H88.4652ZM76.9592 119.092H74.8032V122.744H77.0032C77.7219 122.744 78.2499 122.605 78.5872 122.326C78.9246 122.033 79.0932 121.541 79.0932 120.852C79.0932 120.163 78.9392 119.701 78.6312 119.466C78.3379 119.217 77.7806 119.092 76.9592 119.092ZM102.642 110.82V114.34H94.6118V126H90.5418V110.82H102.642ZM118.026 116.562C118.026 118.659 117.586 120.207 116.706 121.204C115.841 122.201 114.513 122.7 112.724 122.7H108.104V126H104.034V110.82H112.68C114.572 110.82 115.936 111.267 116.772 112.162C117.608 113.042 118.026 114.509 118.026 116.562ZM111.646 114.076H108.104V119.444H111.69C112.453 119.444 113.017 119.231 113.384 118.806C113.751 118.381 113.934 117.669 113.934 116.672C113.934 115.645 113.773 114.956 113.45 114.604C113.127 114.252 112.526 114.076 111.646 114.076ZM132.127 120.742C132.127 122.531 131.687 123.859 130.807 124.724C129.941 125.575 128.614 126 126.825 126H119.675V110.82H123.745V115.836H126.781C128.673 115.836 130.037 116.217 130.873 116.98C131.709 117.743 132.127 118.997 132.127 120.742ZM137.407 110.82V126H133.337V110.82H137.407ZM125.901 119.092H123.745V122.744H125.945C126.663 122.744 127.191 122.605 127.529 122.326C127.866 122.033 128.035 121.541 128.035 120.852C128.035 120.163 127.881 119.701 127.573 119.466C127.279 119.217 126.722 119.092 125.901 119.092ZM143.553 110.82V122.48H147.447V110.82H151.363V122.48H155.257V110.82H159.327V126H139.483V110.82H143.553ZM165.445 110.82V119.708L172.243 110.82H175.499V126H171.451V117.2L164.565 126H161.397V110.82H165.445Z" fill="white"/>
</g>
<path d="M18.5479 101.458V86.1281H22.1837V94.3214L25.5665 86.1362H29.759L29.9923 94.4785L33.59 86.1362H37.9095L30.8158 101.458H26.6325L26.4189 92.9397L22.8062 101.458H18.5479Z" fill="#FDF74B"/>
<path d="M44.1266 86.1281V101.458H40.3037V92.2072H37.4475L40.2587 86.1281H44.1266Z" fill="#FDF74B"/>
<path d="M66.3446 86.0242L64.3777 90.2756H60.3989V101.471H56.3958L50.3358 91.9531V101.471H46.4863V86.0242H50.4455L56.5483 95.5633V86.0242H66.3446Z" fill="#FDF74B"/>
<path d="M97.2177 89.6356C96.6494 88.3659 95.7705 87.3851 94.5821 86.6919C93.3924 85.9999 91.9603 85.6533 90.2833 85.6533C88.6063 85.6533 87.1695 86.0034 85.9742 86.7035C84.7788 87.4036 83.8964 88.396 83.327 89.6795C82.8026 90.8902 82.5393 92.2604 82.5393 93.7923C82.5393 94.668 82.6271 95.4882 82.8027 96.2542C82.9771 97.0201 83.2323 97.7017 83.5684 98.3001C84.1505 99.467 85.0155 100.365 86.1601 100.991C87.3047 101.618 88.6791 101.932 90.2833 101.932C91.8875 101.932 93.3901 101.589 94.5705 100.904C95.752 100.218 96.6275 99.2405 97.1957 97.972C97.7351 96.7613 98.0053 95.3681 98.0053 93.7923C98.0053 92.2165 97.7432 90.8752 97.2177 89.6356ZM94.6837 94.006C92.4835 94.7038 91.2777 96.9427 90.7072 98.4226H90.2729V93.7934H85.861V93.5797C88.0612 92.8831 89.2646 90.6453 89.8375 89.1631H90.2729V93.7934H94.6837V94.006Z" fill="#FDF74B"/>
<path d="M113.103 86.0693L107.306 101.516H103.303L97.4845 86.0693H101.684L105.293 96.7255L108.924 86.0693H113.103Z" fill="#FDF74B"/>
<path d="M113.878 86.0693H124.115V89.3075H117.837V92.1298H124.05V95.2364H117.837V98.2782H124.115V101.516H113.878V86.0693Z" fill="#FDF74B"/>
<path d="M80.9744 86.1732L80.9756 101.503H77.3386V93.3094L73.9557 101.494H69.7633L69.5311 93.1522L65.9334 101.494H61.6127L68.7065 86.1732H72.8897L73.1034 94.6911L76.7172 86.1732H80.9744Z" fill="#FDF74B"/>
</g>
<g filter="url(#filter4_d_790_86929)">
<path d="M210.009 84.3419C209.896 84.2079 209.795 84.0873 209.708 83.9839C209.717 83.9153 209.726 83.8401 209.736 83.7583C209.798 83.2762 209.899 82.5698 210.058 81.6873C210.376 79.921 210.923 77.4567 211.835 74.6778C213.667 69.1013 216.939 62.3592 222.696 57.4033C228.449 52.4505 235.612 50.2592 241.41 49.3195C244.3 48.8512 246.824 48.698 248.622 48.6619C249.521 48.6439 250.236 48.6551 250.723 48.6706C250.812 48.6734 250.892 48.6763 250.965 48.6793C251.02 48.7395 251.079 48.8059 251.143 48.8775C251.46 49.2305 251.884 49.7088 252.319 50.2124C252.755 50.7179 253.193 51.2397 253.541 51.682C253.715 51.9037 253.859 52.0953 253.965 52.2487C254.051 52.3731 254.09 52.4398 254.102 52.4603C254.106 52.4685 254.107 52.4693 254.104 52.4635C255.408 55.5581 254.982 59.9112 252.774 64.7703C250.584 69.5918 246.716 74.7229 241.483 79.2273C236.431 83.5764 231.066 86.7268 226.187 88.3833C221.271 90.052 217.039 90.1452 214.09 88.6898C214.091 88.6906 214.09 88.6898 214.086 88.687C214.066 88.6738 213.979 88.616 213.812 88.4725C213.63 88.3153 213.407 88.1041 213.152 87.8484C212.644 87.3382 212.057 86.6966 211.492 86.0589C210.929 85.4237 210.399 84.8038 210.009 84.3419Z" fill="url(#paint1_radial_790_86929)" stroke="url(#paint2_linear_790_86929)" stroke-width="2.5017"/>
<ellipse cx="230.108" cy="66.1951" rx="27.9542" ry="11.8954" transform="rotate(-40.7243 230.108 66.1951)" fill="url(#paint3_radial_790_86929)" stroke="url(#paint4_linear_790_86929)" stroke-width="2.5017"/>
<path d="M236.942 58.5431C238.764 56.1096 237.52 55.3871 235.282 55.2761L238.106 51.8857L236.222 51.9807L233.471 55.2817C232.976 55.3067 232.46 55.3429 231.948 55.3792L234.717 52.0563L232.833 52.1509L230.009 55.5404C229.593 55.57 229.185 55.5985 228.794 55.6184L228.803 55.6079L226.204 55.7376L224.368 57.9417C224.368 57.9417 225.784 57.8427 225.738 57.8719C226.501 57.8338 226.345 58.3065 226.068 58.7217L222.85 62.584C222.903 62.5817 222.97 62.5806 223.038 62.5884C222.975 62.5916 222.908 62.5945 222.838 62.5987L218.33 68.0094C218.077 68.2742 217.586 68.7007 217.052 68.7286C217.057 68.7508 215.682 68.7971 215.682 68.7971L213.254 71.2805L215.707 71.157C216.163 71.1347 216.605 71.1206 217.043 71.1015L214.187 74.5304L216.07 74.4361L218.896 71.0433C219.404 71.0291 219.9 71.0084 220.389 70.9833L217.574 74.3605L219.459 74.2655L222.312 70.8426C225.646 70.4842 228.592 69.4986 231.582 66.2267C233.99 63.592 233.839 62.4781 232.434 62.0956C234.034 61.4314 235.612 60.3236 236.942 58.5431ZM228.197 66.0076C226.063 68.57 222.298 68.4801 221.02 68.5456L224.806 64.0024C226.083 63.9385 230.424 63.3349 228.197 66.0076ZM232.661 59.6419C230.718 61.9732 227.602 61.8692 226.538 61.9228L229.972 57.8024C231.036 57.7488 234.686 57.2102 232.661 59.6419Z" fill="white"/>
<path d="M239.872 127.421C267.02 115.595 234.643 107.876 234.643 107.876L237.398 107.628L236.72 105.476L239.423 105.56L238.796 103.076L241.294 103.128L240.489 100.956L242.656 100.956L242.235 98.5043C242.235 98.5043 250.191 97.7411 255.352 107.25C260.529 116.789 245.427 126.579 239.872 127.421Z" fill="url(#paint5_linear_790_86929)" stroke="url(#paint6_linear_790_86929)" stroke-width="2.10218"/>
<path d="M284.947 86.6934L227.83 126.204L254.805 157.46L316.732 164.259L303.803 123.644L284.947 86.6934Z" fill="url(#paint7_linear_790_86929)" stroke="url(#paint8_linear_790_86929)" stroke-width="2.06176"/>
<path d="M351.526 86.3822L284.946 86.6931L301.729 139.412L349.629 108.907L351.526 86.3822Z" fill="url(#paint9_linear_790_86929)" stroke="url(#paint10_linear_790_86929)" stroke-width="2.06176"/>
<g opacity="0.2" filter="url(#filter5_f_790_86929)">
<ellipse cx="50.7687" cy="35.6866" rx="50.7687" ry="35.6866" transform="matrix(-0.984104 0.177595 -0.123104 -0.992394 352.337 147.968)" fill="#FDF74B"/>
</g>
<path d="M351.451 86.7025L304.007 123.727L319.761 173.218L350.763 138.021L351.451 86.7025Z" fill="url(#paint11_linear_790_86929)" stroke="url(#paint12_linear_790_86929)" stroke-width="2.06176"/>
<path d="M237.814 119.245L237.814 119.69C233.18 121.154 230.64 125.842 229.436 128.942L228.521 128.942L228.521 119.245L237.814 119.245Z" fill="#FDF74B"/>
<path d="M228.521 109.544L228.521 119.246L219.228 119.246L219.228 118.796C223.862 117.337 226.397 112.649 227.606 109.544L228.521 109.544Z" fill="#FDF74B"/>
<path d="M227.627 126.121L304.168 123.676L319.923 173.167L260.978 166.023L227.627 126.121Z" fill="url(#paint13_linear_790_86929)" stroke="url(#paint14_linear_790_86929)" stroke-width="2.06176"/>
<path d="M261.865 124.334L287.042 169.204L297.512 170.45L278.862 118.6L261.865 124.334Z" fill="url(#paint15_linear_790_86929)" stroke="url(#paint16_linear_790_86929)" stroke-width="2.06176"/>
<path d="M279.686 78.1226L280.724 79.1471L282.229 78.4782L283.788 79.7443L285.305 78.8737L286.719 80.3176L288.132 79.4537L289.108 80.808L290.217 80.0631L290.952 81.1466L296.254 63.2789C297.474 60.4689 300.021 60.1155 301.842 60.2775L293.167 58.4868C293.167 58.4868 287.588 57.2164 285.642 57.5076C283.7 57.7947 282.851 61.0626 282.851 61.0626L278.085 78.6264L279.69 78.1184L279.686 78.1226Z" fill="url(#paint17_linear_790_86929)" stroke="url(#paint18_linear_790_86929)" stroke-width="1.69078"/>
<path d="M301.071 50.6421C301.071 50.6421 312.534 47.6256 323.41 40.6998C331.331 35.6549 328.777 34.2848 328.777 34.2848C328.777 34.2848 331.233 34.8837 332.512 35.2034C337.222 36.3675 340.695 40.2816 341.676 44.1206C342.026 45.4981 341.989 47.0147 341.689 48.5696C340.103 56.8927 331.823 62.6833 322.489 62.2867L307.759 61.6637L299.975 55.5912L301.071 50.6421Z" fill="url(#paint19_linear_790_86929)" stroke="url(#paint20_linear_790_86929)" stroke-width="1.69078"/>
<g style="mix-blend-mode:multiply" opacity="0.15">
<path d="M340.027 40.5302C339.258 41.9735 338.434 43.3857 337.38 44.6691C334.208 48.5149 329.205 50.8488 324.034 51.9761C320.197 52.8266 316.212 53.0555 312.26 53.1431C310.59 53.1817 308.949 53.0703 307.358 53.5273C305.884 53.952 304.009 54.0814 302.739 54.9182C302.045 55.3742 301.555 56.1735 301.77 56.9382C301.778 56.9641 301.786 56.9858 301.795 57.0074L305.476 59.8809C307.245 60.7769 309.179 61.4051 311.155 61.8062L321.714 62.255C321.83 62.2442 321.951 62.2378 322.068 62.2313C325.169 61.9865 328.283 61.5356 331.264 60.7513C336.602 58.5351 340.634 54.116 341.689 48.5685C341.986 47.0134 342.027 45.4968 341.677 44.1192C341.367 42.9014 340.803 41.6747 340.027 40.5302Z" fill="#58238B"/>
</g>
<path d="M332.512 35.1989C331.233 34.8834 328.777 34.2802 328.777 34.2802C328.777 34.2802 331.331 35.6461 323.41 40.6957C312.534 47.622 301.07 50.6387 301.07 50.6387L301.019 50.8785C307.228 50.2342 315.517 47.9424 321.735 45.2134C327.344 42.7528 333.625 39.6467 335.821 36.5612C334.81 35.9626 333.702 35.4955 332.512 35.1989Z" fill="url(#paint21_linear_790_86929)" stroke="url(#paint22_linear_790_86929)" stroke-width="1.69078"/>
<path d="M288.693 48.7268C288.693 48.7268 280.813 40.3965 275.696 29.0775C271.972 20.831 274.91 20.9744 274.91 20.9744C274.91 20.9744 272.5 20.2388 271.239 19.8593C266.603 18.4559 261.413 19.9911 258.356 22.721C257.26 23.6983 256.417 24.9939 255.76 26.452C252.261 34.2456 255.854 43.3021 263.928 47.6859L276.669 54.6083L286.739 53.4365L288.693 48.7225L288.693 48.7268Z" fill="url(#paint23_linear_790_86929)" stroke="url(#paint24_linear_790_86929)" stroke-width="1.69078"/>
<g style="mix-blend-mode:multiply" opacity="0.15">
<path d="M261.825 20.5401C261.632 22.1441 261.507 23.745 261.65 25.3551C262.082 30.1895 264.932 34.6766 268.622 38.2419C271.355 40.8959 274.57 43.1031 277.839 45.1736C279.22 46.0496 280.664 46.7849 281.738 47.9777C282.731 49.0787 284.229 50.1373 284.808 51.4802C285.127 52.2123 285.071 53.1354 284.449 53.6657C284.431 53.6825 284.409 53.695 284.388 53.7118L279.621 54.2661C277.614 54.1223 275.625 53.6738 273.731 53.012L264.598 48.0503C264.505 47.9841 264.411 47.918 264.317 47.8518C261.853 46.0795 259.5 44.1243 257.444 41.9596C254.247 37.4018 253.426 31.6491 255.76 26.452C256.417 24.994 257.26 23.7026 258.356 22.721C259.325 21.8531 260.512 21.1095 261.825 20.5359L261.825 20.5401Z" fill="#5C2591"/>
</g>
<path d="M271.24 19.8617C272.501 20.2413 274.911 20.9768 274.911 20.9768C274.911 20.9768 271.973 20.8334 275.697 29.0796C280.809 40.3982 288.694 48.7282 288.694 48.7282L288.599 48.9543C283.755 45.2737 278.12 39.159 274.477 33.7251C271.195 28.822 267.719 23.0387 267.666 19.333C268.865 19.3417 270.07 19.5053 271.236 19.8617L271.24 19.8617Z" fill="url(#paint25_linear_790_86929)" stroke="url(#paint26_linear_790_86929)" stroke-width="1.69078"/>
<path d="M286.971 52.1951C286.971 52.1951 288.088 43.7875 297.617 46.7543C304.419 48.8721 301.37 56.0927 301.37 56.0927L286.971 52.1951Z" fill="url(#paint27_linear_790_86929)" stroke="url(#paint28_linear_790_86929)" stroke-width="1.69078"/>
<path d="M241.044 53.8974L250.817 66.1472L259.751 53.8077L247.841 48.7435L241.044 53.8974Z" fill="url(#paint29_linear_790_86929)" stroke="url(#paint30_linear_790_86929)" stroke-width="1.69078"/>
<path d="M255.96 54.5686L250.817 66.1485L332.083 84.835L327.758 65.3379L255.96 54.5686Z" fill="url(#paint31_linear_790_86929)" stroke="url(#paint32_linear_790_86929)" stroke-width="1.69078"/>
<path d="M345.479 77.6918L332.085 84.836L327.24 67.5358L337.601 69.3659L345.479 77.6918Z" fill="url(#paint33_linear_790_86929)" stroke="url(#paint34_linear_790_86929)" stroke-width="1.69078"/>
<path d="M251.752 43.5028L241.351 53.9258L345.478 77.6916L337.838 60.4076L251.752 43.5028Z" fill="url(#paint35_linear_790_86929)" stroke="url(#paint36_linear_790_86929)" stroke-width="1.69078"/>
<path d="M300.491 71.8359L310.713 73.9127L315.428 56.0258L300.718 52.9006C300.718 52.9006 296.84 65.3662 298.397 70.0788C298.687 70.9608 299.498 71.6331 300.491 71.8316L300.491 71.8359Z" fill="url(#paint37_linear_790_86929)" stroke="url(#paint38_linear_790_86929)" stroke-width="1.69078"/>
<path d="M320.277 60.0461L319.266 59.0006L317.854 59.8143L316.658 58.2766L315.324 59.411L314.367 57.8102C313.389 58.0916 312.842 58.2494 311.864 58.5308L310.924 57.1557L309.798 57.8744L309.093 56.7743L304.909 68.7962C303.611 71.579 301.395 71.745 299.574 71.5443C299.574 71.5443 313.415 75.045 315.369 74.8011C317.319 74.5572 318.254 71.308 318.254 71.308L321.895 59.5813L320.277 60.0504L320.277 60.0461Z" fill="url(#paint39_linear_790_86929)" stroke="url(#paint40_linear_790_86929)" stroke-width="1.69078"/>
<path d="M232.531 187.144C232.222 186.988 231.967 186.858 231.789 186.766C231.749 186.668 231.699 186.543 231.641 186.394C231.478 185.973 231.252 185.357 231.003 184.582C230.506 183.03 229.921 180.85 229.573 178.34C228.872 173.288 229.147 167.05 232.798 161.872C236.447 156.697 242.856 153.53 248.501 151.652C251.306 150.719 253.878 150.118 255.75 149.751C256.685 149.568 257.442 149.443 257.963 149.365C258.154 149.336 258.313 149.314 258.437 149.297C258.575 149.363 258.758 149.45 258.974 149.553C259.472 149.792 260.143 150.117 260.838 150.462C261.535 150.808 262.248 151.171 262.833 151.485C263.454 151.82 263.832 152.05 263.942 152.142C266.905 154.628 268.15 158.453 267.783 162.925C267.416 167.394 265.441 172.429 262.088 177.183C255.558 186.444 247.038 191.556 239.106 190.133C238.9 190.096 238.346 189.896 237.51 189.532C236.721 189.19 235.792 188.753 234.899 188.319C234.007 187.887 233.158 187.462 232.531 187.144Z" fill="url(#paint41_radial_790_86929)" stroke="url(#paint42_linear_790_86929)" stroke-width="1.94715"/>
<ellipse cx="23.932" cy="14.1153" rx="23.932" ry="14.1153" transform="matrix(0.57629 -0.817246 0.895297 0.44547 218.904 181.168)" fill="url(#paint43_radial_790_86929)" stroke="url(#paint44_linear_790_86929)" stroke-width="1.94715"/>
<path d="M242.567 154.005L250.623 161.272C252.105 162.609 251.185 165.622 248.937 166.701L233.939 173.9C232.96 174.37 232.147 173.637 232.477 172.581L237.53 156.411C238.286 153.991 241.086 152.669 242.566 154.004L242.567 154.005ZM236.949 170.4L240.47 168.535L248.519 164.556C249.04 164.306 249.273 163.595 248.912 163.269L245.619 160.299L236.949 170.402L236.949 170.4ZM239.662 156.564L236.835 165.258L235.48 169.074L244.15 158.971L240.857 156.001C240.496 155.675 239.837 156.003 239.662 156.564Z" fill="white"/>
<g filter="url(#filter6_f_790_86929)">
<circle cx="279.834" cy="107.751" r="25.8173" transform="rotate(5.26932 279.834 107.751)" fill="#FEF963"/>
</g>
<path d="M318.055 106.971L318.224 105.146L316.533 104.437C297.378 96.4051 288.163 75.2307 284.038 60.8048L283.568 59.1604L281.865 59.0038L273.61 58.2447L271.907 58.088L271.143 59.619C264.442 73.0493 251.498 92.1862 231.193 96.5891L229.401 96.9776L229.232 98.8032L228.859 102.838L228.69 104.662L230.379 105.371C249.535 113.422 258.769 134.601 262.875 149L263.344 150.646L265.049 150.803L273.303 151.562L275.008 151.718L275.771 150.186C282.45 136.779 295.413 117.641 315.723 113.219L317.513 112.83L317.681 111.005L318.055 106.971Z" fill="url(#paint45_linear_790_86929)" stroke="url(#paint46_linear_790_86929)" stroke-width="5"/>
<path d="M315.379 108.758L315.194 110.759C293.528 115.431 280.038 135.542 273.282 149.049L269.122 148.666L273.172 104.877L315.379 108.758Z" fill="url(#paint47_linear_790_86929)"/>
<path d="M277.222 61.0874L273.172 104.877L231.535 101.048L231.723 99.0159C253.102 94.3527 266.419 74.2329 273.119 60.71L277.222 61.0874Z" fill="url(#paint48_linear_790_86929)"/>
<g filter="url(#filter7_f_790_86929)">
<circle cx="288.598" cy="108.558" r="12.9086" transform="rotate(5.26932 288.598 108.558)" fill="white"/>
</g>
<path d="M295.59 98.0409L295.637 97.543L295.139 97.4972L290.099 97.0338L289.773 97.0038L289.615 97.2907L285.52 104.725L286.024 97.1482L286.057 96.6621L285.571 96.6174L280.621 96.1622L280.307 96.1333L280.145 96.4047L270.12 113.26L269.715 113.941L270.504 114.013L275.615 114.483L275.939 114.513L276.098 114.229L280.168 106.947L279.696 114.371L279.665 114.855L280.149 114.9L285.11 115.356L285.44 115.386L285.597 115.095L289.307 108.207L288.661 115.189L288.615 115.687L289.113 115.732L293.415 116.128L293.913 116.174L293.959 115.676L295.59 98.0409Z" fill="url(#paint49_linear_790_86929)" stroke="url(#paint50_linear_790_86929)"/>
<path d="M257.046 101.542L257.692 94.5555L257.738 94.0577L257.24 94.0119L252.931 93.6156L252.433 93.5698L252.387 94.0677L250.756 111.703L250.71 112.201L251.208 112.246L256.255 112.71L256.581 112.74L256.739 112.454L260.841 105.019L260.337 112.597L260.305 113.083L260.79 113.128L265.748 113.583L266.062 113.612L266.224 113.341L272.209 103.294L272.615 102.613L271.825 102.541L269.484 102.325L276.512 96.6544L277.472 95.8803L276.244 95.7675L270.759 95.2631L270.435 95.2333L270.277 95.517L266.199 102.805L266.67 95.3746L266.701 94.8899L266.217 94.8454L261.249 94.3886L260.92 94.3583L260.763 94.6493L257.046 101.542Z" fill="url(#paint51_linear_790_86929)" stroke="url(#paint52_linear_790_86929)"/>
<path d="M356.957 78.5564V79.1093C351.197 80.9282 348.04 86.7548 346.543 90.6081H345.407V78.5564H356.957Z" fill="#FDF74B"/>
<path d="M345.407 66.4988V78.5563H333.856V77.9976C339.616 76.1845 342.767 70.3578 344.27 66.4988H345.407Z" fill="#FDF74B"/>
<path d="M310.353 176.272V177.051C302.237 179.614 297.789 187.825 295.679 193.254H294.078V176.272H310.353Z" fill="#FDF74B"/>
<path d="M294.078 159.282V176.272H277.802V175.485C285.918 172.93 290.359 164.72 292.476 159.282H294.078Z" fill="#FDF74B"/>
<path d="M339.547 151.428C337.613 143.849 329.164 117.192 330.897 106.8L333.668 109.554C334.911 110.93 335.726 111.98 335.726 111.98L336.235 109.947L337.76 110.709L338.014 108.676L339.793 109.439L340.047 107.563L341.572 108.422L341.826 106.8L343.605 107.405C343.605 107.405 343.44 103.304 336.954 98.3167C330.777 93.5672 323.791 100.881 322.005 105.107C321.918 105.306 321.838 105.521 321.764 105.755C319.128 114.127 318.868 113.261 330.693 163.379L339.547 151.428Z" fill="url(#paint53_linear_790_86929)"/>
<path d="M335.726 111.98C335.726 111.98 324.401 97.3836 321.764 105.755M335.726 111.98L334.455 110.337L330.897 106.8C329.164 117.192 337.613 143.849 339.547 151.428L330.693 163.379C318.868 113.261 319.128 114.127 321.764 105.755M335.726 111.98L336.235 109.947L337.76 110.709L338.014 108.676L339.793 109.439L340.047 107.563L341.572 108.422L341.826 106.8L343.605 107.405C343.605 107.405 343.44 103.304 336.954 98.3167C330.447 93.3136 323.042 101.696 321.764 105.755" stroke="url(#paint54_linear_790_86929)" stroke-width="2.10218"/>
<path d="M331.268 133.325C331.421 133.266 331.559 133.213 331.68 133.167C331.738 133.19 331.801 133.216 331.868 133.244C332.333 133.436 333.013 133.727 333.853 134.12C335.536 134.907 337.857 136.097 340.398 137.704C345.5 140.93 351.383 145.769 354.845 152.312C358.304 158.85 358.652 165.869 358.099 171.323C357.823 174.04 357.327 176.34 356.9 177.959C356.687 178.767 356.492 179.404 356.351 179.834C356.331 179.896 356.312 179.954 356.294 180.008C356.174 180.056 356.037 180.111 355.885 180.171C355.325 180.394 354.571 180.691 353.788 180.991C353.003 181.291 352.2 181.589 351.539 181.816C351.208 181.929 350.925 182.021 350.704 182.085C350.542 182.131 350.453 182.152 350.42 182.159C350.4 182.163 350.4 182.164 350.414 182.162C347.056 182.442 343.183 180.775 339.224 177.324C335.294 173.897 331.472 168.867 328.297 162.866C325.253 157.111 323.488 151.421 323.089 146.594C322.688 141.731 323.683 137.938 325.882 135.729C325.879 135.732 325.88 135.731 325.887 135.726C325.908 135.711 325.986 135.652 326.16 135.551C326.363 135.433 326.631 135.294 326.952 135.139C327.592 134.831 328.385 134.487 329.168 134.163C329.949 133.84 330.705 133.543 331.268 133.325Z" fill="url(#paint55_radial_790_86929)" stroke="url(#paint56_linear_790_86929)" stroke-width="2.64482"/>
<ellipse cx="27.3553" cy="11.863" rx="27.3553" ry="11.863" transform="matrix(0.467655 0.883911 -0.929264 0.369416 342.434 127.856)" fill="url(#paint57_radial_790_86929)" stroke="url(#paint58_linear_790_86929)" stroke-width="2.64482"/>
<path fill-rule="evenodd" clip-rule="evenodd" d="M342.76 153.971L342.758 153.969C342.705 154.061 342.426 154.529 341.757 155.5C341.223 156.276 340.829 156.793 340.689 156.974L340.691 156.977C338.528 159.8 336.573 161.387 336.069 160.62C335.566 159.854 336.68 156.984 338.628 153.834L340.272 156.338C340.417 156.16 340.829 155.642 341.361 154.87C341.999 153.943 342.288 153.431 342.342 153.335L340.699 150.831C342.858 148.016 344.81 146.434 345.312 147.199C345.816 147.966 344.704 150.829 342.76 153.971ZM340.528 150.571L339.057 148.329L341.92 144.172L339.677 140.755L331.881 152.074L334.124 155.491L336.987 151.334L338.458 153.574C336.256 157.144 335.049 160.511 335.698 161.5C336.347 162.489 338.638 160.773 341.091 157.587L345.805 164.769L347.874 161.764L343.159 154.58C345.357 151.016 346.561 147.656 345.913 146.668C345.264 145.68 342.977 147.39 340.528 150.571Z" fill="white"/>
</g>
</g>
<defs>
<filter id="filter0_f_790_86929" x="-437.8" y="-282.8" width="714.6" height="628.6" filterUnits="userSpaceOnUse" color-interpolation-filters="sRGB">
<feFlood flood-opacity="0" result="BackgroundImageFix"/>
<feBlend mode="normal" in="SourceGraphic" in2="BackgroundImageFix" result="shape"/>
<feGaussianBlur stdDeviation="74.9" result="effect1_foregroundBlur_790_86929"/>
</filter>
<filter id="filter1_f_790_86929" x="24" y="-150" width="859" height="735" filterUnits="userSpaceOnUse" color-interpolation-filters="sRGB">
<feFlood flood-opacity="0" result="BackgroundImageFix"/>
<feBlend mode="normal" in="SourceGraphic" in2="BackgroundImageFix" result="shape"/>
<feGaussianBlur stdDeviation="100" result="effect1_foregroundBlur_790_86929"/>
</filter>
<filter id="filter2_d_790_86929" x="-6.58301" y="64.1924" width="204.7" height="85.911" filterUnits="userSpaceOnUse" color-interpolation-filters="sRGB">
<feFlood flood-opacity="0" result="BackgroundImageFix"/>
<feColorMatrix in="SourceAlpha" type="matrix" values="0 0 0 0 0 0 0 0 0 0 0 0 0 0 0 0 0 0 127 0" result="hardAlpha"/>
<feOffset dy="1.15624"/>
<feGaussianBlur stdDeviation="11.3086"/>
<feComposite in2="hardAlpha" operator="out"/>
<feColorMatrix type="matrix" values="0 0 0 0 0 0 0 0 0 0 0 0 0 0 0 0 0 0 0.5 0"/>
<feBlend mode="normal" in2="BackgroundImageFix" result="effect1_dropShadow_790_86929"/>
<feBlend mode="normal" in="SourceGraphic" in2="effect1_dropShadow_790_86929" result="shape"/>
</filter>
<filter id="filter3_d_790_86929" x="-6.58301" y="89.0291" width="204.7" height="61.0744" filterUnits="userSpaceOnUse" color-interpolation-filters="sRGB">
<feFlood flood-opacity="0" result="BackgroundImageFix"/>
<feColorMatrix in="SourceAlpha" type="matrix" values="0 0 0 0 0 0 0 0 0 0 0 0 0 0 0 0 0 0 127 0" result="hardAlpha"/>
<feOffset dy="1.15624"/>
<feGaussianBlur stdDeviation="11.3086"/>
<feComposite in2="hardAlpha" operator="out"/>
<feColorMatrix type="matrix" values="0 0 0 0 0 0 0 0 0 0 0 0 0 0 0 0 0 0 0.5 0"/>
<feBlend mode="normal" in2="BackgroundImageFix" result="effect1_dropShadow_790_86929"/>
<feBlend mode="normal" in="SourceGraphic" in2="effect1_dropShadow_790_86929" result="shape"/>
</filter>
<filter id="filter4_d_790_86929" x="183.672" y="-2.97969" width="201.412" height="220.007" filterUnits="userSpaceOnUse" color-interpolation-filters="sRGB">
<feFlood flood-opacity="0" result="BackgroundImageFix"/>
<feColorMatrix in="SourceAlpha" type="matrix" values="0 0 0 0 0 0 0 0 0 0 0 0 0 0 0 0 0 0 127 0" result="hardAlpha"/>
<feOffset dy="1.15624"/>
<feGaussianBlur stdDeviation="11.3086"/>
<feComposite in2="hardAlpha" operator="out"/>
<feColorMatrix type="matrix" values="0 0 0 0 0 0 0 0 0 0 0 0 0 0 0 0 0 0 0.5 0"/>
<feBlend mode="normal" in2="BackgroundImageFix" result="effect1_dropShadow_790_86929"/>
<feBlend mode="normal" in="SourceGraphic" in2="effect1_dropShadow_790_86929" result="shape"/>
</filter>
<filter id="filter5_f_790_86929" x="200.972" y="38.1625" width="194.02" height="166.812" filterUnits="userSpaceOnUse" color-interpolation-filters="sRGB">
<feFlood flood-opacity="0" result="BackgroundImageFix"/>
<feBlend mode="normal" in="SourceGraphic" in2="BackgroundImageFix" result="shape"/>
<feGaussianBlur stdDeviation="23.4263" result="effect1_foregroundBlur_790_86929"/>
</filter>
<filter id="filter6_f_790_86929" x="184.015" y="11.9316" width="191.638" height="191.638" filterUnits="userSpaceOnUse" color-interpolation-filters="sRGB">
<feFlood flood-opacity="0" result="BackgroundImageFix"/>
<feBlend mode="normal" in="SourceGraphic" in2="BackgroundImageFix" result="shape"/>
<feGaussianBlur stdDeviation="35" result="effect1_foregroundBlur_790_86929"/>
</filter>
<filter id="filter7_f_790_86929" x="205.688" y="25.649" width="165.819" height="165.819" filterUnits="userSpaceOnUse" color-interpolation-filters="sRGB">
<feFlood flood-opacity="0" result="BackgroundImageFix"/>
<feBlend mode="normal" in="SourceGraphic" in2="BackgroundImageFix" result="shape"/>
<feGaussianBlur stdDeviation="35" result="effect1_foregroundBlur_790_86929"/>
</filter>
<linearGradient id="paint0_linear_790_86929" x1="369" y1="0" x2="14.924" y2="240.932" gradientUnits="userSpaceOnUse">
<stop stop-color="#32343A"/>
<stop offset="0.480794" stop-color="#0C0E14"/>
<stop offset="1" stop-color="#32343A"/>
</linearGradient>
<radialGradient id="paint1_radial_790_86929" cx="0" cy="0" r="1" gradientUnits="userSpaceOnUse" gradientTransform="translate(232.019 68.3764) rotate(139.276) scale(51.5458 20.9715)">
<stop stop-color="#46484E"/>
<stop offset="1"/>
</radialGradient>
<linearGradient id="paint2_linear_790_86929" x1="238.852" y1="32.6519" x2="263.941" y2="90.3566" gradientUnits="userSpaceOnUse">
<stop/>
<stop offset="0.470537" stop-color="#787A80"/>
<stop offset="1"/>
</linearGradient>
<radialGradient id="paint3_radial_790_86929" cx="0" cy="0" r="1" gradientUnits="userSpaceOnUse" gradientTransform="translate(230.042 66.1951) rotate(-180) scale(50.7025 15.9409)">
<stop stop-color="#46484E"/>
<stop offset="1"/>
</radialGradient>
<linearGradient id="paint4_linear_790_86929" x1="258.062" y1="49.0044" x2="246.716" y2="96.3611" gradientUnits="userSpaceOnUse">
<stop/>
<stop offset="0.470537" stop-color="#787A80"/>
<stop offset="1"/>
</linearGradient>
<linearGradient id="paint5_linear_790_86929" x1="215.228" y1="123.117" x2="219.494" y2="72.6963" gradientUnits="userSpaceOnUse">
<stop stop-color="#0B0B0B"/>
<stop offset="1" stop-color="#32343A"/>
</linearGradient>
<linearGradient id="paint6_linear_790_86929" x1="275.11" y1="139.484" x2="243.897" y2="39.8231" gradientUnits="userSpaceOnUse">
<stop/>
<stop offset="0.470537" stop-color="#787A80"/>
<stop offset="1"/>
</linearGradient>
<linearGradient id="paint7_linear_790_86929" x1="301.421" y1="120.313" x2="222.617" y2="188.991" gradientUnits="userSpaceOnUse">
<stop/>
<stop offset="1" stop-color="#32343A"/>
</linearGradient>
<linearGradient id="paint8_linear_790_86929" x1="285.746" y1="66.9221" x2="247.26" y2="209.754" gradientUnits="userSpaceOnUse">
<stop/>
<stop offset="0.470537" stop-color="#787A80"/>
<stop offset="1"/>
</linearGradient>
<linearGradient id="paint9_linear_790_86929" x1="351.886" y1="91.1177" x2="293.5" y2="154.279" gradientUnits="userSpaceOnUse">
<stop/>
<stop offset="1" stop-color="#32343A"/>
</linearGradient>
<linearGradient id="paint10_linear_790_86929" x1="341.755" y1="55.6855" x2="326.374" y2="159.107" gradientUnits="userSpaceOnUse">
<stop/>
<stop offset="0.470537" stop-color="#787A80"/>
<stop offset="1"/>
</linearGradient>
<linearGradient id="paint11_linear_790_86929" x1="360.317" y1="117.755" x2="296.218" y2="168.972" gradientUnits="userSpaceOnUse">
<stop/>
<stop offset="1" stop-color="#32343A"/>
</linearGradient>
<linearGradient id="paint12_linear_790_86929" x1="346.534" y1="71.2566" x2="307.513" y2="188.97" gradientUnits="userSpaceOnUse">
<stop/>
<stop offset="0.470537" stop-color="#787A80"/>
<stop offset="1"/>
</linearGradient>
<linearGradient id="paint13_linear_790_86929" x1="238.627" y1="156.494" x2="339.967" y2="172.397" gradientUnits="userSpaceOnUse">
<stop/>
<stop offset="1" stop-color="#32343A"/>
</linearGradient>
<linearGradient id="paint14_linear_790_86929" x1="222.71" y1="110.675" x2="320.277" y2="202.438" gradientUnits="userSpaceOnUse">
<stop/>
<stop offset="0.470537" stop-color="#787A80"/>
<stop offset="1"/>
</linearGradient>
<linearGradient id="paint15_linear_790_86929" x1="294.57" y1="141.795" x2="252.936" y2="153.09" gradientUnits="userSpaceOnUse">
<stop stop-color="#141414"/>
<stop offset="1" stop-color="#32343A"/>
</linearGradient>
<linearGradient id="paint16_linear_790_86929" x1="295.064" y1="106.953" x2="240.01" y2="160.602" gradientUnits="userSpaceOnUse">
<stop/>
<stop offset="0.470537" stop-color="#787A80"/>
<stop offset="1"/>
</linearGradient>
<linearGradient id="paint17_linear_790_86929" x1="301.294" y1="68.1948" x2="271.652" y2="82.0712" gradientUnits="userSpaceOnUse">
<stop/>
<stop offset="1" stop-color="#32343A"/>
</linearGradient>
<linearGradient id="paint18_linear_790_86929" x1="301.986" y1="52.4942" x2="279.986" y2="89.6737" gradientUnits="userSpaceOnUse">
<stop/>
<stop offset="0.470537" stop-color="#787A80"/>
<stop offset="1"/>
</linearGradient>
<linearGradient id="paint19_linear_790_86929" x1="341.195" y1="46.9738" x2="298.387" y2="77.2291" gradientUnits="userSpaceOnUse">
<stop/>
<stop offset="1" stop-color="#32343A"/>
</linearGradient>
<linearGradient id="paint20_linear_790_86929" x1="342.26" y1="28.2692" x2="321.711" y2="79.6613" gradientUnits="userSpaceOnUse">
<stop/>
<stop offset="0.470537" stop-color="#787A80"/>
<stop offset="1"/>
</linearGradient>
<linearGradient id="paint21_linear_790_86929" x1="335.127" y1="41.9743" x2="307.72" y2="68.363" gradientUnits="userSpaceOnUse">
<stop/>
<stop offset="1" stop-color="#32343A"/>
</linearGradient>
<linearGradient id="paint22_linear_790_86929" x1="335.931" y1="30.6034" x2="326.018" y2="63.8247" gradientUnits="userSpaceOnUse">
<stop/>
<stop offset="0.470537" stop-color="#787A80"/>
<stop offset="1"/>
</linearGradient>
<linearGradient id="paint23_linear_790_86929" x1="288.347" y1="35.2678" x2="244.457" y2="55.6425" gradientUnits="userSpaceOnUse">
<stop/>
<stop offset="1" stop-color="#32343A"/>
</linearGradient>
<linearGradient id="paint24_linear_790_86929" x1="289.374" y1="11.9056" x2="256.513" y2="67.0124" gradientUnits="userSpaceOnUse">
<stop/>
<stop offset="0.470537" stop-color="#787A80"/>
<stop offset="1"/>
</linearGradient>
<linearGradient id="paint25_linear_790_86929" x1="288.619" y1="32.6726" x2="258.788" y2="42.934" gradientUnits="userSpaceOnUse">
<stop/>
<stop offset="1" stop-color="#32343A"/>
</linearGradient>
<linearGradient id="paint26_linear_790_86929" x1="289.35" y1="13.2151" x2="258.958" y2="51.5602" gradientUnits="userSpaceOnUse">
<stop/>
<stop offset="0.470537" stop-color="#787A80"/>
<stop offset="1"/>
</linearGradient>
<linearGradient id="paint27_linear_790_86929" x1="301.829" y1="50.6237" x2="286.713" y2="61.6572" gradientUnits="userSpaceOnUse">
<stop/>
<stop offset="1" stop-color="#32343A"/>
</linearGradient>
<linearGradient id="paint28_linear_790_86929" x1="302.209" y1="44.0805" x2="295.179" y2="62.2012" gradientUnits="userSpaceOnUse">
<stop/>
<stop offset="0.470537" stop-color="#787A80"/>
<stop offset="1"/>
</linearGradient>
<linearGradient id="paint29_linear_790_86929" x1="259.377" y1="56.643" x2="236.485" y2="68.3134" gradientUnits="userSpaceOnUse">
<stop/>
<stop offset="1" stop-color="#32343A"/>
</linearGradient>
<linearGradient id="paint30_linear_790_86929" x1="259.912" y1="45.1012" x2="244.409" y2="73.5139" gradientUnits="userSpaceOnUse">
<stop/>
<stop offset="0.470537" stop-color="#787A80"/>
<stop offset="1"/>
</linearGradient>
<linearGradient id="paint31_linear_790_86929" x1="330.975" y1="68.7338" x2="286.851" y2="128.065" gradientUnits="userSpaceOnUse">
<stop/>
<stop offset="1" stop-color="#32343A"/>
</linearGradient>
<linearGradient id="paint32_linear_790_86929" x1="332.732" y1="49.5353" x2="320.021" y2="107.778" gradientUnits="userSpaceOnUse">
<stop/>
<stop offset="0.470537" stop-color="#787A80"/>
<stop offset="1"/>
</linearGradient>
<linearGradient id="paint33_linear_790_86929" x1="345.202" y1="75.4912" x2="322.584" y2="86.9379" gradientUnits="userSpaceOnUse">
<stop/>
<stop offset="1" stop-color="#32343A"/>
</linearGradient>
<linearGradient id="paint34_linear_790_86929" x1="345.73" y1="64.0408" x2="330.291" y2="92.1398" gradientUnits="userSpaceOnUse">
<stop/>
<stop offset="0.470537" stop-color="#787A80"/>
<stop offset="1"/>
</linearGradient>
<linearGradient id="paint35_linear_790_86929" x1="344.012" y1="59.5782" x2="296.615" y2="132.05" gradientUnits="userSpaceOnUse">
<stop/>
<stop offset="1" stop-color="#32343A"/>
</linearGradient>
<linearGradient id="paint36_linear_790_86929" x1="346.208" y1="37.9892" x2="333.401" y2="104.104" gradientUnits="userSpaceOnUse">
<stop/>
<stop offset="0.470537" stop-color="#787A80"/>
<stop offset="1"/>
</linearGradient>
<linearGradient id="paint37_linear_790_86929" x1="315.015" y1="62.3931" x2="291.9" y2="71.3389" gradientUnits="userSpaceOnUse">
<stop/>
<stop offset="1" stop-color="#32343A"/>
</linearGradient>
<linearGradient id="paint38_linear_790_86929" x1="315.566" y1="48.534" x2="294.617" y2="78.0816" gradientUnits="userSpaceOnUse">
<stop/>
<stop offset="0.470537" stop-color="#787A80"/>
<stop offset="1"/>
</linearGradient>
<linearGradient id="paint39_linear_790_86929" x1="321.416" y1="64.9453" x2="296.055" y2="79.7719" gradientUnits="userSpaceOnUse">
<stop/>
<stop offset="1" stop-color="#32343A"/>
</linearGradient>
<linearGradient id="paint40_linear_790_86929" x1="322.015" y1="53.0183" x2="307.188" y2="83.9745" gradientUnits="userSpaceOnUse">
<stop/>
<stop offset="0.470537" stop-color="#787A80"/>
<stop offset="1"/>
</linearGradient>
<radialGradient id="paint41_radial_790_86929" cx="0" cy="0" r="1" gradientUnits="userSpaceOnUse" gradientTransform="translate(248.095 169.57) rotate(125.19) scale(43.4729 23.9878)">
<stop stop-color="#46484E"/>
<stop offset="1"/>
</radialGradient>
<linearGradient id="paint42_linear_790_86929" x1="238.508" y1="138.277" x2="274.61" y2="193.325" gradientUnits="userSpaceOnUse">
<stop/>
<stop offset="0.470537" stop-color="#787A80"/>
<stop offset="1"/>
</linearGradient>
<radialGradient id="paint43_radial_790_86929" cx="0" cy="0" r="1" gradientUnits="userSpaceOnUse" gradientTransform="translate(23.8756 14.1153) rotate(-180) scale(43.4073 18.9157)">
<stop stop-color="#46484E"/>
<stop offset="1"/>
</radialGradient>
<linearGradient id="paint44_linear_790_86929" x1="47.8641" y1="-6.28357" x2="30.0916" y2="47.2345" gradientUnits="userSpaceOnUse">
<stop/>
<stop offset="0.470537" stop-color="#787A80"/>
<stop offset="1"/>
</linearGradient>
<linearGradient id="paint45_linear_790_86929" x1="277.507" y1="61.1136" x2="309.446" y2="171.081" gradientUnits="userSpaceOnUse">
<stop stop-color="#FDF74B"/>
<stop offset="1" stop-color="#A09B05"/>
</linearGradient>
<linearGradient id="paint46_linear_790_86929" x1="308.886" y1="57.6902" x2="238.465" y2="140.867" gradientUnits="userSpaceOnUse">
<stop stop-color="#F7F147"/>
<stop offset="1" stop-color="#C4BF21"/>
</linearGradient>
<linearGradient id="paint47_linear_790_86929" x1="294.276" y1="106.817" x2="290.249" y2="150.609" gradientUnits="userSpaceOnUse">
<stop stop-color="#FAF449"/>
<stop offset="1" stop-color="#FFFB73"/>
</linearGradient>
<linearGradient id="paint48_linear_790_86929" x1="256.404" y1="59.173" x2="252.377" y2="102.965" gradientUnits="userSpaceOnUse">
<stop stop-color="#FAF449"/>
<stop offset="1" stop-color="#FFFB73"/>
</linearGradient>
<linearGradient id="paint49_linear_790_86929" x1="276.34" y1="50.9189" x2="308.004" y2="84.1715" gradientUnits="userSpaceOnUse">
<stop stop-color="#FEFA76"/>
<stop offset="1" stop-color="#151823"/>
</linearGradient>
<linearGradient id="paint50_linear_790_86929" x1="294.926" y1="77.0824" x2="258.818" y2="92.071" gradientUnits="userSpaceOnUse">
<stop stop-color="#FDF96F"/>
<stop offset="1" stop-color="#BFBB48"/>
</linearGradient>
<linearGradient id="paint51_linear_790_86929" x1="257.044" y1="49.1442" x2="288.729" y2="82.9985" gradientUnits="userSpaceOnUse">
<stop stop-color="#FEFA76"/>
<stop offset="1" stop-color="#151823"/>
</linearGradient>
<linearGradient id="paint52_linear_790_86929" x1="275.996" y1="75.3414" x2="239.506" y2="90.7983" gradientUnits="userSpaceOnUse">
<stop stop-color="#FDF96F"/>
<stop offset="1" stop-color="#BFBB48"/>
</linearGradient>
<linearGradient id="paint53_linear_790_86929" x1="322.085" y1="124.711" x2="360.19" y2="127.428" gradientUnits="userSpaceOnUse">
<stop stop-color="#0B0B0B"/>
<stop offset="1" stop-color="#32343A"/>
</linearGradient>
<linearGradient id="paint54_linear_790_86929" x1="316.898" y1="77.9509" x2="387.686" y2="112.847" gradientUnits="userSpaceOnUse">
<stop/>
<stop offset="0.470537" stop-color="#787A80"/>
<stop offset="1"/>
</linearGradient>
<radialGradient id="paint55_radial_790_86929" cx="0" cy="0" r="1" gradientUnits="userSpaceOnUse" gradientTransform="translate(341.528 157.508) rotate(-117.882) scale(50.4415 20.792)">
<stop stop-color="#46484E"/>
<stop offset="1"/>
</radialGradient>
<linearGradient id="paint56_linear_790_86929" x1="375.523" y1="173.816" x2="312.167" y2="184.835" gradientUnits="userSpaceOnUse">
<stop/>
<stop offset="0.470537" stop-color="#787A80"/>
<stop offset="1"/>
</linearGradient>
<radialGradient id="paint57_radial_790_86929" cx="0" cy="0" r="1" gradientUnits="userSpaceOnUse" gradientTransform="translate(27.2909 11.863) rotate(-180) scale(49.6164 15.8975)">
<stop stop-color="#46484E"/>
<stop offset="1"/>
</radialGradient>
<linearGradient id="paint58_linear_790_86929" x1="54.7107" y1="-5.28097" x2="43.2032" y2="41.8482" gradientUnits="userSpaceOnUse">
<stop/>
<stop offset="0.470537" stop-color="#787A80"/>
<stop offset="1"/>
</linearGradient>
<clipPath id="clip0_790_86929">
<rect width="369" height="219" rx="20" fill="white"/>
</clipPath>
</defs>
</svg>
