<svg width="164" height="60" viewBox="0 0 164 60" fill="none" xmlns="http://www.w3.org/2000/svg">
<mask id="mask0_1370_12918" style="mask-type:alpha" maskUnits="userSpaceOnUse" x="0" y="0" width="164" height="60">
<rect x="0.5" y="0.5" width="163" height="59" rx="9.5" fill="#1B1C1E" stroke="#262729"/>
</mask>
<g mask="url(#mask0_1370_12918)">
<rect x="0.5" y="0.5" width="163" height="59" rx="9.5" fill="#0F1012" stroke="#191A1C"/>
<g opacity="0.3" filter="url(#filter0_f_1370_12918)">
<ellipse cx="90.1224" cy="46.2197" rx="90.1224" ry="46.2197" transform="matrix(0.936908 -0.349575 0.515493 0.856894 31 68.9108)" fill="#BD52FD"/>
</g>
<g opacity="0.3" filter="url(#filter1_f_1370_12918)">
<ellipse cx="90.0659" cy="46.2576" rx="90.0659" ry="46.2576" transform="matrix(0.916685 -0.399611 0.561821 0.827259 -133 -10.6403)" fill="#BD52FD"/>
</g>
</g>
<path d="M46.604 15.34V25H44.7V17.048H39.66V25H37.756V15.34H46.604ZM52.3893 25.21C51.1479 25.21 50.3499 24.706 49.9953 23.698H49.8133V27.52H48.0493V18H49.8133V19.302H49.9953C50.3499 18.294 51.1479 17.79 52.3893 17.79C53.4066 17.79 54.1579 18.0607 54.6433 18.602C55.1286 19.1433 55.3713 20.114 55.3713 21.514C55.3713 22.9047 55.1286 23.8707 54.6433 24.412C54.1579 24.944 53.4066 25.21 52.3893 25.21ZM51.6193 19.19C50.4526 19.19 49.8506 19.6753 49.8133 20.646V22.27C49.8133 23.2967 50.4153 23.81 51.6193 23.81C52.3939 23.81 52.9213 23.6653 53.2013 23.376C53.4813 23.0867 53.6213 22.466 53.6213 21.514C53.6213 20.562 53.4766 19.9367 53.1873 19.638C52.9073 19.3393 52.3846 19.19 51.6193 19.19ZM63.2305 25H61.5085V20.66L57.7705 25H56.5805V18H58.3025V22.41L61.9985 18H63.2305V25ZM64.6059 25V18H68.5679C69.4173 18 70.0379 18.168 70.4299 18.504C70.8313 18.8307 71.0319 19.246 71.0319 19.75C71.0319 20.6833 70.5046 21.2107 69.4499 21.332V21.556C70.6259 21.64 71.2139 22.1673 71.2139 23.138C71.2139 23.7073 71.0179 24.16 70.6259 24.496C70.2339 24.832 69.6506 25 68.8759 25H64.6059ZM68.3859 21.976H66.3699V23.712H68.2739C69.0673 23.712 69.4639 23.4273 69.4639 22.858C69.4639 22.27 69.1046 21.976 68.3859 21.976ZM68.1479 19.274H66.3699V20.94H68.3999C69.0066 20.94 69.3099 20.6553 69.3099 20.086C69.3099 19.8153 69.2259 19.6147 69.0579 19.484C68.8993 19.344 68.5959 19.274 68.1479 19.274ZM79.3595 20.996V21.892H73.8855V21.906C73.8948 22.6153 74.0628 23.11 74.3895 23.39C74.7162 23.67 75.2015 23.81 75.8455 23.81C76.9095 23.81 77.4928 23.4367 77.5955 22.69H79.3595C79.2662 23.6047 78.9255 24.2533 78.3375 24.636C77.7588 25.0187 76.9235 25.21 75.8315 25.21C74.5715 25.21 73.6382 24.9347 73.0315 24.384C72.4248 23.8333 72.1215 22.886 72.1215 21.542C72.1215 20.1607 72.4202 19.19 73.0175 18.63C73.6242 18.07 74.5575 17.79 75.8175 17.79C78.1788 17.79 79.3595 18.8587 79.3595 20.996ZM73.8855 20.968V21.024H77.5815C77.5815 20.352 77.4275 19.8807 77.1195 19.61C76.8208 19.33 76.3822 19.19 75.8035 19.19C75.2155 19.19 74.7582 19.3207 74.4315 19.582C74.1048 19.834 73.9228 20.296 73.8855 20.968ZM79.8366 18H86.4026V19.4H84.0086V25H82.2306V19.4H79.8366V18ZM92.3475 22.424H94.1115C94.0088 23.432 93.6635 24.1507 93.0755 24.58C92.4968 25 91.6661 25.21 90.5835 25.21C89.3235 25.21 88.3901 24.9347 87.7835 24.384C87.1768 23.8333 86.8735 22.886 86.8735 21.542C86.8735 20.1607 87.1768 19.19 87.7835 18.63C88.3901 18.07 89.3235 17.79 90.5835 17.79C91.6568 17.79 92.4828 17.9953 93.0615 18.406C93.6401 18.8167 93.9808 19.5167 94.0835 20.506H92.3195C92.1795 19.6287 91.6008 19.19 90.5835 19.19C89.9208 19.19 89.4308 19.358 89.1135 19.694C88.7961 20.03 88.6375 20.646 88.6375 21.542C88.6375 22.4007 88.7961 22.9933 89.1135 23.32C89.4308 23.6467 89.9208 23.81 90.5835 23.81C91.0968 23.81 91.5028 23.7073 91.8015 23.502C92.1001 23.2873 92.2821 22.928 92.3475 22.424ZM94.4929 18H101.059V19.4H98.6649V25H96.8869V19.4H94.4929V18ZM101.862 25V18H105.824C106.673 18 107.294 18.168 107.686 18.504C108.087 18.8307 108.288 19.246 108.288 19.75C108.288 20.6833 107.76 21.2107 106.706 21.332V21.556C107.882 21.64 108.47 22.1673 108.47 23.138C108.47 23.7073 108.274 24.16 107.882 24.496C107.49 24.832 106.906 25 106.132 25H101.862ZM105.642 21.976H103.626V23.712H105.53C106.323 23.712 106.72 23.4273 106.72 22.858C106.72 22.27 106.36 21.976 105.642 21.976ZM105.404 19.274H103.626V20.94H105.656C106.262 20.94 106.566 20.6553 106.566 20.086C106.566 19.8153 106.482 19.6147 106.314 19.484C106.155 19.344 105.852 19.274 105.404 19.274ZM116.615 20.996V21.892H111.141V21.906C111.151 22.6153 111.319 23.11 111.645 23.39C111.972 23.67 112.457 23.81 113.101 23.81C114.165 23.81 114.749 23.4367 114.851 22.69H116.615C116.522 23.6047 116.181 24.2533 115.593 24.636C115.015 25.0187 114.179 25.21 113.087 25.21C111.827 25.21 110.894 24.9347 110.287 24.384C109.681 23.8333 109.377 22.886 109.377 21.542C109.377 20.1607 109.676 19.19 110.273 18.63C110.88 18.07 111.813 17.79 113.073 17.79C115.435 17.79 116.615 18.8587 116.615 20.996ZM111.141 20.968V21.024H114.837C114.837 20.352 114.683 19.8807 114.375 19.61C114.077 19.33 113.638 19.19 113.059 19.19C112.471 19.19 112.014 19.3207 111.687 19.582C111.361 19.834 111.179 20.296 111.141 20.968ZM119.567 18V20.688H122.857V18H124.621V25H122.857V22.088H119.567V25H117.803V18H119.567ZM127.757 18V20.688H131.047V18H132.811V25H131.047V22.088H127.757V25H125.993V18H127.757ZM137.262 20.352C138.195 20.352 138.867 20.5387 139.278 20.912C139.689 21.276 139.894 21.8407 139.894 22.606C139.894 23.3527 139.698 23.9407 139.306 24.37C138.914 24.79 138.326 25 137.542 25H134.182V18H135.946V20.352H137.262ZM140.804 18H142.568V25H140.804V18ZM137.234 21.598H135.946V23.614H137.164C137.901 23.614 138.27 23.2687 138.27 22.578C138.27 22.2607 138.191 22.018 138.032 21.85C137.883 21.682 137.617 21.598 137.234 21.598ZM150.607 25H148.885V20.66L145.147 25H143.957V18H145.679V22.41L149.375 18H150.607V25ZM148.997 16.642C148.633 16.9687 148.064 17.132 147.289 17.132C146.515 17.132 145.941 16.9687 145.567 16.642C145.203 16.3153 145.021 15.8067 145.021 15.116H146.309C146.309 15.4427 146.384 15.676 146.533 15.816C146.683 15.9467 146.935 16.012 147.289 16.012C147.635 16.012 147.882 15.9467 148.031 15.816C148.181 15.676 148.255 15.4427 148.255 15.116H149.543C149.543 15.8067 149.361 16.3153 148.997 16.642ZM41.298 43.21C40.01 43.21 39.058 42.916 38.442 42.328C37.826 41.7307 37.518 40.704 37.518 39.248C37.518 38.772 37.518 38.3987 37.518 38.128C37.5273 37.8573 37.5507 37.5167 37.588 37.106C37.6347 36.6953 37.6953 36.3687 37.77 36.126C37.8447 35.8833 37.9567 35.6127 38.106 35.314C38.2553 35.006 38.4327 34.7587 38.638 34.572C38.8527 34.376 39.1187 34.194 39.436 34.026C39.7627 33.8487 40.136 33.7087 40.556 33.606C42.488 33.1113 43.6127 32.7987 43.93 32.668L44.378 34.166C43.902 34.362 42.866 34.656 41.27 35.048C40.8407 35.1507 40.486 35.3047 40.206 35.51C39.926 35.706 39.7253 35.9533 39.604 36.252C39.4827 36.5413 39.4033 36.7933 39.366 37.008C39.3287 37.2227 39.3053 37.5027 39.296 37.848H39.478C39.87 36.896 40.696 36.42 41.956 36.42C43.9627 36.42 44.966 37.5027 44.966 39.668C44.966 40.956 44.6627 41.8707 44.056 42.412C43.4587 42.944 42.5393 43.21 41.298 43.21ZM41.298 41.81C41.9513 41.81 42.432 41.656 42.74 41.348C43.0573 41.0307 43.216 40.466 43.216 39.654C43.216 38.898 43.062 38.38 42.754 38.1C42.446 37.8107 41.956 37.666 41.284 37.666C40.6307 37.666 40.1313 37.8107 39.786 38.1C39.4407 38.3893 39.268 38.9073 39.268 39.654C39.268 40.466 39.4313 41.0307 39.758 41.348C40.094 41.656 40.6073 41.81 41.298 41.81ZM48.2482 41.32C48.5656 41.6467 49.0602 41.81 49.7322 41.81C50.4042 41.81 50.8989 41.6467 51.2162 41.32C51.5429 40.9933 51.7062 40.4007 51.7062 39.542C51.7062 38.6553 51.5429 38.044 51.2162 37.708C50.8989 37.3627 50.4042 37.19 49.7322 37.19C49.0602 37.19 48.5656 37.358 48.2482 37.694C47.9309 38.03 47.7722 38.646 47.7722 39.542C47.7722 40.4007 47.9309 40.9933 48.2482 41.32ZM49.7322 35.79C51.0016 35.79 51.9396 36.07 52.5462 36.63C53.1622 37.19 53.4702 38.1607 53.4702 39.542C53.4702 40.886 53.1622 41.8333 52.5462 42.384C51.9396 42.9347 51.0016 43.21 49.7322 43.21C48.4722 43.21 47.5342 42.9347 46.9182 42.384C46.3116 41.8333 46.0082 40.886 46.0082 39.542C46.0082 38.1607 46.3116 37.19 46.9182 36.63C47.5342 36.07 48.4722 35.79 49.7322 35.79ZM56.4305 36V38.688H59.7205V36H61.4845V43H59.7205V40.088H56.4305V43H54.6665V36H56.4305ZM64.1719 45.52L65.5159 42.692L62.1699 36H64.1859L66.3559 40.872L68.2879 36H70.2619L66.0339 45.52H64.1719ZM75.9822 40.424H77.7462C77.6436 41.432 77.2982 42.1507 76.7102 42.58C76.1316 43 75.3009 43.21 74.2182 43.21C72.9582 43.21 72.0249 42.9347 71.4182 42.384C70.8116 41.8333 70.5082 40.886 70.5082 39.542C70.5082 38.1607 70.8116 37.19 71.4182 36.63C72.0249 36.07 72.9582 35.79 74.2182 35.79C75.2916 35.79 76.1176 35.9953 76.6962 36.406C77.2749 36.8167 77.6156 37.5167 77.7182 38.506H75.9542C75.8142 37.6287 75.2356 37.19 74.2182 37.19C73.5556 37.19 73.0656 37.358 72.7482 37.694C72.4309 38.03 72.2722 38.646 72.2722 39.542C72.2722 40.4007 72.4309 40.9933 72.7482 41.32C73.0656 41.6467 73.5556 41.81 74.2182 41.81C74.7316 41.81 75.1376 41.7073 75.4362 41.502C75.7349 41.2873 75.9169 40.928 75.9822 40.424Z" fill="#E2E2E2"/>
<rect x="127" y="38" width="29" height="14" rx="6" fill="#BD52FD"/>
<path d="M141.483 49.18C140.163 49.18 139.183 48.916 138.543 48.388C137.911 47.86 137.623 47 137.679 45.808H139.899C139.899 46.352 140.015 46.74 140.247 46.972C140.487 47.204 140.891 47.32 141.459 47.32C142.043 47.32 142.455 47.224 142.695 47.032C142.943 46.832 143.067 46.532 143.067 46.132C143.067 45.764 142.951 45.492 142.719 45.316C142.495 45.132 142.035 45.04 141.339 45.04H140.487V43.804L141.963 42.496H138.099V40.72H144.675V42.16L142.683 43.816L142.983 43.828C143.703 43.868 144.275 44.096 144.699 44.512C145.123 44.92 145.335 45.488 145.335 46.216C145.335 47.2 145.039 47.94 144.447 48.436C143.863 48.932 142.875 49.18 141.483 49.18Z" fill="#151618"/>
<path d="M24.7361 22.7379C24.5412 21.9446 23.959 21.3251 23.1791 21.0817C22.3953 20.8366 21.5669 21.0154 20.9563 21.5569L19.9854 22.415L24.6384 24.1085C24.8026 23.6771 24.8507 23.204 24.7361 22.7379ZM19.3753 20.9814C19.2539 20.1737 18.7313 19.4959 17.9776 19.1811C17.2239 18.8658 16.3799 18.9666 15.7192 19.4491C15.3321 19.7322 15.065 20.133 14.9137 20.5691L19.5673 22.2629L19.3753 20.9814ZM16.957 28.5969V38.4625H18.0979V29.0122L16.957 28.5969ZM10.682 28.2324C10.3667 28.2324 10.1116 28.4876 10.1116 28.8029V36.7512C10.1116 37.6949 10.8792 38.4626 11.8229 38.4626H15.8161V28.2324H10.682ZM19.2388 29.4275V38.4625H23.232C24.1757 38.4625 24.9434 37.6949 24.9434 36.7512V31.5037L19.2388 29.4275ZM17.3436 27.5234L18.9042 23.2353L19.9767 23.6256L18.4161 27.9137L17.3436 27.5234ZM25.8731 25.7718L21.0488 24.016L19.488 28.304L25.3846 30.4502C25.4471 30.473 25.5131 30.4847 25.5796 30.4847C25.8124 30.4847 26.0313 30.341 26.1155 30.1092L26.8959 27.965C27.2205 27.0744 26.7602 26.0951 25.8731 25.7718ZM13.0085 21.0895C12.1232 20.7658 11.1401 21.2195 10.8146 22.1123L10.0347 24.2565C9.92665 24.5523 10.0793 24.8799 10.3757 24.9874L16.272 27.1335L17.8329 22.8454L13.0085 21.0895Z" fill="#E4E4E4"/>
<defs>
<filter id="filter0_f_1370_12918" x="-35.9937" y="-61.0979" width="350.512" height="276.219" filterUnits="userSpaceOnUse" color-interpolation-filters="sRGB">
<feFlood flood-opacity="0" result="BackgroundImageFix"/>
<feBlend mode="normal" in="SourceGraphic" in2="BackgroundImageFix" result="shape"/>
<feGaussianBlur stdDeviation="43.75" result="effect1_foregroundBlur_1370_12918"/>
</filter>
<filter id="filter1_f_1370_12918" x="-175.228" y="-125.098" width="301.558" height="233.467" filterUnits="userSpaceOnUse" color-interpolation-filters="sRGB">
<feFlood flood-opacity="0" result="BackgroundImageFix"/>
<feBlend mode="normal" in="SourceGraphic" in2="BackgroundImageFix" result="shape"/>
<feGaussianBlur stdDeviation="32.1" result="effect1_foregroundBlur_1370_12918"/>
</filter>
</defs>
</svg>
