<svg width="164" height="60" viewBox="0 0 164 60" fill="none" xmlns="http://www.w3.org/2000/svg">
<mask id="mask0_1273_46152" style="mask-type:alpha" maskUnits="userSpaceOnUse" x="0" y="0" width="164" height="60">
<rect x="0.5" y="0.5" width="163" height="59" rx="9.5" fill="#1B1C1E" stroke="#262729"/>
</mask>
<g mask="url(#mask0_1273_46152)">
<rect x="0.5" y="0.5" width="163" height="59" rx="9.5" fill="#0F1012" stroke="#191A1C"/>
<g opacity="0.3" filter="url(#filter0_f_1273_46152)">
<ellipse cx="90.1224" cy="46.2197" rx="90.1224" ry="46.2197" transform="matrix(0.936908 -0.349575 0.515493 0.856894 31 68.9108)" fill="#BD52FD"/>
</g>
<g opacity="0.3" filter="url(#filter1_f_1273_46152)">
<ellipse cx="90.0659" cy="46.2576" rx="90.0659" ry="46.2576" transform="matrix(0.916685 -0.399611 0.561821 0.827259 -133 -10.6403)" fill="#BD52FD"/>
</g>
</g>
<path d="M48.366 18.854C48.366 20.1327 48.086 21.08 47.526 21.696C46.9753 22.3027 46.1307 22.606 44.992 22.606H41.66V25H39.756V15.34H44.964C46.168 15.34 47.036 15.6107 47.568 16.152C48.1 16.6933 48.366 17.594 48.366 18.854ZM44.642 16.978H41.66V20.968H44.67C45.2767 20.968 45.72 20.8093 46 20.492C46.2893 20.1747 46.434 19.638 46.434 18.882C46.434 18.1353 46.308 17.6313 46.056 17.37C45.804 17.1087 45.3327 16.978 44.642 16.978ZM56.4357 20.996V21.892H50.9617V21.906C50.971 22.6153 51.139 23.11 51.4657 23.39C51.7924 23.67 52.2777 23.81 52.9217 23.81C53.9857 23.81 54.569 23.4367 54.6717 22.69H56.4357C56.3424 23.6047 56.0017 24.2533 55.4137 24.636C54.835 25.0187 53.9997 25.21 52.9077 25.21C51.6477 25.21 50.7144 24.9347 50.1077 24.384C49.501 23.8333 49.1977 22.886 49.1977 21.542C49.1977 20.1607 49.4964 19.19 50.0937 18.63C50.7004 18.07 51.6337 17.79 52.8937 17.79C55.255 17.79 56.4357 18.8587 56.4357 20.996ZM50.9617 20.968V21.024H54.6577C54.6577 20.352 54.5037 19.8807 54.1957 19.61C53.897 19.33 53.4584 19.19 52.8797 19.19C52.2917 19.19 51.8344 19.3207 51.5077 19.582C51.181 19.834 50.999 20.296 50.9617 20.968ZM57.6235 25V18H63.0415V19.4H59.3875V25H57.6235ZM65.5293 27.52L66.8733 24.692L63.5273 18H65.5433L67.7133 22.872L69.6453 18H71.6193L67.3913 27.52H65.5293ZM72.5097 21.654V18H78.5717V25H76.8077V19.4H74.1617V21.71C74.1617 22.8767 73.9937 23.7213 73.6577 24.244C73.331 24.7667 72.7663 25.028 71.9637 25.028H71.5577V23.502C71.903 23.502 72.1457 23.376 72.2857 23.124C72.435 22.8627 72.5097 22.3727 72.5097 21.654ZM84.7377 25V22.662H82.9317L81.6157 25H79.5997L81.2657 22.466C80.3417 22.1207 79.8797 21.416 79.8797 20.352C79.8797 19.624 80.0897 19.05 80.5097 18.63C80.9297 18.21 81.5877 18 82.4837 18H86.5017V25H84.7377ZM81.6297 20.352C81.6297 21.024 81.9377 21.36 82.5537 21.36H84.7377V19.4H82.7217C82.3017 19.4 82.0123 19.484 81.8537 19.652C81.7043 19.8107 81.6297 20.044 81.6297 20.352ZM92.2194 25.21C90.978 25.21 90.18 24.706 89.8254 23.698H89.6434V27.52H87.8794V18H89.6434V19.302H89.8254C90.18 18.294 90.978 17.79 92.2194 17.79C93.2367 17.79 93.988 18.0607 94.4734 18.602C94.9587 19.1433 95.2014 20.114 95.2014 21.514C95.2014 22.9047 94.9587 23.8707 94.4734 24.412C93.988 24.944 93.2367 25.21 92.2194 25.21ZM91.4494 19.19C90.2827 19.19 89.6807 19.6753 89.6434 20.646V22.27C89.6434 23.2967 90.2454 23.81 91.4494 23.81C92.224 23.81 92.7514 23.6653 93.0314 23.376C93.3114 23.0867 93.4514 22.466 93.4514 21.514C93.4514 20.562 93.3067 19.9367 93.0174 19.638C92.7374 19.3393 92.2147 19.19 91.4494 19.19ZM98.1746 18V20.688H101.465V18H103.229V25H101.465V22.088H98.1746V25H96.4106V18H98.1746ZM107.68 20.352C108.613 20.352 109.285 20.5387 109.696 20.912C110.107 21.276 110.312 21.8407 110.312 22.606C110.312 23.3527 110.116 23.9407 109.724 24.37C109.332 24.79 108.744 25 107.96 25H104.6V18H106.364V20.352H107.68ZM111.222 18H112.986V25H111.222V18ZM107.652 21.598H106.364V23.614H107.582C108.319 23.614 108.688 23.2687 108.688 22.578C108.688 22.2607 108.609 22.018 108.45 21.85C108.301 21.682 108.035 21.598 107.652 21.598ZM121.445 20.996V21.892H115.971V21.906C115.981 22.6153 116.149 23.11 116.475 23.39C116.802 23.67 117.287 23.81 117.931 23.81C118.995 23.81 119.579 23.4367 119.681 22.69H121.445C121.352 23.6047 121.011 24.2533 120.423 24.636C119.845 25.0187 119.009 25.21 117.917 25.21C116.657 25.21 115.724 24.9347 115.117 24.384C114.511 23.8333 114.207 22.886 114.207 21.542C114.207 20.1607 114.506 19.19 115.103 18.63C115.71 18.07 116.643 17.79 117.903 17.79C120.265 17.79 121.445 18.8587 121.445 20.996ZM115.971 20.968V21.024H119.667C119.667 20.352 119.513 19.8807 119.205 19.61C118.907 19.33 118.468 19.19 117.889 19.19C117.301 19.19 116.844 19.3207 116.517 19.582C116.191 19.834 116.009 20.296 115.971 20.968ZM43.298 43.21C42.01 43.21 41.058 42.916 40.442 42.328C39.826 41.7307 39.518 40.704 39.518 39.248C39.518 38.772 39.518 38.3987 39.518 38.128C39.5273 37.8573 39.5507 37.5167 39.588 37.106C39.6347 36.6953 39.6953 36.3687 39.77 36.126C39.8447 35.8833 39.9567 35.6127 40.106 35.314C40.2553 35.006 40.4327 34.7587 40.638 34.572C40.8527 34.376 41.1187 34.194 41.436 34.026C41.7627 33.8487 42.136 33.7087 42.556 33.606C44.488 33.1113 45.6127 32.7987 45.93 32.668L46.378 34.166C45.902 34.362 44.866 34.656 43.27 35.048C42.8407 35.1507 42.486 35.3047 42.206 35.51C41.926 35.706 41.7253 35.9533 41.604 36.252C41.4827 36.5413 41.4033 36.7933 41.366 37.008C41.3287 37.2227 41.3053 37.5027 41.296 37.848H41.478C41.87 36.896 42.696 36.42 43.956 36.42C45.9627 36.42 46.966 37.5027 46.966 39.668C46.966 40.956 46.6627 41.8707 46.056 42.412C45.4587 42.944 44.5393 43.21 43.298 43.21ZM43.298 41.81C43.9513 41.81 44.432 41.656 44.74 41.348C45.0573 41.0307 45.216 40.466 45.216 39.654C45.216 38.898 45.062 38.38 44.754 38.1C44.446 37.8107 43.956 37.666 43.284 37.666C42.6307 37.666 42.1313 37.8107 41.786 38.1C41.4407 38.3893 41.268 38.9073 41.268 39.654C41.268 40.466 41.4313 41.0307 41.758 41.348C42.094 41.656 42.6073 41.81 43.298 41.81ZM50.2482 41.32C50.5656 41.6467 51.0602 41.81 51.7322 41.81C52.4042 41.81 52.8989 41.6467 53.2162 41.32C53.5429 40.9933 53.7062 40.4007 53.7062 39.542C53.7062 38.6553 53.5429 38.044 53.2162 37.708C52.8989 37.3627 52.4042 37.19 51.7322 37.19C51.0602 37.19 50.5656 37.358 50.2482 37.694C49.9309 38.03 49.7722 38.646 49.7722 39.542C49.7722 40.4007 49.9309 40.9933 50.2482 41.32ZM51.7322 35.79C53.0016 35.79 53.9396 36.07 54.5462 36.63C55.1622 37.19 55.4702 38.1607 55.4702 39.542C55.4702 40.886 55.1622 41.8333 54.5462 42.384C53.9396 42.9347 53.0016 43.21 51.7322 43.21C50.4722 43.21 49.5342 42.9347 48.9182 42.384C48.3116 41.8333 48.0082 40.886 48.0082 39.542C48.0082 38.1607 48.3116 37.19 48.9182 36.63C49.5342 36.07 50.4722 35.79 51.7322 35.79ZM58.4305 36V38.688H61.7205V36H63.4845V43H61.7205V40.088H58.4305V43H56.6665V36H58.4305ZM66.1719 45.52L67.5159 42.692L64.1699 36H66.1859L68.3559 40.872L70.2879 36H72.2619L68.0339 45.52H66.1719ZM77.9822 40.424H79.7462C79.6436 41.432 79.2982 42.1507 78.7102 42.58C78.1316 43 77.3009 43.21 76.2182 43.21C74.9582 43.21 74.0249 42.9347 73.4182 42.384C72.8116 41.8333 72.5082 40.886 72.5082 39.542C72.5082 38.1607 72.8116 37.19 73.4182 36.63C74.0249 36.07 74.9582 35.79 76.2182 35.79C77.2916 35.79 78.1176 35.9953 78.6962 36.406C79.2749 36.8167 79.6156 37.5167 79.7182 38.506H77.9542C77.8142 37.6287 77.2356 37.19 76.2182 37.19C75.5556 37.19 75.0656 37.358 74.7482 37.694C74.4309 38.03 74.2722 38.646 74.2722 39.542C74.2722 40.4007 74.4309 40.9933 74.7482 41.32C75.0656 41.6467 75.5556 41.81 76.2182 41.81C76.7316 41.81 77.1376 41.7073 77.4362 41.502C77.7349 41.2873 77.9169 40.928 77.9822 40.424ZM83.9183 38.352C84.8517 38.352 85.5237 38.5387 85.9343 38.912C86.345 39.276 86.5503 39.8407 86.5503 40.606C86.5503 41.3527 86.3543 41.9407 85.9623 42.37C85.5703 42.79 84.9823 43 84.1983 43H80.8383V36H82.6023V38.352H83.9183ZM87.4603 36H89.2243V43H87.4603V36ZM83.8903 39.598H82.6023V41.614H83.8203C84.5577 41.614 84.9263 41.2687 84.9263 40.578C84.9263 40.2607 84.847 40.018 84.6883 39.85C84.539 39.682 84.273 39.598 83.8903 39.598Z" fill="#E2E2E2"/>
<rect x="127" y="38" width="29" height="14" rx="6" fill="#BD52FD"/>
<path d="M141.519 49.18C140.167 49.18 139.175 48.932 138.543 48.436C137.919 47.932 137.607 47.116 137.607 45.988C137.607 45.284 137.751 44.676 138.039 44.164C138.335 43.652 138.855 43.06 139.599 42.388L141.447 40.72H144.195L141.351 43.216C141.191 43.344 141.075 43.44 141.003 43.504L141.039 43.576C141.423 43.464 141.819 43.408 142.227 43.408C143.339 43.408 144.147 43.656 144.651 44.152C145.163 44.648 145.419 45.312 145.419 46.144C145.419 47.136 145.123 47.892 144.531 48.412C143.939 48.924 142.935 49.18 141.519 49.18ZM142.803 45.16C142.571 44.952 142.143 44.848 141.519 44.848C140.895 44.848 140.459 44.956 140.211 45.172C139.963 45.38 139.839 45.68 139.839 46.072C139.839 46.472 139.963 46.78 140.211 46.996C140.459 47.212 140.895 47.32 141.519 47.32C142.127 47.32 142.551 47.216 142.791 47.008C143.039 46.792 143.163 46.484 143.163 46.084C143.163 45.668 143.043 45.36 142.803 45.16Z" fill="#151618"/>
<path d="M12.7219 29.4984C12.7219 33.2442 15.763 36.2482 19.4716 36.2482C23.1803 36.2482 26.2214 33.2071 26.2214 29.4984C26.2214 25.7527 23.2174 22.7116 19.4716 22.7116C15.7259 22.7116 12.7219 25.7527 12.7219 29.4984ZM18.7299 29.1276V25.5302C18.7299 25.1223 19.0637 24.7885 19.4716 24.7885C19.8796 24.7885 20.2134 25.1593 20.2134 25.5302V28.9051H22.3644C22.7723 28.9051 23.1061 29.2388 23.1061 29.6468C23.1061 30.0547 22.7352 30.3885 22.3644 30.3885H19.4716C19.0637 30.3885 18.7299 30.0547 18.7299 29.6468V29.1276Z" fill="#E4E4E4"/>
<path d="M28.5583 26.6057C27.4457 23.0825 24.3304 20.5606 20.6959 20.0414C20.733 19.9302 20.7701 19.8189 20.7701 19.7447C20.7701 19.448 20.5847 19.1884 20.3622 19.0772C20.0655 18.9288 19.7688 19.003 19.5092 19.2255L18.7304 19.8931C18.6191 20.0043 18.4708 20.0785 18.3966 20.1898C18.3224 20.301 18.2853 20.4494 18.2853 20.5977C18.2853 20.9315 18.5078 21.1169 18.6933 21.3765C18.9158 21.6361 19.1383 21.9328 19.3979 22.1924C19.8059 22.6746 20.6589 22.3037 20.6589 21.7103V21.562C23.292 21.9699 25.6284 23.6388 26.8152 26.0865C28.1503 28.868 27.7053 32.3541 25.7026 34.6905C23.6999 37.0641 20.4734 38.1025 17.4694 37.3237C14.5025 36.5449 12.2402 34.0972 11.6469 31.1303C10.868 27.4216 12.9449 23.713 16.3197 22.1553C16.6906 22.007 16.7648 21.4507 16.5793 21.154C16.3568 20.7832 15.9489 20.709 15.578 20.8944C12.0548 22.4891 9.79254 26.1978 10.0151 30.0918C10.2376 33.7634 12.5369 36.9899 15.9118 38.3992C19.3237 39.8085 23.3291 39.0667 25.9993 36.582C28.6324 34.023 29.6708 30.0918 28.5583 26.6057Z" fill="#E4E4E4"/>
<defs>
<filter id="filter0_f_1273_46152" x="-35.9937" y="-61.0979" width="350.512" height="276.219" filterUnits="userSpaceOnUse" color-interpolation-filters="sRGB">
<feFlood flood-opacity="0" result="BackgroundImageFix"/>
<feBlend mode="normal" in="SourceGraphic" in2="BackgroundImageFix" result="shape"/>
<feGaussianBlur stdDeviation="43.75" result="effect1_foregroundBlur_1273_46152"/>
</filter>
<filter id="filter1_f_1273_46152" x="-175.228" y="-125.098" width="301.558" height="233.467" filterUnits="userSpaceOnUse" color-interpolation-filters="sRGB">
<feFlood flood-opacity="0" result="BackgroundImageFix"/>
<feBlend mode="normal" in="SourceGraphic" in2="BackgroundImageFix" result="shape"/>
<feGaussianBlur stdDeviation="32.1" result="effect1_foregroundBlur_1273_46152"/>
</filter>
</defs>
</svg>
