<svg width="20" height="15" viewBox="0 0 20 15" fill="none" xmlns="http://www.w3.org/2000/svg">
<path d="M16.3955 13.0098L3.60386 0.21853L3.60112 0.215405C3.53187 0.146716 3.44977 0.0923404 3.3595 0.0553823C3.26923 0.0184242 3.17257 -0.000392794 3.07503 6.2151e-06C2.97749 0.000405224 2.88098 0.0200124 2.79102 0.0577078C2.70106 0.0954032 2.6194 0.150449 2.55071 0.219702C2.48203 0.288955 2.42765 0.371059 2.39069 0.461326C2.35373 0.551594 2.33492 0.648257 2.33532 0.745796C2.33612 0.942786 2.41515 1.13139 2.55501 1.27011L3.67495 2.39005C2.31677 3.32025 1.14771 4.50005 0.22997 5.86668C0.0801034 6.08795 0 6.34906 0 6.6163C0 6.88354 0.0801034 7.14465 0.22997 7.36592C2.57259 10.8332 6.28633 12.8645 10.0001 12.8391C11.203 12.8434 12.3979 12.6432 13.5337 12.2469L15.3466 14.0598C15.4863 14.195 15.6735 14.2699 15.8678 14.2686C16.0622 14.2673 16.2483 14.1898 16.3861 14.0527C16.524 13.9157 16.6025 13.73 16.6049 13.5356C16.6073 13.3413 16.5334 13.1537 16.399 13.0133L16.3955 13.0098ZM10.0001 10.823C9.29646 10.8228 8.60413 10.6462 7.98636 10.3094C7.36859 9.97259 6.84508 9.48635 6.46367 8.89509C6.08225 8.30383 5.8551 7.62641 5.80296 6.92474C5.75083 6.22306 5.87538 5.51951 6.16523 4.87838L7.33517 6.04832C7.24094 6.49239 7.25915 6.95297 7.38815 7.38821C7.51715 7.82345 7.75286 8.21956 8.07385 8.54056C8.39485 8.86156 8.79096 9.09726 9.2262 9.22626C9.66145 9.35527 10.122 9.37348 10.5661 9.27924L11.736 10.4492C11.1907 10.6964 10.5988 10.8239 10.0001 10.823ZM19.7702 5.86472C17.4275 2.39552 13.7138 0.364236 10.0001 0.389627C8.79712 0.38527 7.6022 0.585524 6.46641 0.981825L8.26332 2.77873C9.04305 2.42587 9.91181 2.31902 10.7538 2.47242C11.5958 2.62583 12.3711 3.0322 12.9762 3.63739C13.5814 4.24257 13.9878 5.01782 14.1412 5.85982C14.2946 6.70183 14.1878 7.57058 13.8349 8.35032L16.3248 10.8402C17.6832 9.91016 18.8524 8.73034 19.7702 7.36358C19.9199 7.14235 20 6.88132 20 6.61415C20 6.34699 19.9199 6.08595 19.7702 5.86472Z" fill="#78797B"/>
<path d="M10.0001 3.89014C9.80988 3.89016 9.62017 3.91006 9.43408 3.94951L12.665 7.18004C12.7492 6.78312 12.7438 6.37239 12.649 5.97786C12.5541 5.58333 12.3724 5.21496 12.117 4.89966C11.8616 4.58436 11.539 4.3301 11.1728 4.15544C10.8065 3.98078 10.4059 3.89014 10.0001 3.89014Z" fill="#78797B"/>
</svg>
