<svg width="72" height="51" viewBox="0 0 72 51" fill="none" xmlns="http://www.w3.org/2000/svg">
<g clip-path="url(#clip0_790_125531)">
<path d="M72.0002 19.936V51H64.7108V34.3957L57.9285 50.986H49.523L49.0553 34.0796L41.8423 50.986H33.1821L47.4043 19.936H55.7912L56.2196 37.1982L63.4627 19.936H72.0002Z" fill="#FDF74B"/>
<path d="M27.0388 32.4759H33.0755L24.5959 50.986H16.2089L15.7805 33.7284L8.53747 50.986H0V19.9219H7.28938V36.5286L14.0717 19.936H22.4748L22.9449 36.847L30.1578 19.936H39.4363L27.0388 32.4759Z" fill="#FDF74B"/>
<path d="M40.52 4.64743V4.87219H35.9282V0H36.3798C36.9772 1.55929 38.2299 3.91461 40.52 4.64743Z" fill="#FDF74B"/>
<path d="M40.52 4.87219V5.09461C38.2299 5.82977 36.9749 8.1851 36.3798 9.74205H35.9282V4.87219H40.52Z" fill="#FDF74B"/>
<path d="M35.9282 4.87219V9.74205H35.4766C34.8815 8.1851 33.6265 5.82977 31.3364 5.09461V4.87219H35.9282Z" fill="#FDF74B"/>
<path d="M35.9282 0V4.87219H31.3364V4.64743C33.6265 3.91461 34.8792 1.55929 35.4766 0L35.9282 0Z" fill="#FDF74B"/>
</g>
<defs>
<clipPath id="clip0_790_125531">
<rect width="72" height="51" fill="white"/>
</clipPath>
</defs>
</svg>
