<svg width="245" height="44" viewBox="0 0 245 44" fill="none" xmlns="http://www.w3.org/2000/svg">
<g clip-path="url(#clip0_295_10054)">
<path d="M11.3462 3.01714C15.5268 0.583674 20.5543 -0.374897 25.327 0.410817C28.9177 0.963062 32.3297 2.49408 35.2032 4.71429C33.9631 5.86816 32.7029 7.01531 31.6437 8.34429C29.2819 11.3704 27.7268 15.0386 27.2665 18.8616C27.0118 22.202 27.1436 25.648 28.3926 28.7976C29.711 32.5241 32.1666 35.7724 35.201 38.2643C31.2952 41.3802 26.2744 43.0212 21.2916 42.8237C16.2284 42.689 11.2478 40.6484 7.54539 37.1755C4.19374 34.0933 1.84312 29.8998 1.05883 25.3965C0.0779154 20.5184 1.01638 15.3147 3.44297 10.9955C5.31542 7.69551 8.06378 4.90286 11.3462 3.01714Z" fill="#1B1C1E"/>
<path d="M44.4314 0.509575C48.6679 -0.309813 53.13 0.253656 57.0649 2.01141C62.0141 4.2159 66.0562 8.39141 68.0896 13.4335C70.038 18.1724 70.1989 23.6455 68.4895 28.4788C67.1131 32.5645 64.4184 36.1765 60.955 38.711C57.4023 41.3645 52.9937 42.8102 48.5696 42.8371C43.7722 42.9022 38.9325 41.3106 35.201 38.2643C32.1666 35.7724 29.711 32.5241 28.3926 28.7975C27.1436 25.6479 27.0118 22.202 27.2665 18.8616C27.7268 15.0386 29.2819 11.3704 31.6437 8.34427C32.7029 7.01529 33.9631 5.86815 35.2032 4.71427C37.8644 2.56815 41.0865 1.15611 44.4314 0.509575Z" fill="#1F2022"/>
<path d="M236.284 8.81567C237.312 8.81792 238.338 8.81792 239.368 8.81567C239.37 15.4381 239.37 22.0606 239.368 28.683C238.338 28.6808 237.312 28.6808 236.286 28.683C236.282 28.1285 236.277 27.5763 236.275 27.0218C234.87 28.8042 232.396 29.3947 230.253 28.8761C228.495 28.5124 226.909 27.4102 225.948 25.8904C223.879 22.7385 224.433 18.004 227.44 15.6402C229.954 13.6085 234.146 13.5322 236.284 16.1632C236.282 13.714 236.28 11.2649 236.284 8.81567ZM231.603 17.0836C230.801 17.1981 229.99 17.4787 229.395 18.0534C227.387 19.8022 227.376 23.3469 229.366 25.1136C230.805 26.4045 233.138 26.4942 234.689 25.3493C236.742 23.8879 236.97 20.6687 235.562 18.6887C234.687 17.4473 233.073 16.8883 231.603 17.0836Z" fill="#1B1C1E"/>
<path d="M144.281 10.1784C145.325 10.1829 146.371 10.1514 147.414 10.2075C147.383 11.6398 147.403 13.0743 147.401 14.5065C149.074 14.5178 150.75 14.4908 152.424 14.5222C152.413 15.4584 152.417 16.3945 152.408 17.3284C150.739 17.3463 149.068 17.3284 147.396 17.3396C147.416 19.6361 147.365 21.9349 147.421 24.2292C147.423 25.0082 147.899 25.7961 148.668 26.0184C149.883 26.3506 151.088 25.8118 152.194 25.3539C152.453 26.2271 152.752 27.0869 153.094 27.931C151.188 29.141 148.672 29.4127 146.576 28.5596C145.014 27.8794 144.326 26.0588 144.297 24.4492C144.261 22.0808 144.288 19.7124 144.284 17.3441C143.325 17.3329 142.367 17.3396 141.41 17.3306C141.401 16.39 141.401 15.4494 141.406 14.511C142.367 14.5065 143.33 14.52 144.29 14.4886C144.27 13.0518 144.284 11.6151 144.281 10.1784Z" fill="#1B1C1E"/>
<path d="M86.9392 16.1766C88.0743 14.6479 90.0429 13.8577 91.9153 14.1764C93.4839 14.3628 94.9296 15.2719 95.7675 16.6189C96.7819 15.1956 98.4063 14.1697 100.185 14.1742C101.765 14.0485 103.425 14.4436 104.638 15.5054C105.738 16.5224 106.316 18.0242 106.341 19.5126C106.368 22.5679 106.343 25.6232 106.352 28.6807C105.313 28.683 104.274 28.6807 103.237 28.683C103.233 26.1575 103.235 23.6297 103.237 21.1042C103.242 20.0581 103.163 18.9244 102.498 18.0691C101.97 17.335 101.032 17.0409 100.163 17.0746C99.0655 17.0072 97.9036 17.4675 97.2936 18.4148C96.802 19.1242 96.6523 20.0064 96.6657 20.8572C96.6747 23.4524 96.6411 26.0475 96.6858 28.6426C95.6401 28.7144 94.5922 28.674 93.5465 28.6807C93.5442 26.007 93.5532 23.3311 93.5442 20.6575C93.5442 19.434 93.1577 18.0242 92.0136 17.4023C90.6685 16.7513 88.8474 16.9668 87.8263 18.1072C87.0733 18.9895 86.9593 20.2085 86.9504 21.3219C86.9549 23.7756 86.9549 26.2293 86.9526 28.683C85.9226 28.6807 84.8903 28.6852 83.858 28.6762C83.8445 24.9564 83.7999 21.2321 83.9049 17.5124C83.9138 16.5089 83.7708 15.5032 83.9205 14.5019C84.9238 14.5109 85.927 14.5087 86.9325 14.5042C86.9348 15.0632 86.937 15.6199 86.9392 16.1766Z" fill="#1B1C1E"/>
<path d="M128.754 15.4718C130.012 14.4526 131.677 14.1473 133.252 14.1046C135.241 14.1697 137.279 14.5603 138.99 15.6289C138.546 16.4393 138.079 17.2385 137.676 18.0713C135.9 17.2093 133.869 16.6189 131.898 17.0611C131.098 17.2205 130.314 17.9816 130.569 18.8548C130.75 19.5103 131.505 19.6697 132.077 19.8067C134.021 20.186 136.17 20.195 137.842 21.4028C139.084 22.2401 139.574 23.9126 139.214 25.3358C138.919 26.8916 137.571 28.0342 136.139 28.5303C133.92 29.2869 131.469 29.1769 129.246 28.4989C128.375 28.1846 127.467 27.8344 126.784 27.1901C127.17 26.3685 127.713 25.6322 128.133 24.8262C130.073 26.126 132.56 26.6985 134.83 26.0362C135.444 25.8589 136.083 25.383 136.099 24.6826C136.175 24.0989 135.706 23.6095 135.187 23.4434C133.456 22.853 131.547 23.0169 129.856 22.2716C128.926 21.8518 127.999 21.2142 127.597 20.2354C126.94 18.6236 127.358 16.5583 128.754 15.4718Z" fill="#1B1C1E"/>
<path d="M158.358 15.1059C160.988 13.5502 164.697 13.8308 166.813 16.134C168.489 17.8783 168.905 20.442 168.728 22.7767C165.236 22.7902 161.744 22.7924 158.253 22.7744C158.32 24.3122 159.482 25.6434 160.928 26.0677C162.885 26.5773 164.979 25.9936 166.565 24.7836C167.055 25.5357 167.551 26.2855 168.069 27.0173C166.405 28.5618 164.052 29.1342 161.833 29.0355C159.757 28.9591 157.652 28.023 156.426 26.2967C155.116 24.5704 154.803 22.2716 155.101 20.1704C155.38 18.1185 156.542 16.1385 158.358 15.1059ZM159.031 18.2846C158.573 18.8818 158.345 19.6159 158.249 20.3567C160.698 20.341 163.147 20.3769 165.596 20.3365C165.366 19.3397 165.039 18.2667 164.199 17.6134C162.669 16.4663 160.182 16.6975 159.031 18.2846Z" fill="#1B1C1E"/>
<path d="M177.525 14.291C178.656 13.9543 179.854 14.1675 180.951 14.5312C180.629 15.4898 180.323 16.4529 179.999 17.4092C178.712 17.0163 177.076 16.7986 176.006 17.7998C174.951 18.8347 175.045 20.4061 175.007 21.7643C175.045 24.072 175.021 26.3798 175.009 28.6853C173.993 28.6786 172.976 28.6808 171.959 28.6831C171.962 23.9575 171.953 19.232 171.964 14.5065C172.972 14.5088 173.982 14.511 174.994 14.502C174.998 15.0543 175 15.6065 175.005 16.1588C175.644 15.3124 176.471 14.5492 177.525 14.291Z" fill="#1B1C1E"/>
<path d="M217.875 16.134C219.124 14.1989 221.751 13.631 223.794 14.5536C223.461 15.4987 223.166 16.4573 222.871 17.4136C221.617 17.0275 220.107 16.8277 218.992 17.6763C218.132 18.3947 217.908 19.5934 217.906 20.662C217.895 23.3357 217.906 26.0094 217.902 28.683C216.874 28.6808 215.846 28.6808 214.82 28.6853C214.811 23.9598 214.818 19.2343 214.818 14.5087C215.835 14.5065 216.854 14.5087 217.872 14.5065C217.872 15.0498 217.872 15.5908 217.875 16.134Z" fill="#1B1C1E"/>
<path d="M111.286 16.0846C113.739 13.6377 118.342 13.3526 120.639 16.1654C120.648 15.6132 120.652 15.0609 120.657 14.5087C121.685 14.5064 122.713 14.5087 123.74 14.5065C123.727 19.2342 123.76 23.9642 123.725 28.692C122.699 28.674 121.676 28.6875 120.652 28.674C120.655 28.1442 120.648 27.6122 120.637 27.0801C118.308 29.7987 113.799 29.5809 111.35 27.152C108.329 24.3279 108.325 18.9581 111.286 16.0846ZM115.451 17.1756C112.629 17.7638 111.518 21.3669 112.729 23.7756C113.679 25.9981 116.695 26.813 118.706 25.5671C121.193 24.1483 121.519 20.2758 119.555 18.2779C118.539 17.1487 116.881 16.8838 115.451 17.1756Z" fill="#1B1C1E"/>
<path d="M184.222 15.9725C185.737 14.6457 187.797 14.0553 189.786 14.1698C191.491 14.1114 193.142 14.7692 194.498 15.7794C194.074 16.6661 193.544 17.4968 193.028 18.3296C191.906 17.4833 190.507 16.9872 189.097 17.0792C187.732 17.0972 186.407 17.8559 185.719 19.0435C184.827 20.6239 184.854 22.678 185.773 24.2404C186.644 25.6345 188.385 26.3372 189.987 26.1104C191.12 26.0094 192.116 25.4257 193.095 24.8937C193.544 25.7265 194.029 26.5414 194.518 27.3496C193.151 28.5214 191.343 29.0782 189.562 29.0468C187.364 29.0939 185.08 28.3082 183.621 26.6021C181.074 23.6298 181.288 18.6125 184.222 15.9725Z" fill="#1B1C1E"/>
<path d="M198.366 16.0397C200.806 13.6422 205.382 13.3526 207.637 16.1542C207.628 15.6065 207.63 15.0632 207.637 14.5177C208.669 14.5065 209.701 14.4975 210.736 14.5244C210.713 19.2432 210.731 23.962 210.725 28.6808C209.708 28.683 208.691 28.6807 207.677 28.6852C207.639 28.124 207.619 27.5628 207.616 27.0016C205.489 29.801 201.003 29.572 198.565 27.3226C195.334 24.5389 195.269 18.9469 198.366 16.0397ZM202.381 17.1981C199.546 17.885 198.451 21.6138 199.867 24.0024C200.978 26.2226 204.162 26.8108 206.095 25.3336C208.414 23.614 208.41 19.6697 206.169 17.8805C205.096 17.0701 203.664 16.913 202.381 17.1981Z" fill="#1B1C1E"/>
<path d="M242.588 27.4775C242.753 27.2889 243.325 27.2485 243.332 27.574C243.148 27.7155 242.588 27.7918 242.588 27.4775Z" fill="#1B1C1E"/>
<path d="M242.306 28.7391C242.007 28.6718 242.02 27.8995 242.315 27.8187C242.424 28.124 242.422 28.4316 242.306 28.7391Z" fill="#1B1C1E"/>
<path d="M242.927 28.5662C242.476 28.4518 242.637 27.7311 243.108 27.8928C243.546 27.9489 243.267 28.6179 242.927 28.5662Z" fill="#1B1C1E"/>
<path d="M243.678 27.9399C243.779 27.9759 243.977 28.0432 244.076 28.0769V28.4967C243.977 28.5304 243.779 28.5977 243.678 28.6314C243.53 28.4001 243.53 28.1712 243.678 27.9399Z" fill="#1B1C1E"/>
<path d="M242.509 28.9434C242.809 28.8245 243.115 28.8222 243.423 28.939C243.356 29.233 242.576 29.2353 242.509 28.9434Z" fill="#1B1C1E"/>
</g>
<defs>
<clipPath id="clip0_295_10054">
<rect width="244" height="44" fill="white" transform="translate(0.0756836)"/>
</clipPath>
</defs>
</svg>
