<svg width="15" height="18" viewBox="0 0 15 18" fill="none" xmlns="http://www.w3.org/2000/svg">
<path d="M7.38658 8.66059C8.57636 8.66059 9.60664 8.23384 10.4485 7.39188C11.2903 6.55009 11.717 5.52009 11.717 4.33017C11.717 3.14061 11.2903 2.1105 10.4483 1.2684C9.60636 0.426721 8.57622 0 7.38658 0C6.19663 0 5.16659 0.426721 4.32481 1.26854C3.48302 2.11036 3.05612 3.1405 3.05612 4.33017C3.05612 5.52009 3.48299 6.55023 4.32495 7.39205C5.16691 8.23373 6.19705 8.66059 7.38658 8.66059ZM14.9637 13.825C14.9394 13.4747 14.8903 13.0925 14.818 12.689C14.745 12.2824 14.6511 11.8981 14.5386 11.5468C14.4224 11.1837 14.2644 10.8251 14.0691 10.4815C13.8663 10.1249 13.6282 9.81431 13.361 9.55877C13.0815 9.29144 12.7395 9.0765 12.3438 8.91967C11.9496 8.76376 11.5127 8.68475 11.0454 8.68475C10.8619 8.68475 10.6844 8.76004 10.3416 8.98323C10.0979 9.1419 9.85354 9.29946 9.60843 9.45589C9.37291 9.60597 9.05385 9.74657 8.65975 9.87386C8.27528 9.99828 7.8849 10.0614 7.49958 10.0614C7.1143 10.0614 6.72402 9.99828 6.33912 9.87386C5.94548 9.74668 5.62642 9.60611 5.39115 9.45603C5.11831 9.28168 4.87145 9.12257 4.65731 8.98306C4.31494 8.7599 4.13729 8.68458 3.95378 8.68458C3.48629 8.68458 3.04956 8.76373 2.65546 8.91985C2.26013 9.07636 1.9179 9.2913 1.6382 9.55891C1.37115 9.81459 1.13289 10.125 0.930419 10.4815C0.735248 10.8251 0.577229 11.1835 0.460892 11.5469C0.348523 11.8982 0.254589 12.2824 0.18162 12.689C0.109317 13.092 0.060226 13.4743 0.0359262 13.8254C0.0117536 14.1788 -0.000227833 14.5329 3.28026e-06 14.8871C3.28026e-06 15.8256 0.298343 16.5854 0.886665 17.1457C1.46772 17.6987 2.23653 17.9792 3.17148 17.9792H11.8285C12.7635 17.9792 13.532 17.6988 14.1132 17.1458C14.7017 16.5858 15 15.8259 15 14.887C14.9999 14.5247 14.9877 14.1674 14.9637 13.825Z" fill="#969696"/>
</svg>
