<svg width="15" height="18" viewBox="0 0 15 18" fill="none" xmlns="http://www.w3.org/2000/svg">
<path d="M13.6524 11.9175C13.1268 11.4741 12.7044 10.9211 12.4148 10.2973C12.1253 9.67353 11.9755 8.99399 11.9761 8.30627V6.34174C11.9761 3.86212 10.1342 1.80951 7.74826 1.46565V0.704638C7.74826 0.517756 7.67402 0.338529 7.54187 0.206384C7.40973 0.0742384 7.2305 0 7.04362 0C6.85674 0 6.67751 0.0742384 6.54537 0.206384C6.41322 0.338529 6.33898 0.517756 6.33898 0.704638V1.46565C3.95237 1.80951 2.11115 3.86212 2.11115 6.34174V8.30627C2.11143 8.99539 1.96095 9.67622 1.67027 10.301C1.37959 10.9258 0.955756 11.4795 0.428478 11.9232C0.237915 12.0875 0.102092 12.306 0.0391973 12.5496C-0.0236975 12.7932 -0.010661 13.0502 0.0765609 13.2862C0.163783 13.5222 0.321026 13.7259 0.527233 13.8701C0.733439 14.0142 0.978765 14.0919 1.23036 14.0928H12.8569C13.5369 14.0928 14.09 13.5396 14.09 12.8596C14.09 12.4989 13.9329 12.1578 13.6524 11.9175ZM7.04362 17.6545C7.65244 17.6537 8.24236 17.4429 8.71394 17.0579C9.18552 16.6728 9.50992 16.1369 9.63246 15.5406H4.45478C4.57732 16.1369 4.90172 16.6728 5.3733 17.0579C5.84488 17.4429 6.4348 17.6537 7.04362 17.6545Z" fill="#969696"/>
</svg>
