<svg width="19" height="24" viewBox="0 0 19 24" fill="none" xmlns="http://www.w3.org/2000/svg">
<path d="M17.6342 16.0123C16.9592 15.4429 16.4167 14.7327 16.0449 13.9316C15.673 13.1305 15.4807 12.2579 15.4815 11.3747V8.85181C15.4815 5.66744 13.116 3.03144 10.052 2.58985V1.61255C10.052 1.37255 9.95667 1.14239 9.78696 0.972683C9.61726 0.80298 9.38709 0.707642 9.1471 0.707642C8.9071 0.707642 8.67693 0.80298 8.50723 0.972683C8.33753 1.14239 8.24219 1.37255 8.24219 1.61255V2.58985C5.17727 3.03144 2.81274 5.66744 2.81274 8.85181V11.3747C2.81309 12.2597 2.61984 13.134 2.24655 13.9364C1.87326 14.7388 1.32896 15.4498 0.651821 16.0196C0.407097 16.2305 0.232671 16.5112 0.1519 16.8241C0.0711298 17.1369 0.0878715 17.467 0.199883 17.77C0.311895 18.0731 0.513829 18.3347 0.778643 18.5198C1.04346 18.7049 1.35851 18.8047 1.68161 18.8058H16.6126C17.4858 18.8058 18.1962 18.0954 18.1962 17.2222C18.1962 16.7589 17.9944 16.3209 17.6342 16.0123ZM9.1471 23.3798C9.92895 23.3787 10.6865 23.1082 11.2921 22.6136C11.8978 22.1191 12.3144 21.431 12.4717 20.6651H5.82246C5.97983 21.431 6.39644 22.1191 7.00204 22.6136C7.60765 23.1082 8.36524 23.3787 9.1471 23.3798Z" fill="#A8A9AB"/>
</svg>
