<svg width="19" height="24" viewBox="0 0 19 24" fill="none" xmlns="http://www.w3.org/2000/svg">
<path d="M17.6342 16.0124C16.9592 15.4429 16.4167 14.7328 16.0449 13.9317C15.673 13.1306 15.4807 12.2579 15.4815 11.3748V8.85187C15.4815 5.6675 13.116 3.03151 10.052 2.58991V1.61261C10.052 1.37261 9.95667 1.14245 9.78696 0.972744C9.61726 0.803041 9.38709 0.707703 9.1471 0.707703C8.9071 0.707703 8.67693 0.803041 8.50723 0.972744C8.33753 1.14245 8.24219 1.37261 8.24219 1.61261V2.58991C5.17727 3.03151 2.81274 5.6675 2.81274 8.85187V11.3748C2.81309 12.2597 2.61984 13.1341 2.24655 13.9365C1.87326 14.7388 1.32896 15.4499 0.651821 16.0196C0.407097 16.2306 0.232671 16.5113 0.1519 16.8241C0.0711298 17.137 0.0878715 17.467 0.199883 17.7701C0.311895 18.0732 0.513829 18.3348 0.778643 18.5199C1.04346 18.705 1.35851 18.8048 1.68161 18.8059H16.6126C17.4858 18.8059 18.1962 18.0955 18.1962 17.2223C18.1962 16.759 17.9944 16.321 17.6342 16.0124ZM9.1471 23.3799C9.92895 23.3788 10.6865 23.1082 11.2921 22.6137C11.8978 22.1192 12.3144 21.431 12.4717 20.6652H5.82246C5.97983 21.431 6.39644 22.1192 7.00204 22.6137C7.60765 23.1082 8.36524 23.3788 9.1471 23.3799Z" fill="#A8A9AB"/>
</svg>
