<svg width="38" height="28" viewBox="0 0 38 28" fill="none" xmlns="http://www.w3.org/2000/svg">
<path d="M12.5749 24.8098C12.5546 25.0119 12.572 25.2229 12.6457 25.432C12.8255 25.9361 13.2475 26.3468 13.7474 26.5016C14.2119 26.6485 14.6741 26.5507 14.8142 26.3983L15.7833 25.3584C16.0637 25.0586 16.1346 24.5795 15.9698 24.1145C15.5643 23.3375 15.021 23.0572 14.3252 22.9316L12.5749 24.8098ZM11.2787 19.6103L9.58496 21.4267C9.24085 21.801 9.14219 22.3765 9.33431 22.9278C9.53823 23.5103 10.0249 23.9842 10.6074 24.1613C11.1588 24.3265 11.712 24.1981 12.0585 23.8294L13.6266 22.1475C13.9731 21.7741 14.0694 21.2016 13.8772 20.6502C13.6733 20.0649 13.1838 19.5928 12.6041 19.4168C12.1415 19.269 11.5987 19.2634 11.2787 19.6103ZM7.92102 16.6213L6.35714 18.3004C6.01255 18.6719 5.91625 19.2492 6.10649 19.8024C6.31041 20.383 6.79708 20.857 7.37958 21.034C7.92999 21.2016 8.48888 21.0708 8.66307 20.8862L10.3992 19.0231C10.7457 18.6488 10.842 18.0733 10.6499 17.5229C10.445 16.9385 9.95835 16.4665 9.37585 16.2914C8.84008 16.1167 8.2472 16.272 7.92102 16.6213ZM4.86171 13.3114L3.12837 15.1755C2.78189 15.5489 2.6856 16.1214 2.87772 16.67C3.07975 17.2572 3.56926 17.7292 4.15176 17.9062C4.70216 18.0705 5.26011 17.943 5.43241 17.7561L7.17047 15.893V15.8911C7.51695 15.5224 7.61324 14.9489 7.42112 14.3985C7.22003 13.8113 6.73053 13.3392 6.14803 13.1641C5.70289 13.0107 5.16429 12.9842 4.86171 13.3114ZM27.3649 2.19431C26.2438 2.82118 24.6856 2.93352 23.168 3.04257C22.02 3.12092 20.8356 3.204 19.9845 3.51838L15.2523 5.26447C15.2206 5.27678 15.1874 5.28518 15.1536 5.28949C14.9252 5.32536 14.7137 5.35604 14.5239 5.38248C13.3717 5.54486 13.2386 5.59443 13.1059 5.93571C12.9851 6.25104 13.1177 6.70561 13.4453 7.09174C13.7125 7.40896 14.7581 8.3993 16.9092 7.88997L19.6041 7.53405C21.1132 7.33957 22.323 8.3233 23.2893 9.11728L30.5366 14.9149L30.5422 14.9121C31.9749 14.3126 33.4675 13.5328 34.7363 12.0043L27.3649 2.19431Z" fill="#91E2FD"/>
<path d="M17.3927 1.84224C16.9631 1.88189 16.4708 1.93618 15.9544 1.98999C13.098 2.29493 11.5143 2.41483 10.7086 2.26566L3.29324 11.9175C3.55401 12.1597 3.7829 12.4341 3.9744 12.7341C4.59419 12.0997 5.53072 11.8731 6.44271 12.1488C7.3377 12.4188 8.08494 13.1443 8.39743 14.0445C8.53008 14.4255 8.57162 14.8163 8.53763 15.1906C8.917 15.1362 9.30371 15.1655 9.67053 15.2766C10.5632 15.5447 11.3132 16.2721 11.6234 17.1723C11.7579 17.5513 11.8004 17.9412 11.7683 18.3156C12.1478 18.2609 12.5348 18.2912 12.9012 18.4043C13.7919 18.6743 14.5387 19.3998 14.8512 20.2953C15.0476 20.8632 15.0551 21.4476 14.8956 21.9715C14.9867 21.989 15.0801 22.0112 15.1731 22.0405C15.9723 22.2883 16.6511 22.9449 16.9433 23.7544C17.2218 24.538 17.1009 25.3613 16.6435 25.9523L17.9591 27.0044C18.2811 27.2598 18.7503 27.2877 19.1883 27.0753C19.6632 26.8449 20.0219 26.3771 20.1277 25.8536C20.1685 25.6458 20.1616 25.4314 20.1074 25.2267L18.4387 23.8918C18.3307 23.8037 18.2611 23.6771 18.2445 23.5387C18.228 23.4003 18.2658 23.2608 18.35 23.1497C18.3913 23.0954 18.443 23.0498 18.5022 23.0157C18.5614 22.9816 18.6267 22.9596 18.6945 22.9511C18.7623 22.9427 18.8311 22.9478 18.8968 22.9663C18.9625 22.9847 19.0239 23.0161 19.0774 23.0586L21.0836 24.6664C21.2828 24.826 21.8535 24.8685 22.377 24.6221C22.9274 24.3591 23.3432 23.8172 23.4584 23.2125C23.5689 22.6409 23.3919 22.0867 22.9982 21.7695L21.1836 20.3175C21.0749 20.2303 21.0047 20.1039 20.9881 19.9655C20.9715 19.8272 21.0099 19.6878 21.0949 19.5773C21.1356 19.5224 21.187 19.4763 21.246 19.4418C21.305 19.4073 21.3704 19.3851 21.4382 19.3766C21.506 19.3681 21.5748 19.3734 21.6405 19.3923C21.7062 19.4111 21.7674 19.4431 21.8204 19.4862L24.4582 21.5958C24.8547 21.9111 25.4245 21.9545 25.9508 21.7091C26.4965 21.448 26.9123 20.9071 27.0304 20.2958C27.1408 19.7241 26.9638 19.1719 26.5659 18.8518L23.9272 16.7451C23.8183 16.6567 23.7481 16.5294 23.7315 16.3902C23.7149 16.2509 23.7533 16.1107 23.8384 15.9993C23.8801 15.9452 23.9322 15.9 23.9915 15.8662C24.0509 15.8325 24.1164 15.8109 24.1842 15.8027C24.252 15.7946 24.3207 15.8 24.3864 15.8186C24.4521 15.8373 24.5134 15.8689 24.5668 15.9115C24.5668 15.9115 28.5735 19.1152 28.5763 19.1152C28.7755 19.2719 29.3434 19.3163 29.8645 19.0671C30.4158 18.8098 30.8289 18.2688 30.9488 17.6594C31.0573 17.0868 30.8803 16.5308 30.4843 16.2164L22.6423 9.94059C21.7425 9.20279 20.8131 8.43856 19.7335 8.58347L17.0929 8.92806C15.3129 9.35573 13.6338 8.93279 12.6628 7.78478C12.0775 7.09324 11.8783 6.2379 12.1412 5.55013C12.5099 4.59613 13.216 4.49748 14.3815 4.33321C14.5557 4.31102 14.7431 4.28364 14.9494 4.25107L19.633 2.5234C19.9375 2.41011 20.2745 2.33175 20.6233 2.26236C19.4191 1.79645 18.5463 1.7686 17.3927 1.84224ZM7.2145 0.013077C6.36152 -0.0515928 5.58265 0.591328 4.46155 2.05135L1.59436 5.78615C0.557285 7.13336 0.168795 7.97124 0.254706 8.68119C0.323625 9.26463 0.729581 9.83722 1.13223 10.1601L2.49219 11.2463L9.87729 1.63407L8.9214 0.868889C8.26432 0.344922 7.72619 0.0527285 7.2145 0.013077ZM30.8959 0.00316321C30.3842 0.0352621 29.8414 0.32132 29.1791 0.837735L28.2128 1.58734L35.4955 11.2779L36.4367 10.5458C37.251 9.91416 37.6664 9.34913 37.7424 8.76615C37.8363 8.05809 37.4601 7.21361 36.4396 5.84893L33.6191 2.07826C32.5202 0.60313 31.7512 -0.0515937 30.8959 0.00316321Z" fill="#91E2FD"/>
</svg>
