<svg width="207" height="60" viewBox="0 0 207 60" fill="none" xmlns="http://www.w3.org/2000/svg">
<mask id="mask0_790_91095" style="mask-type:alpha" maskUnits="userSpaceOnUse" x="0" y="0" width="207" height="60">
<rect width="207" height="60" rx="10" fill="#D9D9D9"/>
</mask>
<g mask="url(#mask0_790_91095)">
<g filter="url(#filter0_f_790_91095)">
<rect x="0.5" y="0.5" width="206" height="59" rx="9.5" fill="#141517" stroke="#191A1C"/>
<g opacity="0.44" filter="url(#filter1_f_790_91095)">
<ellipse cx="183.763" cy="95.204" rx="183.763" ry="95.204" transform="matrix(0.941227 -0.337774 0.493662 0.869654 -390 52.1404)" fill="#FDF74B"/>
</g>
<path d="M32.4347 28.849V27.0168L30.6874 26.4651C19.9564 23.0767 13.8012 12.0094 10.7322 4.09603L10.1132 2.5H8.40134H3.69836H1.9865L1.36752 4.09603C-1.70152 12.0094 -7.85674 23.0767 -18.5877 26.4651L-20.335 27.0168V28.849V31.1523V32.983L-18.5897 33.5357C-7.85599 36.9346 -1.68975 48.0053 1.36691 55.9024L1.98528 57.5H3.69836H8.40134H10.1144L10.7328 55.9024C13.7894 48.0053 19.9557 36.9346 30.6894 33.5357L32.4347 32.983V31.1523V28.849Z" fill="url(#paint0_linear_790_91095)" stroke="url(#paint1_linear_790_91095)" stroke-width="5"/>
<path d="M29.935 29.9998V31.1423C17.9388 34.9145 11.3688 47.0019 8.25765 54.9998H5.8877V29.9998H29.935Z" fill="url(#paint2_linear_790_91095)"/>
<path d="M5.88737 5V30H-17.835V28.8397C-6.00088 25.087 0.471312 13.004 3.54944 5H5.88737Z" fill="url(#paint3_linear_790_91095)"/>
<g filter="url(#filter2_f_790_91095)">
<ellipse cx="10.7615" cy="30.0002" rx="7.14919" ry="7.14286" fill="white"/>
</g>
</g>
</g>
<defs>
<filter id="filter0_f_790_91095" x="-353.318" y="-34.6191" width="564.318" height="214.968" filterUnits="userSpaceOnUse" color-interpolation-filters="sRGB">
<feFlood flood-opacity="0" result="BackgroundImageFix"/>
<feBlend mode="normal" in="SourceGraphic" in2="BackgroundImageFix" result="shape"/>
<feGaussianBlur stdDeviation="2" result="effect1_foregroundBlur_790_91095"/>
</filter>
<filter id="filter1_f_790_91095" x="-499.318" y="-180.619" width="658.558" height="506.968" filterUnits="userSpaceOnUse" color-interpolation-filters="sRGB">
<feFlood flood-opacity="0" result="BackgroundImageFix"/>
<feBlend mode="normal" in="SourceGraphic" in2="BackgroundImageFix" result="shape"/>
<feGaussianBlur stdDeviation="75" result="effect1_foregroundBlur_790_91095"/>
</filter>
<filter id="filter2_f_790_91095" x="-66.3877" y="-47.1426" width="154.298" height="154.286" filterUnits="userSpaceOnUse" color-interpolation-filters="sRGB">
<feFlood flood-opacity="0" result="BackgroundImageFix"/>
<feBlend mode="normal" in="SourceGraphic" in2="BackgroundImageFix" result="shape"/>
<feGaussianBlur stdDeviation="35" result="effect1_foregroundBlur_790_91095"/>
</filter>
<linearGradient id="paint0_linear_790_91095" x1="6.04985" y1="5" x2="29.898" y2="65.5664" gradientUnits="userSpaceOnUse">
<stop stop-color="#FDF74B"/>
<stop offset="1" stop-color="#A09B05"/>
</linearGradient>
<linearGradient id="paint1_linear_790_91095" x1="23.5979" y1="1.42857" x2="-11.9433" y2="52.1076" gradientUnits="userSpaceOnUse">
<stop stop-color="#F7F147"/>
<stop offset="1" stop-color="#C4BF21"/>
</linearGradient>
<linearGradient id="paint2_linear_790_91095" x1="17.9113" y1="29.9998" x2="17.9113" y2="54.9998" gradientUnits="userSpaceOnUse">
<stop stop-color="#FAF449"/>
<stop offset="1" stop-color="#FFFB73"/>
</linearGradient>
<linearGradient id="paint3_linear_790_91095" x1="-5.9738" y1="5" x2="-5.9738" y2="30" gradientUnits="userSpaceOnUse">
<stop stop-color="#FAF449"/>
<stop offset="1" stop-color="#FFFB73"/>
</linearGradient>
</defs>
</svg>
