<svg width="23" height="23" viewBox="0 0 23 23" fill="none" xmlns="http://www.w3.org/2000/svg">
<g clip-path="url(#clip0_1_94)">
<path fill-rule="evenodd" clip-rule="evenodd" d="M20.4227 13.6934C19.7207 13.289 19.2847 12.5356 19.2847 11.7263C19.2847 10.9174 19.7206 10.164 20.4207 9.75992C21.1391 9.34688 21.4379 8.48867 21.1309 7.71947C20.7461 6.74784 20.2221 5.84032 19.5774 5.02176C19.0636 4.37005 18.1712 4.19937 17.4528 4.61506C16.7528 5.02176 15.8809 5.02299 15.1789 4.61812C14.4788 4.21326 14.0449 3.4586 14.047 2.64786C14.047 1.81848 13.4534 1.13016 12.6327 1.01145C11.5995 0.861945 10.5502 0.862975 9.51741 1.01451C8.69869 1.13405 8.10514 1.82197 8.10715 2.6497C8.10715 3.45943 7.6732 4.21365 6.97322 4.61812C6.27115 5.02255 5.40128 5.02172 4.69925 4.61546C3.98084 4.19976 3.08843 4.37127 2.57469 5.02299C2.25297 5.43198 1.9609 5.86345 1.70071 6.3141C1.44076 6.76422 1.21356 7.23599 1.02117 7.71554C0.712087 8.48597 1.01095 9.3454 1.72936 9.75948C2.43143 10.1635 2.8674 10.9173 2.8674 11.7262C2.8674 12.5351 2.43143 13.2884 1.73141 13.693C1.01301 14.1061 0.714184 14.9639 1.02117 15.7328C1.40534 16.7028 1.92866 17.6116 2.57469 18.4307C3.08843 19.0824 3.98084 19.2531 4.69925 18.8374C5.39927 18.4307 6.27119 18.4299 6.97322 18.8344C7.6732 19.2392 8.10715 19.9939 8.10715 20.8046C8.1051 21.6338 8.70069 22.3221 9.51942 22.4411C10.0312 22.5152 10.5476 22.5524 11.0647 22.5524C11.5887 22.5524 12.1127 22.5143 12.6346 22.438C13.4533 22.3182 14.0469 21.6309 14.0469 20.8032C14.0448 19.9931 14.4787 19.2388 15.1788 18.8344C15.8808 18.4299 16.7507 18.4308 17.4527 18.837C18.1711 19.2527 19.0636 19.0816 19.5773 18.4295C19.8988 18.0205 20.1909 17.5892 20.4513 17.1388C20.7092 16.6887 20.9405 16.2169 21.1308 15.7369C21.44 14.9665 21.1412 14.1069 20.4227 13.6934ZM13.8607 13.3344C13.4329 14.0783 12.739 14.6106 11.9081 14.8329C11.0791 15.0552 10.2113 14.9412 9.46828 14.5113C7.9332 13.6247 7.40512 11.6542 8.29137 10.1181C8.88496 9.08772 9.96975 8.51095 11.0811 8.51095C11.6277 8.51095 12.1783 8.64931 12.6838 8.94119C14.2189 9.82766 14.747 11.7987 13.8607 13.3344Z" fill="#A8A9AB"/>
</g>
<defs>
<clipPath id="clip0_1_94">
<rect width="21.2" height="21.2" fill="white" transform="translate(0.900085 0.900085)"/>
</clipPath>
</defs>
</svg>
