<svg width="164" height="60" viewBox="0 0 164 60" fill="none" xmlns="http://www.w3.org/2000/svg">
<mask id="mask0_1273_46981" style="mask-type:alpha" maskUnits="userSpaceOnUse" x="0" y="0" width="164" height="60">
<rect width="164" height="59.7714" rx="10" fill="#D9D9D9"/>
</mask>
<g mask="url(#mask0_1273_46981)">
<g filter="url(#filter0_f_1273_46981)">
<rect x="0.5" y="0.5" width="163" height="58.7714" rx="9.5" fill="#141517" stroke="#191A1C"/>
<g opacity="0.44" filter="url(#filter1_f_1273_46981)">
<ellipse cx="183.683" cy="94.9298" rx="183.683" ry="94.9298" transform="matrix(0.941636 -0.336632 0.495088 0.868843 -368 48.6673)" fill="#FDF74B"/>
</g>
<path d="M56.705 31.39L53.48 27.85V34H50.705V23.65H52.865L56.735 28.12L60.56 23.65H62.705V34H59.93V27.865L56.705 31.39ZM64.0483 26.5H66.5683V34H64.0483V26.5ZM66.6283 25.525H63.9883V23.665H66.6283V25.525ZM72.9716 34V29.275C72.9716 28.865 72.8666 28.585 72.6566 28.435C72.4466 28.275 72.1166 28.195 71.6666 28.195C70.8166 28.195 70.3716 28.55 70.3316 29.26V34H67.8116V26.5H70.3316V28.045H70.5866C70.7166 27.475 70.9766 27.04 71.3666 26.74C71.7566 26.43 72.2516 26.275 72.8516 26.275C73.7116 26.275 74.3666 26.475 74.8166 26.875C75.2666 27.265 75.4916 27.94 75.4916 28.9V34H72.9716ZM84.4756 29.68V30.58H79.0006V30.61C79.0106 31.22 79.1406 31.655 79.3906 31.915C79.6506 32.175 80.0406 32.305 80.5606 32.305C81.4206 32.305 81.8856 31.97 81.9556 31.3H84.4756C84.4056 32.37 84.0556 33.125 83.4256 33.565C82.7956 34.005 81.8406 34.225 80.5606 34.225C79.1406 34.225 78.1056 33.935 77.4556 33.355C76.8056 32.765 76.4806 31.745 76.4806 30.295C76.4806 28.805 76.8006 27.765 77.4406 27.175C78.0906 26.575 79.1256 26.275 80.5456 26.275C81.8656 26.275 82.8506 26.54 83.5006 27.07C84.1506 27.6 84.4756 28.47 84.4756 29.68ZM79.0006 29.68V29.8H81.9406C81.9406 29.22 81.8206 28.81 81.5806 28.57C81.3506 28.32 81.0006 28.195 80.5306 28.195C80.0506 28.195 79.6806 28.31 79.4206 28.54C79.1606 28.76 79.0206 29.14 79.0006 29.68ZM88.9272 28C88.1272 28 87.7272 28.21 87.7272 28.63C87.7272 28.91 87.9972 29.1 88.5372 29.2L90.5622 29.575C91.2822 29.715 91.8172 29.955 92.1672 30.295C92.5172 30.625 92.6922 31.095 92.6922 31.705C92.6922 32.535 92.4072 33.165 91.8372 33.595C91.2772 34.015 90.3322 34.225 89.0022 34.225C87.6722 34.225 86.7172 34.02 86.1372 33.61C85.5672 33.2 85.2622 32.475 85.2222 31.435H87.6372C87.6672 32.145 88.1422 32.5 89.0622 32.5C89.9222 32.5 90.3522 32.26 90.3522 31.78C90.3522 31.61 90.2822 31.485 90.1422 31.405C90.0122 31.315 89.8022 31.245 89.5122 31.195L87.3972 30.79C86.7372 30.66 86.2372 30.425 85.8972 30.085C85.5572 29.745 85.3872 29.255 85.3872 28.615C85.3872 27.055 86.5622 26.275 88.9122 26.275C90.1522 26.275 91.0672 26.475 91.6572 26.875C92.2472 27.275 92.5622 27.965 92.6022 28.945H90.2322C90.1922 28.315 89.7572 28 88.9272 28Z" fill="#FDF74B"/>
<path d="M128.223 29.892C128.761 29.5367 129.146 29.19 129.38 28.852C129.614 28.514 129.731 28.15 129.731 27.76C129.731 27.318 129.593 26.98 129.315 26.746C129.038 26.512 128.561 26.395 127.885 26.395C127.227 26.395 126.733 26.5293 126.403 26.798C126.083 27.0667 125.94 27.5477 125.974 28.241H124.167C124.072 25.9703 125.316 24.835 127.898 24.835C130.36 24.835 131.59 25.8013 131.59 27.734C131.59 28.3667 131.421 28.93 131.083 29.424C130.754 29.9093 130.173 30.4033 129.341 30.906L127.092 32.401V32.479H131.72V34H124.024V32.752L128.223 29.892ZM139.482 31.322C139.482 30.3687 138.685 29.892 137.09 29.892C135.495 29.892 134.698 30.3687 134.698 31.322C134.698 31.7727 134.871 32.1107 135.218 32.336C135.573 32.5613 136.197 32.674 137.09 32.674C137.983 32.674 138.602 32.5613 138.949 32.336C139.304 32.1107 139.482 31.7727 139.482 31.322ZM135.517 28.449C135.82 28.6483 136.345 28.748 137.09 28.748C137.835 28.748 138.36 28.6483 138.663 28.449C138.975 28.241 139.131 27.9247 139.131 27.5C139.131 27.0753 138.975 26.7763 138.663 26.603C138.351 26.421 137.827 26.33 137.09 26.33C136.362 26.33 135.842 26.421 135.53 26.603C135.218 26.7763 135.062 27.0753 135.062 27.5C135.062 27.9247 135.214 28.241 135.517 28.449ZM133.281 27.253C133.281 25.641 134.551 24.835 137.09 24.835C139.629 24.835 140.899 25.641 140.899 27.253C140.899 27.7817 140.756 28.215 140.47 28.553C140.193 28.891 139.785 29.1033 139.248 29.19V29.294C140.626 29.5627 141.315 30.308 141.315 31.53C141.315 32.4313 140.994 33.103 140.353 33.545C139.712 33.9783 138.624 34.195 137.09 34.195C135.565 34.195 134.481 33.9783 133.84 33.545C133.199 33.103 132.878 32.4313 132.878 31.53C132.878 30.3167 133.563 29.5713 134.932 29.294V29.19C134.403 29.1033 133.996 28.891 133.71 28.553C133.424 28.2063 133.281 27.773 133.281 27.253Z" fill="#636150"/>
<path d="M109.357 28.7789C109.931 28.7789 110.492 28.6093 110.97 28.2916C111.447 27.9738 111.819 27.5222 112.039 26.9939C112.258 26.4655 112.316 25.8842 112.204 25.3233C112.092 24.7624 111.815 24.2472 111.409 23.8429C111.003 23.4385 110.486 23.1632 109.923 23.0517C109.36 22.9402 108.776 22.9975 108.246 23.2164C107.716 23.4353 107.262 23.806 106.943 24.2816C106.625 24.7571 106.454 25.3162 106.455 25.888C106.455 26.6546 106.761 27.3895 107.306 27.9315C107.85 28.4735 108.588 28.7782 109.357 28.7789ZM113.154 31.1674C112.418 30.4158 111.475 29.8998 110.443 29.6851C109.412 29.4705 108.34 29.5669 107.364 29.9622C106.388 30.3575 105.552 31.0336 104.964 31.9042C104.376 32.7748 104.061 33.8004 104.061 34.85C104.061 34.9841 104.114 35.1128 104.209 35.2077C104.305 35.3026 104.434 35.3559 104.568 35.3559H114.147C114.281 35.3559 114.41 35.3026 114.506 35.2077C114.601 35.1128 114.654 34.9841 114.654 34.85C114.656 34.3135 114.573 33.7801 114.408 33.2695C114.162 32.48 113.732 31.7597 113.154 31.1674Z" fill="#636150"/>
<path d="M115.487 29.0319C116.679 29.0319 117.646 28.0692 117.646 26.8817C117.646 25.6942 116.679 24.7315 115.487 24.7315C114.295 24.7315 113.329 25.6942 113.329 26.8817C113.329 28.0692 114.295 29.0319 115.487 29.0319Z" fill="#636150"/>
<path d="M115.487 29.6237C114.807 29.6263 114.139 29.811 113.554 30.1585C113.665 30.2566 113.776 30.3533 113.88 30.4595C114.571 31.1676 115.085 32.0284 115.379 32.9719C115.48 33.2825 115.554 33.601 115.601 33.9241H118.788C118.923 33.9241 119.052 33.8708 119.148 33.7759C119.243 33.681 119.296 33.5523 119.296 33.4181C119.295 32.4121 118.894 31.4476 118.179 30.7363C117.465 30.0249 116.497 29.6248 115.487 29.6237Z" fill="#636150"/>
<path d="M32.4347 28.7391V26.9047L30.6848 26.3543C19.9525 22.9784 13.7988 11.9541 10.731 4.07399L10.1108 2.48096H8.40134H3.69836H1.98887L1.36868 4.07399C-1.69913 11.9541 -7.85278 22.9784 -18.5851 26.3543L-20.335 26.9047V28.7391V31.0336V32.8664L-18.5871 33.4178C-7.85203 36.8042 -1.68736 47.832 1.36808 55.6958L1.98764 57.2904H3.69836H8.40134H10.1121L10.7316 55.6958C13.7871 47.832 19.9517 36.8042 30.6868 33.4178L32.4347 32.8664V31.0336V28.7391Z" fill="url(#paint0_linear_1273_46981)" stroke="url(#paint1_linear_1273_46981)" stroke-width="5"/>
<path d="M29.935 29.8854V31.0236C17.9388 34.7815 11.3688 46.8228 8.25765 54.7902H5.8877V29.8854H29.935Z" fill="url(#paint2_linear_1273_46981)"/>
<path d="M5.88737 4.98096V29.8857H-17.835V28.7299C-6.00088 24.9914 0.471312 12.9544 3.54944 4.98096H5.88737Z" fill="url(#paint3_linear_1273_46981)"/>
<g filter="url(#filter2_f_1273_46981)">
<ellipse cx="10.7613" cy="29.8859" rx="7.14919" ry="7.11564" fill="white"/>
</g>
</g>
<g opacity="0.5" filter="url(#filter3_b_1273_46981)">
<rect width="164" height="60" rx="10" fill="#08090C"/>
<rect x="0.5" y="0.5" width="163" height="59" rx="9.5" stroke="#191A1C"/>
</g>
</g>
<path opacity="0.25" d="M78.84 29.066H81.444C81.3227 30.5873 80.9073 31.6607 80.198 32.286C79.498 32.902 78.28 33.21 76.544 33.21C75.648 33.21 74.8967 33.1307 74.29 32.972C73.6833 32.8133 73.1653 32.5427 72.736 32.16C72.3067 31.7773 71.994 31.264 71.798 30.62C71.6113 29.9667 71.518 29.1547 71.518 28.184C71.518 27.176 71.616 26.3453 71.812 25.692C72.0173 25.0293 72.3393 24.5113 72.778 24.138C73.2167 23.7647 73.73 23.5033 74.318 23.354C74.9153 23.2047 75.6573 23.13 76.544 23.13C78.196 23.13 79.3813 23.424 80.1 24.012C80.828 24.6 81.2573 25.6127 81.388 27.05H78.798C78.714 26.3313 78.5227 25.86 78.224 25.636C77.9253 25.412 77.3653 25.3 76.544 25.3C76.0587 25.3 75.676 25.3327 75.396 25.398C75.1253 25.454 74.8827 25.5847 74.668 25.79C74.4627 25.986 74.318 26.2753 74.234 26.658C74.1593 27.0313 74.122 27.54 74.122 28.184C74.122 29.0053 74.2013 29.6213 74.36 30.032C74.528 30.4427 74.7707 30.7133 75.088 30.844C75.4147 30.9747 75.9 31.04 76.544 31.04C77.3747 31.04 77.9487 30.914 78.266 30.662C78.5833 30.4007 78.7747 29.8687 78.84 29.066ZM89.7371 26L87.4831 29.192L89.9331 33H87.2451L85.5511 30.102H84.7671V33H82.4151V26H84.7671V29.528L87.1331 26H89.7371ZM92.7981 30.998C93.0314 31.278 93.4048 31.418 93.9181 31.418C94.4314 31.418 94.8048 31.278 95.0381 30.998C95.2808 30.7087 95.4021 30.2233 95.4021 29.542C95.4021 28.8233 95.2808 28.3193 95.0381 28.03C94.8048 27.7313 94.4314 27.582 93.9181 27.582C93.3954 27.582 93.0174 27.7267 92.7841 28.016C92.5601 28.3053 92.4481 28.814 92.4481 29.542C92.4481 30.2233 92.5648 30.7087 92.7981 30.998ZM93.9181 25.79C95.2528 25.79 96.2234 26.07 96.8301 26.63C97.4461 27.1807 97.7541 28.1513 97.7541 29.542C97.7541 30.8953 97.4461 31.8473 96.8301 32.398C96.2234 32.9393 95.2528 33.21 93.9181 33.21C92.5928 33.21 91.6221 32.9393 91.0061 32.398C90.3994 31.8473 90.0961 30.8953 90.0961 29.542C90.0961 28.1513 90.3994 27.1807 91.0061 26.63C91.6221 26.07 92.5928 25.79 93.9181 25.79ZM103.583 33.21C102.361 33.21 101.609 32.6593 101.329 31.558H101.091V35.52H98.7394V26H101.091V27.442H101.329C101.46 26.9193 101.717 26.5133 102.099 26.224C102.491 25.9347 102.986 25.79 103.583 25.79C104.535 25.79 105.235 26.0653 105.683 26.616C106.131 27.1667 106.355 28.1373 106.355 29.528C106.355 30.9093 106.131 31.8707 105.683 32.412C105.235 32.944 104.535 33.21 103.583 33.21ZM102.491 27.582C101.586 27.582 101.119 28.002 101.091 28.842V30.088C101.091 30.9747 101.558 31.418 102.491 31.418C103.079 31.418 103.481 31.2967 103.695 31.054C103.91 30.802 104.017 30.2933 104.017 29.528C104.017 28.744 103.905 28.226 103.681 27.974C103.467 27.7127 103.07 27.582 102.491 27.582ZM109.929 30.998C110.162 31.278 110.536 31.418 111.049 31.418C111.562 31.418 111.936 31.278 112.169 30.998C112.412 30.7087 112.533 30.2233 112.533 29.542C112.533 28.8233 112.412 28.3193 112.169 28.03C111.936 27.7313 111.562 27.582 111.049 27.582C110.526 27.582 110.148 27.7267 109.915 28.016C109.691 28.3053 109.579 28.814 109.579 29.542C109.579 30.2233 109.696 30.7087 109.929 30.998ZM111.049 25.79C112.384 25.79 113.354 26.07 113.961 26.63C114.577 27.1807 114.885 28.1513 114.885 29.542C114.885 30.8953 114.577 31.8473 113.961 32.398C113.354 32.9393 112.384 33.21 111.049 33.21C109.724 33.21 108.753 32.9393 108.137 32.398C107.53 31.8473 107.227 30.8953 107.227 29.542C107.227 28.1513 107.53 27.1807 108.137 26.63C108.753 26.07 109.724 25.79 111.049 25.79Z" fill="white"/>
<g opacity="0.25" clip-path="url(#clip0_1273_46981)">
<path d="M62.0625 24.7205H61.5V22.479C61.5 20.0067 59.4818 17.9962 57 17.9962C54.5182 17.9962 52.5 20.0067 52.5 22.479V24.7205H51.9375C51.4901 24.7211 51.0613 24.8984 50.7449 25.2135C50.4286 25.5286 50.2506 25.9559 50.25 26.4015V34.2465C50.25 35.1737 51.0075 35.9276 51.9375 35.9276H62.0625C62.9925 35.9276 63.75 35.1737 63.75 34.2465V26.4015C63.75 25.4743 62.9925 24.7205 62.0625 24.7205ZM54 22.479C54 20.8308 55.3455 19.4905 57 19.4905C58.6545 19.4905 60 20.8308 60 22.479V24.7205H54V22.479ZM57.75 30.4899V32.1919C57.75 32.39 57.671 32.5801 57.5303 32.7202C57.3897 32.8603 57.1989 32.939 57 32.939C56.8011 32.939 56.6103 32.8603 56.4697 32.7202C56.329 32.5801 56.25 32.39 56.25 32.1919V30.4899C55.8038 30.2306 55.5 29.754 55.5 29.2033C55.5 28.3792 56.1727 27.709 57 27.709C57.8273 27.709 58.5 28.3792 58.5 29.2033C58.5 29.754 58.1962 30.2306 57.75 30.4899Z" fill="white"/>
</g>
<defs>
<filter id="filter0_f_1273_46981" x="-331.318" y="-37.7768" width="499.318" height="214.179" filterUnits="userSpaceOnUse" color-interpolation-filters="sRGB">
<feFlood flood-opacity="0" result="BackgroundImageFix"/>
<feBlend mode="normal" in="SourceGraphic" in2="BackgroundImageFix" result="shape"/>
<feGaussianBlur stdDeviation="2" result="effect1_foregroundBlur_1273_46981"/>
</filter>
<filter id="filter1_f_1273_46981" x="-477.318" y="-183.777" width="658.558" height="506.179" filterUnits="userSpaceOnUse" color-interpolation-filters="sRGB">
<feFlood flood-opacity="0" result="BackgroundImageFix"/>
<feBlend mode="normal" in="SourceGraphic" in2="BackgroundImageFix" result="shape"/>
<feGaussianBlur stdDeviation="75" result="effect1_foregroundBlur_1273_46981"/>
</filter>
<filter id="filter2_f_1273_46981" x="-66.3879" y="-47.2297" width="154.298" height="154.231" filterUnits="userSpaceOnUse" color-interpolation-filters="sRGB">
<feFlood flood-opacity="0" result="BackgroundImageFix"/>
<feBlend mode="normal" in="SourceGraphic" in2="BackgroundImageFix" result="shape"/>
<feGaussianBlur stdDeviation="35" result="effect1_foregroundBlur_1273_46981"/>
</filter>
<filter id="filter3_b_1273_46981" x="-231.2" y="-231.2" width="626.4" height="522.4" filterUnits="userSpaceOnUse" color-interpolation-filters="sRGB">
<feFlood flood-opacity="0" result="BackgroundImageFix"/>
<feGaussianBlur in="BackgroundImageFix" stdDeviation="115.6"/>
<feComposite in2="SourceAlpha" operator="in" result="effect1_backgroundBlur_1273_46981"/>
<feBlend mode="normal" in="SourceGraphic" in2="effect1_backgroundBlur_1273_46981" result="shape"/>
</filter>
<linearGradient id="paint0_linear_1273_46981" x1="6.04985" y1="4.98096" x2="29.7408" y2="65.3782" gradientUnits="userSpaceOnUse">
<stop stop-color="#FDF74B"/>
<stop offset="1" stop-color="#A09B05"/>
</linearGradient>
<linearGradient id="paint1_linear_1273_46981" x1="23.5979" y1="1.42314" x2="-11.7617" y2="52.0359" gradientUnits="userSpaceOnUse">
<stop stop-color="#F7F147"/>
<stop offset="1" stop-color="#C4BF21"/>
</linearGradient>
<linearGradient id="paint2_linear_1273_46981" x1="17.9113" y1="29.8854" x2="17.9113" y2="54.7902" gradientUnits="userSpaceOnUse">
<stop stop-color="#FAF449"/>
<stop offset="1" stop-color="#FFFB73"/>
</linearGradient>
<linearGradient id="paint3_linear_1273_46981" x1="-5.9738" y1="4.98096" x2="-5.9738" y2="29.8857" gradientUnits="userSpaceOnUse">
<stop stop-color="#FAF449"/>
<stop offset="1" stop-color="#FFFB73"/>
</linearGradient>
<clipPath id="clip0_1273_46981">
<rect width="18" height="17.9314" fill="white" transform="translate(48 17.9962)"/>
</clipPath>
</defs>
</svg>
