<svg width="15" height="15" viewBox="0 0 15 15" fill="none" xmlns="http://www.w3.org/2000/svg">
<path d="M12.2701 13.0221C12.1215 13.0223 11.9762 12.9782 11.8526 12.8956C11.729 12.8129 11.6328 12.6954 11.5761 12.558C11.5195 12.4206 11.5049 12.2694 11.5344 12.1237C11.5638 11.978 11.6358 11.8443 11.7414 11.7396C12.8754 10.6131 13.5002 9.10857 13.5002 7.50205C13.5002 5.89552 12.8754 4.391 11.7414 3.26448C11.6003 3.12424 11.5206 2.93369 11.52 2.73473C11.5193 2.53578 11.5978 2.34472 11.738 2.20359C11.8782 2.06246 12.0688 1.98281 12.2678 1.98218C12.4667 1.98155 12.6578 2.05998 12.7989 2.20021C14.2187 3.61098 15.0002 5.49351 15.0002 7.50205C15.0002 9.51058 14.2187 11.3931 12.7989 12.8039C12.6585 12.9438 12.4684 13.0223 12.2701 13.0221Z" fill="#D4D4D4"/>
<path d="M10.1477 10.8997C9.99882 10.9 9.85325 10.856 9.72952 10.7733C9.60578 10.6905 9.50949 10.5728 9.45293 10.4351C9.39636 10.2975 9.38208 10.1461 9.41191 10.0002C9.44174 9.85442 9.51432 9.72079 9.6204 9.61638C10.1792 9.06362 10.5002 8.29261 10.5002 7.5021C10.5002 6.71159 10.1792 5.94057 9.6204 5.38782C9.54848 5.31901 9.49098 5.23658 9.45125 5.14532C9.41151 5.05407 9.39034 4.95582 9.38896 4.8563C9.38757 4.75678 9.40602 4.65798 9.4432 4.56566C9.48039 4.47333 9.53559 4.38934 9.60556 4.31856C9.67554 4.24779 9.75891 4.19165 9.8508 4.15342C9.9427 4.11519 10.0413 4.09563 10.1408 4.09588C10.2403 4.09614 10.3388 4.1162 10.4305 4.1549C10.5222 4.1936 10.6053 4.25017 10.6749 4.3213C11.0939 4.73843 11.4267 5.23405 11.6541 5.77983C11.8815 6.3256 11.9991 6.91084 12.0002 7.5021C11.9991 8.09335 11.8815 8.67859 11.6541 9.22437C11.4267 9.77015 11.0939 10.2658 10.6749 10.6829C10.5347 10.822 10.3452 10.8999 10.1477 10.8997ZM7.50012 15.0022C7.30122 15.0022 7.11048 14.9231 6.96986 14.7825L3.43955 11.2522H1.50002C0.67276 11.2522 0 10.5794 0 9.75213V5.25206C0 4.4248 0.67276 3.75204 1.50002 3.75204H3.43955L6.96986 0.221735C7.07447 0.116137 7.20814 0.044075 7.35386 0.0147312C7.49957 -0.0146125 7.65072 9.12357e-05 7.78805 0.0569685C7.92537 0.113846 8.04265 0.210321 8.12495 0.3341C8.20724 0.457879 8.25082 0.603356 8.25013 0.751993V14.2522C8.25013 14.4511 8.17111 14.6419 8.03045 14.7825C7.8898 14.9232 7.69903 15.0022 7.50012 15.0022Z" fill="#D4D4D4"/>
</svg>
