<svg width="18" height="18" viewBox="0 0 18 18" fill="none" xmlns="http://www.w3.org/2000/svg">
<path fill-rule="evenodd" clip-rule="evenodd" d="M0.599854 8.49686V12.2572C0.599854 14.1219 2.19691 15.6342 4.16981 15.6415H4.38327C4.64733 15.6415 4.90056 15.5425 5.08728 15.3662C5.27399 15.1899 5.37888 14.9507 5.37888 14.7014V9.06077C5.37888 8.81144 5.27399 8.57233 5.08728 8.39603C4.90056 8.21973 4.64733 8.12069 4.38327 8.12069H4.17173C3.05079 8.12415 2.05113 8.61376 1.39645 9.37777V8.49686C1.39645 8.11286 1.42866 7.73613 1.49037 7.3687H2.3479C2.55865 7.36855 2.76392 7.30528 2.93417 7.18798C3.10442 7.07068 3.23086 6.90541 3.2953 6.71594C4.08091 4.47472 6.32184 2.85602 8.9631 2.85602C10.2177 2.85609 11.4404 3.2291 12.4578 3.92215C13.4753 4.6152 14.2359 5.59311 14.6317 6.71721C14.6964 6.90569 14.8227 7.06998 14.9924 7.1865C15.1621 7.30302 15.3665 7.36578 15.5764 7.36578C15.8463 7.36742 16.1873 7.36815 16.4351 7.36815C16.4976 7.73923 16.5298 8.1165 16.5298 8.49668V9.37758C15.8751 8.61358 14.8752 8.12396 13.7545 8.1205H13.5429C13.2789 8.1205 13.0256 8.21955 12.8389 8.39585C12.6522 8.57215 12.5473 8.81126 12.5473 9.06058V15.2651C12.5473 15.5645 12.4214 15.8514 12.1973 16.0627C12.0865 16.1675 11.9548 16.2507 11.8099 16.3074C11.665 16.3641 11.5096 16.3933 11.3527 16.3933H10.488C10.4056 16.1734 10.253 15.9829 10.0512 15.8483C9.84945 15.7136 9.60841 15.6413 9.36131 15.6413H8.5649C8.408 15.6413 8.25264 15.6705 8.10768 15.7271C7.96272 15.7838 7.83101 15.8669 7.72006 15.9716C7.60911 16.0764 7.52109 16.2007 7.46105 16.3376C7.401 16.4745 7.37009 16.6212 7.37009 16.7693V16.77C7.37015 17.069 7.49596 17.3558 7.71987 17.5672C7.94379 17.7786 8.24747 17.8974 8.56413 17.8975H9.36208C9.60908 17.8975 9.84999 17.8251 10.0516 17.6905C10.2533 17.5558 10.4058 17.3654 10.488 17.1455H11.3525C11.8807 17.1455 12.3873 16.9472 12.7608 16.5949C13.0366 16.334 13.2254 16.0025 13.3036 15.6413H13.7421C15.7218 15.6413 17.3264 14.1262 17.3264 12.257V8.49686C17.3264 7.45982 17.1101 6.43292 16.6898 5.47482C16.2694 4.51673 15.6533 3.64622 14.8766 2.91301C14.1001 2.17967 13.1782 1.59795 12.1635 1.20108C11.1489 0.80422 10.0614 0.599987 8.9631 0.600052C4.34432 0.600052 0.599854 4.1355 0.599854 8.49686Z" fill="#B4B4B4"/>
</svg>
